,Velocity,MIDI,Pitch,Start,End
0,127,40.0,0.0,0.0,1.0
1,127,36.0,0.5,1.0,2.0
2,127,41.0,0.0,2.0,3.0
3,127,43.0,0.0,3.0,5.0
4,127,41.0,0.0,5.0,5.333333
5,127,44.0,0.0,5.333333,6.0
6,127,43.0,0.0,6.0,6.666667
7,127,41.0,0.0,6.666667,8.0
8,127,43.0,0.0,8.0,9.333333
9,127,46.0,0.4,10.0,10.666667
10,127,43.0,0.1,10.666667,11.0
11,127,45.0,0.4,11.0,12.0
12,127,43.0,0.0,12.0,13.0
13,127,38.0,0.3,13.0,13.333333
14,127,34.0,0.4,13.333333,14.0
15,127,38.0,0.6,14.0,14.666667
16,127,33.0,0.4,14.666667,15.0
17,127,38.0,0.2,15.0,16.0
18,127,41.0,0.0,16.0,17.0
19,127,45.0,0.0,17.0,17.333333
20,127,50.0,0.3,17.333333,19.0
21,127,47.0,0.8,19.0,20.0
22,127,50.0,0.0,20.0,21.333333
23,127,53.0,0.0,21.333333,22.666667
24,127,57.0,0.0,22.666667,23.0
25,127,55.0,0.1,23.0,24.0
26,127,58.0,0.0,24.0,25.0
27,127,52.0,0.0,25.0,25.333333
28,127,47.0,0.8,25.333333,26.0
29,127,41.0,0.0,26.0,26.666667
30,127,43.0,0.0,26.666667,27.0
31,127,38.0,0.2,27.0,28.0
32,127,39.0,0.2,28.0,29.0
33,127,43.0,0.1,29.0,29.333333
34,127,41.0,0.0,29.333333,30.0
35,127,46.0,0.0,30.0,30.666667
36,127,43.0,0.1,30.666667,31.0
37,127,45.0,0.5,31.0,32.0
38,127,43.0,0.0,32.0,33.0
39,127,46.0,0.1,33.0,33.333333
40,127,40.0,0.0,33.333333,34.0
41,127,45.0,0.0,34.0,34.666667
42,127,41.0,0.0,34.666667,35.0
43,127,40.0,0.6,35.0,36.0
44,127,38.0,0.2,36.0,37.0
45,127,33.0,0.5,37.0,37.333333
46,127,39.0,0.2,37.333333,38.0
47,127,45.0,0.8,38.0,38.666667
48,127,43.0,0.1,38.666667,40.0
49,127,40.0,0.0,40.0,41.0
50,127,34.0,0.4,41.0,41.333333
51,127,33.0,0.5,41.333333,42.666667
52,127,31.0,0.4,42.666667,43.0
53,127,28.0,0.6,43.0,44.0
54,127,33.0,0.1,44.0,46.0
55,127,34.0,0.0,46.0,46.666667
56,127,40.0,0.6,46.666667,48.0
57,127,41.0,0.6,48.0,49.333333
58,127,45.0,0.5,49.333333,50.0
59,127,43.0,0.0,50.0,50.666667
60,127,45.0,0.8,50.666667,52.0
61,127,43.0,0.7,52.0,53.0
62,127,48.0,0.2,53.0,53.333333
63,127,52.0,0.0,53.333333,54.0
64,127,48.0,0.5,54.0,54.666667
65,127,46.0,0.4,54.666667,55.0
66,127,52.0,0.6,55.0,56.0
67,127,55.0,0.4,56.0,57.0
68,127,57.0,0.0,57.0,57.333333
69,127,52.0,0.6,57.333333,58.0
70,127,48.0,0.2,58.0,58.666667
71,127,45.0,0.4,58.666667,60.0
72,127,46.0,0.0,60.0,62.0
73,127,44.0,0.0,62.0,63.0
74,127,41.0,0.0,63.0,66.0
75,127,43.0,0.4,66.0,67.0
76,127,47.0,0.8,67.0,68.0
77,127,45.0,0.0,68.0,69.0
78,127,41.0,0.0,69.0,69.333333
79,127,43.0,0.7,69.333333,70.0
80,127,41.0,0.3,70.0,70.666667
81,127,36.0,0.2,70.666667,71.0
82,127,31.0,0.4,71.0,72.0
83,127,36.0,0.5,72.0,73.0
84,127,32.0,0.0,73.0,73.333333
85,127,28.0,0.6,73.333333,74.0
86,127,33.0,0.8,74.0,74.666667
87,127,31.0,0.4,74.666667,75.0
88,127,26.0,0.2,75.0,76.0
89,127,21.0,0.0,76.0,77.0
90,127,19.0,0.4,77.0,77.333333
91,127,24.0,0.2,77.333333,78.0
92,127,19.0,0.7,78.0,78.666667
93,127,21.0,0.4,78.666667,80.0
94,127,16.0,0.0,80.0,81.0
95,127,20.0,0.0,81.0,82.0
96,127,19.0,0.1,82.0,82.666667
97,127,20.0,0.0,82.666667,83.0
98,127,26.0,0.2,83.0,84.0
99,127,27.0,0.0,84.0,85.0
100,127,33.0,0.0,85.0,86.0
101,127,34.0,0.0,86.0,87.0
102,127,29.0,0.0,88.0,89.333333
103,127,35.0,0.8,89.333333,90.0
104,127,40.0,0.0,90.0,90.666667
105,127,45.0,0.0,90.666667,91.0
106,127,40.0,0.6,91.0,92.0
107,127,41.0,0.0,92.0,93.0
108,127,45.0,0.8,93.0,93.333333
109,127,41.0,0.3,93.333333,94.0
110,127,46.0,0.1,94.0,94.666667
111,127,43.0,0.4,94.666667,96.0
112,127,41.0,0.0,96.0,97.0
113,127,45.0,0.0,97.0,97.333333
114,127,44.0,0.0,97.333333,98.666667
115,127,45.0,0.8,98.666667,99.0
116,127,43.0,0.0,99.0,100.0
117,127,40.0,0.0,100.0,101.333333
118,127,45.0,0.5,101.333333,102.0
119,127,43.0,0.0,102.0,103.0
120,127,38.0,0.6,103.0,104.0
121,127,41.0,0.3,104.0,105.0
122,127,47.0,0.5,105.0,106.0
123,127,53.0,0.3,106.0,106.666667
124,127,52.0,0.0,106.666667,107.0
125,127,57.0,0.4,107.0,108.0
126,127,53.0,0.0,108.0,109.0
127,127,50.0,0.6,109.0,109.333333
128,127,55.0,0.1,109.333333,110.666667
129,127,50.0,0.2,110.666667,111.0
130,127,53.0,0.0,111.0,112.0
131,127,51.0,0.2,112.0,113.0
132,127,53.0,0.6,113.0,113.333333
133,127,57.0,0.0,113.333333,114.666667
134,127,58.0,0.0,114.666667,115.0
135,127,59.0,0.6,115.0,116.0
136,127,60.0,0.8,116.0,117.0
137,127,65.0,0.0,117.0,119.0
138,127,64.0,0.0,120.0,121.0
139,127,67.0,0.4,121.0,121.333333
140,127,64.0,0.6,121.333333,122.666667
141,127,58.0,0.0,122.666667,123.0
142,127,59.0,0.8,123.0,124.0
143,127,57.0,0.5,124.0,125.0
144,127,59.0,0.5,125.0,125.333333
145,127,58.0,0.1,125.333333,126.666667
146,127,55.0,0.0,126.666667,128.0
147,127,53.0,0.0,128.0,129.333333
148,127,57.0,0.0,129.333333,130.0
149,127,56.0,0.5,130.0,131.0
150,127,62.0,0.2,131.0,132.0
151,127,67.0,0.0,132.0,133.0
152,127,69.0,0.5,133.0,133.333333
153,127,64.0,0.0,133.333333,134.0
154,127,69.0,0.8,134.0,136.0
155,127,67.0,0.0,136.0,137.333333
156,127,62.0,0.6,137.333333,138.0
157,127,60.0,0.5,138.0,138.666667
158,127,65.0,0.3,138.666667,139.0
159,127,64.0,0.6,139.0,140.0
160,127,59.0,0.4,140.0,141.333333
161,127,53.0,0.3,141.333333,142.0
162,127,58.0,0.1,142.0,142.666667
163,127,57.0,0.4,142.666667,143.0
164,127,62.0,0.0,143.0,144.0
165,127,65.0,0.0,144.0,145.0
166,127,64.0,0.0,145.0,145.333333
167,127,62.0,0.6,145.333333,146.0
168,127,57.0,0.5,146.0,146.666667
169,127,55.0,0.7,146.666667,148.0
170,127,53.0,0.0,148.0,149.0
171,127,50.0,0.3,149.0,150.666667
172,127,53.0,0.6,150.666667,151.0
173,127,52.0,0.4,151.0,152.0
174,127,55.0,0.0,152.0,153.0
175,127,53.0,0.0,153.0,153.333333
176,127,59.0,0.6,153.333333,154.0
177,127,58.0,0.1,154.0,154.666667
178,127,60.0,0.8,154.666667,155.0
179,127,57.0,0.4,155.0,156.0
180,127,53.0,0.0,156.0,157.0
181,127,52.0,0.7,157.0,157.333333
182,127,53.0,0.3,157.333333,159.0
183,127,52.0,0.0,160.0,161.0
184,127,53.0,0.0,161.0,161.333333
185,127,55.0,0.4,161.333333,162.0
186,127,57.0,0.5,162.0,164.0
187,127,58.0,0.4,164.0,165.0
188,127,62.0,0.6,165.0,165.333333
189,127,60.0,0.5,165.333333,166.0
190,127,58.0,0.0,166.0,166.666667
191,127,59.0,0.5,166.666667,168.0
192,127,58.0,0.0,168.0,169.333333
193,127,55.0,0.0,170.0,170.666667
194,127,57.0,0.5,170.666667,171.0
195,127,59.0,0.8,171.0,172.0
196,127,58.0,0.0,172.0,173.0
197,127,53.0,0.0,173.0,173.333333
198,127,56.0,0.5,173.333333,174.0
199,127,52.0,0.7,174.0,174.666667
200,127,50.0,0.2,174.666667,175.0
201,127,47.0,0.8,175.0,176.0
202,127,43.0,0.4,176.0,177.0
203,127,45.0,0.0,177.0,179.0
204,127,50.0,0.2,179.0,180.0
205,127,47.0,0.4,180.0,181.333333
206,127,45.0,0.0,181.333333,182.0
207,127,50.0,0.3,182.0,183.0
208,127,46.0,0.4,183.0,185.0
209,127,47.0,0.5,185.0,185.333333
210,127,52.0,0.6,185.333333,186.0
211,127,55.0,0.7,186.0,186.666667
212,127,58.0,0.4,186.666667,187.0
213,127,52.0,0.6,187.0,188.0
214,127,55.0,0.4,188.0,189.0
215,127,60.0,0.2,189.0,189.333333
216,127,58.0,0.1,189.333333,190.0
217,127,60.0,0.5,190.0,190.666667
218,127,62.0,0.0,190.666667,191.0
219,127,56.0,0.0,191.0,192.0
220,127,53.0,0.0,192.0,193.0
221,127,55.0,0.4,193.0,193.333333
222,127,52.0,0.0,193.333333,194.0
223,127,57.0,0.0,194.0,195.0
224,127,55.0,0.0,195.0,196.0
225,127,56.0,0.0,196.0,197.0
226,127,57.0,0.8,197.0,197.333333
227,127,56.0,0.0,197.333333,198.0
228,127,55.0,0.0,198.0,198.666667
229,127,50.0,0.3,198.666667,200.0
230,127,52.0,0.0,200.0,201.0
231,127,55.0,0.1,201.0,201.333333
232,127,52.0,0.4,201.333333,202.666667
233,127,55.0,0.0,202.666667,204.0
234,127,53.0,0.0,204.0,205.0
235,127,50.0,0.9,205.0,205.333333
236,127,46.0,0.1,205.333333,206.666667
237,127,45.0,0.4,206.666667,208.0
238,127,41.0,0.0,208.0,209.333333
239,127,40.0,0.7,209.333333,210.666667
240,127,41.0,0.0,210.666667,211.0
241,127,40.0,0.6,211.0,212.0
242,127,45.0,0.8,212.0,213.0
243,127,41.0,0.3,213.0,213.333333
244,127,40.0,0.0,213.333333,214.0
245,127,41.0,0.0,214.0,215.0
246,127,35.0,0.8,215.0,216.0
247,127,33.0,0.5,216.0,218.0
248,127,38.0,0.9,218.0,218.666667
249,127,34.0,0.4,218.666667,219.0
250,127,38.0,0.2,219.0,220.0
251,127,43.0,0.0,220.0,221.333333
252,127,46.0,0.0,221.333333,222.0
253,127,48.0,0.5,222.0,224.0
254,127,43.0,0.1,224.0,225.0
255,127,44.0,0.5,225.0,226.0
256,127,47.0,0.9,226.0,226.666667
257,127,43.0,0.0,226.666667,227.0
258,127,47.0,0.8,227.0,228.0
259,127,45.0,0.0,228.0,229.0
260,127,48.0,0.5,229.0,229.333333
261,127,46.0,0.0,229.333333,230.0
262,127,41.0,0.0,230.0,231.0
263,127,46.0,0.1,231.0,232.0
264,127,52.0,0.5,232.0,233.0
265,127,57.0,0.5,233.0,233.333333
266,127,59.0,0.8,233.333333,234.0
267,127,60.0,0.5,234.0,234.666667
268,127,55.0,0.4,234.666667,235.0
269,127,57.0,0.4,235.0,237.0
270,127,58.0,0.1,237.0,238.0
271,127,57.0,0.8,238.0,238.666667
272,127,62.0,0.2,238.666667,240.0
273,127,59.0,0.0,240.0,241.0
274,127,57.0,0.5,241.0,242.0
275,127,59.0,0.6,242.0,242.666667
276,127,62.0,0.3,242.666667,243.0
277,127,57.0,0.4,243.0,244.0
278,127,58.0,0.4,244.0,246.666667
279,127,59.0,0.5,246.666667,248.0
280,127,55.0,0.1,248.0,249.333333
281,127,52.0,0.6,249.333333,250.666667
282,127,55.0,0.4,250.666667,252.0
283,127,60.0,0.0,252.0,253.0
284,127,55.0,0.7,253.0,253.333333
285,127,60.0,0.5,253.333333,254.0
286,127,55.0,0.4,254.0,254.666667
287,127,56.0,0.0,254.666667,255.0
288,127,50.0,0.2,255.0,256.0
289,127,53.0,0.0,256.0,257.0
290,127,57.0,0.0,257.0,257.333333
291,127,55.0,0.4,257.333333,258.666667
292,127,57.0,0.0,258.666667,259.0
293,127,52.0,0.6,259.0,260.0
294,127,55.0,0.0,260.0,261.333333
295,127,56.0,0.0,261.333333,262.0
296,127,53.0,0.0,262.0,262.666667
297,127,57.0,0.8,262.666667,263.0
298,127,62.0,0.9,263.0,264.0
299,127,67.0,0.0,264.0,265.0
300,127,64.0,0.0,265.0,266.0
301,127,69.0,0.8,266.0,266.666667
302,127,64.0,0.0,266.666667,267.0
303,127,62.0,0.2,267.0,268.0
304,127,67.0,0.1,268.0,269.0
305,127,62.0,0.9,269.0,270.0
306,127,65.0,0.0,270.0,270.666667
307,127,67.0,0.0,270.666667,271.0
308,127,72.0,0.5,271.0,272.0
309,127,77.0,0.0,272.0,273.0
310,127,71.0,0.9,273.0,273.333333
311,127,74.0,0.9,273.333333,274.0
312,127,69.0,0.0,274.0,274.666667
313,127,70.0,0.0,274.666667,275.0
314,127,71.0,0.8,275.0,276.0
315,127,65.0,0.0,276.0,277.0
316,127,60.0,0.5,277.0,277.333333
317,127,65.0,0.0,277.333333,278.0
318,127,60.0,0.2,278.0,279.0
319,127,64.0,0.0,280.0,281.0
320,127,59.0,0.6,281.0,281.333333
321,127,64.0,0.6,281.333333,282.666667
322,127,69.0,0.8,282.666667,283.0
323,127,71.0,0.8,283.0,284.0
324,127,65.0,0.1,284.0,285.0
325,127,69.0,0.0,285.0,285.333333
326,127,65.0,0.0,285.333333,286.666667
327,127,59.0,0.8,286.666667,288.0
328,127,57.0,0.5,288.0,290.0
329,127,53.0,0.0,290.0,290.666667
330,127,50.0,0.9,290.666667,291.0
331,127,45.0,0.4,291.0,292.0
332,127,50.0,0.2,292.0,293.0
333,127,45.0,0.8,293.0,293.333333
334,127,43.0,0.0,293.333333,295.0
335,127,40.0,0.6,295.0,296.0
336,127,43.0,0.1,296.0,297.0
337,127,45.0,0.0,297.0,298.0
338,127,41.0,0.0,298.0,298.666667
339,127,43.0,0.1,298.666667,300.0
340,127,44.0,0.0,300.0,301.333333
341,127,47.0,0.9,301.333333,302.0
342,127,43.0,0.1,302.0,302.666667
343,127,47.0,0.8,302.666667,303.0
344,127,41.0,0.0,303.0,304.0
345,127,45.0,0.0,304.0,305.0
346,127,44.0,0.5,305.0,305.333333
347,127,48.0,0.5,305.333333,306.0
348,127,50.0,0.0,306.0,306.666667
349,127,53.0,0.0,306.666667,307.0
350,127,52.0,0.6,307.0,308.0
351,127,50.0,0.1,308.0,309.0
352,127,53.0,0.0,309.0,309.333333
353,127,48.0,0.5,309.333333,310.0
354,127,43.0,0.4,310.0,310.666667
355,127,45.0,0.5,310.666667,311.0
356,127,50.0,0.6,311.0,312.0
357,127,46.0,0.4,312.0,313.0
358,127,50.0,0.0,313.0,313.333333
359,127,45.0,0.4,313.333333,314.0
360,127,50.0,0.6,314.0,315.0
361,127,45.0,0.5,315.0,316.0
362,127,50.0,0.1,316.0,317.333333
363,127,45.0,0.8,317.333333,318.0
364,127,50.0,0.3,318.0,319.0
365,127,52.0,0.0,320.0,321.0
366,127,50.0,0.0,321.0,321.333333
367,127,45.0,0.5,321.333333,322.666667
368,127,47.0,0.6,322.666667,323.0
369,127,50.0,0.2,323.0,325.0
370,127,44.0,0.5,325.0,325.333333
371,127,46.0,0.4,325.333333,326.0
372,127,45.0,0.4,326.0,329.333333
373,127,40.0,0.0,330.0,330.666667
374,127,43.0,0.1,330.666667,331.0
375,127,47.0,0.8,331.0,332.0
376,127,46.0,0.0,332.0,333.0
377,127,48.0,0.2,333.0,333.333333
378,127,52.0,0.0,333.333333,334.0
379,127,47.0,0.9,334.0,334.666667
380,127,43.0,0.0,334.666667,336.0
381,127,45.0,0.0,336.0,337.333333
382,127,43.0,0.7,337.333333,339.0
383,127,45.0,0.4,339.0,340.0
384,127,40.0,0.0,340.0,341.333333
385,127,41.0,0.0,341.333333,342.0
386,127,45.0,0.5,342.0,343.0
387,127,43.0,0.4,343.0,344.0
388,127,46.0,0.0,344.0,345.0
389,127,45.0,0.5,345.0,345.333333
390,127,40.0,0.6,345.333333,346.0
391,127,36.0,0.2,346.0,346.666667
392,127,32.0,0.5,346.666667,347.0
393,127,31.0,0.0,347.0,348.0
394,127,32.0,0.0,348.0,349.0
395,127,31.0,0.4,349.0,349.333333
396,127,29.0,0.0,349.333333,350.0
397,127,33.0,0.4,350.0,350.666667
398,127,38.0,0.9,350.666667,351.0
399,127,41.0,0.0,351.0,352.0
400,127,45.0,0.5,352.0,353.0
401,127,40.0,0.4,353.0,354.0
402,127,45.0,0.0,354.0,355.0
403,127,47.0,0.9,355.0,356.0
404,127,50.0,0.2,356.0,357.0
405,127,53.0,0.0,357.0,357.333333
406,127,57.0,0.5,357.333333,358.0
407,127,62.0,0.2,358.0,360.0
408,127,64.0,0.0,360.0,361.0
409,127,62.0,0.6,361.0,361.333333
410,127,60.0,0.5,361.333333,362.666667
411,127,55.0,0.1,362.666667,363.0
412,127,52.0,0.6,363.0,364.0
413,127,47.0,0.5,364.0,365.0
414,127,48.0,0.5,365.0,365.333333
415,127,45.0,0.0,365.333333,366.0
416,127,43.0,0.4,366.0,366.666667
417,127,47.0,0.8,366.666667,368.0
418,127,53.0,0.0,368.0,369.333333
419,127,48.0,0.5,369.333333,370.0
420,127,43.0,0.4,370.0,370.666667
421,127,48.0,0.2,370.666667,371.0
422,127,50.0,0.2,371.0,372.0
423,127,48.0,0.2,372.0,373.333333
424,127,52.0,0.0,373.333333,374.0
425,127,48.0,0.2,374.0,374.666667
426,127,47.0,0.6,374.666667,375.0
427,127,45.0,0.4,375.0,376.0
428,127,46.0,0.1,376.0,377.0
429,127,45.0,0.0,377.0,377.333333
430,127,47.0,0.8,377.333333,378.0
431,127,43.0,0.4,378.0,379.0
432,127,47.0,0.8,379.0,380.0
433,127,43.0,0.0,380.0,381.333333
434,127,41.0,0.0,381.333333,383.0
435,127,44.0,0.0,383.0,384.0
436,127,43.0,0.4,384.0,385.0
437,127,40.0,0.0,385.0,386.666667
438,127,41.0,0.0,386.666667,387.0
439,127,45.0,0.4,387.0,389.0
440,127,43.0,0.7,389.0,389.333333
441,127,46.0,0.4,389.333333,390.0
442,127,43.0,0.0,390.0,390.666667
443,127,45.0,0.8,390.666667,391.0
444,127,41.0,0.6,391.0,392.0
445,127,43.0,0.0,392.0,393.0
446,127,41.0,0.0,393.0,393.333333
447,127,40.0,0.6,393.333333,394.666667
448,127,43.0,0.1,394.666667,396.0
449,127,45.0,0.0,396.0,397.0
450,127,41.0,0.3,397.0,398.666667
451,127,43.0,0.0,398.666667,400.0
452,127,40.0,0.0,400.0,401.0
453,127,41.0,0.0,401.0,402.0
454,127,38.0,0.6,402.0,402.666667
455,127,43.0,0.1,402.666667,404.0
456,127,41.0,0.0,404.0,405.0
457,127,36.0,0.5,405.0,405.333333
458,127,33.0,0.8,405.333333,406.0
459,127,31.0,0.0,406.0,406.666667
460,127,32.0,0.5,406.666667,408.0
461,127,31.0,0.0,408.0,409.333333
462,127,28.0,0.6,409.333333,410.0
463,127,31.0,0.0,410.0,410.666667
464,127,26.0,0.6,410.666667,411.0
465,127,21.0,0.4,411.0,412.0
466,127,19.0,0.0,412.0,413.0
467,127,17.0,0.0,413.0,413.333333
468,127,19.0,0.4,413.333333,414.0
469,127,17.0,0.3,414.0,414.666667
470,127,14.0,0.6,414.666667,415.0
471,127,9.0,0.4,415.0,417.333333
472,127,14.0,0.0,417.333333,419.0
473,127,11.0,0.8,419.0,420.0
474,127,8.0,0.5,420.0,421.333333
475,127,14.0,0.3,421.333333,422.0
476,127,19.0,0.7,422.0,422.666667
477,127,14.0,0.6,422.666667,423.0
478,127,11.0,0.6,423.0,424.0
479,127,7.0,0.3,424.0,425.0
480,127,11.0,0.5,425.0,426.0
481,127,12.0,0.5,426.0,426.666667
482,127,7.0,0.0,426.666667,427.0
483,127,2.0,0.2,427.0,428.0
484,127,-3.0,0.0,428.0,430.666667
485,127,2.0,0.2,430.666667,433.333333
486,127,8.0,0.5,433.333333,434.0
487,127,9.0,0.0,434.0,435.0
488,127,4.0,0.6,435.0,436.0
489,127,7.0,0.4,436.0,437.0
490,127,12.0,0.2,437.0,437.333333
491,127,9.0,0.5,437.333333,438.0
492,127,12.0,0.5,438.0,439.0
493,127,16.0,0.0,440.0,441.0
494,127,14.0,0.9,441.0,441.333333
495,127,11.0,0.8,441.333333,442.666667
496,127,10.0,0.0,442.666667,443.0
497,127,16.0,0.6,443.0,444.0
498,127,12.0,0.0,444.0,445.333333
499,127,11.0,0.9,445.333333,446.0
500,127,8.0,0.0,446.0,446.666667
501,127,7.0,0.0,446.666667,448.0
502,127,9.0,0.0,448.0,450.0
503,127,4.0,0.0,450.0,451.0
504,127,7.0,0.0,451.0,452.0
505,127,9.0,0.0,452.0,453.0
506,127,4.0,0.7,453.0,454.0
507,127,5.0,0.0,454.0,455.0
508,127,11.0,0.8,455.0,456.0
509,127,7.0,0.4,456.0,457.0
510,127,9.0,0.0,457.0,457.333333
511,127,7.0,0.4,457.333333,458.666667
512,127,10.0,0.0,458.666667,459.0
513,127,9.0,0.4,459.0,461.333333
514,127,12.0,0.2,461.333333,462.0
515,127,17.0,0.6,462.0,462.666667
516,127,19.0,0.0,462.666667,463.0
517,127,21.0,0.5,463.0,464.0
518,127,20.0,0.0,464.0,465.333333
519,127,19.0,0.4,465.333333,466.0
520,127,17.0,0.0,466.0,466.666667
521,127,21.0,0.4,466.666667,467.0
522,127,23.0,0.8,467.0,468.0
523,127,29.0,0.0,468.0,469.0
524,127,33.0,0.5,469.0,470.666667
525,127,28.0,0.4,470.666667,471.0
526,127,23.0,0.9,471.0,472.0
527,127,21.0,0.0,472.0,473.0
528,127,24.0,0.5,473.0,473.333333
529,127,23.0,0.9,473.333333,474.0
530,127,29.0,0.3,474.0,475.0
531,127,26.0,0.2,475.0,476.0
532,127,29.0,0.0,476.0,477.0
533,127,35.0,0.9,477.0,477.333333
534,127,38.0,0.2,477.333333,478.0
535,127,36.0,0.2,478.0,479.0
536,127,40.0,0.0,480.0,481.0
537,127,36.0,0.5,481.0,481.333333
538,127,38.0,0.6,481.333333,482.0
539,127,41.0,0.0,482.0,483.0
540,127,38.0,0.2,483.0,485.0
541,127,33.0,0.0,485.0,486.666667
542,127,36.0,0.5,486.666667,488.0
543,127,34.0,0.4,488.0,489.333333
544,127,35.0,0.5,490.0,490.666667
545,127,34.0,0.0,490.666667,491.0
546,127,40.0,0.6,491.0,492.0
547,127,46.0,0.0,492.0,493.0
548,127,50.0,0.3,493.0,493.333333
549,127,55.0,0.4,493.333333,494.0
550,127,50.0,0.6,494.0,496.0
551,127,48.0,0.0,496.0,497.0
552,127,45.0,0.0,497.0,497.333333
553,127,48.0,0.5,497.333333,499.0
554,127,43.0,0.0,499.0,500.0
555,127,45.0,0.0,500.0,501.333333
556,127,46.0,0.1,501.333333,502.0
557,127,41.0,0.0,502.0,502.666667
558,127,45.0,0.0,502.666667,503.0
559,127,43.0,0.1,503.0,505.0
560,127,40.0,0.0,505.0,505.333333
561,127,35.0,0.8,505.333333,506.0
562,127,41.0,0.0,506.0,506.666667
563,127,43.0,0.7,506.666667,507.0
564,127,45.0,0.4,507.0,508.0
565,127,41.0,0.3,508.0,509.0
566,127,43.0,0.1,509.0,509.333333
567,127,41.0,0.0,509.333333,510.666667
568,127,44.0,0.0,510.666667,511.0
569,127,45.0,0.5,511.0,512.0
570,127,43.0,0.4,512.0,513.0
571,127,46.0,0.1,513.0,513.333333
572,127,52.0,0.0,513.333333,514.0
573,127,57.0,0.0,514.0,514.666667
574,127,52.0,0.4,514.666667,515.0
575,127,55.0,0.1,515.0,516.0
576,127,57.0,0.4,516.0,518.666667
577,127,55.0,0.7,518.666667,521.0
578,127,58.0,0.4,521.0,521.333333
579,127,53.0,0.6,521.333333,522.666667
580,127,56.0,0.0,522.666667,523.0
581,127,59.0,0.8,523.0,524.0
582,127,53.0,0.0,524.0,525.0
583,127,52.0,0.0,525.0,526.0
584,127,46.0,0.0,526.0,526.666667
585,127,43.0,0.0,526.666667,528.0
586,127,48.0,0.5,528.0,529.0
587,127,53.0,0.3,529.333333,530.0
588,127,57.0,0.8,530.0,530.666667
589,127,53.0,0.0,530.666667,531.0
590,127,50.0,0.2,531.0,532.0
591,127,48.0,0.5,532.0,533.333333
592,127,52.0,0.0,533.333333,534.0
593,127,48.0,0.5,534.0,534.666667
594,127,53.0,0.0,534.666667,535.0
595,127,52.0,0.6,535.0,536.0
596,127,50.0,0.0,536.0,537.0
597,127,45.0,0.0,537.0,537.333333
598,127,43.0,0.0,537.333333,538.0
599,127,45.0,0.8,538.0,538.666667
600,127,44.0,0.0,538.666667,539.0
601,127,40.0,0.6,539.0,540.0
602,127,36.0,0.1,540.0,541.333333
603,127,31.0,0.0,541.333333,542.0
604,127,26.0,0.0,542.0,543.0
605,127,29.0,0.0,543.0,544.0
606,127,31.0,0.0,544.0,546.0
607,127,26.0,0.6,546.0,546.666667
608,127,31.0,0.0,546.666667,548.0
609,127,33.0,0.0,548.0,549.0
610,127,29.0,0.0,549.0,549.333333
611,127,31.0,0.4,549.333333,550.0
612,127,35.0,0.8,550.0,550.666667
613,127,41.0,0.0,550.666667,551.0
614,127,43.0,0.4,551.0,552.0
615,127,41.0,0.3,552.0,553.0
616,127,44.0,0.0,553.0,553.333333
617,127,45.0,0.4,553.333333,554.0
618,127,48.0,0.2,554.0,554.666667
619,127,45.0,0.5,554.666667,557.0
620,127,43.0,0.4,557.0,558.666667
621,127,47.0,0.8,558.666667,560.0
622,127,53.0,0.3,560.0,561.0
623,127,56.0,0.0,561.0,562.0
624,127,50.0,0.9,562.0,562.666667
625,127,55.0,0.7,562.666667,563.0
626,127,57.0,0.4,563.0,564.0
627,127,58.0,0.4,564.0,565.333333
628,127,55.0,0.7,565.333333,566.0
629,127,58.0,0.0,566.0,566.666667
630,127,59.0,0.5,566.666667,568.0
631,127,57.0,0.5,568.0,569.333333
632,127,62.0,0.2,569.333333,570.0
633,127,64.0,0.0,570.0,570.666667
634,127,69.0,0.4,570.666667,571.0
635,127,71.0,0.8,571.0,572.0
636,127,68.0,0.0,572.0,573.0
637,127,69.0,0.8,573.0,574.0
638,127,70.0,0.1,574.0,574.666667
639,127,74.0,0.0,574.666667,575.0
640,127,79.0,0.0,575.0,576.0
641,127,77.0,0.0,576.0,577.0
642,127,81.0,0.0,577.0,577.333333
643,127,86.0,0.6,577.333333,578.666667
644,127,81.0,0.0,578.666667,579.0
645,127,86.0,0.2,579.0,580.0
646,127,88.0,0.0,580.0,581.333333
647,127,91.0,0.4,581.333333,582.0
648,127,93.0,0.4,582.0,582.666667
649,127,96.0,0.2,582.666667,583.0
650,127,98.0,0.6,583.0,584.0
651,127,94.0,0.4,584.0,585.0
652,127,93.0,0.5,585.0,586.0
653,127,88.0,0.7,586.0,586.666667
654,127,91.0,0.4,586.666667,587.0
655,127,88.0,0.6,587.0,588.0
656,127,86.0,0.0,588.0,590.0
657,127,81.0,0.8,590.0,590.666667
658,127,76.0,0.6,590.666667,591.0
659,127,77.0,0.0,591.0,592.0
660,127,79.0,0.0,592.0,593.0
661,127,77.0,0.6,593.0,594.0
662,127,81.0,0.0,594.0,594.666667
663,127,80.0,0.0,594.666667,595.0
664,127,79.0,0.0,595.0,597.0
665,127,77.0,0.0,597.0,599.0
666,127,76.0,0.0,600.0,601.0
667,127,79.0,0.4,601.0,602.666667
668,127,80.0,0.0,602.666667,603.0
669,127,79.0,0.0,603.0,604.0
670,127,77.0,0.6,604.0,605.0
671,127,82.0,0.4,605.0,605.333333
672,127,77.0,0.0,605.333333,606.0
673,127,81.0,0.5,606.0,606.666667
674,127,83.0,0.8,606.666667,608.0
675,127,79.0,0.4,608.0,609.333333
676,127,81.0,0.0,609.333333,610.0
677,127,80.0,0.5,610.0,610.666667
678,127,79.0,0.7,610.666667,611.0
679,127,76.0,0.6,611.0,612.0
680,127,81.0,0.0,612.0,615.0
681,127,79.0,0.0,615.0,616.0
682,127,77.0,0.6,616.0,617.0
683,127,81.0,0.0,617.0,618.666667
684,127,84.0,0.8,618.666667,619.0
685,127,86.0,0.2,619.0,620.0
686,127,80.0,0.0,620.0,621.333333
687,127,77.0,0.0,621.333333,622.0
688,127,71.0,0.9,622.0,623.0
689,127,74.0,0.0,623.0,624.0
690,127,77.0,0.0,624.0,625.0
691,127,76.0,0.0,625.0,625.333333
692,127,81.0,0.5,625.333333,626.0
693,127,84.0,0.5,626.0,626.666667
694,127,81.0,0.4,626.666667,627.0
695,127,83.0,0.8,627.0,629.0
696,127,86.0,0.3,629.0,629.333333
697,127,81.0,0.4,629.333333,630.0
698,127,82.0,0.0,630.0,630.666667
699,127,84.0,0.5,630.666667,631.0
700,127,88.0,0.4,631.0,632.0
701,127,89.0,0.0,632.0,633.333333
702,127,86.0,0.2,633.333333,634.0
703,127,83.0,0.9,634.0,634.666667
704,127,77.0,0.0,634.666667,635.0
705,127,81.0,0.4,635.0,636.0
706,127,82.0,0.4,636.0,637.0
707,127,76.0,0.7,637.0,637.333333
708,127,72.0,0.2,637.333333,638.0
709,127,77.0,0.0,638.0,639.0
710,127,76.0,0.0,640.0,641.0
711,127,77.0,0.0,641.0,641.333333
712,127,72.0,0.5,641.333333,642.666667
713,127,77.0,0.0,642.666667,643.0
714,127,81.0,0.4,643.0,644.0
715,127,77.0,0.0,644.0,645.333333
716,127,74.0,0.6,645.333333,646.0
717,127,70.0,0.0,646.0,646.666667
718,127,69.0,0.0,646.666667,648.0
719,127,71.0,0.4,648.0,649.333333
720,127,67.0,0.0,650.0,650.666667
721,127,70.0,0.4,650.666667,652.0
722,127,68.0,0.0,652.0,653.0
723,127,65.0,0.0,653.0,653.333333
724,127,59.0,0.5,653.333333,654.0
725,127,64.0,0.7,654.0,656.0
726,127,58.0,0.0,656.0,657.0
727,127,57.0,0.0,657.0,657.333333
728,127,62.0,0.3,657.333333,659.0
729,127,64.0,0.6,659.0,660.0
730,127,59.0,0.2,660.0,661.333333
731,127,53.0,0.0,661.333333,662.0
732,127,47.0,0.8,662.0,662.666667
733,127,45.0,0.0,662.666667,663.0
734,127,46.0,0.4,663.0,665.0
735,127,47.0,0.5,665.0,665.333333
736,127,43.0,0.0,665.333333,666.0
737,127,38.0,0.3,666.0,666.666667
738,127,40.0,0.0,666.666667,667.0
739,127,38.0,0.2,667.0,669.0
740,127,36.0,0.2,669.0,669.333333
741,127,41.0,0.0,669.333333,670.0
742,127,36.0,0.5,670.0,670.666667
743,127,31.0,0.1,670.666667,671.0
744,127,32.0,0.0,671.0,672.0
745,127,29.0,0.0,672.0,673.0
746,127,31.0,0.4,673.0,673.333333
747,127,28.0,0.0,673.333333,674.0
748,127,33.0,0.0,674.0,674.666667
749,127,29.0,0.0,674.666667,675.0
750,127,35.0,0.8,675.0,676.0
751,127,36.0,0.4,676.0,677.0
752,127,33.0,0.8,677.0,677.333333
753,127,29.0,0.3,677.333333,678.0
754,127,33.0,0.4,678.0,678.666667
755,127,31.0,0.1,678.666667,681.333333
756,127,33.0,0.5,681.333333,683.0
757,127,35.0,0.8,683.0,684.0
758,127,41.0,0.0,684.0,685.0
759,127,45.0,0.0,685.0,686.0
760,127,43.0,0.1,686.0,688.0
761,127,41.0,0.0,688.0,689.333333
762,127,45.0,0.5,689.333333,690.0
763,127,40.0,0.0,690.0,690.666667
764,127,45.0,0.8,690.666667,692.0
765,127,41.0,0.0,692.0,693.333333
766,127,40.0,0.0,693.333333,694.0
767,127,41.0,0.0,694.0,694.666667
768,127,46.0,0.4,694.666667,695.0
769,127,50.0,0.2,695.0,696.0
770,127,53.0,0.3,696.0,697.0
771,127,57.0,0.0,697.0,697.333333
772,127,59.0,0.8,697.333333,698.0
773,127,55.0,0.1,698.0,700.0
774,127,52.0,0.0,700.0,701.333333
775,127,46.0,0.0,701.333333,702.0
776,127,45.0,0.5,702.0,703.0
777,127,48.0,0.5,703.0,704.0
778,127,45.0,0.5,704.0,705.0
779,127,44.0,0.5,705.0,706.0
780,127,46.0,0.1,706.0,706.666667
781,127,45.0,0.8,706.666667,707.0
782,127,40.0,0.6,707.0,708.0
783,127,45.0,0.0,708.0,709.0
784,127,48.0,0.5,709.0,710.0
785,127,53.0,0.0,710.0,710.666667
786,127,48.0,0.2,710.666667,711.0
787,127,46.0,0.1,711.0,712.0
788,127,48.0,0.5,712.0,713.0
789,127,45.0,0.5,713.0,713.333333
790,127,40.0,0.6,713.333333,714.666667
791,127,43.0,0.0,714.666667,715.0
792,127,41.0,0.0,715.0,716.0
793,127,45.0,0.0,716.0,717.0
794,127,46.0,0.1,717.0,717.333333
795,127,45.0,0.8,717.333333,718.666667
796,127,40.0,0.6,718.666667,721.0
797,127,45.0,0.5,721.0,722.0
798,127,46.0,0.4,722.0,722.666667
799,127,50.0,0.0,722.666667,724.0
800,127,53.0,0.0,724.0,725.0
801,127,56.0,0.5,725.0,726.0
802,127,58.0,0.0,726.0,726.666667
803,127,55.0,0.1,726.666667,728.0
804,127,50.0,0.4,728.0,729.333333
805,127,55.0,0.0,729.333333,730.0
806,127,53.0,0.6,730.0,730.666667
807,127,56.0,0.0,730.666667,731.0
808,127,59.0,0.8,731.0,732.0
809,127,58.0,0.0,732.0,733.0
810,127,55.0,0.7,733.0,733.333333
811,127,59.0,0.8,733.333333,734.0
812,127,55.0,0.4,734.0,735.0
813,127,59.0,0.8,735.0,736.0
814,127,60.0,0.0,736.0,737.0
815,127,57.0,0.0,737.0,737.333333
816,127,56.0,0.0,737.333333,738.666667
817,127,60.0,0.2,738.666667,739.0
818,127,57.0,0.4,739.0,741.333333
819,127,58.0,0.4,741.333333,742.0
820,127,53.0,0.0,742.0,742.666667
821,127,55.0,0.4,742.666667,743.0
822,127,50.0,0.9,743.0,744.0
823,127,55.0,0.7,744.0,745.0
824,127,52.0,0.0,745.0,746.0
825,127,48.0,0.2,746.0,746.666667
826,127,53.0,0.3,746.666667,747.0
827,127,55.0,0.0,747.0,748.0
828,127,56.0,0.0,748.0,749.0
829,127,50.0,0.9,749.0,750.0
830,127,55.0,0.0,750.0,750.666667
831,127,57.0,0.4,750.666667,751.0
832,127,60.0,0.5,751.0,752.0
833,127,58.0,0.4,752.0,753.0
834,127,59.0,0.9,753.0,753.333333
835,127,58.0,0.1,753.333333,754.0
836,127,57.0,0.0,754.0,754.666667
837,127,58.0,0.0,754.666667,755.0
838,127,55.0,0.4,755.0,756.0
839,127,57.0,0.8,756.0,757.0
840,127,60.0,0.5,757.0,757.333333
841,127,57.0,0.8,757.333333,758.0
842,127,59.0,0.8,758.0,759.0
843,127,64.0,0.0,760.0,761.0
844,127,59.0,0.6,761.0,762.666667
845,127,56.0,0.0,762.666667,763.0
846,127,52.0,0.6,763.0,764.0
847,127,57.0,0.0,764.0,765.0
848,127,56.0,0.0,765.0,765.333333
849,127,58.0,0.1,765.333333,766.0
850,127,53.0,0.0,766.0,766.666667
851,127,55.0,0.0,766.666667,768.0
852,127,53.0,0.0,768.0,769.333333
853,127,57.0,0.0,769.333333,770.0
854,127,53.0,0.0,770.0,771.0
855,127,50.0,0.2,771.0,773.0
856,127,45.0,0.8,773.0,773.333333
857,127,40.0,0.0,773.333333,774.0
858,127,45.0,0.4,774.0,776.0
859,127,43.0,0.1,776.0,777.0
860,127,45.0,0.0,777.0,777.333333
861,127,50.0,0.6,777.333333,778.0
862,127,53.0,0.0,778.0,778.666667
863,127,58.0,0.4,778.666667,779.0
864,127,59.0,0.8,779.0,780.0
865,127,53.0,0.3,780.0,781.333333
866,127,52.0,0.7,781.333333,782.0
867,127,55.0,0.1,782.0,782.666667
868,127,52.0,0.6,782.666667,783.0
869,127,53.0,0.0,783.0,785.0
870,127,55.0,0.4,785.0,785.333333
871,127,50.0,0.6,785.333333,786.0
872,127,44.0,0.0,786.0,786.666667
873,127,45.0,0.8,786.666667,788.0
874,127,41.0,0.0,788.0,789.333333
875,127,43.0,0.4,789.333333,790.666667
876,127,41.0,0.6,790.666667,791.0
877,127,38.0,0.6,791.0,792.0
878,127,33.0,0.0,792.0,793.0
879,127,38.0,0.0,793.0,793.333333
880,127,43.0,0.0,793.333333,796.0
881,127,41.0,0.0,796.0,797.0
882,127,38.0,0.6,797.0,797.333333
883,127,41.0,0.3,797.333333,798.0
884,127,38.0,0.3,798.0,799.0
885,127,40.0,0.0,800.0,801.0
886,127,38.0,0.0,801.0,801.333333
887,127,43.0,0.4,801.333333,802.0
888,127,44.0,0.0,802.0,803.0
889,127,43.0,0.0,803.0,805.333333
890,127,41.0,0.6,805.333333,806.0
891,127,43.0,0.0,806.0,806.666667
892,127,46.0,0.4,806.666667,808.0
893,127,45.0,0.0,808.0,810.0
894,127,40.0,0.0,810.0,811.0
895,127,45.0,0.4,811.0,812.0
896,127,43.0,0.0,812.0,813.0
897,127,48.0,0.2,813.0,813.333333
898,127,44.0,0.5,813.333333,814.0
899,127,47.0,0.9,814.0,814.666667
900,127,52.0,0.6,814.666667,815.0
901,127,57.0,0.4,815.0,816.0
902,127,53.0,0.0,816.0,817.0
903,127,57.0,0.0,817.0,819.0
904,127,59.0,0.8,819.0,820.0
905,127,55.0,0.0,820.0,821.333333
906,127,59.0,0.9,821.333333,822.0
907,127,57.0,0.4,822.0,823.0
908,127,55.0,0.4,823.0,824.0
909,127,57.0,0.0,824.0,825.0
910,127,59.0,0.5,825.0,825.333333
911,127,62.0,0.2,825.333333,826.0
912,127,57.0,0.8,826.0,826.666667
913,127,56.0,0.0,826.666667,827.0
914,127,50.0,0.2,827.0,828.0
915,127,46.0,0.1,828.0,829.0
916,127,43.0,0.4,829.0,829.333333
917,127,47.0,0.9,829.333333,830.0
918,127,43.0,0.0,830.0,830.666667
919,127,38.0,0.0,830.666667,831.0
920,127,41.0,0.0,831.0,832.0
921,127,46.0,0.4,832.0,833.0
922,127,52.0,0.4,833.0,834.0
923,127,57.0,0.0,834.0,834.666667
924,127,60.0,0.5,834.666667,835.0
925,127,64.0,0.6,835.0,836.0
926,127,65.0,0.6,836.0,838.0
927,127,59.0,0.8,838.0,838.666667
928,127,62.0,0.3,838.666667,840.0
929,127,64.0,0.0,840.0,841.0
930,127,62.0,0.6,841.0,841.333333
931,127,64.0,0.4,841.333333,842.666667
932,127,65.0,0.0,842.666667,843.0
933,127,64.0,0.6,843.0,844.0
934,127,60.0,0.5,844.0,845.0
935,127,59.0,0.9,845.333333,846.0
936,127,58.0,0.0,846.0,846.666667
937,127,57.0,0.4,846.666667,848.0
938,127,58.0,0.4,848.0,849.333333
939,127,52.0,0.7,849.333333,850.666667
940,127,53.0,0.0,850.666667,851.0
941,127,55.0,0.0,851.0,852.0
942,127,56.0,0.0,852.0,853.0
943,127,60.0,0.5,853.0,853.333333
944,127,64.0,0.0,853.333333,854.0
945,127,60.0,0.2,854.0,854.666667
946,127,65.0,0.0,854.666667,855.0
947,127,67.0,0.0,855.0,856.0
948,127,72.0,0.0,856.0,857.0
949,127,69.0,0.0,857.0,858.0
950,127,74.0,0.6,858.0,858.666667
951,127,77.0,0.0,858.666667,859.0
952,127,81.0,0.4,859.0,860.0
953,127,80.0,0.0,860.0,861.0
954,127,82.0,0.0,861.333333,862.0
955,127,77.0,0.0,862.0,863.0
956,127,80.0,0.0,863.0,864.0
957,127,83.0,0.4,864.0,865.0
958,127,88.0,0.0,865.0,866.0
959,127,89.0,0.6,866.0,866.666667
960,127,91.0,0.0,866.666667,867.0
961,127,95.0,0.8,867.0,868.0
962,127,93.0,0.0,868.0,869.0
963,127,91.0,0.7,869.0,869.333333
964,127,92.0,0.0,869.333333,870.0
965,127,94.0,0.1,870.0,870.666667
966,127,89.0,0.0,870.666667,873.333333
967,127,88.0,0.6,873.333333,874.666667
968,127,82.0,0.4,874.666667,875.0
969,127,86.0,0.2,875.0,876.0
970,127,89.0,0.0,876.0,878.666667
971,127,88.0,0.6,878.666667,880.0
972,127,83.0,0.0,880.0,881.0
973,127,77.0,0.0,881.0,882.0
974,127,79.0,0.4,882.0,882.666667
975,127,83.0,0.8,882.666667,883.0
976,127,86.0,0.2,883.0,884.0
977,127,82.0,0.2,884.0,885.0
978,127,81.0,0.0,885.0,885.333333
979,127,82.0,0.0,885.333333,886.666667
980,127,83.0,0.5,886.666667,888.0
981,127,86.0,0.1,888.0,890.0
982,127,91.0,0.0,890.0,890.666667
983,127,86.0,0.6,890.666667,891.0
984,127,88.0,0.6,891.0,892.0
985,127,84.0,0.2,892.0,893.0
986,127,89.0,0.0,893.0,893.333333
987,127,84.0,0.5,893.333333,894.0
988,127,89.0,0.3,894.0,894.666667
989,127,92.0,0.0,894.666667,895.0
990,127,88.0,0.6,895.0,896.0
991,127,89.0,0.0,896.0,897.0
992,127,93.0,0.0,897.0,897.333333
993,127,91.0,0.4,897.333333,898.666667
994,127,93.0,0.0,898.666667,899.0
995,127,91.0,0.0,899.0,900.0
996,127,95.0,0.0,900.0,901.333333
997,127,96.0,0.8,901.333333,902.0
998,127,91.0,0.0,902.0,902.666667
999,127,93.0,0.8,902.666667,903.0
1000,127,95.0,0.6,903.0,904.0
1001,127,93.0,0.0,904.0,905.0
1002,127,95.0,0.5,905.0,906.0
1003,127,93.0,0.5,906.0,906.666667
1004,127,91.0,0.0,906.666667,907.0
1005,127,93.0,0.4,907.0,908.0
1006,127,91.0,0.1,908.0,910.0
1007,127,96.0,0.5,910.0,910.666667
1008,127,95.0,0.8,910.666667,911.0
1009,127,98.0,0.0,911.0,912.0
1010,127,101.0,0.0,912.0,913.0
1011,127,98.0,0.6,913.0,913.333333
1012,127,93.0,0.0,913.333333,914.666667
1013,127,91.0,0.1,914.666667,915.0
1014,127,95.0,0.8,915.0,916.0
1015,127,93.0,0.5,916.0,917.0
1016,127,96.0,0.2,917.0,917.333333
1017,127,101.0,0.0,917.333333,918.0
1018,127,105.0,0.4,918.0,919.0
1019,127,100.0,0.0,920.0,921.0
1020,127,98.0,0.9,921.0,921.333333
1021,127,93.0,0.4,921.333333,922.666667
1022,127,89.0,0.0,922.666667,923.0
1023,127,83.0,0.8,923.0,925.333333
1024,127,77.0,0.0,925.333333,926.0
1025,127,82.0,0.0,926.0,926.666667
1026,127,86.0,0.2,926.666667,928.0
1027,127,89.0,0.0,928.0,929.333333
1028,127,93.0,0.0,929.333333,930.0
1029,127,88.0,0.0,930.0,930.666667
1030,127,91.0,0.1,930.666667,931.0
1031,127,86.0,0.2,931.0,932.0
1032,127,84.0,0.0,932.0,933.0
1033,127,88.0,0.7,933.0,933.333333
1034,127,92.0,0.0,933.333333,934.0
1035,127,89.0,0.0,934.0,935.0
1036,127,86.0,0.2,935.0,936.0
1037,127,91.0,0.4,936.0,937.0
1038,127,93.0,0.0,937.0,937.333333
1039,127,96.0,0.5,937.333333,938.0
1040,127,98.0,0.3,938.0,938.666667
1041,127,93.0,0.5,938.666667,939.0
1042,127,88.0,0.6,939.0,940.0
1043,127,92.0,0.4,940.0,941.333333
1044,127,94.0,0.1,941.333333,942.0
1045,127,91.0,0.4,942.0,942.666667
1046,127,88.0,0.6,942.666667,943.0
1047,127,93.0,0.5,943.0,945.0
1048,127,92.0,0.5,945.0,945.333333
1049,127,96.0,0.5,945.333333,946.0
1050,127,101.0,0.0,946.0,947.0
1051,127,103.0,0.0,947.0,948.0
1052,127,104.0,0.0,948.0,949.0
1053,127,105.0,0.5,949.0,949.333333
1054,127,101.0,0.6,949.333333,950.0
1055,127,98.0,0.2,950.0,950.666667
1056,127,93.0,0.5,950.666667,951.0
1057,127,95.0,0.9,951.0,952.0
1058,127,96.0,0.2,952.0,953.333333
1059,127,101.0,0.0,953.333333,954.0
1060,127,100.0,0.7,954.0,954.666667
1061,127,105.0,0.8,954.666667,955.0
1062,127,101.0,0.0,955.0,956.0
1063,127,106.0,0.1,956.0,957.0
1064,127,107.0,0.9,957.0,957.333333
1065,127,105.0,0.8,957.333333,958.0
1066,127,108.0,0.2,958.0,959.0
1067,127,112.0,0.0,960.0,961.0
1068,127,108.0,0.5,961.0,961.333333
1069,127,105.0,0.5,961.333333,962.0
1070,127,101.0,0.0,962.0,962.666667
1071,127,106.0,0.4,962.666667,963.0
1072,127,105.0,0.4,963.0,964.0
1073,127,106.0,0.2,964.0,965.0
1074,127,101.0,0.6,965.0,965.333333
1075,127,99.0,0.2,965.333333,966.0
1076,127,94.0,0.0,966.0,966.666667
1077,127,92.0,0.5,966.666667,968.0
1078,127,94.0,0.0,968.0,969.333333
1079,127,93.0,0.0,970.0,970.666667
1080,127,91.0,0.4,970.666667,971.0
1081,127,95.0,0.8,971.0,972.0
1082,127,93.0,0.4,972.0,973.0
1083,127,98.0,0.3,973.0,973.333333
1084,127,101.0,0.6,973.333333,974.0
1085,127,98.0,0.6,974.0,974.666667
1086,127,95.0,0.8,974.666667,976.0
1087,127,94.0,0.0,976.0,977.0
1088,127,93.0,0.0,977.0,977.333333
1089,127,91.0,0.7,977.333333,979.0
1090,127,86.0,0.2,979.0,980.0
1091,127,83.0,0.0,980.0,981.333333
1092,127,77.0,0.0,981.333333,982.666667
1093,127,81.0,0.0,982.666667,983.0
1094,127,79.0,0.1,983.0,985.0
1095,127,76.0,0.0,985.0,985.333333
1096,127,81.0,0.4,985.333333,986.0
1097,127,77.0,0.0,986.0,986.666667
1098,127,82.0,0.4,986.666667,987.0
1099,127,76.0,0.6,987.0,989.0
1100,127,79.0,0.1,989.0,989.333333
1101,127,77.0,0.0,989.333333,990.666667
1102,127,74.0,0.9,990.666667,991.0
1103,127,69.0,0.5,991.0,993.0
1104,127,70.0,0.1,993.0,993.333333
1105,127,64.0,0.0,993.333333,994.0
1106,127,69.0,0.0,994.0,994.666667
1107,127,72.0,0.2,994.666667,995.0
1108,127,67.0,0.0,995.0,997.0
1109,127,69.0,0.5,997.0,997.333333
1110,127,68.0,0.0,997.333333,998.0
1111,127,67.0,0.0,998.0,998.666667
1112,127,62.0,0.9,998.666667,1000.0
1113,127,67.0,0.0,1000.0,1001.0
1114,127,70.0,0.4,1001.0,1001.333333
1115,127,72.0,0.5,1001.333333,1002.666667
1116,127,69.0,0.5,1002.666667,1003.0
1117,127,67.0,0.0,1003.0,1004.0
1118,127,71.0,0.9,1004.0,1005.0
1119,127,67.0,0.4,1005.0,1005.333333
1120,127,69.0,0.0,1005.333333,1006.0
1121,127,70.0,0.0,1006.0,1006.666667
1122,127,67.0,0.4,1006.666667,1008.0
1123,127,68.0,0.0,1008.0,1009.333333
1124,127,72.0,0.5,1009.333333,1010.0
1125,127,71.0,0.5,1010.0,1011.0
1126,127,76.0,0.6,1011.0,1012.0
1127,127,74.0,0.3,1012.0,1013.0
1128,127,72.0,0.2,1013.0,1013.333333
1129,127,76.0,0.0,1013.333333,1014.0
1130,127,81.0,0.4,1014.0,1014.666667
1131,127,83.0,0.6,1014.666667,1016.0
1132,127,82.0,0.4,1016.0,1017.0
1133,127,81.0,0.0,1017.0,1017.333333
1134,127,76.0,0.6,1017.333333,1018.0
1135,127,72.0,0.2,1018.0,1018.666667
1136,127,74.0,0.0,1018.666667,1020.0
1137,127,68.0,0.0,1020.0,1021.333333
1138,127,65.0,0.0,1021.333333,1022.0
1139,127,68.0,0.0,1022.0,1023.0
1140,127,65.0,0.0,1023.0,1024.0
1141,127,67.0,0.1,1024.0,1025.0
1142,127,68.0,0.5,1025.0,1026.0
1143,127,67.0,0.4,1026.0,1026.666667
1144,127,65.0,0.0,1026.666667,1027.0
1145,127,59.0,0.8,1027.0,1028.0
1146,127,62.0,0.0,1028.0,1029.0
1147,127,65.0,0.0,1029.0,1029.333333
1148,127,62.0,0.6,1029.333333,1030.0
1149,127,58.0,0.0,1030.0,1030.666667
1150,127,57.0,0.8,1030.666667,1031.0
1151,127,55.0,0.4,1031.0,1032.0
1152,127,57.0,0.4,1032.0,1033.0
1153,127,56.0,0.0,1033.0,1034.0
1154,127,57.0,0.8,1034.0,1034.666667
1155,127,55.0,0.1,1034.666667,1035.0
1156,127,57.0,0.4,1035.0,1037.0
1157,127,55.0,0.4,1037.0,1037.333333
1158,127,53.0,0.0,1037.333333,1038.0
1159,127,55.0,0.7,1038.0,1038.666667
1160,127,59.0,0.8,1038.666667,1040.0
1161,127,64.0,0.0,1040.0,1041.0
1162,127,68.0,0.0,1041.0,1042.0
1163,127,67.0,0.1,1042.0,1043.0
1164,127,69.0,0.4,1043.0,1044.0
1165,127,65.0,0.0,1044.0,1045.333333
1166,127,68.0,0.0,1045.333333,1046.0
1167,127,70.0,0.0,1046.0,1046.666667
1168,127,67.0,0.4,1046.666667,1048.0
1169,127,65.0,0.0,1048.0,1049.333333
1170,127,69.0,0.4,1049.333333,1050.0
1171,127,64.0,0.0,1050.0,1050.666667
1172,127,58.0,0.4,1050.666667,1051.0
1173,127,55.0,0.0,1051.0,1052.0
1174,127,53.0,0.0,1052.0,1053.0
1175,127,57.0,0.8,1053.0,1053.333333
1176,127,55.0,0.0,1053.333333,1054.0
1177,127,58.0,0.1,1054.0,1054.666667
1178,127,62.0,0.6,1054.666667,1055.0
1179,127,57.0,0.4,1055.0,1056.0
1180,127,53.0,0.0,1056.0,1057.0
1181,127,57.0,0.0,1057.0,1057.333333
1182,127,62.0,0.0,1057.333333,1058.666667
1183,127,67.0,0.4,1058.666667,1059.0
1184,127,64.0,0.6,1059.0,1061.333333
1185,127,67.0,0.7,1061.333333,1062.0
1186,127,72.0,0.5,1062.0,1062.666667
1187,127,74.0,0.6,1062.666667,1064.0
1188,127,72.0,0.2,1064.0,1065.0
1189,127,69.0,0.5,1065.0,1066.0
1190,127,65.0,0.3,1066.0,1066.666667
1191,127,67.0,0.0,1066.666667,1067.0
1192,127,62.0,0.2,1067.0,1068.0
1193,127,65.0,0.0,1068.0,1069.0
1194,127,62.0,0.6,1069.0,1069.333333
1195,127,56.0,0.0,1069.333333,1070.0
1196,127,57.0,0.8,1070.0,1070.666667
1197,127,55.0,0.0,1070.666667,1071.0
1198,127,53.0,0.0,1071.0,1072.0
1199,127,47.0,0.0,1072.0,1073.0
1200,127,41.0,0.6,1073.0,1074.0
1201,127,45.0,0.0,1074.0,1074.666667
1202,127,43.0,0.0,1074.666667,1075.0
1203,127,47.0,0.8,1075.0,1076.0
1204,127,43.0,0.1,1076.0,1077.0
1205,127,41.0,0.0,1077.0,1077.333333
1206,127,44.0,0.0,1077.333333,1078.0
1207,127,41.0,0.3,1078.0,1079.0
1208,127,35.0,0.0,1080.0,1081.0
1209,127,31.0,0.4,1081.0,1081.333333
1210,127,33.0,0.4,1081.333333,1082.666667
1211,127,31.0,0.0,1082.666667,1083.0
1212,127,35.0,0.8,1083.0,1084.0
1213,127,33.0,0.2,1084.0,1085.333333
1214,127,35.0,0.9,1085.333333,1086.0
1215,127,34.0,0.0,1086.0,1086.666667
1216,127,33.0,0.4,1086.666667,1090.0
1217,127,32.0,0.5,1090.0,1091.0
1218,127,33.0,0.4,1091.0,1092.0
1219,127,34.0,0.1,1092.0,1093.0
1220,127,33.0,0.5,1093.0,1093.333333
1221,127,28.0,0.0,1093.333333,1094.0
1222,127,31.0,0.0,1094.0,1096.0
1223,127,32.0,0.0,1096.0,1097.0
1224,127,33.0,0.0,1097.0,1097.333333
1225,127,31.0,0.4,1097.333333,1098.0
1226,127,36.0,0.5,1098.0,1098.666667
1227,127,41.0,0.0,1098.666667,1099.0
1228,127,43.0,0.0,1099.0,1100.0
1229,127,44.0,0.0,1100.0,1101.333333
1230,127,45.0,0.8,1101.333333,1102.0
1231,127,46.0,0.1,1102.0,1102.666667
1232,127,50.0,0.2,1102.666667,1104.0
1233,127,48.0,0.1,1104.0,1105.0
1234,127,52.0,0.0,1105.0,1105.333333
1235,127,55.0,0.4,1105.333333,1106.0
1236,127,57.0,0.5,1106.0,1106.666667
1237,127,55.0,0.0,1106.666667,1107.0
1238,127,52.0,0.6,1107.0,1108.0
1239,127,53.0,0.0,1108.0,1109.0
1240,127,50.0,0.3,1109.0,1110.0
1241,127,45.0,0.4,1110.0,1110.666667
1242,127,40.0,0.4,1110.666667,1112.0
1243,127,45.0,0.0,1112.0,1113.0
1244,127,41.0,0.0,1113.0,1113.333333
1245,127,40.0,0.6,1113.333333,1114.0
1246,127,46.0,0.1,1114.0,1114.666667
1247,127,41.0,0.6,1114.666667,1115.0
1248,127,38.0,0.0,1115.0,1116.0
1249,127,41.0,0.0,1116.0,1117.0
1250,127,40.0,0.7,1117.0,1117.333333
1251,127,35.0,0.8,1117.333333,1118.0
1252,127,41.0,0.0,1118.0,1119.0
1253,127,40.0,0.0,1120.0,1121.0
1254,127,41.0,0.0,1121.0,1121.333333
1255,127,38.0,0.6,1121.333333,1122.0
1256,127,33.0,0.5,1122.0,1123.0
1257,127,38.0,0.2,1123.0,1124.0
1258,127,40.0,0.4,1124.0,1125.333333
1259,127,36.0,0.5,1125.333333,1126.0
1260,127,33.0,0.4,1126.0,1127.0
1261,127,34.0,0.0,1128.0,1129.333333
1262,127,29.0,0.0,1130.0,1130.666667
1263,127,24.0,0.5,1130.666667,1131.0
1264,127,23.0,0.8,1131.0,1132.0
1265,127,22.0,0.0,1132.0,1133.0
1266,127,17.0,0.0,1133.0,1133.333333
1267,127,16.0,0.0,1133.333333,1134.666667
1268,127,19.0,0.0,1134.666667,1135.0
1269,127,16.0,0.6,1135.0,1136.0
1270,127,19.0,0.0,1136.0,1137.0
1271,127,21.0,0.0,1137.0,1137.333333
1272,127,24.0,0.5,1137.333333,1139.0
1273,127,21.0,0.4,1139.0,1140.0
1274,127,19.0,0.0,1140.0,1141.333333
1275,127,17.0,0.0,1141.333333,1142.0
1276,127,23.0,0.8,1142.0,1142.666667
1277,127,21.0,0.0,1142.666667,1143.0
1278,127,22.0,0.4,1143.0,1144.0
1279,127,19.0,0.4,1144.0,1145.0
1280,127,23.0,0.5,1145.0,1145.333333
1281,127,21.0,0.4,1145.333333,1146.0
1282,127,19.0,0.7,1146.0,1146.666667
1283,127,20.0,0.0,1146.666667,1147.0
1284,127,19.0,0.0,1147.0,1149.0
1285,127,24.0,0.2,1149.0,1149.333333
1286,127,29.0,0.0,1149.333333,1150.0
1287,127,33.0,0.4,1150.0,1150.666667
1288,127,32.0,0.0,1150.666667,1152.0
1289,127,29.0,0.0,1152.0,1153.0
1290,127,31.0,0.4,1153.0,1153.333333
1291,127,28.0,0.0,1153.333333,1154.0
1292,127,33.0,0.0,1154.0,1154.666667
1293,127,29.0,0.6,1154.666667,1155.0
1294,127,28.0,0.4,1155.0,1156.0
1295,127,23.0,0.6,1156.0,1157.0
1296,127,21.0,0.8,1157.0,1158.666667
1297,127,19.0,0.7,1158.666667,1160.0
1298,127,22.0,0.1,1160.0,1161.0
1299,127,19.0,0.1,1161.0,1161.333333
1300,127,17.0,0.6,1161.333333,1163.0
1301,127,16.0,0.6,1163.0,1164.0
1302,127,17.0,0.0,1164.0,1166.0
1303,127,22.0,0.0,1166.0,1166.666667
1304,127,26.0,0.2,1166.666667,1168.0
1305,127,29.0,0.0,1168.0,1170.0
1306,127,28.0,0.0,1170.0,1170.666667
1307,127,29.0,0.0,1170.666667,1171.0
1308,127,26.0,0.2,1171.0,1172.0
1309,127,24.0,0.2,1172.0,1173.0
1310,127,29.0,0.3,1173.0,1173.333333
1311,127,28.0,0.0,1173.333333,1174.0
1312,127,29.0,0.0,1174.0,1175.0
1313,127,26.0,0.2,1175.0,1176.0
1314,127,24.0,0.4,1176.0,1177.0
1315,127,21.0,0.0,1177.0,1177.333333
1316,127,26.0,0.2,1177.333333,1178.666667
1317,127,27.0,0.2,1178.666667,1179.0
1318,127,23.0,0.8,1179.0,1180.0
1319,127,29.0,0.0,1180.0,1181.333333
1320,127,34.0,0.0,1181.333333,1182.0
1321,127,36.0,0.5,1182.0,1184.0
1322,127,38.0,0.1,1184.0,1185.0
1323,127,44.0,0.5,1185.0,1186.0
1324,127,47.0,0.9,1186.0,1186.666667
1325,127,43.0,0.0,1186.666667,1187.0
1326,127,45.0,0.4,1187.0,1188.0
1327,127,40.0,0.0,1188.0,1189.0
1328,127,36.0,0.5,1189.0,1189.333333
1329,127,33.0,0.5,1189.333333,1190.0
1330,127,29.0,0.0,1190.0,1191.0
1331,127,34.0,0.1,1191.0,1192.0
1332,127,29.0,0.3,1192.0,1193.0
1333,127,33.0,0.5,1193.0,1193.333333
1334,127,28.0,0.6,1193.333333,1194.0
1335,127,24.0,0.5,1194.0,1194.666667
1336,127,21.0,0.5,1194.666667,1195.0
1337,127,19.0,0.0,1195.0,1196.0
1338,127,21.0,0.0,1196.0,1197.0
1339,127,22.0,0.1,1197.0,1198.0
1340,127,21.0,0.8,1198.0,1198.666667
1341,127,19.0,0.0,1198.666667,1200.0
1342,127,20.0,0.0,1200.0,1201.0
1343,127,21.0,0.5,1201.0,1202.0
1344,127,23.0,0.6,1202.0,1202.666667
1345,127,19.0,0.0,1202.666667,1204.0
1346,127,23.0,0.0,1204.0,1205.0
1347,127,29.0,0.0,1205.0,1205.333333
1348,127,32.0,0.0,1205.333333,1206.0
1349,127,31.0,0.0,1206.0,1206.666667
1350,127,35.0,0.5,1206.666667,1208.0
1351,127,33.0,0.0,1208.0,1212.0
1352,127,29.0,0.0,1212.0,1213.0
1353,127,31.0,0.7,1213.0,1213.333333
1354,127,36.0,0.5,1213.333333,1214.0
1355,127,31.0,0.4,1214.0,1214.666667
1356,127,26.0,0.0,1214.666667,1216.0
1357,127,23.0,0.0,1216.0,1217.0
1358,127,21.0,0.0,1217.0,1217.333333
1359,127,26.0,0.6,1217.333333,1218.666667
1360,127,21.0,0.0,1218.666667,1219.0
1361,127,23.0,0.8,1219.0,1221.333333
1362,127,21.0,0.5,1221.333333,1222.0
1363,127,17.0,0.0,1222.0,1222.666667
1364,127,12.0,0.2,1222.666667,1223.0
1365,127,14.0,0.9,1223.0,1224.0
1366,127,9.0,0.4,1224.0,1225.0
1367,127,4.0,0.0,1225.0,1226.0
1368,127,9.0,0.8,1226.0,1226.666667
1369,127,7.0,0.0,1226.666667,1227.0
1370,127,2.0,0.2,1227.0,1230.0
1371,127,-3.0,0.4,1230.0,1230.666667
1372,127,-1.0,0.8,1230.666667,1231.0
1373,127,0.0,0.5,1231.0,1232.0
1374,127,-1.0,0.1,1232.0,1234.0
1375,127,-3.0,0.0,1234.0,1234.666667
1376,127,-2.0,0.0,1234.666667,1235.0
1377,127,4.0,0.6,1235.0,1236.0
1378,127,5.0,0.0,1236.0,1237.0
1379,127,0.0,0.5,1237.0,1237.333333
1380,127,5.0,0.0,1237.333333,1238.0
1381,127,0.0,0.2,1238.0,1239.0
1382,127,4.0,0.0,1240.0,1241.0
1383,127,-1.0,0.6,1241.0,1241.333333
1384,127,2.0,0.2,1241.333333,1242.666667
1385,127,0.0,0.5,1242.666667,1243.0
1386,127,4.0,0.6,1243.0,1245.333333
1387,127,5.0,0.0,1245.333333,1246.666667
1388,127,2.0,0.2,1246.666667,1248.0
1389,127,7.0,0.4,1248.0,1249.333333
1390,127,9.0,0.0,1249.333333,1250.0
1391,127,7.0,0.0,1250.0,1250.666667
1392,127,2.0,0.3,1250.666667,1252.0
1393,127,4.0,0.0,1252.0,1253.0
1394,127,9.0,0.8,1253.0,1255.0
1395,127,11.0,0.8,1255.0,1256.0
1396,127,17.0,0.0,1256.0,1257.0
1397,127,21.0,0.0,1257.0,1258.0
1398,127,17.0,0.0,1258.0,1258.666667
1399,127,22.0,0.4,1258.666667,1259.0
1400,127,21.0,0.4,1259.0,1260.0
1401,127,19.0,0.1,1260.0,1261.333333
1402,127,17.0,0.0,1261.333333,1262.666667
1403,127,19.0,0.0,1262.666667,1263.0
1404,127,17.0,0.0,1263.0,1264.0
1405,127,15.0,0.0,1264.0,1265.0
1406,127,17.0,0.0,1265.0,1265.333333
1407,127,21.0,0.5,1265.333333,1266.0
1408,127,26.0,0.0,1266.0,1267.0
1409,127,23.0,0.8,1267.0,1268.0
1410,127,19.0,0.4,1268.0,1269.0
1411,127,17.0,0.0,1269.0,1269.333333
1412,127,12.0,0.2,1269.333333,1270.0
1413,127,9.0,0.4,1270.0,1270.666667
1414,127,12.0,0.5,1270.666667,1271.0
1415,127,14.0,0.6,1271.0,1272.0
1416,127,19.0,0.7,1272.0,1273.0
1417,127,14.0,0.0,1273.0,1273.333333
1418,127,17.0,0.0,1273.333333,1274.0
1419,127,14.0,0.6,1274.0,1276.0
1420,127,11.0,0.3,1276.0,1277.0
1421,127,14.0,0.6,1277.0,1277.333333
1422,127,12.0,0.2,1277.333333,1278.0
1423,127,14.0,0.3,1278.0,1279.0
1424,127,16.0,0.0,1280.0,1281.0
1425,127,14.0,0.0,1281.0,1281.333333
1426,127,12.0,0.5,1281.333333,1282.666667
1427,127,17.0,0.0,1282.666667,1283.0
1428,127,14.0,0.2,1283.0,1284.0
1429,127,20.0,0.0,1284.0,1285.0
1430,127,21.0,0.0,1285.0,1285.333333
1431,127,22.0,0.4,1285.333333,1286.0
1432,127,21.0,0.4,1286.0,1286.666667
1433,127,17.0,0.6,1286.666667,1288.0
1434,127,22.0,0.0,1288.0,1289.333333
1435,127,28.0,0.0,1290.0,1290.666667
1436,127,26.0,0.0,1290.666667,1291.0
1437,127,28.0,0.6,1291.0,1292.0
1438,127,34.0,0.0,1292.0,1293.0
1439,127,36.0,0.2,1293.0,1293.333333
1440,127,33.0,0.0,1293.333333,1294.0
1441,127,35.0,0.9,1294.0,1295.0
1442,127,33.0,0.4,1295.0,1297.333333
1443,127,38.0,0.3,1297.333333,1299.0
1444,127,43.0,0.0,1299.0,1300.0
1445,127,40.0,0.0,1300.0,1301.333333
1446,127,41.0,0.0,1301.333333,1302.0
1447,127,43.0,0.0,1302.0,1302.666667
1448,127,45.0,0.0,1302.666667,1303.0
1449,127,43.0,0.4,1303.0,1304.0
1450,127,44.0,0.0,1304.0,1305.0
1451,127,47.0,0.5,1305.0,1305.333333
1452,127,50.0,0.2,1305.333333,1306.0
1453,127,48.0,0.2,1306.0,1306.666667
1454,127,43.0,0.0,1306.666667,1307.0
1455,127,45.0,0.4,1307.0,1308.0
1456,127,46.0,0.4,1308.0,1309.0
1457,127,43.0,0.4,1309.0,1309.333333
1458,127,41.0,0.0,1309.333333,1310.0
1459,127,43.0,0.0,1310.0,1311.0
1460,127,41.0,0.0,1311.0,1312.0
1461,127,43.0,0.0,1312.0,1313.0
1462,127,40.0,0.4,1313.0,1314.0
1463,127,45.0,0.0,1314.0,1314.666667
1464,127,41.0,0.0,1314.666667,1315.0
1465,127,46.0,0.4,1315.0,1316.0
1466,127,52.0,0.6,1316.0,1317.0
1467,127,53.0,0.0,1317.0,1317.333333
1468,127,52.0,0.7,1317.333333,1318.666667
1469,127,55.0,0.1,1318.666667,1320.0
1470,127,52.0,0.0,1320.0,1321.0
1471,127,50.0,0.6,1321.0,1321.333333
1472,127,45.0,0.5,1321.333333,1322.666667
1473,127,44.0,0.0,1322.666667,1323.0
1474,127,47.0,0.8,1323.0,1324.0
1475,127,45.0,0.1,1324.0,1325.0
1476,127,47.0,0.5,1325.0,1325.333333
1477,127,45.0,0.0,1325.333333,1326.0
1478,127,43.0,0.4,1326.0,1328.0
1479,127,46.0,0.0,1328.0,1329.333333
1480,127,45.0,0.5,1329.333333,1330.0
1481,127,41.0,0.0,1330.0,1330.666667
1482,127,43.0,0.0,1330.666667,1331.0
1483,127,38.0,0.2,1331.0,1332.0
1484,127,33.0,0.8,1332.0,1333.0
1485,127,36.0,0.5,1333.0,1333.333333
1486,127,40.0,0.0,1333.333333,1334.0
1487,127,36.0,0.2,1334.0,1334.666667
1488,127,34.0,0.4,1334.666667,1335.0
1489,127,31.0,0.0,1335.0,1336.0
1490,127,34.0,0.1,1336.0,1337.0
1491,127,33.0,0.0,1337.0,1337.333333
1492,127,31.0,0.0,1337.333333,1339.0
1493,127,28.0,0.6,1339.0,1340.0
1494,127,31.0,0.0,1340.0,1341.333333
1495,127,34.0,0.0,1341.333333,1342.0
1496,127,29.0,0.0,1342.0,1343.0
1497,127,32.0,0.0,1343.0,1345.0
1498,127,28.0,0.0,1345.0,1346.666667
1499,127,23.0,0.5,1346.666667,1347.0
1500,127,19.0,0.0,1347.0,1348.0
1501,127,16.0,0.0,1348.0,1349.0
1502,127,19.0,0.7,1349.0,1349.333333
1503,127,14.0,0.3,1349.333333,1350.0
1504,127,11.0,0.8,1350.0,1350.666667
1505,127,12.0,0.2,1350.666667,1351.0
1506,127,17.0,0.6,1351.0,1352.0
1507,127,21.0,0.4,1352.0,1353.0
1508,127,17.0,0.0,1353.0,1353.333333
1509,127,23.0,0.8,1353.333333,1354.666667
1510,127,22.0,0.4,1354.666667,1355.0
1511,127,20.0,0.0,1355.0,1356.0
1512,127,21.0,0.0,1356.0,1357.0
1513,127,17.0,0.3,1357.0,1357.333333
1514,127,12.0,0.2,1357.333333,1358.0
1515,127,17.0,0.0,1358.0,1358.666667
1516,127,14.0,0.2,1358.666667,1360.0
1517,127,12.0,0.0,1360.0,1361.0
1518,127,17.0,0.0,1361.0,1362.0
1519,127,14.0,0.6,1362.0,1362.666667
1520,127,20.0,0.0,1362.666667,1363.0
1521,127,21.0,0.4,1363.0,1364.0
1522,127,17.0,0.0,1364.0,1365.0
1523,127,19.0,0.4,1365.0,1366.0
1524,127,22.0,0.0,1366.0,1366.666667
1525,127,20.0,0.5,1366.666667,1368.0
1526,127,19.0,0.0,1368.0,1369.333333
1527,127,23.0,0.8,1369.333333,1370.666667
1528,127,21.0,0.0,1370.666667,1371.0
1529,127,23.0,0.8,1371.0,1372.0
1530,127,29.0,0.0,1372.0,1373.333333
1531,127,34.0,0.0,1373.333333,1374.0
1532,127,29.0,0.3,1374.0,1374.666667
1533,127,31.0,0.4,1374.666667,1375.0
1534,127,28.0,0.6,1375.0,1376.0
1535,127,32.0,0.0,1376.0,1377.0
1536,127,33.0,0.0,1377.0,1377.333333
1537,127,32.0,0.0,1377.333333,1378.666667
1538,127,33.0,0.8,1378.666667,1379.0
1539,127,38.0,0.2,1379.0,1380.0
1540,127,33.0,0.1,1380.0,1382.0
1541,127,31.0,0.7,1382.0,1383.0
1542,127,35.0,0.6,1383.0,1384.0
1543,127,31.0,0.4,1384.0,1385.0
1544,127,33.0,0.8,1385.0,1386.0
1545,127,36.0,0.5,1386.0,1386.666667
1546,127,40.0,0.0,1386.666667,1388.0
1547,127,44.0,0.0,1388.0,1389.0
1548,127,45.0,0.8,1389.0,1389.333333
1549,127,43.0,0.1,1389.333333,1390.0
1550,127,45.0,0.5,1390.0,1391.0
1551,127,50.0,0.0,1391.0,1392.0
1552,127,46.0,0.0,1392.0,1393.0
1553,127,50.0,0.6,1393.0,1394.0
1554,127,45.0,0.0,1394.0,1394.666667
1555,127,46.0,0.0,1394.666667,1395.0
1556,127,43.0,0.0,1395.0,1396.0
1557,127,44.0,0.0,1396.0,1397.0
1558,127,48.0,0.2,1397.0,1397.333333
1559,127,53.0,0.0,1397.333333,1398.0
1560,127,55.0,0.0,1398.0,1399.0
1561,127,52.0,0.0,1400.0,1401.0
1562,127,50.0,0.9,1401.0,1401.333333
1563,127,55.0,0.0,1401.333333,1404.0
1564,127,53.0,0.0,1404.0,1405.0
1565,127,55.0,0.1,1405.0,1405.333333
1566,127,58.0,0.1,1405.333333,1406.0
1567,127,56.0,0.0,1406.0,1406.666667
1568,127,57.0,0.4,1406.666667,1408.0
1569,127,53.0,0.0,1408.0,1409.333333
1570,127,57.0,0.0,1409.333333,1410.0
1571,127,52.0,0.0,1410.0,1414.0
1572,127,53.0,0.0,1414.0,1415.0
1573,127,52.0,0.6,1415.0,1416.0
1574,127,48.0,0.4,1416.0,1417.0
1575,127,45.0,0.0,1417.0,1417.333333
1576,127,50.0,0.6,1417.333333,1418.0
1577,127,55.0,0.7,1418.0,1418.666667
1578,127,60.0,0.2,1418.666667,1419.0
1579,127,62.0,0.2,1419.0,1420.0
1580,127,57.0,0.5,1420.0,1421.333333
1581,127,53.0,0.3,1421.333333,1422.666667
1582,127,50.0,0.2,1422.666667,1423.0
1583,127,45.0,0.5,1423.0,1424.0
1584,127,41.0,0.0,1424.0,1425.0
1585,127,44.0,0.5,1425.0,1425.333333
1586,127,50.0,0.6,1425.333333,1426.0
1587,127,53.0,0.0,1426.0,1426.666667
1588,127,57.0,0.8,1426.666667,1427.0
1589,127,59.0,0.8,1427.0,1428.0
1590,127,53.0,0.0,1428.0,1429.0
1591,127,57.0,0.5,1429.0,1429.333333
1592,127,59.0,0.9,1429.333333,1430.0
1593,127,58.0,0.0,1430.0,1430.666667
1594,127,53.0,0.6,1430.666667,1431.0
1595,127,47.0,0.9,1431.0,1432.0
1596,127,45.0,0.0,1432.0,1433.0
1597,127,48.0,0.5,1433.0,1433.333333
1598,127,47.0,0.8,1433.333333,1434.0
1599,127,53.0,0.3,1434.0,1434.666667
1600,127,55.0,0.1,1434.666667,1435.0
1601,127,57.0,0.4,1435.0,1436.0
1602,127,53.0,0.0,1436.0,1437.0
1603,127,47.0,0.9,1437.0,1437.333333
1604,127,41.0,0.3,1437.333333,1438.0
1605,127,36.0,0.2,1438.0,1439.0
1606,127,35.0,0.0,1440.0,1441.0
1607,127,36.0,0.5,1441.0,1441.333333
1608,127,31.0,0.4,1441.333333,1442.0
1609,127,29.0,0.0,1442.0,1443.0
1610,127,33.0,0.4,1443.0,1444.0
1611,127,35.0,0.4,1444.0,1445.333333
1612,127,33.0,0.5,1445.333333,1446.0
1613,127,34.0,0.0,1446.0,1446.666667
1614,127,33.0,0.0,1446.666667,1448.0
1615,127,34.0,0.0,1448.0,1449.333333
1616,127,40.0,0.0,1450.0,1450.666667
1617,127,45.0,0.5,1450.666667,1451.0
1618,127,43.0,0.0,1451.0,1452.0
1619,127,44.0,0.0,1452.0,1453.0
1620,127,50.0,0.3,1453.0,1453.333333
1621,127,44.0,0.5,1453.333333,1454.0
1622,127,50.0,0.6,1454.0,1454.666667
1623,127,45.0,0.4,1454.666667,1455.0
1624,127,50.0,0.2,1455.0,1456.0
1625,127,46.0,0.0,1456.0,1457.0
1626,127,45.0,0.0,1457.0,1458.666667
1627,127,43.0,0.0,1458.666667,1459.0
1628,127,40.0,0.6,1459.0,1460.0
1629,127,43.0,0.0,1460.0,1461.0
1630,127,44.0,0.0,1461.333333,1462.0
1631,127,41.0,0.0,1462.0,1462.666667
1632,127,45.0,0.0,1462.666667,1463.0
1633,127,43.0,0.1,1463.0,1464.0
1634,127,48.0,0.0,1464.0,1465.0
1635,127,52.0,0.0,1465.0,1465.333333
1636,127,55.0,0.0,1465.333333,1466.0
1637,127,53.0,0.0,1466.0,1466.666667
1638,127,56.0,0.0,1466.666667,1467.0
1639,127,50.0,0.2,1467.0,1468.0
1640,127,53.0,0.3,1468.0,1469.0
1641,127,55.0,0.1,1469.0,1469.333333
1642,127,58.0,0.1,1469.333333,1470.0
1643,127,53.0,0.0,1470.0,1470.666667
1644,127,50.0,0.0,1470.666667,1471.0
1645,127,45.0,0.5,1471.0,1472.0
1646,127,48.0,0.8,1472.0,1473.0
1647,127,46.0,0.1,1473.0,1473.333333
1648,127,40.0,0.0,1473.333333,1474.0
1649,127,45.0,0.0,1474.0,1475.0
1650,127,47.0,0.8,1475.0,1476.0
1651,127,52.0,0.6,1476.0,1477.0
1652,127,57.0,0.5,1477.0,1478.666667
1653,127,62.0,0.3,1478.666667,1480.0
1654,127,57.0,0.0,1480.0,1481.0
1655,127,58.0,0.4,1481.0,1481.333333
1656,127,52.0,0.4,1481.333333,1482.666667
1657,127,57.0,0.8,1482.666667,1483.0
1658,127,59.0,0.8,1483.0,1484.0
1659,127,53.0,0.0,1484.0,1485.0
1660,127,57.0,0.0,1485.0,1485.333333
1661,127,58.0,0.1,1485.333333,1486.666667
1662,127,62.0,0.0,1486.666667,1488.0
1663,127,57.0,0.5,1488.0,1489.333333
1664,127,52.0,0.7,1489.333333,1490.0
1665,127,47.0,0.5,1490.0,1490.666667
1666,127,41.0,0.0,1490.666667,1491.0
1667,127,45.0,0.4,1491.0,1493.0
1668,127,48.0,0.2,1493.0,1493.333333
1669,127,52.0,0.0,1493.333333,1494.0
1670,127,55.0,0.0,1494.0,1494.666667
1671,127,53.0,0.0,1494.666667,1495.0
1672,127,47.0,0.8,1495.0,1496.0
1673,127,44.0,0.0,1496.0,1497.0
1674,127,45.0,0.0,1497.0,1497.333333
1675,127,50.0,0.2,1497.333333,1498.0
1676,127,45.0,0.8,1498.0,1498.666667
1677,127,46.0,0.4,1498.666667,1499.0
1678,127,43.0,0.0,1499.0,1500.0
1679,127,44.0,0.0,1500.0,1501.333333
1680,127,45.0,0.4,1501.333333,1502.0
1681,127,50.0,0.0,1502.0,1503.0
1682,127,53.0,0.0,1503.0,1504.0
1683,127,47.0,0.4,1504.0,1505.0
1684,127,44.0,0.5,1505.0,1506.0
1685,127,38.0,0.6,1506.0,1506.666667
1686,127,41.0,0.0,1506.666667,1507.0
1687,127,40.0,0.6,1507.0,1508.0
1688,127,45.0,0.0,1508.0,1509.0
1689,127,41.0,0.0,1509.0,1509.333333
1690,127,46.0,0.0,1509.333333,1510.0
1691,127,44.0,0.0,1510.0,1510.666667
1692,127,41.0,0.0,1510.666667,1511.0
1693,127,43.0,0.4,1511.0,1512.0
1694,127,40.0,0.7,1512.0,1513.0
1695,127,44.0,0.0,1513.0,1513.333333
1696,127,40.0,0.6,1513.333333,1514.0
1697,127,36.0,0.2,1514.0,1514.666667
1698,127,31.0,0.4,1514.666667,1515.0
1699,127,36.0,0.5,1515.0,1516.0
1700,127,33.0,0.0,1516.0,1517.0
1701,127,31.0,0.4,1517.0,1518.666667
1702,127,33.0,0.4,1518.666667,1520.0
1703,127,31.0,0.0,1520.0,1521.0
1704,127,32.0,0.0,1521.0,1522.0
1705,127,38.0,0.9,1522.0,1522.666667
1706,127,35.0,0.8,1522.666667,1523.0
1707,127,38.0,0.2,1523.0,1524.0
1708,127,39.0,0.2,1524.0,1525.0
1709,127,44.0,0.5,1525.0,1525.333333
1710,127,43.0,0.4,1525.333333,1526.0
1711,127,46.0,0.0,1526.0,1526.666667
1712,127,47.0,0.5,1526.666667,1528.0
1713,127,41.0,0.6,1528.0,1529.333333
1714,127,43.0,0.0,1529.333333,1530.0
1715,127,40.0,0.0,1530.0,1530.666667
1716,127,43.0,0.4,1530.666667,1531.0
1717,127,47.0,0.8,1531.0,1532.0
1718,127,46.0,0.0,1532.0,1533.0
1719,127,45.0,0.8,1533.0,1534.0
1720,127,46.0,0.1,1534.0,1534.666667
1721,127,44.0,0.0,1534.666667,1535.0
1722,127,45.0,0.4,1535.0,1536.0
1723,127,41.0,0.0,1536.0,1537.0
1724,127,45.0,0.0,1537.0,1537.333333
1725,127,43.0,0.4,1537.333333,1538.666667
1726,127,45.0,0.0,1538.666667,1540.0
1727,127,40.0,0.0,1540.0,1541.333333
1728,127,41.0,0.6,1541.333333,1542.0
1729,127,36.0,0.5,1542.0,1542.666667
1730,127,33.0,0.8,1542.666667,1543.0
1731,127,38.0,0.6,1543.0,1544.0
1732,127,41.0,0.0,1544.0,1545.0
1733,127,35.0,0.5,1545.0,1546.0
1734,127,40.0,0.7,1546.0,1546.666667
1735,127,45.0,0.8,1546.666667,1547.0
1736,127,43.0,0.0,1547.0,1548.0
1737,127,41.0,0.0,1548.0,1549.0
1738,127,38.0,0.6,1549.0,1550.0
1739,127,35.0,0.8,1550.0,1550.666667
1740,127,40.0,0.6,1550.666667,1551.0
1741,127,41.0,0.0,1551.0,1554.0
1742,127,45.0,0.0,1554.0,1554.666667
1743,127,46.0,0.0,1554.666667,1556.0
1744,127,50.0,0.3,1556.0,1557.0
1745,127,53.0,0.0,1557.0,1559.0
1746,127,52.0,0.0,1560.0,1561.0
1747,127,55.0,0.4,1561.0,1561.333333
1748,127,50.0,0.2,1561.333333,1562.666667
1749,127,48.0,0.2,1562.666667,1563.0
1750,127,52.0,0.6,1563.0,1564.0
1751,127,53.0,0.3,1564.0,1565.0
1752,127,57.0,0.5,1565.0,1565.333333
1753,127,53.0,0.0,1565.333333,1566.666667
1754,127,50.0,0.2,1566.666667,1568.0
1755,127,48.0,0.5,1568.0,1569.333333
1756,127,45.0,0.0,1569.333333,1570.0
1757,127,44.0,0.5,1570.0,1570.666667
1758,127,38.0,0.9,1570.666667,1572.0
1759,127,35.0,0.0,1572.0,1573.0
1760,127,33.0,0.5,1573.0,1573.333333
1761,127,29.0,0.0,1573.333333,1574.0
1762,127,33.0,0.4,1574.0,1575.0
1763,127,31.0,0.0,1575.0,1576.0
1764,127,36.0,0.3,1576.0,1577.0
1765,127,33.0,0.0,1577.0,1578.666667
1766,127,38.0,0.9,1578.666667,1579.0
1767,127,35.0,0.8,1579.0,1580.0
1768,127,32.0,0.0,1580.0,1581.333333
1769,127,35.0,0.9,1581.333333,1582.666667
1770,127,33.0,0.4,1582.666667,1583.0
1771,127,38.0,0.0,1583.0,1584.0
1772,127,33.0,0.0,1584.0,1585.0
1773,127,28.0,0.0,1585.0,1585.333333
1774,127,24.0,0.5,1585.333333,1586.666667
1775,127,29.0,0.0,1586.666667,1587.0
1776,127,33.0,0.4,1587.0,1588.0
1777,127,34.0,0.1,1588.0,1589.0
1778,127,38.0,0.3,1589.0,1589.333333
1779,127,43.0,0.4,1589.333333,1590.666667
1780,127,45.0,0.5,1590.666667,1591.0
1781,127,40.0,0.4,1591.0,1592.0
1782,127,41.0,0.0,1592.0,1593.333333
1783,127,43.0,0.0,1593.333333,1594.0
1784,127,47.0,0.9,1594.0,1595.0
1785,127,43.0,0.0,1595.0,1596.0
1786,127,44.0,0.0,1596.0,1597.0
1787,127,40.0,0.7,1597.0,1597.333333
1788,127,45.0,0.8,1597.333333,1598.0
1789,127,41.0,0.0,1598.0,1599.0
1790,127,40.0,0.0,1600.0,1601.0
1791,127,36.0,0.5,1601.0,1601.333333
1792,127,33.0,0.5,1601.333333,1602.0
1793,127,29.0,0.0,1602.0,1602.666667
1794,127,35.0,0.6,1602.666667,1603.0
1795,127,31.0,0.0,1603.0,1604.0
1796,127,32.0,0.0,1604.0,1605.0
1797,127,29.0,0.0,1605.0,1605.333333
1798,127,32.0,0.0,1605.333333,1606.0
1799,127,31.0,0.0,1606.0,1606.666667
1800,127,29.0,0.0,1606.666667,1608.0
1801,127,31.0,0.0,1608.0,1609.333333
1802,127,34.0,0.4,1610.0,1610.666667
1803,127,29.0,0.0,1610.666667,1611.0
1804,127,33.0,0.4,1611.0,1612.0
1805,127,31.0,0.0,1612.0,1613.0
1806,127,26.0,0.3,1613.0,1614.666667
1807,127,21.0,0.4,1614.666667,1615.0
1808,127,26.0,0.2,1615.0,1616.0
1809,127,29.0,0.0,1616.0,1617.0
1810,127,33.0,0.0,1617.0,1617.333333
1811,127,31.0,0.7,1617.333333,1619.0
1812,127,35.0,0.8,1619.0,1620.0
1813,127,31.0,0.0,1620.0,1621.333333
1814,127,29.0,0.0,1621.333333,1622.666667
1815,127,33.0,0.0,1622.666667,1623.0
1816,127,31.0,0.1,1623.0,1624.0
1817,127,34.0,0.0,1624.0,1625.0
1818,127,40.0,0.0,1625.0,1625.333333
1819,127,35.0,0.8,1625.333333,1626.0
1820,127,41.0,0.0,1626.0,1626.666667
1821,127,44.0,0.5,1626.666667,1627.0
1822,127,38.0,0.2,1627.0,1628.0
1823,127,39.0,0.2,1628.0,1629.0
1824,127,43.0,0.1,1629.0,1629.333333
1825,127,41.0,0.0,1629.333333,1630.0
1826,127,46.0,0.0,1630.0,1630.666667
1827,127,50.0,0.9,1630.666667,1631.0
1828,127,45.0,0.5,1631.0,1632.0
1829,127,43.0,0.4,1632.0,1633.0
1830,127,46.0,0.1,1633.0,1633.333333
1831,127,52.0,0.0,1633.333333,1634.0
1832,127,57.0,0.0,1634.0,1635.0
1833,127,52.0,0.6,1635.0,1636.0
1834,127,53.0,0.2,1636.0,1637.0
1835,127,57.0,0.5,1637.0,1638.666667
1836,127,62.0,0.9,1638.666667,1640.0
1837,127,64.0,0.0,1640.0,1641.0
1838,127,58.0,0.4,1641.0,1641.333333
1839,127,60.0,0.5,1641.333333,1642.666667
1840,127,55.0,0.1,1642.666667,1643.0
1841,127,52.0,0.6,1643.0,1644.0
1842,127,57.0,0.4,1644.0,1646.0
1843,127,58.0,0.0,1646.0,1646.666667
1844,127,52.0,0.6,1646.666667,1648.0
1845,127,53.0,0.0,1648.0,1649.333333
1846,127,48.0,0.5,1649.333333,1650.0
1847,127,43.0,0.0,1650.0,1650.666667
1848,127,48.0,0.2,1650.666667,1652.0
1849,127,43.0,0.7,1652.0,1653.0
1850,127,48.0,0.2,1653.0,1653.333333
1851,127,52.0,0.0,1653.333333,1654.0
1852,127,48.0,0.5,1654.0,1654.666667
1853,127,47.0,0.6,1654.666667,1655.0
1854,127,52.0,0.6,1655.0,1656.0
1855,127,55.0,0.4,1656.0,1657.0
1856,127,57.0,0.0,1657.0,1657.333333
1857,127,52.0,0.6,1657.333333,1658.0
1858,127,48.0,0.2,1658.0,1658.666667
1859,127,43.0,0.1,1658.666667,1659.0
1860,127,45.0,0.4,1659.0,1660.0
1861,127,46.0,0.0,1660.0,1661.0
1862,127,41.0,0.0,1661.333333,1662.0
1863,127,44.0,0.0,1662.0,1663.0
1864,127,41.0,0.0,1663.0,1664.0
1865,127,45.0,0.5,1664.0,1665.333333
1866,127,43.0,0.4,1666.0,1667.0
1867,127,47.0,0.8,1667.0,1668.0
1868,127,45.0,0.0,1668.0,1669.0
1869,127,41.0,0.0,1669.0,1669.333333
1870,127,44.0,0.0,1669.333333,1670.0
1871,127,41.0,0.3,1670.0,1670.666667
1872,127,45.0,0.8,1670.666667,1671.0
1873,127,43.0,0.4,1671.0,1672.0
1874,127,41.0,0.5,1672.0,1673.0
1875,127,44.0,0.0,1673.0,1673.333333
1876,127,47.0,0.8,1673.333333,1674.0
1877,127,45.0,0.8,1674.0,1674.666667
1878,127,41.0,0.0,1674.666667,1675.0
1879,127,38.0,0.2,1675.0,1676.0
1880,127,33.0,0.0,1676.0,1677.0
1881,127,31.0,0.4,1677.0,1677.333333
1882,127,29.0,0.0,1677.333333,1678.0
1883,127,31.0,0.7,1678.0,1678.666667
1884,127,33.0,0.4,1678.666667,1680.0
1885,127,28.0,0.0,1680.0,1681.0
1886,127,32.0,0.0,1681.0,1682.0
1887,127,31.0,0.1,1682.0,1683.0
1888,127,26.0,0.2,1683.0,1684.0
1889,127,27.0,0.0,1684.0,1685.0
1890,127,33.0,0.0,1685.0,1685.333333
1891,127,39.0,0.2,1685.333333,1686.0
1892,127,34.0,0.0,1686.0,1686.666667
1893,127,29.0,0.0,1686.666667,1688.0
1894,127,26.0,0.0,1688.0,1689.333333
1895,127,23.0,0.8,1689.333333,1690.0
1896,127,28.0,0.0,1690.0,1690.666667
1897,127,31.0,0.4,1690.666667,1691.0
1898,127,28.0,0.6,1691.0,1692.0
1899,127,29.0,0.0,1692.0,1693.0
1900,127,33.0,0.8,1693.0,1694.0
1901,127,34.0,0.1,1694.0,1694.666667
1902,127,38.0,0.6,1694.666667,1695.0
1903,127,43.0,0.0,1695.0,1696.0
1904,127,41.0,0.0,1696.0,1697.0
1905,127,45.0,0.0,1697.0,1697.333333
1906,127,50.0,0.0,1697.333333,1699.0
1907,127,55.0,0.0,1699.0,1700.0
1908,127,50.0,0.0,1700.0,1702.0
1909,127,55.0,0.0,1702.0,1702.666667
1910,127,50.0,0.6,1702.666667,1705.0
1911,127,47.0,0.5,1705.0,1706.0
1912,127,53.0,0.3,1706.0,1706.666667
1913,127,55.0,0.0,1706.666667,1707.0
1914,127,57.0,0.4,1707.0,1708.0
1915,127,62.0,0.0,1708.0,1710.0
1916,127,67.0,0.7,1710.0,1710.666667
1917,127,62.0,0.2,1710.666667,1711.0
1918,127,65.0,0.0,1711.0,1712.0
1919,127,68.0,0.0,1712.0,1713.0
1920,127,65.0,0.6,1713.0,1713.333333
1921,127,69.0,0.0,1713.333333,1715.0
1922,127,71.0,0.6,1715.0,1716.0
1923,127,72.0,0.8,1716.0,1717.0
1924,127,77.0,0.0,1717.0,1717.333333
1925,127,82.0,0.4,1717.333333,1718.0
1926,127,77.0,0.3,1718.0,1719.0
1927,127,76.0,0.0,1720.0,1721.0
1928,127,79.0,0.4,1721.0,1721.333333
1929,127,76.0,0.6,1721.333333,1722.666667
1930,127,70.0,0.0,1722.666667,1723.0
1931,127,71.0,0.8,1723.0,1724.0
1932,127,72.0,0.2,1724.0,1725.0
1933,127,71.0,0.5,1725.0,1726.0
1934,127,70.0,0.0,1726.0,1726.666667
1935,127,69.0,0.4,1726.666667,1730.0
1936,127,68.0,0.5,1730.0,1731.0
1937,127,62.0,0.2,1731.0,1732.0
1938,127,67.0,0.0,1732.0,1733.0
1939,127,69.0,0.5,1733.0,1733.333333
1940,127,64.0,0.0,1733.333333,1734.0
1941,127,69.0,0.8,1734.0,1736.0
1942,127,67.0,0.0,1736.0,1738.0
1943,127,72.0,0.5,1738.0,1738.666667
1944,127,68.0,0.0,1738.666667,1739.0
1945,127,64.0,0.6,1739.0,1740.0
1946,127,58.0,0.4,1740.0,1741.333333
1947,127,60.0,0.2,1741.333333,1742.0
1948,127,58.0,0.1,1742.0,1742.666667
1949,127,57.0,0.4,1742.666667,1743.0
1950,127,62.0,0.0,1743.0,1744.0
1951,127,58.0,0.4,1744.0,1745.0
1952,127,52.0,0.0,1745.0,1745.333333
1953,127,55.0,0.4,1745.333333,1746.0
1954,127,57.0,0.5,1746.0,1746.666667
1955,127,55.0,0.0,1746.666667,1748.0
1956,127,53.0,0.0,1748.0,1749.0
1957,127,50.0,0.3,1749.0,1749.333333
1958,127,45.0,0.5,1749.333333,1750.0
1959,127,50.0,0.2,1750.0,1750.666667
1960,127,52.0,0.4,1750.666667,1752.0
1961,127,55.0,0.0,1752.0,1753.0
1962,127,53.0,0.0,1753.0,1753.333333
1963,127,58.0,0.4,1753.333333,1754.666667
1964,127,60.0,0.8,1754.666667,1755.0
1965,127,57.0,0.4,1755.0,1756.0
1966,127,53.0,0.0,1756.0,1757.0
1967,127,52.0,0.7,1757.0,1758.0
1968,127,53.0,0.0,1758.0,1759.0
1969,127,52.0,0.0,1760.0,1761.0
1970,127,53.0,0.0,1761.0,1761.333333
1971,127,50.0,0.6,1761.333333,1762.0
1972,127,45.0,0.5,1762.0,1764.0
1973,127,47.0,0.4,1764.0,1765.0
1974,127,50.0,0.6,1765.0,1765.333333
1975,127,45.0,0.5,1765.333333,1766.0
1976,127,46.0,0.0,1766.0,1766.666667
1977,127,47.0,0.5,1766.666667,1768.0
1978,127,43.0,0.4,1768.0,1770.666667
1979,127,46.0,0.0,1770.666667,1771.0
1980,127,47.0,0.8,1771.0,1772.0
1981,127,46.0,0.0,1772.0,1773.0
1982,127,41.0,0.0,1773.0,1774.0
1983,127,40.0,0.7,1774.0,1774.666667
1984,127,38.0,0.2,1774.666667,1775.0
1985,127,35.0,0.8,1775.0,1776.0
1986,127,33.0,0.4,1776.0,1777.333333
1987,127,36.0,0.5,1777.333333,1779.0
1988,127,38.0,0.2,1779.0,1780.0
1989,127,43.0,0.0,1780.0,1781.333333
1990,127,46.0,0.1,1781.333333,1782.0
1991,127,50.0,0.3,1782.0,1782.666667
1992,127,45.0,0.0,1782.666667,1783.0
1993,127,46.0,0.4,1783.0,1784.0
1994,127,43.0,0.0,1784.0,1785.0
1995,127,47.0,0.5,1785.0,1785.333333
1996,127,52.0,0.6,1785.333333,1786.0
1997,127,55.0,0.7,1786.0,1786.666667
1998,127,56.0,0.0,1786.666667,1787.0
1999,127,52.0,0.6,1787.0,1788.0
2000,127,55.0,0.4,1788.0,1789.0
2001,127,60.0,0.2,1789.0,1789.333333
2002,127,65.0,0.0,1789.333333,1790.0
2003,127,60.0,0.5,1790.0,1790.666667
2004,127,56.0,0.0,1790.666667,1792.0
2005,127,53.0,0.0,1792.0,1793.0
2006,127,55.0,0.4,1793.0,1793.333333
2007,127,52.0,0.0,1793.333333,1794.0
2008,127,57.0,0.0,1794.0,1794.666667
2009,127,52.0,0.4,1794.666667,1795.0
2010,127,55.0,0.0,1795.0,1796.0
2011,127,56.0,0.0,1796.0,1797.0
2012,127,57.0,0.8,1797.0,1797.333333
2013,127,56.0,0.0,1797.333333,1798.0
2014,127,55.0,0.0,1798.0,1800.0
2015,127,52.0,0.0,1800.0,1801.0
2016,127,55.0,0.1,1801.0,1801.333333
2017,127,53.0,0.6,1801.333333,1802.666667
2018,127,48.0,0.8,1802.666667,1803.0
2019,127,43.0,0.0,1803.0,1804.0
2020,127,41.0,0.0,1804.0,1805.0
2021,127,38.0,0.9,1805.0,1806.0
2022,127,34.0,0.0,1806.0,1806.666667
2023,127,32.0,0.0,1806.666667,1808.0
2024,127,29.0,0.0,1808.0,1810.0
2025,127,28.0,0.0,1810.0,1810.666667
2026,127,29.0,0.0,1810.666667,1811.0
2027,127,28.0,0.6,1811.0,1812.0
2028,127,33.0,0.8,1812.0,1813.0
2029,127,29.0,0.3,1813.0,1813.333333
2030,127,28.0,0.0,1813.333333,1814.0
2031,127,29.0,0.0,1814.0,1815.0
2032,127,35.0,0.8,1815.0,1816.0
2033,127,33.0,0.5,1816.0,1818.0
2034,127,38.0,0.9,1818.0,1818.666667
2035,127,34.0,0.4,1818.666667,1819.0
2036,127,38.0,0.2,1819.0,1820.0
2037,127,43.0,0.0,1820.0,1821.333333
2038,127,46.0,0.0,1821.333333,1822.0
2039,127,48.0,0.5,1822.0,1824.0
2040,127,43.0,0.0,1824.0,1825.0
2041,127,44.0,0.5,1825.0,1826.0
2042,127,47.0,0.9,1826.0,1828.0
2043,127,45.0,0.0,1828.0,1829.0
2044,127,48.0,0.5,1829.0,1829.333333
2045,127,46.0,0.0,1829.333333,1830.0
2046,127,41.0,0.0,1830.0,1831.0
2047,127,46.0,0.1,1831.0,1832.0
2048,127,41.0,0.3,1832.0,1833.0
2049,127,45.0,0.5,1833.0,1833.333333
2050,127,40.0,0.6,1833.333333,1834.0
2051,127,36.0,0.5,1834.0,1834.666667
2052,127,32.0,0.0,1834.666667,1835.0
2053,127,33.0,0.4,1835.0,1837.0
2054,127,34.0,0.1,1837.0,1838.0
2055,127,33.0,0.8,1838.0,1838.666667
2056,127,38.0,0.2,1838.666667,1840.0
2057,127,40.0,0.0,1840.0,1841.0
2058,127,45.0,0.5,1841.0,1842.0
2059,127,47.0,0.6,1842.0,1842.666667
2060,127,43.0,0.7,1842.666667,1843.0
2061,127,45.0,0.4,1843.0,1844.0
2062,127,46.0,0.4,1844.0,1846.666667
2063,127,45.0,0.8,1846.666667,1848.0
2064,127,43.0,0.1,1848.0,1849.333333
2065,127,40.0,0.6,1849.333333,1850.666667
2066,127,43.0,0.0,1850.666667,1852.0
2067,127,41.0,0.0,1852.0,1853.0
2068,127,43.0,0.7,1853.0,1853.333333
2069,127,45.0,0.5,1853.333333,1854.0
2070,127,43.0,0.4,1854.0,1854.666667
2071,127,38.0,0.0,1854.666667,1856.0
2072,127,41.0,0.0,1856.0,1857.0
2073,127,45.0,0.0,1857.0,1857.333333
2074,127,50.0,0.6,1857.333333,1858.666667
2075,127,45.0,0.0,1858.666667,1859.0
2076,127,40.0,0.6,1859.0,1860.0
2077,127,43.0,0.0,1860.0,1861.333333
2078,127,44.0,0.0,1861.333333,1862.0
2079,127,41.0,0.0,1862.0,1862.666667
2080,127,36.0,0.2,1862.666667,1863.0
2081,127,38.0,0.9,1863.0,1864.0
2082,127,43.0,0.0,1864.0,1865.0
2083,127,40.0,0.0,1865.0,1866.0
2084,127,45.0,0.8,1866.0,1866.666667
2085,127,44.0,0.0,1866.666667,1867.0
2086,127,50.0,0.2,1867.0,1870.0
2087,127,53.0,0.0,1870.0,1870.666667
2088,127,55.0,0.0,1870.666667,1871.0
2089,127,60.0,0.5,1871.0,1872.0
2090,127,65.0,0.0,1872.0,1873.0
2091,127,59.0,0.9,1873.0,1873.333333
2092,127,55.0,0.1,1873.333333,1874.0
2093,127,57.0,0.0,1874.0,1874.666667
2094,127,56.0,0.0,1874.666667,1875.0
2095,127,59.0,0.8,1875.0,1876.0
2096,127,53.0,0.0,1876.0,1877.0
2097,127,48.0,0.5,1877.0,1877.333333
2098,127,53.0,0.0,1877.333333,1878.0
2099,127,48.0,0.2,1878.0,1879.0
2100,127,52.0,0.0,1880.0,1881.0
2101,127,47.0,0.6,1881.0,1881.333333
2102,127,52.0,0.6,1881.333333,1882.666667
2103,127,53.0,0.6,1882.666667,1883.0
2104,127,47.0,0.8,1883.0,1884.0
2105,127,52.0,0.1,1884.0,1885.0
2106,127,57.0,0.0,1885.0,1885.333333
2107,127,53.0,0.0,1885.333333,1886.666667
2108,127,52.0,0.6,1886.666667,1888.0
2109,127,55.0,0.4,1888.0,1889.333333
2110,127,57.0,0.0,1889.333333,1890.0
2111,127,53.0,0.0,1890.0,1890.666667
2112,127,55.0,0.7,1890.666667,1891.0
2113,127,57.0,0.4,1891.0,1892.0
2114,127,62.0,0.2,1892.0,1893.0
2115,127,57.0,0.8,1893.0,1894.0
2116,127,55.0,0.0,1894.0,1895.0
2117,127,52.0,0.6,1895.0,1896.0
2118,127,53.0,0.1,1896.0,1897.0
2119,127,57.0,0.0,1897.0,1898.0
2120,127,53.0,0.0,1898.0,1899.0
2121,127,55.0,0.0,1899.0,1900.0
2122,127,56.0,0.0,1900.0,1901.333333
2123,127,53.0,0.0,1901.333333,1902.0
2124,127,55.0,0.1,1902.0,1902.666667
2125,127,59.0,0.8,1902.666667,1903.0
2126,127,53.0,0.0,1903.0,1905.0
2127,127,56.0,0.5,1905.0,1905.333333
2128,127,57.0,0.5,1905.333333,1906.0
2129,127,62.0,0.0,1906.0,1906.666667
2130,127,58.0,0.0,1906.666667,1907.0
2131,127,52.0,0.6,1907.0,1908.0
2132,127,47.0,0.6,1908.0,1909.0
2133,127,53.0,0.0,1909.0,1910.0
2134,127,55.0,0.4,1910.0,1910.666667
2135,127,60.0,0.5,1910.666667,1911.0
2136,127,62.0,0.6,1911.0,1912.0
2137,127,58.0,0.3,1912.0,1913.0
2138,127,62.0,0.0,1913.0,1913.333333
2139,127,57.0,0.4,1913.333333,1914.0
2140,127,62.0,0.6,1914.0,1914.666667
2141,127,65.0,0.0,1914.666667,1915.0
2142,127,69.0,0.5,1915.0,1916.0
2143,127,71.0,0.3,1916.0,1917.0
2144,127,74.0,0.6,1917.0,1917.333333
2145,127,72.0,0.2,1917.333333,1918.0
2146,127,74.0,0.3,1918.0,1919.0
2147,127,76.0,0.0,1920.0,1921.0
2148,127,74.0,0.0,1921.0,1921.333333
2149,127,72.0,0.5,1921.333333,1922.666667
2150,127,77.0,0.0,1922.666667,1923.0
2151,127,74.0,0.2,1923.0,1925.0
2152,127,68.0,0.5,1925.0,1925.333333
2153,127,67.0,0.4,1925.333333,1926.0
2154,127,69.0,0.4,1926.0,1929.333333
2155,127,64.0,0.0,1930.0,1930.666667
2156,127,62.0,0.6,1930.666667,1931.0
2157,127,59.0,0.8,1931.0,1932.0
2158,127,58.0,0.0,1932.0,1933.0
2159,127,60.0,0.2,1933.0,1933.333333
2160,127,64.0,0.0,1933.333333,1934.0
2161,127,59.0,0.9,1934.0,1934.666667
2162,127,55.0,0.0,1934.666667,1936.0
2163,127,57.0,0.0,1936.0,1937.333333
2164,127,62.0,0.3,1937.333333,1939.0
2165,127,57.0,0.4,1939.0,1940.0
2166,127,52.0,0.0,1940.0,1941.333333
2167,127,53.0,0.0,1941.333333,1942.0
2168,127,57.0,0.5,1942.0,1943.0
2169,127,55.0,0.4,1943.0,1944.0
2170,127,58.0,0.0,1944.0,1945.0
2171,127,57.0,0.5,1945.0,1945.333333
2172,127,52.0,0.6,1945.333333,1946.0
2173,127,48.0,0.2,1946.0,1946.666667
2174,127,43.0,0.0,1946.666667,1948.0
2175,127,44.0,0.0,1948.0,1949.0
2176,127,43.0,0.4,1949.0,1949.333333
2177,127,41.0,0.0,1949.333333,1950.0
2178,127,45.0,0.4,1950.0,1950.666667
2179,127,43.0,0.1,1950.666667,1951.0
2180,127,41.0,0.0,1951.0,1952.0
2181,127,45.0,0.0,1952.0,1953.0
2182,127,40.0,0.4,1953.0,1954.0
2183,127,45.0,0.0,1954.0,1954.666667
2184,127,41.0,0.0,1954.666667,1955.0
2185,127,47.0,0.9,1955.0,1956.0
2186,127,50.0,0.2,1956.0,1957.0
2187,127,53.0,0.0,1957.0,1958.0
2188,127,50.0,0.2,1958.0,1958.666667
2189,127,55.0,0.1,1958.666667,1960.0
2190,127,52.0,0.0,1960.0,1961.0
2191,127,50.0,0.6,1961.0,1961.333333
2192,127,45.0,0.5,1961.333333,1963.0
2193,127,40.0,0.6,1963.0,1964.0
2194,127,45.0,0.1,1964.0,1965.0
2195,127,48.0,0.5,1965.0,1965.333333
2196,127,45.0,0.0,1965.333333,1966.0
2197,127,43.0,0.4,1966.0,1966.666667
2198,127,47.0,0.8,1966.666667,1968.0
2199,127,46.0,0.0,1968.0,1969.333333
2200,127,45.0,0.5,1969.333333,1970.0
2201,127,43.0,0.4,1970.0,1970.666667
2202,127,45.0,0.4,1970.666667,1971.0
2203,127,50.0,0.2,1971.0,1972.0
2204,127,48.0,0.2,1972.0,1973.333333
2205,127,52.0,0.0,1973.333333,1974.0
2206,127,48.0,0.2,1974.0,1974.666667
2207,127,46.0,0.4,1974.666667,1975.0
2208,127,45.0,0.4,1975.0,1976.0
2209,127,46.0,0.1,1976.0,1977.0
2210,127,45.0,0.0,1977.0,1977.333333
2211,127,47.0,0.8,1977.333333,1978.0
2212,127,43.0,0.4,1978.0,1979.0
2213,127,47.0,0.8,1979.0,1980.0
2214,127,43.0,0.0,1980.0,1981.333333
2215,127,46.0,0.0,1981.333333,1982.0
2216,127,41.0,0.0,1982.0,1983.0
2217,127,44.0,0.0,1983.0,1984.0
2218,127,43.0,0.4,1984.0,1985.0
2219,127,40.0,0.0,1985.0,1986.666667
2220,127,35.0,0.5,1986.666667,1987.0
2221,127,33.0,0.4,1987.0,1989.0
2222,127,31.0,0.7,1989.0,1989.333333
2223,127,33.0,0.5,1989.333333,1990.0
2224,127,31.0,0.0,1990.0,1990.666667
2225,127,36.0,0.2,1990.666667,1991.0
2226,127,41.0,0.6,1991.0,1992.0
2227,127,43.0,0.0,1992.0,1993.0
2228,127,41.0,0.0,1993.0,1993.333333
2229,127,47.0,0.8,1993.333333,1994.666667
2230,127,44.0,0.0,1994.666667,1995.0
2231,127,43.0,0.0,1995.0,1996.0
2232,127,45.0,0.0,1996.0,1997.0
2233,127,41.0,0.3,1997.0,1997.333333
2234,127,45.0,0.8,1997.333333,1998.0
2235,127,41.0,0.0,1998.0,1998.666667
2236,127,43.0,0.0,1998.666667,2000.0
2237,127,40.0,0.0,2000.0,2001.0
2238,127,41.0,0.0,2001.0,2002.0
2239,127,38.0,0.6,2002.0,2003.0
2240,127,43.0,0.0,2003.0,2004.0
2241,127,44.0,0.0,2004.0,2005.0
2242,127,48.0,0.5,2005.0,2005.333333
2243,127,47.0,0.9,2005.333333,2006.0
2244,127,43.0,0.0,2006.0,2006.666667
2245,127,44.0,0.5,2006.666667,2008.0
2246,127,38.0,0.1,2008.0,2009.333333
2247,127,40.0,0.6,2009.333333,2010.0
2248,127,43.0,0.0,2010.0,2010.666667
2249,127,45.0,0.0,2010.666667,2012.0
2250,127,41.0,0.0,2012.0,2013.333333
2251,127,44.0,0.0,2013.333333,2014.0
2252,127,41.0,0.3,2014.0,2014.666667
2253,127,43.0,0.4,2014.666667,2015.0
2254,127,45.0,0.4,2015.0,2016.0
2255,127,43.0,0.5,2016.0,2017.0
2256,127,45.0,0.0,2017.0,2017.333333
2257,127,44.0,0.0,2017.333333,2018.666667
2258,127,48.0,0.2,2018.666667,2019.0
2259,127,47.0,0.8,2019.0,2020.0
2260,127,44.0,0.5,2020.0,2021.333333
2261,127,47.0,0.8,2021.333333,2022.0
2262,127,43.0,0.7,2022.0,2023.0
2263,127,47.0,0.6,2023.0,2024.0
2264,127,43.0,0.7,2024.0,2025.0
2265,127,47.0,0.5,2025.0,2026.0
2266,127,48.0,0.5,2026.0,2026.666667
2267,127,43.0,0.0,2026.666667,2027.0
2268,127,38.0,0.2,2027.0,2028.0
2269,127,44.0,0.0,2028.0,2029.0
2270,127,45.0,0.8,2029.0,2029.333333
2271,127,50.0,0.9,2029.333333,2030.0
2272,127,45.0,0.4,2030.0,2030.666667
2273,127,50.0,0.2,2030.666667,2032.0
2274,127,51.0,0.2,2032.0,2033.0
2275,127,50.0,0.6,2033.0,2033.333333
2276,127,44.0,0.5,2033.333333,2034.0
2277,127,45.0,0.0,2034.0,2034.666667
2278,127,46.0,0.0,2034.666667,2035.0
2279,127,40.0,0.6,2035.0,2036.0
2280,127,43.0,0.4,2036.0,2037.0
2281,127,48.0,0.2,2037.0,2037.333333
2282,127,53.0,0.6,2037.333333,2038.0
2283,127,48.0,0.5,2038.0,2039.0
2284,127,52.0,0.0,2040.0,2041.0
2285,127,50.0,0.9,2041.0,2041.333333
2286,127,47.0,0.8,2041.333333,2042.666667
2287,127,46.0,0.0,2042.666667,2043.0
2288,127,40.0,0.6,2043.0,2044.0
2289,127,45.0,0.0,2044.0,2045.333333
2290,127,46.0,0.1,2045.333333,2046.0
2291,127,44.0,0.0,2046.0,2046.666667
2292,127,45.0,0.4,2046.666667,2048.0
2293,127,41.0,0.0,2048.0,2049.333333
2294,127,45.0,0.0,2049.333333,2050.0
2295,127,40.0,0.0,2050.0,2051.0
2296,127,43.0,0.0,2051.0,2052.0
2297,127,45.0,0.0,2052.0,2053.0
2298,127,40.0,0.7,2053.0,2054.0
2299,127,41.0,0.0,2054.0,2055.0
2300,127,35.0,0.8,2055.0,2056.0
2301,127,31.0,0.4,2056.0,2057.0
2302,127,33.0,0.0,2057.0,2057.333333
2303,127,38.0,0.6,2057.333333,2058.0
2304,127,43.0,0.7,2058.0,2058.666667
2305,127,41.0,0.0,2058.666667,2059.0
2306,127,45.0,0.4,2059.0,2061.333333
2307,127,40.0,0.7,2061.333333,2062.0
2308,127,41.0,0.6,2062.0,2062.666667
2309,127,43.0,0.0,2062.666667,2063.0
2310,127,45.0,0.5,2063.0,2064.0
2311,127,48.0,0.0,2064.0,2065.0
2312,127,44.0,0.5,2065.0,2065.333333
2313,127,38.0,0.6,2065.333333,2066.0
2314,127,41.0,0.0,2066.0,2066.666667
2315,127,35.0,0.8,2066.666667,2068.0
2316,127,41.0,0.0,2068.0,2069.0
2317,127,45.0,0.5,2069.0,2069.333333
2318,127,43.0,0.4,2069.333333,2070.0
2319,127,45.0,0.4,2070.0,2070.666667
2320,127,41.0,0.6,2070.666667,2071.0
2321,127,47.0,0.9,2071.0,2072.0
2322,127,45.0,0.0,2072.0,2073.0
2323,127,48.0,0.5,2073.0,2073.333333
2324,127,46.0,0.1,2073.333333,2074.0
2325,127,41.0,0.3,2074.0,2074.666667
2326,127,38.0,0.3,2074.666667,2076.0
2327,127,41.0,0.0,2076.0,2077.0
2328,127,47.0,0.9,2077.0,2077.333333
2329,127,53.0,0.3,2077.333333,2078.0
2330,127,48.0,0.2,2078.0,2079.0
2331,127,52.0,0.0,2080.0,2081.0
2332,127,48.0,0.5,2081.0,2081.333333
2333,127,43.0,0.4,2081.333333,2082.0
2334,127,41.0,0.0,2082.0,2083.0
2335,127,38.0,0.2,2083.0,2085.0
2336,127,33.0,0.0,2085.0,2085.333333
2337,127,31.0,0.4,2085.333333,2086.0
2338,127,33.0,0.4,2086.0,2088.0
2339,127,34.0,0.4,2088.0,2089.0
2340,127,35.0,0.5,2090.0,2091.0
2341,127,40.0,0.6,2091.0,2092.0
2342,127,46.0,0.0,2092.0,2093.0
2343,127,50.0,0.3,2093.0,2093.333333
2344,127,56.0,0.5,2093.333333,2094.0
2345,127,62.0,0.6,2094.0,2096.0
2346,127,65.0,0.0,2096.0,2097.0
2347,127,69.0,0.0,2097.0,2099.0
2348,127,67.0,0.0,2099.0,2100.0
2349,127,64.0,0.0,2100.0,2101.333333
2350,127,65.0,0.3,2101.333333,2102.666667
2351,127,69.0,0.0,2102.666667,2103.0
2352,127,67.0,0.1,2103.0,2104.0
2353,127,68.0,0.0,2104.0,2105.0
2354,127,64.0,0.0,2105.0,2105.333333
2355,127,59.0,0.8,2105.333333,2106.0
2356,127,53.0,0.0,2106.0,2106.666667
2357,127,55.0,0.0,2106.666667,2107.0
2358,127,57.0,0.4,2107.0,2108.0
2359,127,53.0,0.3,2108.0,2109.0
2360,127,55.0,0.1,2109.0,2109.333333
2361,127,59.0,0.9,2109.333333,2110.0
2362,127,53.0,0.0,2110.0,2110.666667
2363,127,50.0,0.0,2110.666667,2111.0
2364,127,45.0,0.5,2111.0,2112.0
2365,127,41.0,0.0,2112.0,2113.0
2366,127,46.0,0.1,2113.0,2113.333333
2367,127,52.0,0.0,2113.333333,2114.0
2368,127,57.0,0.0,2114.0,2114.666667
2369,127,60.0,0.5,2114.666667,2115.0
2370,127,55.0,0.1,2115.0,2116.0
2371,127,57.0,0.4,2116.0,2117.333333
2372,127,58.0,0.4,2117.333333,2118.0
2373,127,57.0,0.8,2118.0,2118.666667
2374,127,62.0,0.3,2118.666667,2120.0
2375,127,64.0,0.0,2120.0,2121.0
2376,127,58.0,0.4,2121.0,2121.333333
2377,127,52.0,0.4,2121.333333,2122.666667
2378,127,53.0,0.0,2122.666667,2123.0
2379,127,47.0,0.8,2123.0,2124.0
2380,127,43.0,0.7,2124.0,2125.0
2381,127,40.0,0.0,2125.0,2125.333333
2382,127,35.0,0.9,2125.333333,2126.0
2383,127,34.0,0.0,2126.0,2126.666667
2384,127,31.0,0.0,2126.666667,2128.0
2385,127,32.0,0.0,2128.0,2129.333333
2386,127,28.0,0.7,2129.333333,2130.0
2387,127,33.0,0.8,2130.0,2130.666667
2388,127,29.0,0.0,2130.666667,2131.0
2389,127,26.0,0.2,2131.0,2132.0
2390,127,24.0,0.5,2132.0,2133.333333
2391,127,28.0,0.0,2133.333333,2134.0
2392,127,24.0,0.5,2134.0,2135.0
2393,127,28.0,0.6,2135.0,2136.0
2394,127,29.0,0.0,2136.0,2137.0
2395,127,33.0,0.0,2137.0,2137.333333
2396,127,31.0,0.0,2137.333333,2138.0
2397,127,33.0,0.8,2138.0,2138.666666
2398,127,32.0,0.0,2138.666666,2139.0
2399,127,28.0,0.6,2139.0,2140.0
2400,127,29.0,0.0,2140.0,2141.333333
2401,127,31.0,0.0,2141.333333,2142.0
2402,127,26.0,0.0,2142.0,2143.0
2403,127,29.0,0.0,2143.0,2144.0
2404,127,31.0,0.0,2144.0,2146.0
2405,127,26.0,0.6,2146.0,2146.666666
2406,127,22.0,0.4,2146.666666,2147.0
2407,127,19.0,0.0,2147.0,2148.0
2408,127,21.0,0.0,2148.0,2149.0
2409,127,17.0,0.0,2149.0,2149.333333
2410,127,19.0,0.0,2149.333333,2150.0
2411,127,23.0,0.8,2150.0,2150.666666
2412,127,26.0,0.3,2150.666666,2151.0
2413,127,31.0,0.4,2151.0,2152.0
2414,127,26.0,0.6,2152.0,2153.0
2415,127,32.0,0.0,2153.0,2153.333333
2416,127,38.0,0.2,2153.333333,2154.0
2417,127,36.0,0.2,2154.0,2154.666666
2418,127,41.0,0.0,2154.666666,2155.0
2419,127,45.0,0.4,2155.0,2157.0
2420,127,43.0,0.4,2157.0,2158.666666
2421,127,47.0,0.8,2158.666666,2160.0
2422,127,41.0,0.0,2160.0,2161.0
2423,127,44.0,0.0,2161.0,2162.0
2424,127,38.0,0.9,2162.0,2162.666666
2425,127,41.0,0.0,2162.666666,2163.0
2426,127,45.0,0.4,2163.0,2164.0
2427,127,46.0,0.1,2164.0,2166.666666
2428,127,40.0,0.0,2166.666666,2168.0
2429,127,45.0,0.0,2168.0,2169.333333
2430,127,50.0,0.2,2169.333333,2170.0
2431,127,52.0,0.0,2170.0,2170.666666
2432,127,51.0,0.2,2170.666666,2171.0
2433,127,47.0,0.8,2171.0,2172.0
2434,127,44.0,0.0,2172.0,2173.0
2435,127,45.0,0.8,2173.0,2173.333333
2436,127,46.0,0.0,2173.333333,2174.666666
2437,127,45.0,0.5,2174.666666,2175.0
2438,127,43.0,0.0,2175.0,2176.0
2439,127,41.0,0.0,2176.0,2177.0
2440,127,45.0,0.0,2177.0,2177.333333
2441,127,46.0,0.1,2177.333333,2178.666666
2442,127,45.0,0.0,2178.666666,2179.0
2443,127,50.0,0.2,2179.0,2180.0
2444,127,52.0,0.0,2180.0,2181.333333
2445,127,53.0,0.6,2181.333333,2182.0
2446,127,57.0,0.4,2182.0,2183.0
2447,127,62.0,0.6,2183.0,2184.0
2448,127,57.0,0.4,2184.0,2186.0
2449,127,52.0,0.7,2186.0,2188.0
2450,127,46.0,0.0,2188.0,2189.0
2451,127,50.0,0.6,2189.0,2190.0
2452,127,45.0,0.8,2190.0,2190.666666
2453,127,40.0,0.6,2190.666666,2191.0
2454,127,41.0,0.0,2191.0,2192.0
2455,127,43.0,0.4,2192.0,2193.0
2456,127,41.0,0.6,2193.0,2194.0
2457,127,45.0,0.0,2194.0,2194.666666
2458,127,46.0,0.0,2194.666666,2195.0
2459,127,43.0,0.0,2195.0,2197.0
2460,127,41.0,0.0,2197.0,2199.0
2461,127,40.0,0.0,2200.0,2201.0
2462,127,43.0,0.4,2201.0,2204.0
2463,127,41.0,0.2,2204.0,2205.0
2464,127,46.0,0.4,2205.0,2205.333333
2465,127,48.0,0.5,2205.333333,2206.0
2466,127,45.0,0.5,2206.0,2206.666666
2467,127,40.0,0.6,2206.666666,2208.0
2468,127,43.0,0.4,2208.0,2209.333333
2469,127,45.0,0.0,2209.333333,2210.0
2470,127,44.0,0.5,2210.0,2210.666666
2471,127,48.0,0.2,2210.666666,2211.0
2472,127,52.0,0.6,2211.0,2212.0
2473,127,53.0,0.0,2212.0,2213.0
2474,127,57.0,0.5,2213.0,2213.333333
2475,127,58.0,0.0,2213.333333,2214.0
2476,127,57.0,0.8,2214.0,2215.0
2477,127,55.0,0.0,2215.0,2216.0
2478,127,59.0,0.0,2216.0,2217.0
2479,127,57.0,0.0,2217.0,2217.333333
2480,127,53.0,0.0,2217.333333,2218.0
2481,127,57.0,0.5,2218.0,2219.0
2482,127,62.0,0.2,2219.0,2220.0
2483,127,56.0,0.0,2220.0,2221.0
2484,127,55.0,0.4,2221.333333,2222.0
2485,127,59.0,0.9,2222.0,2223.0
2486,127,62.0,0.0,2223.0,2224.0
2487,127,57.0,0.0,2224.0,2225.0
2488,127,52.0,0.0,2225.0,2225.333333
2489,127,53.0,0.0,2225.333333,2226.0
2490,127,48.0,0.5,2226.0,2226.666666
2491,127,53.0,0.3,2226.666666,2227.0
2492,127,47.0,0.8,2227.0,2228.0
2493,127,53.0,0.3,2228.0,2229.0
2494,127,50.0,0.3,2229.0,2229.333333
2495,127,53.0,0.6,2229.333333,2230.0
2496,127,58.0,0.0,2230.0,2230.666666
2497,127,56.0,0.0,2230.666666,2231.0
2498,127,52.0,0.4,2231.0,2232.0
2499,127,53.0,0.0,2232.0,2233.333333
2500,127,50.0,0.2,2233.333333,2234.0
2501,127,47.0,0.9,2234.0,2234.666666
2502,127,45.0,0.5,2234.666666,2236.0
2503,127,46.0,0.4,2236.0,2237.0
2504,127,40.0,0.7,2237.0,2237.333333
2505,127,43.0,0.7,2237.333333,2238.0
2506,127,41.0,0.0,2238.0,2239.0
2507,127,40.0,0.0,2240.0,2241.0
2508,127,41.0,0.0,2241.0,2241.333333
2509,127,44.0,0.0,2241.333333,2242.0
2510,127,48.0,0.5,2242.0,2242.666666
2511,127,43.0,0.1,2242.666666,2243.0
2512,127,45.0,0.4,2243.0,2244.0
2513,127,41.0,0.0,2244.0,2245.333333
2514,127,39.0,0.2,2245.333333,2246.0
2515,127,34.0,0.0,2246.0,2246.666666
2516,127,33.0,0.0,2246.666666,2248.0
2517,127,35.0,0.0,2248.0,2249.333333
2518,127,31.0,0.0,2250.0,2250.666666
2519,127,29.0,0.0,2250.666666,2252.0
2520,127,32.0,0.0,2252.0,2253.0
2521,127,29.0,0.0,2253.0,2253.333333
2522,127,28.0,0.0,2253.333333,2256.0
2523,127,34.0,0.0,2256.0,2257.0
2524,127,33.0,0.0,2257.0,2258.666666
2525,127,34.0,0.1,2258.666666,2259.0
2526,127,40.0,0.6,2259.0,2260.0
2527,127,35.0,0.0,2260.0,2261.333333
2528,127,41.0,0.0,2261.333333,2262.0
2529,127,35.0,0.8,2262.0,2262.666666
2530,127,33.0,0.0,2262.666666,2263.0
2531,127,34.0,0.4,2263.0,2265.0
2532,127,35.0,0.5,2265.0,2265.333333
2533,127,31.0,0.0,2265.333333,2266.0
2534,127,26.0,0.3,2266.0,2266.666666
2535,127,28.0,0.0,2266.666666,2267.0
2536,127,26.0,0.2,2267.0,2269.0
2537,127,24.0,0.2,2269.0,2269.333333
2538,127,19.0,0.0,2269.333333,2270.0
2539,127,24.0,0.5,2270.0,2270.666666
2540,127,26.0,0.6,2270.666666,2271.0
2541,127,32.0,0.0,2271.0,2272.0
2542,127,29.0,0.0,2272.0,2273.0
2543,127,31.0,0.4,2273.0,2273.333333
2544,127,35.0,0.5,2273.333333,2274.0
2545,127,33.0,0.0,2274.0,2274.666666
2546,127,29.0,0.3,2274.666666,2275.0
2547,127,35.0,0.8,2275.0,2276.0
2548,127,36.0,0.4,2276.0,2277.0
2549,127,33.0,0.8,2277.0,2277.333333
2550,127,29.0,0.0,2277.333333,2278.0
2551,127,33.0,0.4,2278.0,2278.666666
2552,127,38.0,0.6,2278.666666,2280.0
2553,127,43.0,0.0,2280.0,2281.333333
2554,127,41.0,0.0,2281.333333,2283.0
2555,127,35.0,0.8,2283.0,2284.0
2556,127,41.0,0.0,2284.0,2285.0
2557,127,45.0,0.0,2285.0,2286.0
2558,127,43.0,0.1,2286.0,2286.666666
2559,127,47.0,0.6,2286.666666,2288.0
2560,127,41.0,0.0,2288.0,2290.0
2561,127,40.0,0.0,2290.0,2290.666666
2562,127,41.0,0.3,2290.666666,2291.0
2563,127,45.0,0.4,2291.0,2292.0
2564,127,41.0,0.0,2292.0,2293.333333
2565,127,43.0,0.0,2293.333333,2294.0
2566,127,41.0,0.0,2294.0,2294.666666
2567,127,43.0,0.4,2294.666666,2295.0
2568,127,38.0,0.2,2295.0,2296.0
2569,127,41.0,0.3,2296.0,2297.0
2570,127,45.0,0.0,2297.0,2297.333333
2571,127,47.0,0.8,2297.333333,2298.0
2572,127,43.0,0.1,2298.0,2298.666666
2573,127,48.0,0.5,2298.666666,2299.0
2574,127,43.0,0.0,2299.0,2300.0
2575,127,44.0,0.0,2300.0,2301.333333
2576,127,46.0,0.0,2301.333333,2302.0
2577,127,45.0,0.5,2302.0,2303.0
2578,127,48.0,0.5,2303.0,2304.0
2579,127,45.0,0.5,2304.0,2305.0
2580,127,44.0,0.5,2305.0,2306.0
2581,127,46.0,0.1,2306.0,2306.666666
2582,127,44.0,0.5,2306.666666,2307.0
2583,127,40.0,0.6,2307.0,2308.0
2584,127,45.0,0.0,2308.0,2309.0
2585,127,48.0,0.5,2309.0,2309.333333
2586,127,47.0,0.9,2309.333333,2310.0
2587,127,53.0,0.0,2310.0,2310.666666
2588,127,57.0,0.5,2310.666666,2311.0
2589,127,58.0,0.1,2311.0,2312.0
2590,127,53.0,0.6,2312.0,2313.0
2591,127,57.0,0.5,2313.0,2315.0
2592,127,53.0,0.0,2315.0,2316.0
2593,127,57.0,0.8,2316.0,2317.0
2594,127,58.0,0.1,2317.0,2317.333333
2595,127,60.0,0.5,2317.333333,2318.0
2596,127,57.0,0.8,2318.0,2318.666666
2597,127,52.0,0.6,2318.666666,2321.0
2598,127,57.0,0.5,2321.0,2322.0
2599,127,58.0,0.4,2322.0,2323.0
2600,127,62.0,0.2,2323.0,2325.0
2601,127,56.0,0.5,2325.0,2325.333333
2602,127,53.0,0.6,2325.333333,2326.0
2603,127,58.0,0.0,2326.0,2326.666666
2604,127,52.0,0.0,2326.666666,2328.0
2605,127,55.0,0.4,2328.0,2330.0
2606,127,53.0,0.6,2330.0,2330.666666
2607,127,56.0,0.0,2330.666666,2331.0
2608,127,59.0,0.8,2331.0,2332.0
2609,127,58.0,0.0,2332.0,2333.0
2610,127,55.0,0.7,2333.0,2333.333333
2611,127,50.0,0.2,2333.333333,2334.0
2612,127,55.0,0.4,2334.0,2334.666666
2613,127,52.0,0.4,2334.666666,2335.0
2614,127,47.0,0.8,2335.0,2336.0
2615,127,53.0,0.0,2336.0,2337.0
2616,127,57.0,0.0,2337.0,2337.333333
2617,127,53.0,0.0,2337.333333,2338.666666
2618,127,58.0,0.1,2338.666666,2339.0
2619,127,57.0,0.4,2339.0,2342.0
2620,127,53.0,0.0,2342.0,2342.666666
2621,127,52.0,0.7,2342.666666,2343.0
2622,127,50.0,0.9,2343.0,2344.0
2623,127,45.0,0.0,2344.0,2345.0
2624,127,40.0,0.0,2345.0,2346.0
2625,127,36.0,0.2,2346.0,2346.666666
2626,127,40.0,0.0,2346.666666,2347.0
2627,127,43.0,0.0,2347.0,2348.0
2628,127,44.0,0.0,2348.0,2349.0
2629,127,38.0,0.9,2349.0,2349.333333
2630,127,33.0,0.5,2349.333333,2350.0
2631,127,31.0,0.0,2350.0,2350.666666
2632,127,33.0,0.4,2350.666666,2351.0
2633,127,36.0,0.5,2351.0,2352.0
2634,127,33.0,0.4,2352.0,2353.0
2635,127,35.0,0.9,2353.0,2353.333333
2636,127,38.0,0.6,2353.333333,2354.0
2637,127,33.0,0.0,2354.0,2354.666666
2638,127,34.0,0.0,2354.666666,2355.0
2639,127,31.0,0.4,2355.0,2356.0
2640,127,33.0,0.8,2356.0,2357.0
2641,127,36.0,0.5,2357.0,2357.333333
2642,127,38.0,0.9,2357.333333,2358.0
2643,127,35.0,0.8,2358.0,2359.0
2644,127,40.0,0.0,2360.0,2361.0
2645,127,35.0,0.6,2361.0,2362.666666
2646,127,34.0,0.0,2362.666666,2363.0
2647,127,40.0,0.6,2363.0,2364.0
2648,127,38.0,0.0,2364.0,2365.0
2649,127,44.0,0.0,2365.0,2365.333333
2650,127,40.0,0.7,2365.333333,2366.0
2651,127,41.0,0.0,2366.0,2366.666666
2652,127,47.0,0.8,2366.666666,2368.0
2653,127,43.0,0.1,2368.0,2369.333333
2654,127,45.0,0.0,2369.333333,2370.0
2655,127,41.0,0.0,2370.0,2371.0
2656,127,38.0,0.2,2371.0,2373.0
2657,127,33.0,0.8,2373.0,2373.333333
2658,127,35.0,0.5,2373.333333,2374.0
2659,127,33.0,0.4,2374.0,2376.0
2660,127,31.0,0.1,2376.0,2377.0
2661,127,33.0,0.0,2377.0,2377.333333
2662,127,34.0,0.4,2377.333333,2378.0
2663,127,29.0,0.0,2378.0,2378.666666
2664,127,34.0,0.0,2378.666666,2379.0
2665,127,35.0,0.8,2379.0,2380.0
2666,127,41.0,0.3,2380.0,2381.333333
2667,127,43.0,0.7,2381.333333,2382.666666
2668,127,40.0,0.6,2382.666666,2383.0
2669,127,41.0,0.0,2383.0,2384.0
2670,127,43.0,0.0,2384.0,2385.333333
2671,127,48.0,0.2,2385.333333,2386.0
2672,127,44.0,0.0,2386.0,2386.666666
2673,127,48.0,0.5,2386.666666,2387.0
2674,127,45.0,0.4,2387.0,2388.0
2675,127,44.0,0.0,2388.0,2389.0
2676,127,41.0,0.0,2389.0,2390.0
2677,127,43.0,0.0,2390.0,2391.0
2678,127,38.0,0.6,2391.0,2392.0
2679,127,44.0,0.0,2392.0,2393.0
2680,127,50.0,0.0,2393.0,2393.333333
2681,127,55.0,0.0,2393.333333,2394.666666
2682,127,56.0,0.0,2394.666666,2395.0
2683,127,55.0,0.0,2395.0,2396.0
2684,127,57.0,0.7,2396.0,2397.0
2685,127,62.0,0.6,2397.0,2397.333333
2686,127,67.0,0.0,2397.333333,2398.0
2687,127,62.0,0.3,2398.0,2399.0
2688,127,64.0,0.0,2400.0,2401.0
2689,127,62.0,0.0,2401.0,2401.333333
2690,127,67.0,0.1,2401.333333,2402.0
2691,127,68.0,0.0,2402.0,2403.0
2692,127,67.0,0.0,2403.0,2405.333333
2693,127,65.0,0.0,2405.333333,2406.0
2694,127,67.0,0.0,2406.0,2406.666666
2695,127,62.0,0.9,2406.666666,2408.0
2696,127,58.0,0.0,2408.0,2409.333333
2697,127,52.0,0.0,2410.0,2410.666666
2698,127,53.0,0.0,2410.666666,2411.0
2699,127,57.0,0.4,2411.0,2412.0
2700,127,55.0,0.0,2412.0,2413.0
2701,127,60.0,0.2,2413.0,2413.333333
2702,127,64.0,0.0,2413.333333,2414.0
2703,127,59.0,0.9,2414.0,2414.666666
2704,127,64.0,0.6,2414.666666,2415.0
2705,127,69.0,0.4,2415.0,2416.0
2706,127,67.0,0.1,2416.0,2417.0
2707,127,69.0,0.0,2417.0,2417.333333
2708,127,65.0,0.3,2417.333333,2419.0
2709,127,59.0,0.8,2419.0,2421.333333
2710,127,57.0,0.5,2421.333333,2423.0
2711,127,55.0,0.4,2423.0,2424.0
2712,127,50.0,0.0,2424.0,2425.0
2713,127,47.0,0.5,2425.0,2425.333333
2714,127,50.0,0.2,2425.333333,2426.0
2715,127,45.0,0.8,2426.0,2426.666666
2716,127,43.0,0.0,2426.666666,2427.0
2717,127,38.0,0.2,2427.0,2428.0
2718,127,34.0,0.1,2428.0,2429.0
2719,127,31.0,0.4,2429.0,2429.333333
2720,127,36.0,0.5,2429.333333,2430.0
2721,127,31.0,0.0,2430.0,2431.0
2722,127,29.0,0.0,2431.0,2432.0
2723,127,31.0,0.1,2432.0,2433.0
2724,127,28.0,0.4,2433.0,2433.333333
2725,127,32.0,0.5,2433.333333,2434.0
2726,127,33.0,0.0,2434.0,2434.666666
2727,127,35.0,0.9,2434.666666,2435.0
2728,127,40.0,0.6,2435.0,2436.0
2729,127,41.0,0.6,2436.0,2437.333333
2730,127,45.0,0.0,2437.333333,2438.0
2731,127,47.0,0.8,2438.0,2438.666666
2732,127,48.0,0.5,2438.666666,2440.0
2733,127,52.0,0.0,2440.0,2441.0
2734,127,50.0,0.6,2441.0,2441.333333
2735,127,46.0,0.1,2441.333333,2442.666666
2736,127,48.0,0.5,2442.666666,2443.0
2737,127,52.0,0.6,2443.0,2444.0
2738,127,48.0,0.5,2444.0,2446.0
2739,127,46.0,0.0,2446.0,2446.666666
2740,127,45.0,0.4,2446.666666,2448.0
2741,127,48.0,0.5,2448.0,2449.0
2742,127,46.0,0.1,2449.333333,2450.0
2743,127,40.0,0.0,2450.0,2450.666666
2744,127,45.0,0.8,2450.666666,2451.0
2745,127,43.0,0.0,2451.0,2452.0
2746,127,44.0,0.0,2452.0,2453.0
2747,127,48.0,0.5,2453.0,2453.333333
2748,127,52.0,0.0,2453.333333,2454.0
2749,127,48.0,0.2,2454.0,2454.666666
2750,127,45.0,0.5,2454.666666,2455.0
2751,127,43.0,0.0,2455.0,2456.0
2752,127,41.0,0.0,2456.0,2457.0
2753,127,45.0,0.0,2457.0,2458.0
2754,127,50.0,0.6,2458.0,2458.666666
2755,127,46.0,0.4,2458.666666,2459.0
2756,127,45.0,0.4,2459.0,2460.0
2757,127,44.0,0.0,2460.0,2461.0
2758,127,46.0,0.0,2461.333333,2462.0
2759,127,41.0,0.0,2462.0,2463.0
2760,127,44.0,0.0,2463.0,2464.0
2761,127,43.0,0.1,2464.0,2465.0
2762,127,40.0,0.0,2465.0,2466.0
2763,127,41.0,0.6,2466.0,2466.666666
2764,127,40.0,0.0,2466.666666,2467.0
2765,127,35.0,0.8,2467.0,2468.0
2766,127,33.0,0.0,2468.0,2469.0
2767,127,31.0,0.7,2469.0,2469.333333
2768,127,29.0,0.0,2469.333333,2470.0
2769,127,34.0,0.1,2470.0,2470.666666
2770,127,31.0,0.7,2470.666666,2471.0
2771,127,29.0,0.6,2471.0,2473.333333
2772,127,26.0,0.2,2473.333333,2474.666666
2773,127,29.0,0.0,2474.666666,2475.0
2774,127,26.0,0.2,2475.0,2476.0
2775,127,29.0,0.0,2476.0,2478.666666
2776,127,28.0,0.6,2478.666666,2481.0
2777,127,29.0,0.0,2481.0,2482.0
2778,127,31.0,0.4,2482.0,2482.666666
2779,127,29.0,0.0,2482.666666,2483.0
2780,127,26.0,0.2,2483.0,2484.0
2781,127,27.0,0.2,2484.0,2485.0
2782,127,33.0,0.0,2485.0,2486.0
2783,127,34.0,0.0,2486.0,2486.666666
2784,127,40.0,0.0,2486.666666,2488.0
2785,127,43.0,0.1,2488.0,2489.333333
2786,127,38.0,0.2,2489.333333,2490.0
2787,127,43.0,0.0,2490.0,2490.666666
2788,127,45.0,0.5,2490.666666,2491.0
2789,127,40.0,0.6,2491.0,2492.0
2790,127,45.0,0.5,2492.0,2493.0
2791,127,41.0,0.0,2493.0,2494.666666
2792,127,36.0,0.5,2494.666666,2495.0
2793,127,40.0,0.6,2495.0,2496.0
2794,127,43.0,0.1,2496.0,2497.0
2795,127,45.0,0.0,2497.0,2497.333333
2796,127,47.0,0.9,2497.333333,2498.666666
2797,127,45.0,0.0,2498.666666,2499.0
2798,127,43.0,0.0,2499.0,2500.0
2799,127,44.0,0.0,2500.0,2501.333333
2800,127,41.0,0.0,2501.333333,2502.0
2801,127,43.0,0.0,2502.0,2502.666666
2802,127,48.0,0.5,2502.666666,2503.0
2803,127,47.0,0.6,2503.0,2504.0
2804,127,44.0,0.0,2504.0,2505.0
2805,127,47.0,0.5,2505.0,2506.0
2806,127,45.0,0.5,2506.0,2506.666666
2807,127,40.0,0.0,2506.666666,2507.0
2808,127,45.0,0.4,2507.0,2510.0
2809,127,48.0,0.5,2510.0,2510.666666
2810,127,47.0,0.8,2510.666666,2511.0
2811,127,50.0,0.0,2511.0,2512.0
2812,127,55.0,0.1,2512.0,2513.0
2813,127,50.0,0.6,2513.0,2513.333333
2814,127,45.0,0.0,2513.333333,2514.666666
2815,127,41.0,0.0,2514.666666,2515.0
2816,127,47.0,0.8,2515.0,2516.0
2817,127,45.0,0.5,2516.0,2517.0
2818,127,48.0,0.2,2517.0,2517.333333
2819,127,45.0,0.5,2517.333333,2519.0
2820,127,41.0,0.0,2520.0,2521.0
2821,127,38.0,0.9,2521.0,2521.333333
2822,127,33.0,0.4,2521.333333,2522.666666
2823,127,34.0,0.4,2522.666666,2523.0
2824,127,35.0,0.8,2523.0,2525.333333
2825,127,31.0,0.0,2525.333333,2526.0
2826,127,34.0,0.0,2526.0,2526.666666
2827,127,40.0,0.6,2526.666666,2528.0
2828,127,41.0,0.0,2528.0,2529.333333
2829,127,45.0,0.0,2529.333333,2530.0
2830,127,40.0,0.0,2530.0,2530.666666
2831,127,41.0,0.0,2530.666666,2531.0
2832,127,38.0,0.2,2531.0,2532.0
2833,127,36.0,0.0,2532.0,2533.0
2834,127,40.0,0.7,2533.0,2533.333333
2835,127,44.0,0.0,2533.333333,2534.0
2836,127,41.0,0.0,2534.0,2535.0
2837,127,38.0,0.2,2535.0,2536.0
2838,127,43.0,0.1,2536.0,2537.0
2839,127,45.0,0.0,2537.0,2537.333333
2840,127,41.0,0.0,2537.333333,2538.0
2841,127,38.0,0.3,2538.0,2538.666666
2842,127,33.0,0.8,2538.666666,2539.0
2843,127,28.0,0.6,2539.0,2540.0
2844,127,32.0,0.4,2540.0,2541.333333
2845,127,38.0,0.0,2541.333333,2542.0
2846,127,43.0,0.4,2542.0,2542.666666
2847,127,40.0,0.6,2542.666666,2543.0
2848,127,45.0,0.5,2543.0,2544.0
2849,127,50.0,0.4,2544.0,2545.0
2850,127,56.0,0.5,2545.0,2545.333333
2851,127,53.0,0.0,2545.333333,2546.666666
2852,127,55.0,0.4,2546.666666,2548.0
2853,127,50.0,0.0,2548.0,2549.0
2854,127,45.0,0.5,2549.0,2549.333333
2855,127,46.0,0.4,2549.333333,2550.0
2856,127,50.0,0.2,2550.0,2551.0
2857,127,47.0,0.9,2551.0,2552.0
2858,127,50.0,0.2,2552.0,2553.0
2859,127,48.0,0.5,2553.0,2553.333333
2860,127,45.0,0.5,2553.333333,2554.0
2861,127,40.0,0.7,2554.0,2554.666666
2862,127,38.0,0.3,2554.666666,2555.0
2863,127,41.0,0.0,2555.0,2556.0
2864,127,38.0,0.6,2556.0,2557.0
2865,127,35.0,0.9,2557.0,2557.333333
2866,127,38.0,0.3,2557.333333,2558.0
2867,127,36.0,0.2,2558.0,2559.0
2868,127,40.0,0.0,2560.0,2561.0
2869,127,36.0,0.5,2561.0,2561.333333
2870,127,38.0,0.0,2561.333333,2562.0
2871,127,41.0,0.0,2562.0,2563.0
2872,127,45.0,0.4,2563.0,2564.0
2873,127,50.0,0.2,2564.0,2565.0
2874,127,53.0,0.6,2565.0,2565.333333
2875,127,50.0,0.0,2565.333333,2566.0
2876,127,46.0,0.0,2566.0,2566.666666
2877,127,44.0,0.5,2566.666666,2568.0
2878,127,45.0,0.0,2568.0,2571.0
2879,127,47.0,0.8,2571.0,2572.0
2880,127,45.0,0.4,2572.0,2573.0
2881,127,50.0,0.3,2573.0,2573.333333
2882,127,52.0,0.0,2573.333333,2574.0
2883,127,50.0,0.6,2574.0,2574.666666
2884,127,47.0,0.8,2574.666666,2576.0
2885,127,46.0,0.0,2576.0,2577.0
2886,127,45.0,0.0,2577.0,2577.333333
2887,127,48.0,0.2,2577.333333,2578.666666
2888,127,47.0,0.9,2578.666666,2579.0
2889,127,50.0,0.2,2579.0,2580.0
2890,127,55.0,0.0,2580.0,2581.333333
2891,127,57.0,0.5,2581.333333,2582.0
2892,127,53.0,0.0,2582.0,2582.666666
2893,127,57.0,0.0,2582.666666,2583.0
2894,127,55.0,0.1,2583.0,2585.0
2895,127,52.0,0.0,2585.0,2585.333333
2896,127,57.0,0.4,2585.333333,2586.0
2897,127,53.0,0.0,2586.0,2586.666666
2898,127,52.0,0.0,2586.666666,2589.0
2899,127,55.0,0.1,2589.0,2589.333333
2900,127,57.0,0.5,2589.333333,2590.0
2901,127,53.0,0.3,2590.0,2590.666666
2902,127,55.0,0.4,2590.666666,2591.0
2903,127,57.0,0.5,2591.0,2592.0
2904,127,58.0,0.0,2592.0,2593.333333
2905,127,57.0,0.5,2593.333333,2594.666666
2906,127,60.0,0.2,2594.666666,2595.0
2907,127,55.0,0.0,2595.0,2597.0
2908,127,57.0,0.5,2597.0,2597.333333
2909,127,56.0,0.0,2597.333333,2598.0
2910,127,55.0,0.0,2598.0,2600.0
2911,127,57.0,0.0,2600.0,2601.0
2912,127,58.0,0.4,2601.0,2601.333333
2913,127,53.0,0.0,2601.333333,2602.666666
2914,127,57.0,0.5,2602.666666,2603.0
2915,127,55.0,0.0,2603.0,2604.0
2916,127,52.0,0.4,2604.0,2605.0
2917,127,55.0,0.4,2605.0,2605.333333
2918,127,57.0,0.0,2605.333333,2606.0
2919,127,58.0,0.0,2606.0,2606.666666
2920,127,59.0,0.9,2606.666666,2608.0
2921,127,56.0,0.0,2608.0,2609.333333
2922,127,53.0,0.0,2609.333333,2610.0
2923,127,47.0,0.5,2610.0,2610.666666
2924,127,50.0,0.2,2610.666666,2611.0
2925,127,52.0,0.6,2611.0,2612.0
2926,127,50.0,0.3,2612.0,2613.0
2927,127,48.0,0.2,2613.0,2613.333333
2928,127,52.0,0.0,2613.333333,2614.0
2929,127,57.0,0.4,2614.0,2614.666666
2930,127,62.0,0.6,2614.666666,2615.0
2931,127,59.0,0.8,2615.0,2616.0
2932,127,58.0,0.4,2616.0,2617.0
2933,127,57.0,0.0,2617.0,2617.333333
2934,127,52.0,0.6,2617.333333,2618.0
2935,127,48.0,0.2,2618.0,2618.666666
2936,127,45.0,0.5,2618.666666,2619.0
2937,127,50.0,0.2,2619.0,2620.0
2938,127,48.0,0.2,2620.0,2621.333333
2939,127,43.0,0.4,2621.333333,2622.0
2940,127,44.0,0.0,2622.0,2623.0
2941,127,41.0,0.0,2623.0,2624.0
2942,127,46.0,0.0,2624.0,2625.0
2943,127,44.0,0.5,2625.0,2626.0
2944,127,43.0,0.4,2626.0,2627.0
2945,127,47.0,0.8,2627.0,2628.0
2946,127,45.0,0.0,2628.0,2629.0
2947,127,41.0,0.0,2629.0,2629.333333
2948,127,36.0,0.2,2629.333333,2630.0
2949,127,34.0,0.0,2630.0,2630.666666
2950,127,36.0,0.5,2630.666666,2631.0
2951,127,31.0,0.4,2631.0,2632.0
2952,127,36.0,0.2,2632.0,2633.0
2953,127,32.0,0.0,2633.0,2633.333333
2954,127,33.0,0.4,2633.333333,2634.666666
2955,127,34.0,0.1,2634.666666,2635.0
2956,127,33.0,0.4,2635.0,2637.0
2957,127,31.0,0.4,2637.0,2638.666666
2958,127,35.0,0.8,2638.666666,2640.0
2959,127,40.0,0.0,2640.0,2641.0
2960,127,44.0,0.0,2641.0,2642.0
2961,127,43.0,0.1,2642.0,2642.666666
2962,127,41.0,0.0,2642.666666,2643.0
2963,127,45.0,0.4,2643.0,2644.0
2964,127,44.0,0.0,2644.0,2645.333333
2965,127,43.0,0.4,2645.333333,2646.0
2966,127,46.0,0.0,2646.0,2646.666666
2967,127,40.0,0.0,2646.666666,2649.333333
2968,127,45.0,0.4,2649.333333,2650.0
2969,127,40.0,0.0,2650.0,2650.666666
2970,127,45.0,0.0,2650.666666,2651.0
2971,127,43.0,0.0,2651.0,2653.0
2972,127,45.0,0.8,2653.0,2653.333333
2973,127,43.0,0.0,2653.333333,2654.0
2974,127,46.0,0.1,2654.0,2654.666666
2975,127,41.0,0.6,2654.666666,2655.0
2976,127,45.0,0.4,2655.0,2656.0
2977,127,41.0,0.0,2656.0,2657.0
2978,127,45.0,0.0,2657.0,2657.333333
2979,127,41.0,0.0,2657.333333,2659.0
2980,127,40.0,0.6,2659.0,2662.0
2981,127,36.0,0.5,2662.0,2662.666666
2982,127,41.0,0.3,2662.666666,2663.0
2983,127,38.0,0.6,2663.0,2664.0
2984,127,36.0,0.0,2664.0,2665.0
2985,127,33.0,0.5,2665.0,2666.0
2986,127,29.0,0.3,2666.0,2666.666666
2987,127,28.0,0.0,2666.666666,2667.0
2988,127,26.0,0.2,2667.0,2668.0
2989,127,29.0,0.0,2668.0,2669.0
2990,127,26.0,0.6,2669.0,2670.0
2991,127,21.0,0.8,2670.0,2670.666666
2992,127,19.0,0.0,2670.666666,2671.0
2993,127,17.0,0.0,2671.0,2672.0
2994,127,23.0,0.0,2672.0,2673.0
2995,127,29.0,0.6,2673.0,2673.333333
2996,127,24.0,0.5,2673.333333,2674.0
2997,127,21.0,0.0,2674.0,2674.666666
2998,127,19.0,0.0,2674.666666,2675.0
2999,127,23.0,0.8,2675.0,2676.0
3000,127,19.0,0.1,2676.0,2677.0
3001,127,17.0,0.0,2677.0,2677.333333
3002,127,19.0,0.1,2677.333333,2678.0
3003,127,17.0,0.3,2678.0,2679.0
3004,127,23.0,0.0,2680.0,2681.0
3005,127,19.0,0.4,2681.0,2681.333333
3006,127,21.0,0.4,2681.333333,2682.666666
3007,127,19.0,0.4,2682.666666,2683.0
3008,127,23.0,0.8,2683.0,2684.0
3009,127,21.0,0.0,2684.0,2685.333333
3010,127,17.0,0.3,2685.333333,2686.0
3011,127,22.0,0.0,2686.0,2686.666666
3012,127,21.0,0.4,2686.666666,2690.0
3013,127,20.0,0.5,2690.0,2691.0
3014,127,21.0,0.4,2691.0,2692.0
3015,127,22.0,0.1,2692.0,2693.0
3016,127,21.0,0.5,2693.0,2693.333333
3017,127,20.0,0.5,2693.333333,2694.0
3018,127,19.0,0.0,2694.0,2696.0
3019,127,20.0,0.0,2696.0,2697.0
3020,127,21.0,0.0,2697.0,2697.333333
3021,127,23.0,0.6,2697.333333,2698.0
3022,127,24.0,0.5,2698.0,2698.666666
3023,127,19.0,0.7,2698.666666,2700.0
3024,127,20.0,0.0,2700.0,2701.333333
3025,127,24.0,0.5,2701.333333,2702.0
3026,127,22.0,0.1,2702.0,2702.666666
3027,127,26.0,0.2,2702.666666,2704.0
3028,127,24.0,0.4,2704.0,2705.0
3029,127,28.0,0.0,2705.0,2705.333333
3030,127,33.0,0.8,2705.333333,2707.0
3031,127,28.0,0.6,2707.0,2708.0
3032,127,33.0,0.0,2708.0,2709.0
3033,127,38.0,0.3,2709.0,2709.333333
3034,127,43.0,0.4,2709.333333,2710.0
3035,127,45.0,0.4,2710.0,2710.666666
3036,127,50.0,0.6,2710.666666,2711.0
3037,127,52.0,0.4,2711.0,2712.0
3038,127,57.0,0.0,2712.0,2713.0
3039,127,53.0,0.0,2713.0,2713.333333
3040,127,52.0,0.6,2713.333333,2714.0
3041,127,46.0,0.1,2714.0,2714.666666
3042,127,43.0,0.4,2714.666666,2715.0
3043,127,38.0,0.0,2715.0,2716.0
3044,127,33.0,0.2,2716.0,2717.0
3045,127,28.0,0.7,2717.0,2717.333333
3046,127,24.0,0.5,2717.333333,2718.0
3047,127,29.0,0.0,2718.0,2719.0
3048,127,28.0,0.0,2720.0,2721.0
3049,127,29.0,0.0,2721.0,2721.333333
3050,127,26.0,0.9,2721.333333,2722.0
3051,127,21.0,0.5,2722.0,2723.0
3052,127,26.0,0.2,2723.0,2724.0
3053,127,28.0,0.4,2724.0,2725.333333
3054,127,29.0,0.0,2725.333333,2726.0
3055,127,33.0,0.4,2726.0,2727.0
3056,127,32.0,0.0,2728.0,2729.333333
3057,127,29.0,0.0,2730.0,2731.0
3058,127,35.0,0.8,2731.0,2732.0
3059,127,34.0,0.0,2732.0,2733.0
3060,127,29.0,0.0,2733.0,2733.333333
3061,127,28.0,0.0,2733.333333,2734.666666
3062,127,31.0,0.0,2734.666666,2735.0
3063,127,28.0,0.6,2735.0,2736.0
3064,127,31.0,0.0,2736.0,2737.0
3065,127,33.0,0.0,2737.0,2737.333333
3066,127,28.0,0.7,2737.333333,2738.666666
3067,127,29.0,0.0,2738.666666,2739.0
3068,127,33.0,0.4,2739.0,2740.0
3069,127,35.0,0.0,2740.0,2741.333333
3070,127,31.0,0.4,2741.333333,2742.0
3071,127,35.0,0.8,2742.0,2742.666666
3072,127,33.0,0.0,2742.666666,2743.0
3073,127,34.0,0.4,2743.0,2744.0
3074,127,31.0,0.4,2744.0,2745.0
3075,127,35.0,0.5,2745.0,2745.333333
3076,127,33.0,0.4,2745.333333,2746.0
3077,127,31.0,0.7,2746.0,2746.666666
3078,127,33.0,0.5,2746.666666,2747.0
3079,127,31.0,0.0,2747.0,2749.0
3080,127,36.0,0.2,2749.0,2749.333333
3081,127,41.0,0.6,2749.333333,2750.0
3082,127,45.0,0.4,2750.0,2751.0
3083,127,44.0,0.0,2751.0,2752.0
3084,127,48.0,0.0,2752.0,2753.0
3085,127,43.0,0.4,2753.0,2753.333333
3086,127,44.0,0.5,2753.333333,2754.0
3087,127,45.0,0.0,2754.0,2754.666666
3088,127,41.0,0.0,2754.666666,2755.0
3089,127,40.0,0.4,2755.0,2756.0
3090,127,35.0,0.6,2756.0,2757.0
3091,127,33.0,0.8,2757.0,2757.333333
3092,127,29.0,0.0,2757.333333,2758.0
3093,127,33.0,0.5,2758.0,2761.0
3094,127,31.0,0.1,2761.0,2761.333333
3095,127,35.0,0.9,2761.333333,2762.666666
3096,127,33.0,0.4,2762.666666,2763.0
3097,127,28.0,0.6,2763.0,2764.0
3098,127,29.0,0.0,2764.0,2766.0
3099,127,34.0,0.0,2766.0,2766.666666
3100,127,38.0,0.2,2766.666666,2768.0
3101,127,41.0,0.0,2768.0,2769.333333
3102,127,47.0,0.9,2769.333333,2770.0
3103,127,52.0,0.0,2770.0,2770.666666
3104,127,48.0,0.2,2770.666666,2771.0
3105,127,50.0,0.2,2771.0,2772.0
3106,127,48.0,0.2,2772.0,2773.0
3107,127,53.0,0.3,2773.0,2773.333333
3108,127,52.0,0.0,2773.333333,2774.0
3109,127,53.0,0.0,2774.0,2774.666666
3110,127,48.0,0.5,2774.666666,2775.0
3111,127,50.0,0.2,2775.0,2776.0
3112,127,48.0,0.0,2776.0,2777.0
3113,127,45.0,0.0,2777.0,2777.333333
3114,127,50.0,0.2,2777.333333,2779.0
3115,127,47.0,0.8,2779.0,2780.0
3116,127,41.0,0.0,2780.0,2781.333333
3117,127,45.0,0.4,2781.333333,2782.0
3118,127,48.0,0.5,2782.0,2784.0
3119,127,50.0,0.4,2784.0,2785.0
3120,127,44.0,0.5,2785.0,2786.0
3121,127,47.0,0.9,2786.0,2787.0
3122,127,45.0,0.4,2787.0,2789.0
3123,127,48.0,0.5,2789.0,2789.333333
3124,127,46.0,0.0,2789.333333,2790.0
3125,127,41.0,0.0,2790.0,2790.666666
3126,127,38.0,0.3,2790.666666,2791.0
3127,127,34.0,0.1,2791.0,2792.0
3128,127,31.0,0.4,2792.0,2793.0
3129,127,33.0,0.5,2793.0,2793.333333
3130,127,38.0,0.2,2793.333333,2794.0
3131,127,36.0,0.5,2794.0,2794.666666
3132,127,41.0,0.0,2794.666666,2795.0
3133,127,43.0,0.0,2795.0,2796.0
3134,127,45.0,0.0,2796.0,2797.0
3135,127,46.0,0.1,2797.0,2798.0
3136,127,45.0,0.8,2798.0,2798.666666
3137,127,43.0,0.0,2798.666666,2800.0
3138,127,40.0,0.0,2800.0,2801.0
3139,127,45.0,0.5,2801.0,2802.0
3140,127,47.0,0.6,2802.0,2802.666666
3141,127,53.0,0.0,2802.666666,2803.0
3142,127,55.0,0.0,2803.0,2805.0
3143,127,53.0,0.0,2805.0,2805.333333
3144,127,56.0,0.0,2805.333333,2806.0
3145,127,55.0,0.0,2806.0,2806.666666
3146,127,52.0,0.0,2806.666666,2808.0
3147,127,53.0,0.0,2808.0,2809.333333
3148,127,57.0,0.4,2809.333333,2810.666666
3149,127,53.0,0.3,2810.666666,2811.0
3150,127,57.0,0.4,2811.0,2812.0
3151,127,53.0,0.0,2812.0,2813.0
3152,127,55.0,0.7,2813.0,2813.333333
3153,127,53.0,0.0,2813.333333,2814.0
3154,127,55.0,0.4,2814.0,2814.666666
3155,127,57.0,0.5,2814.666666,2815.0
3156,127,62.0,0.2,2815.0,2816.0
3157,127,65.0,0.0,2816.0,2817.0
3158,127,69.0,0.0,2817.0,2817.333333
3159,127,70.0,0.1,2817.333333,2818.666666
3160,127,69.0,0.0,2818.666666,2819.0
3161,127,71.0,0.8,2819.0,2820.0
3162,127,67.0,0.1,2820.0,2821.333333
3163,127,72.0,0.8,2821.333333,2822.0
3164,127,77.0,0.0,2822.0,2822.666666
3165,127,81.0,0.5,2822.666666,2823.0
3166,127,86.0,0.9,2823.0,2824.0
3167,127,88.0,0.4,2824.0,2826.0
3168,127,93.0,0.8,2826.0,2826.666666
3169,127,88.0,0.0,2826.666666,2827.0
3170,127,86.0,0.2,2827.0,2828.0
3171,127,82.0,0.4,2828.0,2829.0
3172,127,86.0,0.9,2829.0,2830.0
3173,127,81.0,0.4,2830.0,2830.666666
3174,127,83.0,0.8,2830.666666,2831.0
3175,127,84.0,0.5,2831.0,2832.0
3176,127,79.0,0.1,2832.0,2833.0
3177,127,83.0,0.9,2833.0,2833.333333
3178,127,88.0,0.0,2833.333333,2834.0
3179,127,93.0,0.0,2834.0,2834.666666
3180,127,94.0,0.0,2834.666666,2835.0
3181,127,88.0,0.6,2835.0,2836.0
3182,127,89.0,0.0,2836.0,2837.0
3183,127,84.0,0.5,2837.0,2839.0
3184,127,81.0,0.0,2840.0,2841.0
3185,127,83.0,0.6,2841.0,2841.333333
3186,127,86.0,0.2,2841.333333,2842.666666
3187,127,84.0,0.5,2842.666666,2843.0
3188,127,88.0,0.6,2843.0,2844.0
3189,127,84.0,0.1,2844.0,2846.0
3190,127,89.0,0.0,2846.0,2846.666666
3191,127,88.0,0.6,2846.666666,2848.0
3192,127,91.0,0.0,2848.0,2849.333333
3193,127,93.0,0.0,2849.333333,2850.0
3194,127,91.0,0.0,2850.0,2850.666666
3195,127,93.0,0.8,2850.666666,2852.0
3196,127,88.0,0.0,2852.0,2853.0
3197,127,93.0,0.8,2853.0,2853.333333
3198,127,94.0,0.1,2853.333333,2854.0
3199,127,93.0,0.5,2854.0,2855.0
3200,127,95.0,0.8,2855.0,2856.0
3201,127,89.0,0.0,2856.0,2857.0
3202,127,93.0,0.0,2857.0,2857.333333
3203,127,89.0,0.0,2857.333333,2858.666666
3204,127,92.0,0.0,2858.666666,2859.0
3205,127,93.0,0.4,2859.0,2860.0
3206,127,91.0,0.1,2860.0,2861.333333
3207,127,86.0,0.6,2861.333333,2862.666666
3208,127,91.0,0.0,2862.666666,2863.0
3209,127,89.0,0.0,2863.0,2864.0
3210,127,87.0,0.0,2864.0,2865.0
3211,127,89.0,0.0,2865.0,2866.0
3212,127,86.0,0.0,2866.0,2866.666666
3213,127,83.0,0.8,2866.666666,2868.0
3214,127,79.0,0.4,2868.0,2869.0
3215,127,77.0,0.0,2869.0,2869.333333
3216,127,72.0,0.8,2869.333333,2870.0
3217,127,69.0,0.4,2870.0,2870.666666
3218,127,68.0,0.0,2870.666666,2871.0
3219,127,62.0,0.6,2871.0,2872.0
3220,127,60.0,0.2,2872.0,2873.0
3221,127,62.0,0.0,2873.0,2873.333333
3222,127,57.0,0.4,2873.333333,2874.0
3223,127,62.0,0.6,2874.0,2874.666666
3224,127,58.0,0.4,2874.666666,2875.0
3225,127,62.0,0.2,2875.0,2876.0
3226,127,67.0,0.3,2876.0,2877.0
3227,127,62.0,0.6,2877.0,2877.333333
3228,127,67.0,0.7,2877.333333,2878.0
3229,127,62.0,0.3,2878.0,2879.0
3230,127,65.0,0.0,2880.0,2881.0
3231,127,62.0,0.0,2881.0,2881.333333
3232,127,56.0,0.0,2881.333333,2882.666666
3233,127,50.0,0.9,2882.666666,2884.0
3234,127,45.0,0.0,2884.0,2885.333333
3235,127,46.0,0.4,2885.333333,2886.0
3236,127,45.0,0.4,2886.0,2886.666666
3237,127,46.0,0.1,2886.666666,2889.333333
3238,127,40.0,0.0,2890.0,2890.666666
3239,127,45.0,0.8,2890.666666,2891.0
3240,127,40.0,0.6,2891.0,2892.0
3241,127,46.0,0.0,2892.0,2893.0
3242,127,48.0,0.2,2893.0,2893.333333
3243,127,52.0,0.0,2893.333333,2894.0
3244,127,47.0,0.9,2894.0,2895.0
3245,127,45.0,0.4,2895.0,2896.0
3246,127,44.0,0.0,2896.0,2897.0
3247,127,45.0,0.0,2897.0,2898.666666
3248,127,46.0,0.1,2898.666666,2899.0
3249,127,43.0,0.0,2899.0,2901.333333
3250,127,41.0,0.0,2901.333333,2902.0
3251,127,43.0,0.0,2902.0,2902.666666
3252,127,45.0,0.0,2902.666666,2903.0
3253,127,43.0,0.4,2903.0,2904.0
3254,127,44.0,0.0,2904.0,2905.0
3255,127,47.0,0.5,2905.0,2905.333333
3256,127,50.0,0.2,2905.333333,2906.0
3257,127,48.0,0.2,2906.0,2906.666666
3258,127,52.0,0.0,2906.666666,2907.0
3259,127,57.0,0.4,2907.0,2908.0
3260,127,58.0,0.4,2908.0,2909.0
3261,127,55.0,0.4,2909.0,2909.333333
3262,127,57.0,0.4,2909.333333,2910.0
3263,127,55.0,0.0,2910.0,2910.666666
3264,127,50.0,0.6,2910.666666,2911.0
3265,127,53.0,0.0,2911.0,2912.0
3266,127,58.0,0.4,2912.0,2913.0
3267,127,52.0,0.4,2913.0,2913.333333
3268,127,57.0,0.5,2913.333333,2914.666666
3269,127,52.0,0.7,2914.666666,2915.0
3270,127,58.0,0.4,2915.0,2916.0
3271,127,52.0,0.6,2916.0,2917.0
3272,127,53.0,0.0,2917.0,2918.0
3273,127,52.0,0.6,2918.0,2918.666666
3274,127,50.0,0.6,2918.666666,2920.0
3275,127,45.0,0.0,2920.0,2921.0
3276,127,50.0,0.6,2921.0,2921.333333
3277,127,53.0,0.0,2921.333333,2922.666666
3278,127,55.0,0.4,2922.666666,2923.0
3279,127,59.0,0.8,2923.0,2924.0
3280,127,53.0,0.5,2924.0,2925.0
3281,127,47.0,0.5,2925.0,2925.333333
3282,127,45.0,0.0,2925.333333,2926.0
3283,127,43.0,0.4,2926.0,2929.333333
3284,127,41.0,0.0,2929.333333,2931.0
3285,127,38.0,0.2,2931.0,2932.0
3286,127,33.0,0.8,2932.0,2933.0
3287,127,36.0,0.5,2933.0,2933.333333
3288,127,40.0,0.0,2933.333333,2934.0
3289,127,36.0,0.2,2934.0,2934.666666
3290,127,31.0,0.4,2934.666666,2936.0
3291,127,34.0,0.1,2936.0,2937.0
3292,127,33.0,0.0,2937.0,2937.333333
3293,127,31.0,0.0,2937.333333,2938.666666
3294,127,29.0,0.6,2938.666666,2939.0
3295,127,28.0,0.6,2939.0,2940.0
3296,127,34.0,0.0,2940.0,2941.333333
3297,127,33.0,0.5,2941.333333,2942.0
3298,127,29.0,0.0,2942.0,2943.0
3299,127,32.0,0.0,2943.0,2944.0
3300,127,36.0,0.5,2944.0,2945.0
3301,127,40.0,0.0,2945.0,2946.666666
3302,127,44.0,0.5,2946.666666,2947.0
3303,127,43.0,0.0,2947.0,2948.0
3304,127,40.0,0.0,2948.0,2949.0
3305,127,43.0,0.7,2949.0,2949.333333
3306,127,41.0,0.0,2949.333333,2950.0
3307,127,47.0,0.8,2950.0,2950.666666
3308,127,45.0,0.5,2950.666666,2951.0
3309,127,41.0,0.6,2951.0,2952.0
3310,127,45.0,0.8,2952.0,2953.0
3311,127,41.0,0.0,2953.0,2953.333333
3312,127,43.0,0.0,2953.333333,2954.666666
3313,127,47.0,0.9,2954.666666,2955.0
3314,127,44.0,0.0,2955.0,2956.0
3315,127,45.0,0.0,2956.0,2957.0
3316,127,41.0,0.3,2957.0,2957.333333
3317,127,45.0,0.5,2957.333333,2958.0
3318,127,41.0,0.0,2958.0,2958.666666
3319,127,38.0,0.2,2958.666666,2960.0
3320,127,40.0,0.0,2960.0,2961.0
3321,127,41.0,0.0,2961.0,2962.0
3322,127,38.0,0.6,2962.0,2962.666666
3323,127,35.0,0.9,2962.666666,2963.0
3324,127,33.0,0.4,2963.0,2964.0
3325,127,34.0,0.0,2964.0,2965.0
3326,127,31.0,0.4,2965.0,2965.333333
3327,127,34.0,0.4,2965.333333,2966.666666
3328,127,40.0,0.0,2966.666666,2968.0
3329,127,43.0,0.0,2968.0,2969.333333
3330,127,47.0,0.8,2969.333333,2970.666666
3331,127,53.0,0.3,2970.666666,2971.0
3332,127,47.0,0.8,2971.0,2972.0
3333,127,46.0,0.0,2972.0,2973.0
3334,127,41.0,0.0,2973.0,2973.333333
3335,127,46.0,0.0,2973.333333,2974.0
3336,127,41.0,0.3,2974.0,2974.666666
3337,127,40.0,0.4,2974.666666,2976.0
3338,127,41.0,0.0,2976.0,2977.0
3339,127,45.0,0.0,2977.0,2978.0
3340,127,47.0,0.9,2978.666666,2979.0
3341,127,50.0,0.2,2979.0,2980.0
3342,127,45.0,0.1,2980.0,2981.333333
3343,127,46.0,0.4,2981.333333,2982.0
3344,127,43.0,0.7,2982.0,2982.666666
3345,127,40.0,0.7,2982.666666,2983.0
3346,127,35.0,0.6,2983.0,2984.0
3347,127,41.0,0.0,2984.0,2985.0
3348,127,45.0,0.8,2985.0,2986.0
3349,127,48.0,0.5,2986.0,2986.666666
3350,127,52.0,0.0,2986.666666,2988.0
3351,127,53.0,0.0,2988.0,2989.0
3352,127,57.0,0.8,2989.0,2989.333333
3353,127,60.0,0.5,2989.333333,2990.0
3354,127,57.0,0.5,2990.0,2991.0
3355,127,62.0,0.0,2991.0,2992.0
3356,127,65.0,0.0,2992.0,2993.0
3357,127,62.0,0.6,2993.0,2994.0
3358,127,57.0,0.0,2994.0,2994.666666
3359,127,58.0,0.0,2994.666666,2995.0
3360,127,55.0,0.0,2995.0,2996.0
3361,127,56.0,0.0,2996.0,2997.0
3362,127,60.0,0.2,2997.0,2997.333333
3363,127,59.0,0.6,2997.333333,2998.0
3364,127,55.0,0.0,2998.0,3001.0
3365,127,50.0,0.9,3001.0,3002.0
3366,127,44.0,0.0,3002.666666,3003.0
3367,127,43.0,0.0,3003.0,3004.0
3368,127,41.0,0.0,3004.0,3005.0
3369,127,43.0,0.1,3005.0,3005.333333
3370,127,40.0,0.7,3005.333333,3006.0
3371,127,44.0,0.0,3006.0,3006.666666
3372,127,40.0,0.6,3006.666666,3008.0
3373,127,41.0,0.0,3008.0,3009.333333
3374,127,45.0,0.0,3009.333333,3010.0
3375,127,40.0,0.0,3010.0,3013.333333
3376,127,35.0,0.5,3013.333333,3014.0
3377,127,29.0,0.0,3014.0,3015.0
3378,127,28.0,0.6,3015.0,3016.0
3379,127,23.0,0.4,3016.0,3017.0
3380,127,21.0,0.0,3017.0,3017.333333
3381,127,22.0,0.4,3017.333333,3018.0
3382,127,19.0,0.7,3018.0,3018.666666
3383,127,22.0,0.0,3018.666666,3019.0
3384,127,26.0,0.2,3019.0,3020.0
3385,127,21.0,0.5,3020.0,3021.333333
3386,127,26.0,0.3,3021.333333,3022.0
3387,127,29.0,0.6,3022.0,3022.666666
3388,127,26.0,0.2,3022.666666,3023.0
3389,127,21.0,0.5,3023.0,3024.0
3390,127,26.0,0.6,3024.0,3025.0
3391,127,32.0,0.5,3025.0,3025.333333
3392,127,36.0,0.2,3025.333333,3026.0
3393,127,41.0,0.0,3026.0,3026.666666
3394,127,36.0,0.5,3026.666666,3027.0
3395,127,35.0,0.8,3027.0,3028.0
3396,127,32.0,0.0,3028.0,3029.0
3397,127,33.0,0.5,3029.0,3029.333333
3398,127,29.0,0.0,3029.333333,3030.0
3399,127,34.0,0.0,3030.0,3030.666666
3400,127,31.0,0.4,3030.666666,3031.0
3401,127,35.0,0.9,3031.0,3032.0
3402,127,33.0,0.0,3032.0,3033.0
3403,127,36.0,0.5,3033.0,3033.333333
3404,127,35.0,0.8,3033.333333,3034.0
3405,127,41.0,0.3,3034.0,3034.666666
3406,127,36.0,0.8,3034.666666,3035.0
3407,127,33.0,0.4,3035.0,3037.0
3408,127,35.0,0.9,3037.0,3037.333333
3409,127,33.0,0.4,3037.333333,3038.0
3410,127,36.0,0.2,3038.0,3039.0
3411,127,31.0,0.0,3040.0,3041.0
3412,127,36.0,0.5,3041.0,3041.333333
3413,127,31.0,0.1,3041.333333,3042.0
3414,127,29.0,0.0,3042.0,3043.0
3415,127,33.0,0.4,3043.0,3044.0
3416,127,35.0,0.4,3044.0,3045.333333
3417,127,41.0,0.0,3045.333333,3046.0
3418,127,46.0,0.0,3046.0,3046.666666
3419,127,45.0,0.0,3046.666666,3048.0
3420,127,43.0,0.1,3048.0,3049.333333
3421,127,40.0,0.0,3050.0,3050.666666
3422,127,41.0,0.0,3050.666666,3051.0
3423,127,43.0,0.0,3051.0,3052.0
3424,127,44.0,0.0,3052.0,3053.0
3425,127,50.0,0.3,3053.0,3053.333333
3426,127,52.0,0.0,3053.333333,3054.0
3427,127,50.0,0.6,3054.0,3054.666666
3428,127,45.0,0.4,3054.666666,3055.0
3429,127,50.0,0.2,3055.0,3056.0
3430,127,53.0,0.0,3056.0,3057.0
3431,127,57.0,0.0,3057.0,3057.333333
3432,127,53.0,0.3,3057.333333,3059.0
3433,127,52.0,0.6,3059.0,3060.0
3434,127,50.0,0.0,3060.0,3061.333333
3435,127,53.0,0.3,3061.333333,3062.666666
3436,127,57.0,0.0,3062.666666,3063.0
3437,127,55.0,0.1,3063.0,3065.0
3438,127,52.0,0.0,3065.0,3065.333333
3439,127,55.0,0.0,3065.333333,3066.0
3440,127,53.0,0.0,3066.0,3066.666666
3441,127,56.0,0.0,3066.666666,3067.0
3442,127,50.0,0.2,3067.0,3068.0
3443,127,53.0,0.3,3068.0,3069.0
3444,127,55.0,0.1,3069.0,3069.333333
3445,127,57.0,0.5,3069.333333,3070.0
3446,127,53.0,0.0,3070.0,3070.666666
3447,127,48.0,0.5,3070.666666,3071.0
3448,127,45.0,0.5,3071.0,3073.0
3449,127,46.0,0.1,3073.0,3073.333333
3450,127,44.0,0.5,3073.333333,3074.0
3451,127,45.0,0.0,3074.0,3074.666666
3452,127,46.0,0.1,3074.666666,3075.0
3453,127,47.0,0.8,3075.0,3076.0
3454,127,52.0,0.6,3076.0,3077.0
3455,127,57.0,0.5,3077.0,3078.666666
3456,127,60.0,0.5,3078.666666,3080.0
3457,127,64.0,0.0,3080.0,3081.0
3458,127,58.0,0.4,3081.0,3082.666666
3459,127,53.0,0.6,3082.666666,3083.0
3460,127,47.0,0.8,3083.0,3084.0
3461,127,43.0,0.5,3084.0,3085.0
3462,127,45.0,0.0,3085.0,3086.0
3463,127,46.0,0.0,3086.0,3086.666666
3464,127,41.0,0.0,3086.666666,3088.0
3465,127,36.0,0.5,3088.0,3089.333333
3466,127,34.0,0.1,3089.333333,3090.0
3467,127,35.0,0.5,3090.0,3090.666666
3468,127,33.0,0.8,3090.666666,3093.0
3469,127,36.0,0.2,3093.0,3093.333333
3470,127,40.0,0.0,3093.333333,3094.0
3471,127,43.0,0.0,3094.0,3094.666666
3472,127,45.0,0.5,3094.666666,3095.0
3473,127,47.0,0.8,3095.0,3096.0
3474,127,44.0,0.0,3096.0,3097.0
3475,127,45.0,0.0,3097.0,3097.333333
3476,127,50.0,0.2,3097.333333,3098.0
3477,127,45.0,0.8,3098.0,3098.666666
3478,127,51.0,0.2,3098.666666,3099.0
3479,127,55.0,0.0,3099.0,3100.0
3480,127,56.0,0.0,3100.0,3101.333333
3481,127,58.0,0.0,3101.333333,3102.0
3482,127,62.0,0.0,3102.0,3103.0
3483,127,65.0,0.0,3103.0,3104.0
3484,127,59.0,0.4,3104.0,3105.0
3485,127,56.0,0.5,3105.0,3106.0
3486,127,50.0,0.6,3106.0,3106.666666
3487,127,53.0,0.6,3106.666666,3107.0
3488,127,52.0,0.6,3107.0,3108.0
3489,127,57.0,0.0,3108.0,3109.0
3490,127,53.0,0.0,3109.0,3109.333333
3491,127,58.0,0.0,3109.333333,3110.0
3492,127,56.0,0.0,3110.0,3110.666666
3493,127,55.0,0.7,3110.666666,3113.0
3494,127,56.0,0.0,3113.0,3113.333333
3495,127,59.0,0.8,3113.333333,3114.0
3496,127,60.0,0.2,3114.0,3114.666666
3497,127,65.0,0.0,3114.666666,3115.0
3498,127,60.0,0.5,3115.0,3116.0
3499,127,59.0,0.0,3116.0,3117.0
3500,127,55.0,0.4,3117.0,3118.666666
3501,127,57.0,0.4,3118.666666,3120.0
3502,127,55.0,0.0,3120.0,3121.0
3503,127,56.0,0.0,3121.0,3122.0
3504,127,50.0,0.9,3122.0,3122.666666
3505,127,53.0,0.0,3122.666666,3123.0
3506,127,50.0,0.2,3123.0,3124.0
3507,127,51.0,0.2,3124.0,3125.0
3508,127,56.0,0.5,3125.0,3125.333333
3509,127,57.0,0.8,3125.333333,3126.0
3510,127,58.0,0.0,3126.0,3126.666666
3511,127,52.0,0.0,3126.666666,3128.0
3512,127,48.0,0.2,3128.0,3129.333333
3513,127,43.0,0.0,3129.333333,3130.0
3514,127,40.0,0.0,3130.0,3130.666666
3515,127,44.0,0.0,3130.666666,3131.0
3516,127,47.0,0.8,3131.0,3132.0
3517,127,46.0,0.0,3132.0,3133.0
3518,127,45.0,0.8,3133.0,3133.333333
3519,127,43.0,0.0,3133.333333,3134.0
3520,127,46.0,0.1,3134.0,3134.666666
3521,127,48.0,0.5,3134.666666,3135.0
3522,127,45.0,0.4,3135.0,3136.0
3523,127,41.0,0.0,3136.0,3137.0
3524,127,45.0,0.0,3137.0,3137.333333
3525,127,47.0,0.9,3137.333333,3138.666666
3526,127,45.0,0.0,3138.666666,3140.0
3527,127,40.0,0.0,3140.0,3141.333333
3528,127,45.0,0.8,3141.333333,3142.0
3529,127,48.0,0.5,3142.0,3143.0
3530,127,50.0,0.6,3143.0,3144.0
3531,127,53.0,0.0,3144.0,3145.0
3532,127,47.0,0.5,3145.0,3146.0
3533,127,52.0,0.7,3146.0,3147.0
3534,127,55.0,0.0,3147.0,3148.0
3535,127,53.0,0.0,3148.0,3149.0
3536,127,50.0,0.6,3149.0,3150.0
3537,127,47.0,0.8,3150.0,3150.666666
3538,127,52.0,0.6,3150.666666,3151.0
3539,127,53.0,0.0,3151.0,3152.0
3540,127,55.0,0.0,3152.0,3153.0
3541,127,53.0,0.6,3153.0,3153.333333
3542,127,56.0,0.0,3153.333333,3154.0
3543,127,57.0,0.0,3154.0,3154.666666
3544,127,53.0,0.0,3154.666666,3155.0
3545,127,58.0,0.1,3155.0,3156.0
3546,127,62.0,0.3,3156.0,3157.0
3547,127,65.0,0.0,3157.0,3157.333333
3548,127,67.0,0.1,3157.333333,3158.0
3549,127,65.0,0.3,3158.0,3161.0
3550,127,67.0,0.4,3161.0,3161.333333
3551,127,62.0,0.2,3161.333333,3163.0
3552,127,64.0,0.6,3163.0,3164.0
3553,127,69.0,0.4,3164.0,3168.0
3554,127,67.0,0.1,3168.0,3169.333333
3555,127,69.0,0.0,3169.333333,3170.0
3556,127,68.0,0.5,3170.0,3170.666666
3557,127,65.0,0.0,3170.666666,3171.0
3558,127,62.0,0.2,3171.0,3172.0
3559,127,59.0,0.0,3172.0,3173.0
3560,127,57.0,0.5,3173.0,3173.333333
3561,127,53.0,0.3,3173.333333,3174.0
3562,127,57.0,0.4,3174.0,3175.0
3563,127,55.0,0.0,3175.0,3177.0
3564,127,57.0,0.0,3177.0,3177.333333
3565,127,53.0,0.0,3177.333333,3178.0
3566,127,57.0,0.5,3178.0,3178.666666
3567,127,56.0,0.0,3178.666666,3179.0
3568,127,59.0,0.8,3179.0,3180.0
3569,127,55.0,0.0,3180.0,3181.333333
3570,127,56.0,0.0,3181.333333,3182.0
3571,127,59.0,0.9,3182.0,3182.666666
3572,127,57.0,0.4,3182.666666,3183.0
3573,127,62.0,0.0,3183.0,3184.0
3574,127,58.0,0.0,3184.0,3185.0
3575,127,52.0,0.0,3185.0,3185.333333
3576,127,53.0,0.0,3185.333333,3186.0
3577,127,48.0,0.5,3186.0,3186.666666
3578,127,43.0,0.0,3186.666666,3187.0
3579,127,45.0,0.4,3187.0,3188.0
3580,127,50.0,0.4,3188.0,3189.333333
3581,127,44.0,0.0,3189.333333,3190.0
3582,127,43.0,0.0,3190.0,3190.666666
3583,127,38.0,0.0,3190.666666,3191.0
3584,127,40.0,0.4,3191.0,3192.0
3585,127,41.0,0.0,3192.0,3193.333333
3586,127,43.0,0.0,3193.333333,3194.0
3587,127,47.0,0.9,3194.0,3194.666666
3588,127,43.0,0.7,3194.666666,3196.0
3589,127,44.0,0.0,3196.0,3197.0
3590,127,40.0,0.7,3197.0,3197.333333
3591,127,38.0,0.3,3197.333333,3198.0
3592,127,41.0,0.0,3198.0,3199.0
3593,127,40.0,0.0,3200.0,3201.0
3594,127,36.0,0.5,3201.0,3201.333333
3595,127,38.0,0.0,3201.333333,3202.0
3596,127,41.0,0.0,3202.0,3202.666666
3597,127,44.0,0.0,3202.666666,3203.0
3598,127,43.0,0.0,3203.0,3205.0
3599,127,41.0,0.0,3205.0,3205.333333
3600,127,44.0,0.0,3205.333333,3206.0
3601,127,43.0,0.0,3206.0,3209.333333
3602,127,46.0,0.4,3210.0,3210.666666
3603,127,44.0,0.0,3210.666666,3211.0
3604,127,45.0,0.4,3211.0,3212.0
3605,127,43.0,0.0,3212.0,3213.0
3606,127,38.0,0.3,3213.0,3213.333333
3607,127,40.0,0.0,3213.333333,3214.0
3608,127,38.0,0.6,3214.0,3214.666666
3609,127,33.0,0.4,3214.666666,3215.0
3610,127,38.0,0.2,3215.0,3216.0
3611,127,41.0,0.0,3216.0,3217.0
3612,127,45.0,0.0,3217.0,3217.333333
3613,127,48.0,0.2,3217.333333,3218.666666
3614,127,47.0,0.9,3218.666666,3220.0
3615,127,43.0,0.0,3220.0,3222.0
3616,127,41.0,0.0,3222.0,3222.666666
3617,127,45.0,0.0,3222.666666,3223.0
3618,127,43.0,0.1,3223.0,3224.0
3619,127,46.0,0.0,3224.0,3225.0
3620,127,40.0,0.0,3225.0,3225.333333
3621,127,35.0,0.8,3225.333333,3226.0
3622,127,41.0,0.0,3226.0,3226.666666
3623,127,40.0,0.0,3226.666666,3227.0
3624,127,38.0,0.2,3227.0,3228.0
3625,127,39.0,0.2,3228.0,3229.0
3626,127,43.0,0.1,3229.0,3229.333333
3627,127,45.0,0.4,3229.333333,3230.0
3628,127,46.0,0.0,3230.0,3230.666666
3629,127,43.0,0.4,3230.666666,3231.0
3630,127,45.0,0.5,3231.0,3232.0
3631,127,43.0,0.0,3232.0,3233.0
3632,127,46.0,0.1,3233.0,3233.333333
3633,127,47.0,0.5,3233.333333,3234.0
3634,127,45.0,0.0,3234.0,3235.0
3635,127,40.0,0.6,3235.0,3236.0
3636,127,41.0,0.2,3236.0,3237.0
3637,127,45.0,0.5,3237.0,3237.333333
3638,127,46.0,0.1,3237.333333,3238.0
3639,127,45.0,0.8,3238.0,3238.666666
3640,127,43.0,0.4,3238.666666,3240.0
3641,127,40.0,0.0,3240.0,3241.0
3642,127,34.0,0.4,3241.0,3241.333333
3643,127,29.0,0.0,3241.333333,3243.0
3644,127,28.0,0.6,3243.0,3245.333333
3645,127,33.0,0.0,3245.333333,3246.0
3646,127,34.0,0.0,3246.0,3246.666666
3647,127,40.0,0.6,3246.666666,3248.0
3648,127,41.0,0.6,3248.0,3250.0
3649,127,43.0,0.0,3250.0,3250.666666
3650,127,47.0,0.8,3250.666666,3252.0
3651,127,43.0,0.7,3252.0,3253.0
3652,127,48.0,0.2,3253.0,3253.333333
3653,127,52.0,0.0,3253.333333,3254.0
3654,127,48.0,0.5,3254.0,3254.666666
3655,127,50.0,0.6,3254.666666,3255.0
3656,127,52.0,0.6,3255.0,3256.0
3657,127,55.0,0.4,3256.0,3257.0
3658,127,57.0,0.0,3257.0,3257.333333
3659,127,52.0,0.6,3257.333333,3258.0
3660,127,48.0,0.2,3258.0,3259.0
3661,127,45.0,0.4,3259.0,3260.0
3662,127,46.0,0.0,3260.0,3262.0
3663,127,44.0,0.0,3262.0,3263.0
3664,127,41.0,0.0,3263.0,3264.0
3665,127,36.0,0.5,3264.0,3265.333333
3666,127,31.0,0.4,3266.0,3266.666666
3667,127,28.0,0.0,3266.666666,3267.0
3668,127,23.0,0.8,3267.0,3268.0
3669,127,19.0,0.0,3268.0,3269.0
3670,127,17.0,0.0,3269.0,3269.333333
3671,127,20.0,0.0,3269.333333,3270.0
3672,127,17.0,0.3,3270.0,3270.666666
3673,127,12.0,0.5,3270.666666,3271.0
3674,127,7.0,0.4,3271.0,3272.0
3675,127,12.0,0.2,3272.0,3273.0
3676,127,8.0,0.0,3273.0,3273.333333
3677,127,7.0,0.0,3273.333333,3274.0
3678,127,9.0,0.8,3274.0,3274.666666
3679,127,5.0,0.0,3274.666666,3275.0
3680,127,2.0,0.2,3275.0,3276.0
3681,127,-3.0,0.0,3276.0,3277.0
3682,127,-5.0,0.4,3277.0,3277.333333
3683,127,-10.0,0.6,3277.333333,3278.0
3684,127,-5.0,0.7,3278.0,3278.666666
3685,127,-3.0,0.4,3278.666666,3280.0
3686,127,-4.0,0.0,3280.0,3282.0
3687,127,-5.0,0.1,3282.0,3282.666666
3688,127,-7.0,0.0,3282.666666,3283.0
3689,127,-10.0,0.2,3283.0,3284.0
3690,127,-4.0,0.0,3284.0,3285.0
3691,127,-3.0,0.0,3285.0,3285.333333
3692,127,-5.0,0.4,3285.333333,3286.0
3693,127,-2.0,0.0,3286.0,3286.666666
3694,127,4.0,0.0,3286.666666,3288.0
3695,127,5.0,0.0,3288.0,3289.333333
3696,127,11.0,0.8,3289.333333,3290.0
3697,127,16.0,0.0,3290.0,3290.666666
3698,127,21.0,0.0,3290.666666,3291.0
3699,127,16.0,0.6,3291.0,3292.0
3700,127,19.0,0.0,3292.0,3293.0
3701,127,21.0,0.8,3293.0,3293.333333
3702,127,22.0,0.1,3293.333333,3294.666666
3703,127,17.0,0.6,3294.666666,3295.0
3704,127,19.0,0.0,3295.0,3296.0
3705,127,17.0,0.0,3296.0,3297.0
3706,127,21.0,0.0,3297.0,3298.0
3707,127,19.0,0.0,3299.0,3300.0
3708,127,14.0,0.0,3300.0,3301.333333
3709,127,17.0,0.3,3301.333333,3302.0
3710,127,19.0,0.0,3302.0,3303.0
3711,127,14.0,0.6,3303.0,3304.0
3712,127,17.0,0.0,3304.0,3305.0
3713,127,23.0,0.5,3305.0,3306.0
3714,127,29.0,0.3,3306.0,3306.666666
3715,127,28.0,0.0,3306.666666,3307.0
3716,127,33.0,0.4,3307.0,3308.0
3717,127,29.0,0.0,3308.0,3309.0
3718,127,26.0,0.6,3309.0,3309.333333
3719,127,31.0,0.4,3309.333333,3310.666666
3720,127,26.0,0.2,3310.666666,3311.0
3721,127,29.0,0.0,3311.0,3312.0
3722,127,27.0,0.2,3312.0,3313.0
3723,127,29.0,0.6,3313.0,3313.333333
3724,127,33.0,0.0,3313.333333,3314.666666
3725,127,34.0,0.0,3314.666666,3315.0
3726,127,35.0,0.6,3315.0,3316.0
3727,127,36.0,0.8,3316.0,3317.0
3728,127,41.0,0.0,3317.0,3317.333333
3729,127,43.0,0.1,3317.333333,3318.0
3730,127,41.0,0.3,3318.0,3319.0
3731,127,43.0,0.0,3320.0,3321.333333
3732,127,40.0,0.6,3321.333333,3322.666666
3733,127,45.0,0.5,3322.666666,3323.0
3734,127,47.0,0.8,3323.0,3324.0
3735,127,53.0,0.0,3324.0,3325.0
3736,127,59.0,0.5,3325.0,3325.333333
3737,127,53.0,0.3,3325.333333,3326.0
3738,127,58.0,0.0,3326.0,3326.666666
3739,127,52.0,0.6,3326.666666,3328.0
3740,127,57.0,0.5,3328.0,3330.0
3741,127,56.0,0.5,3330.0,3331.0
3742,127,62.0,0.2,3331.0,3332.0
3743,127,67.0,0.0,3332.0,3333.0
3744,127,69.0,0.5,3333.0,3333.333333
3745,127,68.0,0.0,3333.333333,3334.0
3746,127,69.0,0.8,3334.0,3336.0
3747,127,67.0,0.0,3336.0,3337.333333
3748,127,71.0,0.6,3337.333333,3338.0
3749,127,72.0,0.5,3338.0,3338.666666
3750,127,68.0,0.0,3338.666666,3339.0
3751,127,64.0,0.6,3339.0,3340.0
3752,127,59.0,0.4,3340.0,3341.333333
3753,127,57.0,0.5,3341.333333,3342.0
3754,127,58.0,0.1,3342.0,3342.666666
3755,127,57.0,0.4,3342.666666,3343.0
3756,127,62.0,0.0,3343.0,3344.0
3757,127,57.0,0.6,3344.0,3345.0
3758,127,52.0,0.0,3345.0,3346.0
3759,127,57.0,0.5,3346.0,3346.666666
3760,127,60.0,0.5,3346.666666,3347.0
3761,127,55.0,0.0,3347.0,3348.0
3762,127,50.0,0.0,3348.0,3349.333333
3763,127,47.0,0.9,3349.333333,3350.0
3764,127,50.0,0.2,3350.0,3351.0
3765,127,52.0,0.4,3351.0,3352.0
3766,127,57.0,0.0,3352.0,3353.0
3767,127,53.0,0.0,3353.0,3353.333333
3768,127,47.0,0.8,3353.333333,3354.0
3769,127,46.0,0.1,3354.0,3354.666666
3770,127,45.0,0.5,3354.666666,3356.0
3771,127,48.0,0.2,3356.0,3357.0
3772,127,52.0,0.7,3357.0,3357.333333
3773,127,57.0,0.4,3357.333333,3358.0
3774,127,53.0,0.0,3358.0,3359.0
3775,127,55.0,0.0,3360.0,3361.0
3776,127,53.0,0.0,3361.0,3361.333333
3777,127,50.0,0.9,3361.333333,3362.0
3778,127,45.0,0.5,3362.0,3364.0
3779,127,47.0,0.4,3364.0,3365.0
3780,127,50.0,0.6,3365.0,3365.333333
3781,127,47.0,0.9,3365.333333,3366.0
3782,127,46.0,0.0,3366.0,3366.666666
3783,127,47.0,0.5,3366.666666,3368.0
3784,127,46.0,0.0,3368.0,3369.333333
3785,127,43.0,0.0,3370.0,3370.666666
3786,127,41.0,0.0,3370.666666,3371.0
3787,127,47.0,0.8,3371.0,3372.0
3788,127,46.0,0.0,3372.0,3373.0
3789,127,41.0,0.0,3373.0,3373.333333
3790,127,40.0,0.0,3373.333333,3374.666666
3791,127,38.0,0.2,3374.666666,3375.0
3792,127,35.0,0.8,3375.0,3376.0
3793,127,36.0,0.4,3376.0,3377.0
3794,127,33.0,0.0,3377.0,3377.333333
3795,127,28.0,0.7,3377.333333,3378.666666
3796,127,29.0,0.0,3378.666666,3379.0
3797,127,26.0,0.2,3379.0,3381.333333
3798,127,31.0,0.4,3381.333333,3382.0
3799,127,26.0,0.3,3382.0,3382.666666
3800,127,21.0,0.0,3382.666666,3383.0
3801,127,22.0,0.4,3383.0,3385.0
3802,127,23.0,0.5,3385.0,3385.333333
3803,127,28.0,0.6,3385.333333,3386.0
3804,127,31.0,0.7,3386.0,3386.666666
3805,127,33.0,0.4,3386.666666,3387.0
3806,127,28.0,0.6,3387.0,3388.0
3807,127,31.0,0.4,3388.0,3389.0
3808,127,36.0,0.2,3389.0,3389.333333
3809,127,31.0,0.4,3389.333333,3390.0
3810,127,36.0,0.5,3390.0,3390.666666
3811,127,33.0,0.5,3390.666666,3391.0
3812,127,32.0,0.0,3391.0,3392.0
3813,127,29.0,0.0,3392.0,3393.0
3814,127,31.0,0.4,3393.0,3393.333333
3815,127,32.0,0.5,3393.333333,3394.0
3816,127,33.0,0.0,3394.0,3394.666666
3817,127,29.0,0.0,3394.666666,3395.0
3818,127,31.0,0.0,3395.0,3396.0
3819,127,32.0,0.0,3396.0,3397.0
3820,127,33.0,0.8,3397.0,3397.333333
3821,127,32.0,0.0,3397.333333,3398.0
3822,127,31.0,0.0,3398.0,3398.666666
3823,127,33.0,0.5,3398.666666,3400.0
3824,127,28.0,0.0,3400.0,3401.0
3825,127,31.0,0.1,3401.0,3401.333333
3826,127,35.0,0.9,3401.333333,3402.666666
3827,127,36.0,0.2,3402.666666,3403.0
3828,127,31.0,0.0,3403.0,3404.0
3829,127,29.0,0.0,3404.0,3405.0
3830,127,26.0,0.9,3405.0,3405.333333
3831,127,28.0,0.7,3405.333333,3406.0
3832,127,34.0,0.0,3406.0,3406.666666
3833,127,29.0,0.0,3406.666666,3409.0
3834,127,35.0,0.9,3409.333333,3410.0
3835,127,40.0,0.0,3410.0,3410.666666
3836,127,36.0,0.2,3410.666666,3411.0
3837,127,40.0,0.6,3411.0,3412.0
3838,127,45.0,0.8,3412.0,3413.0
3839,127,41.0,0.3,3413.0,3413.333333
3840,127,40.0,0.0,3413.333333,3414.0
3841,127,41.0,0.0,3414.0,3414.666666
3842,127,36.0,0.5,3414.666666,3415.0
3843,127,35.0,0.8,3415.0,3416.0
3844,127,33.0,0.0,3416.0,3418.0
3845,127,38.0,0.9,3418.0,3418.666666
3846,127,34.0,0.4,3418.666666,3419.0
3847,127,38.0,0.2,3419.0,3420.0
3848,127,43.0,0.0,3420.0,3421.333333
3849,127,46.0,0.0,3421.333333,3422.0
3850,127,48.0,0.5,3422.0,3424.0
3851,127,43.0,0.0,3424.0,3425.0
3852,127,44.0,0.5,3425.0,3426.0
3853,127,47.0,0.9,3426.0,3426.666666
3854,127,45.0,0.0,3426.666666,3427.0
3855,127,47.0,0.8,3427.0,3428.0
3856,127,45.0,0.0,3428.0,3429.0
3857,127,48.0,0.5,3429.0,3429.333333
3858,127,45.0,0.4,3429.333333,3430.0
3859,127,41.0,0.0,3430.0,3430.666666
3860,127,38.0,0.3,3430.666666,3431.0
3861,127,34.0,0.1,3431.0,3432.0
3862,127,36.0,0.5,3432.0,3433.0
3863,127,33.0,0.5,3433.0,3433.333333
3864,127,35.0,0.8,3433.333333,3434.0
3865,127,36.0,0.5,3434.0,3434.666666
3866,127,41.0,0.0,3434.666666,3435.0
3867,127,45.0,0.4,3435.0,3437.0
3868,127,46.0,0.1,3437.0,3438.0
3869,127,45.0,0.8,3438.0,3438.666666
3870,127,50.0,0.2,3438.666666,3440.0
3871,127,52.0,0.0,3440.0,3441.0
3872,127,57.0,0.5,3441.0,3442.0
3873,127,59.0,0.6,3442.0,3442.666666
3874,127,65.0,0.0,3442.666666,3443.0
3875,127,69.0,0.4,3443.0,3444.0
3876,127,67.0,0.1,3444.0,3446.0
3877,127,70.0,0.0,3446.0,3446.666666
3878,127,64.0,0.0,3446.666666,3448.0
3879,127,65.0,0.0,3448.0,3449.333333
3880,127,64.0,0.6,3449.333333,3451.0
3881,127,67.0,0.0,3451.0,3452.0
3882,127,65.0,0.0,3452.0,3453.0
3883,127,67.0,0.7,3453.0,3453.333333
3884,127,65.0,0.3,3453.333333,3454.0
3885,127,67.0,0.4,3454.0,3454.666666
3886,127,69.0,0.5,3454.666666,3455.0
3887,127,74.0,0.2,3455.0,3456.0
3888,127,77.0,0.0,3456.0,3457.0
3889,127,81.0,0.0,3457.0,3457.333333
3890,127,82.0,0.1,3457.333333,3458.666666
3891,127,81.0,0.0,3458.666666,3459.0
3892,127,76.0,0.6,3459.0,3460.0
3893,127,79.0,0.0,3460.0,3461.333333
3894,127,80.0,0.0,3461.333333,3462.0
3895,127,77.0,0.0,3462.0,3462.666666
3896,127,81.0,0.5,3462.666666,3463.0
3897,127,86.0,0.9,3463.0,3464.0
3898,127,81.0,0.0,3464.0,3465.0
3899,127,76.0,0.0,3465.0,3466.0
3900,127,81.0,0.8,3466.0,3466.666666
3901,127,76.0,0.0,3466.666666,3467.0
3902,127,74.0,0.2,3467.0,3468.0
3903,127,69.0,0.4,3468.0,3469.0
3904,127,74.0,0.9,3469.0,3470.0
3905,127,77.0,0.0,3470.0,3470.666666
3906,127,79.0,0.0,3470.666666,3471.0
3907,127,84.0,0.5,3471.0,3472.0
3908,127,79.0,0.1,3472.0,3473.0
3909,127,83.0,0.9,3473.0,3473.333333
3910,127,79.0,0.4,3473.333333,3474.0
3911,127,81.0,0.0,3474.0,3474.666666
3912,127,82.0,0.0,3474.666666,3475.0
3913,127,83.0,0.8,3475.0,3476.0
3914,127,77.0,0.0,3476.0,3477.0
3915,127,72.0,0.5,3477.0,3477.333333
3916,127,68.0,0.0,3477.333333,3478.0
3917,127,72.0,0.2,3478.0,3479.0
3918,127,71.0,0.0,3480.0,3481.333333
3919,127,76.0,0.6,3481.333333,3482.666666
3920,127,74.0,0.3,3482.666666,3483.0
3921,127,71.0,0.8,3483.0,3484.0
3922,127,67.0,0.1,3484.0,3485.0
3923,127,69.0,0.0,3485.0,3486.0
3924,127,65.0,0.0,3486.0,3486.666666
3925,127,59.0,0.8,3486.666666,3488.0
3926,127,57.0,0.4,3488.0,3490.0
3927,127,53.0,0.0,3490.0,3490.666666
3928,127,48.0,0.2,3490.666666,3491.0
3929,127,45.0,0.4,3491.0,3492.0
3930,127,46.0,0.2,3492.0,3493.0
3931,127,45.0,0.8,3493.0,3493.333333
3932,127,48.0,0.2,3493.333333,3494.0
3933,127,43.0,0.0,3494.0,3495.0
3934,127,40.0,0.6,3495.0,3496.0
3935,127,43.0,0.0,3496.0,3497.0
3936,127,45.0,0.0,3497.0,3497.333333
3937,127,41.0,0.0,3497.333333,3499.0
3938,127,43.0,0.0,3499.0,3500.0
3939,127,44.0,0.0,3500.0,3501.333333
3940,127,43.0,0.4,3501.333333,3502.666666
3941,127,47.0,0.8,3502.666666,3503.0
3942,127,41.0,0.0,3503.0,3504.0
3943,127,45.0,0.0,3504.0,3505.0
3944,127,44.0,0.5,3505.0,3505.333333
3945,127,41.0,0.0,3505.333333,3506.0
3946,127,38.0,0.0,3506.0,3506.666666
3947,127,34.0,0.0,3506.666666,3507.0
3948,127,40.0,0.6,3507.0,3508.0
3949,127,43.0,0.4,3508.0,3509.0
3950,127,41.0,0.0,3509.0,3509.333333
3951,127,36.0,0.8,3509.333333,3510.0
3952,127,31.0,0.4,3510.0,3510.666666
3953,127,32.0,0.0,3510.666666,3511.0
3954,127,38.0,0.6,3511.0,3512.0
3955,127,33.0,0.4,3512.0,3513.0
3956,127,38.0,0.0,3513.0,3513.333333
3957,127,33.0,0.4,3513.333333,3514.0
3958,127,38.0,0.6,3514.0,3514.666666
3959,127,33.0,0.5,3514.666666,3516.0
3960,127,31.0,0.3,3516.0,3517.0
3961,127,26.0,0.6,3517.0,3517.333333
3962,127,31.0,0.7,3517.333333,3518.0
3963,127,26.0,0.3,3518.0,3519.0
3964,127,28.0,0.0,3520.0,3521.0
3965,127,26.0,0.0,3521.0,3521.333333
3966,127,32.0,0.0,3521.333333,3522.666666
3967,127,31.0,0.1,3522.666666,3523.0
3968,127,26.0,0.2,3523.0,3524.0
3969,127,21.0,0.0,3524.0,3525.0
3970,127,20.0,0.5,3525.0,3525.333333
3971,127,22.0,0.4,3525.333333,3526.0
3972,127,21.0,0.4,3526.0,3529.333333
3973,127,16.0,0.0,3530.0,3530.666666
3974,127,17.0,0.0,3530.666666,3531.0
3975,127,23.0,0.8,3531.0,3532.0
3976,127,22.0,0.0,3532.0,3533.0
3977,127,24.0,0.2,3533.0,3533.333333
3978,127,28.0,0.0,3533.333333,3534.0
3979,127,23.0,0.9,3534.0,3534.666666
3980,127,19.0,0.0,3534.666666,3536.0
3981,127,21.0,0.1,3536.0,3538.666666
3982,127,22.0,0.1,3538.666666,3539.0
3983,127,21.0,0.4,3539.0,3540.0
3984,127,16.0,0.0,3540.0,3541.333333
3985,127,17.0,0.0,3541.333333,3542.0
3986,127,21.0,0.5,3542.0,3543.0
3987,127,19.0,0.4,3543.0,3544.0
3988,127,22.0,0.0,3544.0,3545.0
3989,127,21.0,0.5,3545.0,3545.333333
3990,127,16.0,0.6,3545.333333,3546.0
3991,127,12.0,0.2,3546.0,3546.666666
3992,127,16.0,0.0,3546.666666,3547.0
3993,127,19.0,0.0,3547.0,3548.0
3994,127,20.0,0.0,3548.0,3549.0
3995,127,19.0,0.4,3549.0,3549.333333
3996,127,24.0,0.5,3549.333333,3550.0
3997,127,21.0,0.4,3550.0,3550.666666
3998,127,26.0,0.6,3550.666666,3551.0
3999,127,29.0,0.0,3551.0,3552.0
4000,127,33.0,0.2,3552.0,3553.0
4001,127,28.0,0.4,3553.0,3553.333333
4002,127,33.0,0.5,3553.333333,3554.666666
4003,127,29.0,0.3,3554.666666,3555.0
4004,127,35.0,0.9,3555.0,3556.0
4005,127,38.0,0.2,3556.0,3557.0
4006,127,41.0,0.0,3557.0,3558.0
4007,127,38.0,0.2,3558.0,3560.0
4008,127,33.0,0.0,3560.0,3561.0
4009,127,38.0,0.6,3561.0,3561.333333
4010,127,41.0,0.0,3561.333333,3562.666666
4011,127,35.0,0.9,3562.666666,3563.0
4012,127,40.0,0.6,3563.0,3564.0
4013,127,41.0,0.5,3564.0,3565.0
4014,127,36.0,0.5,3565.0,3565.333333
4015,127,33.0,0.0,3565.333333,3566.0
4016,127,31.0,0.4,3566.0,3566.666666
4017,127,35.0,0.8,3566.666666,3568.0
4018,127,31.0,0.0,3568.0,3569.333333
4019,127,29.0,0.0,3569.333333,3570.0
4020,127,31.0,0.4,3570.0,3570.666666
4021,127,29.0,0.3,3570.666666,3571.0
4022,127,26.0,0.2,3571.0,3572.0
4023,127,24.0,0.2,3572.0,3573.333333
4024,127,23.0,0.5,3573.333333,3574.0
4025,127,24.0,0.2,3574.0,3574.666666
4026,127,19.0,0.4,3574.666666,3575.0
4027,127,21.0,0.4,3575.0,3576.0
4028,127,22.0,0.1,3576.0,3577.0
4029,127,21.0,0.0,3577.0,3577.333333
4030,127,23.0,0.8,3577.333333,3578.0
4031,127,19.0,0.4,3578.0,3578.666666
4032,127,21.0,0.5,3578.666666,3579.0
4033,127,23.0,0.8,3579.0,3580.0
4034,127,21.0,0.0,3580.0,3581.333333
4035,127,22.0,0.0,3581.333333,3582.0
4036,127,17.0,0.0,3582.0,3583.0
4037,127,20.0,0.0,3583.0,3584.0
4038,127,21.0,0.4,3584.0,3585.0
4039,127,16.0,0.0,3585.0,3586.666666
4040,127,20.0,0.5,3586.666666,3587.0
4041,127,21.0,0.4,3587.0,3589.0
4042,127,19.0,0.7,3589.0,3589.333333
4043,127,22.0,0.1,3589.333333,3590.0
4044,127,19.0,0.0,3590.0,3590.666666
4045,127,21.0,0.5,3590.666666,3591.0
4046,127,17.0,0.6,3591.0,3592.0
4047,127,19.0,0.0,3592.0,3593.0
4048,127,17.0,0.0,3593.0,3594.666666
4049,127,20.0,0.0,3594.666666,3595.0
4050,127,19.0,0.0,3595.0,3596.0
4051,127,21.0,0.0,3596.0,3597.0
4052,127,17.0,0.3,3597.0,3597.333333
4053,127,12.0,0.5,3597.333333,3598.0
4054,127,17.0,0.0,3598.0,3598.666666
4055,127,19.0,0.0,3598.666666,3600.0
4056,127,20.0,0.0,3600.0,3601.0
4057,127,17.0,0.0,3601.0,3602.0
4058,127,14.0,0.6,3602.0,3602.666666
4059,127,10.0,0.1,3602.666666,3603.0
4060,127,7.0,0.0,3603.0,3604.0
4061,127,2.0,0.0,3604.0,3605.0
4062,127,0.0,0.5,3605.0,3606.0
4063,127,-5.0,0.0,3606.0,3606.666666
4064,127,-8.0,0.0,3606.666666,3608.0
4065,127,-5.0,0.1,3608.0,3609.333333
4066,127,-8.0,0.6,3609.333333,3610.0
4067,127,-5.0,0.0,3610.0,3610.666666
4068,127,-3.0,0.5,3610.666666,3612.0
4069,127,-5.0,0.3,3612.0,3613.0
4070,127,-7.0,0.0,3613.0,3613.333333
4071,127,-3.0,0.4,3613.333333,3614.0
4072,127,-7.0,0.3,3614.0,3614.666666
4073,127,-8.0,0.4,3614.666666,3615.0
4074,127,-3.0,0.4,3615.0,3617.333333
4075,127,-7.0,0.0,3617.333333,3618.666666
4076,127,-2.0,0.1,3618.666666,3619.0
4077,127,-1.0,0.8,3619.0,3620.0
4078,127,-4.0,0.0,3620.0,3621.333333
4079,127,-3.0,0.8,3621.333333,3622.0
4080,127,-5.0,0.7,3622.0,3622.666666
4081,127,-8.0,0.7,3622.666666,3623.0
4082,127,-13.0,0.6,3623.0,3624.0
4083,127,-7.0,0.0,3624.0,3625.0
4084,127,-1.0,0.5,3625.0,3626.0
4085,127,0.0,0.5,3626.0,3626.666666
4086,127,4.0,0.0,3626.666666,3627.0
4087,127,2.0,0.2,3627.0,3628.0
4088,127,5.0,0.0,3628.0,3629.0
4089,127,9.0,0.8,3629.0,3630.666666
4090,127,14.0,0.2,3630.666666,3632.0
4091,127,10.0,0.4,3632.0,3633.0
4092,127,14.0,0.6,3633.0,3633.333333
4093,127,16.0,0.0,3633.333333,3634.0
4094,127,21.0,0.0,3634.0,3635.0
4095,127,16.0,0.6,3635.0,3636.0
4096,127,19.0,0.4,3636.0,3637.0
4097,127,24.0,0.2,3637.0,3637.333333
4098,127,22.0,0.4,3637.333333,3638.0
4099,127,24.0,0.5,3638.0,3639.0
4100,127,19.0,0.0,3640.0,3641.0
4101,127,14.0,0.9,3641.0,3641.333333
4102,127,11.0,0.8,3641.333333,3642.666666
4103,127,10.0,0.0,3642.666666,3643.0
4104,127,16.0,0.6,3643.0,3644.0
4105,127,17.0,0.0,3644.0,3645.333333
4106,127,16.0,0.7,3645.333333,3646.0
4107,127,20.0,0.0,3646.0,3646.666666
4108,127,16.0,0.6,3646.666666,3648.0
4109,127,17.0,0.0,3648.0,3649.333333
4110,127,21.0,0.0,3649.333333,3650.0
4111,127,16.0,0.0,3650.0,3651.0
4112,127,19.0,0.0,3651.0,3652.0
4113,127,20.0,0.0,3652.0,3653.0
4114,127,16.0,0.7,3653.0,3653.333333
4115,127,21.0,0.0,3653.333333,3654.0
4116,127,17.0,0.0,3654.0,3655.0
4117,127,23.0,0.8,3655.0,3656.0
4118,127,19.0,0.4,3656.0,3657.0
4119,127,21.0,0.0,3657.0,3657.333333
4120,127,22.0,0.4,3657.333333,3658.0
4121,127,19.0,0.7,3658.0,3659.0
4122,127,21.0,0.4,3659.0,3661.333333
4123,127,19.0,0.7,3661.333333,3662.0
4124,127,17.0,0.6,3662.0,3662.666666
4125,127,19.0,0.0,3662.666666,3663.0
4126,127,21.0,0.5,3663.0,3664.0
4127,127,24.0,0.4,3664.0,3665.0
4128,127,20.0,0.5,3665.0,3665.333333
4129,127,24.0,0.2,3665.333333,3666.0
4130,127,29.0,0.0,3666.0,3666.666666
4131,127,33.0,0.4,3666.666666,3667.0
4132,127,35.0,0.8,3667.0,3668.0
4133,127,41.0,0.0,3668.0,3669.0
4134,127,45.0,0.5,3669.0,3669.333333
4135,127,41.0,0.0,3669.333333,3670.0
4136,127,45.0,0.4,3670.0,3670.666666
4137,127,43.0,0.4,3670.666666,3671.0
4138,127,47.0,0.9,3671.0,3672.0
4139,127,45.0,0.0,3672.0,3673.0
4140,127,48.0,0.5,3673.0,3673.333333
4141,127,52.0,0.4,3673.333333,3674.0
4142,127,53.0,0.3,3674.0,3675.0
4143,127,50.0,0.2,3675.0,3676.0
4144,127,45.0,0.0,3676.0,3677.0
4145,127,47.0,0.9,3677.0,3677.333333
4146,127,45.0,0.5,3677.333333,3678.0
4147,127,48.0,0.2,3678.0,3679.0
4148,127,45.0,0.0,3680.0,3681.0
4149,127,48.0,0.5,3681.0,3681.333333
4150,127,43.0,0.1,3681.333333,3682.0
4151,127,41.0,0.0,3682.0,3683.0
4152,127,38.0,0.2,3683.0,3684.0
4153,127,40.0,0.6,3684.0,3685.0
4154,127,45.0,0.0,3685.0,3685.333333
4155,127,41.0,0.0,3685.333333,3686.0
4156,127,45.0,0.4,3686.0,3687.0
4157,127,46.0,0.0,3688.0,3689.333333
4158,127,47.0,0.5,3690.0,3690.666666
4159,127,41.0,0.0,3690.666666,3691.0
4160,127,40.0,0.6,3691.0,3692.0
4161,127,46.0,0.0,3692.0,3693.0
4162,127,50.0,0.3,3693.0,3693.333333
4163,127,52.0,0.0,3693.333333,3694.0
4164,127,50.0,0.6,3694.0,3696.0
4165,127,48.0,0.0,3696.0,3697.0
4166,127,45.0,0.0,3697.0,3697.333333
4167,127,41.0,0.3,3697.333333,3699.0
4168,127,43.0,0.0,3699.0,3700.0
4169,127,38.0,0.0,3700.0,3701.333333
4170,127,36.0,0.5,3701.333333,3702.0
4171,127,41.0,0.0,3702.0,3702.666666
4172,127,45.0,0.0,3702.666666,3703.0
4173,127,43.0,0.1,3703.0,3704.0
4174,127,38.0,0.0,3704.0,3705.0
4175,127,40.0,0.0,3705.0,3705.333333
4176,127,35.0,0.8,3705.333333,3706.0
4177,127,41.0,0.0,3706.0,3707.0
4178,127,45.0,0.4,3707.0,3708.0
4179,127,41.0,0.3,3708.0,3709.0
4180,127,43.0,0.1,3709.0,3709.333333
4181,127,48.0,0.5,3709.333333,3710.0
4182,127,53.0,0.0,3710.0,3711.0
4183,127,57.0,0.5,3711.0,3712.0
4184,127,62.0,0.9,3712.0,3713.0
4185,127,58.0,0.1,3713.0,3713.333333
4186,127,56.0,0.5,3713.333333,3714.0
4187,127,57.0,0.0,3714.0,3714.666666
4188,127,59.0,0.9,3714.666666,3715.0
4189,127,55.0,0.1,3715.0,3716.0
4190,127,57.0,0.4,3716.0,3718.666666
4191,127,60.0,0.5,3718.666666,3720.0
4192,127,64.0,0.0,3720.0,3721.0
4193,127,58.0,0.4,3721.0,3722.666666
4194,127,55.0,0.4,3722.666666,3723.0
4195,127,59.0,0.8,3723.0,3724.0
4196,127,55.0,0.5,3724.0,3725.0
4197,127,52.0,0.0,3725.0,3725.333333
4198,127,48.0,0.5,3725.333333,3726.0
4199,127,46.0,0.0,3726.0,3726.666666
4200,127,43.0,0.0,3726.666666,3728.0
4201,127,48.0,0.5,3728.0,3729.0
4202,127,46.0,0.1,3729.333333,3730.0
4203,127,45.0,0.8,3730.0,3731.0
4204,127,50.0,0.2,3731.0,3732.0
4205,127,48.0,0.5,3732.0,3733.333333
4206,127,52.0,0.0,3733.333333,3734.0
4207,127,48.0,0.5,3734.0,3734.666666
4208,127,45.0,0.5,3734.666666,3735.0
4209,127,40.0,0.6,3735.0,3736.0
4210,127,43.0,0.0,3736.0,3737.0
4211,127,45.0,0.0,3737.0,3737.333333
4212,127,43.0,0.0,3737.333333,3738.0
4213,127,45.0,0.8,3738.0,3738.666666
4214,127,44.0,0.0,3738.666666,3739.0
4215,127,40.0,0.6,3739.0,3740.0
4216,127,41.0,0.0,3740.0,3741.333333
4217,127,43.0,0.0,3741.333333,3742.0
4218,127,38.0,0.0,3742.0,3743.0
4219,127,41.0,0.0,3743.0,3745.0
4220,127,43.0,0.1,3745.0,3746.0
4221,127,38.0,0.6,3746.0,3747.0
4222,127,43.0,0.0,3747.0,3748.0
4223,127,44.0,0.0,3748.0,3749.0
4224,127,41.0,0.0,3749.0,3750.0
4225,127,47.0,0.8,3750.0,3750.666666
4226,127,43.0,0.7,3750.666666,3752.0
4227,127,48.0,0.4,3752.0,3753.0
4228,127,44.0,0.0,3753.0,3753.333333
4229,127,50.0,0.2,3753.333333,3754.0
4230,127,48.0,0.2,3754.0,3754.666666
4231,127,53.0,0.0,3754.666666,3755.0
4232,127,57.0,0.4,3755.0,3756.0
4233,127,58.0,0.0,3756.0,3757.0
4234,127,55.0,0.4,3757.0,3758.666666
4235,127,59.0,0.8,3758.666666,3760.0
4236,127,53.0,0.3,3760.0,3761.0
4237,127,56.0,0.0,3761.0,3762.0
4238,127,50.0,0.9,3762.0,3762.666666
4239,127,53.0,0.0,3762.666666,3763.0
4240,127,57.0,0.4,3763.0,3764.0
4241,127,58.0,0.4,3764.0,3765.333333
4242,127,52.0,0.4,3765.333333,3766.0
4243,127,46.0,0.0,3766.0,3766.666666
4244,127,52.0,0.0,3766.666666,3768.0
4245,127,57.0,0.8,3768.0,3769.333333
4246,127,62.0,0.2,3769.333333,3770.0
4247,127,64.0,0.0,3770.0,3770.666666
4248,127,69.0,0.5,3770.666666,3771.0
4249,127,71.0,0.8,3771.0,3772.0
4250,127,68.0,0.0,3772.0,3773.0
4251,127,69.0,0.8,3773.0,3774.0
4252,127,70.0,0.1,3774.0,3774.666666
4253,127,72.0,0.5,3774.666666,3775.0
4254,127,67.0,0.0,3775.0,3776.0
4255,127,65.0,0.0,3776.0,3777.0
4256,127,69.0,0.0,3777.0,3777.333333
4257,127,71.0,0.9,3777.333333,3778.666666
4258,127,69.0,0.0,3778.666666,3779.0
4259,127,74.0,0.2,3779.0,3780.0
4260,127,76.0,0.0,3780.0,3781.333333
4261,127,77.0,0.0,3781.333333,3782.0
4262,127,81.0,0.4,3782.0,3782.666666
4263,127,84.0,0.5,3782.666666,3783.0
4264,127,86.0,0.6,3783.0,3784.0
4265,127,82.0,0.2,3784.0,3785.0
4266,127,81.0,0.5,3785.0,3786.0
4267,127,76.0,0.7,3786.0,3788.0
4268,127,77.0,0.0,3788.0,3789.0
4269,127,74.0,0.6,3789.0,3790.0
4270,127,69.0,0.8,3790.0,3790.666666
4271,127,64.0,0.6,3790.666666,3791.0
4272,127,65.0,0.0,3791.0,3792.0
4273,127,67.0,0.1,3792.0,3793.0
4274,127,65.0,0.6,3793.0,3794.0
4275,127,69.0,0.0,3794.0,3794.666666
4276,127,65.0,0.0,3794.666666,3795.0
4277,127,67.0,0.0,3795.0,3797.0
4278,127,65.0,0.0,3797.0,3797.333333
4279,127,69.0,0.5,3797.333333,3798.0
4280,127,65.0,0.3,3798.0,3799.0
4281,127,64.0,0.0,3800.0,3801.0
4282,127,67.0,0.4,3801.0,3802.0
4283,127,68.0,0.0,3802.666666,3803.0
4284,127,67.0,0.0,3803.0,3804.0
4285,127,65.0,0.6,3804.0,3805.0
4286,127,70.0,0.4,3805.0,3805.333333
4287,127,69.0,0.5,3805.333333,3806.666666
4288,127,71.0,0.8,3806.666666,3808.0
4289,127,65.0,0.0,3808.0,3809.333333
4290,127,69.0,0.0,3809.333333,3810.0
4291,127,68.0,0.5,3810.0,3810.666666
4292,127,65.0,0.0,3810.666666,3811.0
4293,127,64.0,0.6,3811.0,3812.0
4294,127,65.0,0.0,3812.0,3813.0
4295,127,69.0,0.5,3813.0,3813.333333
4296,127,67.0,0.1,3813.333333,3814.0
4297,127,69.0,0.8,3814.0,3815.0
4298,127,67.0,0.0,3815.0,3816.0
4299,127,71.0,0.9,3816.0,3817.0
4300,127,69.0,0.0,3817.0,3817.333333
4301,127,65.0,0.0,3817.333333,3818.0
4302,127,69.0,0.5,3818.0,3818.666666
4303,127,63.0,0.2,3818.666666,3819.0
4304,127,62.0,0.2,3819.0,3820.0
4305,127,65.0,0.0,3820.0,3821.333333
4306,127,62.0,0.0,3821.333333,3822.0
4307,127,59.0,0.9,3822.0,3823.0
4308,127,62.0,0.0,3823.0,3824.0
4309,127,67.0,0.4,3824.0,3825.0
4310,127,64.0,0.0,3825.0,3825.333333
4311,127,65.0,0.0,3825.333333,3826.0
4312,127,60.0,0.5,3826.0,3826.666666
4313,127,57.0,0.4,3826.666666,3827.0
4314,127,59.0,0.8,3827.0,3828.0
4315,127,62.0,0.3,3828.0,3829.333333
4316,127,67.0,0.7,3829.333333,3830.0
4317,127,70.0,0.0,3830.0,3830.666666
4318,127,74.0,0.0,3830.666666,3831.0
4319,127,76.0,0.4,3831.0,3832.0
4320,127,77.0,0.0,3832.0,3833.333333
4321,127,74.0,0.2,3833.333333,3834.0
4322,127,71.0,0.9,3834.0,3834.666666
4323,127,74.0,0.3,3834.666666,3835.0
4324,127,69.0,0.4,3835.0,3836.0
4325,127,70.0,0.4,3836.0,3837.0
4326,127,64.0,0.7,3837.0,3837.333333
4327,127,62.0,0.3,3837.333333,3838.0
4328,127,65.0,0.0,3838.0,3839.0
4329,127,64.0,0.0,3840.0,3841.0
4330,127,65.0,0.0,3841.0,3841.333333
4331,127,62.0,0.0,3841.333333,3842.0
4332,127,60.0,0.5,3842.0,3843.0
4333,127,57.0,0.4,3843.0,3844.0
4334,127,53.0,0.0,3844.0,3845.333333
4335,127,56.0,0.0,3845.333333,3846.0
4336,127,58.0,0.0,3846.0,3846.666666
4337,127,57.0,0.0,3846.666666,3848.0
4338,127,59.0,0.4,3848.0,3849.333333
4339,127,55.0,0.0,3850.0,3850.666666
4340,127,58.0,0.4,3850.666666,3852.0
4341,127,56.0,0.0,3852.0,3853.0
4342,127,53.0,0.0,3853.0,3853.333333
4343,127,52.0,0.0,3853.333333,3856.0
4344,127,46.0,0.0,3856.0,3857.0
4345,127,45.0,0.0,3857.0,3857.333333
4346,127,48.0,0.2,3857.333333,3858.666666
4347,127,47.0,0.9,3858.666666,3859.0
4348,127,52.0,0.6,3859.0,3860.0
4349,127,47.0,0.4,3860.0,3861.333333
4350,127,45.0,0.5,3861.333333,3862.0
4351,127,47.0,0.8,3862.0,3862.666666
4352,127,45.0,0.0,3862.666666,3863.0
4353,127,46.0,0.4,3863.0,3865.0
4354,127,47.0,0.5,3865.0,3865.333333
4355,127,43.0,0.0,3865.333333,3866.0
4356,127,38.0,0.3,3866.0,3866.666666
4357,127,40.0,0.0,3866.666666,3867.0
4358,127,38.0,0.2,3867.0,3869.0
4359,127,36.0,0.2,3869.0,3869.333333
4360,127,31.0,0.0,3869.333333,3870.0
4361,127,36.0,0.5,3870.0,3870.666666
4362,127,31.0,0.4,3870.666666,3871.0
4363,127,32.0,0.0,3871.0,3872.0
4364,127,29.0,0.0,3872.0,3873.0
4365,127,31.0,0.4,3873.0,3873.333333
4366,127,35.0,0.5,3873.333333,3874.0
4367,127,33.0,0.0,3874.0,3874.666666
4368,127,36.0,0.2,3874.666666,3875.0
4369,127,35.0,0.8,3875.0,3876.0
4370,127,36.0,0.4,3876.0,3877.0
4371,127,33.0,0.8,3877.0,3877.333333
4372,127,34.0,0.4,3877.333333,3878.0
4373,127,33.0,0.4,3878.0,3878.666666
4374,127,31.0,0.4,3878.666666,3881.333333
4375,127,29.0,0.0,3881.333333,3882.666666
4376,127,33.0,0.5,3882.666666,3883.0
4377,127,35.0,0.8,3883.0,3884.0
4378,127,41.0,0.0,3884.0,3885.0
4379,127,45.0,0.0,3885.0,3886.0
4380,127,43.0,0.1,3886.0,3886.666666
4381,127,46.0,0.4,3886.666666,3888.0
4382,127,41.0,0.0,3888.0,3890.0
4383,127,40.0,0.0,3890.0,3891.0
4384,127,45.0,0.4,3891.0,3892.0
4385,127,41.0,0.0,3892.0,3893.333333
4386,127,40.0,0.0,3893.333333,3894.0
4387,127,41.0,0.0,3894.0,3894.666666
4388,127,38.0,0.6,3894.666666,3896.0
4389,127,41.0,0.3,3896.0,3897.0
4390,127,45.0,0.0,3897.0,3897.333333
4391,127,47.0,0.8,3897.333333,3898.0
4392,127,43.0,0.1,3898.0,3898.666666
4393,127,45.0,0.5,3898.666666,3899.0
4394,127,43.0,0.0,3899.0,3900.0
4395,127,44.0,0.0,3900.0,3901.333333
4396,127,43.0,0.4,3901.333333,3902.0
4397,127,45.0,0.5,3902.0,3903.0
4398,127,48.0,0.5,3903.0,3904.0
4399,127,45.0,0.0,3904.0,3905.0
4400,127,44.0,0.5,3905.0,3906.0
4401,127,46.0,0.1,3906.0,3906.666666
4402,127,41.0,0.0,3906.666666,3907.0
4403,127,40.0,0.6,3907.0,3908.0
4404,127,38.0,0.0,3908.0,3909.0
4405,127,36.0,0.5,3909.0,3909.333333
4406,127,33.0,0.8,3909.333333,3910.0
4407,127,29.0,0.0,3910.0,3910.666666
4408,127,24.0,0.5,3910.666666,3911.0
4409,127,22.0,0.1,3911.0,3912.0
4410,127,24.0,0.2,3912.0,3913.0
4411,127,21.0,0.5,3913.0,3913.333333
4412,127,19.0,0.0,3913.333333,3914.666666
4413,127,22.0,0.1,3914.666666,3915.0
4414,127,17.0,0.0,3915.0,3916.0
4415,127,21.0,0.0,3916.0,3917.0
4416,127,22.0,0.1,3917.0,3917.333333
4417,127,19.0,0.4,3917.333333,3918.0
4418,127,21.0,0.8,3918.0,3918.666666
4419,127,16.0,0.6,3918.666666,3920.0
4420,127,20.0,0.0,3920.0,3921.0
4421,127,21.0,0.5,3921.0,3922.0
4422,127,22.0,0.4,3922.0,3922.666666
4423,127,17.0,0.0,3922.666666,3923.0
4424,127,14.0,0.2,3923.0,3924.0
4425,127,20.0,0.0,3924.0,3925.333333
4426,127,24.0,0.5,3925.333333,3926.0
4427,127,22.0,0.0,3926.0,3926.666666
4428,127,28.0,0.0,3926.666666,3929.333333
4429,127,31.0,0.0,3929.333333,3930.0
4430,127,29.0,0.6,3930.0,3930.666666
4431,127,32.0,0.0,3930.666666,3931.0
4432,127,35.0,0.8,3931.0,3932.0
4433,127,34.0,0.0,3932.0,3933.0
4434,127,31.0,0.7,3933.0,3933.333333
4435,127,35.0,0.8,3933.333333,3934.0
4436,127,31.0,0.4,3934.0,3934.666666
4437,127,29.0,0.6,3934.666666,3935.0
4438,127,35.0,0.8,3935.0,3936.0
4439,127,36.0,0.0,3936.0,3937.0
4440,127,33.0,0.0,3937.0,3937.333333
4441,127,29.0,0.0,3937.333333,3939.0
4442,127,33.0,0.4,3939.0,3940.0
4443,127,32.0,0.0,3940.0,3941.333333
4444,127,33.0,0.4,3941.333333,3942.0
4445,127,29.0,0.0,3942.0,3943.0
4446,127,26.0,0.9,3943.0,3944.0
4447,127,21.0,0.0,3944.0,3945.0
4448,127,16.0,0.0,3945.0,3946.0
4449,127,12.0,0.2,3946.0,3946.666666
4450,127,16.0,0.0,3946.666666,3947.0
4451,127,19.0,0.0,3947.0,3948.0
4452,127,20.0,0.0,3948.0,3949.0
4453,127,26.0,0.9,3949.0,3950.0
4454,127,31.0,0.0,3950.0,3950.666666
4455,127,33.0,0.4,3950.666666,3951.0
4456,127,36.0,0.5,3951.0,3952.0
4457,127,33.0,0.4,3952.0,3953.0
4458,127,35.0,0.9,3953.0,3953.333333
4459,127,31.0,0.4,3953.333333,3954.0
4460,127,33.0,0.0,3954.0,3954.666666
4461,127,34.0,0.0,3954.666666,3955.0
4462,127,31.0,0.4,3955.0,3956.0
4463,127,33.0,0.8,3956.0,3957.0
4464,127,36.0,0.5,3957.0,3957.333333
4465,127,31.0,0.0,3957.333333,3958.0
4466,127,35.0,0.8,3958.0,3959.0
4467,127,40.0,0.0,3960.0,3961.0
4468,127,35.0,0.6,3961.0,3962.666666
4469,127,34.0,0.0,3962.666666,3963.0
4470,127,40.0,0.6,3963.0,3964.0
4471,127,41.0,0.0,3964.0,3965.0
4472,127,44.0,0.0,3965.0,3965.333333
4473,127,41.0,0.3,3965.333333,3966.666666
4474,127,40.0,0.6,3966.666666,3968.0
4475,127,43.0,0.0,3968.0,3969.333333
4476,127,45.0,0.0,3969.333333,3970.0
4477,127,41.0,0.0,3970.0,3971.0
4478,127,38.0,0.2,3971.0,3973.0
4479,127,33.0,0.8,3973.0,3973.333333
4480,127,31.0,0.1,3973.333333,3974.0
4481,127,33.0,0.4,3974.0,3976.0
4482,127,31.0,0.1,3976.0,3977.0
4483,127,33.0,0.0,3977.0,3977.333333
4484,127,35.0,0.6,3977.333333,3978.0
4485,127,41.0,0.0,3978.0,3978.666666
4486,127,46.0,0.4,3978.666666,3979.0
4487,127,47.0,0.8,3979.0,3980.0
4488,127,41.0,0.3,3980.0,3981.333333
4489,127,36.0,0.5,3981.333333,3982.0
4490,127,31.0,0.1,3982.0,3982.666666
4491,127,28.0,0.6,3982.666666,3983.0
4492,127,29.0,0.0,3983.0,3984.0
4493,127,32.0,0.0,3984.0,3985.0
4494,127,31.0,0.4,3985.0,3985.333333
4495,127,33.0,0.8,3985.333333,3986.0
4496,127,32.0,0.0,3986.0,3986.666666
4497,127,33.0,0.5,3986.666666,3988.0
4498,127,34.0,0.0,3988.0,3989.0
4499,127,29.0,0.0,3989.0,3989.333333
4500,127,32.0,0.0,3989.333333,3990.0
4501,127,31.0,0.0,3990.0,3990.666666
4502,127,26.0,0.6,3990.666666,3992.0
4503,127,32.0,0.0,3992.0,3993.0
4504,127,38.0,0.0,3993.0,3993.333333
4505,127,43.0,0.0,3993.333333,3994.666666
4506,127,44.0,0.0,3994.666666,3995.0
4507,127,43.0,0.0,3995.0,3996.0
4508,127,48.0,0.2,3996.0,3997.0
4509,127,50.0,0.6,3997.0,3997.333333
4510,127,55.0,0.0,3997.333333,3998.0
4511,127,50.0,0.3,3998.0,3999.0
4512,127,56.0,0.0,4000.0,4001.0
4513,127,50.0,0.0,4001.0,4002.0
4514,127,44.0,0.0,4002.0,4003.0
4515,127,43.0,0.0,4003.0,4005.333333
4516,127,41.0,0.0,4005.333333,4006.0
4517,127,43.0,0.0,4006.0,4008.0
4518,127,44.0,0.0,4008.0,4009.333333
4519,127,40.0,0.0,4010.0,4010.666666
4520,127,41.0,0.0,4010.666666,4011.0
4521,127,45.0,0.4,4011.0,4012.0
4522,127,43.0,0.0,4012.0,4013.0
4523,127,48.0,0.2,4013.0,4013.333333
4524,127,52.0,0.0,4013.333333,4014.0
4525,127,47.0,0.9,4014.0,4014.666666
4526,127,52.0,0.6,4014.666666,4015.0
4527,127,57.0,0.4,4015.0,4016.0
4528,127,53.0,0.1,4016.0,4017.0
4529,127,57.0,0.0,4017.0,4017.333333
4530,127,52.0,0.7,4017.333333,4018.666666
4531,127,53.0,0.0,4018.666666,4019.0
4532,127,47.0,0.8,4019.0,4020.0
4533,127,52.0,0.0,4020.0,4021.333333
4534,127,55.0,0.4,4021.333333,4022.0
4535,127,57.0,0.4,4022.0,4023.0
4536,127,55.0,0.4,4023.0,4025.0
4537,127,59.0,0.5,4025.0,4025.333333
4538,127,62.0,0.2,4025.333333,4026.0
4539,127,57.0,0.8,4026.0,4027.0
4540,127,62.0,0.2,4027.0,4028.0
4541,127,58.0,0.1,4028.0,4029.0
4542,127,55.0,0.4,4029.0,4029.333333
4543,127,53.0,0.6,4029.333333,4030.0
4544,127,55.0,0.0,4030.0,4030.666666
4545,127,57.0,0.5,4030.666666,4031.0
4546,127,53.0,0.0,4031.0,4033.0
4547,127,52.0,0.4,4033.0,4033.333333
4548,127,56.0,0.5,4033.333333,4034.0
4549,127,57.0,0.0,4034.0,4034.666666
4550,127,53.0,0.0,4034.666666,4035.0
4551,127,52.0,0.6,4035.0,4036.0
4552,127,47.0,0.6,4036.0,4037.0
4553,127,41.0,0.0,4037.0,4038.0
4554,127,35.0,0.8,4038.0,4038.666666
4555,127,33.0,0.5,4038.666666,4040.0
4556,127,28.0,0.0,4040.0,4041.0
4557,127,26.0,0.6,4041.0,4041.333333
4558,127,23.0,0.9,4041.333333,4042.666666
4559,127,29.0,0.3,4042.666666,4043.0
4560,127,28.0,0.6,4043.0,4044.0
4561,127,24.0,0.5,4044.0,4045.333333
4562,127,29.0,0.3,4045.333333,4046.0
4563,127,34.0,0.0,4046.0,4046.666666
4564,127,33.0,0.4,4046.666666,4048.0
4565,127,36.0,0.0,4048.0,4049.333333
4566,127,35.0,0.9,4049.333333,4050.0
4567,127,40.0,0.0,4050.0,4050.666666
4568,127,36.0,0.2,4050.666666,4051.0
4569,127,31.0,0.0,4051.0,4052.0
4570,127,32.0,0.0,4052.0,4053.0
4571,127,36.0,0.5,4053.0,4053.333333
4572,127,40.0,0.0,4053.333333,4054.0
4573,127,36.0,0.2,4054.0,4055.0
4574,127,31.0,0.0,4055.0,4056.0
4575,127,29.0,0.0,4056.0,4057.0
4576,127,33.0,0.0,4057.0,4058.0
4577,127,38.0,0.6,4058.0,4058.666666
4578,127,43.0,0.4,4058.666666,4059.0
4579,127,45.0,0.4,4059.0,4060.0
4580,127,44.0,0.0,4060.0,4061.0
4581,127,46.0,0.0,4061.333333,4062.0
4582,127,41.0,0.0,4062.0,4063.0
4583,127,44.0,0.0,4063.0,4064.0
4584,127,43.0,0.4,4064.0,4065.0
4585,127,40.0,0.0,4065.0,4066.0
4586,127,41.0,0.6,4066.0,4066.666666
4587,127,40.0,0.0,4066.666666,4067.0
4588,127,35.0,0.8,4067.0,4068.0
4589,127,33.0,0.0,4068.0,4069.0
4590,127,31.0,0.7,4069.0,4069.333333
4591,127,32.0,0.0,4069.333333,4070.0
4592,127,34.0,0.1,4070.0,4070.666666
4593,127,38.0,0.3,4070.666666,4071.0
4594,127,41.0,0.6,4071.0,4073.333333
4595,127,38.0,0.2,4073.333333,4074.666666
4596,127,41.0,0.0,4074.666666,4075.0
4597,127,38.0,0.2,4075.0,4076.0
4598,127,41.0,0.0,4076.0,4078.666666
4599,127,40.0,0.6,4078.666666,4081.0
4600,127,41.0,0.0,4081.0,4082.0
4601,127,43.0,0.4,4082.0,4082.666666
4602,127,41.0,0.0,4082.666666,4083.0
4603,127,38.0,0.2,4083.0,4084.0
4604,127,39.0,0.1,4084.0,4085.0
4605,127,45.0,0.0,4085.0,4085.333333
4606,127,44.0,0.0,4085.333333,4086.0
4607,127,46.0,0.0,4086.0,4086.666666
4608,127,52.0,0.0,4086.666666,4088.0
4609,127,55.0,0.0,4088.0,4089.333333
4610,127,50.0,0.2,4089.333333,4090.0
4611,127,55.0,0.0,4090.0,4090.666666
4612,127,53.0,0.3,4090.666666,4091.0
4613,127,52.0,0.6,4091.0,4092.0
4614,127,57.0,0.1,4092.0,4093.0
4615,127,53.0,0.0,4093.0,4094.666666
4616,127,57.0,0.5,4094.666666,4095.0
4617,127,52.0,0.6,4095.0,4096.0
4618,127,57.0,0.5,4096.0,4097.333333
4619,127,58.0,0.1,4097.333333,4098.666666
4620,127,57.0,0.0,4098.666666,4099.0
4621,127,55.0,0.0,4099.0,4100.0
4622,127,56.0,0.0,4100.0,4101.333333
4623,127,60.0,0.8,4101.333333,4102.0
4624,127,55.0,0.0,4102.0,4102.666666
4625,127,57.0,0.5,4102.666666,4103.0
4626,127,59.0,0.6,4103.0,4104.0
4627,127,56.0,0.0,4104.0,4105.0
4628,127,59.0,0.5,4105.0,4106.0
4629,127,57.0,0.5,4106.0,4106.666666
4630,127,52.0,0.0,4106.666666,4107.0
4631,127,57.0,0.4,4107.0,4110.0
4632,127,60.0,0.5,4110.0,4110.666666
4633,127,59.0,0.8,4110.666666,4111.0
4634,127,62.0,0.0,4111.0,4112.0
4635,127,67.0,0.7,4112.0,4113.0
4636,127,62.0,0.6,4113.0,4113.333333
4637,127,57.0,0.0,4113.333333,4114.666666
4638,127,58.0,0.0,4114.666666,4115.0
4639,127,59.0,0.8,4115.0,4116.0
4640,127,57.0,0.5,4116.0,4117.0
4641,127,60.0,0.2,4117.0,4118.0
4642,127,57.0,0.4,4118.0,4119.0
4643,127,55.0,0.0,4120.0,4121.0
4644,127,50.0,0.9,4121.0,4121.333333
4645,127,45.0,0.4,4121.333333,4123.0
4646,127,47.0,0.8,4123.0,4125.333333
4647,127,43.0,0.0,4125.333333,4126.0
4648,127,46.0,0.0,4126.0,4126.666666
4649,127,47.0,0.8,4126.666666,4128.0
4650,127,41.0,0.0,4128.0,4129.333333
4651,127,45.0,0.0,4129.333333,4130.0
4652,127,40.0,0.0,4130.0,4130.666666
4653,127,45.0,0.8,4130.666666,4131.0
4654,127,50.0,0.2,4131.0,4132.0
4655,127,48.0,0.0,4132.0,4133.0
4656,127,52.0,0.7,4133.0,4133.333333
4657,127,56.0,0.0,4133.333333,4134.0
4658,127,53.0,0.0,4134.0,4135.0
4659,127,50.0,0.2,4135.0,4136.0
4660,127,55.0,0.0,4136.0,4137.0
4661,127,57.0,0.0,4137.0,4137.333333
4662,127,53.0,0.0,4137.333333,4138.0
4663,127,50.0,0.3,4138.0,4138.666666
4664,127,47.0,0.9,4138.666666,4139.0
4665,127,52.0,0.6,4139.0,4140.0
4666,127,56.0,0.4,4140.0,4141.333333
4667,127,50.0,0.6,4141.333333,4142.0
4668,127,55.0,0.4,4142.0,4142.666666
4669,127,52.0,0.6,4142.666666,4143.0
4670,127,57.0,0.5,4143.0,4145.0
4671,127,56.0,0.5,4145.0,4145.333333
4672,127,53.0,0.0,4145.333333,4146.666666
4673,127,56.0,0.0,4146.666666,4147.0
4674,127,55.0,0.0,4147.0,4149.0
4675,127,57.0,0.5,4149.0,4149.333333
4676,127,55.0,0.7,4149.333333,4150.0
4677,127,50.0,0.2,4150.0,4150.666666
4678,127,44.0,0.0,4150.666666,4151.0
4679,127,47.0,0.9,4151.0,4152.0
4680,127,48.0,0.2,4152.0,4154.0
4681,127,52.0,0.7,4154.0,4154.666666
4682,127,47.0,0.8,4154.666666,4155.0
4683,127,53.0,0.0,4155.0,4156.0
4684,127,55.0,0.4,4156.0,4157.0
4685,127,59.0,0.9,4157.0,4157.333333
4686,127,55.0,0.7,4157.333333,4158.0
4687,127,60.0,0.2,4158.0,4159.0
4688,127,55.0,0.0,4160.0,4161.0
4689,127,60.0,0.5,4161.0,4161.333333
4690,127,56.0,0.0,4161.333333,4162.0
4691,127,53.0,0.0,4162.0,4162.666666
4692,127,50.0,0.9,4162.666666,4163.0
4693,127,45.0,0.4,4163.0,4164.0
4694,127,50.0,0.2,4164.0,4165.0
4695,127,53.0,0.6,4165.0,4165.333333
4696,127,51.0,0.2,4165.333333,4166.0
4697,127,46.0,0.0,4166.0,4166.666666
4698,127,44.0,0.5,4166.666666,4168.0
4699,127,46.0,0.0,4168.0,4169.333333
4700,127,45.0,0.0,4170.0,4170.666666
4701,127,41.0,0.6,4170.666666,4171.0
4702,127,47.0,0.8,4171.0,4172.0
4703,127,45.0,0.4,4172.0,4173.0
4704,127,50.0,0.3,4173.0,4173.333333
4705,127,52.0,0.0,4173.333333,4174.0
4706,127,50.0,0.6,4174.0,4174.666666
4707,127,47.0,0.8,4174.666666,4176.0
4708,127,46.0,0.0,4176.0,4177.0
4709,127,45.0,0.0,4177.0,4178.666666
4710,127,46.0,0.1,4178.666666,4179.0
4711,127,50.0,0.2,4179.0,4180.0
4712,127,45.0,0.0,4180.0,4181.333333
4713,127,41.0,0.0,4181.333333,4182.666666
4714,127,45.0,0.0,4182.666666,4183.0
4715,127,43.0,0.1,4183.0,4185.0
4716,127,40.0,0.0,4185.0,4185.333333
4717,127,45.0,0.4,4185.333333,4186.0
4718,127,41.0,0.0,4186.0,4186.666666
4719,127,40.0,0.0,4186.666666,4189.0
4720,127,43.0,0.1,4189.0,4189.333333
4721,127,48.0,0.5,4189.333333,4190.0
4722,127,53.0,0.3,4190.0,4190.666666
4723,127,50.0,0.6,4190.666666,4191.0
4724,127,45.0,0.5,4191.0,4192.0
4725,127,41.0,0.0,4192.0,4193.0
4726,127,46.0,0.1,4193.0,4193.333333
4727,127,47.0,0.5,4193.333333,4194.0
4728,127,45.0,0.0,4194.0,4194.666666
4729,127,40.0,0.7,4194.666666,4195.0
4730,127,43.0,0.0,4195.0,4197.0
4731,127,45.0,0.5,4197.0,4197.333333
4732,127,41.0,0.0,4197.333333,4198.0
4733,127,43.0,0.0,4198.0,4198.666666
4734,127,38.0,0.6,4198.666666,4200.0
4735,127,35.0,0.0,4200.0,4201.0
4736,127,34.0,0.4,4201.0,4201.333333
4737,127,29.0,0.0,4201.333333,4202.666666
4738,127,31.0,0.4,4202.666666,4204.0
4739,127,29.0,0.6,4204.0,4205.0
4740,127,31.0,0.4,4205.0,4205.333333
4741,127,33.0,0.0,4205.333333,4206.0
4742,127,34.0,0.0,4206.0,4208.0
4743,127,32.0,0.0,4208.0,4209.333333
4744,127,29.0,0.0,4209.333333,4210.0
4745,127,35.0,0.5,4210.0,4210.666666
4746,127,41.0,0.3,4210.666666,4211.0
4747,127,40.0,0.6,4211.0,4212.0
4748,127,38.0,0.3,4212.0,4213.0
4749,127,36.0,0.2,4213.0,4213.333333
4750,127,33.0,0.8,4213.333333,4214.666666
4751,127,31.0,0.4,4214.666666,4215.0
4752,127,35.0,0.8,4215.0,4216.0
4753,127,34.0,0.4,4216.0,4217.0
4754,127,33.0,0.0,4217.0,4217.333333
4755,127,28.0,0.6,4217.333333,4218.0
4756,127,24.0,0.2,4218.0,4218.666666
4757,127,19.0,0.4,4218.666666,4219.0
4758,127,14.0,0.2,4219.0,4220.0
4759,127,12.0,0.2,4220.0,4222.0
4760,127,8.0,0.0,4222.0,4223.0
4761,127,5.0,0.0,4223.0,4225.0
4762,127,8.0,0.5,4225.0,4226.0
4763,127,7.0,0.4,4226.0,4226.666666
4764,127,8.0,0.5,4226.666666,4227.0
4765,127,11.0,0.8,4227.0,4228.0
4766,127,9.0,0.0,4228.0,4229.0
4767,127,5.0,0.0,4229.0,4230.0
4768,127,10.0,0.0,4230.0,4230.666666
4769,127,9.0,0.5,4230.666666,4231.0
4770,127,7.0,0.4,4231.0,4232.0
4771,127,12.0,0.4,4232.0,4233.0
4772,127,8.0,0.0,4233.0,4233.333333
4773,127,7.0,0.0,4233.333333,4234.0
4774,127,9.0,0.8,4234.0,4234.666666
4775,127,5.0,0.3,4234.666666,4235.0
4776,127,9.0,0.4,4235.0,4237.0
4777,127,7.0,0.4,4237.0,4237.333333
4778,127,9.0,0.5,4237.333333,4238.0
4779,127,7.0,0.7,4238.0,4238.666666
4780,127,11.0,0.8,4238.666666,4240.0
4781,127,16.0,0.0,4240.0,4241.0
4782,127,20.0,0.0,4241.0,4242.0
4783,127,19.0,0.1,4242.0,4242.666666
4784,127,23.0,0.9,4242.666666,4243.0
4785,127,21.0,0.4,4243.0,4244.0
4786,127,22.0,0.0,4244.0,4245.333333
4787,127,17.0,0.0,4245.333333,4246.0
4788,127,22.0,0.0,4246.0,4246.666666
4789,127,28.0,0.0,4246.666666,4248.0
4790,127,29.0,0.0,4248.0,4249.333333
4791,127,33.0,0.4,4249.333333,4250.0
4792,127,28.0,0.0,4250.0,4250.666666
4793,127,34.0,0.4,4250.666666,4251.0
4794,127,31.0,0.0,4251.0,4253.0
4795,127,33.0,0.8,4253.0,4253.333333
4796,127,31.0,0.0,4253.333333,4254.0
4797,127,34.0,0.1,4254.0,4254.666666
4798,127,40.0,0.4,4254.666666,4255.0
4799,127,45.0,0.4,4255.0,4256.0
4800,127,41.0,0.0,4256.0,4257.0
4801,127,45.0,0.0,4257.0,4258.0
4802,127,47.0,0.9,4258.666666,4259.0
4803,127,52.0,0.6,4259.0,4261.333333
4804,127,56.0,0.0,4261.333333,4262.0
4805,127,60.0,0.5,4262.0,4262.666666
4806,127,64.0,0.7,4262.666666,4263.0
4807,127,62.0,0.6,4263.0,4264.0
4808,127,60.0,0.0,4264.0,4265.0
4809,127,57.0,0.5,4265.0,4266.0
4810,127,53.0,0.3,4266.0,4266.666667
4811,127,52.0,0.0,4266.666667,4267.0
4812,127,50.0,0.2,4267.0,4268.0
4813,127,48.0,0.0,4268.0,4269.0
4814,127,50.0,0.6,4269.0,4269.333334
4815,127,53.0,0.0,4269.333334,4270.0
4816,127,57.0,0.8,4270.0,4270.666667
4817,127,55.0,0.0,4270.666667,4271.0
4818,127,53.0,0.0,4271.0,4272.0
4819,127,59.0,0.0,4272.0,4273.0
4820,127,53.0,0.6,4273.0,4274.0
4821,127,57.0,0.0,4274.0,4274.666667
4822,127,55.0,0.0,4274.666667,4275.0
4823,127,59.0,0.8,4275.0,4276.0
4824,127,55.0,0.1,4276.0,4277.0
4825,127,53.0,0.0,4277.0,4277.333334
4826,127,55.0,0.1,4277.333334,4278.0
4827,127,53.0,0.3,4278.0,4279.0
4828,127,47.0,0.4,4280.0,4281.0
4829,127,43.0,0.4,4281.0,4281.333334
4830,127,45.0,0.4,4281.333334,4282.666667
4831,127,43.0,0.0,4282.666667,4283.0
4832,127,47.0,0.8,4283.0,4284.0
4833,127,45.0,0.3,4284.0,4285.333334
4834,127,50.0,0.6,4285.333334,4286.0
4835,127,46.0,0.0,4286.0,4286.666667
4836,127,50.0,0.2,4286.666667,4288.0
4837,127,45.0,0.0,4288.0,4290.0
4838,127,44.0,0.5,4290.0,4291.0
4839,127,45.0,0.4,4291.0,4292.0
4840,127,46.0,0.1,4292.0,4293.0
4841,127,45.0,0.5,4293.0,4293.333334
4842,127,43.0,0.0,4293.333334,4296.0
4843,127,44.0,0.0,4296.0,4297.0
4844,127,45.0,0.0,4297.0,4297.333334
4845,127,43.0,0.1,4297.333334,4298.0
4846,127,48.0,0.5,4298.0,4298.666667
4847,127,46.0,0.0,4298.666667,4299.0
4848,127,43.0,0.0,4299.0,4300.0
4849,127,44.0,0.0,4300.0,4301.333334
4850,127,41.0,0.0,4301.333334,4302.0
4851,127,46.0,0.1,4302.0,4302.666667
4852,127,50.0,0.2,4302.666667,4304.0
4853,127,48.0,0.2,4304.0,4305.0
4854,127,52.0,0.0,4305.0,4305.333334
4855,127,55.0,0.1,4305.333334,4306.0
4856,127,57.0,0.5,4306.0,4306.666667
4857,127,58.0,0.0,4306.666667,4307.0
4858,127,52.0,0.6,4307.0,4308.0
4859,127,57.0,0.5,4308.0,4309.0
4860,127,62.0,0.3,4309.0,4309.333334
4861,127,67.0,0.4,4309.333334,4310.0
4862,127,69.0,0.4,4310.0,4310.666667
4863,127,70.0,0.1,4310.666667,4311.0
4864,127,64.0,0.4,4311.0,4312.0
4865,127,69.0,0.0,4312.0,4313.0
4866,127,65.0,0.0,4313.0,4313.333334
4867,127,64.0,0.6,4313.333334,4314.0
4868,127,58.0,0.1,4314.0,4314.666667
4869,127,53.0,0.6,4314.666667,4315.0
4870,127,50.0,0.0,4315.0,4316.0
4871,127,45.0,0.5,4316.0,4317.0
4872,127,40.0,0.7,4317.0,4317.333334
4873,127,45.0,0.8,4317.333334,4318.0
4874,127,41.0,0.0,4318.0,4319.0
4875,127,40.0,0.0,4320.0,4321.0
4876,127,41.0,0.0,4321.0,4321.333334
4877,127,46.0,0.4,4321.333334,4322.0
4878,127,45.0,0.5,4322.0,4323.0
4879,127,50.0,0.2,4323.0,4324.0
4880,127,52.0,0.4,4324.0,4325.333334
4881,127,57.0,0.4,4325.333334,4327.0
4882,127,58.0,0.0,4328.0,4330.0
4883,127,53.0,0.0,4330.0,4331.0
4884,127,47.0,0.8,4331.0,4332.0
4885,127,46.0,0.0,4332.0,4333.0
4886,127,41.0,0.0,4333.0,4333.333334
4887,127,43.0,0.0,4333.333334,4334.0
4888,127,40.0,0.7,4334.0,4336.0
4889,127,43.0,0.4,4336.0,4337.0
4890,127,45.0,0.0,4337.0,4337.333334
4891,127,48.0,0.2,4337.333334,4339.0
4892,127,45.0,0.4,4339.0,4341.333334
4893,127,43.0,0.4,4341.333334,4342.0
4894,127,47.0,0.8,4342.0,4342.666667
4895,127,45.0,0.0,4342.666667,4343.0
4896,127,46.0,0.4,4343.0,4344.0
4897,127,43.0,0.2,4344.0,4345.0
4898,127,47.0,0.5,4345.0,4345.333334
4899,127,45.0,0.4,4345.333334,4346.0
4900,127,43.0,0.7,4346.0,4346.666667
4901,127,46.0,0.0,4346.666667,4347.0
4902,127,43.0,0.0,4347.0,4349.0
4903,127,48.0,0.2,4349.0,4349.333334
4904,127,44.0,0.0,4349.333334,4350.0
4905,127,45.0,0.4,4350.0,4350.666667
4906,127,41.0,0.0,4350.666667,4351.0
4907,127,44.0,0.0,4351.0,4352.0
4908,127,41.0,0.0,4352.0,4353.0
4909,127,43.0,0.4,4353.0,4354.0
4910,127,45.0,0.0,4354.0,4354.666667
4911,127,43.0,0.4,4354.666667,4355.0
4912,127,40.0,0.4,4355.0,4356.0
4913,127,41.0,0.6,4356.0,4357.0
4914,127,45.0,0.8,4357.0,4358.666667
4915,127,41.0,0.0,4358.666667,4360.0
4916,127,45.0,0.3,4360.0,4361.0
4917,127,43.0,0.1,4361.0,4362.666667
4918,127,41.0,0.6,4362.666667,4363.0
4919,127,40.0,0.6,4363.0,4364.0
4920,127,41.0,0.0,4364.0,4365.333334
4921,127,45.0,0.8,4365.333334,4366.0
4922,127,46.0,0.0,4366.0,4366.666667
4923,127,50.0,0.2,4366.666667,4368.0
4924,127,53.0,0.0,4368.0,4369.333334
4925,127,55.0,0.4,4369.333334,4370.0
4926,127,52.0,0.0,4370.0,4370.666667
4927,127,55.0,0.7,4370.666667,4371.0
4928,127,50.0,0.2,4371.0,4372.0
4929,127,48.0,0.2,4372.0,4373.0
4930,127,53.0,0.3,4373.0,4373.333334
4931,127,52.0,0.0,4373.333334,4374.0
4932,127,53.0,0.0,4374.0,4374.666667
4933,127,56.0,0.0,4374.666667,4375.0
4934,127,50.0,0.2,4375.0,4376.0
4935,127,48.0,0.1,4376.0,4377.0
4936,127,45.0,0.0,4377.0,4377.333334
4937,127,50.0,0.2,4377.333334,4378.666667
4938,127,51.0,0.2,4378.666667,4379.0
4939,127,47.0,0.8,4379.0,4380.0
4940,127,41.0,0.0,4380.0,4381.333334
4941,127,46.0,0.0,4381.333334,4382.0
4942,127,48.0,0.5,4382.0,4384.0
4943,127,50.0,0.0,4384.0,4385.0
4944,127,44.0,0.5,4385.0,4386.0
4945,127,47.0,0.9,4386.0,4386.666667
4946,127,52.0,0.0,4386.666667,4387.0
4947,127,57.0,0.4,4387.0,4389.0
4948,127,60.0,0.5,4389.0,4389.333334
4949,127,58.0,0.0,4389.333334,4390.0
4950,127,53.0,0.0,4390.0,4390.666667
4951,127,57.0,0.8,4390.666667,4391.0
4952,127,58.0,0.1,4391.0,4392.0
4953,127,55.0,0.1,4392.0,4393.0
4954,127,57.0,0.5,4393.0,4393.333334
4955,127,55.0,0.0,4393.333334,4394.0
4956,127,60.0,0.5,4394.0,4394.666667
4957,127,65.0,0.0,4394.666667,4395.0
4958,127,67.0,0.0,4395.0,4396.0
4959,127,69.0,0.0,4396.0,4397.0
4960,127,70.0,0.1,4397.0,4398.0
4961,127,69.0,0.8,4398.0,4398.666667
4962,127,67.0,0.0,4398.666667,4400.0
4963,127,64.0,0.0,4400.0,4401.0
4964,127,69.0,0.5,4401.0,4402.0
4965,127,71.0,0.6,4402.0,4402.666667
4966,127,67.0,0.0,4402.666667,4404.0
4967,127,62.0,0.0,4404.0,4405.0
4968,127,65.0,0.0,4405.0,4406.0
4969,127,67.0,0.0,4406.0,4406.666667
4970,127,71.0,0.5,4406.666667,4408.0
4971,127,65.0,0.0,4408.0,4409.333334
4972,127,69.0,0.4,4409.333334,4410.666667
4973,127,65.0,0.0,4410.666667,4411.0
4974,127,69.0,0.4,4411.0,4412.0
4975,127,74.0,0.0,4412.0,4413.0
4976,127,79.0,0.7,4413.0,4414.666667
4977,127,77.0,0.0,4414.666667,4415.0
4978,127,74.0,0.2,4415.0,4416.0
4979,127,77.0,0.0,4416.0,4417.0
4980,127,81.0,0.0,4417.0,4417.333334
4981,127,77.0,0.6,4417.333334,4418.666667
4982,127,81.0,0.0,4418.666667,4419.0
4983,127,83.0,0.8,4419.0,4420.0
4984,127,80.0,0.5,4420.0,4421.333334
4985,127,84.0,0.8,4421.333334,4422.0
4986,127,89.0,0.0,4422.0,4423.0
4987,127,86.0,0.9,4423.0,4424.0
4988,127,88.0,0.3,4424.0,4426.0
4989,127,93.0,0.8,4426.0,4426.666667
4990,127,91.0,0.0,4426.666667,4427.0
4991,127,86.0,0.2,4427.0,4428.0
4992,127,91.0,0.4,4428.0,4429.0
4993,127,86.0,0.9,4429.0,4430.0
4994,127,81.0,0.4,4430.0,4430.666667
4995,127,83.0,0.8,4430.666667,4431.0
4996,127,84.0,0.5,4431.0,4432.0
4997,127,79.0,0.1,4432.0,4433.0
4998,127,83.0,0.9,4433.0,4434.0
4999,127,81.0,0.0,4434.0,4434.666667
5000,127,82.0,0.0,4434.666667,4435.0
5001,127,76.0,0.6,4435.0,4436.0
5002,127,77.0,0.0,4436.0,4437.0
5003,127,72.0,0.5,4437.0,4437.333334
5004,127,69.0,0.5,4437.333334,4438.0
5005,127,72.0,0.2,4438.0,4439.0
5006,127,76.0,0.0,4440.0,4441.0
5007,127,71.0,0.6,4441.0,4441.333334
5008,127,74.0,0.2,4441.333334,4442.666667
5009,127,71.0,0.9,4442.666667,4443.0
5010,127,76.0,0.6,4443.0,4444.0
5011,127,79.0,0.1,4444.0,4445.333334
5012,127,81.0,0.8,4445.333334,4446.0
5013,127,77.0,0.0,4446.0,4446.666667
5014,127,81.0,0.4,4446.666667,4450.0
5015,127,79.0,0.0,4450.0,4450.666667
5016,127,84.0,0.5,4450.666667,4452.0
5017,127,80.0,0.0,4452.0,4453.0
5018,127,81.0,0.8,4453.0,4453.333334
5019,127,82.0,0.4,4453.333334,4454.0
5020,127,81.0,0.5,4454.0,4455.0
5021,127,83.0,0.8,4455.0,4456.0
5022,127,77.0,0.0,4456.0,4457.0
5023,127,81.0,0.0,4457.0,4457.333334
5024,127,86.0,0.0,4457.333334,4458.0
5025,127,89.0,0.0,4458.0,4459.0
5026,127,93.0,0.4,4459.0,4460.0
5027,127,88.0,0.0,4460.0,4461.333334
5028,127,93.0,0.5,4461.333334,4462.666667
5029,127,91.0,0.0,4462.666667,4463.0
5030,127,89.0,0.0,4463.0,4464.0
5031,127,87.0,0.0,4464.0,4465.0
5032,127,89.0,0.0,4465.0,4465.333334
5033,127,86.0,0.3,4465.333334,4467.0
5034,127,83.0,0.8,4467.0,4468.0
5035,127,79.0,0.4,4468.0,4469.0
5036,127,77.0,0.0,4469.0,4469.333334
5037,127,79.0,0.0,4469.333334,4470.0
5038,127,81.0,0.4,4470.0,4470.666667
5039,127,77.0,0.0,4470.666667,4471.0
5040,127,74.0,0.6,4471.0,4472.0
5041,127,79.0,0.1,4472.0,4473.0
5042,127,74.0,0.0,4473.0,4473.333334
5043,127,69.0,0.4,4473.333334,4474.0
5044,127,74.0,0.6,4474.0,4474.666667
5045,127,69.0,0.8,4474.666667,4475.0
5046,127,74.0,0.2,4475.0,4477.333334
5047,127,77.0,0.0,4477.333334,4478.0
5048,127,74.0,0.3,4478.0,4479.0
5049,127,76.0,0.0,4480.0,4481.0
5050,127,74.0,0.0,4481.0,4481.333334
5051,127,77.0,0.0,4481.333334,4482.666667
5052,127,81.0,0.5,4482.666667,4483.0
5053,127,86.0,0.2,4483.0,4484.0
5054,127,80.0,0.0,4484.0,4485.0
5055,127,81.0,0.0,4485.0,4485.333334
5056,127,82.0,0.4,4485.333334,4486.0
5057,127,81.0,0.4,4486.0,4486.666667
5058,127,86.0,0.6,4486.666667,4488.0
5059,127,82.0,0.0,4488.0,4489.333334
5060,127,76.0,0.0,4490.0,4490.666667
5061,127,74.0,0.9,4490.666667,4491.0
5062,127,76.0,0.6,4491.0,4492.0
5063,127,70.0,0.0,4492.0,4493.0
5064,127,72.0,0.2,4493.0,4493.333334
5065,127,67.0,0.0,4493.333334,4494.0
5066,127,71.0,0.9,4494.0,4495.0
5067,127,69.0,0.4,4495.0,4497.333334
5068,127,65.0,0.0,4497.333334,4498.666667
5069,127,64.0,0.7,4498.666667,4499.0
5070,127,67.0,0.0,4499.0,4500.0
5071,127,71.0,0.0,4500.0,4501.333334
5072,127,67.0,0.4,4501.333334,4502.666667
5073,127,69.0,0.0,4502.666667,4503.0
5074,127,67.0,0.4,4503.0,4504.0
5075,127,68.0,0.0,4504.0,4505.0
5076,127,71.0,0.5,4505.0,4505.333334
5077,127,74.0,0.2,4505.333334,4506.0
5078,127,72.0,0.2,4506.0,4506.666667
5079,127,71.0,0.5,4506.666667,4507.0
5080,127,69.0,0.4,4507.0,4508.0
5081,127,70.0,0.4,4508.0,4509.0
5082,127,67.0,0.4,4509.0,4509.333334
5083,127,62.0,0.3,4509.333334,4510.0
5084,127,67.0,0.0,4510.0,4510.666667
5085,127,70.0,0.4,4510.666667,4511.0
5086,127,65.0,0.0,4511.0,4512.0
5087,127,70.0,0.0,4512.0,4513.0
5088,127,64.0,0.4,4513.0,4513.333334
5089,127,59.0,0.5,4513.333334,4514.0
5090,127,57.0,0.0,4514.0,4514.666667
5091,127,55.0,0.7,4514.666667,4515.0
5092,127,58.0,0.4,4515.0,4516.0
5093,127,52.0,0.6,4516.0,4517.0
5094,127,53.0,0.0,4517.0,4517.333334
5095,127,55.0,0.4,4517.333334,4518.0
5096,127,52.0,0.6,4518.0,4518.666667
5097,127,48.0,0.2,4518.666667,4521.0
5098,127,50.0,0.6,4521.0,4521.333334
5099,127,44.0,0.0,4521.333334,4522.666667
5100,127,41.0,0.0,4522.666667,4523.0
5101,127,47.0,0.8,4523.0,4524.0
5102,127,43.0,0.4,4524.0,4525.0
5103,127,47.0,0.5,4525.0,4525.333334
5104,127,45.0,0.0,4525.333334,4526.0
5105,127,43.0,0.4,4526.0,4528.0
5106,127,44.0,0.0,4528.0,4529.333334
5107,127,45.0,0.8,4529.333334,4530.0
5108,127,41.0,0.0,4530.0,4530.666667
5109,127,43.0,0.0,4530.666667,4531.0
5110,127,38.0,0.2,4531.0,4532.0
5111,127,33.0,0.8,4532.0,4533.0
5112,127,36.0,0.5,4533.0,4533.333334
5113,127,40.0,0.0,4533.333334,4534.0
5114,127,36.0,0.2,4534.0,4534.666667
5115,127,31.0,0.1,4534.666667,4536.0
5116,127,34.0,0.1,4536.0,4537.0
5117,127,33.0,0.0,4537.0,4537.333334
5118,127,31.0,0.0,4537.333334,4538.666667
5119,127,29.0,0.0,4538.666667,4539.0
5120,127,28.0,0.6,4539.0,4540.0
5121,127,26.0,0.0,4540.0,4541.333334
5122,127,22.0,0.0,4541.333334,4542.0
5123,127,17.0,0.0,4542.0,4543.0
5124,127,20.0,0.0,4543.0,4544.0
5125,127,17.0,0.0,4544.0,4545.0
5126,127,16.0,0.0,4545.0,4547.0
5127,127,19.0,0.0,4547.0,4548.0
5128,127,16.0,0.0,4548.0,4549.0
5129,127,19.0,0.7,4549.0,4549.333334
5130,127,21.0,0.8,4549.333334,4550.0
5131,127,23.0,0.8,4550.0,4550.666667
5132,127,29.0,0.3,4550.666667,4553.333334
5133,127,35.0,0.8,4553.333334,4554.666667
5134,127,33.0,0.5,4554.666667,4555.0
5135,127,32.0,0.0,4555.0,4556.0
5136,127,33.0,0.0,4556.0,4557.0
5137,127,29.0,0.3,4557.0,4557.333334
5138,127,26.0,0.9,4557.333334,4558.0
5139,127,29.0,0.0,4558.0,4558.666667
5140,127,26.0,0.2,4558.666667,4560.0
5141,127,31.0,0.0,4560.0,4561.0
5142,127,29.0,0.0,4561.0,4562.0
5143,127,26.0,0.6,4562.0,4562.666667
5144,127,24.0,0.5,4562.666667,4563.0
5145,127,21.0,0.4,4563.0,4564.0
5146,127,22.0,0.4,4564.0,4565.0
5147,127,19.0,0.4,4565.0,4566.0
5148,127,22.0,0.0,4566.0,4566.666667
5149,127,20.0,0.5,4566.666667,4568.0
5150,127,19.0,0.0,4568.0,4569.333334
5151,127,23.0,0.8,4569.333334,4570.666667
5152,127,21.0,0.0,4570.666667,4571.0
5153,127,23.0,0.8,4571.0,4572.0
5154,127,22.0,0.0,4572.0,4573.0
5155,127,17.0,0.0,4573.0,4574.666667
5156,127,22.0,0.1,4574.666667,4575.0
5157,127,28.0,0.6,4575.0,4576.0
5158,127,32.0,0.0,4576.0,4577.0
5159,127,33.0,0.0,4577.0,4578.666667
5160,127,36.0,0.5,4578.666667,4579.0
5161,127,38.0,0.2,4579.0,4580.0
5162,127,43.0,0.1,4580.0,4582.666667
5163,127,46.0,0.1,4582.666667,4583.0
5164,127,47.0,0.6,4583.0,4584.0
5165,127,45.0,0.4,4584.0,4586.0
5166,127,48.0,0.5,4586.0,4586.666667
5167,127,52.0,0.0,4586.666667,4588.0
5168,127,55.0,0.0,4588.0,4589.0
5169,127,57.0,0.8,4589.0,4589.333334
5170,127,59.0,0.6,4589.333334,4590.0
5171,127,57.0,0.5,4590.0,4591.0
5172,127,62.0,0.0,4591.0,4592.0
5173,127,68.0,0.0,4592.0,4593.0
5174,127,62.0,0.6,4593.0,4594.0
5175,127,57.0,0.0,4594.0,4594.666667
5176,127,58.0,0.0,4594.666667,4595.0
5177,127,55.0,0.0,4595.0,4596.0
5178,127,56.0,0.0,4596.0,4597.0
5179,127,60.0,0.2,4597.0,4597.333334
5180,127,55.0,0.1,4597.333334,4599.0
5181,127,56.0,0.0,4600.0,4601.0
5182,127,50.0,0.9,4601.0,4601.333334
5183,127,55.0,0.0,4601.333334,4602.666667
5184,127,53.0,0.0,4602.666667,4603.0
5185,127,55.0,0.0,4603.0,4604.0
5186,127,53.0,0.0,4604.0,4605.0
5187,127,55.0,0.1,4605.0,4606.0
5188,127,56.0,0.0,4606.0,4606.666667
5189,127,50.0,0.2,4606.666667,4608.0
5190,127,53.0,0.0,4608.0,4609.333334
5191,127,57.0,0.0,4609.333334,4610.0
5192,127,52.0,0.0,4610.0,4612.0
5193,127,53.0,0.6,4612.0,4613.0
5194,127,52.0,0.7,4613.0,4613.333334
5195,127,56.0,0.5,4613.333334,4614.0
5196,127,53.0,0.0,4614.0,4615.0
5197,127,52.0,0.6,4615.0,4616.0
5198,127,55.0,0.0,4616.0,4617.0
5199,127,57.0,0.0,4617.0,4617.333334
5200,127,62.0,0.9,4617.333334,4618.0
5201,127,67.0,0.7,4618.0,4618.666667
5202,127,69.0,0.5,4618.666667,4619.0
5203,127,74.0,0.2,4619.0,4620.0
5204,127,69.0,0.0,4620.0,4622.0
5205,127,65.0,0.6,4622.0,4622.666667
5206,127,62.0,0.2,4622.666667,4623.0
5207,127,57.0,0.5,4623.0,4624.0
5208,127,53.0,0.5,4624.0,4625.0
5209,127,56.0,0.5,4625.0,4625.333334
5210,127,50.0,0.9,4625.333334,4626.0
5211,127,53.0,0.0,4626.0,4627.0
5212,127,47.0,0.8,4627.0,4628.0
5213,127,41.0,0.0,4628.0,4629.0
5214,127,45.0,0.5,4629.0,4629.333334
5215,127,43.0,0.1,4629.333334,4630.0
5216,127,46.0,0.0,4630.0,4630.666667
5217,127,47.0,0.9,4630.666667,4632.0
5218,127,45.0,0.0,4632.0,4633.0
5219,127,48.0,0.5,4633.0,4633.333334
5220,127,47.0,0.8,4633.333334,4634.0
5221,127,53.0,0.3,4634.0,4635.0
5222,127,57.0,0.4,4635.0,4636.0
5223,127,60.0,0.0,4636.0,4637.0
5224,127,59.0,0.9,4637.0,4637.333334
5225,127,60.0,0.2,4637.333334,4639.0
5226,127,64.0,0.0,4640.0,4641.0
5227,127,60.0,0.5,4641.0,4641.333334
5228,127,59.0,0.6,4641.333334,4642.0
5229,127,53.0,0.0,4642.0,4643.0
5230,127,57.0,0.4,4643.0,4644.0
5231,127,59.0,0.4,4644.0,4645.333334
5232,127,55.0,0.1,4645.333334,4646.0
5233,127,58.0,0.0,4646.0,4646.666667
5234,127,57.0,0.0,4646.666667,4648.0
5235,127,53.0,0.0,4648.0,4649.333334
5236,127,52.0,0.0,4650.0,4650.666667
5237,127,57.0,0.5,4650.666667,4651.0
5238,127,55.0,0.0,4651.0,4652.0
5239,127,56.0,0.0,4652.0,4653.0
5240,127,50.0,0.3,4653.0,4653.333334
5241,127,53.0,0.0,4653.333334,4654.0
5242,127,50.0,0.6,4654.0,4654.666667
5243,127,45.0,0.4,4654.666667,4655.0
5244,127,50.0,0.2,4655.0,4656.0
5245,127,46.0,0.0,4656.0,4657.0
5246,127,45.0,0.0,4657.0,4658.666667
5247,127,43.0,0.0,4658.666667,4659.0
5248,127,40.0,0.6,4659.0,4661.333334
5249,127,43.0,0.1,4661.333334,4662.0
5250,127,41.0,0.0,4662.0,4662.666667
5251,127,45.0,0.0,4662.666667,4663.0
5252,127,43.0,0.1,4663.0,4664.0
5253,127,41.0,0.0,4664.0,4665.0
5254,127,40.0,0.0,4665.0,4665.333334
5255,127,43.0,0.0,4665.333334,4666.0
5256,127,41.0,0.0,4666.0,4666.666667
5257,127,44.0,0.0,4666.666667,4667.0
5258,127,50.0,0.2,4667.0,4668.0
5259,127,53.0,0.3,4668.0,4669.0
5260,127,55.0,0.1,4669.0,4670.0
5261,127,53.0,0.0,4670.0,4671.0
5262,127,57.0,0.5,4671.0,4673.0
5263,127,58.0,0.1,4673.0,4673.333334
5264,127,56.0,0.5,4673.333334,4674.0
5265,127,57.0,0.0,4674.0,4674.666667
5266,127,62.0,0.0,4674.666667,4675.0
5267,127,59.0,0.8,4675.0,4676.0
5268,127,64.0,0.6,4676.0,4677.0
5269,127,69.0,0.5,4677.0,4677.333334
5270,127,74.0,0.6,4677.333334,4678.0
5271,127,69.0,0.4,4678.0,4678.666667
5272,127,65.0,0.0,4678.666667,4680.0
5273,127,64.0,0.0,4680.0,4681.0
5274,127,58.0,0.4,4681.0,4681.333334
5275,127,62.0,0.6,4681.333334,4682.666667
5276,127,58.0,0.4,4682.666667,4683.0
5277,127,59.0,0.8,4683.0,4684.0
5278,127,55.0,0.0,4684.0,4685.0
5279,127,57.0,0.0,4685.0,4685.333334
5280,127,62.0,0.6,4685.333334,4686.0
5281,127,58.0,0.0,4686.0,4686.666667
5282,127,57.0,0.5,4686.666667,4688.0
5283,127,60.0,0.3,4688.0,4689.333334
5284,127,62.0,0.6,4689.333334,4690.0
5285,127,59.0,0.5,4690.0,4690.666667
5286,127,62.0,0.3,4690.666667,4691.0
5287,127,57.0,0.4,4691.0,4693.0
5288,127,60.0,0.2,4693.0,4693.333334
5289,127,55.0,0.0,4693.333334,4694.666667
5290,127,50.0,0.0,4694.666667,4695.0
5291,127,47.0,0.8,4695.0,4696.0
5292,127,44.0,0.0,4696.0,4697.0
5293,127,45.0,0.0,4697.0,4697.333334
5294,127,50.0,0.2,4697.333334,4698.0
5295,127,45.0,0.8,4698.0,4698.666667
5296,127,50.0,0.0,4698.666667,4699.0
5297,127,55.0,0.0,4699.0,4700.0
5298,127,56.0,0.0,4700.0,4701.333334
5299,127,57.0,0.4,4701.333334,4702.0
5300,127,62.0,0.0,4702.0,4703.0
5301,127,65.0,0.0,4703.0,4704.0
5302,127,69.0,0.5,4704.0,4705.0
5303,127,68.0,0.5,4705.0,4706.0
5304,127,62.0,0.6,4706.0,4706.666667
5305,127,64.0,0.0,4706.666667,4708.0
5306,127,59.0,0.0,4708.0,4709.0
5307,127,53.0,0.0,4709.0,4709.333334
5308,127,58.0,0.0,4709.333334,4710.0
5309,127,56.0,0.0,4710.0,4710.666667
5310,127,60.0,0.2,4710.666667,4711.0
5311,127,55.0,0.4,4711.0,4712.0
5312,127,59.0,0.7,4712.0,4713.0
5313,127,56.0,0.0,4713.0,4713.333334
5314,127,55.0,0.0,4713.333334,4714.0
5315,127,60.0,0.2,4714.0,4714.666667
5316,127,57.0,0.5,4714.666667,4715.0
5317,127,60.0,0.5,4715.0,4716.0
5318,127,57.0,0.0,4716.0,4717.0
5319,127,55.0,0.4,4717.0,4718.666667
5320,127,57.0,0.4,4718.666667,4720.0
5321,127,52.0,0.0,4720.0,4721.0
5322,127,56.0,0.0,4721.0,4722.0
5323,127,50.0,0.9,4722.0,4722.666667
5324,127,45.0,0.5,4722.666667,4723.0
5325,127,50.0,0.2,4723.0,4724.0
5326,127,55.0,0.2,4724.0,4725.0
5327,127,56.0,0.5,4725.0,4725.333334
5328,127,58.0,0.0,4725.333334,4726.666667
5329,127,57.0,0.5,4726.666667,4728.0
5330,127,60.0,0.2,4728.0,4729.333334
5331,127,55.0,0.0,4729.333334,4730.0
5332,127,52.0,0.0,4730.0,4730.666667
5333,127,56.0,0.0,4730.666667,4731.0
5334,127,59.0,0.8,4731.0,4732.0
5335,127,55.0,0.0,4732.0,4733.0
5336,127,57.0,0.8,4733.0,4734.0
5337,127,58.0,0.1,4734.0,4734.666667
5338,127,53.0,0.0,4734.666667,4735.0
5339,127,57.0,0.4,4735.0,4736.0
5340,127,53.0,0.0,4736.0,4737.0
5341,127,57.0,0.0,4737.0,4737.333334
5342,127,52.0,0.4,4737.333334,4738.666667
5343,127,57.0,0.0,4738.666667,4740.0
5344,127,52.0,0.0,4740.0,4741.333334
5345,127,53.0,0.6,4741.333334,4742.0
5346,127,48.0,0.5,4742.0,4742.666667
5347,127,53.0,0.0,4742.666667,4743.0
5348,127,50.0,0.6,4743.0,4744.0
5349,127,53.0,0.0,4744.0,4745.0
5350,127,47.0,0.5,4745.0,4746.0
5351,127,52.0,0.7,4746.0,4747.0
5352,127,55.0,0.0,4747.0,4748.0
5353,127,53.0,0.0,4748.0,4749.0
5354,127,50.0,0.6,4749.0,4750.0
5355,127,47.0,0.8,4750.0,4750.666667
5356,127,52.0,0.6,4750.666667,4751.0
5357,127,53.0,0.0,4751.0,4752.0
5358,127,55.0,0.4,4752.0,4753.0
5359,127,53.0,0.6,4753.0,4753.333334
5360,127,48.0,0.5,4753.333334,4754.0
5361,127,45.0,0.0,4754.0,4754.666667
5362,127,43.0,0.4,4754.666667,4755.0
5363,127,46.0,0.1,4755.0,4756.0
5364,127,50.0,0.3,4756.0,4757.0
5365,127,53.0,0.0,4757.0,4757.333334
5366,127,58.0,0.0,4757.333334,4758.0
5367,127,53.0,0.3,4758.0,4759.0
5368,127,55.0,0.4,4760.0,4761.333334
5369,127,50.0,0.2,4761.333334,4762.666667
5370,127,48.0,0.2,4762.666667,4763.0
5371,127,52.0,0.6,4763.0,4764.0
5372,127,48.0,0.4,4764.0,4765.0
5373,127,45.0,0.5,4765.0,4765.333334
5374,127,48.0,0.2,4765.333334,4766.666667
5375,127,45.0,0.4,4766.666667,4768.0
5376,127,46.0,0.1,4768.0,4769.333334
5377,127,45.0,0.0,4769.333334,4770.0
5378,127,44.0,0.5,4770.0,4770.666667
5379,127,43.0,0.4,4770.666667,4771.0
5380,127,38.0,0.2,4771.0,4772.0
5381,127,35.0,0.0,4772.0,4773.0
5382,127,33.0,0.5,4773.0,4773.333334
5383,127,31.0,0.7,4773.333334,4774.0
5384,127,33.0,0.4,4774.0,4775.0
5385,127,31.0,0.0,4775.0,4776.0
5386,127,29.0,0.0,4776.0,4777.0
5387,127,33.0,0.0,4777.0,4777.333334
5388,127,32.0,0.0,4777.333334,4778.0
5389,127,33.0,0.5,4778.0,4778.666667
5390,127,31.0,0.4,4778.666667,4779.0
5391,127,35.0,0.8,4779.0,4780.0
5392,127,40.0,0.0,4780.0,4782.0
5393,127,35.0,0.9,4782.0,4782.666667
5394,127,33.0,0.4,4782.666667,4783.0
5395,127,38.0,0.0,4783.0,4784.0
5396,127,33.0,0.0,4784.0,4785.0
5397,127,28.0,0.0,4785.0,4785.333334
5398,127,31.0,0.7,4785.333334,4786.0
5399,127,36.0,0.5,4786.0,4786.666667
5400,127,31.0,0.0,4786.666667,4787.0
5401,127,33.0,0.4,4787.0,4788.0
5402,127,29.0,0.4,4788.0,4789.0
5403,127,26.0,0.3,4789.0,4789.333334
5404,127,32.0,0.0,4789.333334,4790.0
5405,127,31.0,0.0,4790.0,4790.666667
5406,127,29.0,0.0,4790.666667,4791.0
5407,127,28.0,0.4,4791.0,4792.0
5408,127,29.0,0.0,4792.0,4793.333334
5409,127,31.0,0.0,4793.333334,4794.0
5410,127,35.0,0.9,4794.0,4795.0
5411,127,31.0,0.0,4795.0,4796.0
5412,127,29.0,0.0,4796.0,4797.0
5413,127,28.0,0.7,4797.0,4797.333334
5414,127,29.0,0.0,4797.333334,4799.0
5415,127,28.0,0.0,4800.0,4801.0
5416,127,24.0,0.5,4801.0,4801.333334
5417,127,29.0,0.0,4801.333334,4802.666667
5418,127,26.0,0.6,4802.666667,4803.0
5419,127,31.0,0.0,4803.0,4805.0
5420,127,29.0,0.0,4805.0,4805.333334
5421,127,32.0,0.0,4805.333334,4806.0
5422,127,31.0,0.0,4806.0,4806.666667
5423,127,36.0,0.5,4806.666667,4808.0
5424,127,31.0,0.0,4808.0,4809.333334
5425,127,34.0,0.4,4810.0,4810.666667
5426,127,31.0,0.1,4810.666667,4811.0
5427,127,33.0,0.4,4811.0,4812.0
5428,127,31.0,0.0,4812.0,4813.0
5429,127,26.0,0.3,4813.0,4813.333334
5430,127,31.0,0.0,4813.333334,4814.0
5431,127,26.0,0.6,4814.0,4814.666667
5432,127,21.0,0.4,4814.666667,4815.0
5433,127,26.0,0.2,4815.0,4816.0
5434,127,29.0,0.0,4816.0,4817.0
5435,127,33.0,0.0,4817.0,4817.333334
5436,127,29.0,0.0,4817.333334,4819.0
5437,127,35.0,0.8,4819.0,4820.0
5438,127,31.0,0.0,4820.0,4821.333334
5439,127,33.0,0.5,4821.333334,4822.0
5440,127,29.0,0.0,4822.0,4822.666667
5441,127,33.0,0.0,4822.666667,4823.0
5442,127,31.0,0.1,4823.0,4824.0
5443,127,34.0,0.0,4824.0,4825.0
5444,127,40.0,0.0,4825.0,4825.333334
5445,127,35.0,0.8,4825.333334,4826.0
5446,127,41.0,0.0,4826.0,4826.666667
5447,127,44.0,0.5,4826.666667,4827.0
5448,127,38.0,0.2,4827.0,4828.0
5449,127,39.0,0.2,4828.0,4829.0
5450,127,43.0,0.1,4829.0,4830.0
5451,127,46.0,0.0,4830.0,4830.666667
5452,127,47.0,0.6,4830.666667,4831.0
5453,127,45.0,0.5,4831.0,4832.0
5454,127,43.0,0.4,4832.0,4833.0
5455,127,46.0,0.1,4833.0,4833.333334
5456,127,47.0,0.5,4833.333334,4834.0
5457,127,45.0,0.0,4834.0,4834.666667
5458,127,48.0,0.5,4834.666667,4835.0
5459,127,52.0,0.6,4835.0,4836.0
5460,127,53.0,0.2,4836.0,4837.0
5461,127,57.0,0.5,4837.0,4840.0
5462,127,52.0,0.0,4840.0,4841.0
5463,127,46.0,0.4,4841.0,4841.333334
5464,127,50.0,0.0,4841.333334,4842.666667
5465,127,55.0,0.4,4842.666667,4843.0
5466,127,52.0,0.6,4843.0,4844.0
5467,127,57.0,0.4,4844.0,4846.0
5468,127,58.0,0.0,4846.0,4846.666667
5469,127,52.0,0.6,4846.666667,4848.0
5470,127,55.0,0.4,4848.0,4849.333334
5471,127,60.0,0.2,4849.333334,4850.0
5472,127,55.0,0.0,4850.0,4850.666667
5473,127,60.0,0.5,4850.666667,4852.0
5474,127,55.0,0.7,4852.0,4853.0
5475,127,60.0,0.2,4853.0,4853.333334
5476,127,55.0,0.4,4853.333334,4854.0
5477,127,60.0,0.5,4854.0,4854.666667
5478,127,62.0,0.9,4854.666667,4855.0
5479,127,64.0,0.6,4855.0,4856.0
5480,127,67.0,0.4,4856.0,4857.0
5481,127,69.0,0.0,4857.0,4857.333334
5482,127,64.0,0.6,4857.333334,4858.0
5483,127,60.0,0.2,4858.0,4858.666667
5484,127,65.0,0.0,4858.666667,4859.0
5485,127,69.0,0.4,4859.0,4860.0
5486,127,70.0,0.0,4860.0,4861.0
5487,127,68.0,0.0,4861.333334,4863.0
5488,127,65.0,0.0,4863.0,4865.333334
5489,127,67.0,0.4,4866.0,4866.666667
5490,127,64.0,0.0,4866.666667,4867.0
5491,127,59.0,0.8,4867.0,4868.0
5492,127,55.0,0.0,4868.0,4869.0
5493,127,53.0,0.0,4869.0,4869.333334
5494,127,56.0,0.0,4869.333334,4870.0
5495,127,53.0,0.3,4870.0,4870.666667
5496,127,52.0,0.7,4870.666667,4871.0
5497,127,55.0,0.4,4871.0,4872.0
5498,127,53.0,0.0,4872.0,4873.0
5499,127,56.0,0.0,4873.0,4873.333334
5500,127,59.0,0.8,4873.333334,4874.0
5501,127,57.0,0.8,4874.0,4874.666667
5502,127,55.0,0.4,4874.666667,4875.0
5503,127,50.0,0.2,4875.0,4876.0
5504,127,45.0,0.0,4876.0,4877.0
5505,127,43.0,0.4,4877.0,4878.666667
5506,127,45.0,0.4,4878.666667,4881.0
5507,127,44.0,0.0,4881.0,4882.0
5508,127,43.0,0.1,4882.0,4882.666667
5509,127,41.0,0.6,4882.666667,4883.0
5510,127,38.0,0.2,4883.0,4884.0
5511,127,33.0,0.2,4884.0,4885.333334
5512,127,36.0,0.8,4885.333334,4886.0
5513,127,34.0,0.0,4886.0,4886.666667
5514,127,32.0,0.5,4886.666667,4888.0
5515,127,29.0,0.0,4888.0,4889.333334
5516,127,35.0,0.8,4889.333334,4890.0
5517,127,40.0,0.0,4890.0,4890.666667
5518,127,41.0,0.0,4890.666667,4891.0
5519,127,40.0,0.6,4891.0,4892.0
5520,127,45.0,0.0,4892.0,4894.0
5521,127,46.0,0.1,4894.0,4894.666667
5522,127,47.0,0.9,4894.666667,4895.0
5523,127,43.0,0.0,4895.0,4896.0
5524,127,45.0,0.0,4896.0,4897.333334
5525,127,48.0,0.5,4897.333334,4898.666667
5526,127,53.0,0.3,4898.666667,4899.0
5527,127,55.0,0.0,4899.0,4900.0
5528,127,50.0,0.0,4900.0,4901.333334
5529,127,53.0,0.0,4901.333334,4902.0
5530,127,55.0,0.0,4902.0,4902.666667
5531,127,59.0,0.9,4902.666667,4903.0
5532,127,62.0,0.6,4903.0,4904.0
5533,127,60.0,0.2,4904.0,4905.0
5534,127,59.0,0.5,4905.0,4906.0
5535,127,53.0,0.3,4906.0,4906.666667
5536,127,52.0,0.0,4906.666667,4907.0
5537,127,57.0,0.4,4907.0,4908.0
5538,127,60.0,0.0,4908.0,4909.0
5539,127,62.0,0.6,4909.0,4909.333334
5540,127,65.0,0.0,4909.333334,4910.0
5541,127,67.0,0.7,4910.0,4910.666667
5542,127,62.0,0.2,4910.666667,4911.0
5543,127,65.0,0.0,4911.0,4912.0
5544,127,62.0,0.6,4912.0,4913.0
5545,127,65.0,0.6,4913.0,4913.333334
5546,127,69.0,0.0,4913.333334,4915.0
5547,127,71.0,0.6,4915.0,4916.0
5548,127,72.0,0.8,4916.0,4917.0
5549,127,77.0,0.0,4917.0,4917.333334
5550,127,82.0,0.4,4917.333334,4918.0
5551,127,77.0,0.3,4918.0,4919.0
5552,127,71.0,0.0,4920.0,4921.0
5553,127,67.0,0.4,4921.0,4921.333334
5554,127,64.0,0.6,4921.333334,4922.666667
5555,127,58.0,0.0,4922.666667,4923.0
5556,127,59.0,0.8,4923.0,4924.0
5557,127,60.0,0.3,4924.0,4925.0
5558,127,59.0,0.5,4925.0,4925.333334
5559,127,62.0,0.6,4925.333334,4926.0
5560,127,58.0,0.0,4926.0,4926.666667
5561,127,62.0,0.2,4926.666667,4928.0
5562,127,65.0,0.0,4928.0,4929.333334
5563,127,69.0,0.0,4929.333334,4930.0
5564,127,68.0,0.5,4930.0,4931.0
5565,127,62.0,0.2,4931.0,4932.0
5566,127,67.0,0.0,4932.0,4933.0
5567,127,69.0,0.5,4933.0,4933.333334
5568,127,64.0,0.0,4933.333334,4934.0
5569,127,69.0,0.8,4934.0,4936.0
5570,127,65.0,0.0,4936.0,4937.333334
5571,127,67.0,0.1,4937.333334,4938.0
5572,127,72.0,0.5,4938.0,4938.666667
5573,127,68.0,0.0,4938.666667,4939.0
5574,127,64.0,0.6,4939.0,4941.333334
5575,127,65.0,0.0,4941.333334,4942.0
5576,127,70.0,0.1,4942.0,4942.666667
5577,127,69.0,0.4,4942.666667,4943.0
5578,127,74.0,0.0,4943.0,4944.0
5579,127,77.0,0.3,4944.0,4945.0
5580,127,76.0,0.0,4945.0,4945.333334
5581,127,79.0,0.1,4945.333334,4946.0
5582,127,81.0,0.5,4946.0,4946.666667
5583,127,77.0,0.0,4946.666667,4947.0
5584,127,79.0,0.0,4947.0,4948.0
5585,127,80.0,0.0,4948.0,4949.0
5586,127,74.0,0.3,4949.0,4950.666667
5587,127,70.0,0.1,4950.666667,4951.0
5588,127,64.0,0.4,4951.0,4952.0
5589,127,67.0,0.0,4952.0,4953.0
5590,127,65.0,0.0,4953.0,4953.333334
5591,127,67.0,0.1,4953.333334,4954.0
5592,127,70.0,0.1,4954.0,4954.666667
5593,127,72.0,0.8,4954.666667,4955.0
5594,127,69.0,0.4,4955.0,4957.0
5595,127,64.0,0.7,4957.0,4957.333334
5596,127,69.0,0.8,4957.333334,4958.0
5597,127,65.0,0.0,4958.0,4959.0
5598,127,64.0,0.0,4960.0,4961.0
5599,127,65.0,0.0,4961.0,4961.333334
5600,127,70.0,0.4,4961.333334,4962.0
5601,127,69.0,0.5,4962.0,4964.0
5602,127,71.0,0.4,4964.0,4965.0
5603,127,74.0,0.6,4965.0,4965.333334
5604,127,79.0,0.7,4965.333334,4966.0
5605,127,82.0,0.0,4966.0,4966.666667
5606,127,76.0,0.0,4966.666667,4968.0
5607,127,70.0,0.0,4968.0,4969.333334
5608,127,67.0,0.0,4970.0,4970.666667
5609,127,72.0,0.5,4970.666667,4971.0
5610,127,71.0,0.8,4971.0,4972.0
5611,127,70.0,0.0,4972.0,4973.0
5612,127,65.0,0.0,4973.0,4973.333334
5613,127,69.0,0.8,4973.333334,4974.0
5614,127,64.0,0.7,4974.0,4974.666667
5615,127,62.0,0.2,4974.666667,4975.0
5616,127,59.0,0.8,4975.0,4976.0
5617,127,55.0,0.4,4976.0,4977.0
5618,127,57.0,0.0,4977.0,4977.333334
5619,127,60.0,0.2,4977.333334,4979.0
5620,127,62.0,0.2,4979.0,4980.0
5621,127,59.0,0.5,4980.0,4981.333334
5622,127,55.0,0.0,4981.333334,4982.0
5623,127,50.0,0.3,4982.0,4982.666667
5624,127,45.0,0.0,4982.666667,4983.0
5625,127,46.0,0.4,4983.0,4985.0
5626,127,47.0,0.5,4985.0,4985.333334
5627,127,52.0,0.6,4985.333334,4986.0
5628,127,55.0,0.7,4986.0,4986.666667
5629,127,58.0,0.1,4986.666667,4987.0
5630,127,52.0,0.6,4987.0,4988.0
5631,127,55.0,0.4,4988.0,4989.0
5632,127,60.0,0.2,4989.0,4989.333334
5633,127,62.0,0.0,4989.333334,4990.0
5634,127,60.0,0.5,4990.0,4990.666667
5635,127,65.0,0.0,4990.666667,4991.0
5636,127,68.0,0.0,4991.0,4992.0
5637,127,65.0,0.0,4992.0,4993.0
5638,127,67.0,0.4,4993.0,4994.0
5639,127,69.0,0.0,4994.0,4994.666667
5640,127,74.0,0.6,4994.666667,4995.0
5641,127,79.0,0.0,4995.0,4996.0
5642,127,80.0,0.0,4996.0,4997.0
5643,127,81.0,0.8,4997.0,4997.333334
5644,127,80.0,0.0,4997.333334,4998.0
5645,127,79.0,0.0,4998.0,4998.666667
5646,127,77.0,0.0,4998.666667,5000.0
5647,127,76.0,0.0,5000.0,5001.0
5648,127,79.0,0.1,5001.0,5002.666667
5649,127,84.0,0.8,5002.666667,5003.0
5650,127,79.0,0.0,5003.0,5004.0
5651,127,77.0,0.0,5004.0,5005.0
5652,127,74.0,0.9,5005.0,5005.333334
5653,127,72.0,0.2,5005.333334,5006.0
5654,127,70.0,0.0,5006.0,5006.666667
5655,127,69.0,0.4,5006.666667,5008.0
5656,127,65.0,0.0,5008.0,5009.333334
5657,127,67.0,0.4,5009.333334,5010.0
5658,127,64.0,0.0,5010.0,5010.666667
5659,127,67.0,0.7,5010.666667,5011.0
5660,127,64.0,0.6,5011.0,5012.0
5661,127,69.0,0.8,5012.0,5013.0
5662,127,65.0,0.3,5013.0,5014.666667
5663,127,68.0,0.0,5014.666667,5015.0
5664,127,71.0,0.8,5015.0,5016.0
5665,127,69.0,0.5,5016.0,5018.0
5666,127,74.0,0.9,5018.0,5018.666667
5667,127,70.0,0.4,5018.666667,5019.0
5668,127,74.0,0.2,5019.0,5020.0
5669,127,70.0,0.0,5020.0,5022.0
5670,127,72.0,0.5,5022.0,5024.0
5671,127,69.0,0.1,5024.0,5025.0
5672,127,68.0,0.5,5025.0,5026.0
5673,127,71.0,0.9,5026.0,5026.666667
5674,127,76.0,0.0,5026.666667,5027.0
5675,127,71.0,0.8,5027.0,5029.0
5676,127,72.0,0.5,5029.0,5029.333334
5677,127,68.0,0.0,5029.333334,5030.0
5678,127,65.0,0.0,5030.0,5030.666667
5679,127,69.0,0.8,5030.666667,5031.0
5680,127,70.0,0.1,5031.0,5033.0
5681,127,69.0,0.5,5033.0,5033.333334
5682,127,67.0,0.0,5033.333334,5034.0
5683,127,72.0,0.5,5034.0,5034.666667
5684,127,77.0,0.0,5034.666667,5035.0
5685,127,81.0,0.4,5035.0,5037.0
5686,127,82.0,0.1,5037.0,5038.0
5687,127,81.0,0.8,5038.0,5038.666667
5688,127,86.0,0.2,5038.666667,5040.0
5689,127,88.0,0.0,5040.0,5041.0
5690,127,93.0,0.5,5041.0,5042.0
5691,127,95.0,0.6,5042.0,5042.666667
5692,127,93.0,0.4,5042.666667,5044.0
5693,127,98.0,0.4,5044.0,5045.333334
5694,127,94.0,0.4,5045.333334,5046.666667
5695,127,93.0,0.5,5046.666667,5048.0
5696,127,88.0,0.1,5048.0,5050.666667
5697,127,89.0,0.0,5050.666667,5051.0
5698,127,91.0,0.0,5051.0,5052.0
5699,127,86.0,0.0,5052.0,5053.0
5700,127,91.0,0.7,5053.0,5053.333334
5701,127,93.0,0.8,5053.333334,5054.0
5702,127,91.0,0.4,5054.0,5054.666667
5703,127,89.0,0.0,5054.666667,5055.0
5704,127,86.0,0.2,5055.0,5056.0
5705,127,91.0,0.0,5056.0,5057.0
5706,127,93.0,0.0,5057.0,5057.333334
5707,127,89.0,0.6,5057.333334,5058.666667
5708,127,93.0,0.0,5058.666667,5059.0
5709,127,88.0,0.6,5059.0,5060.0
5710,127,91.0,0.0,5060.0,5062.0
5711,127,89.0,0.0,5062.0,5063.0
5712,127,86.0,0.9,5063.0,5064.0
5713,127,89.0,0.3,5064.0,5065.0
5714,127,88.0,0.0,5065.0,5066.0
5715,127,93.0,0.8,5066.0,5066.666667
5716,127,88.0,0.0,5066.666667,5067.0
5717,127,86.0,0.2,5067.0,5068.0
5718,127,91.0,0.4,5068.0,5069.0
5719,127,86.0,0.9,5069.0,5070.0
5720,127,89.0,0.0,5070.0,5070.666667
5721,127,91.0,0.0,5070.666667,5071.0
5722,127,96.0,0.5,5071.0,5072.0
5723,127,101.0,0.1,5072.0,5073.0
5724,127,95.0,0.9,5073.0,5073.333334
5725,127,94.0,0.4,5073.333334,5074.0
5726,127,93.0,0.0,5074.0,5075.0
5727,127,95.0,0.8,5075.0,5076.0
5728,127,89.0,0.0,5076.0,5077.0
5729,127,84.0,0.5,5077.0,5079.0
5730,127,80.0,0.0,5080.0,5081.0
5731,127,83.0,0.6,5081.0,5081.333334
5732,127,88.0,0.6,5081.333334,5082.666667
5733,127,89.0,0.0,5082.666667,5083.0
5734,127,83.0,0.8,5083.0,5084.0
5735,127,79.0,0.1,5084.0,5085.0
5736,127,81.0,0.0,5085.0,5086.0
5737,127,77.0,0.0,5086.0,5086.666667
5738,127,79.0,0.0,5086.666667,5088.0
5739,127,81.0,0.5,5088.0,5090.0
5740,127,77.0,0.0,5090.0,5090.666667
5741,127,81.0,0.5,5090.666667,5092.0
5742,127,82.0,0.2,5092.0,5093.0
5743,127,81.0,0.8,5093.0,5093.333334
5744,127,80.0,0.0,5093.333334,5094.0
5745,127,79.0,0.0,5094.0,5095.0
5746,127,76.0,0.6,5095.0,5096.0
5747,127,79.0,0.1,5096.0,5097.0
5748,127,81.0,0.0,5097.0,5097.333334
5749,127,86.0,0.0,5097.333334,5098.0
5750,127,89.0,0.0,5098.0,5098.666667
5751,127,94.0,0.4,5098.666667,5099.0
5752,127,91.0,0.0,5099.0,5100.0
5753,127,92.0,0.0,5100.0,5101.333334
5754,127,96.0,0.5,5101.333334,5102.0
5755,127,91.0,0.1,5102.0,5102.666667
5756,127,95.0,0.8,5102.666667,5103.0
5757,127,89.0,0.0,5103.0,5104.0
5758,127,93.0,0.3,5104.0,5105.0
5759,127,92.0,0.5,5105.0,5105.333334
5760,127,86.0,0.3,5105.333334,5106.666667
5761,127,82.0,0.0,5106.666667,5107.0
5762,127,76.0,0.6,5107.0,5109.0
5763,127,77.0,0.0,5109.0,5110.0
5764,127,79.0,0.4,5110.0,5111.0
5765,127,74.0,0.6,5111.0,5112.0
5766,127,71.0,0.4,5112.0,5113.0
5767,127,74.0,0.0,5113.0,5113.333334
5768,127,69.0,0.4,5113.333334,5114.0
5769,127,74.0,0.6,5114.0,5114.666667
5770,127,70.0,0.4,5114.666667,5115.0
5771,127,69.0,0.5,5115.0,5116.0
5772,127,64.0,0.3,5116.0,5117.0
5773,127,62.0,0.6,5117.0,5117.333334
5774,127,65.0,0.0,5117.333334,5118.0
5775,127,62.0,0.3,5118.0,5119.0
5776,127,64.0,0.0,5120.0,5121.0
5777,127,62.0,0.0,5121.0,5121.333334
5778,127,65.0,0.0,5121.333334,5122.666667
5779,127,60.0,0.5,5122.666667,5123.0
5780,127,62.0,0.2,5123.0,5124.0
5781,127,57.0,0.0,5124.0,5125.0
5782,127,56.0,0.5,5125.0,5125.333334
5783,127,53.0,0.0,5125.333334,5126.0
5784,127,57.0,0.4,5126.0,5127.0
5785,127,58.0,0.0,5128.0,5129.333334
5786,127,52.0,0.0,5130.0,5130.666667
5787,127,47.0,0.6,5130.666667,5132.0
5788,127,46.0,0.0,5132.0,5133.0
5789,127,48.0,0.2,5133.0,5133.333334
5790,127,43.0,0.0,5133.333334,5134.0
5791,127,47.0,0.9,5134.0,5135.0
5792,127,43.0,0.0,5135.0,5136.0
5793,127,44.0,0.0,5136.0,5137.0
5794,127,45.0,0.0,5137.0,5137.333334
5795,127,41.0,0.0,5137.333334,5138.666667
5796,127,40.0,0.7,5138.666667,5139.0
5797,127,45.0,0.4,5139.0,5140.0
5798,127,40.0,0.0,5140.0,5141.333334
5799,127,34.0,0.4,5141.333334,5142.0
5800,127,33.0,0.5,5142.0,5143.0
5801,127,31.0,0.4,5143.0,5144.0
5802,127,34.0,0.0,5144.0,5145.0
5803,127,33.0,0.5,5145.0,5145.333334
5804,127,28.0,0.6,5145.333334,5146.0
5805,127,24.0,0.2,5146.0,5146.666667
5806,127,23.0,0.5,5146.666667,5147.0
5807,127,19.0,0.0,5147.0,5148.0
5808,127,20.0,0.0,5148.0,5149.0
5809,127,19.0,0.4,5149.0,5149.333334
5810,127,23.0,0.8,5149.333334,5150.0
5811,127,21.0,0.4,5150.0,5150.666667
5812,127,22.0,0.4,5150.666667,5151.0
5813,127,17.0,0.0,5151.0,5152.0
5814,127,21.0,0.0,5152.0,5153.0
5815,127,16.0,0.4,5153.0,5153.333334
5816,127,11.0,0.5,5153.333334,5154.0
5817,127,9.0,0.0,5154.0,5154.666667
5818,127,14.0,0.3,5154.666667,5155.0
5819,127,11.0,0.9,5155.0,5156.0
5820,127,14.0,0.2,5156.0,5157.0
5821,127,17.0,0.0,5157.0,5157.333334
5822,127,14.0,0.6,5157.333334,5158.666667
5823,127,12.0,0.2,5158.666667,5161.0
5824,127,14.0,0.6,5161.0,5161.333334
5825,127,20.0,0.0,5161.333334,5162.666667
5826,127,17.0,0.0,5162.666667,5163.0
5827,127,16.0,0.6,5163.0,5164.0
5828,127,19.0,0.4,5164.0,5165.0
5829,127,24.0,0.5,5165.0,5165.333334
5830,127,21.0,0.0,5165.333334,5166.0
5831,127,19.0,0.4,5166.0,5166.666667
5832,127,23.0,0.8,5166.666667,5168.0
5833,127,24.0,0.0,5168.0,5169.333334
5834,127,21.0,0.8,5169.333334,5170.0
5835,127,19.0,0.4,5170.0,5170.666667
5836,127,21.0,0.4,5170.666667,5171.0
5837,127,26.0,0.2,5171.0,5172.0
5838,127,24.0,0.2,5172.0,5173.333334
5839,127,19.0,0.0,5173.333334,5174.0
5840,127,24.0,0.2,5174.0,5174.666667
5841,127,19.0,0.1,5174.666667,5175.0
5842,127,21.0,0.4,5175.0,5176.0
5843,127,22.0,0.1,5176.0,5177.0
5844,127,21.0,0.0,5177.0,5177.333334
5845,127,23.0,0.8,5177.333334,5178.0
5846,127,19.0,0.4,5178.0,5178.666667
5847,127,17.0,0.0,5178.666667,5179.0
5848,127,23.0,0.8,5179.0,5180.0
5849,127,19.0,0.0,5180.0,5182.0
5850,127,17.0,0.0,5182.0,5183.0
5851,127,20.0,0.0,5183.0,5184.0
5852,127,17.0,0.0,5184.0,5185.0
5853,127,16.0,0.0,5185.0,5187.0
5854,127,21.0,0.4,5187.0,5189.0
5855,127,19.0,0.7,5189.0,5189.333334
5856,127,17.0,0.0,5189.333334,5190.0
5857,127,19.0,0.0,5190.0,5190.666667
5858,127,17.0,0.3,5190.666667,5193.333334
5859,127,14.0,0.2,5193.333334,5194.666667
5860,127,17.0,0.3,5194.666667,5195.0
5861,127,19.0,0.0,5195.0,5196.0
5862,127,21.0,0.0,5196.0,5197.0
5863,127,17.0,0.3,5197.0,5197.333334
5864,127,19.0,0.1,5197.333334,5198.0
5865,127,17.0,0.0,5198.0,5198.666667
5866,127,19.0,0.0,5198.666667,5200.0
5867,127,16.0,0.0,5200.0,5201.0
5868,127,17.0,0.0,5201.0,5202.0
5869,127,14.0,0.6,5202.0,5202.666667
5870,127,9.0,0.5,5202.666667,5203.0
5871,127,7.0,0.0,5203.0,5204.0
5872,127,8.0,0.0,5204.0,5205.0
5873,127,12.0,0.5,5205.0,5205.333334
5874,127,9.0,0.5,5205.333334,5206.0
5875,127,7.0,0.0,5206.0,5206.666667
5876,127,8.0,0.5,5206.666667,5208.0
5877,127,7.0,0.1,5208.0,5209.333334
5878,127,4.0,0.6,5209.333334,5210.0
5879,127,7.0,0.0,5210.0,5210.666667
5880,127,9.0,0.0,5210.666667,5212.0
5881,127,7.0,0.4,5212.0,5213.0
5882,127,5.0,0.0,5213.0,5214.666667
5883,127,10.0,0.1,5214.666667,5215.0
5884,127,9.0,0.4,5215.0,5219.0
5885,127,11.0,0.8,5219.0,5220.0
5886,127,8.0,0.0,5220.0,5221.333334
5887,127,9.0,0.8,5221.333334,5222.0
5888,127,7.0,0.7,5222.0,5222.666667
5889,127,10.0,0.1,5222.666667,5223.0
5890,127,11.0,0.6,5223.0,5224.0
5891,127,7.0,0.7,5224.0,5225.0
5892,127,11.0,0.5,5225.0,5226.0
5893,127,12.0,0.5,5226.0,5226.666667
5894,127,16.0,0.0,5226.666667,5227.0
5895,127,14.0,0.2,5227.0,5228.0
5896,127,9.0,0.4,5228.0,5229.333334
5897,127,10.0,0.4,5229.333334,5230.0
5898,127,9.0,0.4,5230.0,5230.666667
5899,127,14.0,0.2,5230.666667,5232.0
5900,127,19.0,0.2,5232.0,5233.0
5901,127,14.0,0.6,5233.0,5233.333334
5902,127,20.0,0.5,5233.333334,5234.0
5903,127,21.0,0.0,5234.0,5234.666667
5904,127,22.0,0.0,5234.666667,5235.0
5905,127,28.0,0.6,5235.0,5236.0
5906,127,31.0,0.4,5236.0,5237.0
5907,127,36.0,0.2,5237.0,5237.333334
5908,127,31.0,0.4,5237.333334,5238.0
5909,127,36.0,0.5,5238.0,5239.0
5910,127,31.0,0.4,5240.0,5241.0
5911,127,26.0,0.9,5241.0,5241.333334
5912,127,23.0,0.8,5241.333334,5242.666667
5913,127,22.0,0.0,5242.666667,5243.0
5914,127,28.0,0.6,5243.0,5244.0
5915,127,29.0,0.0,5244.0,5245.333334
5916,127,31.0,0.4,5245.333334,5246.0
5917,127,32.0,0.0,5246.0,5246.666667
5918,127,35.0,0.8,5246.666667,5248.0
5919,127,41.0,0.0,5248.0,5249.333334
5920,127,45.0,0.0,5249.333334,5250.0
5921,127,40.0,0.0,5250.0,5251.0
5922,127,43.0,0.0,5251.0,5252.0
5923,127,44.0,0.0,5252.0,5253.0
5924,127,40.0,0.7,5253.0,5253.333334
5925,127,46.0,0.4,5253.333334,5254.0
5926,127,41.0,0.0,5254.0,5255.0
5927,127,35.0,0.8,5255.0,5256.0
5928,127,31.0,0.0,5256.0,5257.0
5929,127,33.0,0.0,5257.0,5257.333334
5930,127,38.0,0.9,5257.333334,5258.0
5931,127,43.0,0.7,5258.0,5258.666667
5932,127,45.0,0.8,5258.666667,5261.333334
5933,127,48.0,0.2,5261.333334,5262.0
5934,127,53.0,0.6,5262.0,5262.666667
5935,127,55.0,0.0,5262.666667,5263.0
5936,127,57.0,0.5,5263.0,5264.0
5937,127,56.0,0.0,5264.0,5265.333334
5938,127,50.0,0.9,5265.333334,5266.0
5939,127,53.0,0.0,5266.0,5266.666667
5940,127,55.0,0.0,5266.666667,5267.0
5941,127,59.0,0.8,5267.0,5268.0
5942,127,53.0,0.0,5268.0,5269.0
5943,127,57.0,0.5,5269.0,5270.666667
5944,127,59.0,0.9,5270.666667,5272.0
5945,127,57.0,0.0,5272.0,5273.0
5946,127,60.0,0.5,5273.0,5273.333334
5947,127,55.0,0.4,5273.333334,5274.0
5948,127,53.0,0.3,5274.0,5274.666667
5949,127,57.0,0.8,5274.666667,5275.0
5950,127,62.0,0.2,5275.0,5276.0
5951,127,60.0,0.0,5276.0,5277.0
5952,127,59.0,0.9,5277.0,5278.0
5953,127,60.0,0.2,5278.0,5279.0
5954,127,64.0,0.0,5280.0,5281.0
5955,127,60.0,0.5,5281.0,5281.333334
5956,127,59.0,0.6,5281.333334,5282.0
5957,127,53.0,0.0,5282.0,5283.0
5958,127,50.0,0.2,5283.0,5285.0
5959,127,45.0,0.0,5285.0,5285.333334
5960,127,50.0,0.0,5285.333334,5286.0
5961,127,45.0,0.4,5286.0,5286.666667
5962,127,44.0,0.0,5286.666667,5288.0
5963,127,41.0,0.0,5288.0,5289.333334
5964,127,47.0,0.5,5290.0,5290.666667
5965,127,43.0,0.1,5290.666667,5291.0
5966,127,40.0,0.6,5291.0,5292.0
5967,127,46.0,0.0,5292.0,5293.0
5968,127,50.0,0.3,5293.0,5293.333334
5969,127,53.0,0.0,5293.333334,5294.0
5970,127,50.0,0.6,5294.0,5297.0
5971,127,45.0,0.0,5297.0,5299.0
5972,127,43.0,0.0,5299.0,5300.0
5973,127,40.0,0.0,5300.0,5301.0
5974,127,43.0,0.1,5301.333334,5302.0
5975,127,41.0,0.0,5302.0,5302.666667
5976,127,45.0,0.0,5302.666667,5303.0
5977,127,43.0,0.1,5303.0,5304.0
5978,127,41.0,0.0,5304.0,5305.0
5979,127,40.0,0.0,5305.0,5305.333334
5980,127,35.0,0.8,5305.333334,5306.0
5981,127,41.0,0.0,5306.0,5307.0
5982,127,45.0,0.4,5307.0,5308.0
5983,127,41.0,0.3,5308.0,5309.0
5984,127,43.0,0.1,5309.0,5310.0
5985,127,41.0,0.0,5310.0,5311.0
5986,127,45.0,0.5,5311.0,5312.0
5987,127,44.0,0.0,5312.0,5313.0
5988,127,46.0,0.1,5313.0,5313.333334
5989,127,43.0,0.4,5313.333334,5314.0
5990,127,45.0,0.0,5314.0,5314.666667
5991,127,44.0,0.0,5314.666667,5315.0
5992,127,43.0,0.1,5315.0,5316.0
5993,127,45.0,0.4,5316.0,5317.333334
5994,127,46.0,0.4,5317.333334,5318.0
5995,127,45.0,0.8,5318.0,5318.666667
5996,127,41.0,0.0,5318.666667,5320.0
5997,127,43.0,0.0,5320.0,5321.0
5998,127,46.0,0.4,5321.0,5321.333334
5999,127,50.0,0.6,5321.333334,5322.666667
6000,127,44.0,0.0,5322.666667,5323.0
6001,127,47.0,0.8,5323.0,5324.0
6002,127,43.0,0.0,5324.0,5325.0
6003,127,40.0,0.0,5325.0,5325.333334
6004,127,43.0,0.4,5325.333334,5326.0
6005,127,46.0,0.0,5326.0,5326.666667
6006,127,43.0,0.0,5326.666667,5328.0
6007,127,48.0,0.5,5328.0,5329.333334
6008,127,50.0,0.6,5329.333334,5330.0
6009,127,45.0,0.8,5330.0,5330.666667
6010,127,50.0,0.3,5330.666667,5332.0
6011,127,48.0,0.5,5332.0,5333.333334
6012,127,43.0,0.0,5333.333334,5334.0
6013,127,48.0,0.5,5334.0,5334.666667
6014,127,50.0,0.0,5334.666667,5335.0
6015,127,52.0,0.6,5335.0,5336.0
6016,127,56.0,0.0,5336.0,5337.0
6017,127,57.0,0.0,5337.0,5337.333334
6018,127,55.0,0.0,5337.333334,5338.0
6019,127,57.0,0.8,5338.0,5338.666667
6020,127,56.0,0.0,5338.666667,5339.0
6021,127,52.0,0.6,5339.0,5340.0
6022,127,58.0,0.1,5340.0,5341.0
6023,127,55.0,0.0,5341.333334,5342.0
6024,127,50.0,0.0,5342.0,5343.0
6025,127,53.0,0.0,5343.0,5344.0
6026,127,56.0,0.0,5344.0,5345.0
6027,127,55.0,0.1,5345.0,5346.0
6028,127,50.0,0.6,5346.0,5346.666667
6029,127,52.0,0.0,5346.666667,5347.0
6030,127,55.0,0.0,5347.0,5348.0
6031,127,57.0,0.0,5348.0,5349.0
6032,127,53.0,0.0,5349.0,5349.333334
6033,127,55.0,0.0,5349.333334,5350.0
6034,127,59.0,0.8,5350.0,5350.666667
6035,127,60.0,0.2,5350.666667,5351.0
6036,127,55.0,0.4,5351.0,5352.0
6037,127,59.0,0.8,5352.0,5353.0
6038,127,56.0,0.0,5353.0,5353.333334
6039,127,57.0,0.4,5353.333334,5354.0
6040,127,60.0,0.2,5354.0,5354.666667
6041,127,55.0,0.1,5354.666667,5355.0
6042,127,57.0,0.4,5355.0,5357.0
6043,127,55.0,0.4,5357.0,5358.666667
6044,127,59.0,0.8,5358.666667,5360.0
6045,127,53.0,0.0,5360.0,5361.0
6046,127,56.0,0.0,5361.0,5362.0
6047,127,50.0,0.9,5362.0,5362.666667
6048,127,45.0,0.4,5362.666667,5364.0
6049,127,46.0,0.4,5364.0,5365.333334
6050,127,41.0,0.0,5365.333334,5366.0
6051,127,46.0,0.0,5366.0,5366.666667
6052,127,47.0,0.5,5366.666667,5368.0
6053,127,45.0,0.8,5368.0,5369.333334
6054,127,50.0,0.2,5369.333334,5370.0
6055,127,52.0,0.0,5370.0,5370.666667
6056,127,46.0,0.1,5370.666667,5371.0
6057,127,47.0,0.8,5371.0,5372.0
6058,127,44.0,0.0,5372.0,5373.0
6059,127,45.0,0.8,5373.0,5373.333334
6060,127,43.0,0.0,5373.333334,5374.0
6061,127,46.0,0.1,5374.0,5374.666667
6062,127,41.0,0.0,5374.666667,5375.0
6063,127,43.0,0.0,5375.0,5376.0
6064,127,41.0,0.0,5376.0,5377.0
6065,127,45.0,0.0,5377.0,5377.333334
6066,127,40.0,0.4,5377.333334,5378.666667
6067,127,45.0,0.0,5378.666667,5379.0
6068,127,50.0,0.2,5379.0,5380.0
6069,127,52.0,0.0,5380.0,5381.333334
6070,127,53.0,0.6,5381.333334,5382.0
6071,127,57.0,0.4,5382.0,5382.666667
6072,127,53.0,0.0,5382.666667,5383.0
6073,127,50.0,0.6,5383.0,5384.0
6074,127,47.0,0.4,5384.0,5385.0
6075,127,45.0,0.5,5385.0,5386.0
6076,127,40.0,0.7,5386.0,5388.0
6077,127,38.0,0.0,5388.0,5390.0
6078,127,33.0,0.8,5390.0,5390.666667
6079,127,28.0,0.6,5390.666667,5391.0
6080,127,29.0,0.0,5391.0,5392.0
6081,127,31.0,0.4,5392.0,5393.0
6082,127,29.0,0.6,5393.0,5394.0
6083,127,33.0,0.0,5394.0,5394.666667
6084,127,34.0,0.0,5394.666667,5395.0
6085,127,31.0,0.0,5395.0,5397.0
6086,127,29.0,0.0,5397.0,5397.333334
6087,127,24.0,0.5,5397.333334,5398.0
6088,127,29.0,0.3,5398.0,5399.0
6089,127,28.0,0.0,5400.0,5401.0
6090,127,31.0,0.4,5401.0,5402.666667
6091,127,32.0,0.0,5402.666667,5403.0
6092,127,31.0,0.0,5403.0,5404.0
6093,127,29.0,0.5,5404.0,5405.0
6094,127,34.0,0.4,5405.0,5405.333334
6095,127,36.0,0.2,5405.333334,5406.0
6096,127,33.0,0.5,5406.0,5406.666667
6097,127,31.0,0.0,5406.666667,5408.0
6098,127,29.0,0.0,5408.0,5409.333334
6099,127,33.0,0.0,5409.333334,5410.0
6100,127,32.0,0.5,5410.0,5410.666667
6101,127,38.0,0.6,5410.666667,5411.0
6102,127,40.0,0.6,5411.0,5412.0
6103,127,41.0,0.0,5412.0,5413.0
6104,127,45.0,0.5,5413.0,5413.333334
6105,127,44.0,0.0,5413.333334,5414.0
6106,127,45.0,0.8,5414.0,5415.0
6107,127,43.0,0.0,5415.0,5416.0
6108,127,41.0,0.0,5416.0,5417.0
6109,127,45.0,0.0,5417.0,5417.333334
6110,127,44.0,0.0,5417.333334,5418.0
6111,127,45.0,0.5,5418.0,5418.666667
6112,127,43.0,0.4,5418.666667,5419.0
6113,127,38.0,0.2,5419.0,5420.0
6114,127,40.0,0.0,5420.0,5421.333334
6115,127,41.0,0.6,5421.333334,5422.0
6116,127,47.0,0.9,5422.0,5423.0
6117,127,50.0,0.0,5423.0,5424.0
6118,127,45.0,0.0,5424.0,5425.0
6119,127,40.0,0.0,5425.0,5425.333334
6120,127,43.0,0.7,5425.333334,5426.0
6121,127,48.0,0.5,5426.0,5426.666667
6122,127,46.0,0.1,5426.666667,5427.0
6123,127,47.0,0.8,5427.0,5428.0
6124,127,41.0,0.3,5428.0,5429.0
6125,127,38.0,0.3,5429.0,5429.333334
6126,127,41.0,0.0,5429.333334,5430.0
6127,127,46.0,0.0,5430.0,5431.0
6128,127,40.0,0.4,5431.0,5432.0
6129,127,41.0,0.0,5432.0,5433.333334
6130,127,38.0,0.2,5433.333334,5434.0
6131,127,35.0,0.9,5434.0,5434.666667
6132,127,41.0,0.3,5434.666667,5435.0
6133,127,45.0,0.4,5435.0,5436.0
6134,127,46.0,0.4,5436.0,5437.0
6135,127,40.0,0.7,5437.0,5437.333334
6136,127,41.0,0.0,5437.333334,5439.0
6137,127,40.0,0.0,5440.0,5441.0
6138,127,41.0,0.0,5441.0,5442.0
6139,127,36.0,0.5,5442.0,5442.666667
6140,127,31.0,0.4,5442.666667,5443.0
6141,127,33.0,0.4,5443.0,5444.0
6142,127,29.0,0.0,5444.0,5445.333334
6143,127,27.0,0.2,5445.333334,5446.0
6144,127,22.0,0.0,5446.0,5446.666667
6145,127,21.0,0.0,5446.666667,5448.0
6146,127,23.0,0.0,5448.0,5449.333334
6147,127,19.0,0.0,5450.0,5452.0
6148,127,20.0,0.0,5452.0,5453.0
6149,127,17.0,0.0,5453.0,5453.333334
6150,127,19.0,0.0,5453.333334,5454.0
6151,127,16.0,0.7,5454.0,5456.0
6152,127,21.0,0.4,5456.0,5457.333334
6153,127,17.0,0.0,5457.333334,5459.0
6154,127,16.0,0.6,5459.0,5460.0
6155,127,11.0,0.5,5460.0,5461.333334
6156,127,9.0,0.5,5461.333334,5462.0
6157,127,11.0,0.8,5462.0,5462.666667
6158,127,9.0,0.0,5462.666667,5463.0
6159,127,10.0,0.4,5463.0,5465.0
6160,127,11.0,0.5,5465.0,5465.333334
6161,127,7.0,0.0,5465.333334,5466.0
6162,127,2.0,0.3,5466.0,5466.666667
6163,127,8.0,0.0,5466.666667,5467.0
6164,127,14.0,0.2,5467.0,5469.0
6165,127,12.0,0.2,5469.0,5469.333334
6166,127,7.0,0.0,5469.333334,5470.0
6167,127,12.0,0.5,5470.0,5470.666667
6168,127,11.0,0.6,5470.666667,5471.0
6169,127,8.0,0.0,5471.0,5472.0
6170,127,5.0,0.0,5472.0,5473.0
6171,127,7.0,0.4,5473.0,5473.333334
6172,127,11.0,0.5,5473.333334,5474.0
6173,127,9.0,0.0,5474.0,5475.0
6174,127,11.0,0.8,5475.0,5476.0
6175,127,12.0,0.4,5476.0,5477.0
6176,127,9.0,0.8,5477.0,5479.0
6177,127,7.0,0.0,5480.0,5481.333334
6178,127,2.0,0.0,5481.333334,5482.666667
6179,127,-1.0,0.9,5482.666667,5484.0
6180,127,5.0,0.0,5484.0,5485.0
6181,127,9.0,0.0,5485.0,5486.0
6182,127,7.0,0.1,5486.0,5486.666667
6183,127,11.0,0.8,5486.666667,5488.0
6184,127,17.0,0.0,5488.0,5489.333334
6185,127,12.0,0.2,5489.333334,5490.0
6186,127,16.0,0.0,5490.0,5490.666667
6187,127,21.0,0.4,5490.666667,5492.0
6188,127,17.0,0.0,5492.0,5493.333334
6189,127,19.0,0.0,5493.333334,5494.0
6190,127,17.0,0.0,5494.0,5494.666667
6191,127,14.0,0.9,5494.666667,5496.0
6192,127,17.0,0.3,5496.0,5497.0
6193,127,21.0,0.0,5497.0,5497.333334
6194,127,23.0,0.8,5497.333334,5498.0
6195,127,19.0,0.1,5498.0,5498.666667
6196,127,23.0,0.9,5498.666667,5499.0
6197,127,19.0,0.0,5499.0,5500.0
6198,127,23.0,0.0,5500.0,5501.333334
6199,127,22.0,0.0,5501.333334,5502.0
6200,127,21.0,0.5,5502.0,5503.0
6201,127,24.0,0.5,5503.0,5504.0
6202,127,29.0,0.0,5504.0,5505.0
6203,127,32.0,0.5,5505.0,5506.0
6204,127,34.0,0.1,5506.0,5506.666667
6205,127,40.0,0.0,5506.666667,5508.0
6206,127,38.0,0.0,5508.0,5509.0
6207,127,36.0,0.5,5509.0,5510.0
6208,127,41.0,0.0,5510.0,5510.666667
6209,127,40.0,0.7,5510.666667,5511.0
6210,127,46.0,0.1,5511.0,5512.0
6211,127,41.0,0.0,5512.0,5513.0
6212,127,45.0,0.5,5513.0,5513.333334
6213,127,50.0,0.2,5513.333334,5514.666667
6214,127,55.0,0.4,5514.666667,5515.0
6215,127,53.0,0.0,5515.0,5516.0
6216,127,57.0,0.0,5516.0,5517.0
6217,127,58.0,0.1,5517.0,5517.333334
6218,127,62.0,0.3,5517.333334,5518.0
6219,127,57.0,0.8,5518.0,5518.666667
6220,127,52.0,0.6,5518.666667,5521.0
6221,127,57.0,0.5,5521.0,5522.0
6222,127,58.0,0.4,5522.0,5522.666667
6223,127,55.0,0.4,5522.666667,5523.0
6224,127,50.0,0.2,5523.0,5524.0
6225,127,45.0,0.2,5524.0,5525.0
6226,127,44.0,0.5,5525.0,5525.333334
6227,127,46.0,0.4,5525.333334,5526.666667
6228,127,44.0,0.5,5526.666667,5528.0
6229,127,41.0,0.0,5528.0,5529.333334
6230,127,43.0,0.0,5529.333334,5530.0
6231,127,41.0,0.6,5530.0,5530.666667
6232,127,44.0,0.0,5530.666667,5531.0
6233,127,47.0,0.8,5531.0,5532.0
6234,127,46.0,0.0,5532.0,5533.0
6235,127,43.0,0.7,5533.0,5533.333334
6236,127,38.0,0.2,5533.333334,5534.0
6237,127,43.0,0.4,5534.0,5534.666667
6238,127,47.0,0.9,5534.666667,5536.0
6239,127,53.0,0.0,5536.0,5537.0
6240,127,57.0,0.0,5537.0,5537.333334
6241,127,60.0,0.5,5537.333334,5538.666667
6242,127,64.0,0.7,5538.666667,5539.0
6243,127,69.0,0.4,5539.0,5540.0
6244,127,65.0,0.0,5540.0,5542.666667
6245,127,59.0,0.9,5542.666667,5543.0
6246,127,62.0,0.9,5543.0,5544.0
6247,127,57.0,0.2,5544.0,5545.0
6248,127,52.0,0.0,5545.0,5546.0
6249,127,48.0,0.2,5546.0,5546.666667
6250,127,52.0,0.0,5546.666667,5547.0
6251,127,55.0,0.0,5547.0,5548.0
6252,127,56.0,0.0,5548.0,5549.0
6253,127,50.0,0.9,5549.0,5549.333334
6254,127,53.0,0.0,5549.333334,5550.0
6255,127,55.0,0.0,5550.0,5550.666667
6256,127,57.0,0.4,5550.666667,5551.0
6257,127,60.0,0.5,5551.0,5552.0
6258,127,57.0,0.4,5552.0,5553.0
6259,127,59.0,0.9,5553.0,5553.333334
6260,127,53.0,0.6,5553.333334,5554.0
6261,127,57.0,0.0,5554.0,5554.666667
6262,127,58.0,0.0,5554.666667,5555.0
6263,127,55.0,0.4,5555.0,5556.0
6264,127,57.0,0.8,5556.0,5557.0
6265,127,60.0,0.5,5557.0,5557.333334
6266,127,62.0,0.0,5557.333334,5558.0
6267,127,59.0,0.8,5558.0,5559.0
6268,127,64.0,0.0,5560.0,5561.0
6269,127,59.0,0.6,5561.0,5562.666667
6270,127,57.0,0.4,5562.666667,5563.0
6271,127,52.0,0.6,5563.0,5564.0
6272,127,50.0,0.0,5564.0,5565.0
6273,127,44.0,0.0,5565.0,5565.333334
6274,127,50.0,0.6,5565.333334,5566.0
6275,127,53.0,0.0,5566.0,5566.666667
6276,127,59.0,0.8,5566.666667,5568.0
6277,127,55.0,0.0,5568.0,5569.333334
6278,127,57.0,0.0,5569.333334,5570.0
6279,127,53.0,0.0,5570.0,5571.0
6280,127,50.0,0.2,5571.0,5573.0
6281,127,45.0,0.8,5573.0,5573.333334
6282,127,43.0,0.0,5573.333334,5574.0
6283,127,45.0,0.4,5574.0,5576.0
6284,127,43.0,0.0,5576.0,5577.0
6285,127,45.0,0.0,5577.0,5577.333334
6286,127,43.0,0.1,5577.333334,5578.0
6287,127,41.0,0.0,5578.0,5578.666667
6288,127,43.0,0.0,5578.666667,5579.0
6289,127,47.0,0.8,5579.0,5580.0
6290,127,41.0,0.0,5580.0,5582.0
6291,127,43.0,0.1,5582.0,5582.666667
6292,127,40.0,0.6,5582.666667,5583.0
6293,127,41.0,0.0,5583.0,5584.0
6294,127,44.0,0.0,5584.0,5585.0
6295,127,43.0,0.4,5585.0,5586.0
6296,127,44.0,0.0,5586.0,5586.666667
6297,127,41.0,0.3,5586.666667,5587.0
6298,127,45.0,0.4,5587.0,5588.0
6299,127,46.0,0.4,5588.0,5589.0
6300,127,41.0,0.0,5589.0,5589.333334
6301,127,44.0,0.0,5589.333334,5590.0
6302,127,43.0,0.0,5590.0,5590.666667
6303,127,46.0,0.1,5590.666667,5591.0
6304,127,50.0,0.6,5591.0,5592.0
6305,127,44.0,0.0,5592.0,5593.0
6306,127,50.0,0.0,5593.0,5593.333334
6307,127,55.0,0.0,5593.333334,5594.666667
6308,127,56.0,0.0,5594.666667,5595.0
6309,127,55.0,0.0,5595.0,5597.0
6310,127,50.0,0.6,5597.0,5597.333334
6311,127,55.0,0.0,5597.333334,5598.0
6312,127,50.0,0.3,5598.0,5599.0
6313,127,52.0,0.0,5600.0,5601.0
6314,127,50.0,0.0,5601.0,5601.333334
6315,127,46.0,0.4,5601.333334,5602.0
6316,127,44.0,0.0,5602.0,5603.0
6317,127,43.0,0.0,5603.0,5608.0
6318,127,44.0,0.0,5608.0,5609.333334
6319,127,40.0,0.0,5610.0,5610.666667
6320,127,44.0,0.0,5610.666667,5611.0
6321,127,45.0,0.4,5611.0,5612.0
6322,127,43.0,0.0,5612.0,5613.0
6323,127,48.0,0.2,5613.0,5613.333334
6324,127,47.0,0.5,5613.333334,5614.666667
6325,127,52.0,0.6,5614.666667,5615.0
6326,127,57.0,0.4,5615.0,5616.0
6327,127,55.0,0.1,5616.0,5617.0
6328,127,57.0,0.0,5617.0,5617.333334
6329,127,60.0,0.2,5617.333334,5618.666667
6330,127,57.0,0.4,5618.666667,5619.0
6331,127,59.0,0.8,5619.0,5621.333334
6332,127,58.0,0.4,5621.333334,5622.0
6333,127,57.0,0.4,5622.0,5623.0
6334,127,55.0,0.4,5623.0,5624.0
6335,127,60.0,0.0,5624.0,5625.0
6336,127,59.0,0.5,5625.0,5625.333334
6337,127,62.0,0.2,5625.333334,5626.0
6338,127,57.0,0.8,5626.0,5626.666667
6339,127,60.0,0.2,5626.666667,5627.0
6340,127,62.0,0.2,5627.0,5628.0
6341,127,58.0,0.1,5628.0,5629.0
6342,127,55.0,0.4,5629.0,5629.333334
6343,127,56.0,0.0,5629.333334,5630.0
6344,127,55.0,0.0,5630.0,5630.666667
6345,127,53.0,0.0,5630.666667,5633.0
6346,127,52.0,0.4,5633.0,5633.333334
6347,127,56.0,0.5,5633.333334,5634.0
6348,127,57.0,0.0,5634.0,5634.666667
6349,127,55.0,0.4,5634.666667,5635.0
6350,127,52.0,0.6,5635.0,5636.0
6351,127,53.0,0.6,5636.0,5637.333334
6352,127,57.0,0.0,5637.333334,5638.0
6353,127,59.0,0.8,5638.0,5638.666667
6354,127,53.0,0.0,5638.666667,5640.0
6355,127,52.0,0.0,5640.0,5641.0
6356,127,50.0,0.6,5641.0,5641.333334
6357,127,55.0,0.4,5641.333334,5642.666667
6358,127,60.0,0.8,5642.666667,5643.0
6359,127,64.0,0.6,5643.0,5644.0
6360,127,60.0,0.0,5644.0,5645.333334
6361,127,57.0,0.8,5645.333334,5646.0
6362,127,58.0,0.0,5646.0,5646.666667
6363,127,57.0,0.4,5646.666667,5648.0
6364,127,60.0,0.5,5648.0,5649.333334
6365,127,55.0,0.4,5649.333334,5650.0
6366,127,52.0,0.0,5650.0,5650.666667
6367,127,55.0,0.7,5650.666667,5652.0
6368,127,56.0,0.0,5652.0,5653.0
6369,127,60.0,0.5,5653.0,5653.333334
6370,127,64.0,0.0,5653.333334,5654.0
6371,127,60.0,0.2,5654.0,5654.666667
6372,127,56.0,0.0,5654.666667,5655.0
6373,127,55.0,0.0,5655.0,5656.0
6374,127,53.0,0.0,5656.0,5657.0
6375,127,57.0,0.0,5657.0,5658.0
6376,127,62.0,0.6,5658.0,5658.666667
6377,127,58.0,0.4,5658.666667,5659.0
6378,127,57.0,0.4,5659.0,5660.0
6379,127,56.0,0.0,5660.0,5661.0
6380,127,58.0,0.0,5661.333334,5662.0
6381,127,53.0,0.0,5662.0,5663.0
6382,127,56.0,0.0,5663.0,5664.0
6383,127,53.0,0.0,5664.0,5665.0
6384,127,52.0,0.0,5665.0,5666.0
6385,127,53.0,0.6,5666.0,5666.666667
6386,127,52.0,0.0,5666.666667,5667.0
6387,127,47.0,0.8,5667.0,5668.0
6388,127,45.0,0.0,5668.0,5669.0
6389,127,43.0,0.7,5669.0,5670.0
6390,127,46.0,0.1,5670.0,5670.666667
6391,127,45.0,0.8,5670.666667,5671.0
6392,127,41.0,0.6,5671.0,5673.333334
6393,127,45.0,0.4,5673.333334,5674.666667
6394,127,41.0,0.0,5674.666667,5675.0
6395,127,38.0,0.2,5675.0,5676.0
6396,127,41.0,0.0,5676.0,5678.666667
6397,127,40.0,0.6,5678.666667,5681.0
6398,127,41.0,0.0,5681.0,5682.0
6399,127,43.0,0.4,5682.0,5682.666667
6400,127,48.0,0.5,5682.666667,5683.0
6401,127,50.0,0.2,5683.0,5685.0
6402,127,45.0,0.0,5685.0,5685.333334
6403,127,48.0,0.2,5685.333334,5686.0
6404,127,46.0,0.0,5686.0,5686.666667
6405,127,45.0,0.5,5686.666667,5688.0
6406,127,41.0,0.1,5688.0,5689.333334
6407,127,38.0,0.2,5689.333334,5690.0
6408,127,43.0,0.0,5690.0,5690.666667
6409,127,41.0,0.0,5690.666667,5691.0
6410,127,40.0,0.6,5691.0,5692.0
6411,127,38.0,0.5,5692.0,5693.0
6412,127,41.0,0.0,5693.0,5693.333334
6413,127,45.0,0.8,5693.333334,5694.0
6414,127,41.0,0.3,5694.0,5695.0
6415,127,40.0,0.6,5695.0,5696.0
6416,127,35.0,0.5,5696.0,5697.0
6417,127,33.0,0.0,5697.0,5697.333334
6418,127,29.0,0.6,5697.333334,5698.666667
6419,127,33.0,0.0,5698.666667,5699.0
6420,127,31.0,0.0,5699.0,5700.0
6421,127,32.0,0.0,5700.0,5701.333334
6422,127,31.0,0.1,5701.333334,5702.666667
6423,127,29.0,0.0,5702.666667,5703.0
6424,127,35.0,0.6,5703.0,5704.0
6425,127,41.0,0.0,5704.0,5705.0
6426,127,47.0,0.5,5705.0,5706.0
6427,127,45.0,0.5,5706.0,5706.666667
6428,127,47.0,0.5,5706.666667,5707.0
6429,127,45.0,0.4,5707.0,5708.0
6430,127,43.0,0.4,5708.0,5710.0
6431,127,48.0,0.5,5710.0,5710.666667
6432,127,47.0,0.8,5710.666667,5711.0
6433,127,50.0,0.0,5711.0,5712.0
6434,127,45.0,0.5,5712.0,5713.0
6435,127,50.0,0.6,5713.0,5713.333334
6436,127,45.0,0.0,5713.333334,5714.666667
6437,127,46.0,0.0,5714.666667,5715.0
6438,127,47.0,0.8,5715.0,5716.0
6439,127,45.0,0.5,5716.0,5717.0
6440,127,48.0,0.2,5717.0,5717.333334
6441,127,45.0,0.5,5717.333334,5719.0
6442,127,44.0,0.0,5720.0,5721.0
6443,127,38.0,0.9,5721.0,5721.333334
6444,127,33.0,0.4,5721.333334,5722.666667
6445,127,34.0,0.1,5722.666667,5723.0
6446,127,35.0,0.8,5723.0,5724.0
6447,127,33.0,0.5,5724.0,5725.0
6448,127,35.0,0.5,5725.0,5725.333334
6449,127,31.0,0.0,5725.333334,5726.0
6450,127,34.0,0.0,5726.0,5727.0
6451,127,29.0,0.0,5728.0,5729.333334
6452,127,33.0,0.0,5729.333334,5730.0
6453,127,28.0,0.0,5730.0,5730.666667
6454,127,24.0,0.5,5730.666667,5731.0
6455,127,26.0,0.2,5731.0,5732.0
6456,127,31.0,0.0,5732.0,5733.0
6457,127,28.0,0.7,5733.0,5733.333334
6458,127,32.0,0.0,5733.333334,5734.0
6459,127,29.0,0.0,5734.0,5735.0
6460,127,26.0,0.2,5735.0,5736.0
6461,127,22.0,0.1,5736.0,5737.0
6462,127,21.0,0.0,5737.0,5737.333334
6463,127,26.0,0.0,5737.333334,5738.666667
6464,127,24.0,0.8,5738.666667,5739.0
6465,127,28.0,0.6,5739.0,5741.333334
6466,127,33.0,0.5,5741.333334,5742.0
6467,127,31.0,0.4,5742.0,5742.666667
6468,127,28.0,0.6,5742.666667,5743.0
6469,127,33.0,0.5,5743.0,5745.0
6470,127,32.0,0.5,5745.0,5745.333334
6471,127,38.0,0.3,5745.333334,5746.0
6472,127,41.0,0.0,5746.0,5746.666667
6473,127,45.0,0.4,5746.666667,5747.0
6474,127,43.0,0.0,5747.0,5748.0
6475,127,40.0,0.0,5748.0,5749.0
6476,127,45.0,0.5,5749.0,5750.0
6477,127,50.0,0.2,5750.0,5750.666667
6478,127,53.0,0.0,5750.666667,5751.0
6479,127,59.0,0.9,5751.0,5752.0
6480,127,58.0,0.1,5752.0,5753.0
6481,127,60.0,0.5,5753.0,5753.333334
6482,127,62.0,0.0,5753.333334,5754.0
6483,127,64.0,0.7,5754.0,5754.666667
6484,127,69.0,0.8,5754.666667,5755.0
6485,127,65.0,0.0,5755.0,5756.0
6486,127,64.0,0.7,5756.0,5757.0
6487,127,59.0,0.9,5757.0,5757.333334
6488,127,53.0,0.0,5757.333334,5758.0
6489,127,48.0,0.2,5758.0,5759.0
6490,127,52.0,0.0,5760.0,5761.0
6491,127,48.0,0.5,5761.0,5761.333334
6492,127,53.0,0.0,5761.333334,5762.666667
6493,127,57.0,0.5,5762.666667,5764.0
6494,127,62.0,0.2,5764.0,5765.0
6495,127,65.0,0.6,5765.0,5765.333334
6496,127,70.0,0.4,5765.333334,5766.666667
6497,127,64.0,0.0,5766.666667,5768.0
6498,127,69.0,0.0,5768.0,5770.666667
6499,127,70.0,0.4,5770.666667,5771.0
6500,127,71.0,0.8,5771.0,5772.0
6501,127,69.0,0.4,5772.0,5773.0
6502,127,74.0,0.3,5773.0,5773.333334
6503,127,77.0,0.0,5773.333334,5774.0
6504,127,74.0,0.6,5774.0,5774.666667
6505,127,71.0,0.8,5774.666667,5776.0
6506,127,70.0,0.0,5776.0,5777.0
6507,127,69.0,0.0,5777.0,5777.333334
6508,127,65.0,0.0,5777.333334,5778.666667
6509,127,64.0,0.7,5778.666667,5779.0
6510,127,62.0,0.2,5779.0,5780.0
6511,127,64.0,0.0,5780.0,5781.333334
6512,127,67.0,0.4,5781.333334,5782.0
6513,127,65.0,0.0,5782.0,5782.666667
6514,127,69.0,0.0,5782.666667,5783.0
6515,127,67.0,0.1,5783.0,5785.0
6516,127,64.0,0.0,5785.0,5785.333334
6517,127,69.0,0.4,5785.333334,5786.0
6518,127,65.0,0.0,5786.0,5786.666667
6519,127,69.0,0.0,5786.666667,5787.0
6520,127,64.0,0.6,5787.0,5789.0
6521,127,67.0,0.1,5789.0,5789.333334
6522,127,71.0,0.8,5789.333334,5790.0
6523,127,65.0,0.3,5790.0,5790.666667
6524,127,70.0,0.4,5790.666667,5791.0
6525,127,69.0,0.5,5791.0,5792.0
6526,127,67.0,0.0,5792.0,5793.0
6527,127,70.0,0.1,5793.0,5793.333334
6528,127,71.0,0.5,5793.333334,5794.0
6529,127,69.0,0.0,5794.0,5794.666667
6530,127,67.0,0.7,5794.666667,5797.0
6531,127,69.0,0.5,5797.0,5797.333334
6532,127,67.0,0.4,5797.333334,5798.666667
6533,127,72.0,0.2,5798.666667,5800.0
6534,127,69.0,0.0,5800.0,5801.0
6535,127,70.0,0.4,5801.0,5801.333334
6536,127,68.0,0.0,5801.333334,5802.666667
6537,127,65.0,0.0,5802.666667,5803.0
6538,127,67.0,0.0,5803.0,5805.333334
6539,127,69.0,0.0,5805.333334,5806.0
6540,127,70.0,0.0,5806.0,5806.666667
6541,127,64.0,0.4,5806.666667,5808.0
6542,127,65.0,0.0,5808.0,5809.333334
6543,127,69.0,0.8,5809.333334,5810.0
6544,127,71.0,0.5,5810.0,5810.666667
6545,127,69.0,0.5,5810.666667,5811.0
6546,127,64.0,0.6,5811.0,5812.0
6547,127,62.0,0.3,5812.0,5813.0
6548,127,60.0,0.2,5813.0,5813.333334
6549,127,57.0,0.8,5813.333334,5814.666667
6550,127,55.0,0.1,5814.666667,5815.0
6551,127,59.0,0.8,5815.0,5816.0
6552,127,58.0,0.4,5816.0,5817.0
6553,127,57.0,0.0,5817.0,5817.333334
6554,127,52.0,0.6,5817.333334,5818.0
6555,127,48.0,0.2,5818.0,5818.666667
6556,127,53.0,0.0,5818.666667,5819.0
6557,127,50.0,0.2,5819.0,5820.0
6558,127,48.0,0.2,5820.0,5821.0
6559,127,46.0,0.0,5821.333334,5822.0
6560,127,44.0,0.0,5822.0,5823.0
6561,127,41.0,0.0,5823.0,5825.0
6562,127,44.0,0.5,5825.0,5826.0
6563,127,43.0,0.4,5826.0,5826.666667
6564,127,40.0,0.0,5826.666667,5827.0
6565,127,35.0,0.8,5827.0,5828.0
6566,127,38.0,0.0,5828.0,5829.0
6567,127,41.0,0.0,5829.0,5829.333334
6568,127,36.0,0.2,5829.333334,5830.0
6569,127,34.0,0.0,5830.0,5830.666667
6570,127,29.0,0.3,5830.666667,5831.0
6571,127,31.0,0.4,5831.0,5832.0
6572,127,29.0,0.0,5832.0,5833.0
6573,127,32.0,0.0,5833.0,5833.333334
6574,127,38.0,0.2,5833.333334,5834.0
6575,127,33.0,0.8,5834.0,5834.666667
6576,127,36.0,0.5,5834.666667,5835.0
6577,127,33.0,0.4,5835.0,5837.0
6578,127,31.0,0.4,5837.0,5837.333334
6579,127,26.0,0.9,5837.333334,5838.0
6580,127,31.0,0.7,5838.0,5838.666667
6581,127,35.0,0.8,5838.666667,5840.0
6582,127,40.0,0.0,5840.0,5841.0
6583,127,44.0,0.0,5841.0,5842.0
6584,127,43.0,0.1,5842.0,5842.666667
6585,127,48.0,0.5,5842.666667,5843.0
6586,127,45.0,0.4,5843.0,5844.0
6587,127,46.0,0.4,5844.0,5845.0
6588,127,50.0,0.9,5845.333334,5846.0
6589,127,46.0,0.0,5846.0,5846.666667
6590,127,44.0,0.5,5846.666667,5848.0
6591,127,41.0,0.0,5848.0,5849.333334
6592,127,45.0,0.4,5849.333334,5850.0
6593,127,40.0,0.0,5850.0,5850.666667
6594,127,45.0,0.0,5850.666667,5851.0
6595,127,43.0,0.0,5851.0,5853.0
6596,127,45.0,0.8,5853.0,5853.333334
6597,127,41.0,0.0,5853.333334,5854.0
6598,127,46.0,0.1,5854.0,5855.0
6599,127,45.0,0.4,5855.0,5856.0
6600,127,41.0,0.0,5856.0,5857.0
6601,127,45.0,0.0,5857.0,5858.666667
6602,127,48.0,0.5,5858.666667,5859.0
6603,127,52.0,0.6,5859.0,5862.0
6604,127,48.0,0.5,5862.0,5862.666667
6605,127,46.0,0.1,5862.666667,5863.0
6606,127,50.0,0.6,5863.0,5864.0
6607,127,48.0,0.2,5864.0,5865.0
6608,127,45.0,0.5,5865.0,5866.0
6609,127,41.0,0.3,5866.0,5866.666667
6610,127,40.0,0.0,5866.666667,5867.0
6611,127,38.0,0.2,5867.0,5868.0
6612,127,41.0,0.0,5868.0,5869.0
6613,127,38.0,0.6,5869.0,5869.333334
6614,127,35.0,0.6,5869.333334,5870.0
6615,127,33.0,0.8,5870.0,5870.666667
6616,127,31.0,0.0,5870.666667,5871.0
6617,127,29.0,0.0,5871.0,5872.0
6618,127,35.0,0.0,5872.0,5873.0
6619,127,41.0,0.6,5873.0,5874.0
6620,127,45.0,0.0,5874.0,5874.666667
6621,127,43.0,0.0,5874.666667,5875.0
6622,127,47.0,0.8,5875.0,5876.0
6623,127,43.0,0.1,5876.0,5877.0
6624,127,41.0,0.0,5877.0,5879.0
6625,127,35.0,0.5,5880.0,5881.0
6626,127,31.0,0.4,5881.0,5881.333334
6627,127,33.0,0.4,5881.333334,5882.666667
6628,127,29.0,0.0,5882.666667,5883.0
6629,127,35.0,0.8,5883.0,5884.0
6630,127,33.0,0.5,5884.0,5885.333334
6631,127,31.0,0.4,5885.333334,5886.0
6632,127,34.0,0.0,5886.0,5886.666667
6633,127,38.0,0.2,5886.666667,5888.0
6634,127,33.0,0.0,5888.0,5890.0
6635,127,32.0,0.5,5890.0,5891.0
6636,127,33.0,0.4,5891.0,5892.0
6637,127,34.0,0.1,5892.0,5893.0
6638,127,33.0,0.5,5893.0,5893.333334
6639,127,32.0,0.5,5893.333334,5894.0
6640,127,31.0,0.0,5894.0,5896.0
6641,127,32.0,0.0,5896.0,5897.0
6642,127,33.0,0.0,5897.0,5897.333334
6643,127,38.0,0.9,5897.333334,5898.0
6644,127,36.0,0.5,5898.0,5898.666667
6645,127,40.0,0.4,5898.666667,5899.0
6646,127,43.0,0.0,5899.0,5900.0
6647,127,44.0,0.0,5900.0,5901.333334
6648,127,45.0,0.8,5901.333334,5902.0
6649,127,46.0,0.1,5902.0,5902.666667
6650,127,50.0,0.2,5902.666667,5904.0
6651,127,48.0,0.5,5904.0,5905.0
6652,127,52.0,0.0,5905.0,5905.333334
6653,127,50.0,0.9,5905.333334,5906.0
6654,127,45.0,0.5,5906.0,5907.0
6655,127,40.0,0.6,5907.0,5908.0
6656,127,45.0,0.5,5908.0,5909.0
6657,127,50.0,0.3,5909.0,5909.333334
6658,127,55.0,0.1,5909.333334,5910.0
6659,127,57.0,0.4,5910.0,5910.666667
6660,127,59.0,0.9,5910.666667,5911.0
6661,127,64.0,0.4,5911.0,5912.0
6662,127,69.0,0.0,5912.0,5913.0
6663,127,65.0,0.0,5913.0,5913.333334
6664,127,64.0,0.6,5913.333334,5914.0
6665,127,58.0,0.1,5914.0,5914.666667
6666,127,53.0,0.0,5914.666667,5915.0
6667,127,50.0,0.0,5915.0,5916.0
6668,127,45.0,0.5,5916.0,5917.0
6669,127,40.0,0.7,5917.0,5917.333334
6670,127,36.0,0.2,5917.333334,5918.0
6671,127,41.0,0.0,5918.0,5919.0
6672,127,40.0,0.0,5920.0,5921.0
6673,127,41.0,0.0,5921.0,5921.333334
6674,127,47.0,0.6,5921.333334,5922.0
6675,127,45.0,0.5,5922.0,5923.0
6676,127,50.0,0.2,5923.0,5924.0
6677,127,46.0,0.4,5924.0,5925.0
6678,127,52.0,0.0,5925.0,5925.333334
6679,127,55.0,0.1,5925.333334,5926.0
6680,127,57.0,0.4,5926.0,5927.0
6681,127,53.0,0.0,5928.0,5930.666667
6682,127,57.0,0.5,5930.666667,5931.0
6683,127,59.0,0.8,5931.0,5932.0
6684,127,58.0,0.0,5932.0,5933.0
6685,127,53.0,0.0,5933.0,5933.333334
6686,127,55.0,0.0,5933.333334,5934.0
6687,127,52.0,0.7,5934.0,5936.0
6688,127,55.0,0.0,5936.0,5937.0
6689,127,57.0,0.0,5937.0,5941.333334
6690,127,53.0,0.0,5941.333334,5942.0
6691,127,47.0,0.8,5942.0,5942.666667
6692,127,45.0,0.0,5942.666667,5943.0
6693,127,46.0,0.4,5943.0,5944.0
6694,127,43.0,0.0,5944.0,5945.0
6695,127,47.0,0.5,5945.0,5945.333334
6696,127,45.0,0.4,5945.333334,5946.0
6697,127,43.0,0.7,5946.0,5949.0
6698,127,48.0,0.2,5949.0,5950.0
6699,127,45.0,0.4,5950.0,5950.666667
6700,127,41.0,0.0,5950.666667,5951.0
6701,127,44.0,0.0,5951.0,5952.0
6702,127,41.0,0.0,5952.0,5953.0
6703,127,43.0,0.4,5953.0,5953.333334
6704,127,41.0,0.0,5953.333334,5954.0
6705,127,45.0,0.0,5954.0,5954.666667
6706,127,50.0,0.0,5954.666667,5955.0
6707,127,52.0,0.4,5955.0,5956.0
6708,127,53.0,0.6,5956.0,5957.0
6709,127,57.0,0.8,5957.0,5957.333334
6710,127,55.0,0.4,5957.333334,5958.0
6711,127,57.0,0.5,5958.0,5958.666667
6712,127,53.0,0.0,5958.666667,5960.0
6713,127,57.0,0.4,5960.0,5961.0
6714,127,55.0,0.1,5961.0,5961.333334
6715,127,50.0,0.6,5961.333334,5962.666667
6716,127,55.0,0.7,5962.666667,5963.0
6717,127,52.0,0.6,5963.0,5964.0
6718,127,53.0,0.0,5964.0,5965.333334
6719,127,50.0,0.6,5965.333334,5966.0
6720,127,46.0,0.0,5966.0,5966.666667
6721,127,50.0,0.2,5966.666667,5968.0
6722,127,53.0,0.0,5968.0,5969.333334
6723,127,50.0,0.6,5969.333334,5970.0
6724,127,52.0,0.0,5970.0,5970.666667
6725,127,50.0,0.3,5970.666667,5972.0
6726,127,48.0,0.2,5972.0,5973.0
6727,127,53.0,0.3,5973.0,5973.333334
6728,127,55.0,0.0,5973.333334,5974.0
6729,127,53.0,0.0,5974.0,5974.666667
6730,127,50.0,0.0,5974.666667,5976.0
6731,127,48.0,0.5,5976.0,5977.0
6732,127,45.0,0.0,5977.0,5977.333334
6733,127,50.0,0.2,5977.333334,5978.666667
6734,127,56.0,0.0,5978.666667,5979.0
6735,127,59.0,0.8,5979.0,5980.0
6736,127,53.0,0.0,5980.0,5981.333334
6737,127,57.0,0.4,5981.333334,5982.0
6738,127,60.0,0.5,5982.0,5984.0
6739,127,62.0,0.4,5984.0,5985.0
6740,127,56.0,0.5,5985.0,5986.0
6741,127,59.0,0.9,5986.0,5986.666667
6742,127,64.0,0.0,5986.666667,5987.0
6743,127,69.0,0.4,5987.0,5989.0
6744,127,72.0,0.5,5989.0,5989.333334
6745,127,70.0,0.0,5989.333334,5990.0
6746,127,65.0,0.0,5990.0,5990.666667
6747,127,60.0,0.2,5990.666667,5991.0
6748,127,58.0,0.1,5991.0,5992.0
6749,127,55.0,0.4,5992.0,5993.0
6750,127,57.0,0.5,5993.0,5994.0
6751,127,60.0,0.5,5994.0,5994.666667
6752,127,57.0,0.5,5994.666667,5995.0
6753,127,55.0,0.0,5995.0,5996.0
6754,127,57.0,0.0,5996.0,5997.0
6755,127,58.0,0.1,5997.0,5998.0
6756,127,57.0,0.8,5998.0,5998.666667
6757,127,55.0,0.0,5998.666667,6000.0
6758,127,52.0,0.0,6000.0,6001.0
6759,127,57.0,0.5,6001.0,6002.0
6760,127,59.0,0.6,6002.0,6002.666667
6761,127,55.0,0.0,6002.666667,6005.0
6762,127,53.0,0.0,6005.0,6005.333334
6763,127,56.0,0.0,6005.333334,6006.0
6764,127,55.0,0.0,6006.0,6006.666667
6765,127,59.0,0.5,6006.666667,6008.0
6766,127,53.0,0.0,6008.0,6009.333334
6767,127,57.0,0.4,6009.333334,6010.666667
6768,127,58.0,0.4,6010.666667,6011.0
6769,127,57.0,0.4,6011.0,6012.0
6770,127,53.0,0.0,6012.0,6013.0
6771,127,55.0,0.7,6013.0,6014.666667
6772,127,53.0,0.0,6014.666667,6015.0
6773,127,50.0,0.2,6015.0,6016.0
6774,127,53.0,0.0,6016.0,6017.0
6775,127,57.0,0.0,6017.0,6017.333334
6776,127,52.0,0.4,6017.333334,6018.666667
6777,127,57.0,0.0,6018.666667,6019.0
6778,127,59.0,0.8,6019.0,6020.0
6779,127,56.0,0.4,6020.0,6021.333334
6780,127,60.0,0.8,6021.333334,6022.0
6781,127,65.0,0.0,6022.0,6023.0
6782,127,62.0,0.9,6023.0,6024.0
6783,127,64.0,0.4,6024.0,6026.0
6784,127,69.0,0.8,6026.0,6026.666667
6785,127,64.0,0.0,6026.666667,6027.0
6786,127,62.0,0.2,6027.0,6030.0
6787,127,57.0,0.4,6030.0,6030.666667
6788,127,59.0,0.8,6030.666667,6031.0
6789,127,60.0,0.5,6031.0,6032.0
6790,127,57.0,0.1,6032.0,6033.0
6791,127,59.0,0.9,6033.0,6034.0
6792,127,57.0,0.0,6034.0,6034.666667
6793,127,55.0,0.4,6034.666667,6035.0
6794,127,52.0,0.6,6035.0,6036.0
6795,127,53.0,0.0,6036.0,6037.0
6796,127,48.0,0.5,6037.0,6037.333334
6797,127,46.0,0.0,6037.333334,6038.0
6798,127,48.0,0.2,6038.0,6039.0
6799,127,53.0,0.0,6040.0,6041.0
6800,127,47.0,0.6,6041.0,6041.333334
6801,127,50.0,0.2,6041.333334,6042.666667
6802,127,45.0,0.8,6042.666667,6043.0
6803,127,40.0,0.6,6043.0,6044.0
6804,127,36.0,0.1,6044.0,6046.0
6805,127,41.0,0.0,6046.0,6046.666667
6806,127,43.0,0.0,6046.666667,6048.0
6807,127,46.0,0.1,6048.0,6049.333334
6808,127,45.0,0.0,6049.333334,6050.0
6809,127,43.0,0.0,6050.0,6052.0
6810,127,40.0,0.0,6052.0,6053.0
6811,127,45.0,0.8,6053.0,6053.333334
6812,127,44.0,0.0,6053.333334,6054.0
6813,127,45.0,0.5,6054.0,6055.0
6814,127,47.0,0.8,6055.0,6056.0
6815,127,41.0,0.0,6056.0,6057.0
6816,127,45.0,0.0,6057.0,6057.333334
6817,127,44.0,0.0,6057.333334,6058.0
6818,127,41.0,0.0,6058.0,6058.666667
6819,127,36.0,0.5,6058.666667,6059.0
6820,127,33.0,0.4,6059.0,6060.0
6821,127,28.0,0.0,6060.0,6062.666667
6822,127,31.0,0.0,6062.666667,6063.0
6823,127,29.0,0.0,6063.0,6064.0
6824,127,27.0,0.0,6064.0,6065.0
6825,127,29.0,0.0,6065.0,6065.333334
6826,127,31.0,0.7,6065.333334,6066.0
6827,127,26.0,0.0,6066.0,6066.666667
6828,127,23.0,0.8,6066.666667,6068.0
6829,127,19.0,0.4,6068.0,6069.0
6830,127,17.0,0.0,6069.0,6069.333334
6831,127,12.0,0.8,6069.333334,6070.0
6832,127,9.0,0.4,6070.0,6070.666667
6833,127,5.0,0.0,6070.666667,6071.0
6834,127,2.0,0.6,6071.0,6072.0
6835,127,7.0,0.7,6072.0,6073.0
6836,127,2.0,0.0,6073.0,6073.333334
6837,127,8.0,0.0,6073.333334,6074.0
6838,127,14.0,0.6,6074.0,6074.666667
6839,127,9.0,0.4,6074.666667,6075.0
6840,127,14.0,0.2,6075.0,6077.333334
6841,127,17.0,0.0,6077.333334,6078.0
6842,127,14.0,0.3,6078.0,6079.0
6843,127,16.0,0.0,6080.0,6081.0
6844,127,14.0,0.0,6081.0,6081.333334
6845,127,17.0,0.0,6081.333334,6082.666667
6846,127,14.0,0.6,6082.666667,6084.0
6847,127,9.0,0.0,6084.0,6085.333334
6848,127,10.0,0.4,6085.333334,6086.0
6849,127,9.0,0.4,6086.0,6086.666667
6850,127,7.0,0.4,6086.666667,6088.0
6851,127,10.0,0.0,6088.0,6089.333334
6852,127,16.0,0.0,6090.0,6090.666667
6853,127,19.0,0.0,6090.666667,6091.0
6854,127,16.0,0.6,6091.0,6092.0
6855,127,22.0,0.0,6092.0,6093.0
6856,127,24.0,0.2,6093.0,6094.0
6857,127,23.0,0.9,6094.0,6095.0
6858,127,21.0,0.4,6095.0,6096.0
6859,127,22.0,0.0,6096.0,6097.0
6860,127,21.0,0.0,6097.0,6097.333334
6861,127,17.0,0.0,6097.333334,6099.0
6862,127,19.0,0.0,6099.0,6100.0
6863,127,16.0,0.0,6100.0,6101.333334
6864,127,20.0,0.0,6101.333334,6102.0
6865,127,19.0,0.0,6102.0,6102.666667
6866,127,21.0,0.0,6102.666667,6103.0
6867,127,19.0,0.4,6103.0,6104.0
6868,127,20.0,0.0,6104.0,6105.0
6869,127,23.0,0.5,6105.0,6105.333334
6870,127,26.0,0.2,6105.333334,6106.0
6871,127,24.0,0.2,6106.0,6106.666667
6872,127,19.0,0.1,6106.666667,6107.0
6873,127,21.0,0.4,6107.0,6108.0
6874,127,22.0,0.4,6108.0,6109.0
6875,127,19.0,0.4,6109.0,6110.666667
6876,127,23.0,0.6,6110.666667,6111.0
6877,127,29.0,0.0,6111.0,6112.0
6878,127,33.0,0.4,6112.0,6113.0
6879,127,28.0,0.4,6113.0,6113.333334
6880,127,33.0,0.8,6113.333334,6114.666667
6881,127,36.0,0.5,6114.666667,6115.0
6882,127,34.0,0.4,6115.0,6116.0
6883,127,36.0,0.6,6116.0,6117.0
6884,127,41.0,0.0,6117.0,6117.333334
6885,127,43.0,0.0,6117.333334,6118.0
6886,127,40.0,0.6,6118.0,6118.666667
6887,127,45.0,0.8,6118.666667,6120.0
6888,127,40.0,0.0,6120.0,6121.0
6889,127,38.0,0.6,6121.0,6122.666667
6890,127,44.0,0.0,6122.666667,6123.0
6891,127,47.0,0.8,6123.0,6124.0
6892,127,45.0,0.5,6124.0,6125.0
6893,127,47.0,0.5,6125.0,6125.333334
6894,127,45.0,0.0,6125.333334,6126.0
6895,127,43.0,0.4,6126.0,6128.0
6896,127,44.0,0.0,6128.0,6129.333334
6897,127,48.0,0.2,6129.333334,6130.0
6898,127,53.0,0.0,6130.0,6130.666667
6899,127,55.0,0.0,6130.666667,6131.0
6900,127,50.0,0.2,6131.0,6132.0
6901,127,45.0,0.8,6132.0,6133.0
6902,127,48.0,0.5,6133.0,6133.333334
6903,127,44.0,0.0,6133.333334,6134.0
6904,127,48.0,0.2,6134.0,6134.666667
6905,127,50.0,0.9,6134.666667,6135.0
6906,127,55.0,0.0,6135.0,6136.0
6907,127,58.0,0.1,6136.0,6137.0
6908,127,57.0,0.0,6137.0,6137.333334
6909,127,55.0,0.0,6137.333334,6138.666667
6910,127,53.0,0.0,6138.666667,6139.0
6911,127,52.0,0.6,6139.0,6140.0
6912,127,55.0,0.0,6140.0,6141.333334
6913,127,56.0,0.0,6141.333334,6142.0
6914,127,53.0,0.0,6142.0,6143.0
6915,127,56.0,0.0,6143.0,6144.0
6916,127,53.0,0.0,6144.0,6145.0
6917,127,52.0,0.0,6145.0,6147.0
6918,127,55.0,0.0,6147.0,6148.0
6919,127,52.0,0.0,6148.0,6149.0
6920,127,55.0,0.7,6149.0,6149.333334
6921,127,53.0,0.6,6149.333334,6150.0
6922,127,59.0,0.8,6150.0,6150.666667
6923,127,64.0,0.7,6150.666667,6151.0
6924,127,65.0,0.6,6151.0,6153.333334
6925,127,64.0,0.6,6153.333334,6154.666667
6926,127,67.0,0.4,6154.666667,6155.0
6927,127,68.0,0.0,6155.0,6156.0
6928,127,69.0,0.0,6156.0,6157.0
6929,127,65.0,0.3,6157.0,6157.333334
6930,127,67.0,0.7,6157.333334,6158.0
6931,127,65.0,0.0,6158.0,6158.666667
6932,127,62.0,0.2,6158.666667,6160.0
6933,127,57.0,0.0,6160.0,6161.0
6934,127,53.0,0.0,6161.0,6162.0
6935,127,50.0,0.6,6162.0,6162.666667
6936,127,53.0,0.6,6162.666667,6163.0
6937,127,57.0,0.4,6163.0,6165.0
6938,127,55.0,0.4,6165.0,6165.333334
6939,127,53.0,0.6,6165.333334,6166.0
6940,127,58.0,0.0,6166.0,6166.666667
6941,127,56.0,0.5,6166.666667,6168.0
6942,127,53.0,0.0,6168.0,6169.333334
6943,127,47.0,0.8,6169.333334,6170.666667
6944,127,41.0,0.0,6170.666667,6171.0
6945,127,47.0,0.8,6171.0,6172.0
6946,127,45.0,0.0,6172.0,6173.0
6947,127,41.0,0.0,6173.0,6173.333334
6948,127,46.0,0.0,6173.333334,6174.0
6949,127,41.0,0.3,6174.0,6174.666667
6950,127,47.0,0.9,6174.666667,6175.0
6951,127,52.0,0.6,6175.0,6176.0
6952,127,56.0,0.0,6176.0,6177.0
6953,127,57.0,0.0,6177.0,6177.333334
6954,127,60.0,0.5,6177.333334,6178.666667
6955,127,65.0,0.3,6178.666667,6179.0
6956,127,62.0,0.2,6179.0,6180.0
6957,127,67.0,0.1,6180.0,6181.333334
6958,127,65.0,0.0,6181.333334,6182.0
6959,127,67.0,0.7,6182.0,6182.666667
6960,127,71.0,0.9,6182.666667,6184.0
6961,127,72.0,0.2,6184.0,6185.0
6962,127,69.0,0.8,6185.0,6186.0
6963,127,72.0,0.5,6186.0,6186.666667
6964,127,76.0,0.0,6186.666667,6188.0
6965,127,72.0,0.0,6188.0,6189.0
6966,127,69.0,0.8,6189.0,6189.333334
6967,127,65.0,0.0,6189.333334,6190.0
6968,127,69.0,0.5,6190.0,6191.0
6969,127,74.0,0.0,6191.0,6192.0
6970,127,79.0,0.0,6192.0,6193.0
6971,127,74.0,0.6,6193.0,6194.0
6972,127,69.0,0.0,6194.0,6194.666667
6973,127,70.0,0.0,6194.666667,6195.0
6974,127,67.0,0.0,6195.0,6196.0
6975,127,68.0,0.0,6196.0,6197.0
6976,127,72.0,0.2,6197.0,6197.333334
6977,127,74.0,0.6,6197.333334,6198.0
6978,127,79.0,0.0,6198.0,6199.0
6979,127,80.0,0.0,6200.0,6201.0
6980,127,74.0,0.9,6201.0,6201.333334
6981,127,79.0,0.0,6201.333334,6202.666667
6982,127,80.0,0.0,6202.666667,6203.0
6983,127,79.0,0.0,6203.0,6204.0
6984,127,77.0,0.0,6204.0,6205.0
6985,127,79.0,0.1,6205.0,6205.333334
6986,127,74.0,0.6,6205.333334,6206.0
6987,127,68.0,0.0,6206.0,6206.666667
6988,127,62.0,0.2,6206.666667,6208.0
6989,127,65.0,0.0,6208.0,6209.333334
6990,127,69.0,0.0,6209.333334,6210.0
6991,127,64.0,0.0,6210.0,6212.0
6992,127,65.0,0.6,6212.0,6213.0
6993,127,64.0,0.7,6213.0,6213.333334
6994,127,67.0,0.0,6213.333334,6214.0
6995,127,65.0,0.0,6214.0,6215.0
6996,127,64.0,0.6,6215.0,6216.0
6997,127,67.0,0.0,6216.0,6217.0
6998,127,69.0,0.0,6217.0,6217.333334
6999,127,67.0,0.1,6217.333334,6218.666667
7000,127,68.0,0.0,6218.666667,6219.0
7001,127,62.0,0.2,6219.0,6220.0
7002,127,57.0,0.0,6220.0,6221.333334
7003,127,53.0,0.0,6221.333334,6222.666667
7004,127,50.0,0.2,6222.666667,6223.0
7005,127,45.0,0.5,6223.0,6224.0
7006,127,41.0,0.3,6224.0,6225.0
7007,127,44.0,0.5,6225.0,6225.333334
7008,127,43.0,0.1,6225.333334,6226.0
7009,127,41.0,0.0,6226.0,6227.0
7010,127,35.0,0.8,6227.0,6228.0
7011,127,41.0,0.0,6228.0,6229.0
7012,127,45.0,0.5,6229.0,6230.0
7013,127,46.0,0.0,6230.0,6231.0
7014,127,47.0,0.9,6231.0,6232.0
7015,127,53.0,0.0,6232.0,6233.0
7016,127,48.0,0.5,6233.0,6233.333334
7017,127,47.0,0.8,6233.333334,6234.0
7018,127,53.0,0.3,6234.0,6234.666667
7019,127,48.0,0.8,6234.666667,6235.0
7020,127,45.0,0.4,6235.0,6236.0
7021,127,41.0,0.0,6236.0,6237.0
7022,127,47.0,0.9,6237.0,6237.333334
7023,127,45.0,0.4,6237.333334,6238.0
7024,127,48.0,0.2,6238.0,6239.0
7025,127,52.0,0.0,6240.0,6241.0
7026,127,48.0,0.5,6241.0,6241.333334
7027,127,46.0,0.4,6241.333334,6242.0
7028,127,41.0,0.0,6242.0,6243.0
7029,127,45.0,0.4,6243.0,6244.0
7030,127,47.0,0.4,6244.0,6245.333334
7031,127,43.0,0.7,6245.333334,6246.0
7032,127,46.0,0.0,6246.0,6246.666667
7033,127,45.0,0.0,6246.666667,6248.0
7034,127,46.0,0.0,6248.0,6249.333334
7035,127,52.0,0.0,6250.0,6250.666667
7036,127,48.0,0.5,6250.666667,6251.0
7037,127,43.0,0.0,6251.0,6252.0
7038,127,44.0,0.0,6252.0,6253.0
7039,127,50.0,0.3,6253.0,6253.333334
7040,127,47.0,0.5,6253.333334,6254.0
7041,127,50.0,0.6,6254.0,6254.666667
7042,127,45.0,0.4,6254.666667,6255.0
7043,127,50.0,0.2,6255.0,6256.0
7044,127,45.0,0.0,6256.0,6257.333334
7045,127,48.0,0.2,6257.333334,6258.666667
7046,127,43.0,0.0,6258.666667,6259.0
7047,127,40.0,0.6,6259.0,6260.0
7048,127,35.0,0.0,6260.0,6261.333334
7049,127,32.0,0.0,6261.333334,6262.0
7050,127,29.0,0.0,6262.0,6262.666667
7051,127,33.0,0.0,6262.666667,6263.0
7052,127,31.0,0.1,6263.0,6264.0
7053,127,33.0,0.0,6264.0,6265.0
7054,127,28.0,0.0,6265.0,6265.333334
7055,127,31.0,0.0,6265.333334,6266.0
7056,127,29.0,0.0,6266.0,6266.666667
7057,127,32.0,0.0,6266.666667,6267.0
7058,127,38.0,0.2,6267.0,6268.0
7059,127,41.0,0.3,6268.0,6269.0
7060,127,43.0,0.1,6269.0,6269.333334
7061,127,38.0,0.0,6269.333334,6270.0
7062,127,41.0,0.0,6270.0,6271.0
7063,127,45.0,0.5,6271.0,6272.0
7064,127,47.0,0.9,6272.0,6273.0
7065,127,46.0,0.1,6273.0,6273.333334
7066,127,44.0,0.5,6273.333334,6274.0
7067,127,45.0,0.0,6274.0,6274.666667
7068,127,50.0,0.6,6274.666667,6275.0
7069,127,47.0,0.8,6275.0,6276.0
7070,127,52.0,0.6,6276.0,6277.0
7071,127,57.0,0.5,6277.0,6278.666667
7072,127,53.0,0.0,6278.666667,6280.0
7073,127,56.0,0.0,6280.0,6281.0
7074,127,58.0,0.4,6281.0,6281.333334
7075,127,55.0,0.4,6281.333334,6283.0
7076,127,59.0,0.8,6283.0,6284.0
7077,127,55.0,0.0,6284.0,6285.0
7078,127,57.0,0.0,6285.0,6285.333334
7079,127,60.0,0.2,6285.333334,6286.0
7080,127,58.0,0.0,6286.0,6286.666667
7081,127,60.0,0.5,6286.666667,6288.0
7082,127,59.0,0.5,6288.0,6289.333334
7083,127,55.0,0.4,6289.333334,6290.0
7084,127,59.0,0.5,6290.0,6290.666667
7085,127,55.0,0.7,6290.666667,6291.0
7086,127,57.0,0.4,6291.0,6293.0
7087,127,60.0,0.2,6293.0,6293.333334
7088,127,55.0,0.0,6293.333334,6294.666667
7089,127,56.0,0.0,6294.666667,6295.0
7090,127,59.0,0.8,6295.0,6296.0
7091,127,62.0,0.0,6296.0,6297.0
7092,127,57.0,0.0,6297.0,6297.333334
7093,127,62.0,0.2,6297.333334,6298.0
7094,127,57.0,0.8,6298.0,6298.666667
7095,127,51.0,0.2,6298.666667,6299.0
7096,127,55.0,0.0,6299.0,6300.0
7097,127,56.0,0.0,6300.0,6301.333334
7098,127,58.0,0.0,6301.333334,6302.0
7099,127,62.0,0.0,6302.0,6303.0
7100,127,65.0,0.0,6303.0,6305.0
7101,127,68.0,0.5,6305.0,6306.0
7102,127,62.0,0.6,6306.0,6306.666667
7103,127,64.0,0.0,6306.666667,6308.0
7104,127,59.0,0.0,6308.0,6309.0
7105,127,53.0,0.0,6309.0,6309.333334
7106,127,58.0,0.0,6309.333334,6310.0
7107,127,56.0,0.0,6310.0,6310.666667
7108,127,57.0,0.8,6310.666667,6311.0
7109,127,55.0,0.4,6311.0,6312.0
7110,127,58.0,0.1,6312.0,6313.0
7111,127,56.0,0.0,6313.0,6313.333334
7112,127,57.0,0.4,6313.333334,6314.0
7113,127,60.0,0.2,6314.0,6314.666667
7114,127,65.0,0.0,6314.666667,6315.0
7115,127,60.0,0.5,6315.0,6316.0
7116,127,57.0,0.0,6316.0,6317.0
7117,127,55.0,0.4,6317.0,6318.666667
7118,127,57.0,0.4,6318.666667,6320.0
7119,127,52.0,0.0,6320.0,6321.0
7120,127,56.0,0.0,6321.0,6322.0
7121,127,50.0,0.9,6322.0,6322.666667
7122,127,48.0,0.5,6322.666667,6323.0
7123,127,50.0,0.2,6323.0,6325.0
7124,127,44.0,0.5,6325.0,6325.333334
7125,127,41.0,0.0,6325.333334,6326.0
7126,127,46.0,0.0,6326.0,6326.666667
7127,127,47.0,0.5,6326.666667,6328.0
7128,127,52.0,0.6,6328.0,6329.333334
7129,127,55.0,0.0,6329.333334,6330.0
7130,127,52.0,0.0,6330.0,6330.666667
7131,127,53.0,0.0,6330.666667,6331.0
7132,127,47.0,0.8,6331.0,6332.0
7133,127,46.0,0.0,6332.0,6333.0
7134,127,45.0,0.8,6333.0,6333.333334
7135,127,47.0,0.8,6333.333334,6334.0
7136,127,46.0,0.1,6334.0,6334.666667
7137,127,41.0,0.0,6334.666667,6335.0
7138,127,45.0,0.4,6335.0,6336.0
7139,127,41.0,0.0,6336.0,6337.0
7140,127,45.0,0.0,6337.0,6337.333334
7141,127,41.0,0.6,6337.333334,6338.666667
7142,127,45.0,0.0,6338.666667,6340.0
7143,127,40.0,0.0,6340.0,6341.333334
7144,127,38.0,0.3,6341.333334,6342.0
7145,127,36.0,0.5,6342.0,6342.666667
7146,127,41.0,0.0,6342.666667,6343.0
7147,127,38.0,0.6,6343.0,6344.0
7148,127,41.0,0.0,6344.0,6345.0
7149,127,35.0,0.5,6345.0,6346.0
7150,127,40.0,0.7,6346.0,6346.666667
7151,127,45.0,0.8,6346.666667,6347.0
7152,127,43.0,0.0,6347.0,6348.0
7153,127,41.0,0.0,6348.0,6349.0
7154,127,38.0,0.6,6349.0,6350.0
7155,127,35.0,0.8,6350.0,6350.666667
7156,127,40.0,0.6,6350.666667,6351.0
7157,127,41.0,0.0,6351.0,6352.0
7158,127,43.0,0.4,6352.0,6353.0
7159,127,41.0,0.6,6353.0,6353.333334
7160,127,45.0,0.5,6353.333334,6355.0
7161,127,46.0,0.1,6355.0,6356.0
7162,127,50.0,0.3,6356.0,6357.0
7163,127,53.0,0.0,6357.0,6359.0
7164,127,56.0,0.5,6360.0,6361.0
7165,127,55.0,0.4,6361.0,6361.333334
7166,127,50.0,0.2,6361.333334,6362.666667
7167,127,53.0,0.0,6362.666667,6363.0
7168,127,52.0,0.6,6363.0,6364.0
7169,127,55.0,0.4,6364.0,6365.0
7170,127,57.0,0.5,6365.0,6366.666667
7171,127,55.0,0.0,6366.666667,6368.0
7172,127,53.0,0.3,6368.0,6369.333334
7173,127,57.0,0.0,6369.333334,6370.0
7174,127,56.0,0.5,6370.0,6370.666667
7175,127,57.0,0.5,6370.666667,6371.0
7176,127,62.0,0.2,6371.0,6372.0
7177,127,65.0,0.0,6372.0,6373.0
7178,127,69.0,0.5,6373.0,6373.333334
7179,127,67.0,0.0,6373.333334,6374.0
7180,127,69.0,0.4,6374.0,6375.0
7181,127,67.0,0.0,6375.0,6376.0
7182,127,65.0,0.3,6376.0,6377.0
7183,127,69.0,0.0,6377.0,6377.333334
7184,127,74.0,0.0,6377.333334,6378.0
7185,127,69.0,0.5,6378.0,6378.666667
7186,127,65.0,0.0,6378.666667,6379.0
7187,127,59.0,0.8,6379.0,6380.0
7188,127,64.0,0.0,6380.0,6381.333334
7189,127,60.0,0.5,6381.333334,6382.0
7190,127,59.0,0.9,6382.0,6382.666667
7191,127,57.0,0.4,6382.666667,6383.0
7192,127,62.0,0.0,6383.0,6384.0
7193,127,58.0,0.0,6384.0,6385.0
7194,127,52.0,0.0,6385.0,6385.333334
7195,127,50.0,0.3,6385.333334,6386.0
7196,127,48.0,0.5,6386.0,6386.666667
7197,127,43.0,0.0,6386.666667,6387.0
7198,127,45.0,0.4,6387.0,6388.0
7199,127,46.0,0.4,6388.0,6389.0
7200,127,50.0,0.3,6389.0,6389.333334
7201,127,53.0,0.0,6389.333334,6390.0
7202,127,55.0,0.0,6390.0,6391.0
7203,127,52.0,0.4,6391.0,6392.0
7204,127,47.0,0.0,6392.0,6393.333334
7205,127,43.0,0.0,6393.333334,6394.0
7206,127,47.0,0.9,6394.0,6394.666667
7207,127,44.0,0.0,6394.666667,6395.0
7208,127,43.0,0.0,6395.0,6396.0
7209,127,40.0,0.0,6396.0,6397.333334
7210,127,41.0,0.0,6397.333334,6398.0
