Velocity,MIDI,Pitch,Start,End
127,40.0,0.0,0.0,1.0
127,36.0,0.5,1.0,2.0
127,41.0,0.0,2.0,3.0
127,43.0,0.0,3.0,5.0
127,41.0,0.0,5.0,5.333333
127,44.0,0.0,5.333333,6.0
127,43.0,0.0,6.0,6.666667
127,41.0,0.0,6.666667,8.0
127,43.0,0.0,8.0,9.333333
127,46.0,0.4,10.0,10.666667
127,43.0,0.1,10.666667,11.0
127,45.0,0.4,11.0,12.0
127,43.0,0.0,12.0,13.0
127,38.0,0.3,13.0,13.333333
127,34.0,0.4,13.333333,14.0
127,38.0,0.6,14.0,14.666667
127,33.0,0.4,14.666667,15.0
127,38.0,0.2,15.0,16.0
127,41.0,0.0,16.0,17.0
127,45.0,0.0,17.0,17.333333
127,50.0,0.3,17.333333,19.0
127,47.0,0.8,19.0,20.0
127,50.0,0.0,20.0,21.333333
127,53.0,0.0,21.333333,22.666667
127,57.0,0.0,22.666667,23.0
127,55.0,0.1,23.0,24.0
127,58.0,0.0,24.0,25.0
127,52.0,0.0,25.0,25.333333
127,47.0,0.8,25.333333,26.0
127,41.0,0.0,26.0,26.666667
127,43.0,0.0,26.666667,27.0
127,38.0,0.2,27.0,28.0
127,39.0,0.2,28.0,29.0
127,43.0,0.1,29.0,29.333333
127,41.0,0.0,29.333333,30.0
127,46.0,0.0,30.0,30.666667
127,43.0,0.1,30.666667,31.0
127,45.0,0.5,31.0,32.0
127,43.0,0.0,32.0,33.0
127,46.0,0.1,33.0,33.333333
127,40.0,0.0,33.333333,34.0
127,45.0,0.0,34.0,34.666667
127,41.0,0.0,34.666667,35.0
127,40.0,0.6,35.0,36.0
127,38.0,0.2,36.0,37.0
127,33.0,0.5,37.0,37.333333
127,39.0,0.2,37.333333,38.0
127,45.0,0.8,38.0,38.666667
127,43.0,0.1,38.666667,40.0
127,40.0,0.0,40.0,41.0
127,34.0,0.4,41.0,41.333333
127,33.0,0.5,41.333333,42.666667
127,31.0,0.4,42.666667,43.0
127,28.0,0.6,43.0,44.0
127,33.0,0.1,44.0,46.0
127,34.0,0.0,46.0,46.666667
127,40.0,0.6,46.666667,48.0
127,41.0,0.6,48.0,49.333333
127,45.0,0.5,49.333333,50.0
127,43.0,0.0,50.0,50.666667
127,45.0,0.8,50.666667,52.0
127,43.0,0.7,52.0,53.0
127,48.0,0.2,53.0,53.333333
127,52.0,0.0,53.333333,54.0
127,48.0,0.5,54.0,54.666667
127,46.0,0.4,54.666667,55.0
127,52.0,0.6,55.0,56.0
127,55.0,0.4,56.0,57.0
127,57.0,0.0,57.0,57.333333
127,52.0,0.6,57.333333,58.0
127,48.0,0.2,58.0,58.666667
127,45.0,0.4,58.666667,60.0
127,46.0,0.0,60.0,62.0
127,44.0,0.0,62.0,63.0
127,41.0,0.0,63.0,66.0
127,43.0,0.4,66.0,67.0
127,47.0,0.8,67.0,68.0
127,45.0,0.0,68.0,69.0
127,41.0,0.0,69.0,69.333333
127,43.0,0.7,69.333333,70.0
127,41.0,0.3,70.0,70.666667
127,36.0,0.2,70.666667,71.0
127,31.0,0.4,71.0,72.0
127,36.0,0.5,72.0,73.0
127,32.0,0.0,73.0,73.333333
127,28.0,0.6,73.333333,74.0
127,33.0,0.8,74.0,74.666667
127,31.0,0.4,74.666667,75.0
127,26.0,0.2,75.0,76.0
127,33.0,0.0,76.0,77.0
127,31.0,0.4,77.0,77.333333
127,24.0,0.2,77.333333,78.0
127,31.0,0.7,78.0,78.666667
127,33.0,0.4,78.666667,80.0
127,28.0,0.0,80.0,81.0
127,32.0,0.0,81.0,82.0
127,31.0,0.1,82.0,82.666667
127,32.0,0.0,82.666667,83.0
127,26.0,0.2,83.0,84.0
127,27.0,0.0,84.0,85.0
127,33.0,0.0,85.0,86.0
127,34.0,0.0,86.0,87.0
127,29.0,0.0,88.0,89.333333
127,35.0,0.8,89.333333,90.0
127,40.0,0.0,90.0,90.666667
127,45.0,0.0,90.666667,91.0
127,40.0,0.6,91.0,92.0
127,41.0,0.0,92.0,93.0
127,45.0,0.8,93.0,93.333333
127,41.0,0.3,93.333333,94.0
127,46.0,0.1,94.0,94.666667
127,43.0,0.4,94.666667,96.0
127,41.0,0.0,96.0,97.0
127,45.0,0.0,97.0,97.333333
127,44.0,0.0,97.333333,98.666667
127,45.0,0.8,98.666667,99.0
127,43.0,0.0,99.0,100.0
127,40.0,0.0,100.0,101.333333
127,45.0,0.5,101.333333,102.0
127,43.0,0.0,102.0,103.0
127,38.0,0.6,103.0,104.0
127,41.0,0.3,104.0,105.0
127,47.0,0.5,105.0,106.0
127,53.0,0.3,106.0,106.666667
127,52.0,0.0,106.666667,107.0
127,57.0,0.4,107.0,108.0
127,53.0,0.0,108.0,109.0
127,50.0,0.6,109.0,109.333333
127,55.0,0.1,109.333333,110.666667
127,50.0,0.2,110.666667,111.0
127,53.0,0.0,111.0,112.0
127,51.0,0.2,112.0,113.0
127,53.0,0.6,113.0,113.333333
127,57.0,0.0,113.333333,114.666667
127,58.0,0.0,114.666667,115.0
127,59.0,0.6,115.0,116.0
127,60.0,0.8,116.0,117.0
127,65.0,0.0,117.0,119.0
127,64.0,0.0,120.0,121.0
127,67.0,0.4,121.0,121.333333
127,64.0,0.6,121.333333,122.666667
127,58.0,0.0,122.666667,123.0
127,59.0,0.8,123.0,124.0
127,57.0,0.5,124.0,125.0
127,59.0,0.5,125.0,125.333333
127,58.0,0.1,125.333333,126.666667
127,55.0,0.0,126.666667,128.0
127,53.0,0.0,128.0,129.333333
127,57.0,0.0,129.333333,130.0
127,56.0,0.5,130.0,131.0
127,62.0,0.2,131.0,132.0
127,67.0,0.0,132.0,133.0
127,69.0,0.5,133.0,133.333333
127,64.0,0.0,133.333333,134.0
127,69.0,0.8,134.0,136.0
127,67.0,0.0,136.0,137.333333
127,62.0,0.6,137.333333,138.0
127,60.0,0.5,138.0,138.666667
127,65.0,0.3,138.666667,139.0
127,64.0,0.6,139.0,140.0
127,59.0,0.4,140.0,141.333333
127,53.0,0.3,141.333333,142.0
127,58.0,0.1,142.0,142.666667
127,57.0,0.4,142.666667,143.0
127,62.0,0.0,143.0,144.0
127,65.0,0.0,144.0,145.0
127,64.0,0.0,145.0,145.333333
127,62.0,0.6,145.333333,146.0
127,57.0,0.5,146.0,146.666667
127,55.0,0.7,146.666667,148.0
127,53.0,0.0,148.0,149.0
127,50.0,0.3,149.0,150.666667
127,53.0,0.6,150.666667,151.0
127,52.0,0.4,151.0,152.0
127,55.0,0.0,152.0,153.0
127,53.0,0.0,153.0,153.333333
127,59.0,0.6,153.333333,154.0
127,58.0,0.1,154.0,154.666667
127,60.0,0.8,154.666667,155.0
127,57.0,0.4,155.0,156.0
127,53.0,0.0,156.0,157.0
127,52.0,0.7,157.0,157.333333
127,53.0,0.3,157.333333,159.0
127,52.0,0.0,160.0,161.0
127,53.0,0.0,161.0,161.333333
127,55.0,0.4,161.333333,162.0
127,57.0,0.5,162.0,164.0
127,58.0,0.4,164.0,165.0
127,62.0,0.6,165.0,165.333333
127,60.0,0.5,165.333333,166.0
127,58.0,0.0,166.0,166.666667
127,59.0,0.5,166.666667,168.0
127,58.0,0.0,168.0,169.333333
127,55.0,0.0,170.0,170.666667
127,57.0,0.5,170.666667,171.0
127,59.0,0.8,171.0,172.0
127,58.0,0.0,172.0,173.0
127,53.0,0.0,173.0,173.333333
127,56.0,0.5,173.333333,174.0
127,52.0,0.7,174.0,174.666667
127,50.0,0.2,174.666667,175.0
127,47.0,0.8,175.0,176.0
127,43.0,0.4,176.0,177.0
127,45.0,0.0,177.0,179.0
127,50.0,0.2,179.0,180.0
127,47.0,0.4,180.0,181.333333
127,45.0,0.0,181.333333,182.0
127,50.0,0.3,182.0,183.0
127,46.0,0.4,183.0,185.0
127,47.0,0.5,185.0,185.333333
127,52.0,0.6,185.333333,186.0
127,55.0,0.7,186.0,186.666667
127,58.0,0.4,186.666667,187.0
127,52.0,0.6,187.0,188.0
127,55.0,0.4,188.0,189.0
127,60.0,0.2,189.0,189.333333
127,58.0,0.1,189.333333,190.0
127,60.0,0.5,190.0,190.666667
127,62.0,0.0,190.666667,191.0
127,56.0,0.0,191.0,192.0
127,53.0,0.0,192.0,193.0
127,55.0,0.4,193.0,193.333333
127,52.0,0.0,193.333333,194.0
127,57.0,0.0,194.0,195.0
127,55.0,0.0,195.0,196.0
127,56.0,0.0,196.0,197.0
127,57.0,0.8,197.0,197.333333
127,56.0,0.0,197.333333,198.0
127,55.0,0.0,198.0,198.666667
127,50.0,0.3,198.666667,200.0
127,52.0,0.0,200.0,201.0
127,55.0,0.1,201.0,201.333333
127,52.0,0.4,201.333333,202.666667
127,55.0,0.0,202.666667,204.0
127,53.0,0.0,204.0,205.0
127,50.0,0.9,205.0,205.333333
127,46.0,0.1,205.333333,206.666667
127,45.0,0.4,206.666667,208.0
127,41.0,0.0,208.0,209.333333
127,40.0,0.7,209.333333,210.666667
127,41.0,0.0,210.666667,211.0
127,40.0,0.6,211.0,212.0
127,45.0,0.8,212.0,213.0
127,41.0,0.3,213.0,213.333333
127,40.0,0.0,213.333333,214.0
127,41.0,0.0,214.0,215.0
127,35.0,0.8,215.0,216.0
127,33.0,0.5,216.0,218.0
127,38.0,0.9,218.0,218.666667
127,34.0,0.4,218.666667,219.0
127,38.0,0.2,219.0,220.0
127,43.0,0.0,220.0,221.333333
127,46.0,0.0,221.333333,222.0
127,48.0,0.5,222.0,224.0
127,43.0,0.1,224.0,225.0
127,44.0,0.5,225.0,226.0
127,47.0,0.9,226.0,226.666667
127,43.0,0.0,226.666667,227.0
127,47.0,0.8,227.0,228.0
127,45.0,0.0,228.0,229.0
127,48.0,0.5,229.0,229.333333
127,46.0,0.0,229.333333,230.0
127,41.0,0.0,230.0,231.0
127,46.0,0.1,231.0,232.0
127,52.0,0.5,232.0,233.0
127,57.0,0.5,233.0,233.333333
127,59.0,0.8,233.333333,234.0
127,60.0,0.5,234.0,234.666667
127,55.0,0.4,234.666667,235.0
127,57.0,0.4,235.0,237.0
127,58.0,0.1,237.0,238.0
127,57.0,0.8,238.0,238.666667
127,62.0,0.2,238.666667,240.0
127,59.0,0.0,240.0,241.0
127,57.0,0.5,241.0,242.0
127,59.0,0.6,242.0,242.666667
127,62.0,0.3,242.666667,243.0
127,57.0,0.4,243.0,244.0
127,58.0,0.4,244.0,246.666667
127,59.0,0.5,246.666667,248.0
127,55.0,0.1,248.0,249.333333
127,52.0,0.6,249.333333,250.666667
127,55.0,0.4,250.666667,252.0
127,60.0,0.0,252.0,253.0
127,55.0,0.7,253.0,253.333333
127,60.0,0.5,253.333333,254.0
127,55.0,0.4,254.0,254.666667
127,56.0,0.0,254.666667,255.0
127,50.0,0.2,255.0,256.0
127,53.0,0.0,256.0,257.0
127,57.0,0.0,257.0,257.333333
127,55.0,0.4,257.333333,258.666667
127,57.0,0.0,258.666667,259.0
127,52.0,0.6,259.0,260.0
127,55.0,0.0,260.0,261.333333
127,56.0,0.0,261.333333,262.0
127,53.0,0.0,262.0,262.666667
127,57.0,0.8,262.666667,263.0
127,62.0,0.9,263.0,264.0
127,67.0,0.0,264.0,265.0
127,64.0,0.0,265.0,266.0
127,69.0,0.8,266.0,266.666667
127,64.0,0.0,266.666667,267.0
127,62.0,0.2,267.0,268.0
127,67.0,0.1,268.0,269.0
127,62.0,0.9,269.0,270.0
127,65.0,0.0,270.0,270.666667
127,67.0,0.0,270.666667,271.0
127,72.0,0.5,271.0,272.0
127,77.0,0.0,272.0,273.0
127,71.0,0.9,273.0,273.333333
127,74.0,0.9,273.333333,274.0
127,69.0,0.0,274.0,274.666667
127,70.0,0.0,274.666667,275.0
127,71.0,0.8,275.0,276.0
127,65.0,0.0,276.0,277.0
127,60.0,0.5,277.0,277.333333
127,65.0,0.0,277.333333,278.0
127,60.0,0.2,278.0,279.0
127,64.0,0.0,280.0,281.0
127,59.0,0.6,281.0,281.333333
127,64.0,0.6,281.333333,282.666667
127,69.0,0.8,282.666667,283.0
127,71.0,0.8,283.0,284.0
127,65.0,0.1,284.0,285.0
127,69.0,0.0,285.0,285.333333
127,65.0,0.0,285.333333,286.666667
127,59.0,0.8,286.666667,288.0
127,57.0,0.5,288.0,290.0
127,53.0,0.0,290.0,290.666667
127,50.0,0.9,290.666667,291.0
127,45.0,0.4,291.0,292.0
127,50.0,0.2,292.0,293.0
127,45.0,0.8,293.0,293.333333
127,43.0,0.0,293.333333,295.0
127,40.0,0.6,295.0,296.0
127,43.0,0.1,296.0,297.0
127,45.0,0.0,297.0,298.0
127,41.0,0.0,298.0,298.666667
127,43.0,0.1,298.666667,300.0
127,44.0,0.0,300.0,301.333333
127,47.0,0.9,301.333333,302.0
127,43.0,0.1,302.0,302.666667
127,47.0,0.8,302.666667,303.0
127,41.0,0.0,303.0,304.0
127,45.0,0.0,304.0,305.0
127,44.0,0.5,305.0,305.333333
127,48.0,0.5,305.333333,306.0
127,50.0,0.0,306.0,306.666667
127,53.0,0.0,306.666667,307.0
127,52.0,0.6,307.0,308.0
127,50.0,0.1,308.0,309.0
127,53.0,0.0,309.0,309.333333
127,48.0,0.5,309.333333,310.0
127,43.0,0.4,310.0,310.666667
127,45.0,0.5,310.666667,311.0
127,50.0,0.6,311.0,312.0
127,46.0,0.4,312.0,313.0
127,50.0,0.0,313.0,313.333333
127,45.0,0.4,313.333333,314.0
127,50.0,0.6,314.0,315.0
127,45.0,0.5,315.0,316.0
127,50.0,0.1,316.0,317.333333
127,45.0,0.8,317.333333,318.0
127,50.0,0.3,318.0,319.0
127,52.0,0.0,320.0,321.0
127,50.0,0.0,321.0,321.333333
127,45.0,0.5,321.333333,322.666667
127,47.0,0.6,322.666667,323.0
127,50.0,0.2,323.0,325.0
127,44.0,0.5,325.0,325.333333
127,46.0,0.4,325.333333,326.0
127,45.0,0.4,326.0,329.333333
127,40.0,0.0,330.0,330.666667
127,43.0,0.1,330.666667,331.0
127,47.0,0.8,331.0,332.0
127,46.0,0.0,332.0,333.0
127,48.0,0.2,333.0,333.333333
127,52.0,0.0,333.333333,334.0
127,47.0,0.9,334.0,334.666667
127,43.0,0.0,334.666667,336.0
127,45.0,0.0,336.0,337.333333
127,43.0,0.7,337.333333,339.0
127,45.0,0.4,339.0,340.0
127,40.0,0.0,340.0,341.333333
127,41.0,0.0,341.333333,342.0
127,45.0,0.5,342.0,343.0
127,43.0,0.4,343.0,344.0
127,46.0,0.0,344.0,345.0
127,45.0,0.5,345.0,345.333333
127,40.0,0.6,345.333333,346.0
127,36.0,0.2,346.0,346.666667
127,32.0,0.5,346.666667,347.0
127,31.0,0.0,347.0,348.0
127,32.0,0.0,348.0,349.0
127,31.0,0.4,349.0,349.333333
127,29.0,0.0,349.333333,350.0
127,33.0,0.4,350.0,350.666667
127,38.0,0.9,350.666667,351.0
127,41.0,0.0,351.0,352.0
127,45.0,0.5,352.0,353.0
127,40.0,0.4,353.0,354.0
127,45.0,0.0,354.0,355.0
127,47.0,0.9,355.0,356.0
127,50.0,0.2,356.0,357.0
127,53.0,0.0,357.0,357.333333
127,57.0,0.5,357.333333,358.0
127,62.0,0.2,358.0,360.0
127,64.0,0.0,360.0,361.0
127,62.0,0.6,361.0,361.333333
127,60.0,0.5,361.333333,362.666667
127,55.0,0.1,362.666667,363.0
127,52.0,0.6,363.0,364.0
127,47.0,0.5,364.0,365.0
127,48.0,0.5,365.0,365.333333
127,45.0,0.0,365.333333,366.0
127,43.0,0.4,366.0,366.666667
127,47.0,0.8,366.666667,368.0
127,53.0,0.0,368.0,369.333333
127,48.0,0.5,369.333333,370.0
127,43.0,0.4,370.0,370.666667
127,48.0,0.2,370.666667,371.0
127,50.0,0.2,371.0,372.0
127,48.0,0.2,372.0,373.333333
127,52.0,0.0,373.333333,374.0
127,48.0,0.2,374.0,374.666667
127,47.0,0.6,374.666667,375.0
127,45.0,0.4,375.0,376.0
127,46.0,0.1,376.0,377.0
127,45.0,0.0,377.0,377.333333
127,47.0,0.8,377.333333,378.0
127,43.0,0.4,378.0,379.0
127,47.0,0.8,379.0,380.0
127,43.0,0.0,380.0,381.333333
127,41.0,0.0,381.333333,383.0
127,44.0,0.0,383.0,384.0
127,43.0,0.4,384.0,385.0
127,40.0,0.0,385.0,386.666667
127,41.0,0.0,386.666667,387.0
127,45.0,0.4,387.0,389.0
127,43.0,0.7,389.0,389.333333
127,46.0,0.4,389.333333,390.0
127,43.0,0.0,390.0,390.666667
127,45.0,0.8,390.666667,391.0
127,41.0,0.6,391.0,392.0
127,43.0,0.0,392.0,393.0
127,41.0,0.0,393.0,393.333333
127,40.0,0.6,393.333333,394.666667
127,43.0,0.1,394.666667,396.0
127,45.0,0.0,396.0,397.0
127,41.0,0.3,397.0,398.666667
127,43.0,0.0,398.666667,400.0
127,40.0,0.0,400.0,401.0
127,41.0,0.0,401.0,402.0
127,38.0,0.6,402.0,402.666667
127,43.0,0.1,402.666667,404.0
127,41.0,0.0,404.0,405.0
127,36.0,0.5,405.0,405.333333
127,33.0,0.8,405.333333,406.0
127,31.0,0.0,406.0,406.666667
127,32.0,0.5,406.666667,408.0
127,31.0,0.0,408.0,409.333333
127,28.0,0.6,409.333333,410.0
127,31.0,0.0,410.0,410.666667
127,26.0,0.6,410.666667,411.0
127,33.0,0.4,411.0,412.0
127,31.0,0.0,412.0,413.0
127,29.0,0.0,413.0,413.333333
127,31.0,0.4,413.333333,414.0
127,29.0,0.3,414.0,414.666667
127,26.0,0.6,414.666667,415.0
127,33.0,0.4,415.0,417.333333
127,26.0,0.0,417.333333,419.0
127,35.0,0.8,419.0,420.0
127,32.0,0.5,420.0,421.333333
127,26.0,0.3,421.333333,422.0
127,31.0,0.7,422.0,422.666667
127,26.0,0.6,422.666667,423.0
127,35.0,0.6,423.0,424.0
127,31.0,0.3,424.0,425.0
127,35.0,0.5,425.0,426.0
127,24.0,0.5,426.0,426.666667
127,31.0,0.0,426.666667,427.0
127,26.0,0.2,427.0,428.0
127,33.0,0.0,428.0,430.666667
127,26.0,0.2,430.666667,433.333333
127,32.0,0.5,433.333333,434.0
127,33.0,0.0,434.0,435.0
127,28.0,0.6,435.0,436.0
127,31.0,0.4,436.0,437.0
127,24.0,0.2,437.0,437.333333
127,33.0,0.5,437.333333,438.0
127,24.0,0.5,438.0,439.0
127,28.0,0.0,440.0,441.0
127,26.0,0.9,441.0,441.333333
127,35.0,0.8,441.333333,442.666667
127,34.0,0.0,442.666667,443.0
127,28.0,0.6,443.0,444.0
127,24.0,0.0,444.0,445.333333
127,35.0,0.9,445.333333,446.0
127,32.0,0.0,446.0,446.666667
127,31.0,0.0,446.666667,448.0
127,33.0,0.0,448.0,450.0
127,28.0,0.0,450.0,451.0
127,31.0,0.0,451.0,452.0
127,33.0,0.0,452.0,453.0
127,28.0,0.7,453.0,454.0
127,29.0,0.0,454.0,455.0
127,35.0,0.8,455.0,456.0
127,31.0,0.4,456.0,457.0
127,33.0,0.0,457.0,457.333333
127,31.0,0.4,457.333333,458.666667
127,34.0,0.0,458.666667,459.0
127,33.0,0.4,459.0,461.333333
127,24.0,0.2,461.333333,462.0
127,29.0,0.6,462.0,462.666667
127,31.0,0.0,462.666667,463.0
127,33.0,0.5,463.0,464.0
127,32.0,0.0,464.0,465.333333
127,31.0,0.4,465.333333,466.0
127,29.0,0.0,466.0,466.666667
127,33.0,0.4,466.666667,467.0
127,35.0,0.8,467.0,468.0
127,29.0,0.0,468.0,469.0
127,33.0,0.5,469.0,470.666667
127,28.0,0.4,470.666667,471.0
127,35.0,0.9,471.0,472.0
127,33.0,0.0,472.0,473.0
127,24.0,0.5,473.0,473.333333
127,35.0,0.9,473.333333,474.0
127,29.0,0.3,474.0,475.0
127,26.0,0.2,475.0,476.0
127,29.0,0.0,476.0,477.0
127,35.0,0.9,477.0,477.333333
127,38.0,0.2,477.333333,478.0
127,36.0,0.2,478.0,479.0
127,40.0,0.0,480.0,481.0
127,36.0,0.5,481.0,481.333333
127,38.0,0.6,481.333333,482.0
127,41.0,0.0,482.0,483.0
127,38.0,0.2,483.0,485.0
127,33.0,0.0,485.0,486.666667
127,36.0,0.5,486.666667,488.0
127,34.0,0.4,488.0,489.333333
127,35.0,0.5,490.0,490.666667
127,34.0,0.0,490.666667,491.0
127,40.0,0.6,491.0,492.0
127,46.0,0.0,492.0,493.0
127,50.0,0.3,493.0,493.333333
127,55.0,0.4,493.333333,494.0
127,50.0,0.6,494.0,496.0
127,48.0,0.0,496.0,497.0
127,45.0,0.0,497.0,497.333333
127,48.0,0.5,497.333333,499.0
127,43.0,0.0,499.0,500.0
127,45.0,0.0,500.0,501.333333
127,46.0,0.1,501.333333,502.0
127,41.0,0.0,502.0,502.666667
127,45.0,0.0,502.666667,503.0
127,43.0,0.1,503.0,505.0
127,40.0,0.0,505.0,505.333333
127,35.0,0.8,505.333333,506.0
127,41.0,0.0,506.0,506.666667
127,43.0,0.7,506.666667,507.0
127,45.0,0.4,507.0,508.0
127,41.0,0.3,508.0,509.0
127,43.0,0.1,509.0,509.333333
127,41.0,0.0,509.333333,510.666667
127,44.0,0.0,510.666667,511.0
127,45.0,0.5,511.0,512.0
127,43.0,0.4,512.0,513.0
127,46.0,0.1,513.0,513.333333
127,52.0,0.0,513.333333,514.0
127,57.0,0.0,514.0,514.666667
127,52.0,0.4,514.666667,515.0
127,55.0,0.1,515.0,516.0
127,57.0,0.4,516.0,518.666667
127,55.0,0.7,518.666667,521.0
127,58.0,0.4,521.0,521.333333
127,53.0,0.6,521.333333,522.666667
127,56.0,0.0,522.666667,523.0
127,59.0,0.8,523.0,524.0
127,53.0,0.0,524.0,525.0
127,52.0,0.0,525.0,526.0
127,46.0,0.0,526.0,526.666667
127,43.0,0.0,526.666667,528.0
127,48.0,0.5,528.0,529.0
127,53.0,0.3,529.333333,530.0
127,57.0,0.8,530.0,530.666667
127,53.0,0.0,530.666667,531.0
127,50.0,0.2,531.0,532.0
127,48.0,0.5,532.0,533.333333
127,52.0,0.0,533.333333,534.0
127,48.0,0.5,534.0,534.666667
127,53.0,0.0,534.666667,535.0
127,52.0,0.6,535.0,536.0
127,50.0,0.0,536.0,537.0
127,45.0,0.0,537.0,537.333333
127,43.0,0.0,537.333333,538.0
127,45.0,0.8,538.0,538.666667
127,44.0,0.0,538.666667,539.0
127,40.0,0.6,539.0,540.0
127,36.0,0.1,540.0,541.333333
127,31.0,0.0,541.333333,542.0
127,26.0,0.0,542.0,543.0
127,29.0,0.0,543.0,544.0
127,31.0,0.0,544.0,546.0
127,26.0,0.6,546.0,546.666667
127,31.0,0.0,546.666667,548.0
127,33.0,0.0,548.0,549.0
127,29.0,0.0,549.0,549.333333
127,31.0,0.4,549.333333,550.0
127,35.0,0.8,550.0,550.666667
127,41.0,0.0,550.666667,551.0
127,43.0,0.4,551.0,552.0
127,41.0,0.3,552.0,553.0
127,44.0,0.0,553.0,553.333333
127,45.0,0.4,553.333333,554.0
127,48.0,0.2,554.0,554.666667
127,45.0,0.5,554.666667,557.0
127,43.0,0.4,557.0,558.666667
127,47.0,0.8,558.666667,560.0
127,53.0,0.3,560.0,561.0
127,56.0,0.0,561.0,562.0
127,50.0,0.9,562.0,562.666667
127,55.0,0.7,562.666667,563.0
127,57.0,0.4,563.0,564.0
127,58.0,0.4,564.0,565.333333
127,55.0,0.7,565.333333,566.0
127,58.0,0.0,566.0,566.666667
127,59.0,0.5,566.666667,568.0
127,57.0,0.5,568.0,569.333333
127,62.0,0.2,569.333333,570.0
127,64.0,0.0,570.0,570.666667
127,69.0,0.4,570.666667,571.0
127,71.0,0.8,571.0,572.0
127,68.0,0.0,572.0,573.0
127,69.0,0.8,573.0,574.0
127,70.0,0.1,574.0,574.666667
127,74.0,0.0,574.666667,575.0
127,79.0,0.0,575.0,576.0
127,77.0,0.0,576.0,577.0
127,81.0,0.0,577.0,577.333333
127,86.0,0.6,577.333333,578.666667
127,81.0,0.0,578.666667,579.0
127,86.0,0.2,579.0,580.0
127,88.0,0.0,580.0,581.333333
127,91.0,0.4,581.333333,582.0
127,93.0,0.4,582.0,582.666667
127,96.0,0.2,582.666667,583.0
127,98.0,0.6,583.0,584.0
127,94.0,0.4,584.0,585.0
127,93.0,0.5,585.0,586.0
127,88.0,0.7,586.0,586.666667
127,91.0,0.4,586.666667,587.0
127,88.0,0.6,587.0,588.0
127,86.0,0.0,588.0,590.0
127,81.0,0.8,590.0,590.666667
127,76.0,0.6,590.666667,591.0
127,77.0,0.0,591.0,592.0
127,79.0,0.0,592.0,593.0
127,77.0,0.6,593.0,594.0
127,81.0,0.0,594.0,594.666667
127,80.0,0.0,594.666667,595.0
127,79.0,0.0,595.0,597.0
127,77.0,0.0,597.0,599.0
127,76.0,0.0,600.0,601.0
127,79.0,0.4,601.0,602.666667
127,80.0,0.0,602.666667,603.0
127,79.0,0.0,603.0,604.0
127,77.0,0.6,604.0,605.0
127,82.0,0.4,605.0,605.333333
127,77.0,0.0,605.333333,606.0
127,81.0,0.5,606.0,606.666667
127,83.0,0.8,606.666667,608.0
127,79.0,0.4,608.0,609.333333
127,81.0,0.0,609.333333,610.0
127,80.0,0.5,610.0,610.666667
127,79.0,0.7,610.666667,611.0
127,76.0,0.6,611.0,612.0
127,81.0,0.0,612.0,615.0
127,79.0,0.0,615.0,616.0
127,77.0,0.6,616.0,617.0
127,81.0,0.0,617.0,618.666667
127,84.0,0.8,618.666667,619.0
127,86.0,0.2,619.0,620.0
127,80.0,0.0,620.0,621.333333
127,77.0,0.0,621.333333,622.0
127,71.0,0.9,622.0,623.0
127,74.0,0.0,623.0,624.0
127,77.0,0.0,624.0,625.0
127,76.0,0.0,625.0,625.333333
127,81.0,0.5,625.333333,626.0
127,84.0,0.5,626.0,626.666667
127,81.0,0.4,626.666667,627.0
127,83.0,0.8,627.0,629.0
127,86.0,0.3,629.0,629.333333
127,81.0,0.4,629.333333,630.0
127,82.0,0.0,630.0,630.666667
127,84.0,0.5,630.666667,631.0
127,88.0,0.4,631.0,632.0
127,89.0,0.0,632.0,633.333333
127,86.0,0.2,633.333333,634.0
127,83.0,0.9,634.0,634.666667
127,77.0,0.0,634.666667,635.0
127,81.0,0.4,635.0,636.0
127,82.0,0.4,636.0,637.0
127,76.0,0.7,637.0,637.333333
127,72.0,0.2,637.333333,638.0
127,77.0,0.0,638.0,639.0
127,76.0,0.0,640.0,641.0
127,77.0,0.0,641.0,641.333333
127,72.0,0.5,641.333333,642.666667
127,77.0,0.0,642.666667,643.0
127,81.0,0.4,643.0,644.0
127,77.0,0.0,644.0,645.333333
127,74.0,0.6,645.333333,646.0
127,70.0,0.0,646.0,646.666667
127,69.0,0.0,646.666667,648.0
127,71.0,0.4,648.0,649.333333
127,67.0,0.0,650.0,650.666667
127,70.0,0.4,650.666667,652.0
127,68.0,0.0,652.0,653.0
127,65.0,0.0,653.0,653.333333
127,59.0,0.5,653.333333,654.0
127,64.0,0.7,654.0,656.0
127,58.0,0.0,656.0,657.0
127,57.0,0.0,657.0,657.333333
127,62.0,0.3,657.333333,659.0
127,64.0,0.6,659.0,660.0
127,59.0,0.2,660.0,661.333333
127,53.0,0.0,661.333333,662.0
127,47.0,0.8,662.0,662.666667
127,45.0,0.0,662.666667,663.0
127,46.0,0.4,663.0,665.0
127,47.0,0.5,665.0,665.333333
127,43.0,0.0,665.333333,666.0
127,38.0,0.3,666.0,666.666667
127,40.0,0.0,666.666667,667.0
127,38.0,0.2,667.0,669.0
127,36.0,0.2,669.0,669.333333
127,41.0,0.0,669.333333,670.0
127,36.0,0.5,670.0,670.666667
127,31.0,0.1,670.666667,671.0
127,32.0,0.0,671.0,672.0
127,29.0,0.0,672.0,673.0
127,31.0,0.4,673.0,673.333333
127,28.0,0.0,673.333333,674.0
127,33.0,0.0,674.0,674.666667
127,29.0,0.0,674.666667,675.0
127,35.0,0.8,675.0,676.0
127,36.0,0.4,676.0,677.0
127,33.0,0.8,677.0,677.333333
127,29.0,0.3,677.333333,678.0
127,33.0,0.4,678.0,678.666667
127,31.0,0.1,678.666667,681.333333
127,33.0,0.5,681.333333,683.0
127,35.0,0.8,683.0,684.0
127,41.0,0.0,684.0,685.0
127,45.0,0.0,685.0,686.0
127,43.0,0.1,686.0,688.0
127,41.0,0.0,688.0,689.333333
127,45.0,0.5,689.333333,690.0
127,40.0,0.0,690.0,690.666667
127,45.0,0.8,690.666667,692.0
127,41.0,0.0,692.0,693.333333
127,40.0,0.0,693.333333,694.0
127,41.0,0.0,694.0,694.666667
127,46.0,0.4,694.666667,695.0
127,50.0,0.2,695.0,696.0
127,53.0,0.3,696.0,697.0
127,57.0,0.0,697.0,697.333333
127,59.0,0.8,697.333333,698.0
127,55.0,0.1,698.0,700.0
127,52.0,0.0,700.0,701.333333
127,46.0,0.0,701.333333,702.0
127,45.0,0.5,702.0,703.0
127,48.0,0.5,703.0,704.0
127,45.0,0.5,704.0,705.0
127,44.0,0.5,705.0,706.0
127,46.0,0.1,706.0,706.666667
127,45.0,0.8,706.666667,707.0
127,40.0,0.6,707.0,708.0
127,45.0,0.0,708.0,709.0
127,48.0,0.5,709.0,710.0
127,53.0,0.0,710.0,710.666667
127,48.0,0.2,710.666667,711.0
127,46.0,0.1,711.0,712.0
127,48.0,0.5,712.0,713.0
127,45.0,0.5,713.0,713.333333
127,40.0,0.6,713.333333,714.666667
127,43.0,0.0,714.666667,715.0
127,41.0,0.0,715.0,716.0
127,45.0,0.0,716.0,717.0
127,46.0,0.1,717.0,717.333333
127,45.0,0.8,717.333333,718.666667
127,40.0,0.6,718.666667,721.0
127,45.0,0.5,721.0,722.0
127,46.0,0.4,722.0,722.666667
127,50.0,0.0,722.666667,724.0
127,53.0,0.0,724.0,725.0
127,56.0,0.5,725.0,726.0
127,58.0,0.0,726.0,726.666667
127,55.0,0.1,726.666667,728.0
127,50.0,0.4,728.0,729.333333
127,55.0,0.0,729.333333,730.0
127,53.0,0.6,730.0,730.666667
127,56.0,0.0,730.666667,731.0
127,59.0,0.8,731.0,732.0
127,58.0,0.0,732.0,733.0
127,55.0,0.7,733.0,733.333333
127,59.0,0.8,733.333333,734.0
127,55.0,0.4,734.0,735.0
127,59.0,0.8,735.0,736.0
127,60.0,0.0,736.0,737.0
127,57.0,0.0,737.0,737.333333
127,56.0,0.0,737.333333,738.666667
127,60.0,0.2,738.666667,739.0
127,57.0,0.4,739.0,741.333333
127,58.0,0.4,741.333333,742.0
127,53.0,0.0,742.0,742.666667
127,55.0,0.4,742.666667,743.0
127,50.0,0.9,743.0,744.0
127,55.0,0.7,744.0,745.0
127,52.0,0.0,745.0,746.0
127,48.0,0.2,746.0,746.666667
127,53.0,0.3,746.666667,747.0
127,55.0,0.0,747.0,748.0
127,56.0,0.0,748.0,749.0
127,50.0,0.9,749.0,750.0
127,55.0,0.0,750.0,750.666667
127,57.0,0.4,750.666667,751.0
127,60.0,0.5,751.0,752.0
127,58.0,0.4,752.0,753.0
127,59.0,0.9,753.0,753.333333
127,58.0,0.1,753.333333,754.0
127,57.0,0.0,754.0,754.666667
127,58.0,0.0,754.666667,755.0
127,55.0,0.4,755.0,756.0
127,57.0,0.8,756.0,757.0
127,60.0,0.5,757.0,757.333333
127,57.0,0.8,757.333333,758.0
127,59.0,0.8,758.0,759.0
127,64.0,0.0,760.0,761.0
127,59.0,0.6,761.0,762.666667
127,56.0,0.0,762.666667,763.0
127,52.0,0.6,763.0,764.0
127,57.0,0.0,764.0,765.0
127,56.0,0.0,765.0,765.333333
127,58.0,0.1,765.333333,766.0
127,53.0,0.0,766.0,766.666667
127,55.0,0.0,766.666667,768.0
127,53.0,0.0,768.0,769.333333
127,57.0,0.0,769.333333,770.0
127,53.0,0.0,770.0,771.0
127,50.0,0.2,771.0,773.0
127,45.0,0.8,773.0,773.333333
127,40.0,0.0,773.333333,774.0
127,45.0,0.4,774.0,776.0
127,43.0,0.1,776.0,777.0
127,45.0,0.0,777.0,777.333333
127,50.0,0.6,777.333333,778.0
127,53.0,0.0,778.0,778.666667
127,58.0,0.4,778.666667,779.0
127,59.0,0.8,779.0,780.0
127,53.0,0.3,780.0,781.333333
127,52.0,0.7,781.333333,782.0
127,55.0,0.1,782.0,782.666667
127,52.0,0.6,782.666667,783.0
127,53.0,0.0,783.0,785.0
127,55.0,0.4,785.0,785.333333
127,50.0,0.6,785.333333,786.0
127,44.0,0.0,786.0,786.666667
127,45.0,0.8,786.666667,788.0
127,41.0,0.0,788.0,789.333333
127,43.0,0.4,789.333333,790.666667
127,41.0,0.6,790.666667,791.0
127,38.0,0.6,791.0,792.0
127,33.0,0.0,792.0,793.0
127,38.0,0.0,793.0,793.333333
127,43.0,0.0,793.333333,796.0
127,41.0,0.0,796.0,797.0
127,38.0,0.6,797.0,797.333333
127,41.0,0.3,797.333333,798.0
127,38.0,0.3,798.0,799.0
127,40.0,0.0,800.0,801.0
127,38.0,0.0,801.0,801.333333
127,43.0,0.4,801.333333,802.0
127,44.0,0.0,802.0,803.0
127,43.0,0.0,803.0,805.333333
127,41.0,0.6,805.333333,806.0
127,43.0,0.0,806.0,806.666667
127,46.0,0.4,806.666667,808.0
127,45.0,0.0,808.0,810.0
127,40.0,0.0,810.0,811.0
127,45.0,0.4,811.0,812.0
127,43.0,0.0,812.0,813.0
127,48.0,0.2,813.0,813.333333
127,44.0,0.5,813.333333,814.0
127,47.0,0.9,814.0,814.666667
127,52.0,0.6,814.666667,815.0
127,57.0,0.4,815.0,816.0
127,53.0,0.0,816.0,817.0
127,57.0,0.0,817.0,819.0
127,59.0,0.8,819.0,820.0
127,55.0,0.0,820.0,821.333333
127,59.0,0.9,821.333333,822.0
127,57.0,0.4,822.0,823.0
127,55.0,0.4,823.0,824.0
127,57.0,0.0,824.0,825.0
127,59.0,0.5,825.0,825.333333
127,62.0,0.2,825.333333,826.0
127,57.0,0.8,826.0,826.666667
127,56.0,0.0,826.666667,827.0
127,50.0,0.2,827.0,828.0
127,46.0,0.1,828.0,829.0
127,43.0,0.4,829.0,829.333333
127,47.0,0.9,829.333333,830.0
127,43.0,0.0,830.0,830.666667
127,38.0,0.0,830.666667,831.0
127,41.0,0.0,831.0,832.0
127,46.0,0.4,832.0,833.0
127,52.0,0.4,833.0,834.0
127,57.0,0.0,834.0,834.666667
127,60.0,0.5,834.666667,835.0
127,64.0,0.6,835.0,836.0
127,65.0,0.6,836.0,838.0
127,59.0,0.8,838.0,838.666667
127,62.0,0.3,838.666667,840.0
127,64.0,0.0,840.0,841.0
127,62.0,0.6,841.0,841.333333
127,64.0,0.4,841.333333,842.666667
127,65.0,0.0,842.666667,843.0
127,64.0,0.6,843.0,844.0
127,60.0,0.5,844.0,845.0
127,59.0,0.9,845.333333,846.0
127,58.0,0.0,846.0,846.666667
127,57.0,0.4,846.666667,848.0
127,58.0,0.4,848.0,849.333333
127,52.0,0.7,849.333333,850.666667
127,53.0,0.0,850.666667,851.0
127,55.0,0.0,851.0,852.0
127,56.0,0.0,852.0,853.0
127,60.0,0.5,853.0,853.333333
127,64.0,0.0,853.333333,854.0
127,60.0,0.2,854.0,854.666667
127,65.0,0.0,854.666667,855.0
127,67.0,0.0,855.0,856.0
127,72.0,0.0,856.0,857.0
127,69.0,0.0,857.0,858.0
127,74.0,0.6,858.0,858.666667
127,77.0,0.0,858.666667,859.0
127,81.0,0.4,859.0,860.0
127,80.0,0.0,860.0,861.0
127,82.0,0.0,861.333333,862.0
127,77.0,0.0,862.0,863.0
127,80.0,0.0,863.0,864.0
127,83.0,0.4,864.0,865.0
127,88.0,0.0,865.0,866.0
127,89.0,0.6,866.0,866.666667
127,91.0,0.0,866.666667,867.0
127,95.0,0.8,867.0,868.0
127,93.0,0.0,868.0,869.0
127,91.0,0.7,869.0,869.333333
127,92.0,0.0,869.333333,870.0
127,94.0,0.1,870.0,870.666667
127,89.0,0.0,870.666667,873.333333
127,88.0,0.6,873.333333,874.666667
127,82.0,0.4,874.666667,875.0
127,86.0,0.2,875.0,876.0
127,89.0,0.0,876.0,878.666667
127,88.0,0.6,878.666667,880.0
127,83.0,0.0,880.0,881.0
127,77.0,0.0,881.0,882.0
127,79.0,0.4,882.0,882.666667
127,83.0,0.8,882.666667,883.0
127,86.0,0.2,883.0,884.0
127,82.0,0.2,884.0,885.0
127,81.0,0.0,885.0,885.333333
127,82.0,0.0,885.333333,886.666667
127,83.0,0.5,886.666667,888.0
127,86.0,0.1,888.0,890.0
127,91.0,0.0,890.0,890.666667
127,86.0,0.6,890.666667,891.0
127,88.0,0.6,891.0,892.0
127,84.0,0.2,892.0,893.0
127,89.0,0.0,893.0,893.333333
127,84.0,0.5,893.333333,894.0
127,89.0,0.3,894.0,894.666667
127,92.0,0.0,894.666667,895.0
127,88.0,0.6,895.0,896.0
127,89.0,0.0,896.0,897.0
127,93.0,0.0,897.0,897.333333
127,91.0,0.4,897.333333,898.666667
127,93.0,0.0,898.666667,899.0
127,91.0,0.0,899.0,900.0
127,95.0,0.0,900.0,901.333333
127,96.0,0.8,901.333333,902.0
127,91.0,0.0,902.0,902.666667
127,93.0,0.8,902.666667,903.0
127,95.0,0.6,903.0,904.0
127,93.0,0.0,904.0,905.0
127,95.0,0.5,905.0,906.0
127,93.0,0.5,906.0,906.666667
127,91.0,0.0,906.666667,907.0
127,93.0,0.4,907.0,908.0
127,91.0,0.1,908.0,910.0
127,96.0,0.5,910.0,910.666667
127,95.0,0.8,910.666667,911.0
127,98.0,0.0,911.0,912.0
127,101.0,0.0,912.0,913.0
127,98.0,0.6,913.0,913.333333
127,93.0,0.0,913.333333,914.666667
127,91.0,0.1,914.666667,915.0
127,95.0,0.8,915.0,916.0
127,93.0,0.5,916.0,917.0
127,96.0,0.2,917.0,917.333333
127,101.0,0.0,917.333333,918.0
127,105.0,0.4,918.0,919.0
127,100.0,0.0,920.0,921.0
127,98.0,0.9,921.0,921.333333
127,93.0,0.4,921.333333,922.666667
127,89.0,0.0,922.666667,923.0
127,83.0,0.8,923.0,925.333333
127,77.0,0.0,925.333333,926.0
127,82.0,0.0,926.0,926.666667
127,86.0,0.2,926.666667,928.0
127,89.0,0.0,928.0,929.333333
127,93.0,0.0,929.333333,930.0
127,88.0,0.0,930.0,930.666667
127,91.0,0.1,930.666667,931.0
127,86.0,0.2,931.0,932.0
127,84.0,0.0,932.0,933.0
127,88.0,0.7,933.0,933.333333
127,92.0,0.0,933.333333,934.0
127,89.0,0.0,934.0,935.0
127,86.0,0.2,935.0,936.0
127,91.0,0.4,936.0,937.0
127,93.0,0.0,937.0,937.333333
127,96.0,0.5,937.333333,938.0
127,98.0,0.3,938.0,938.666667
127,93.0,0.5,938.666667,939.0
127,88.0,0.6,939.0,940.0
127,92.0,0.4,940.0,941.333333
127,94.0,0.1,941.333333,942.0
127,91.0,0.4,942.0,942.666667
127,88.0,0.6,942.666667,943.0
127,93.0,0.5,943.0,945.0
127,92.0,0.5,945.0,945.333333
127,96.0,0.5,945.333333,946.0
127,101.0,0.0,946.0,947.0
127,103.0,0.0,947.0,948.0
127,104.0,0.0,948.0,949.0
127,105.0,0.5,949.0,949.333333
127,101.0,0.6,949.333333,950.0
127,98.0,0.2,950.0,950.666667
127,93.0,0.5,950.666667,951.0
127,95.0,0.9,951.0,952.0
127,96.0,0.2,952.0,953.333333
127,101.0,0.0,953.333333,954.0
127,100.0,0.7,954.0,954.666667
127,105.0,0.8,954.666667,955.0
127,101.0,0.0,955.0,956.0
127,106.0,0.1,956.0,957.0
127,107.0,0.9,957.0,957.333333
127,105.0,0.8,957.333333,958.0
127,108.0,0.2,958.0,959.0
127,100.0,0.0,960.0,961.0
127,108.0,0.5,961.0,961.333333
127,105.0,0.5,961.333333,962.0
127,101.0,0.0,962.0,962.666667
127,106.0,0.4,962.666667,963.0
127,105.0,0.4,963.0,964.0
127,106.0,0.2,964.0,965.0
127,101.0,0.6,965.0,965.333333
127,99.0,0.2,965.333333,966.0
127,94.0,0.0,966.0,966.666667
127,92.0,0.5,966.666667,968.0
127,94.0,0.0,968.0,969.333333
127,93.0,0.0,970.0,970.666667
127,91.0,0.4,970.666667,971.0
127,95.0,0.8,971.0,972.0
127,93.0,0.4,972.0,973.0
127,98.0,0.3,973.0,973.333333
127,101.0,0.6,973.333333,974.0
127,98.0,0.6,974.0,974.666667
127,95.0,0.8,974.666667,976.0
127,94.0,0.0,976.0,977.0
127,93.0,0.0,977.0,977.333333
127,91.0,0.7,977.333333,979.0
127,86.0,0.2,979.0,980.0
127,83.0,0.0,980.0,981.333333
127,77.0,0.0,981.333333,982.666667
127,81.0,0.0,982.666667,983.0
127,79.0,0.1,983.0,985.0
127,76.0,0.0,985.0,985.333333
127,81.0,0.4,985.333333,986.0
127,77.0,0.0,986.0,986.666667
127,82.0,0.4,986.666667,987.0
127,76.0,0.6,987.0,989.0
127,79.0,0.1,989.0,989.333333
127,77.0,0.0,989.333333,990.666667
127,74.0,0.9,990.666667,991.0
127,69.0,0.5,991.0,993.0
127,70.0,0.1,993.0,993.333333
127,64.0,0.0,993.333333,994.0
127,69.0,0.0,994.0,994.666667
127,72.0,0.2,994.666667,995.0
127,67.0,0.0,995.0,997.0
127,69.0,0.5,997.0,997.333333
127,68.0,0.0,997.333333,998.0
127,67.0,0.0,998.0,998.666667
127,62.0,0.9,998.666667,1000.0
127,67.0,0.0,1000.0,1001.0
127,70.0,0.4,1001.0,1001.333333
127,72.0,0.5,1001.333333,1002.666667
127,69.0,0.5,1002.666667,1003.0
127,67.0,0.0,1003.0,1004.0
127,71.0,0.9,1004.0,1005.0
127,67.0,0.4,1005.0,1005.333333
127,69.0,0.0,1005.333333,1006.0
127,70.0,0.0,1006.0,1006.666667
127,67.0,0.4,1006.666667,1008.0
127,68.0,0.0,1008.0,1009.333333
127,72.0,0.5,1009.333333,1010.0
127,71.0,0.5,1010.0,1011.0
127,76.0,0.6,1011.0,1012.0
127,74.0,0.3,1012.0,1013.0
127,72.0,0.2,1013.0,1013.333333
127,76.0,0.0,1013.333333,1014.0
127,81.0,0.4,1014.0,1014.666667
127,83.0,0.6,1014.666667,1016.0
127,82.0,0.4,1016.0,1017.0
127,81.0,0.0,1017.0,1017.333333
127,76.0,0.6,1017.333333,1018.0
127,72.0,0.2,1018.0,1018.666667
127,74.0,0.0,1018.666667,1020.0
127,68.0,0.0,1020.0,1021.333333
127,65.0,0.0,1021.333333,1022.0
127,68.0,0.0,1022.0,1023.0
127,65.0,0.0,1023.0,1024.0
127,67.0,0.1,1024.0,1025.0
127,68.0,0.5,1025.0,1026.0
127,67.0,0.4,1026.0,1026.666667
127,65.0,0.0,1026.666667,1027.0
127,59.0,0.8,1027.0,1028.0
127,62.0,0.0,1028.0,1029.0
127,65.0,0.0,1029.0,1029.333333
127,62.0,0.6,1029.333333,1030.0
127,58.0,0.0,1030.0,1030.666667
127,57.0,0.8,1030.666667,1031.0
127,55.0,0.4,1031.0,1032.0
127,57.0,0.4,1032.0,1033.0
127,56.0,0.0,1033.0,1034.0
127,57.0,0.8,1034.0,1034.666667
127,55.0,0.1,1034.666667,1035.0
127,57.0,0.4,1035.0,1037.0
127,55.0,0.4,1037.0,1037.333333
127,53.0,0.0,1037.333333,1038.0
127,55.0,0.7,1038.0,1038.666667
127,59.0,0.8,1038.666667,1040.0
127,64.0,0.0,1040.0,1041.0
127,68.0,0.0,1041.0,1042.0
127,67.0,0.1,1042.0,1043.0
127,69.0,0.4,1043.0,1044.0
127,65.0,0.0,1044.0,1045.333333
127,68.0,0.0,1045.333333,1046.0
127,70.0,0.0,1046.0,1046.666667
127,67.0,0.4,1046.666667,1048.0
127,65.0,0.0,1048.0,1049.333333
127,69.0,0.4,1049.333333,1050.0
127,64.0,0.0,1050.0,1050.666667
127,58.0,0.4,1050.666667,1051.0
127,55.0,0.0,1051.0,1052.0
127,53.0,0.0,1052.0,1053.0
127,57.0,0.8,1053.0,1053.333333
127,55.0,0.0,1053.333333,1054.0
127,58.0,0.1,1054.0,1054.666667
127,62.0,0.6,1054.666667,1055.0
127,57.0,0.4,1055.0,1056.0
127,53.0,0.0,1056.0,1057.0
127,57.0,0.0,1057.0,1057.333333
127,62.0,0.0,1057.333333,1058.666667
127,67.0,0.4,1058.666667,1059.0
127,64.0,0.6,1059.0,1061.333333
127,67.0,0.7,1061.333333,1062.0
127,72.0,0.5,1062.0,1062.666667
127,74.0,0.6,1062.666667,1064.0
127,72.0,0.2,1064.0,1065.0
127,69.0,0.5,1065.0,1066.0
127,65.0,0.3,1066.0,1066.666667
127,67.0,0.0,1066.666667,1067.0
127,62.0,0.2,1067.0,1068.0
127,65.0,0.0,1068.0,1069.0
127,62.0,0.6,1069.0,1069.333333
127,56.0,0.0,1069.333333,1070.0
127,57.0,0.8,1070.0,1070.666667
127,55.0,0.0,1070.666667,1071.0
127,53.0,0.0,1071.0,1072.0
127,47.0,0.0,1072.0,1073.0
127,41.0,0.6,1073.0,1074.0
127,45.0,0.0,1074.0,1074.666667
127,43.0,0.0,1074.666667,1075.0
127,47.0,0.8,1075.0,1076.0
127,43.0,0.1,1076.0,1077.0
127,41.0,0.0,1077.0,1077.333333
127,44.0,0.0,1077.333333,1078.0
127,41.0,0.3,1078.0,1079.0
127,35.0,0.0,1080.0,1081.0
127,31.0,0.4,1081.0,1081.333333
127,33.0,0.4,1081.333333,1082.666667
127,31.0,0.0,1082.666667,1083.0
127,35.0,0.8,1083.0,1084.0
127,33.0,0.2,1084.0,1085.333333
127,35.0,0.9,1085.333333,1086.0
127,34.0,0.0,1086.0,1086.666667
127,33.0,0.4,1086.666667,1090.0
127,32.0,0.5,1090.0,1091.0
127,33.0,0.4,1091.0,1092.0
127,34.0,0.1,1092.0,1093.0
127,33.0,0.5,1093.0,1093.333333
127,28.0,0.0,1093.333333,1094.0
127,31.0,0.0,1094.0,1096.0
127,32.0,0.0,1096.0,1097.0
127,33.0,0.0,1097.0,1097.333333
127,31.0,0.4,1097.333333,1098.0
127,36.0,0.5,1098.0,1098.666667
127,41.0,0.0,1098.666667,1099.0
127,43.0,0.0,1099.0,1100.0
127,44.0,0.0,1100.0,1101.333333
127,45.0,0.8,1101.333333,1102.0
127,46.0,0.1,1102.0,1102.666667
127,50.0,0.2,1102.666667,1104.0
127,48.0,0.1,1104.0,1105.0
127,52.0,0.0,1105.0,1105.333333
127,55.0,0.4,1105.333333,1106.0
127,57.0,0.5,1106.0,1106.666667
127,55.0,0.0,1106.666667,1107.0
127,52.0,0.6,1107.0,1108.0
127,53.0,0.0,1108.0,1109.0
127,50.0,0.3,1109.0,1110.0
127,45.0,0.4,1110.0,1110.666667
127,40.0,0.4,1110.666667,1112.0
127,45.0,0.0,1112.0,1113.0
127,41.0,0.0,1113.0,1113.333333
127,40.0,0.6,1113.333333,1114.0
127,46.0,0.1,1114.0,1114.666667
127,41.0,0.6,1114.666667,1115.0
127,38.0,0.0,1115.0,1116.0
127,41.0,0.0,1116.0,1117.0
127,40.0,0.7,1117.0,1117.333333
127,35.0,0.8,1117.333333,1118.0
127,41.0,0.0,1118.0,1119.0
127,40.0,0.0,1120.0,1121.0
127,41.0,0.0,1121.0,1121.333333
127,38.0,0.6,1121.333333,1122.0
127,33.0,0.5,1122.0,1123.0
127,38.0,0.2,1123.0,1124.0
127,40.0,0.4,1124.0,1125.333333
127,36.0,0.5,1125.333333,1126.0
127,33.0,0.4,1126.0,1127.0
127,34.0,0.0,1128.0,1129.333333
127,29.0,0.0,1130.0,1130.666667
127,24.0,0.5,1130.666667,1131.0
127,35.0,0.8,1131.0,1132.0
127,34.0,0.0,1132.0,1133.0
127,29.0,0.0,1133.0,1133.333333
127,28.0,0.0,1133.333333,1134.666667
127,31.0,0.0,1134.666667,1135.0
127,28.0,0.6,1135.0,1136.0
127,31.0,0.0,1136.0,1137.0
127,33.0,0.0,1137.0,1137.333333
127,24.0,0.5,1137.333333,1139.0
127,33.0,0.4,1139.0,1140.0
127,31.0,0.0,1140.0,1141.333333
127,29.0,0.0,1141.333333,1142.0
127,35.0,0.8,1142.0,1142.666667
127,33.0,0.0,1142.666667,1143.0
127,34.0,0.4,1143.0,1144.0
127,31.0,0.4,1144.0,1145.0
127,35.0,0.5,1145.0,1145.333333
127,33.0,0.4,1145.333333,1146.0
127,31.0,0.7,1146.0,1146.666667
127,32.0,0.0,1146.666667,1147.0
127,31.0,0.0,1147.0,1149.0
127,24.0,0.2,1149.0,1149.333333
127,29.0,0.0,1149.333333,1150.0
127,33.0,0.4,1150.0,1150.666667
127,32.0,0.0,1150.666667,1152.0
127,29.0,0.0,1152.0,1153.0
127,31.0,0.4,1153.0,1153.333333
127,28.0,0.0,1153.333333,1154.0
127,33.0,0.0,1154.0,1154.666667
127,29.0,0.6,1154.666667,1155.0
127,28.0,0.4,1155.0,1156.0
127,35.0,0.6,1156.0,1157.0
127,33.0,0.8,1157.0,1158.666667
127,31.0,0.7,1158.666667,1160.0
127,34.0,0.1,1160.0,1161.0
127,31.0,0.1,1161.0,1161.333333
127,29.0,0.6,1161.333333,1163.0
127,28.0,0.6,1163.0,1164.0
127,29.0,0.0,1164.0,1166.0
127,34.0,0.0,1166.0,1166.666667
127,26.0,0.2,1166.666667,1168.0
127,29.0,0.0,1168.0,1170.0
127,28.0,0.0,1170.0,1170.666667
127,29.0,0.0,1170.666667,1171.0
127,26.0,0.2,1171.0,1172.0
127,24.0,0.2,1172.0,1173.0
127,29.0,0.3,1173.0,1173.333333
127,28.0,0.0,1173.333333,1174.0
127,29.0,0.0,1174.0,1175.0
127,26.0,0.2,1175.0,1176.0
127,24.0,0.4,1176.0,1177.0
127,33.0,0.0,1177.0,1177.333333
127,26.0,0.2,1177.333333,1178.666667
127,27.0,0.2,1178.666667,1179.0
127,35.0,0.8,1179.0,1180.0
127,29.0,0.0,1180.0,1181.333333
127,34.0,0.0,1181.333333,1182.0
127,36.0,0.5,1182.0,1184.0
127,38.0,0.1,1184.0,1185.0
127,44.0,0.5,1185.0,1186.0
127,47.0,0.9,1186.0,1186.666667
127,43.0,0.0,1186.666667,1187.0
127,45.0,0.4,1187.0,1188.0
127,40.0,0.0,1188.0,1189.0
127,36.0,0.5,1189.0,1189.333333
127,33.0,0.5,1189.333333,1190.0
127,29.0,0.0,1190.0,1191.0
127,34.0,0.1,1191.0,1192.0
127,29.0,0.3,1192.0,1193.0
127,33.0,0.5,1193.0,1193.333333
127,28.0,0.6,1193.333333,1194.0
127,24.0,0.5,1194.0,1194.666667
127,33.0,0.5,1194.666667,1195.0
127,31.0,0.0,1195.0,1196.0
127,33.0,0.0,1196.0,1197.0
127,34.0,0.1,1197.0,1198.0
127,33.0,0.8,1198.0,1198.666667
127,31.0,0.0,1198.666667,1200.0
127,32.0,0.0,1200.0,1201.0
127,33.0,0.5,1201.0,1202.0
127,35.0,0.6,1202.0,1202.666667
127,31.0,0.0,1202.666667,1204.0
127,35.0,0.0,1204.0,1205.0
127,29.0,0.0,1205.0,1205.333333
127,32.0,0.0,1205.333333,1206.0
127,31.0,0.0,1206.0,1206.666667
127,35.0,0.5,1206.666667,1208.0
127,33.0,0.0,1208.0,1212.0
127,29.0,0.0,1212.0,1213.0
127,31.0,0.7,1213.0,1213.333333
127,36.0,0.5,1213.333333,1214.0
127,31.0,0.4,1214.0,1214.666667
127,26.0,0.0,1214.666667,1216.0
127,35.0,0.0,1216.0,1217.0
127,33.0,0.0,1217.0,1217.333333
127,26.0,0.6,1217.333333,1218.666667
127,33.0,0.0,1218.666667,1219.0
127,35.0,0.8,1219.0,1221.333333
127,33.0,0.5,1221.333333,1222.0
127,29.0,0.0,1222.0,1222.666667
127,24.0,0.2,1222.666667,1223.0
127,26.0,0.9,1223.0,1224.0
127,33.0,0.4,1224.0,1225.0
127,28.0,0.0,1225.0,1226.0
127,33.0,0.8,1226.0,1226.666667
127,31.0,0.0,1226.666667,1227.0
127,26.0,0.2,1227.0,1230.0
127,33.0,0.4,1230.0,1230.666667
127,35.0,0.8,1230.666667,1231.0
127,24.0,0.5,1231.0,1232.0
127,35.0,0.1,1232.0,1234.0
127,33.0,0.0,1234.0,1234.666667
127,34.0,0.0,1234.666667,1235.0
127,28.0,0.6,1235.0,1236.0
127,29.0,0.0,1236.0,1237.0
127,24.0,0.5,1237.0,1237.333333
127,29.0,0.0,1237.333333,1238.0
127,24.0,0.2,1238.0,1239.0
127,28.0,0.0,1240.0,1241.0
127,35.0,0.6,1241.0,1241.333333
127,26.0,0.2,1241.333333,1242.666667
127,24.0,0.5,1242.666667,1243.0
127,28.0,0.6,1243.0,1245.333333
127,29.0,0.0,1245.333333,1246.666667
127,26.0,0.2,1246.666667,1248.0
127,31.0,0.4,1248.0,1249.333333
127,33.0,0.0,1249.333333,1250.0
127,31.0,0.0,1250.0,1250.666667
127,26.0,0.3,1250.666667,1252.0
127,28.0,0.0,1252.0,1253.0
127,33.0,0.8,1253.0,1255.0
127,35.0,0.8,1255.0,1256.0
127,29.0,0.0,1256.0,1257.0
127,33.0,0.0,1257.0,1258.0
127,29.0,0.0,1258.0,1258.666667
127,34.0,0.4,1258.666667,1259.0
127,33.0,0.4,1259.0,1260.0
127,31.0,0.1,1260.0,1261.333333
127,29.0,0.0,1261.333333,1262.666667
127,31.0,0.0,1262.666667,1263.0
127,29.0,0.0,1263.0,1264.0
127,27.0,0.0,1264.0,1265.0
127,29.0,0.0,1265.0,1265.333333
127,33.0,0.5,1265.333333,1266.0
127,26.0,0.0,1266.0,1267.0
127,35.0,0.8,1267.0,1268.0
127,31.0,0.4,1268.0,1269.0
127,29.0,0.0,1269.0,1269.333333
127,24.0,0.2,1269.333333,1270.0
127,33.0,0.4,1270.0,1270.666667
127,24.0,0.5,1270.666667,1271.0
127,26.0,0.6,1271.0,1272.0
127,31.0,0.7,1272.0,1273.0
127,26.0,0.0,1273.0,1273.333333
127,29.0,0.0,1273.333333,1274.0
127,26.0,0.6,1274.0,1276.0
127,35.0,0.3,1276.0,1277.0
127,26.0,0.6,1277.0,1277.333333
127,24.0,0.2,1277.333333,1278.0
127,26.0,0.3,1278.0,1279.0
127,28.0,0.0,1280.0,1281.0
127,26.0,0.0,1281.0,1281.333333
127,24.0,0.5,1281.333333,1282.666667
127,29.0,0.0,1282.666667,1283.0
127,26.0,0.2,1283.0,1284.0
127,32.0,0.0,1284.0,1285.0
127,33.0,0.0,1285.0,1285.333333
127,34.0,0.4,1285.333333,1286.0
127,33.0,0.4,1286.0,1286.666667
127,29.0,0.6,1286.666667,1288.0
127,34.0,0.0,1288.0,1289.333333
127,28.0,0.0,1290.0,1290.666667
127,26.0,0.0,1290.666667,1291.0
127,28.0,0.6,1291.0,1292.0
127,34.0,0.0,1292.0,1293.0
127,36.0,0.2,1293.0,1293.333333
127,33.0,0.0,1293.333333,1294.0
127,35.0,0.9,1294.0,1295.0
127,33.0,0.4,1295.0,1297.333333
127,38.0,0.3,1297.333333,1299.0
127,43.0,0.0,1299.0,1300.0
127,40.0,0.0,1300.0,1301.333333
127,41.0,0.0,1301.333333,1302.0
127,43.0,0.0,1302.0,1302.666667
127,45.0,0.0,1302.666667,1303.0
127,43.0,0.4,1303.0,1304.0
127,44.0,0.0,1304.0,1305.0
127,47.0,0.5,1305.0,1305.333333
127,50.0,0.2,1305.333333,1306.0
127,48.0,0.2,1306.0,1306.666667
127,43.0,0.0,1306.666667,1307.0
127,45.0,0.4,1307.0,1308.0
127,46.0,0.4,1308.0,1309.0
127,43.0,0.4,1309.0,1309.333333
127,41.0,0.0,1309.333333,1310.0
127,43.0,0.0,1310.0,1311.0
127,41.0,0.0,1311.0,1312.0
127,43.0,0.0,1312.0,1313.0
127,40.0,0.4,1313.0,1314.0
127,45.0,0.0,1314.0,1314.666667
127,41.0,0.0,1314.666667,1315.0
127,46.0,0.4,1315.0,1316.0
127,52.0,0.6,1316.0,1317.0
127,53.0,0.0,1317.0,1317.333333
127,52.0,0.7,1317.333333,1318.666667
127,55.0,0.1,1318.666667,1320.0
127,52.0,0.0,1320.0,1321.0
127,50.0,0.6,1321.0,1321.333333
127,45.0,0.5,1321.333333,1322.666667
127,44.0,0.0,1322.666667,1323.0
127,47.0,0.8,1323.0,1324.0
127,45.0,0.1,1324.0,1325.0
127,47.0,0.5,1325.0,1325.333333
127,45.0,0.0,1325.333333,1326.0
127,43.0,0.4,1326.0,1328.0
127,46.0,0.0,1328.0,1329.333333
127,45.0,0.5,1329.333333,1330.0
127,41.0,0.0,1330.0,1330.666667
127,43.0,0.0,1330.666667,1331.0
127,38.0,0.2,1331.0,1332.0
127,33.0,0.8,1332.0,1333.0
127,36.0,0.5,1333.0,1333.333333
127,40.0,0.0,1333.333333,1334.0
127,36.0,0.2,1334.0,1334.666667
127,34.0,0.4,1334.666667,1335.0
127,31.0,0.0,1335.0,1336.0
127,34.0,0.1,1336.0,1337.0
127,33.0,0.0,1337.0,1337.333333
127,31.0,0.0,1337.333333,1339.0
127,28.0,0.6,1339.0,1340.0
127,31.0,0.0,1340.0,1341.333333
127,34.0,0.0,1341.333333,1342.0
127,29.0,0.0,1342.0,1343.0
127,32.0,0.0,1343.0,1345.0
127,28.0,0.0,1345.0,1346.666667
127,35.0,0.5,1346.666667,1347.0
127,31.0,0.0,1347.0,1348.0
127,28.0,0.0,1348.0,1349.0
127,31.0,0.7,1349.0,1349.333333
127,26.0,0.3,1349.333333,1350.0
127,35.0,0.8,1350.0,1350.666667
127,24.0,0.2,1350.666667,1351.0
127,29.0,0.6,1351.0,1352.0
127,33.0,0.4,1352.0,1353.0
127,29.0,0.0,1353.0,1353.333333
127,35.0,0.8,1353.333333,1354.666667
127,34.0,0.4,1354.666667,1355.0
127,32.0,0.0,1355.0,1356.0
127,33.0,0.0,1356.0,1357.0
127,29.0,0.3,1357.0,1357.333333
127,24.0,0.2,1357.333333,1358.0
127,29.0,0.0,1358.0,1358.666667
127,26.0,0.2,1358.666667,1360.0
127,24.0,0.0,1360.0,1361.0
127,29.0,0.0,1361.0,1362.0
127,26.0,0.6,1362.0,1362.666667
127,32.0,0.0,1362.666667,1363.0
127,33.0,0.4,1363.0,1364.0
127,29.0,0.0,1364.0,1365.0
127,31.0,0.4,1365.0,1366.0
127,34.0,0.0,1366.0,1366.666667
127,32.0,0.5,1366.666667,1368.0
127,31.0,0.0,1368.0,1369.333333
127,35.0,0.8,1369.333333,1370.666667
127,33.0,0.0,1370.666667,1371.0
127,35.0,0.8,1371.0,1372.0
127,29.0,0.0,1372.0,1373.333333
127,34.0,0.0,1373.333333,1374.0
127,29.0,0.3,1374.0,1374.666667
127,31.0,0.4,1374.666667,1375.0
127,28.0,0.6,1375.0,1376.0
127,32.0,0.0,1376.0,1377.0
127,33.0,0.0,1377.0,1377.333333
127,32.0,0.0,1377.333333,1378.666667
127,33.0,0.8,1378.666667,1379.0
127,38.0,0.2,1379.0,1380.0
127,33.0,0.1,1380.0,1382.0
127,31.0,0.7,1382.0,1383.0
127,35.0,0.6,1383.0,1384.0
127,31.0,0.4,1384.0,1385.0
127,33.0,0.8,1385.0,1386.0
127,36.0,0.5,1386.0,1386.666667
127,40.0,0.0,1386.666667,1388.0
127,44.0,0.0,1388.0,1389.0
127,45.0,0.8,1389.0,1389.333333
127,43.0,0.1,1389.333333,1390.0
127,45.0,0.5,1390.0,1391.0
127,50.0,0.0,1391.0,1392.0
127,46.0,0.0,1392.0,1393.0
127,50.0,0.6,1393.0,1394.0
127,45.0,0.0,1394.0,1394.666667
127,46.0,0.0,1394.666667,1395.0
127,43.0,0.0,1395.0,1396.0
127,44.0,0.0,1396.0,1397.0
127,48.0,0.2,1397.0,1397.333333
127,53.0,0.0,1397.333333,1398.0
127,55.0,0.0,1398.0,1399.0
127,52.0,0.0,1400.0,1401.0
127,50.0,0.9,1401.0,1401.333333
127,55.0,0.0,1401.333333,1404.0
127,53.0,0.0,1404.0,1405.0
127,55.0,0.1,1405.0,1405.333333
127,58.0,0.1,1405.333333,1406.0
127,56.0,0.0,1406.0,1406.666667
127,57.0,0.4,1406.666667,1408.0
127,53.0,0.0,1408.0,1409.333333
127,57.0,0.0,1409.333333,1410.0
127,52.0,0.0,1410.0,1414.0
127,53.0,0.0,1414.0,1415.0
127,52.0,0.6,1415.0,1416.0
127,48.0,0.4,1416.0,1417.0
127,45.0,0.0,1417.0,1417.333333
127,50.0,0.6,1417.333333,1418.0
127,55.0,0.7,1418.0,1418.666667
127,60.0,0.2,1418.666667,1419.0
127,62.0,0.2,1419.0,1420.0
127,57.0,0.5,1420.0,1421.333333
127,53.0,0.3,1421.333333,1422.666667
127,50.0,0.2,1422.666667,1423.0
127,45.0,0.5,1423.0,1424.0
127,41.0,0.0,1424.0,1425.0
127,44.0,0.5,1425.0,1425.333333
127,50.0,0.6,1425.333333,1426.0
127,53.0,0.0,1426.0,1426.666667
127,57.0,0.8,1426.666667,1427.0
127,59.0,0.8,1427.0,1428.0
127,53.0,0.0,1428.0,1429.0
127,57.0,0.5,1429.0,1429.333333
127,59.0,0.9,1429.333333,1430.0
127,58.0,0.0,1430.0,1430.666667
127,53.0,0.6,1430.666667,1431.0
127,47.0,0.9,1431.0,1432.0
127,45.0,0.0,1432.0,1433.0
127,48.0,0.5,1433.0,1433.333333
127,47.0,0.8,1433.333333,1434.0
127,53.0,0.3,1434.0,1434.666667
127,55.0,0.1,1434.666667,1435.0
127,57.0,0.4,1435.0,1436.0
127,53.0,0.0,1436.0,1437.0
127,47.0,0.9,1437.0,1437.333333
127,41.0,0.3,1437.333333,1438.0
127,36.0,0.2,1438.0,1439.0
127,35.0,0.0,1440.0,1441.0
127,36.0,0.5,1441.0,1441.333333
127,31.0,0.4,1441.333333,1442.0
127,29.0,0.0,1442.0,1443.0
127,33.0,0.4,1443.0,1444.0
127,35.0,0.4,1444.0,1445.333333
127,33.0,0.5,1445.333333,1446.0
127,34.0,0.0,1446.0,1446.666667
127,33.0,0.0,1446.666667,1448.0
127,34.0,0.0,1448.0,1449.333333
127,40.0,0.0,1450.0,1450.666667
127,45.0,0.5,1450.666667,1451.0
127,43.0,0.0,1451.0,1452.0
127,44.0,0.0,1452.0,1453.0
127,50.0,0.3,1453.0,1453.333333
127,44.0,0.5,1453.333333,1454.0
127,50.0,0.6,1454.0,1454.666667
127,45.0,0.4,1454.666667,1455.0
127,50.0,0.2,1455.0,1456.0
127,46.0,0.0,1456.0,1457.0
127,45.0,0.0,1457.0,1458.666667
127,43.0,0.0,1458.666667,1459.0
127,40.0,0.6,1459.0,1460.0
127,43.0,0.0,1460.0,1461.0
127,44.0,0.0,1461.333333,1462.0
127,41.0,0.0,1462.0,1462.666667
127,45.0,0.0,1462.666667,1463.0
127,43.0,0.1,1463.0,1464.0
127,48.0,0.0,1464.0,1465.0
127,52.0,0.0,1465.0,1465.333333
127,55.0,0.0,1465.333333,1466.0
127,53.0,0.0,1466.0,1466.666667
127,56.0,0.0,1466.666667,1467.0
127,50.0,0.2,1467.0,1468.0
127,53.0,0.3,1468.0,1469.0
127,55.0,0.1,1469.0,1469.333333
127,58.0,0.1,1469.333333,1470.0
127,53.0,0.0,1470.0,1470.666667
127,50.0,0.0,1470.666667,1471.0
127,45.0,0.5,1471.0,1472.0
127,48.0,0.8,1472.0,1473.0
127,46.0,0.1,1473.0,1473.333333
127,40.0,0.0,1473.333333,1474.0
127,45.0,0.0,1474.0,1475.0
127,47.0,0.8,1475.0,1476.0
127,52.0,0.6,1476.0,1477.0
127,57.0,0.5,1477.0,1478.666667
127,62.0,0.3,1478.666667,1480.0
127,57.0,0.0,1480.0,1481.0
127,58.0,0.4,1481.0,1481.333333
127,52.0,0.4,1481.333333,1482.666667
127,57.0,0.8,1482.666667,1483.0
127,59.0,0.8,1483.0,1484.0
127,53.0,0.0,1484.0,1485.0
127,57.0,0.0,1485.0,1485.333333
127,58.0,0.1,1485.333333,1486.666667
127,62.0,0.0,1486.666667,1488.0
127,57.0,0.5,1488.0,1489.333333
127,52.0,0.7,1489.333333,1490.0
127,47.0,0.5,1490.0,1490.666667
127,41.0,0.0,1490.666667,1491.0
127,45.0,0.4,1491.0,1493.0
127,48.0,0.2,1493.0,1493.333333
127,52.0,0.0,1493.333333,1494.0
127,55.0,0.0,1494.0,1494.666667
127,53.0,0.0,1494.666667,1495.0
127,47.0,0.8,1495.0,1496.0
127,44.0,0.0,1496.0,1497.0
127,45.0,0.0,1497.0,1497.333333
127,50.0,0.2,1497.333333,1498.0
127,45.0,0.8,1498.0,1498.666667
127,46.0,0.4,1498.666667,1499.0
127,43.0,0.0,1499.0,1500.0
127,44.0,0.0,1500.0,1501.333333
127,45.0,0.4,1501.333333,1502.0
127,50.0,0.0,1502.0,1503.0
127,53.0,0.0,1503.0,1504.0
127,47.0,0.4,1504.0,1505.0
127,44.0,0.5,1505.0,1506.0
127,38.0,0.6,1506.0,1506.666667
127,41.0,0.0,1506.666667,1507.0
127,40.0,0.6,1507.0,1508.0
127,45.0,0.0,1508.0,1509.0
127,41.0,0.0,1509.0,1509.333333
127,46.0,0.0,1509.333333,1510.0
127,44.0,0.0,1510.0,1510.666667
127,41.0,0.0,1510.666667,1511.0
127,43.0,0.4,1511.0,1512.0
127,40.0,0.7,1512.0,1513.0
127,44.0,0.0,1513.0,1513.333333
127,40.0,0.6,1513.333333,1514.0
127,36.0,0.2,1514.0,1514.666667
127,31.0,0.4,1514.666667,1515.0
127,36.0,0.5,1515.0,1516.0
127,33.0,0.0,1516.0,1517.0
127,31.0,0.4,1517.0,1518.666667
127,33.0,0.4,1518.666667,1520.0
127,31.0,0.0,1520.0,1521.0
127,32.0,0.0,1521.0,1522.0
127,38.0,0.9,1522.0,1522.666667
127,35.0,0.8,1522.666667,1523.0
127,38.0,0.2,1523.0,1524.0
127,39.0,0.2,1524.0,1525.0
127,44.0,0.5,1525.0,1525.333333
127,43.0,0.4,1525.333333,1526.0
127,46.0,0.0,1526.0,1526.666667
127,47.0,0.5,1526.666667,1528.0
127,41.0,0.6,1528.0,1529.333333
127,43.0,0.0,1529.333333,1530.0
127,40.0,0.0,1530.0,1530.666667
127,43.0,0.4,1530.666667,1531.0
127,47.0,0.8,1531.0,1532.0
127,46.0,0.0,1532.0,1533.0
127,45.0,0.8,1533.0,1534.0
127,46.0,0.1,1534.0,1534.666667
127,44.0,0.0,1534.666667,1535.0
127,45.0,0.4,1535.0,1536.0
127,41.0,0.0,1536.0,1537.0
127,45.0,0.0,1537.0,1537.333333
127,43.0,0.4,1537.333333,1538.666667
127,45.0,0.0,1538.666667,1540.0
127,40.0,0.0,1540.0,1541.333333
127,41.0,0.6,1541.333333,1542.0
127,36.0,0.5,1542.0,1542.666667
127,33.0,0.8,1542.666667,1543.0
127,38.0,0.6,1543.0,1544.0
127,41.0,0.0,1544.0,1545.0
127,35.0,0.5,1545.0,1546.0
127,40.0,0.7,1546.0,1546.666667
127,45.0,0.8,1546.666667,1547.0
127,43.0,0.0,1547.0,1548.0
127,41.0,0.0,1548.0,1549.0
127,38.0,0.6,1549.0,1550.0
127,35.0,0.8,1550.0,1550.666667
127,40.0,0.6,1550.666667,1551.0
127,41.0,0.0,1551.0,1554.0
127,45.0,0.0,1554.0,1554.666667
127,46.0,0.0,1554.666667,1556.0
127,50.0,0.3,1556.0,1557.0
127,53.0,0.0,1557.0,1559.0
127,52.0,0.0,1560.0,1561.0
127,55.0,0.4,1561.0,1561.333333
127,50.0,0.2,1561.333333,1562.666667
127,48.0,0.2,1562.666667,1563.0
127,52.0,0.6,1563.0,1564.0
127,53.0,0.3,1564.0,1565.0
127,57.0,0.5,1565.0,1565.333333
127,53.0,0.0,1565.333333,1566.666667
127,50.0,0.2,1566.666667,1568.0
127,48.0,0.5,1568.0,1569.333333
127,45.0,0.0,1569.333333,1570.0
127,44.0,0.5,1570.0,1570.666667
127,38.0,0.9,1570.666667,1572.0
127,35.0,0.0,1572.0,1573.0
127,33.0,0.5,1573.0,1573.333333
127,29.0,0.0,1573.333333,1574.0
127,33.0,0.4,1574.0,1575.0
127,31.0,0.0,1575.0,1576.0
127,36.0,0.3,1576.0,1577.0
127,33.0,0.0,1577.0,1578.666667
127,38.0,0.9,1578.666667,1579.0
127,35.0,0.8,1579.0,1580.0
127,32.0,0.0,1580.0,1581.333333
127,35.0,0.9,1581.333333,1582.666667
127,33.0,0.4,1582.666667,1583.0
127,38.0,0.0,1583.0,1584.0
127,33.0,0.0,1584.0,1585.0
127,28.0,0.0,1585.0,1585.333333
127,24.0,0.5,1585.333333,1586.666667
127,29.0,0.0,1586.666667,1587.0
127,33.0,0.4,1587.0,1588.0
127,34.0,0.1,1588.0,1589.0
127,38.0,0.3,1589.0,1589.333333
127,43.0,0.4,1589.333333,1590.666667
127,45.0,0.5,1590.666667,1591.0
127,40.0,0.4,1591.0,1592.0
127,41.0,0.0,1592.0,1593.333333
127,43.0,0.0,1593.333333,1594.0
127,47.0,0.9,1594.0,1595.0
127,43.0,0.0,1595.0,1596.0
127,44.0,0.0,1596.0,1597.0
127,40.0,0.7,1597.0,1597.333333
127,45.0,0.8,1597.333333,1598.0
127,41.0,0.0,1598.0,1599.0
127,40.0,0.0,1600.0,1601.0
127,36.0,0.5,1601.0,1601.333333
127,33.0,0.5,1601.333333,1602.0
127,29.0,0.0,1602.0,1602.666667
127,35.0,0.6,1602.666667,1603.0
127,31.0,0.0,1603.0,1604.0
127,32.0,0.0,1604.0,1605.0
127,29.0,0.0,1605.0,1605.333333
127,32.0,0.0,1605.333333,1606.0
127,31.0,0.0,1606.0,1606.666667
127,29.0,0.0,1606.666667,1608.0
127,31.0,0.0,1608.0,1609.333333
127,34.0,0.4,1610.0,1610.666667
127,29.0,0.0,1610.666667,1611.0
127,33.0,0.4,1611.0,1612.0
127,31.0,0.0,1612.0,1613.0
127,26.0,0.3,1613.0,1614.666667
127,33.0,0.4,1614.666667,1615.0
127,26.0,0.2,1615.0,1616.0
127,29.0,0.0,1616.0,1617.0
127,33.0,0.0,1617.0,1617.333333
127,31.0,0.7,1617.333333,1619.0
127,35.0,0.8,1619.0,1620.0
127,31.0,0.0,1620.0,1621.333333
127,29.0,0.0,1621.333333,1622.666667
127,33.0,0.0,1622.666667,1623.0
127,31.0,0.1,1623.0,1624.0
127,34.0,0.0,1624.0,1625.0
127,40.0,0.0,1625.0,1625.333333
127,35.0,0.8,1625.333333,1626.0
127,41.0,0.0,1626.0,1626.666667
127,44.0,0.5,1626.666667,1627.0
127,38.0,0.2,1627.0,1628.0
127,39.0,0.2,1628.0,1629.0
127,43.0,0.1,1629.0,1629.333333
127,41.0,0.0,1629.333333,1630.0
127,46.0,0.0,1630.0,1630.666667
127,50.0,0.9,1630.666667,1631.0
127,45.0,0.5,1631.0,1632.0
127,43.0,0.4,1632.0,1633.0
127,46.0,0.1,1633.0,1633.333333
127,52.0,0.0,1633.333333,1634.0
127,57.0,0.0,1634.0,1635.0
127,52.0,0.6,1635.0,1636.0
127,53.0,0.2,1636.0,1637.0
127,57.0,0.5,1637.0,1638.666667
127,62.0,0.9,1638.666667,1640.0
127,64.0,0.0,1640.0,1641.0
127,58.0,0.4,1641.0,1641.333333
127,60.0,0.5,1641.333333,1642.666667
127,55.0,0.1,1642.666667,1643.0
127,52.0,0.6,1643.0,1644.0
127,57.0,0.4,1644.0,1646.0
127,58.0,0.0,1646.0,1646.666667
127,52.0,0.6,1646.666667,1648.0
127,53.0,0.0,1648.0,1649.333333
127,48.0,0.5,1649.333333,1650.0
127,43.0,0.0,1650.0,1650.666667
127,48.0,0.2,1650.666667,1652.0
127,43.0,0.7,1652.0,1653.0
127,48.0,0.2,1653.0,1653.333333
127,52.0,0.0,1653.333333,1654.0
127,48.0,0.5,1654.0,1654.666667
127,47.0,0.6,1654.666667,1655.0
127,52.0,0.6,1655.0,1656.0
127,55.0,0.4,1656.0,1657.0
127,57.0,0.0,1657.0,1657.333333
127,52.0,0.6,1657.333333,1658.0
127,48.0,0.2,1658.0,1658.666667
127,43.0,0.1,1658.666667,1659.0
127,45.0,0.4,1659.0,1660.0
127,46.0,0.0,1660.0,1661.0
127,41.0,0.0,1661.333333,1662.0
127,44.0,0.0,1662.0,1663.0
127,41.0,0.0,1663.0,1664.0
127,45.0,0.5,1664.0,1665.333333
127,43.0,0.4,1666.0,1667.0
127,47.0,0.8,1667.0,1668.0
127,45.0,0.0,1668.0,1669.0
127,41.0,0.0,1669.0,1669.333333
127,44.0,0.0,1669.333333,1670.0
127,41.0,0.3,1670.0,1670.666667
127,45.0,0.8,1670.666667,1671.0
127,43.0,0.4,1671.0,1672.0
127,41.0,0.5,1672.0,1673.0
127,44.0,0.0,1673.0,1673.333333
127,47.0,0.8,1673.333333,1674.0
127,45.0,0.8,1674.0,1674.666667
127,41.0,0.0,1674.666667,1675.0
127,38.0,0.2,1675.0,1676.0
127,33.0,0.0,1676.0,1677.0
127,31.0,0.4,1677.0,1677.333333
127,29.0,0.0,1677.333333,1678.0
127,31.0,0.7,1678.0,1678.666667
127,33.0,0.4,1678.666667,1680.0
127,28.0,0.0,1680.0,1681.0
127,32.0,0.0,1681.0,1682.0
127,31.0,0.1,1682.0,1683.0
127,26.0,0.2,1683.0,1684.0
127,27.0,0.0,1684.0,1685.0
127,33.0,0.0,1685.0,1685.333333
127,39.0,0.2,1685.333333,1686.0
127,34.0,0.0,1686.0,1686.666667
127,29.0,0.0,1686.666667,1688.0
127,26.0,0.0,1688.0,1689.333333
127,35.0,0.8,1689.333333,1690.0
127,28.0,0.0,1690.0,1690.666667
127,31.0,0.4,1690.666667,1691.0
127,28.0,0.6,1691.0,1692.0
127,29.0,0.0,1692.0,1693.0
127,33.0,0.8,1693.0,1694.0
127,34.0,0.1,1694.0,1694.666667
127,38.0,0.6,1694.666667,1695.0
127,43.0,0.0,1695.0,1696.0
127,41.0,0.0,1696.0,1697.0
127,45.0,0.0,1697.0,1697.333333
127,50.0,0.0,1697.333333,1699.0
127,55.0,0.0,1699.0,1700.0
127,50.0,0.0,1700.0,1702.0
127,55.0,0.0,1702.0,1702.666667
127,50.0,0.6,1702.666667,1705.0
127,47.0,0.5,1705.0,1706.0
127,53.0,0.3,1706.0,1706.666667
127,55.0,0.0,1706.666667,1707.0
127,57.0,0.4,1707.0,1708.0
127,62.0,0.0,1708.0,1710.0
127,67.0,0.7,1710.0,1710.666667
127,62.0,0.2,1710.666667,1711.0
127,65.0,0.0,1711.0,1712.0
127,68.0,0.0,1712.0,1713.0
127,65.0,0.6,1713.0,1713.333333
127,69.0,0.0,1713.333333,1715.0
127,71.0,0.6,1715.0,1716.0
127,72.0,0.8,1716.0,1717.0
127,77.0,0.0,1717.0,1717.333333
127,82.0,0.4,1717.333333,1718.0
127,77.0,0.3,1718.0,1719.0
127,76.0,0.0,1720.0,1721.0
127,79.0,0.4,1721.0,1721.333333
127,76.0,0.6,1721.333333,1722.666667
127,70.0,0.0,1722.666667,1723.0
127,71.0,0.8,1723.0,1724.0
127,72.0,0.2,1724.0,1725.0
127,71.0,0.5,1725.0,1726.0
127,70.0,0.0,1726.0,1726.666667
127,69.0,0.4,1726.666667,1730.0
127,68.0,0.5,1730.0,1731.0
127,62.0,0.2,1731.0,1732.0
127,67.0,0.0,1732.0,1733.0
127,69.0,0.5,1733.0,1733.333333
127,64.0,0.0,1733.333333,1734.0
127,69.0,0.8,1734.0,1736.0
127,67.0,0.0,1736.0,1738.0
127,72.0,0.5,1738.0,1738.666667
127,68.0,0.0,1738.666667,1739.0
127,64.0,0.6,1739.0,1740.0
127,58.0,0.4,1740.0,1741.333333
127,60.0,0.2,1741.333333,1742.0
127,58.0,0.1,1742.0,1742.666667
127,57.0,0.4,1742.666667,1743.0
127,62.0,0.0,1743.0,1744.0
127,58.0,0.4,1744.0,1745.0
127,52.0,0.0,1745.0,1745.333333
127,55.0,0.4,1745.333333,1746.0
127,57.0,0.5,1746.0,1746.666667
127,55.0,0.0,1746.666667,1748.0
127,53.0,0.0,1748.0,1749.0
127,50.0,0.3,1749.0,1749.333333
127,45.0,0.5,1749.333333,1750.0
127,50.0,0.2,1750.0,1750.666667
127,52.0,0.4,1750.666667,1752.0
127,55.0,0.0,1752.0,1753.0
127,53.0,0.0,1753.0,1753.333333
127,58.0,0.4,1753.333333,1754.666667
127,60.0,0.8,1754.666667,1755.0
127,57.0,0.4,1755.0,1756.0
127,53.0,0.0,1756.0,1757.0
127,52.0,0.7,1757.0,1758.0
127,53.0,0.0,1758.0,1759.0
127,52.0,0.0,1760.0,1761.0
127,53.0,0.0,1761.0,1761.333333
127,50.0,0.6,1761.333333,1762.0
127,45.0,0.5,1762.0,1764.0
127,47.0,0.4,1764.0,1765.0
127,50.0,0.6,1765.0,1765.333333
127,45.0,0.5,1765.333333,1766.0
127,46.0,0.0,1766.0,1766.666667
127,47.0,0.5,1766.666667,1768.0
127,43.0,0.4,1768.0,1770.666667
127,46.0,0.0,1770.666667,1771.0
127,47.0,0.8,1771.0,1772.0
127,46.0,0.0,1772.0,1773.0
127,41.0,0.0,1773.0,1774.0
127,40.0,0.7,1774.0,1774.666667
127,38.0,0.2,1774.666667,1775.0
127,35.0,0.8,1775.0,1776.0
127,33.0,0.4,1776.0,1777.333333
127,36.0,0.5,1777.333333,1779.0
127,38.0,0.2,1779.0,1780.0
127,43.0,0.0,1780.0,1781.333333
127,46.0,0.1,1781.333333,1782.0
127,50.0,0.3,1782.0,1782.666667
127,45.0,0.0,1782.666667,1783.0
127,46.0,0.4,1783.0,1784.0
127,43.0,0.0,1784.0,1785.0
127,47.0,0.5,1785.0,1785.333333
127,52.0,0.6,1785.333333,1786.0
127,55.0,0.7,1786.0,1786.666667
127,56.0,0.0,1786.666667,1787.0
127,52.0,0.6,1787.0,1788.0
127,55.0,0.4,1788.0,1789.0
127,60.0,0.2,1789.0,1789.333333
127,65.0,0.0,1789.333333,1790.0
127,60.0,0.5,1790.0,1790.666667
127,56.0,0.0,1790.666667,1792.0
127,53.0,0.0,1792.0,1793.0
127,55.0,0.4,1793.0,1793.333333
127,52.0,0.0,1793.333333,1794.0
127,57.0,0.0,1794.0,1794.666667
127,52.0,0.4,1794.666667,1795.0
127,55.0,0.0,1795.0,1796.0
127,56.0,0.0,1796.0,1797.0
127,57.0,0.8,1797.0,1797.333333
127,56.0,0.0,1797.333333,1798.0
127,55.0,0.0,1798.0,1800.0
127,52.0,0.0,1800.0,1801.0
127,55.0,0.1,1801.0,1801.333333
127,53.0,0.6,1801.333333,1802.666667
127,48.0,0.8,1802.666667,1803.0
127,43.0,0.0,1803.0,1804.0
127,41.0,0.0,1804.0,1805.0
127,38.0,0.9,1805.0,1806.0
127,34.0,0.0,1806.0,1806.666667
127,32.0,0.0,1806.666667,1808.0
127,29.0,0.0,1808.0,1810.0
127,28.0,0.0,1810.0,1810.666667
127,29.0,0.0,1810.666667,1811.0
127,28.0,0.6,1811.0,1812.0
127,33.0,0.8,1812.0,1813.0
127,29.0,0.3,1813.0,1813.333333
127,28.0,0.0,1813.333333,1814.0
127,29.0,0.0,1814.0,1815.0
127,35.0,0.8,1815.0,1816.0
127,33.0,0.5,1816.0,1818.0
127,38.0,0.9,1818.0,1818.666667
127,34.0,0.4,1818.666667,1819.0
127,38.0,0.2,1819.0,1820.0
127,43.0,0.0,1820.0,1821.333333
127,46.0,0.0,1821.333333,1822.0
127,48.0,0.5,1822.0,1824.0
127,43.0,0.0,1824.0,1825.0
127,44.0,0.5,1825.0,1826.0
127,47.0,0.9,1826.0,1828.0
127,45.0,0.0,1828.0,1829.0
127,48.0,0.5,1829.0,1829.333333
127,46.0,0.0,1829.333333,1830.0
127,41.0,0.0,1830.0,1831.0
127,46.0,0.1,1831.0,1832.0
127,41.0,0.3,1832.0,1833.0
127,45.0,0.5,1833.0,1833.333333
127,40.0,0.6,1833.333333,1834.0
127,36.0,0.5,1834.0,1834.666667
127,32.0,0.0,1834.666667,1835.0
127,33.0,0.4,1835.0,1837.0
127,34.0,0.1,1837.0,1838.0
127,33.0,0.8,1838.0,1838.666667
127,38.0,0.2,1838.666667,1840.0
127,40.0,0.0,1840.0,1841.0
127,45.0,0.5,1841.0,1842.0
127,47.0,0.6,1842.0,1842.666667
127,43.0,0.7,1842.666667,1843.0
127,45.0,0.4,1843.0,1844.0
127,46.0,0.4,1844.0,1846.666667
127,45.0,0.8,1846.666667,1848.0
127,43.0,0.1,1848.0,1849.333333
127,40.0,0.6,1849.333333,1850.666667
127,43.0,0.0,1850.666667,1852.0
127,41.0,0.0,1852.0,1853.0
127,43.0,0.7,1853.0,1853.333333
127,45.0,0.5,1853.333333,1854.0
127,43.0,0.4,1854.0,1854.666667
127,38.0,0.0,1854.666667,1856.0
127,41.0,0.0,1856.0,1857.0
127,45.0,0.0,1857.0,1857.333333
127,50.0,0.6,1857.333333,1858.666667
127,45.0,0.0,1858.666667,1859.0
127,40.0,0.6,1859.0,1860.0
127,43.0,0.0,1860.0,1861.333333
127,44.0,0.0,1861.333333,1862.0
127,41.0,0.0,1862.0,1862.666667
127,36.0,0.2,1862.666667,1863.0
127,38.0,0.9,1863.0,1864.0
127,43.0,0.0,1864.0,1865.0
127,40.0,0.0,1865.0,1866.0
127,45.0,0.8,1866.0,1866.666667
127,44.0,0.0,1866.666667,1867.0
127,50.0,0.2,1867.0,1870.0
127,53.0,0.0,1870.0,1870.666667
127,55.0,0.0,1870.666667,1871.0
127,60.0,0.5,1871.0,1872.0
127,65.0,0.0,1872.0,1873.0
127,59.0,0.9,1873.0,1873.333333
127,55.0,0.1,1873.333333,1874.0
127,57.0,0.0,1874.0,1874.666667
127,56.0,0.0,1874.666667,1875.0
127,59.0,0.8,1875.0,1876.0
127,53.0,0.0,1876.0,1877.0
127,48.0,0.5,1877.0,1877.333333
127,53.0,0.0,1877.333333,1878.0
127,48.0,0.2,1878.0,1879.0
127,52.0,0.0,1880.0,1881.0
127,47.0,0.6,1881.0,1881.333333
127,52.0,0.6,1881.333333,1882.666667
127,53.0,0.6,1882.666667,1883.0
127,47.0,0.8,1883.0,1884.0
127,52.0,0.1,1884.0,1885.0
127,57.0,0.0,1885.0,1885.333333
127,53.0,0.0,1885.333333,1886.666667
127,52.0,0.6,1886.666667,1888.0
127,55.0,0.4,1888.0,1889.333333
127,57.0,0.0,1889.333333,1890.0
127,53.0,0.0,1890.0,1890.666667
127,55.0,0.7,1890.666667,1891.0
127,57.0,0.4,1891.0,1892.0
127,62.0,0.2,1892.0,1893.0
127,57.0,0.8,1893.0,1894.0
127,55.0,0.0,1894.0,1895.0
127,52.0,0.6,1895.0,1896.0
127,53.0,0.1,1896.0,1897.0
127,57.0,0.0,1897.0,1898.0
127,53.0,0.0,1898.0,1899.0
127,55.0,0.0,1899.0,1900.0
127,56.0,0.0,1900.0,1901.333333
127,53.0,0.0,1901.333333,1902.0
127,55.0,0.1,1902.0,1902.666667
127,59.0,0.8,1902.666667,1903.0
127,53.0,0.0,1903.0,1905.0
127,56.0,0.5,1905.0,1905.333333
127,57.0,0.5,1905.333333,1906.0
127,62.0,0.0,1906.0,1906.666667
127,58.0,0.0,1906.666667,1907.0
127,52.0,0.6,1907.0,1908.0
127,47.0,0.6,1908.0,1909.0
127,53.0,0.0,1909.0,1910.0
127,55.0,0.4,1910.0,1910.666667
127,60.0,0.5,1910.666667,1911.0
127,62.0,0.6,1911.0,1912.0
127,58.0,0.3,1912.0,1913.0
127,62.0,0.0,1913.0,1913.333333
127,57.0,0.4,1913.333333,1914.0
127,62.0,0.6,1914.0,1914.666667
127,65.0,0.0,1914.666667,1915.0
127,69.0,0.5,1915.0,1916.0
127,71.0,0.3,1916.0,1917.0
127,74.0,0.6,1917.0,1917.333333
127,72.0,0.2,1917.333333,1918.0
127,74.0,0.3,1918.0,1919.0
127,76.0,0.0,1920.0,1921.0
127,74.0,0.0,1921.0,1921.333333
127,72.0,0.5,1921.333333,1922.666667
127,77.0,0.0,1922.666667,1923.0
127,74.0,0.2,1923.0,1925.0
127,68.0,0.5,1925.0,1925.333333
127,67.0,0.4,1925.333333,1926.0
127,69.0,0.4,1926.0,1929.333333
127,64.0,0.0,1930.0,1930.666667
127,62.0,0.6,1930.666667,1931.0
127,59.0,0.8,1931.0,1932.0
127,58.0,0.0,1932.0,1933.0
127,60.0,0.2,1933.0,1933.333333
127,64.0,0.0,1933.333333,1934.0
127,59.0,0.9,1934.0,1934.666667
127,55.0,0.0,1934.666667,1936.0
127,57.0,0.0,1936.0,1937.333333
127,62.0,0.3,1937.333333,1939.0
127,57.0,0.4,1939.0,1940.0
127,52.0,0.0,1940.0,1941.333333
127,53.0,0.0,1941.333333,1942.0
127,57.0,0.5,1942.0,1943.0
127,55.0,0.4,1943.0,1944.0
127,58.0,0.0,1944.0,1945.0
127,57.0,0.5,1945.0,1945.333333
127,52.0,0.6,1945.333333,1946.0
127,48.0,0.2,1946.0,1946.666667
127,43.0,0.0,1946.666667,1948.0
127,44.0,0.0,1948.0,1949.0
127,43.0,0.4,1949.0,1949.333333
127,41.0,0.0,1949.333333,1950.0
127,45.0,0.4,1950.0,1950.666667
127,43.0,0.1,1950.666667,1951.0
127,41.0,0.0,1951.0,1952.0
127,45.0,0.0,1952.0,1953.0
127,40.0,0.4,1953.0,1954.0
127,45.0,0.0,1954.0,1954.666667
127,41.0,0.0,1954.666667,1955.0
127,47.0,0.9,1955.0,1956.0
127,50.0,0.2,1956.0,1957.0
127,53.0,0.0,1957.0,1958.0
127,50.0,0.2,1958.0,1958.666667
127,55.0,0.1,1958.666667,1960.0
127,52.0,0.0,1960.0,1961.0
127,50.0,0.6,1961.0,1961.333333
127,45.0,0.5,1961.333333,1963.0
127,40.0,0.6,1963.0,1964.0
127,45.0,0.1,1964.0,1965.0
127,48.0,0.5,1965.0,1965.333333
127,45.0,0.0,1965.333333,1966.0
127,43.0,0.4,1966.0,1966.666667
127,47.0,0.8,1966.666667,1968.0
127,46.0,0.0,1968.0,1969.333333
127,45.0,0.5,1969.333333,1970.0
127,43.0,0.4,1970.0,1970.666667
127,45.0,0.4,1970.666667,1971.0
127,50.0,0.2,1971.0,1972.0
127,48.0,0.2,1972.0,1973.333333
127,52.0,0.0,1973.333333,1974.0
127,48.0,0.2,1974.0,1974.666667
127,46.0,0.4,1974.666667,1975.0
127,45.0,0.4,1975.0,1976.0
127,46.0,0.1,1976.0,1977.0
127,45.0,0.0,1977.0,1977.333333
127,47.0,0.8,1977.333333,1978.0
127,43.0,0.4,1978.0,1979.0
127,47.0,0.8,1979.0,1980.0
127,43.0,0.0,1980.0,1981.333333
127,46.0,0.0,1981.333333,1982.0
127,41.0,0.0,1982.0,1983.0
127,44.0,0.0,1983.0,1984.0
127,43.0,0.4,1984.0,1985.0
127,40.0,0.0,1985.0,1986.666667
127,35.0,0.5,1986.666667,1987.0
127,33.0,0.4,1987.0,1989.0
127,31.0,0.7,1989.0,1989.333333
127,33.0,0.5,1989.333333,1990.0
127,31.0,0.0,1990.0,1990.666667
127,36.0,0.2,1990.666667,1991.0
127,41.0,0.6,1991.0,1992.0
127,43.0,0.0,1992.0,1993.0
127,41.0,0.0,1993.0,1993.333333
127,47.0,0.8,1993.333333,1994.666667
127,44.0,0.0,1994.666667,1995.0
127,43.0,0.0,1995.0,1996.0
127,45.0,0.0,1996.0,1997.0
127,41.0,0.3,1997.0,1997.333333
127,45.0,0.8,1997.333333,1998.0
127,41.0,0.0,1998.0,1998.666667
127,43.0,0.0,1998.666667,2000.0
127,40.0,0.0,2000.0,2001.0
127,41.0,0.0,2001.0,2002.0
127,38.0,0.6,2002.0,2003.0
127,43.0,0.0,2003.0,2004.0
127,44.0,0.0,2004.0,2005.0
127,48.0,0.5,2005.0,2005.333333
127,47.0,0.9,2005.333333,2006.0
127,43.0,0.0,2006.0,2006.666667
127,44.0,0.5,2006.666667,2008.0
127,38.0,0.1,2008.0,2009.333333
127,40.0,0.6,2009.333333,2010.0
127,43.0,0.0,2010.0,2010.666667
127,45.0,0.0,2010.666667,2012.0
127,41.0,0.0,2012.0,2013.333333
127,44.0,0.0,2013.333333,2014.0
127,41.0,0.3,2014.0,2014.666667
127,43.0,0.4,2014.666667,2015.0
127,45.0,0.4,2015.0,2016.0
127,43.0,0.5,2016.0,2017.0
127,45.0,0.0,2017.0,2017.333333
127,44.0,0.0,2017.333333,2018.666667
127,48.0,0.2,2018.666667,2019.0
127,47.0,0.8,2019.0,2020.0
127,44.0,0.5,2020.0,2021.333333
127,47.0,0.8,2021.333333,2022.0
127,43.0,0.7,2022.0,2023.0
127,47.0,0.6,2023.0,2024.0
127,43.0,0.7,2024.0,2025.0
127,47.0,0.5,2025.0,2026.0
127,48.0,0.5,2026.0,2026.666667
127,43.0,0.0,2026.666667,2027.0
127,38.0,0.2,2027.0,2028.0
127,44.0,0.0,2028.0,2029.0
127,45.0,0.8,2029.0,2029.333333
127,50.0,0.9,2029.333333,2030.0
127,45.0,0.4,2030.0,2030.666667
127,50.0,0.2,2030.666667,2032.0
127,51.0,0.2,2032.0,2033.0
127,50.0,0.6,2033.0,2033.333333
127,44.0,0.5,2033.333333,2034.0
127,45.0,0.0,2034.0,2034.666667
127,46.0,0.0,2034.666667,2035.0
127,40.0,0.6,2035.0,2036.0
127,43.0,0.4,2036.0,2037.0
127,48.0,0.2,2037.0,2037.333333
127,53.0,0.6,2037.333333,2038.0
127,48.0,0.5,2038.0,2039.0
127,52.0,0.0,2040.0,2041.0
127,50.0,0.9,2041.0,2041.333333
127,47.0,0.8,2041.333333,2042.666667
127,46.0,0.0,2042.666667,2043.0
127,40.0,0.6,2043.0,2044.0
127,45.0,0.0,2044.0,2045.333333
127,46.0,0.1,2045.333333,2046.0
127,44.0,0.0,2046.0,2046.666667
127,45.0,0.4,2046.666667,2048.0
127,41.0,0.0,2048.0,2049.333333
127,45.0,0.0,2049.333333,2050.0
127,40.0,0.0,2050.0,2051.0
127,43.0,0.0,2051.0,2052.0
127,45.0,0.0,2052.0,2053.0
127,40.0,0.7,2053.0,2054.0
127,41.0,0.0,2054.0,2055.0
127,35.0,0.8,2055.0,2056.0
127,31.0,0.4,2056.0,2057.0
127,33.0,0.0,2057.0,2057.333333
127,38.0,0.6,2057.333333,2058.0
127,43.0,0.7,2058.0,2058.666667
127,41.0,0.0,2058.666667,2059.0
127,45.0,0.4,2059.0,2061.333333
127,40.0,0.7,2061.333333,2062.0
127,41.0,0.6,2062.0,2062.666667
127,43.0,0.0,2062.666667,2063.0
127,45.0,0.5,2063.0,2064.0
127,48.0,0.0,2064.0,2065.0
127,44.0,0.5,2065.0,2065.333333
127,38.0,0.6,2065.333333,2066.0
127,41.0,0.0,2066.0,2066.666667
127,35.0,0.8,2066.666667,2068.0
127,41.0,0.0,2068.0,2069.0
127,45.0,0.5,2069.0,2069.333333
127,43.0,0.4,2069.333333,2070.0
127,45.0,0.4,2070.0,2070.666667
127,41.0,0.6,2070.666667,2071.0
127,47.0,0.9,2071.0,2072.0
127,45.0,0.0,2072.0,2073.0
127,48.0,0.5,2073.0,2073.333333
127,46.0,0.1,2073.333333,2074.0
127,41.0,0.3,2074.0,2074.666667
127,38.0,0.3,2074.666667,2076.0
127,41.0,0.0,2076.0,2077.0
127,47.0,0.9,2077.0,2077.333333
127,53.0,0.3,2077.333333,2078.0
127,48.0,0.2,2078.0,2079.0
127,52.0,0.0,2080.0,2081.0
127,48.0,0.5,2081.0,2081.333333
127,43.0,0.4,2081.333333,2082.0
127,41.0,0.0,2082.0,2083.0
127,38.0,0.2,2083.0,2085.0
127,33.0,0.0,2085.0,2085.333333
127,31.0,0.4,2085.333333,2086.0
127,33.0,0.4,2086.0,2088.0
127,34.0,0.4,2088.0,2089.0
127,35.0,0.5,2090.0,2091.0
127,40.0,0.6,2091.0,2092.0
127,46.0,0.0,2092.0,2093.0
127,50.0,0.3,2093.0,2093.333333
127,56.0,0.5,2093.333333,2094.0
127,62.0,0.6,2094.0,2096.0
127,65.0,0.0,2096.0,2097.0
127,69.0,0.0,2097.0,2099.0
127,67.0,0.0,2099.0,2100.0
127,64.0,0.0,2100.0,2101.333333
127,65.0,0.3,2101.333333,2102.666667
127,69.0,0.0,2102.666667,2103.0
127,67.0,0.1,2103.0,2104.0
127,68.0,0.0,2104.0,2105.0
127,64.0,0.0,2105.0,2105.333333
127,59.0,0.8,2105.333333,2106.0
127,53.0,0.0,2106.0,2106.666667
127,55.0,0.0,2106.666667,2107.0
127,57.0,0.4,2107.0,2108.0
127,53.0,0.3,2108.0,2109.0
127,55.0,0.1,2109.0,2109.333333
127,59.0,0.9,2109.333333,2110.0
127,53.0,0.0,2110.0,2110.666667
127,50.0,0.0,2110.666667,2111.0
127,45.0,0.5,2111.0,2112.0
127,41.0,0.0,2112.0,2113.0
127,46.0,0.1,2113.0,2113.333333
127,52.0,0.0,2113.333333,2114.0
127,57.0,0.0,2114.0,2114.666667
127,60.0,0.5,2114.666667,2115.0
127,55.0,0.1,2115.0,2116.0
127,57.0,0.4,2116.0,2117.333333
127,58.0,0.4,2117.333333,2118.0
127,57.0,0.8,2118.0,2118.666667
127,62.0,0.3,2118.666667,2120.0
127,64.0,0.0,2120.0,2121.0
127,58.0,0.4,2121.0,2121.333333
127,52.0,0.4,2121.333333,2122.666667
127,53.0,0.0,2122.666667,2123.0
127,47.0,0.8,2123.0,2124.0
127,43.0,0.7,2124.0,2125.0
127,40.0,0.0,2125.0,2125.333333
127,35.0,0.9,2125.333333,2126.0
127,34.0,0.0,2126.0,2126.666667
127,31.0,0.0,2126.666667,2128.0
127,32.0,0.0,2128.0,2129.333333
127,28.0,0.7,2129.333333,2130.0
127,33.0,0.8,2130.0,2130.666667
127,29.0,0.0,2130.666667,2131.0
127,26.0,0.2,2131.0,2132.0
127,24.0,0.5,2132.0,2133.333333
127,28.0,0.0,2133.333333,2134.0
127,24.0,0.5,2134.0,2135.0
127,28.0,0.6,2135.0,2136.0
127,29.0,0.0,2136.0,2137.0
127,33.0,0.0,2137.0,2137.333333
127,31.0,0.0,2137.333333,2138.0
127,33.0,0.8,2138.0,2138.666666
127,32.0,0.0,2138.666666,2139.0
127,28.0,0.6,2139.0,2140.0
127,29.0,0.0,2140.0,2141.333333
127,31.0,0.0,2141.333333,2142.0
127,26.0,0.0,2142.0,2143.0
127,29.0,0.0,2143.0,2144.0
127,31.0,0.0,2144.0,2146.0
127,26.0,0.6,2146.0,2146.666666
127,34.0,0.4,2146.666666,2147.0
127,31.0,0.0,2147.0,2148.0
127,33.0,0.0,2148.0,2149.0
127,29.0,0.0,2149.0,2149.333333
127,31.0,0.0,2149.333333,2150.0
127,35.0,0.8,2150.0,2150.666666
127,26.0,0.3,2150.666666,2151.0
127,31.0,0.4,2151.0,2152.0
127,26.0,0.6,2152.0,2153.0
127,32.0,0.0,2153.0,2153.333333
127,38.0,0.2,2153.333333,2154.0
127,36.0,0.2,2154.0,2154.666666
127,41.0,0.0,2154.666666,2155.0
127,45.0,0.4,2155.0,2157.0
127,43.0,0.4,2157.0,2158.666666
127,47.0,0.8,2158.666666,2160.0
127,41.0,0.0,2160.0,2161.0
127,44.0,0.0,2161.0,2162.0
127,38.0,0.9,2162.0,2162.666666
127,41.0,0.0,2162.666666,2163.0
127,45.0,0.4,2163.0,2164.0
127,46.0,0.1,2164.0,2166.666666
127,40.0,0.0,2166.666666,2168.0
127,45.0,0.0,2168.0,2169.333333
127,50.0,0.2,2169.333333,2170.0
127,52.0,0.0,2170.0,2170.666666
127,51.0,0.2,2170.666666,2171.0
127,47.0,0.8,2171.0,2172.0
127,44.0,0.0,2172.0,2173.0
127,45.0,0.8,2173.0,2173.333333
127,46.0,0.0,2173.333333,2174.666666
127,45.0,0.5,2174.666666,2175.0
127,43.0,0.0,2175.0,2176.0
127,41.0,0.0,2176.0,2177.0
127,45.0,0.0,2177.0,2177.333333
127,46.0,0.1,2177.333333,2178.666666
127,45.0,0.0,2178.666666,2179.0
127,50.0,0.2,2179.0,2180.0
127,52.0,0.0,2180.0,2181.333333
127,53.0,0.6,2181.333333,2182.0
127,57.0,0.4,2182.0,2183.0
127,62.0,0.6,2183.0,2184.0
127,57.0,0.4,2184.0,2186.0
127,52.0,0.7,2186.0,2188.0
127,46.0,0.0,2188.0,2189.0
127,50.0,0.6,2189.0,2190.0
127,45.0,0.8,2190.0,2190.666666
127,40.0,0.6,2190.666666,2191.0
127,41.0,0.0,2191.0,2192.0
127,43.0,0.4,2192.0,2193.0
127,41.0,0.6,2193.0,2194.0
127,45.0,0.0,2194.0,2194.666666
127,46.0,0.0,2194.666666,2195.0
127,43.0,0.0,2195.0,2197.0
127,41.0,0.0,2197.0,2199.0
127,40.0,0.0,2200.0,2201.0
127,43.0,0.4,2201.0,2204.0
127,41.0,0.2,2204.0,2205.0
127,46.0,0.4,2205.0,2205.333333
127,48.0,0.5,2205.333333,2206.0
127,45.0,0.5,2206.0,2206.666666
127,40.0,0.6,2206.666666,2208.0
127,43.0,0.4,2208.0,2209.333333
127,45.0,0.0,2209.333333,2210.0
127,44.0,0.5,2210.0,2210.666666
127,48.0,0.2,2210.666666,2211.0
127,52.0,0.6,2211.0,2212.0
127,53.0,0.0,2212.0,2213.0
127,57.0,0.5,2213.0,2213.333333
127,58.0,0.0,2213.333333,2214.0
127,57.0,0.8,2214.0,2215.0
127,55.0,0.0,2215.0,2216.0
127,59.0,0.0,2216.0,2217.0
127,57.0,0.0,2217.0,2217.333333
127,53.0,0.0,2217.333333,2218.0
127,57.0,0.5,2218.0,2219.0
127,62.0,0.2,2219.0,2220.0
127,56.0,0.0,2220.0,2221.0
127,55.0,0.4,2221.333333,2222.0
127,59.0,0.9,2222.0,2223.0
127,62.0,0.0,2223.0,2224.0
127,57.0,0.0,2224.0,2225.0
127,52.0,0.0,2225.0,2225.333333
127,53.0,0.0,2225.333333,2226.0
127,48.0,0.5,2226.0,2226.666666
127,53.0,0.3,2226.666666,2227.0
127,47.0,0.8,2227.0,2228.0
127,53.0,0.3,2228.0,2229.0
127,50.0,0.3,2229.0,2229.333333
127,53.0,0.6,2229.333333,2230.0
127,58.0,0.0,2230.0,2230.666666
127,56.0,0.0,2230.666666,2231.0
127,52.0,0.4,2231.0,2232.0
127,53.0,0.0,2232.0,2233.333333
127,50.0,0.2,2233.333333,2234.0
127,47.0,0.9,2234.0,2234.666666
127,45.0,0.5,2234.666666,2236.0
127,46.0,0.4,2236.0,2237.0
127,40.0,0.7,2237.0,2237.333333
127,43.0,0.7,2237.333333,2238.0
127,41.0,0.0,2238.0,2239.0
127,40.0,0.0,2240.0,2241.0
127,41.0,0.0,2241.0,2241.333333
127,44.0,0.0,2241.333333,2242.0
127,48.0,0.5,2242.0,2242.666666
127,43.0,0.1,2242.666666,2243.0
127,45.0,0.4,2243.0,2244.0
127,41.0,0.0,2244.0,2245.333333
127,39.0,0.2,2245.333333,2246.0
127,34.0,0.0,2246.0,2246.666666
127,33.0,0.0,2246.666666,2248.0
127,35.0,0.0,2248.0,2249.333333
127,31.0,0.0,2250.0,2250.666666
127,29.0,0.0,2250.666666,2252.0
127,32.0,0.0,2252.0,2253.0
127,29.0,0.0,2253.0,2253.333333
127,28.0,0.0,2253.333333,2256.0
127,34.0,0.0,2256.0,2257.0
127,33.0,0.0,2257.0,2258.666666
127,34.0,0.1,2258.666666,2259.0
127,40.0,0.6,2259.0,2260.0
127,35.0,0.0,2260.0,2261.333333
127,41.0,0.0,2261.333333,2262.0
127,35.0,0.8,2262.0,2262.666666
127,33.0,0.0,2262.666666,2263.0
127,34.0,0.4,2263.0,2265.0
127,35.0,0.5,2265.0,2265.333333
127,31.0,0.0,2265.333333,2266.0
127,26.0,0.3,2266.0,2266.666666
127,28.0,0.0,2266.666666,2267.0
127,26.0,0.2,2267.0,2269.0
127,24.0,0.2,2269.0,2269.333333
127,31.0,0.0,2269.333333,2270.0
127,24.0,0.5,2270.0,2270.666666
127,26.0,0.6,2270.666666,2271.0
127,32.0,0.0,2271.0,2272.0
127,29.0,0.0,2272.0,2273.0
127,31.0,0.4,2273.0,2273.333333
127,35.0,0.5,2273.333333,2274.0
127,33.0,0.0,2274.0,2274.666666
127,29.0,0.3,2274.666666,2275.0
127,35.0,0.8,2275.0,2276.0
127,36.0,0.4,2276.0,2277.0
127,33.0,0.8,2277.0,2277.333333
127,29.0,0.0,2277.333333,2278.0
127,33.0,0.4,2278.0,2278.666666
127,38.0,0.6,2278.666666,2280.0
127,43.0,0.0,2280.0,2281.333333
127,41.0,0.0,2281.333333,2283.0
127,35.0,0.8,2283.0,2284.0
127,41.0,0.0,2284.0,2285.0
127,45.0,0.0,2285.0,2286.0
127,43.0,0.1,2286.0,2286.666666
127,47.0,0.6,2286.666666,2288.0
127,41.0,0.0,2288.0,2290.0
127,40.0,0.0,2290.0,2290.666666
127,41.0,0.3,2290.666666,2291.0
127,45.0,0.4,2291.0,2292.0
127,41.0,0.0,2292.0,2293.333333
127,43.0,0.0,2293.333333,2294.0
127,41.0,0.0,2294.0,2294.666666
127,43.0,0.4,2294.666666,2295.0
127,38.0,0.2,2295.0,2296.0
127,41.0,0.3,2296.0,2297.0
127,45.0,0.0,2297.0,2297.333333
127,47.0,0.8,2297.333333,2298.0
127,43.0,0.1,2298.0,2298.666666
127,48.0,0.5,2298.666666,2299.0
127,43.0,0.0,2299.0,2300.0
127,44.0,0.0,2300.0,2301.333333
127,46.0,0.0,2301.333333,2302.0
127,45.0,0.5,2302.0,2303.0
127,48.0,0.5,2303.0,2304.0
127,45.0,0.5,2304.0,2305.0
127,44.0,0.5,2305.0,2306.0
127,46.0,0.1,2306.0,2306.666666
127,44.0,0.5,2306.666666,2307.0
127,40.0,0.6,2307.0,2308.0
127,45.0,0.0,2308.0,2309.0
127,48.0,0.5,2309.0,2309.333333
127,47.0,0.9,2309.333333,2310.0
127,53.0,0.0,2310.0,2310.666666
127,57.0,0.5,2310.666666,2311.0
127,58.0,0.1,2311.0,2312.0
127,53.0,0.6,2312.0,2313.0
127,57.0,0.5,2313.0,2315.0
127,53.0,0.0,2315.0,2316.0
127,57.0,0.8,2316.0,2317.0
127,58.0,0.1,2317.0,2317.333333
127,60.0,0.5,2317.333333,2318.0
127,57.0,0.8,2318.0,2318.666666
127,52.0,0.6,2318.666666,2321.0
127,57.0,0.5,2321.0,2322.0
127,58.0,0.4,2322.0,2323.0
127,62.0,0.2,2323.0,2325.0
127,56.0,0.5,2325.0,2325.333333
127,53.0,0.6,2325.333333,2326.0
127,58.0,0.0,2326.0,2326.666666
127,52.0,0.0,2326.666666,2328.0
127,55.0,0.4,2328.0,2330.0
127,53.0,0.6,2330.0,2330.666666
127,56.0,0.0,2330.666666,2331.0
127,59.0,0.8,2331.0,2332.0
127,58.0,0.0,2332.0,2333.0
127,55.0,0.7,2333.0,2333.333333
127,50.0,0.2,2333.333333,2334.0
127,55.0,0.4,2334.0,2334.666666
127,52.0,0.4,2334.666666,2335.0
127,47.0,0.8,2335.0,2336.0
127,53.0,0.0,2336.0,2337.0
127,57.0,0.0,2337.0,2337.333333
127,53.0,0.0,2337.333333,2338.666666
127,58.0,0.1,2338.666666,2339.0
127,57.0,0.4,2339.0,2342.0
127,53.0,0.0,2342.0,2342.666666
127,52.0,0.7,2342.666666,2343.0
127,50.0,0.9,2343.0,2344.0
127,45.0,0.0,2344.0,2345.0
127,40.0,0.0,2345.0,2346.0
127,36.0,0.2,2346.0,2346.666666
127,40.0,0.0,2346.666666,2347.0
127,43.0,0.0,2347.0,2348.0
127,44.0,0.0,2348.0,2349.0
127,38.0,0.9,2349.0,2349.333333
127,33.0,0.5,2349.333333,2350.0
127,31.0,0.0,2350.0,2350.666666
127,33.0,0.4,2350.666666,2351.0
127,36.0,0.5,2351.0,2352.0
127,33.0,0.4,2352.0,2353.0
127,35.0,0.9,2353.0,2353.333333
127,38.0,0.6,2353.333333,2354.0
127,33.0,0.0,2354.0,2354.666666
127,34.0,0.0,2354.666666,2355.0
127,31.0,0.4,2355.0,2356.0
127,33.0,0.8,2356.0,2357.0
127,36.0,0.5,2357.0,2357.333333
127,38.0,0.9,2357.333333,2358.0
127,35.0,0.8,2358.0,2359.0
127,40.0,0.0,2360.0,2361.0
127,35.0,0.6,2361.0,2362.666666
127,34.0,0.0,2362.666666,2363.0
127,40.0,0.6,2363.0,2364.0
127,38.0,0.0,2364.0,2365.0
127,44.0,0.0,2365.0,2365.333333
127,40.0,0.7,2365.333333,2366.0
127,41.0,0.0,2366.0,2366.666666
127,47.0,0.8,2366.666666,2368.0
127,43.0,0.1,2368.0,2369.333333
127,45.0,0.0,2369.333333,2370.0
127,41.0,0.0,2370.0,2371.0
127,38.0,0.2,2371.0,2373.0
127,33.0,0.8,2373.0,2373.333333
127,35.0,0.5,2373.333333,2374.0
127,33.0,0.4,2374.0,2376.0
127,31.0,0.1,2376.0,2377.0
127,33.0,0.0,2377.0,2377.333333
127,34.0,0.4,2377.333333,2378.0
127,29.0,0.0,2378.0,2378.666666
127,34.0,0.0,2378.666666,2379.0
127,35.0,0.8,2379.0,2380.0
127,41.0,0.3,2380.0,2381.333333
127,43.0,0.7,2381.333333,2382.666666
127,40.0,0.6,2382.666666,2383.0
127,41.0,0.0,2383.0,2384.0
127,43.0,0.0,2384.0,2385.333333
127,48.0,0.2,2385.333333,2386.0
127,44.0,0.0,2386.0,2386.666666
127,48.0,0.5,2386.666666,2387.0
127,45.0,0.4,2387.0,2388.0
127,44.0,0.0,2388.0,2389.0
127,41.0,0.0,2389.0,2390.0
127,43.0,0.0,2390.0,2391.0
127,38.0,0.6,2391.0,2392.0
127,44.0,0.0,2392.0,2393.0
127,50.0,0.0,2393.0,2393.333333
127,55.0,0.0,2393.333333,2394.666666
127,56.0,0.0,2394.666666,2395.0
127,55.0,0.0,2395.0,2396.0
127,57.0,0.7,2396.0,2397.0
127,62.0,0.6,2397.0,2397.333333
127,67.0,0.0,2397.333333,2398.0
127,62.0,0.3,2398.0,2399.0
127,64.0,0.0,2400.0,2401.0
127,62.0,0.0,2401.0,2401.333333
127,67.0,0.1,2401.333333,2402.0
127,68.0,0.0,2402.0,2403.0
127,67.0,0.0,2403.0,2405.333333
127,65.0,0.0,2405.333333,2406.0
127,67.0,0.0,2406.0,2406.666666
127,62.0,0.9,2406.666666,2408.0
127,58.0,0.0,2408.0,2409.333333
127,52.0,0.0,2410.0,2410.666666
127,53.0,0.0,2410.666666,2411.0
127,57.0,0.4,2411.0,2412.0
127,55.0,0.0,2412.0,2413.0
127,60.0,0.2,2413.0,2413.333333
127,64.0,0.0,2413.333333,2414.0
127,59.0,0.9,2414.0,2414.666666
127,64.0,0.6,2414.666666,2415.0
127,69.0,0.4,2415.0,2416.0
127,67.0,0.1,2416.0,2417.0
127,69.0,0.0,2417.0,2417.333333
127,65.0,0.3,2417.333333,2419.0
127,59.0,0.8,2419.0,2421.333333
127,57.0,0.5,2421.333333,2423.0
127,55.0,0.4,2423.0,2424.0
127,50.0,0.0,2424.0,2425.0
127,47.0,0.5,2425.0,2425.333333
127,50.0,0.2,2425.333333,2426.0
127,45.0,0.8,2426.0,2426.666666
127,43.0,0.0,2426.666666,2427.0
127,38.0,0.2,2427.0,2428.0
127,34.0,0.1,2428.0,2429.0
127,31.0,0.4,2429.0,2429.333333
127,36.0,0.5,2429.333333,2430.0
127,31.0,0.0,2430.0,2431.0
127,29.0,0.0,2431.0,2432.0
127,31.0,0.1,2432.0,2433.0
127,28.0,0.4,2433.0,2433.333333
127,32.0,0.5,2433.333333,2434.0
127,33.0,0.0,2434.0,2434.666666
127,35.0,0.9,2434.666666,2435.0
127,40.0,0.6,2435.0,2436.0
127,41.0,0.6,2436.0,2437.333333
127,45.0,0.0,2437.333333,2438.0
127,47.0,0.8,2438.0,2438.666666
127,48.0,0.5,2438.666666,2440.0
127,52.0,0.0,2440.0,2441.0
127,50.0,0.6,2441.0,2441.333333
127,46.0,0.1,2441.333333,2442.666666
127,48.0,0.5,2442.666666,2443.0
127,52.0,0.6,2443.0,2444.0
127,48.0,0.5,2444.0,2446.0
127,46.0,0.0,2446.0,2446.666666
127,45.0,0.4,2446.666666,2448.0
127,48.0,0.5,2448.0,2449.0
127,46.0,0.1,2449.333333,2450.0
127,40.0,0.0,2450.0,2450.666666
127,45.0,0.8,2450.666666,2451.0
127,43.0,0.0,2451.0,2452.0
127,44.0,0.0,2452.0,2453.0
127,48.0,0.5,2453.0,2453.333333
127,52.0,0.0,2453.333333,2454.0
127,48.0,0.2,2454.0,2454.666666
127,45.0,0.5,2454.666666,2455.0
127,43.0,0.0,2455.0,2456.0
127,41.0,0.0,2456.0,2457.0
127,45.0,0.0,2457.0,2458.0
127,50.0,0.6,2458.0,2458.666666
127,46.0,0.4,2458.666666,2459.0
127,45.0,0.4,2459.0,2460.0
127,44.0,0.0,2460.0,2461.0
127,46.0,0.0,2461.333333,2462.0
127,41.0,0.0,2462.0,2463.0
127,44.0,0.0,2463.0,2464.0
127,43.0,0.1,2464.0,2465.0
127,40.0,0.0,2465.0,2466.0
127,41.0,0.6,2466.0,2466.666666
127,40.0,0.0,2466.666666,2467.0
127,35.0,0.8,2467.0,2468.0
127,33.0,0.0,2468.0,2469.0
127,31.0,0.7,2469.0,2469.333333
127,29.0,0.0,2469.333333,2470.0
127,34.0,0.1,2470.0,2470.666666
127,31.0,0.7,2470.666666,2471.0
127,29.0,0.6,2471.0,2473.333333
127,26.0,0.2,2473.333333,2474.666666
127,29.0,0.0,2474.666666,2475.0
127,26.0,0.2,2475.0,2476.0
127,29.0,0.0,2476.0,2478.666666
127,28.0,0.6,2478.666666,2481.0
127,29.0,0.0,2481.0,2482.0
127,31.0,0.4,2482.0,2482.666666
127,29.0,0.0,2482.666666,2483.0
127,26.0,0.2,2483.0,2484.0
127,27.0,0.2,2484.0,2485.0
127,33.0,0.0,2485.0,2486.0
127,34.0,0.0,2486.0,2486.666666
127,40.0,0.0,2486.666666,2488.0
127,43.0,0.1,2488.0,2489.333333
127,38.0,0.2,2489.333333,2490.0
127,43.0,0.0,2490.0,2490.666666
127,45.0,0.5,2490.666666,2491.0
127,40.0,0.6,2491.0,2492.0
127,45.0,0.5,2492.0,2493.0
127,41.0,0.0,2493.0,2494.666666
127,36.0,0.5,2494.666666,2495.0
127,40.0,0.6,2495.0,2496.0
127,43.0,0.1,2496.0,2497.0
127,45.0,0.0,2497.0,2497.333333
127,47.0,0.9,2497.333333,2498.666666
127,45.0,0.0,2498.666666,2499.0
127,43.0,0.0,2499.0,2500.0
127,44.0,0.0,2500.0,2501.333333
127,41.0,0.0,2501.333333,2502.0
127,43.0,0.0,2502.0,2502.666666
127,48.0,0.5,2502.666666,2503.0
127,47.0,0.6,2503.0,2504.0
127,44.0,0.0,2504.0,2505.0
127,47.0,0.5,2505.0,2506.0
127,45.0,0.5,2506.0,2506.666666
127,40.0,0.0,2506.666666,2507.0
127,45.0,0.4,2507.0,2510.0
127,48.0,0.5,2510.0,2510.666666
127,47.0,0.8,2510.666666,2511.0
127,50.0,0.0,2511.0,2512.0
127,55.0,0.1,2512.0,2513.0
127,50.0,0.6,2513.0,2513.333333
127,45.0,0.0,2513.333333,2514.666666
127,41.0,0.0,2514.666666,2515.0
127,47.0,0.8,2515.0,2516.0
127,45.0,0.5,2516.0,2517.0
127,48.0,0.2,2517.0,2517.333333
127,45.0,0.5,2517.333333,2519.0
127,41.0,0.0,2520.0,2521.0
127,38.0,0.9,2521.0,2521.333333
127,33.0,0.4,2521.333333,2522.666666
127,34.0,0.4,2522.666666,2523.0
127,35.0,0.8,2523.0,2525.333333
127,31.0,0.0,2525.333333,2526.0
127,34.0,0.0,2526.0,2526.666666
127,40.0,0.6,2526.666666,2528.0
127,41.0,0.0,2528.0,2529.333333
127,45.0,0.0,2529.333333,2530.0
127,40.0,0.0,2530.0,2530.666666
127,41.0,0.0,2530.666666,2531.0
127,38.0,0.2,2531.0,2532.0
127,36.0,0.0,2532.0,2533.0
127,40.0,0.7,2533.0,2533.333333
127,44.0,0.0,2533.333333,2534.0
127,41.0,0.0,2534.0,2535.0
127,38.0,0.2,2535.0,2536.0
127,43.0,0.1,2536.0,2537.0
127,45.0,0.0,2537.0,2537.333333
127,41.0,0.0,2537.333333,2538.0
127,38.0,0.3,2538.0,2538.666666
127,33.0,0.8,2538.666666,2539.0
127,28.0,0.6,2539.0,2540.0
127,32.0,0.4,2540.0,2541.333333
127,38.0,0.0,2541.333333,2542.0
127,43.0,0.4,2542.0,2542.666666
127,40.0,0.6,2542.666666,2543.0
127,45.0,0.5,2543.0,2544.0
127,50.0,0.4,2544.0,2545.0
127,56.0,0.5,2545.0,2545.333333
127,53.0,0.0,2545.333333,2546.666666
127,55.0,0.4,2546.666666,2548.0
127,50.0,0.0,2548.0,2549.0
127,45.0,0.5,2549.0,2549.333333
127,46.0,0.4,2549.333333,2550.0
127,50.0,0.2,2550.0,2551.0
127,47.0,0.9,2551.0,2552.0
127,50.0,0.2,2552.0,2553.0
127,48.0,0.5,2553.0,2553.333333
127,45.0,0.5,2553.333333,2554.0
127,40.0,0.7,2554.0,2554.666666
127,38.0,0.3,2554.666666,2555.0
127,41.0,0.0,2555.0,2556.0
127,38.0,0.6,2556.0,2557.0
127,35.0,0.9,2557.0,2557.333333
127,38.0,0.3,2557.333333,2558.0
127,36.0,0.2,2558.0,2559.0
127,40.0,0.0,2560.0,2561.0
127,36.0,0.5,2561.0,2561.333333
127,38.0,0.0,2561.333333,2562.0
127,41.0,0.0,2562.0,2563.0
127,45.0,0.4,2563.0,2564.0
127,50.0,0.2,2564.0,2565.0
127,53.0,0.6,2565.0,2565.333333
127,50.0,0.0,2565.333333,2566.0
127,46.0,0.0,2566.0,2566.666666
127,44.0,0.5,2566.666666,2568.0
127,45.0,0.0,2568.0,2571.0
127,47.0,0.8,2571.0,2572.0
127,45.0,0.4,2572.0,2573.0
127,50.0,0.3,2573.0,2573.333333
127,52.0,0.0,2573.333333,2574.0
127,50.0,0.6,2574.0,2574.666666
127,47.0,0.8,2574.666666,2576.0
127,46.0,0.0,2576.0,2577.0
127,45.0,0.0,2577.0,2577.333333
127,48.0,0.2,2577.333333,2578.666666
127,47.0,0.9,2578.666666,2579.0
127,50.0,0.2,2579.0,2580.0
127,55.0,0.0,2580.0,2581.333333
127,57.0,0.5,2581.333333,2582.0
127,53.0,0.0,2582.0,2582.666666
127,57.0,0.0,2582.666666,2583.0
127,55.0,0.1,2583.0,2585.0
127,52.0,0.0,2585.0,2585.333333
127,57.0,0.4,2585.333333,2586.0
127,53.0,0.0,2586.0,2586.666666
127,52.0,0.0,2586.666666,2589.0
127,55.0,0.1,2589.0,2589.333333
127,57.0,0.5,2589.333333,2590.0
127,53.0,0.3,2590.0,2590.666666
127,55.0,0.4,2590.666666,2591.0
127,57.0,0.5,2591.0,2592.0
127,58.0,0.0,2592.0,2593.333333
127,57.0,0.5,2593.333333,2594.666666
127,60.0,0.2,2594.666666,2595.0
127,55.0,0.0,2595.0,2597.0
127,57.0,0.5,2597.0,2597.333333
127,56.0,0.0,2597.333333,2598.0
127,55.0,0.0,2598.0,2600.0
127,57.0,0.0,2600.0,2601.0
127,58.0,0.4,2601.0,2601.333333
127,53.0,0.0,2601.333333,2602.666666
127,57.0,0.5,2602.666666,2603.0
127,55.0,0.0,2603.0,2604.0
127,52.0,0.4,2604.0,2605.0
127,55.0,0.4,2605.0,2605.333333
127,57.0,0.0,2605.333333,2606.0
127,58.0,0.0,2606.0,2606.666666
127,59.0,0.9,2606.666666,2608.0
127,56.0,0.0,2608.0,2609.333333
127,53.0,0.0,2609.333333,2610.0
127,47.0,0.5,2610.0,2610.666666
127,50.0,0.2,2610.666666,2611.0
127,52.0,0.6,2611.0,2612.0
127,50.0,0.3,2612.0,2613.0
127,48.0,0.2,2613.0,2613.333333
127,52.0,0.0,2613.333333,2614.0
127,57.0,0.4,2614.0,2614.666666
127,62.0,0.6,2614.666666,2615.0
127,59.0,0.8,2615.0,2616.0
127,58.0,0.4,2616.0,2617.0
127,57.0,0.0,2617.0,2617.333333
127,52.0,0.6,2617.333333,2618.0
127,48.0,0.2,2618.0,2618.666666
127,45.0,0.5,2618.666666,2619.0
127,50.0,0.2,2619.0,2620.0
127,48.0,0.2,2620.0,2621.333333
127,43.0,0.4,2621.333333,2622.0
127,44.0,0.0,2622.0,2623.0
127,41.0,0.0,2623.0,2624.0
127,46.0,0.0,2624.0,2625.0
127,44.0,0.5,2625.0,2626.0
127,43.0,0.4,2626.0,2627.0
127,47.0,0.8,2627.0,2628.0
127,45.0,0.0,2628.0,2629.0
127,41.0,0.0,2629.0,2629.333333
127,36.0,0.2,2629.333333,2630.0
127,34.0,0.0,2630.0,2630.666666
127,36.0,0.5,2630.666666,2631.0
127,31.0,0.4,2631.0,2632.0
127,36.0,0.2,2632.0,2633.0
127,32.0,0.0,2633.0,2633.333333
127,33.0,0.4,2633.333333,2634.666666
127,34.0,0.1,2634.666666,2635.0
127,33.0,0.4,2635.0,2637.0
127,31.0,0.4,2637.0,2638.666666
127,35.0,0.8,2638.666666,2640.0
127,40.0,0.0,2640.0,2641.0
127,44.0,0.0,2641.0,2642.0
127,43.0,0.1,2642.0,2642.666666
127,41.0,0.0,2642.666666,2643.0
127,45.0,0.4,2643.0,2644.0
127,44.0,0.0,2644.0,2645.333333
127,43.0,0.4,2645.333333,2646.0
127,46.0,0.0,2646.0,2646.666666
127,40.0,0.0,2646.666666,2649.333333
127,45.0,0.4,2649.333333,2650.0
127,40.0,0.0,2650.0,2650.666666
127,45.0,0.0,2650.666666,2651.0
127,43.0,0.0,2651.0,2653.0
127,45.0,0.8,2653.0,2653.333333
127,43.0,0.0,2653.333333,2654.0
127,46.0,0.1,2654.0,2654.666666
127,41.0,0.6,2654.666666,2655.0
127,45.0,0.4,2655.0,2656.0
127,41.0,0.0,2656.0,2657.0
127,45.0,0.0,2657.0,2657.333333
127,41.0,0.0,2657.333333,2659.0
127,40.0,0.6,2659.0,2662.0
127,36.0,0.5,2662.0,2662.666666
127,41.0,0.3,2662.666666,2663.0
127,38.0,0.6,2663.0,2664.0
127,36.0,0.0,2664.0,2665.0
127,33.0,0.5,2665.0,2666.0
127,29.0,0.3,2666.0,2666.666666
127,28.0,0.0,2666.666666,2667.0
127,26.0,0.2,2667.0,2668.0
127,29.0,0.0,2668.0,2669.0
127,26.0,0.6,2669.0,2670.0
127,33.0,0.8,2670.0,2670.666666
127,31.0,0.0,2670.666666,2671.0
127,29.0,0.0,2671.0,2672.0
127,35.0,0.0,2672.0,2673.0
127,29.0,0.6,2673.0,2673.333333
127,24.0,0.5,2673.333333,2674.0
127,33.0,0.0,2674.0,2674.666666
127,31.0,0.0,2674.666666,2675.0
127,35.0,0.8,2675.0,2676.0
127,31.0,0.1,2676.0,2677.0
127,29.0,0.0,2677.0,2677.333333
127,31.0,0.1,2677.333333,2678.0
127,29.0,0.3,2678.0,2679.0
127,35.0,0.0,2680.0,2681.0
127,31.0,0.4,2681.0,2681.333333
127,33.0,0.4,2681.333333,2682.666666
127,31.0,0.4,2682.666666,2683.0
127,35.0,0.8,2683.0,2684.0
127,33.0,0.0,2684.0,2685.333333
127,29.0,0.3,2685.333333,2686.0
127,34.0,0.0,2686.0,2686.666666
127,33.0,0.4,2686.666666,2690.0
127,32.0,0.5,2690.0,2691.0
127,33.0,0.4,2691.0,2692.0
127,34.0,0.1,2692.0,2693.0
127,33.0,0.5,2693.0,2693.333333
127,32.0,0.5,2693.333333,2694.0
127,31.0,0.0,2694.0,2696.0
127,32.0,0.0,2696.0,2697.0
127,33.0,0.0,2697.0,2697.333333
127,35.0,0.6,2697.333333,2698.0
127,24.0,0.5,2698.0,2698.666666
127,31.0,0.7,2698.666666,2700.0
127,32.0,0.0,2700.0,2701.333333
127,24.0,0.5,2701.333333,2702.0
127,34.0,0.1,2702.0,2702.666666
127,26.0,0.2,2702.666666,2704.0
127,24.0,0.4,2704.0,2705.0
127,28.0,0.0,2705.0,2705.333333
127,33.0,0.8,2705.333333,2707.0
127,28.0,0.6,2707.0,2708.0
127,33.0,0.0,2708.0,2709.0
127,38.0,0.3,2709.0,2709.333333
127,43.0,0.4,2709.333333,2710.0
127,45.0,0.4,2710.0,2710.666666
127,50.0,0.6,2710.666666,2711.0
127,52.0,0.4,2711.0,2712.0
127,57.0,0.0,2712.0,2713.0
127,53.0,0.0,2713.0,2713.333333
127,52.0,0.6,2713.333333,2714.0
127,46.0,0.1,2714.0,2714.666666
127,43.0,0.4,2714.666666,2715.0
127,38.0,0.0,2715.0,2716.0
127,33.0,0.2,2716.0,2717.0
127,28.0,0.7,2717.0,2717.333333
127,24.0,0.5,2717.333333,2718.0
127,29.0,0.0,2718.0,2719.0
127,28.0,0.0,2720.0,2721.0
127,29.0,0.0,2721.0,2721.333333
127,26.0,0.9,2721.333333,2722.0
127,33.0,0.5,2722.0,2723.0
127,26.0,0.2,2723.0,2724.0
127,28.0,0.4,2724.0,2725.333333
127,29.0,0.0,2725.333333,2726.0
127,33.0,0.4,2726.0,2727.0
127,32.0,0.0,2728.0,2729.333333
127,29.0,0.0,2730.0,2731.0
127,35.0,0.8,2731.0,2732.0
127,34.0,0.0,2732.0,2733.0
127,29.0,0.0,2733.0,2733.333333
127,28.0,0.0,2733.333333,2734.666666
127,31.0,0.0,2734.666666,2735.0
127,28.0,0.6,2735.0,2736.0
127,31.0,0.0,2736.0,2737.0
127,33.0,0.0,2737.0,2737.333333
127,28.0,0.7,2737.333333,2738.666666
127,29.0,0.0,2738.666666,2739.0
127,33.0,0.4,2739.0,2740.0
127,35.0,0.0,2740.0,2741.333333
127,31.0,0.4,2741.333333,2742.0
127,35.0,0.8,2742.0,2742.666666
127,33.0,0.0,2742.666666,2743.0
127,34.0,0.4,2743.0,2744.0
127,31.0,0.4,2744.0,2745.0
127,35.0,0.5,2745.0,2745.333333
127,33.0,0.4,2745.333333,2746.0
127,31.0,0.7,2746.0,2746.666666
127,33.0,0.5,2746.666666,2747.0
127,31.0,0.0,2747.0,2749.0
127,36.0,0.2,2749.0,2749.333333
127,41.0,0.6,2749.333333,2750.0
127,45.0,0.4,2750.0,2751.0
127,44.0,0.0,2751.0,2752.0
127,48.0,0.0,2752.0,2753.0
127,43.0,0.4,2753.0,2753.333333
127,44.0,0.5,2753.333333,2754.0
127,45.0,0.0,2754.0,2754.666666
127,41.0,0.0,2754.666666,2755.0
127,40.0,0.4,2755.0,2756.0
127,35.0,0.6,2756.0,2757.0
127,33.0,0.8,2757.0,2757.333333
127,29.0,0.0,2757.333333,2758.0
127,33.0,0.5,2758.0,2761.0
127,31.0,0.1,2761.0,2761.333333
127,35.0,0.9,2761.333333,2762.666666
127,33.0,0.4,2762.666666,2763.0
127,28.0,0.6,2763.0,2764.0
127,29.0,0.0,2764.0,2766.0
127,34.0,0.0,2766.0,2766.666666
127,38.0,0.2,2766.666666,2768.0
127,41.0,0.0,2768.0,2769.333333
127,47.0,0.9,2769.333333,2770.0
127,52.0,0.0,2770.0,2770.666666
127,48.0,0.2,2770.666666,2771.0
127,50.0,0.2,2771.0,2772.0
127,48.0,0.2,2772.0,2773.0
127,53.0,0.3,2773.0,2773.333333
127,52.0,0.0,2773.333333,2774.0
127,53.0,0.0,2774.0,2774.666666
127,48.0,0.5,2774.666666,2775.0
127,50.0,0.2,2775.0,2776.0
127,48.0,0.0,2776.0,2777.0
127,45.0,0.0,2777.0,2777.333333
127,50.0,0.2,2777.333333,2779.0
127,47.0,0.8,2779.0,2780.0
127,41.0,0.0,2780.0,2781.333333
127,45.0,0.4,2781.333333,2782.0
127,48.0,0.5,2782.0,2784.0
127,50.0,0.4,2784.0,2785.0
127,44.0,0.5,2785.0,2786.0
127,47.0,0.9,2786.0,2787.0
127,45.0,0.4,2787.0,2789.0
127,48.0,0.5,2789.0,2789.333333
127,46.0,0.0,2789.333333,2790.0
127,41.0,0.0,2790.0,2790.666666
127,38.0,0.3,2790.666666,2791.0
127,34.0,0.1,2791.0,2792.0
127,31.0,0.4,2792.0,2793.0
127,33.0,0.5,2793.0,2793.333333
127,38.0,0.2,2793.333333,2794.0
127,36.0,0.5,2794.0,2794.666666
127,41.0,0.0,2794.666666,2795.0
127,43.0,0.0,2795.0,2796.0
127,45.0,0.0,2796.0,2797.0
127,46.0,0.1,2797.0,2798.0
127,45.0,0.8,2798.0,2798.666666
127,43.0,0.0,2798.666666,2800.0
127,40.0,0.0,2800.0,2801.0
127,45.0,0.5,2801.0,2802.0
127,47.0,0.6,2802.0,2802.666666
127,53.0,0.0,2802.666666,2803.0
127,55.0,0.0,2803.0,2805.0
127,53.0,0.0,2805.0,2805.333333
127,56.0,0.0,2805.333333,2806.0
127,55.0,0.0,2806.0,2806.666666
127,52.0,0.0,2806.666666,2808.0
127,53.0,0.0,2808.0,2809.333333
127,57.0,0.4,2809.333333,2810.666666
127,53.0,0.3,2810.666666,2811.0
127,57.0,0.4,2811.0,2812.0
127,53.0,0.0,2812.0,2813.0
127,55.0,0.7,2813.0,2813.333333
127,53.0,0.0,2813.333333,2814.0
127,55.0,0.4,2814.0,2814.666666
127,57.0,0.5,2814.666666,2815.0
127,62.0,0.2,2815.0,2816.0
127,65.0,0.0,2816.0,2817.0
127,69.0,0.0,2817.0,2817.333333
127,70.0,0.1,2817.333333,2818.666666
127,69.0,0.0,2818.666666,2819.0
127,71.0,0.8,2819.0,2820.0
127,67.0,0.1,2820.0,2821.333333
127,72.0,0.8,2821.333333,2822.0
127,77.0,0.0,2822.0,2822.666666
127,81.0,0.5,2822.666666,2823.0
127,86.0,0.9,2823.0,2824.0
127,88.0,0.4,2824.0,2826.0
127,93.0,0.8,2826.0,2826.666666
127,88.0,0.0,2826.666666,2827.0
127,86.0,0.2,2827.0,2828.0
127,82.0,0.4,2828.0,2829.0
127,86.0,0.9,2829.0,2830.0
127,81.0,0.4,2830.0,2830.666666
127,83.0,0.8,2830.666666,2831.0
127,84.0,0.5,2831.0,2832.0
127,79.0,0.1,2832.0,2833.0
127,83.0,0.9,2833.0,2833.333333
127,88.0,0.0,2833.333333,2834.0
127,93.0,0.0,2834.0,2834.666666
127,94.0,0.0,2834.666666,2835.0
127,88.0,0.6,2835.0,2836.0
127,89.0,0.0,2836.0,2837.0
127,84.0,0.5,2837.0,2839.0
127,81.0,0.0,2840.0,2841.0
127,83.0,0.6,2841.0,2841.333333
127,86.0,0.2,2841.333333,2842.666666
127,84.0,0.5,2842.666666,2843.0
127,88.0,0.6,2843.0,2844.0
127,84.0,0.1,2844.0,2846.0
127,89.0,0.0,2846.0,2846.666666
127,88.0,0.6,2846.666666,2848.0
127,91.0,0.0,2848.0,2849.333333
127,93.0,0.0,2849.333333,2850.0
127,91.0,0.0,2850.0,2850.666666
127,93.0,0.8,2850.666666,2852.0
127,88.0,0.0,2852.0,2853.0
127,93.0,0.8,2853.0,2853.333333
127,94.0,0.1,2853.333333,2854.0
127,93.0,0.5,2854.0,2855.0
127,95.0,0.8,2855.0,2856.0
127,89.0,0.0,2856.0,2857.0
127,93.0,0.0,2857.0,2857.333333
127,89.0,0.0,2857.333333,2858.666666
127,92.0,0.0,2858.666666,2859.0
127,93.0,0.4,2859.0,2860.0
127,91.0,0.1,2860.0,2861.333333
127,86.0,0.6,2861.333333,2862.666666
127,91.0,0.0,2862.666666,2863.0
127,89.0,0.0,2863.0,2864.0
127,87.0,0.0,2864.0,2865.0
127,89.0,0.0,2865.0,2866.0
127,86.0,0.0,2866.0,2866.666666
127,83.0,0.8,2866.666666,2868.0
127,79.0,0.4,2868.0,2869.0
127,77.0,0.0,2869.0,2869.333333
127,72.0,0.8,2869.333333,2870.0
127,69.0,0.4,2870.0,2870.666666
127,68.0,0.0,2870.666666,2871.0
127,62.0,0.6,2871.0,2872.0
127,60.0,0.2,2872.0,2873.0
127,62.0,0.0,2873.0,2873.333333
127,57.0,0.4,2873.333333,2874.0
127,62.0,0.6,2874.0,2874.666666
127,58.0,0.4,2874.666666,2875.0
127,62.0,0.2,2875.0,2876.0
127,67.0,0.3,2876.0,2877.0
127,62.0,0.6,2877.0,2877.333333
127,67.0,0.7,2877.333333,2878.0
127,62.0,0.3,2878.0,2879.0
127,65.0,0.0,2880.0,2881.0
127,62.0,0.0,2881.0,2881.333333
127,56.0,0.0,2881.333333,2882.666666
127,50.0,0.9,2882.666666,2884.0
127,45.0,0.0,2884.0,2885.333333
127,46.0,0.4,2885.333333,2886.0
127,45.0,0.4,2886.0,2886.666666
127,46.0,0.1,2886.666666,2889.333333
127,40.0,0.0,2890.0,2890.666666
127,45.0,0.8,2890.666666,2891.0
127,40.0,0.6,2891.0,2892.0
127,46.0,0.0,2892.0,2893.0
127,48.0,0.2,2893.0,2893.333333
127,52.0,0.0,2893.333333,2894.0
127,47.0,0.9,2894.0,2895.0
127,45.0,0.4,2895.0,2896.0
127,44.0,0.0,2896.0,2897.0
127,45.0,0.0,2897.0,2898.666666
127,46.0,0.1,2898.666666,2899.0
127,43.0,0.0,2899.0,2901.333333
127,41.0,0.0,2901.333333,2902.0
127,43.0,0.0,2902.0,2902.666666
127,45.0,0.0,2902.666666,2903.0
127,43.0,0.4,2903.0,2904.0
127,44.0,0.0,2904.0,2905.0
127,47.0,0.5,2905.0,2905.333333
127,50.0,0.2,2905.333333,2906.0
127,48.0,0.2,2906.0,2906.666666
127,52.0,0.0,2906.666666,2907.0
127,57.0,0.4,2907.0,2908.0
127,58.0,0.4,2908.0,2909.0
127,55.0,0.4,2909.0,2909.333333
127,57.0,0.4,2909.333333,2910.0
127,55.0,0.0,2910.0,2910.666666
127,50.0,0.6,2910.666666,2911.0
127,53.0,0.0,2911.0,2912.0
127,58.0,0.4,2912.0,2913.0
127,52.0,0.4,2913.0,2913.333333
127,57.0,0.5,2913.333333,2914.666666
127,52.0,0.7,2914.666666,2915.0
127,58.0,0.4,2915.0,2916.0
127,52.0,0.6,2916.0,2917.0
127,53.0,0.0,2917.0,2918.0
127,52.0,0.6,2918.0,2918.666666
127,50.0,0.6,2918.666666,2920.0
127,45.0,0.0,2920.0,2921.0
127,50.0,0.6,2921.0,2921.333333
127,53.0,0.0,2921.333333,2922.666666
127,55.0,0.4,2922.666666,2923.0
127,59.0,0.8,2923.0,2924.0
127,53.0,0.5,2924.0,2925.0
127,47.0,0.5,2925.0,2925.333333
127,45.0,0.0,2925.333333,2926.0
127,43.0,0.4,2926.0,2929.333333
127,41.0,0.0,2929.333333,2931.0
127,38.0,0.2,2931.0,2932.0
127,33.0,0.8,2932.0,2933.0
127,36.0,0.5,2933.0,2933.333333
127,40.0,0.0,2933.333333,2934.0
127,36.0,0.2,2934.0,2934.666666
127,31.0,0.4,2934.666666,2936.0
127,34.0,0.1,2936.0,2937.0
127,33.0,0.0,2937.0,2937.333333
127,31.0,0.0,2937.333333,2938.666666
127,29.0,0.6,2938.666666,2939.0
127,28.0,0.6,2939.0,2940.0
127,34.0,0.0,2940.0,2941.333333
127,33.0,0.5,2941.333333,2942.0
127,29.0,0.0,2942.0,2943.0
127,32.0,0.0,2943.0,2944.0
127,36.0,0.5,2944.0,2945.0
127,40.0,0.0,2945.0,2946.666666
127,44.0,0.5,2946.666666,2947.0
127,43.0,0.0,2947.0,2948.0
127,40.0,0.0,2948.0,2949.0
127,43.0,0.7,2949.0,2949.333333
127,41.0,0.0,2949.333333,2950.0
127,47.0,0.8,2950.0,2950.666666
127,45.0,0.5,2950.666666,2951.0
127,41.0,0.6,2951.0,2952.0
127,45.0,0.8,2952.0,2953.0
127,41.0,0.0,2953.0,2953.333333
127,43.0,0.0,2953.333333,2954.666666
127,47.0,0.9,2954.666666,2955.0
127,44.0,0.0,2955.0,2956.0
127,45.0,0.0,2956.0,2957.0
127,41.0,0.3,2957.0,2957.333333
127,45.0,0.5,2957.333333,2958.0
127,41.0,0.0,2958.0,2958.666666
127,38.0,0.2,2958.666666,2960.0
127,40.0,0.0,2960.0,2961.0
127,41.0,0.0,2961.0,2962.0
127,38.0,0.6,2962.0,2962.666666
127,35.0,0.9,2962.666666,2963.0
127,33.0,0.4,2963.0,2964.0
127,34.0,0.0,2964.0,2965.0
127,31.0,0.4,2965.0,2965.333333
127,34.0,0.4,2965.333333,2966.666666
127,40.0,0.0,2966.666666,2968.0
127,43.0,0.0,2968.0,2969.333333
127,47.0,0.8,2969.333333,2970.666666
127,53.0,0.3,2970.666666,2971.0
127,47.0,0.8,2971.0,2972.0
127,46.0,0.0,2972.0,2973.0
127,41.0,0.0,2973.0,2973.333333
127,46.0,0.0,2973.333333,2974.0
127,41.0,0.3,2974.0,2974.666666
127,40.0,0.4,2974.666666,2976.0
127,41.0,0.0,2976.0,2977.0
127,45.0,0.0,2977.0,2978.0
127,47.0,0.9,2978.666666,2979.0
127,50.0,0.2,2979.0,2980.0
127,45.0,0.1,2980.0,2981.333333
127,46.0,0.4,2981.333333,2982.0
127,43.0,0.7,2982.0,2982.666666
127,40.0,0.7,2982.666666,2983.0
127,35.0,0.6,2983.0,2984.0
127,41.0,0.0,2984.0,2985.0
127,45.0,0.8,2985.0,2986.0
127,48.0,0.5,2986.0,2986.666666
127,52.0,0.0,2986.666666,2988.0
127,53.0,0.0,2988.0,2989.0
127,57.0,0.8,2989.0,2989.333333
127,60.0,0.5,2989.333333,2990.0
127,57.0,0.5,2990.0,2991.0
127,62.0,0.0,2991.0,2992.0
127,65.0,0.0,2992.0,2993.0
127,62.0,0.6,2993.0,2994.0
127,57.0,0.0,2994.0,2994.666666
127,58.0,0.0,2994.666666,2995.0
127,55.0,0.0,2995.0,2996.0
127,56.0,0.0,2996.0,2997.0
127,60.0,0.2,2997.0,2997.333333
127,59.0,0.6,2997.333333,2998.0
127,55.0,0.0,2998.0,3001.0
127,50.0,0.9,3001.0,3002.0
127,44.0,0.0,3002.666666,3003.0
127,43.0,0.0,3003.0,3004.0
127,41.0,0.0,3004.0,3005.0
127,43.0,0.1,3005.0,3005.333333
127,40.0,0.7,3005.333333,3006.0
127,44.0,0.0,3006.0,3006.666666
127,40.0,0.6,3006.666666,3008.0
127,41.0,0.0,3008.0,3009.333333
127,45.0,0.0,3009.333333,3010.0
127,40.0,0.0,3010.0,3013.333333
127,35.0,0.5,3013.333333,3014.0
127,29.0,0.0,3014.0,3015.0
127,28.0,0.6,3015.0,3016.0
127,35.0,0.4,3016.0,3017.0
127,33.0,0.0,3017.0,3017.333333
127,34.0,0.4,3017.333333,3018.0
127,31.0,0.7,3018.0,3018.666666
127,34.0,0.0,3018.666666,3019.0
127,26.0,0.2,3019.0,3020.0
127,33.0,0.5,3020.0,3021.333333
127,26.0,0.3,3021.333333,3022.0
127,29.0,0.6,3022.0,3022.666666
127,26.0,0.2,3022.666666,3023.0
127,33.0,0.5,3023.0,3024.0
127,26.0,0.6,3024.0,3025.0
127,32.0,0.5,3025.0,3025.333333
127,36.0,0.2,3025.333333,3026.0
127,41.0,0.0,3026.0,3026.666666
127,36.0,0.5,3026.666666,3027.0
127,35.0,0.8,3027.0,3028.0
127,32.0,0.0,3028.0,3029.0
127,33.0,0.5,3029.0,3029.333333
127,29.0,0.0,3029.333333,3030.0
127,34.0,0.0,3030.0,3030.666666
127,31.0,0.4,3030.666666,3031.0
127,35.0,0.9,3031.0,3032.0
127,33.0,0.0,3032.0,3033.0
127,36.0,0.5,3033.0,3033.333333
127,35.0,0.8,3033.333333,3034.0
127,41.0,0.3,3034.0,3034.666666
127,36.0,0.8,3034.666666,3035.0
127,33.0,0.4,3035.0,3037.0
127,35.0,0.9,3037.0,3037.333333
127,33.0,0.4,3037.333333,3038.0
127,36.0,0.2,3038.0,3039.0
127,31.0,0.0,3040.0,3041.0
127,36.0,0.5,3041.0,3041.333333
127,31.0,0.1,3041.333333,3042.0
127,29.0,0.0,3042.0,3043.0
127,33.0,0.4,3043.0,3044.0
127,35.0,0.4,3044.0,3045.333333
127,41.0,0.0,3045.333333,3046.0
127,46.0,0.0,3046.0,3046.666666
127,45.0,0.0,3046.666666,3048.0
127,43.0,0.1,3048.0,3049.333333
127,40.0,0.0,3050.0,3050.666666
127,41.0,0.0,3050.666666,3051.0
127,43.0,0.0,3051.0,3052.0
127,44.0,0.0,3052.0,3053.0
127,50.0,0.3,3053.0,3053.333333
127,52.0,0.0,3053.333333,3054.0
127,50.0,0.6,3054.0,3054.666666
127,45.0,0.4,3054.666666,3055.0
127,50.0,0.2,3055.0,3056.0
127,53.0,0.0,3056.0,3057.0
127,57.0,0.0,3057.0,3057.333333
127,53.0,0.3,3057.333333,3059.0
127,52.0,0.6,3059.0,3060.0
127,50.0,0.0,3060.0,3061.333333
127,53.0,0.3,3061.333333,3062.666666
127,57.0,0.0,3062.666666,3063.0
127,55.0,0.1,3063.0,3065.0
127,52.0,0.0,3065.0,3065.333333
127,55.0,0.0,3065.333333,3066.0
127,53.0,0.0,3066.0,3066.666666
127,56.0,0.0,3066.666666,3067.0
127,50.0,0.2,3067.0,3068.0
127,53.0,0.3,3068.0,3069.0
127,55.0,0.1,3069.0,3069.333333
127,57.0,0.5,3069.333333,3070.0
127,53.0,0.0,3070.0,3070.666666
127,48.0,0.5,3070.666666,3071.0
127,45.0,0.5,3071.0,3073.0
127,46.0,0.1,3073.0,3073.333333
127,44.0,0.5,3073.333333,3074.0
127,45.0,0.0,3074.0,3074.666666
127,46.0,0.1,3074.666666,3075.0
127,47.0,0.8,3075.0,3076.0
127,52.0,0.6,3076.0,3077.0
127,57.0,0.5,3077.0,3078.666666
127,60.0,0.5,3078.666666,3080.0
127,64.0,0.0,3080.0,3081.0
127,58.0,0.4,3081.0,3082.666666
127,53.0,0.6,3082.666666,3083.0
127,47.0,0.8,3083.0,3084.0
127,43.0,0.5,3084.0,3085.0
127,45.0,0.0,3085.0,3086.0
127,46.0,0.0,3086.0,3086.666666
127,41.0,0.0,3086.666666,3088.0
127,36.0,0.5,3088.0,3089.333333
127,34.0,0.1,3089.333333,3090.0
127,35.0,0.5,3090.0,3090.666666
127,33.0,0.8,3090.666666,3093.0
127,36.0,0.2,3093.0,3093.333333
127,40.0,0.0,3093.333333,3094.0
127,43.0,0.0,3094.0,3094.666666
127,45.0,0.5,3094.666666,3095.0
127,47.0,0.8,3095.0,3096.0
127,44.0,0.0,3096.0,3097.0
127,45.0,0.0,3097.0,3097.333333
127,50.0,0.2,3097.333333,3098.0
127,45.0,0.8,3098.0,3098.666666
127,51.0,0.2,3098.666666,3099.0
127,55.0,0.0,3099.0,3100.0
127,56.0,0.0,3100.0,3101.333333
127,58.0,0.0,3101.333333,3102.0
127,62.0,0.0,3102.0,3103.0
127,65.0,0.0,3103.0,3104.0
127,59.0,0.4,3104.0,3105.0
127,56.0,0.5,3105.0,3106.0
127,50.0,0.6,3106.0,3106.666666
127,53.0,0.6,3106.666666,3107.0
127,52.0,0.6,3107.0,3108.0
127,57.0,0.0,3108.0,3109.0
127,53.0,0.0,3109.0,3109.333333
127,58.0,0.0,3109.333333,3110.0
127,56.0,0.0,3110.0,3110.666666
127,55.0,0.7,3110.666666,3113.0
127,56.0,0.0,3113.0,3113.333333
127,59.0,0.8,3113.333333,3114.0
127,60.0,0.2,3114.0,3114.666666
127,65.0,0.0,3114.666666,3115.0
127,60.0,0.5,3115.0,3116.0
127,59.0,0.0,3116.0,3117.0
127,55.0,0.4,3117.0,3118.666666
127,57.0,0.4,3118.666666,3120.0
127,55.0,0.0,3120.0,3121.0
127,56.0,0.0,3121.0,3122.0
127,50.0,0.9,3122.0,3122.666666
127,53.0,0.0,3122.666666,3123.0
127,50.0,0.2,3123.0,3124.0
127,51.0,0.2,3124.0,3125.0
127,56.0,0.5,3125.0,3125.333333
127,57.0,0.8,3125.333333,3126.0
127,58.0,0.0,3126.0,3126.666666
127,52.0,0.0,3126.666666,3128.0
127,48.0,0.2,3128.0,3129.333333
127,43.0,0.0,3129.333333,3130.0
127,40.0,0.0,3130.0,3130.666666
127,44.0,0.0,3130.666666,3131.0
127,47.0,0.8,3131.0,3132.0
127,46.0,0.0,3132.0,3133.0
127,45.0,0.8,3133.0,3133.333333
127,43.0,0.0,3133.333333,3134.0
127,46.0,0.1,3134.0,3134.666666
127,48.0,0.5,3134.666666,3135.0
127,45.0,0.4,3135.0,3136.0
127,41.0,0.0,3136.0,3137.0
127,45.0,0.0,3137.0,3137.333333
127,47.0,0.9,3137.333333,3138.666666
127,45.0,0.0,3138.666666,3140.0
127,40.0,0.0,3140.0,3141.333333
127,45.0,0.8,3141.333333,3142.0
127,48.0,0.5,3142.0,3143.0
127,50.0,0.6,3143.0,3144.0
127,53.0,0.0,3144.0,3145.0
127,47.0,0.5,3145.0,3146.0
127,52.0,0.7,3146.0,3147.0
127,55.0,0.0,3147.0,3148.0
127,53.0,0.0,3148.0,3149.0
127,50.0,0.6,3149.0,3150.0
127,47.0,0.8,3150.0,3150.666666
127,52.0,0.6,3150.666666,3151.0
127,53.0,0.0,3151.0,3152.0
127,55.0,0.0,3152.0,3153.0
127,53.0,0.6,3153.0,3153.333333
127,56.0,0.0,3153.333333,3154.0
127,57.0,0.0,3154.0,3154.666666
127,53.0,0.0,3154.666666,3155.0
127,58.0,0.1,3155.0,3156.0
127,62.0,0.3,3156.0,3157.0
127,65.0,0.0,3157.0,3157.333333
127,67.0,0.1,3157.333333,3158.0
127,65.0,0.3,3158.0,3161.0
127,67.0,0.4,3161.0,3161.333333
127,62.0,0.2,3161.333333,3163.0
127,64.0,0.6,3163.0,3164.0
127,69.0,0.4,3164.0,3168.0
127,67.0,0.1,3168.0,3169.333333
127,69.0,0.0,3169.333333,3170.0
127,68.0,0.5,3170.0,3170.666666
127,65.0,0.0,3170.666666,3171.0
127,62.0,0.2,3171.0,3172.0
127,59.0,0.0,3172.0,3173.0
127,57.0,0.5,3173.0,3173.333333
127,53.0,0.3,3173.333333,3174.0
127,57.0,0.4,3174.0,3175.0
127,55.0,0.0,3175.0,3177.0
127,57.0,0.0,3177.0,3177.333333
127,53.0,0.0,3177.333333,3178.0
127,57.0,0.5,3178.0,3178.666666
127,56.0,0.0,3178.666666,3179.0
127,59.0,0.8,3179.0,3180.0
127,55.0,0.0,3180.0,3181.333333
127,56.0,0.0,3181.333333,3182.0
127,59.0,0.9,3182.0,3182.666666
127,57.0,0.4,3182.666666,3183.0
127,62.0,0.0,3183.0,3184.0
127,58.0,0.0,3184.0,3185.0
127,52.0,0.0,3185.0,3185.333333
127,53.0,0.0,3185.333333,3186.0
127,48.0,0.5,3186.0,3186.666666
127,43.0,0.0,3186.666666,3187.0
127,45.0,0.4,3187.0,3188.0
127,50.0,0.4,3188.0,3189.333333
127,44.0,0.0,3189.333333,3190.0
127,43.0,0.0,3190.0,3190.666666
127,38.0,0.0,3190.666666,3191.0
127,40.0,0.4,3191.0,3192.0
127,41.0,0.0,3192.0,3193.333333
127,43.0,0.0,3193.333333,3194.0
127,47.0,0.9,3194.0,3194.666666
127,43.0,0.7,3194.666666,3196.0
127,44.0,0.0,3196.0,3197.0
127,40.0,0.7,3197.0,3197.333333
127,38.0,0.3,3197.333333,3198.0
127,41.0,0.0,3198.0,3199.0
127,40.0,0.0,3200.0,3201.0
127,36.0,0.5,3201.0,3201.333333
127,38.0,0.0,3201.333333,3202.0
127,41.0,0.0,3202.0,3202.666666
127,44.0,0.0,3202.666666,3203.0
127,43.0,0.0,3203.0,3205.0
127,41.0,0.0,3205.0,3205.333333
127,44.0,0.0,3205.333333,3206.0
127,43.0,0.0,3206.0,3209.333333
127,46.0,0.4,3210.0,3210.666666
127,44.0,0.0,3210.666666,3211.0
127,45.0,0.4,3211.0,3212.0
127,43.0,0.0,3212.0,3213.0
127,38.0,0.3,3213.0,3213.333333
127,40.0,0.0,3213.333333,3214.0
127,38.0,0.6,3214.0,3214.666666
127,33.0,0.4,3214.666666,3215.0
127,38.0,0.2,3215.0,3216.0
127,41.0,0.0,3216.0,3217.0
127,45.0,0.0,3217.0,3217.333333
127,48.0,0.2,3217.333333,3218.666666
127,47.0,0.9,3218.666666,3220.0
127,43.0,0.0,3220.0,3222.0
127,41.0,0.0,3222.0,3222.666666
127,45.0,0.0,3222.666666,3223.0
127,43.0,0.1,3223.0,3224.0
127,46.0,0.0,3224.0,3225.0
127,40.0,0.0,3225.0,3225.333333
127,35.0,0.8,3225.333333,3226.0
127,41.0,0.0,3226.0,3226.666666
127,40.0,0.0,3226.666666,3227.0
127,38.0,0.2,3227.0,3228.0
127,39.0,0.2,3228.0,3229.0
127,43.0,0.1,3229.0,3229.333333
127,45.0,0.4,3229.333333,3230.0
127,46.0,0.0,3230.0,3230.666666
127,43.0,0.4,3230.666666,3231.0
127,45.0,0.5,3231.0,3232.0
127,43.0,0.0,3232.0,3233.0
127,46.0,0.1,3233.0,3233.333333
127,47.0,0.5,3233.333333,3234.0
127,45.0,0.0,3234.0,3235.0
127,40.0,0.6,3235.0,3236.0
127,41.0,0.2,3236.0,3237.0
127,45.0,0.5,3237.0,3237.333333
127,46.0,0.1,3237.333333,3238.0
127,45.0,0.8,3238.0,3238.666666
127,43.0,0.4,3238.666666,3240.0
127,40.0,0.0,3240.0,3241.0
127,34.0,0.4,3241.0,3241.333333
127,29.0,0.0,3241.333333,3243.0
127,28.0,0.6,3243.0,3245.333333
127,33.0,0.0,3245.333333,3246.0
127,34.0,0.0,3246.0,3246.666666
127,40.0,0.6,3246.666666,3248.0
127,41.0,0.6,3248.0,3250.0
127,43.0,0.0,3250.0,3250.666666
127,47.0,0.8,3250.666666,3252.0
127,43.0,0.7,3252.0,3253.0
127,48.0,0.2,3253.0,3253.333333
127,52.0,0.0,3253.333333,3254.0
127,48.0,0.5,3254.0,3254.666666
127,50.0,0.6,3254.666666,3255.0
127,52.0,0.6,3255.0,3256.0
127,55.0,0.4,3256.0,3257.0
127,57.0,0.0,3257.0,3257.333333
127,52.0,0.6,3257.333333,3258.0
127,48.0,0.2,3258.0,3259.0
127,45.0,0.4,3259.0,3260.0
127,46.0,0.0,3260.0,3262.0
127,44.0,0.0,3262.0,3263.0
127,41.0,0.0,3263.0,3264.0
127,36.0,0.5,3264.0,3265.333333
127,31.0,0.4,3266.0,3266.666666
127,28.0,0.0,3266.666666,3267.0
127,35.0,0.8,3267.0,3268.0
127,31.0,0.0,3268.0,3269.0
127,29.0,0.0,3269.0,3269.333333
127,32.0,0.0,3269.333333,3270.0
127,29.0,0.3,3270.0,3270.666666
127,24.0,0.5,3270.666666,3271.0
127,31.0,0.4,3271.0,3272.0
127,24.0,0.2,3272.0,3273.0
127,32.0,0.0,3273.0,3273.333333
127,31.0,0.0,3273.333333,3274.0
127,33.0,0.8,3274.0,3274.666666
127,29.0,0.0,3274.666666,3275.0
127,26.0,0.2,3275.0,3276.0
127,33.0,0.0,3276.0,3277.0
127,31.0,0.4,3277.0,3277.333333
127,26.0,0.6,3277.333333,3278.0
127,31.0,0.7,3278.0,3278.666666
127,33.0,0.4,3278.666666,3280.0
127,32.0,0.0,3280.0,3282.0
127,31.0,0.1,3282.0,3282.666666
127,29.0,0.0,3282.666666,3283.0
127,26.0,0.2,3283.0,3284.0
127,32.0,0.0,3284.0,3285.0
127,33.0,0.0,3285.0,3285.333333
127,31.0,0.4,3285.333333,3286.0
127,34.0,0.0,3286.0,3286.666666
127,28.0,0.0,3286.666666,3288.0
127,29.0,0.0,3288.0,3289.333333
127,35.0,0.8,3289.333333,3290.0
127,28.0,0.0,3290.0,3290.666666
127,33.0,0.0,3290.666666,3291.0
127,28.0,0.6,3291.0,3292.0
127,31.0,0.0,3292.0,3293.0
127,33.0,0.8,3293.0,3293.333333
127,34.0,0.1,3293.333333,3294.666666
127,29.0,0.6,3294.666666,3295.0
127,31.0,0.0,3295.0,3296.0
127,29.0,0.0,3296.0,3297.0
127,33.0,0.0,3297.0,3298.0
127,31.0,0.0,3299.0,3300.0
127,26.0,0.0,3300.0,3301.333333
127,29.0,0.3,3301.333333,3302.0
127,31.0,0.0,3302.0,3303.0
127,26.0,0.6,3303.0,3304.0
127,29.0,0.0,3304.0,3305.0
127,35.0,0.5,3305.0,3306.0
127,29.0,0.3,3306.0,3306.666666
127,28.0,0.0,3306.666666,3307.0
127,33.0,0.4,3307.0,3308.0
127,29.0,0.0,3308.0,3309.0
127,26.0,0.6,3309.0,3309.333333
127,31.0,0.4,3309.333333,3310.666666
127,26.0,0.2,3310.666666,3311.0
127,29.0,0.0,3311.0,3312.0
127,27.0,0.2,3312.0,3313.0
127,29.0,0.6,3313.0,3313.333333
127,33.0,0.0,3313.333333,3314.666666
127,34.0,0.0,3314.666666,3315.0
127,35.0,0.6,3315.0,3316.0
127,36.0,0.8,3316.0,3317.0
127,41.0,0.0,3317.0,3317.333333
127,43.0,0.1,3317.333333,3318.0
127,41.0,0.3,3318.0,3319.0
127,43.0,0.0,3320.0,3321.333333
127,40.0,0.6,3321.333333,3322.666666
127,45.0,0.5,3322.666666,3323.0
127,47.0,0.8,3323.0,3324.0
127,53.0,0.0,3324.0,3325.0
127,59.0,0.5,3325.0,3325.333333
127,53.0,0.3,3325.333333,3326.0
127,58.0,0.0,3326.0,3326.666666
127,52.0,0.6,3326.666666,3328.0
127,57.0,0.5,3328.0,3330.0
127,56.0,0.5,3330.0,3331.0
127,62.0,0.2,3331.0,3332.0
127,67.0,0.0,3332.0,3333.0
127,69.0,0.5,3333.0,3333.333333
127,68.0,0.0,3333.333333,3334.0
127,69.0,0.8,3334.0,3336.0
127,67.0,0.0,3336.0,3337.333333
127,71.0,0.6,3337.333333,3338.0
127,72.0,0.5,3338.0,3338.666666
127,68.0,0.0,3338.666666,3339.0
127,64.0,0.6,3339.0,3340.0
127,59.0,0.4,3340.0,3341.333333
127,57.0,0.5,3341.333333,3342.0
127,58.0,0.1,3342.0,3342.666666
127,57.0,0.4,3342.666666,3343.0
127,62.0,0.0,3343.0,3344.0
127,57.0,0.6,3344.0,3345.0
127,52.0,0.0,3345.0,3346.0
127,57.0,0.5,3346.0,3346.666666
127,60.0,0.5,3346.666666,3347.0
127,55.0,0.0,3347.0,3348.0
127,50.0,0.0,3348.0,3349.333333
127,47.0,0.9,3349.333333,3350.0
127,50.0,0.2,3350.0,3351.0
127,52.0,0.4,3351.0,3352.0
127,57.0,0.0,3352.0,3353.0
127,53.0,0.0,3353.0,3353.333333
127,47.0,0.8,3353.333333,3354.0
127,46.0,0.1,3354.0,3354.666666
127,45.0,0.5,3354.666666,3356.0
127,48.0,0.2,3356.0,3357.0
127,52.0,0.7,3357.0,3357.333333
127,57.0,0.4,3357.333333,3358.0
127,53.0,0.0,3358.0,3359.0
127,55.0,0.0,3360.0,3361.0
127,53.0,0.0,3361.0,3361.333333
127,50.0,0.9,3361.333333,3362.0
127,45.0,0.5,3362.0,3364.0
127,47.0,0.4,3364.0,3365.0
127,50.0,0.6,3365.0,3365.333333
127,47.0,0.9,3365.333333,3366.0
127,46.0,0.0,3366.0,3366.666666
127,47.0,0.5,3366.666666,3368.0
127,46.0,0.0,3368.0,3369.333333
127,43.0,0.0,3370.0,3370.666666
127,41.0,0.0,3370.666666,3371.0
127,47.0,0.8,3371.0,3372.0
127,46.0,0.0,3372.0,3373.0
127,41.0,0.0,3373.0,3373.333333
127,40.0,0.0,3373.333333,3374.666666
127,38.0,0.2,3374.666666,3375.0
127,35.0,0.8,3375.0,3376.0
127,36.0,0.4,3376.0,3377.0
127,33.0,0.0,3377.0,3377.333333
127,28.0,0.7,3377.333333,3378.666666
127,29.0,0.0,3378.666666,3379.0
127,26.0,0.2,3379.0,3381.333333
127,31.0,0.4,3381.333333,3382.0
127,26.0,0.3,3382.0,3382.666666
127,33.0,0.0,3382.666666,3383.0
127,34.0,0.4,3383.0,3385.0
127,35.0,0.5,3385.0,3385.333333
127,28.0,0.6,3385.333333,3386.0
127,31.0,0.7,3386.0,3386.666666
127,33.0,0.4,3386.666666,3387.0
127,28.0,0.6,3387.0,3388.0
127,31.0,0.4,3388.0,3389.0
127,36.0,0.2,3389.0,3389.333333
127,31.0,0.4,3389.333333,3390.0
127,36.0,0.5,3390.0,3390.666666
127,33.0,0.5,3390.666666,3391.0
127,32.0,0.0,3391.0,3392.0
127,29.0,0.0,3392.0,3393.0
127,31.0,0.4,3393.0,3393.333333
127,32.0,0.5,3393.333333,3394.0
127,33.0,0.0,3394.0,3394.666666
127,29.0,0.0,3394.666666,3395.0
127,31.0,0.0,3395.0,3396.0
127,32.0,0.0,3396.0,3397.0
127,33.0,0.8,3397.0,3397.333333
127,32.0,0.0,3397.333333,3398.0
127,31.0,0.0,3398.0,3398.666666
127,33.0,0.5,3398.666666,3400.0
127,28.0,0.0,3400.0,3401.0
127,31.0,0.1,3401.0,3401.333333
127,35.0,0.9,3401.333333,3402.666666
127,36.0,0.2,3402.666666,3403.0
127,31.0,0.0,3403.0,3404.0
127,29.0,0.0,3404.0,3405.0
127,26.0,0.9,3405.0,3405.333333
127,28.0,0.7,3405.333333,3406.0
127,34.0,0.0,3406.0,3406.666666
127,29.0,0.0,3406.666666,3409.0
127,35.0,0.9,3409.333333,3410.0
127,40.0,0.0,3410.0,3410.666666
127,36.0,0.2,3410.666666,3411.0
127,40.0,0.6,3411.0,3412.0
127,45.0,0.8,3412.0,3413.0
127,41.0,0.3,3413.0,3413.333333
127,40.0,0.0,3413.333333,3414.0
127,41.0,0.0,3414.0,3414.666666
127,36.0,0.5,3414.666666,3415.0
127,35.0,0.8,3415.0,3416.0
127,33.0,0.0,3416.0,3418.0
127,38.0,0.9,3418.0,3418.666666
127,34.0,0.4,3418.666666,3419.0
127,38.0,0.2,3419.0,3420.0
127,43.0,0.0,3420.0,3421.333333
127,46.0,0.0,3421.333333,3422.0
127,48.0,0.5,3422.0,3424.0
127,43.0,0.0,3424.0,3425.0
127,44.0,0.5,3425.0,3426.0
127,47.0,0.9,3426.0,3426.666666
127,45.0,0.0,3426.666666,3427.0
127,47.0,0.8,3427.0,3428.0
127,45.0,0.0,3428.0,3429.0
127,48.0,0.5,3429.0,3429.333333
127,45.0,0.4,3429.333333,3430.0
127,41.0,0.0,3430.0,3430.666666
127,38.0,0.3,3430.666666,3431.0
127,34.0,0.1,3431.0,3432.0
127,36.0,0.5,3432.0,3433.0
127,33.0,0.5,3433.0,3433.333333
127,35.0,0.8,3433.333333,3434.0
127,36.0,0.5,3434.0,3434.666666
127,41.0,0.0,3434.666666,3435.0
127,45.0,0.4,3435.0,3437.0
127,46.0,0.1,3437.0,3438.0
127,45.0,0.8,3438.0,3438.666666
127,50.0,0.2,3438.666666,3440.0
127,52.0,0.0,3440.0,3441.0
127,57.0,0.5,3441.0,3442.0
127,59.0,0.6,3442.0,3442.666666
127,65.0,0.0,3442.666666,3443.0
127,69.0,0.4,3443.0,3444.0
127,67.0,0.1,3444.0,3446.0
127,70.0,0.0,3446.0,3446.666666
127,64.0,0.0,3446.666666,3448.0
127,65.0,0.0,3448.0,3449.333333
127,64.0,0.6,3449.333333,3451.0
127,67.0,0.0,3451.0,3452.0
127,65.0,0.0,3452.0,3453.0
127,67.0,0.7,3453.0,3453.333333
127,65.0,0.3,3453.333333,3454.0
127,67.0,0.4,3454.0,3454.666666
127,69.0,0.5,3454.666666,3455.0
127,74.0,0.2,3455.0,3456.0
127,77.0,0.0,3456.0,3457.0
127,81.0,0.0,3457.0,3457.333333
127,82.0,0.1,3457.333333,3458.666666
127,81.0,0.0,3458.666666,3459.0
127,76.0,0.6,3459.0,3460.0
127,79.0,0.0,3460.0,3461.333333
127,80.0,0.0,3461.333333,3462.0
127,77.0,0.0,3462.0,3462.666666
127,81.0,0.5,3462.666666,3463.0
127,86.0,0.9,3463.0,3464.0
127,81.0,0.0,3464.0,3465.0
127,76.0,0.0,3465.0,3466.0
127,81.0,0.8,3466.0,3466.666666
127,76.0,0.0,3466.666666,3467.0
127,74.0,0.2,3467.0,3468.0
127,69.0,0.4,3468.0,3469.0
127,74.0,0.9,3469.0,3470.0
127,77.0,0.0,3470.0,3470.666666
127,79.0,0.0,3470.666666,3471.0
127,84.0,0.5,3471.0,3472.0
127,79.0,0.1,3472.0,3473.0
127,83.0,0.9,3473.0,3473.333333
127,79.0,0.4,3473.333333,3474.0
127,81.0,0.0,3474.0,3474.666666
127,82.0,0.0,3474.666666,3475.0
127,83.0,0.8,3475.0,3476.0
127,77.0,0.0,3476.0,3477.0
127,72.0,0.5,3477.0,3477.333333
127,68.0,0.0,3477.333333,3478.0
127,72.0,0.2,3478.0,3479.0
127,71.0,0.0,3480.0,3481.333333
127,76.0,0.6,3481.333333,3482.666666
127,74.0,0.3,3482.666666,3483.0
127,71.0,0.8,3483.0,3484.0
127,67.0,0.1,3484.0,3485.0
127,69.0,0.0,3485.0,3486.0
127,65.0,0.0,3486.0,3486.666666
127,59.0,0.8,3486.666666,3488.0
127,57.0,0.4,3488.0,3490.0
127,53.0,0.0,3490.0,3490.666666
127,48.0,0.2,3490.666666,3491.0
127,45.0,0.4,3491.0,3492.0
127,46.0,0.2,3492.0,3493.0
127,45.0,0.8,3493.0,3493.333333
127,48.0,0.2,3493.333333,3494.0
127,43.0,0.0,3494.0,3495.0
127,40.0,0.6,3495.0,3496.0
127,43.0,0.0,3496.0,3497.0
127,45.0,0.0,3497.0,3497.333333
127,41.0,0.0,3497.333333,3499.0
127,43.0,0.0,3499.0,3500.0
127,44.0,0.0,3500.0,3501.333333
127,43.0,0.4,3501.333333,3502.666666
127,47.0,0.8,3502.666666,3503.0
127,41.0,0.0,3503.0,3504.0
127,45.0,0.0,3504.0,3505.0
127,44.0,0.5,3505.0,3505.333333
127,41.0,0.0,3505.333333,3506.0
127,38.0,0.0,3506.0,3506.666666
127,34.0,0.0,3506.666666,3507.0
127,40.0,0.6,3507.0,3508.0
127,43.0,0.4,3508.0,3509.0
127,41.0,0.0,3509.0,3509.333333
127,36.0,0.8,3509.333333,3510.0
127,31.0,0.4,3510.0,3510.666666
127,32.0,0.0,3510.666666,3511.0
127,38.0,0.6,3511.0,3512.0
127,33.0,0.4,3512.0,3513.0
127,38.0,0.0,3513.0,3513.333333
127,33.0,0.4,3513.333333,3514.0
127,38.0,0.6,3514.0,3514.666666
127,33.0,0.5,3514.666666,3516.0
127,31.0,0.3,3516.0,3517.0
127,26.0,0.6,3517.0,3517.333333
127,31.0,0.7,3517.333333,3518.0
127,26.0,0.3,3518.0,3519.0
127,28.0,0.0,3520.0,3521.0
127,26.0,0.0,3521.0,3521.333333
127,32.0,0.0,3521.333333,3522.666666
127,31.0,0.1,3522.666666,3523.0
127,26.0,0.2,3523.0,3524.0
127,33.0,0.0,3524.0,3525.0
127,32.0,0.5,3525.0,3525.333333
127,34.0,0.4,3525.333333,3526.0
127,33.0,0.4,3526.0,3529.333333
127,28.0,0.0,3530.0,3530.666666
127,29.0,0.0,3530.666666,3531.0
127,35.0,0.8,3531.0,3532.0
127,34.0,0.0,3532.0,3533.0
127,24.0,0.2,3533.0,3533.333333
127,28.0,0.0,3533.333333,3534.0
127,35.0,0.9,3534.0,3534.666666
127,31.0,0.0,3534.666666,3536.0
127,33.0,0.1,3536.0,3538.666666
127,34.0,0.1,3538.666666,3539.0
127,33.0,0.4,3539.0,3540.0
127,28.0,0.0,3540.0,3541.333333
127,29.0,0.0,3541.333333,3542.0
127,33.0,0.5,3542.0,3543.0
127,31.0,0.4,3543.0,3544.0
127,34.0,0.0,3544.0,3545.0
127,33.0,0.5,3545.0,3545.333333
127,28.0,0.6,3545.333333,3546.0
127,24.0,0.2,3546.0,3546.666666
127,28.0,0.0,3546.666666,3547.0
127,31.0,0.0,3547.0,3548.0
127,32.0,0.0,3548.0,3549.0
127,31.0,0.4,3549.0,3549.333333
127,24.0,0.5,3549.333333,3550.0
127,33.0,0.4,3550.0,3550.666666
127,26.0,0.6,3550.666666,3551.0
127,29.0,0.0,3551.0,3552.0
127,33.0,0.2,3552.0,3553.0
127,28.0,0.4,3553.0,3553.333333
127,33.0,0.5,3553.333333,3554.666666
127,29.0,0.3,3554.666666,3555.0
127,35.0,0.9,3555.0,3556.0
127,38.0,0.2,3556.0,3557.0
127,41.0,0.0,3557.0,3558.0
127,38.0,0.2,3558.0,3560.0
127,33.0,0.0,3560.0,3561.0
127,38.0,0.6,3561.0,3561.333333
127,41.0,0.0,3561.333333,3562.666666
127,35.0,0.9,3562.666666,3563.0
127,40.0,0.6,3563.0,3564.0
127,41.0,0.5,3564.0,3565.0
127,36.0,0.5,3565.0,3565.333333
127,33.0,0.0,3565.333333,3566.0
127,31.0,0.4,3566.0,3566.666666
127,35.0,0.8,3566.666666,3568.0
127,31.0,0.0,3568.0,3569.333333
127,29.0,0.0,3569.333333,3570.0
127,31.0,0.4,3570.0,3570.666666
127,29.0,0.3,3570.666666,3571.0
127,26.0,0.2,3571.0,3572.0
127,24.0,0.2,3572.0,3573.333333
127,35.0,0.5,3573.333333,3574.0
127,24.0,0.2,3574.0,3574.666666
127,31.0,0.4,3574.666666,3575.0
127,33.0,0.4,3575.0,3576.0
127,34.0,0.1,3576.0,3577.0
127,33.0,0.0,3577.0,3577.333333
127,35.0,0.8,3577.333333,3578.0
127,31.0,0.4,3578.0,3578.666666
127,33.0,0.5,3578.666666,3579.0
127,35.0,0.8,3579.0,3580.0
127,33.0,0.0,3580.0,3581.333333
127,34.0,0.0,3581.333333,3582.0
127,29.0,0.0,3582.0,3583.0
127,32.0,0.0,3583.0,3584.0
127,33.0,0.4,3584.0,3585.0
127,28.0,0.0,3585.0,3586.666666
127,32.0,0.5,3586.666666,3587.0
127,33.0,0.4,3587.0,3589.0
127,31.0,0.7,3589.0,3589.333333
127,34.0,0.1,3589.333333,3590.0
127,31.0,0.0,3590.0,3590.666666
127,33.0,0.5,3590.666666,3591.0
127,29.0,0.6,3591.0,3592.0
127,31.0,0.0,3592.0,3593.0
127,29.0,0.0,3593.0,3594.666666
127,32.0,0.0,3594.666666,3595.0
127,31.0,0.0,3595.0,3596.0
127,33.0,0.0,3596.0,3597.0
127,29.0,0.3,3597.0,3597.333333
127,24.0,0.5,3597.333333,3598.0
127,29.0,0.0,3598.0,3598.666666
127,31.0,0.0,3598.666666,3600.0
127,32.0,0.0,3600.0,3601.0
127,29.0,0.0,3601.0,3602.0
127,26.0,0.6,3602.0,3602.666666
127,34.0,0.1,3602.666666,3603.0
127,31.0,0.0,3603.0,3604.0
127,26.0,0.0,3604.0,3605.0
127,24.0,0.5,3605.0,3606.0
127,31.0,0.0,3606.0,3606.666666
127,28.0,0.0,3606.666666,3608.0
127,31.0,0.1,3608.0,3609.333333
127,28.0,0.6,3609.333333,3610.0
127,31.0,0.0,3610.0,3610.666666
127,33.0,0.5,3610.666666,3612.0
127,31.0,0.3,3612.0,3613.0
127,29.0,0.0,3613.0,3613.333333
127,33.0,0.4,3613.333333,3614.0
127,29.0,0.3,3614.0,3614.666666
127,28.0,0.4,3614.666666,3615.0
127,33.0,0.4,3615.0,3617.333333
127,29.0,0.0,3617.333333,3618.666666
127,34.0,0.1,3618.666666,3619.0
127,35.0,0.8,3619.0,3620.0
127,32.0,0.0,3620.0,3621.333333
127,33.0,0.8,3621.333333,3622.0
127,31.0,0.7,3622.0,3622.666666
127,28.0,0.7,3622.666666,3623.0
127,35.0,0.6,3623.0,3624.0
127,29.0,0.0,3624.0,3625.0
127,35.0,0.5,3625.0,3626.0
127,24.0,0.5,3626.0,3626.666666
127,28.0,0.0,3626.666666,3627.0
127,26.0,0.2,3627.0,3628.0
127,29.0,0.0,3628.0,3629.0
127,33.0,0.8,3629.0,3630.666666
127,26.0,0.2,3630.666666,3632.0
127,34.0,0.4,3632.0,3633.0
127,26.0,0.6,3633.0,3633.333333
127,28.0,0.0,3633.333333,3634.0
127,33.0,0.0,3634.0,3635.0
127,28.0,0.6,3635.0,3636.0
127,31.0,0.4,3636.0,3637.0
127,24.0,0.2,3637.0,3637.333333
127,34.0,0.4,3637.333333,3638.0
127,24.0,0.5,3638.0,3639.0
127,31.0,0.0,3640.0,3641.0
127,26.0,0.9,3641.0,3641.333333
127,35.0,0.8,3641.333333,3642.666666
127,34.0,0.0,3642.666666,3643.0
127,28.0,0.6,3643.0,3644.0
127,29.0,0.0,3644.0,3645.333333
127,28.0,0.7,3645.333333,3646.0
127,32.0,0.0,3646.0,3646.666666
127,28.0,0.6,3646.666666,3648.0
127,29.0,0.0,3648.0,3649.333333
127,33.0,0.0,3649.333333,3650.0
127,28.0,0.0,3650.0,3651.0
127,31.0,0.0,3651.0,3652.0
127,32.0,0.0,3652.0,3653.0
127,28.0,0.7,3653.0,3653.333333
127,33.0,0.0,3653.333333,3654.0
127,29.0,0.0,3654.0,3655.0
127,35.0,0.8,3655.0,3656.0
127,31.0,0.4,3656.0,3657.0
127,33.0,0.0,3657.0,3657.333333
127,34.0,0.4,3657.333333,3658.0
127,31.0,0.7,3658.0,3659.0
127,33.0,0.4,3659.0,3661.333333
127,31.0,0.7,3661.333333,3662.0
127,29.0,0.6,3662.0,3662.666666
127,31.0,0.0,3662.666666,3663.0
127,33.0,0.5,3663.0,3664.0
127,24.0,0.4,3664.0,3665.0
127,32.0,0.5,3665.0,3665.333333
127,24.0,0.2,3665.333333,3666.0
127,29.0,0.0,3666.0,3666.666666
127,33.0,0.4,3666.666666,3667.0
127,35.0,0.8,3667.0,3668.0
127,41.0,0.0,3668.0,3669.0
127,45.0,0.5,3669.0,3669.333333
127,41.0,0.0,3669.333333,3670.0
127,45.0,0.4,3670.0,3670.666666
127,43.0,0.4,3670.666666,3671.0
127,47.0,0.9,3671.0,3672.0
127,45.0,0.0,3672.0,3673.0
127,48.0,0.5,3673.0,3673.333333
127,52.0,0.4,3673.333333,3674.0
127,53.0,0.3,3674.0,3675.0
127,50.0,0.2,3675.0,3676.0
127,45.0,0.0,3676.0,3677.0
127,47.0,0.9,3677.0,3677.333333
127,45.0,0.5,3677.333333,3678.0
127,48.0,0.2,3678.0,3679.0
127,45.0,0.0,3680.0,3681.0
127,48.0,0.5,3681.0,3681.333333
127,43.0,0.1,3681.333333,3682.0
127,41.0,0.0,3682.0,3683.0
127,38.0,0.2,3683.0,3684.0
127,40.0,0.6,3684.0,3685.0
127,45.0,0.0,3685.0,3685.333333
127,41.0,0.0,3685.333333,3686.0
127,45.0,0.4,3686.0,3687.0
127,46.0,0.0,3688.0,3689.333333
127,47.0,0.5,3690.0,3690.666666
127,41.0,0.0,3690.666666,3691.0
127,40.0,0.6,3691.0,3692.0
127,46.0,0.0,3692.0,3693.0
127,50.0,0.3,3693.0,3693.333333
127,52.0,0.0,3693.333333,3694.0
127,50.0,0.6,3694.0,3696.0
127,48.0,0.0,3696.0,3697.0
127,45.0,0.0,3697.0,3697.333333
127,41.0,0.3,3697.333333,3699.0
127,43.0,0.0,3699.0,3700.0
127,38.0,0.0,3700.0,3701.333333
127,36.0,0.5,3701.333333,3702.0
127,41.0,0.0,3702.0,3702.666666
127,45.0,0.0,3702.666666,3703.0
127,43.0,0.1,3703.0,3704.0
127,38.0,0.0,3704.0,3705.0
127,40.0,0.0,3705.0,3705.333333
127,35.0,0.8,3705.333333,3706.0
127,41.0,0.0,3706.0,3707.0
127,45.0,0.4,3707.0,3708.0
127,41.0,0.3,3708.0,3709.0
127,43.0,0.1,3709.0,3709.333333
127,48.0,0.5,3709.333333,3710.0
127,53.0,0.0,3710.0,3711.0
127,57.0,0.5,3711.0,3712.0
127,62.0,0.9,3712.0,3713.0
127,58.0,0.1,3713.0,3713.333333
127,56.0,0.5,3713.333333,3714.0
127,57.0,0.0,3714.0,3714.666666
127,59.0,0.9,3714.666666,3715.0
127,55.0,0.1,3715.0,3716.0
127,57.0,0.4,3716.0,3718.666666
127,60.0,0.5,3718.666666,3720.0
127,64.0,0.0,3720.0,3721.0
127,58.0,0.4,3721.0,3722.666666
127,55.0,0.4,3722.666666,3723.0
127,59.0,0.8,3723.0,3724.0
127,55.0,0.5,3724.0,3725.0
127,52.0,0.0,3725.0,3725.333333
127,48.0,0.5,3725.333333,3726.0
127,46.0,0.0,3726.0,3726.666666
127,43.0,0.0,3726.666666,3728.0
127,48.0,0.5,3728.0,3729.0
127,46.0,0.1,3729.333333,3730.0
127,45.0,0.8,3730.0,3731.0
127,50.0,0.2,3731.0,3732.0
127,48.0,0.5,3732.0,3733.333333
127,52.0,0.0,3733.333333,3734.0
127,48.0,0.5,3734.0,3734.666666
127,45.0,0.5,3734.666666,3735.0
127,40.0,0.6,3735.0,3736.0
127,43.0,0.0,3736.0,3737.0
127,45.0,0.0,3737.0,3737.333333
127,43.0,0.0,3737.333333,3738.0
127,45.0,0.8,3738.0,3738.666666
127,44.0,0.0,3738.666666,3739.0
127,40.0,0.6,3739.0,3740.0
127,41.0,0.0,3740.0,3741.333333
127,43.0,0.0,3741.333333,3742.0
127,38.0,0.0,3742.0,3743.0
127,41.0,0.0,3743.0,3745.0
127,43.0,0.1,3745.0,3746.0
127,38.0,0.6,3746.0,3747.0
127,43.0,0.0,3747.0,3748.0
127,44.0,0.0,3748.0,3749.0
127,41.0,0.0,3749.0,3750.0
127,47.0,0.8,3750.0,3750.666666
127,43.0,0.7,3750.666666,3752.0
127,48.0,0.4,3752.0,3753.0
127,44.0,0.0,3753.0,3753.333333
127,50.0,0.2,3753.333333,3754.0
127,48.0,0.2,3754.0,3754.666666
127,53.0,0.0,3754.666666,3755.0
127,57.0,0.4,3755.0,3756.0
127,58.0,0.0,3756.0,3757.0
127,55.0,0.4,3757.0,3758.666666
127,59.0,0.8,3758.666666,3760.0
127,53.0,0.3,3760.0,3761.0
127,56.0,0.0,3761.0,3762.0
127,50.0,0.9,3762.0,3762.666666
127,53.0,0.0,3762.666666,3763.0
127,57.0,0.4,3763.0,3764.0
127,58.0,0.4,3764.0,3765.333333
127,52.0,0.4,3765.333333,3766.0
127,46.0,0.0,3766.0,3766.666666
127,52.0,0.0,3766.666666,3768.0
127,57.0,0.8,3768.0,3769.333333
127,62.0,0.2,3769.333333,3770.0
127,64.0,0.0,3770.0,3770.666666
127,69.0,0.5,3770.666666,3771.0
127,71.0,0.8,3771.0,3772.0
127,68.0,0.0,3772.0,3773.0
127,69.0,0.8,3773.0,3774.0
127,70.0,0.1,3774.0,3774.666666
127,72.0,0.5,3774.666666,3775.0
127,67.0,0.0,3775.0,3776.0
127,65.0,0.0,3776.0,3777.0
127,69.0,0.0,3777.0,3777.333333
127,71.0,0.9,3777.333333,3778.666666
127,69.0,0.0,3778.666666,3779.0
127,74.0,0.2,3779.0,3780.0
127,76.0,0.0,3780.0,3781.333333
127,77.0,0.0,3781.333333,3782.0
127,81.0,0.4,3782.0,3782.666666
127,84.0,0.5,3782.666666,3783.0
127,86.0,0.6,3783.0,3784.0
127,82.0,0.2,3784.0,3785.0
127,81.0,0.5,3785.0,3786.0
127,76.0,0.7,3786.0,3788.0
127,77.0,0.0,3788.0,3789.0
127,74.0,0.6,3789.0,3790.0
127,69.0,0.8,3790.0,3790.666666
127,64.0,0.6,3790.666666,3791.0
127,65.0,0.0,3791.0,3792.0
127,67.0,0.1,3792.0,3793.0
127,65.0,0.6,3793.0,3794.0
127,69.0,0.0,3794.0,3794.666666
127,65.0,0.0,3794.666666,3795.0
127,67.0,0.0,3795.0,3797.0
127,65.0,0.0,3797.0,3797.333333
127,69.0,0.5,3797.333333,3798.0
127,65.0,0.3,3798.0,3799.0
127,64.0,0.0,3800.0,3801.0
127,67.0,0.4,3801.0,3802.0
127,68.0,0.0,3802.666666,3803.0
127,67.0,0.0,3803.0,3804.0
127,65.0,0.6,3804.0,3805.0
127,70.0,0.4,3805.0,3805.333333
127,69.0,0.5,3805.333333,3806.666666
127,71.0,0.8,3806.666666,3808.0
127,65.0,0.0,3808.0,3809.333333
127,69.0,0.0,3809.333333,3810.0
127,68.0,0.5,3810.0,3810.666666
127,65.0,0.0,3810.666666,3811.0
127,64.0,0.6,3811.0,3812.0
127,65.0,0.0,3812.0,3813.0
127,69.0,0.5,3813.0,3813.333333
127,67.0,0.1,3813.333333,3814.0
127,69.0,0.8,3814.0,3815.0
127,67.0,0.0,3815.0,3816.0
127,71.0,0.9,3816.0,3817.0
127,69.0,0.0,3817.0,3817.333333
127,65.0,0.0,3817.333333,3818.0
127,69.0,0.5,3818.0,3818.666666
127,63.0,0.2,3818.666666,3819.0
127,62.0,0.2,3819.0,3820.0
127,65.0,0.0,3820.0,3821.333333
127,62.0,0.0,3821.333333,3822.0
127,59.0,0.9,3822.0,3823.0
127,62.0,0.0,3823.0,3824.0
127,67.0,0.4,3824.0,3825.0
127,64.0,0.0,3825.0,3825.333333
127,65.0,0.0,3825.333333,3826.0
127,60.0,0.5,3826.0,3826.666666
127,57.0,0.4,3826.666666,3827.0
127,59.0,0.8,3827.0,3828.0
127,62.0,0.3,3828.0,3829.333333
127,67.0,0.7,3829.333333,3830.0
127,70.0,0.0,3830.0,3830.666666
127,74.0,0.0,3830.666666,3831.0
127,76.0,0.4,3831.0,3832.0
127,77.0,0.0,3832.0,3833.333333
127,74.0,0.2,3833.333333,3834.0
127,71.0,0.9,3834.0,3834.666666
127,74.0,0.3,3834.666666,3835.0
127,69.0,0.4,3835.0,3836.0
127,70.0,0.4,3836.0,3837.0
127,64.0,0.7,3837.0,3837.333333
127,62.0,0.3,3837.333333,3838.0
127,65.0,0.0,3838.0,3839.0
127,64.0,0.0,3840.0,3841.0
127,65.0,0.0,3841.0,3841.333333
127,62.0,0.0,3841.333333,3842.0
127,60.0,0.5,3842.0,3843.0
127,57.0,0.4,3843.0,3844.0
127,53.0,0.0,3844.0,3845.333333
127,56.0,0.0,3845.333333,3846.0
127,58.0,0.0,3846.0,3846.666666
127,57.0,0.0,3846.666666,3848.0
127,59.0,0.4,3848.0,3849.333333
127,55.0,0.0,3850.0,3850.666666
127,58.0,0.4,3850.666666,3852.0
127,56.0,0.0,3852.0,3853.0
127,53.0,0.0,3853.0,3853.333333
127,52.0,0.0,3853.333333,3856.0
127,46.0,0.0,3856.0,3857.0
127,45.0,0.0,3857.0,3857.333333
127,48.0,0.2,3857.333333,3858.666666
127,47.0,0.9,3858.666666,3859.0
127,52.0,0.6,3859.0,3860.0
127,47.0,0.4,3860.0,3861.333333
127,45.0,0.5,3861.333333,3862.0
127,47.0,0.8,3862.0,3862.666666
127,45.0,0.0,3862.666666,3863.0
127,46.0,0.4,3863.0,3865.0
127,47.0,0.5,3865.0,3865.333333
127,43.0,0.0,3865.333333,3866.0
127,38.0,0.3,3866.0,3866.666666
127,40.0,0.0,3866.666666,3867.0
127,38.0,0.2,3867.0,3869.0
127,36.0,0.2,3869.0,3869.333333
127,31.0,0.0,3869.333333,3870.0
127,36.0,0.5,3870.0,3870.666666
127,31.0,0.4,3870.666666,3871.0
127,32.0,0.0,3871.0,3872.0
127,29.0,0.0,3872.0,3873.0
127,31.0,0.4,3873.0,3873.333333
127,35.0,0.5,3873.333333,3874.0
127,33.0,0.0,3874.0,3874.666666
127,36.0,0.2,3874.666666,3875.0
127,35.0,0.8,3875.0,3876.0
127,36.0,0.4,3876.0,3877.0
127,33.0,0.8,3877.0,3877.333333
127,34.0,0.4,3877.333333,3878.0
127,33.0,0.4,3878.0,3878.666666
127,31.0,0.4,3878.666666,3881.333333
127,29.0,0.0,3881.333333,3882.666666
127,33.0,0.5,3882.666666,3883.0
127,35.0,0.8,3883.0,3884.0
127,41.0,0.0,3884.0,3885.0
127,45.0,0.0,3885.0,3886.0
127,43.0,0.1,3886.0,3886.666666
127,46.0,0.4,3886.666666,3888.0
127,41.0,0.0,3888.0,3890.0
127,40.0,0.0,3890.0,3891.0
127,45.0,0.4,3891.0,3892.0
127,41.0,0.0,3892.0,3893.333333
127,40.0,0.0,3893.333333,3894.0
127,41.0,0.0,3894.0,3894.666666
127,38.0,0.6,3894.666666,3896.0
127,41.0,0.3,3896.0,3897.0
127,45.0,0.0,3897.0,3897.333333
127,47.0,0.8,3897.333333,3898.0
127,43.0,0.1,3898.0,3898.666666
127,45.0,0.5,3898.666666,3899.0
127,43.0,0.0,3899.0,3900.0
127,44.0,0.0,3900.0,3901.333333
127,43.0,0.4,3901.333333,3902.0
127,45.0,0.5,3902.0,3903.0
127,48.0,0.5,3903.0,3904.0
127,45.0,0.0,3904.0,3905.0
127,44.0,0.5,3905.0,3906.0
127,46.0,0.1,3906.0,3906.666666
127,41.0,0.0,3906.666666,3907.0
127,40.0,0.6,3907.0,3908.0
127,38.0,0.0,3908.0,3909.0
127,36.0,0.5,3909.0,3909.333333
127,33.0,0.8,3909.333333,3910.0
127,29.0,0.0,3910.0,3910.666666
127,24.0,0.5,3910.666666,3911.0
127,34.0,0.1,3911.0,3912.0
127,24.0,0.2,3912.0,3913.0
127,33.0,0.5,3913.0,3913.333333
127,31.0,0.0,3913.333333,3914.666666
127,34.0,0.1,3914.666666,3915.0
127,29.0,0.0,3915.0,3916.0
127,33.0,0.0,3916.0,3917.0
127,34.0,0.1,3917.0,3917.333333
127,31.0,0.4,3917.333333,3918.0
127,33.0,0.8,3918.0,3918.666666
127,28.0,0.6,3918.666666,3920.0
127,32.0,0.0,3920.0,3921.0
127,33.0,0.5,3921.0,3922.0
127,34.0,0.4,3922.0,3922.666666
127,29.0,0.0,3922.666666,3923.0
127,26.0,0.2,3923.0,3924.0
127,32.0,0.0,3924.0,3925.333333
127,24.0,0.5,3925.333333,3926.0
127,34.0,0.0,3926.0,3926.666666
127,28.0,0.0,3926.666666,3929.333333
127,31.0,0.0,3929.333333,3930.0
127,29.0,0.6,3930.0,3930.666666
127,32.0,0.0,3930.666666,3931.0
127,35.0,0.8,3931.0,3932.0
127,34.0,0.0,3932.0,3933.0
127,31.0,0.7,3933.0,3933.333333
127,35.0,0.8,3933.333333,3934.0
127,31.0,0.4,3934.0,3934.666666
127,29.0,0.6,3934.666666,3935.0
127,35.0,0.8,3935.0,3936.0
127,36.0,0.0,3936.0,3937.0
127,33.0,0.0,3937.0,3937.333333
127,29.0,0.0,3937.333333,3939.0
127,33.0,0.4,3939.0,3940.0
127,32.0,0.0,3940.0,3941.333333
127,33.0,0.4,3941.333333,3942.0
127,29.0,0.0,3942.0,3943.0
127,26.0,0.9,3943.0,3944.0
127,33.0,0.0,3944.0,3945.0
127,28.0,0.0,3945.0,3946.0
127,24.0,0.2,3946.0,3946.666666
127,28.0,0.0,3946.666666,3947.0
127,31.0,0.0,3947.0,3948.0
127,32.0,0.0,3948.0,3949.0
127,26.0,0.9,3949.0,3950.0
127,31.0,0.0,3950.0,3950.666666
127,33.0,0.4,3950.666666,3951.0
127,36.0,0.5,3951.0,3952.0
127,33.0,0.4,3952.0,3953.0
127,35.0,0.9,3953.0,3953.333333
127,31.0,0.4,3953.333333,3954.0
127,33.0,0.0,3954.0,3954.666666
127,34.0,0.0,3954.666666,3955.0
127,31.0,0.4,3955.0,3956.0
127,33.0,0.8,3956.0,3957.0
127,36.0,0.5,3957.0,3957.333333
127,31.0,0.0,3957.333333,3958.0
127,35.0,0.8,3958.0,3959.0
127,40.0,0.0,3960.0,3961.0
127,35.0,0.6,3961.0,3962.666666
127,34.0,0.0,3962.666666,3963.0
127,40.0,0.6,3963.0,3964.0
127,41.0,0.0,3964.0,3965.0
127,44.0,0.0,3965.0,3965.333333
127,41.0,0.3,3965.333333,3966.666666
127,40.0,0.6,3966.666666,3968.0
127,43.0,0.0,3968.0,3969.333333
127,45.0,0.0,3969.333333,3970.0
127,41.0,0.0,3970.0,3971.0
127,38.0,0.2,3971.0,3973.0
127,33.0,0.8,3973.0,3973.333333
127,31.0,0.1,3973.333333,3974.0
127,33.0,0.4,3974.0,3976.0
127,31.0,0.1,3976.0,3977.0
127,33.0,0.0,3977.0,3977.333333
127,35.0,0.6,3977.333333,3978.0
127,41.0,0.0,3978.0,3978.666666
127,46.0,0.4,3978.666666,3979.0
127,47.0,0.8,3979.0,3980.0
127,41.0,0.3,3980.0,3981.333333
127,36.0,0.5,3981.333333,3982.0
127,31.0,0.1,3982.0,3982.666666
127,28.0,0.6,3982.666666,3983.0
127,29.0,0.0,3983.0,3984.0
127,32.0,0.0,3984.0,3985.0
127,31.0,0.4,3985.0,3985.333333
127,33.0,0.8,3985.333333,3986.0
127,32.0,0.0,3986.0,3986.666666
127,33.0,0.5,3986.666666,3988.0
127,34.0,0.0,3988.0,3989.0
127,29.0,0.0,3989.0,3989.333333
127,32.0,0.0,3989.333333,3990.0
127,31.0,0.0,3990.0,3990.666666
127,26.0,0.6,3990.666666,3992.0
127,32.0,0.0,3992.0,3993.0
127,38.0,0.0,3993.0,3993.333333
127,43.0,0.0,3993.333333,3994.666666
127,44.0,0.0,3994.666666,3995.0
127,43.0,0.0,3995.0,3996.0
127,48.0,0.2,3996.0,3997.0
127,50.0,0.6,3997.0,3997.333333
127,55.0,0.0,3997.333333,3998.0
127,50.0,0.3,3998.0,3999.0
127,56.0,0.0,4000.0,4001.0
127,50.0,0.0,4001.0,4002.0
127,44.0,0.0,4002.0,4003.0
127,43.0,0.0,4003.0,4005.333333
127,41.0,0.0,4005.333333,4006.0
127,43.0,0.0,4006.0,4008.0
127,44.0,0.0,4008.0,4009.333333
127,40.0,0.0,4010.0,4010.666666
127,41.0,0.0,4010.666666,4011.0
127,45.0,0.4,4011.0,4012.0
127,43.0,0.0,4012.0,4013.0
127,48.0,0.2,4013.0,4013.333333
127,52.0,0.0,4013.333333,4014.0
127,47.0,0.9,4014.0,4014.666666
127,52.0,0.6,4014.666666,4015.0
127,57.0,0.4,4015.0,4016.0
127,53.0,0.1,4016.0,4017.0
127,57.0,0.0,4017.0,4017.333333
127,52.0,0.7,4017.333333,4018.666666
127,53.0,0.0,4018.666666,4019.0
127,47.0,0.8,4019.0,4020.0
127,52.0,0.0,4020.0,4021.333333
127,55.0,0.4,4021.333333,4022.0
127,57.0,0.4,4022.0,4023.0
127,55.0,0.4,4023.0,4025.0
127,59.0,0.5,4025.0,4025.333333
127,62.0,0.2,4025.333333,4026.0
127,57.0,0.8,4026.0,4027.0
127,62.0,0.2,4027.0,4028.0
127,58.0,0.1,4028.0,4029.0
127,55.0,0.4,4029.0,4029.333333
127,53.0,0.6,4029.333333,4030.0
127,55.0,0.0,4030.0,4030.666666
127,57.0,0.5,4030.666666,4031.0
127,53.0,0.0,4031.0,4033.0
127,52.0,0.4,4033.0,4033.333333
127,56.0,0.5,4033.333333,4034.0
127,57.0,0.0,4034.0,4034.666666
127,53.0,0.0,4034.666666,4035.0
127,52.0,0.6,4035.0,4036.0
127,47.0,0.6,4036.0,4037.0
127,41.0,0.0,4037.0,4038.0
127,35.0,0.8,4038.0,4038.666666
127,33.0,0.5,4038.666666,4040.0
127,28.0,0.0,4040.0,4041.0
127,26.0,0.6,4041.0,4041.333333
127,35.0,0.9,4041.333333,4042.666666
127,29.0,0.3,4042.666666,4043.0
127,28.0,0.6,4043.0,4044.0
127,24.0,0.5,4044.0,4045.333333
127,29.0,0.3,4045.333333,4046.0
127,34.0,0.0,4046.0,4046.666666
127,33.0,0.4,4046.666666,4048.0
127,36.0,0.0,4048.0,4049.333333
127,35.0,0.9,4049.333333,4050.0
127,40.0,0.0,4050.0,4050.666666
127,36.0,0.2,4050.666666,4051.0
127,31.0,0.0,4051.0,4052.0
127,32.0,0.0,4052.0,4053.0
127,36.0,0.5,4053.0,4053.333333
127,40.0,0.0,4053.333333,4054.0
127,36.0,0.2,4054.0,4055.0
127,31.0,0.0,4055.0,4056.0
127,29.0,0.0,4056.0,4057.0
127,33.0,0.0,4057.0,4058.0
127,38.0,0.6,4058.0,4058.666666
127,43.0,0.4,4058.666666,4059.0
127,45.0,0.4,4059.0,4060.0
127,44.0,0.0,4060.0,4061.0
127,46.0,0.0,4061.333333,4062.0
127,41.0,0.0,4062.0,4063.0
127,44.0,0.0,4063.0,4064.0
127,43.0,0.4,4064.0,4065.0
127,40.0,0.0,4065.0,4066.0
127,41.0,0.6,4066.0,4066.666666
127,40.0,0.0,4066.666666,4067.0
127,35.0,0.8,4067.0,4068.0
127,33.0,0.0,4068.0,4069.0
127,31.0,0.7,4069.0,4069.333333
127,32.0,0.0,4069.333333,4070.0
127,34.0,0.1,4070.0,4070.666666
127,38.0,0.3,4070.666666,4071.0
127,41.0,0.6,4071.0,4073.333333
127,38.0,0.2,4073.333333,4074.666666
127,41.0,0.0,4074.666666,4075.0
127,38.0,0.2,4075.0,4076.0
127,41.0,0.0,4076.0,4078.666666
127,40.0,0.6,4078.666666,4081.0
127,41.0,0.0,4081.0,4082.0
127,43.0,0.4,4082.0,4082.666666
127,41.0,0.0,4082.666666,4083.0
127,38.0,0.2,4083.0,4084.0
127,39.0,0.1,4084.0,4085.0
127,45.0,0.0,4085.0,4085.333333
127,44.0,0.0,4085.333333,4086.0
127,46.0,0.0,4086.0,4086.666666
127,52.0,0.0,4086.666666,4088.0
127,55.0,0.0,4088.0,4089.333333
127,50.0,0.2,4089.333333,4090.0
127,55.0,0.0,4090.0,4090.666666
127,53.0,0.3,4090.666666,4091.0
127,52.0,0.6,4091.0,4092.0
127,57.0,0.1,4092.0,4093.0
127,53.0,0.0,4093.0,4094.666666
127,57.0,0.5,4094.666666,4095.0
127,52.0,0.6,4095.0,4096.0
127,57.0,0.5,4096.0,4097.333333
127,58.0,0.1,4097.333333,4098.666666
127,57.0,0.0,4098.666666,4099.0
127,55.0,0.0,4099.0,4100.0
127,56.0,0.0,4100.0,4101.333333
127,60.0,0.8,4101.333333,4102.0
127,55.0,0.0,4102.0,4102.666666
127,57.0,0.5,4102.666666,4103.0
127,59.0,0.6,4103.0,4104.0
127,56.0,0.0,4104.0,4105.0
127,59.0,0.5,4105.0,4106.0
127,57.0,0.5,4106.0,4106.666666
127,52.0,0.0,4106.666666,4107.0
127,57.0,0.4,4107.0,4110.0
127,60.0,0.5,4110.0,4110.666666
127,59.0,0.8,4110.666666,4111.0
127,62.0,0.0,4111.0,4112.0
127,67.0,0.7,4112.0,4113.0
127,62.0,0.6,4113.0,4113.333333
127,57.0,0.0,4113.333333,4114.666666
127,58.0,0.0,4114.666666,4115.0
127,59.0,0.8,4115.0,4116.0
127,57.0,0.5,4116.0,4117.0
127,60.0,0.2,4117.0,4118.0
127,57.0,0.4,4118.0,4119.0
127,55.0,0.0,4120.0,4121.0
127,50.0,0.9,4121.0,4121.333333
127,45.0,0.4,4121.333333,4123.0
127,47.0,0.8,4123.0,4125.333333
127,43.0,0.0,4125.333333,4126.0
127,46.0,0.0,4126.0,4126.666666
127,47.0,0.8,4126.666666,4128.0
127,41.0,0.0,4128.0,4129.333333
127,45.0,0.0,4129.333333,4130.0
127,40.0,0.0,4130.0,4130.666666
127,45.0,0.8,4130.666666,4131.0
127,50.0,0.2,4131.0,4132.0
127,48.0,0.0,4132.0,4133.0
127,52.0,0.7,4133.0,4133.333333
127,56.0,0.0,4133.333333,4134.0
127,53.0,0.0,4134.0,4135.0
127,50.0,0.2,4135.0,4136.0
127,55.0,0.0,4136.0,4137.0
127,57.0,0.0,4137.0,4137.333333
127,53.0,0.0,4137.333333,4138.0
127,50.0,0.3,4138.0,4138.666666
127,47.0,0.9,4138.666666,4139.0
127,52.0,0.6,4139.0,4140.0
127,56.0,0.4,4140.0,4141.333333
127,50.0,0.6,4141.333333,4142.0
127,55.0,0.4,4142.0,4142.666666
127,52.0,0.6,4142.666666,4143.0
127,57.0,0.5,4143.0,4145.0
127,56.0,0.5,4145.0,4145.333333
127,53.0,0.0,4145.333333,4146.666666
127,56.0,0.0,4146.666666,4147.0
127,55.0,0.0,4147.0,4149.0
127,57.0,0.5,4149.0,4149.333333
127,55.0,0.7,4149.333333,4150.0
127,50.0,0.2,4150.0,4150.666666
127,44.0,0.0,4150.666666,4151.0
127,47.0,0.9,4151.0,4152.0
127,48.0,0.2,4152.0,4154.0
127,52.0,0.7,4154.0,4154.666666
127,47.0,0.8,4154.666666,4155.0
127,53.0,0.0,4155.0,4156.0
127,55.0,0.4,4156.0,4157.0
127,59.0,0.9,4157.0,4157.333333
127,55.0,0.7,4157.333333,4158.0
127,60.0,0.2,4158.0,4159.0
127,55.0,0.0,4160.0,4161.0
127,60.0,0.5,4161.0,4161.333333
127,56.0,0.0,4161.333333,4162.0
127,53.0,0.0,4162.0,4162.666666
127,50.0,0.9,4162.666666,4163.0
127,45.0,0.4,4163.0,4164.0
127,50.0,0.2,4164.0,4165.0
127,53.0,0.6,4165.0,4165.333333
127,51.0,0.2,4165.333333,4166.0
127,46.0,0.0,4166.0,4166.666666
127,44.0,0.5,4166.666666,4168.0
127,46.0,0.0,4168.0,4169.333333
127,45.0,0.0,4170.0,4170.666666
127,41.0,0.6,4170.666666,4171.0
127,47.0,0.8,4171.0,4172.0
127,45.0,0.4,4172.0,4173.0
127,50.0,0.3,4173.0,4173.333333
127,52.0,0.0,4173.333333,4174.0
127,50.0,0.6,4174.0,4174.666666
127,47.0,0.8,4174.666666,4176.0
127,46.0,0.0,4176.0,4177.0
127,45.0,0.0,4177.0,4178.666666
127,46.0,0.1,4178.666666,4179.0
127,50.0,0.2,4179.0,4180.0
127,45.0,0.0,4180.0,4181.333333
127,41.0,0.0,4181.333333,4182.666666
127,45.0,0.0,4182.666666,4183.0
127,43.0,0.1,4183.0,4185.0
127,40.0,0.0,4185.0,4185.333333
127,45.0,0.4,4185.333333,4186.0
127,41.0,0.0,4186.0,4186.666666
127,40.0,0.0,4186.666666,4189.0
127,43.0,0.1,4189.0,4189.333333
127,48.0,0.5,4189.333333,4190.0
127,53.0,0.3,4190.0,4190.666666
127,50.0,0.6,4190.666666,4191.0
127,45.0,0.5,4191.0,4192.0
127,41.0,0.0,4192.0,4193.0
127,46.0,0.1,4193.0,4193.333333
127,47.0,0.5,4193.333333,4194.0
127,45.0,0.0,4194.0,4194.666666
127,40.0,0.7,4194.666666,4195.0
127,43.0,0.0,4195.0,4197.0
127,45.0,0.5,4197.0,4197.333333
127,41.0,0.0,4197.333333,4198.0
127,43.0,0.0,4198.0,4198.666666
127,38.0,0.6,4198.666666,4200.0
127,35.0,0.0,4200.0,4201.0
127,34.0,0.4,4201.0,4201.333333
127,29.0,0.0,4201.333333,4202.666666
127,31.0,0.4,4202.666666,4204.0
127,29.0,0.6,4204.0,4205.0
127,31.0,0.4,4205.0,4205.333333
127,33.0,0.0,4205.333333,4206.0
127,34.0,0.0,4206.0,4208.0
127,32.0,0.0,4208.0,4209.333333
127,29.0,0.0,4209.333333,4210.0
127,35.0,0.5,4210.0,4210.666666
127,41.0,0.3,4210.666666,4211.0
127,40.0,0.6,4211.0,4212.0
127,38.0,0.3,4212.0,4213.0
127,36.0,0.2,4213.0,4213.333333
127,33.0,0.8,4213.333333,4214.666666
127,31.0,0.4,4214.666666,4215.0
127,35.0,0.8,4215.0,4216.0
127,34.0,0.4,4216.0,4217.0
127,33.0,0.0,4217.0,4217.333333
127,28.0,0.6,4217.333333,4218.0
127,24.0,0.2,4218.0,4218.666666
127,31.0,0.4,4218.666666,4219.0
127,26.0,0.2,4219.0,4220.0
127,24.0,0.2,4220.0,4222.0
127,32.0,0.0,4222.0,4223.0
127,29.0,0.0,4223.0,4225.0
127,32.0,0.5,4225.0,4226.0
127,31.0,0.4,4226.0,4226.666666
127,32.0,0.5,4226.666666,4227.0
127,35.0,0.8,4227.0,4228.0
127,33.0,0.0,4228.0,4229.0
127,29.0,0.0,4229.0,4230.0
127,34.0,0.0,4230.0,4230.666666
127,33.0,0.5,4230.666666,4231.0
127,31.0,0.4,4231.0,4232.0
127,24.0,0.4,4232.0,4233.0
127,32.0,0.0,4233.0,4233.333333
127,31.0,0.0,4233.333333,4234.0
127,33.0,0.8,4234.0,4234.666666
127,29.0,0.3,4234.666666,4235.0
127,33.0,0.4,4235.0,4237.0
127,31.0,0.4,4237.0,4237.333333
127,33.0,0.5,4237.333333,4238.0
127,31.0,0.7,4238.0,4238.666666
127,35.0,0.8,4238.666666,4240.0
127,28.0,0.0,4240.0,4241.0
127,32.0,0.0,4241.0,4242.0
127,31.0,0.1,4242.0,4242.666666
127,35.0,0.9,4242.666666,4243.0
127,33.0,0.4,4243.0,4244.0
127,34.0,0.0,4244.0,4245.333333
127,29.0,0.0,4245.333333,4246.0
127,34.0,0.0,4246.0,4246.666666
127,28.0,0.0,4246.666666,4248.0
127,29.0,0.0,4248.0,4249.333333
127,33.0,0.4,4249.333333,4250.0
127,28.0,0.0,4250.0,4250.666666
127,34.0,0.4,4250.666666,4251.0
127,31.0,0.0,4251.0,4253.0
127,33.0,0.8,4253.0,4253.333333
127,31.0,0.0,4253.333333,4254.0
127,34.0,0.1,4254.0,4254.666666
127,40.0,0.4,4254.666666,4255.0
127,45.0,0.4,4255.0,4256.0
127,41.0,0.0,4256.0,4257.0
127,45.0,0.0,4257.0,4258.0
127,47.0,0.9,4258.666666,4259.0
127,52.0,0.6,4259.0,4261.333333
127,56.0,0.0,4261.333333,4262.0
127,60.0,0.5,4262.0,4262.666666
127,64.0,0.7,4262.666666,4263.0
127,62.0,0.6,4263.0,4264.0
127,60.0,0.0,4264.0,4265.0
127,57.0,0.5,4265.0,4266.0
127,53.0,0.3,4266.0,4266.666667
127,52.0,0.0,4266.666667,4267.0
127,50.0,0.2,4267.0,4268.0
127,48.0,0.0,4268.0,4269.0
127,50.0,0.6,4269.0,4269.333334
127,53.0,0.0,4269.333334,4270.0
127,57.0,0.8,4270.0,4270.666667
127,55.0,0.0,4270.666667,4271.0
127,53.0,0.0,4271.0,4272.0
127,59.0,0.0,4272.0,4273.0
127,53.0,0.6,4273.0,4274.0
127,57.0,0.0,4274.0,4274.666667
127,55.0,0.0,4274.666667,4275.0
127,59.0,0.8,4275.0,4276.0
127,55.0,0.1,4276.0,4277.0
127,53.0,0.0,4277.0,4277.333334
127,55.0,0.1,4277.333334,4278.0
127,53.0,0.3,4278.0,4279.0
127,47.0,0.4,4280.0,4281.0
127,43.0,0.4,4281.0,4281.333334
127,45.0,0.4,4281.333334,4282.666667
127,43.0,0.0,4282.666667,4283.0
127,47.0,0.8,4283.0,4284.0
127,45.0,0.3,4284.0,4285.333334
127,50.0,0.6,4285.333334,4286.0
127,46.0,0.0,4286.0,4286.666667
127,50.0,0.2,4286.666667,4288.0
127,45.0,0.0,4288.0,4290.0
127,44.0,0.5,4290.0,4291.0
127,45.0,0.4,4291.0,4292.0
127,46.0,0.1,4292.0,4293.0
127,45.0,0.5,4293.0,4293.333334
127,43.0,0.0,4293.333334,4296.0
127,44.0,0.0,4296.0,4297.0
127,45.0,0.0,4297.0,4297.333334
127,43.0,0.1,4297.333334,4298.0
127,48.0,0.5,4298.0,4298.666667
127,46.0,0.0,4298.666667,4299.0
127,43.0,0.0,4299.0,4300.0
127,44.0,0.0,4300.0,4301.333334
127,41.0,0.0,4301.333334,4302.0
127,46.0,0.1,4302.0,4302.666667
127,50.0,0.2,4302.666667,4304.0
127,48.0,0.2,4304.0,4305.0
127,52.0,0.0,4305.0,4305.333334
127,55.0,0.1,4305.333334,4306.0
127,57.0,0.5,4306.0,4306.666667
127,58.0,0.0,4306.666667,4307.0
127,52.0,0.6,4307.0,4308.0
127,57.0,0.5,4308.0,4309.0
127,62.0,0.3,4309.0,4309.333334
127,67.0,0.4,4309.333334,4310.0
127,69.0,0.4,4310.0,4310.666667
127,70.0,0.1,4310.666667,4311.0
127,64.0,0.4,4311.0,4312.0
127,69.0,0.0,4312.0,4313.0
127,65.0,0.0,4313.0,4313.333334
127,64.0,0.6,4313.333334,4314.0
127,58.0,0.1,4314.0,4314.666667
127,53.0,0.6,4314.666667,4315.0
127,50.0,0.0,4315.0,4316.0
127,45.0,0.5,4316.0,4317.0
127,40.0,0.7,4317.0,4317.333334
127,45.0,0.8,4317.333334,4318.0
127,41.0,0.0,4318.0,4319.0
127,40.0,0.0,4320.0,4321.0
127,41.0,0.0,4321.0,4321.333334
127,46.0,0.4,4321.333334,4322.0
127,45.0,0.5,4322.0,4323.0
127,50.0,0.2,4323.0,4324.0
127,52.0,0.4,4324.0,4325.333334
127,57.0,0.4,4325.333334,4327.0
127,58.0,0.0,4328.0,4330.0
127,53.0,0.0,4330.0,4331.0
127,47.0,0.8,4331.0,4332.0
127,46.0,0.0,4332.0,4333.0
127,41.0,0.0,4333.0,4333.333334
127,43.0,0.0,4333.333334,4334.0
127,40.0,0.7,4334.0,4336.0
127,43.0,0.4,4336.0,4337.0
127,45.0,0.0,4337.0,4337.333334
127,48.0,0.2,4337.333334,4339.0
127,45.0,0.4,4339.0,4341.333334
127,43.0,0.4,4341.333334,4342.0
127,47.0,0.8,4342.0,4342.666667
127,45.0,0.0,4342.666667,4343.0
127,46.0,0.4,4343.0,4344.0
127,43.0,0.2,4344.0,4345.0
127,47.0,0.5,4345.0,4345.333334
127,45.0,0.4,4345.333334,4346.0
127,43.0,0.7,4346.0,4346.666667
127,46.0,0.0,4346.666667,4347.0
127,43.0,0.0,4347.0,4349.0
127,48.0,0.2,4349.0,4349.333334
127,44.0,0.0,4349.333334,4350.0
127,45.0,0.4,4350.0,4350.666667
127,41.0,0.0,4350.666667,4351.0
127,44.0,0.0,4351.0,4352.0
127,41.0,0.0,4352.0,4353.0
127,43.0,0.4,4353.0,4354.0
127,45.0,0.0,4354.0,4354.666667
127,43.0,0.4,4354.666667,4355.0
127,40.0,0.4,4355.0,4356.0
127,41.0,0.6,4356.0,4357.0
127,45.0,0.8,4357.0,4358.666667
127,41.0,0.0,4358.666667,4360.0
127,45.0,0.3,4360.0,4361.0
127,43.0,0.1,4361.0,4362.666667
127,41.0,0.6,4362.666667,4363.0
127,40.0,0.6,4363.0,4364.0
127,41.0,0.0,4364.0,4365.333334
127,45.0,0.8,4365.333334,4366.0
127,46.0,0.0,4366.0,4366.666667
127,50.0,0.2,4366.666667,4368.0
127,53.0,0.0,4368.0,4369.333334
127,55.0,0.4,4369.333334,4370.0
127,52.0,0.0,4370.0,4370.666667
127,55.0,0.7,4370.666667,4371.0
127,50.0,0.2,4371.0,4372.0
127,48.0,0.2,4372.0,4373.0
127,53.0,0.3,4373.0,4373.333334
127,52.0,0.0,4373.333334,4374.0
127,53.0,0.0,4374.0,4374.666667
127,56.0,0.0,4374.666667,4375.0
127,50.0,0.2,4375.0,4376.0
127,48.0,0.1,4376.0,4377.0
127,45.0,0.0,4377.0,4377.333334
127,50.0,0.2,4377.333334,4378.666667
127,51.0,0.2,4378.666667,4379.0
127,47.0,0.8,4379.0,4380.0
127,41.0,0.0,4380.0,4381.333334
127,46.0,0.0,4381.333334,4382.0
127,48.0,0.5,4382.0,4384.0
127,50.0,0.0,4384.0,4385.0
127,44.0,0.5,4385.0,4386.0
127,47.0,0.9,4386.0,4386.666667
127,52.0,0.0,4386.666667,4387.0
127,57.0,0.4,4387.0,4389.0
127,60.0,0.5,4389.0,4389.333334
127,58.0,0.0,4389.333334,4390.0
127,53.0,0.0,4390.0,4390.666667
127,57.0,0.8,4390.666667,4391.0
127,58.0,0.1,4391.0,4392.0
127,55.0,0.1,4392.0,4393.0
127,57.0,0.5,4393.0,4393.333334
127,55.0,0.0,4393.333334,4394.0
127,60.0,0.5,4394.0,4394.666667
127,65.0,0.0,4394.666667,4395.0
127,67.0,0.0,4395.0,4396.0
127,69.0,0.0,4396.0,4397.0
127,70.0,0.1,4397.0,4398.0
127,69.0,0.8,4398.0,4398.666667
127,67.0,0.0,4398.666667,4400.0
127,64.0,0.0,4400.0,4401.0
127,69.0,0.5,4401.0,4402.0
127,71.0,0.6,4402.0,4402.666667
127,67.0,0.0,4402.666667,4404.0
127,62.0,0.0,4404.0,4405.0
127,65.0,0.0,4405.0,4406.0
127,67.0,0.0,4406.0,4406.666667
127,71.0,0.5,4406.666667,4408.0
127,65.0,0.0,4408.0,4409.333334
127,69.0,0.4,4409.333334,4410.666667
127,65.0,0.0,4410.666667,4411.0
127,69.0,0.4,4411.0,4412.0
127,74.0,0.0,4412.0,4413.0
127,79.0,0.7,4413.0,4414.666667
127,77.0,0.0,4414.666667,4415.0
127,74.0,0.2,4415.0,4416.0
127,77.0,0.0,4416.0,4417.0
127,81.0,0.0,4417.0,4417.333334
127,77.0,0.6,4417.333334,4418.666667
127,81.0,0.0,4418.666667,4419.0
127,83.0,0.8,4419.0,4420.0
127,80.0,0.5,4420.0,4421.333334
127,84.0,0.8,4421.333334,4422.0
127,89.0,0.0,4422.0,4423.0
127,86.0,0.9,4423.0,4424.0
127,88.0,0.3,4424.0,4426.0
127,93.0,0.8,4426.0,4426.666667
127,91.0,0.0,4426.666667,4427.0
127,86.0,0.2,4427.0,4428.0
127,91.0,0.4,4428.0,4429.0
127,86.0,0.9,4429.0,4430.0
127,81.0,0.4,4430.0,4430.666667
127,83.0,0.8,4430.666667,4431.0
127,84.0,0.5,4431.0,4432.0
127,79.0,0.1,4432.0,4433.0
127,83.0,0.9,4433.0,4434.0
127,81.0,0.0,4434.0,4434.666667
127,82.0,0.0,4434.666667,4435.0
127,76.0,0.6,4435.0,4436.0
127,77.0,0.0,4436.0,4437.0
127,72.0,0.5,4437.0,4437.333334
127,69.0,0.5,4437.333334,4438.0
127,72.0,0.2,4438.0,4439.0
127,76.0,0.0,4440.0,4441.0
127,71.0,0.6,4441.0,4441.333334
127,74.0,0.2,4441.333334,4442.666667
127,71.0,0.9,4442.666667,4443.0
127,76.0,0.6,4443.0,4444.0
127,79.0,0.1,4444.0,4445.333334
127,81.0,0.8,4445.333334,4446.0
127,77.0,0.0,4446.0,4446.666667
127,81.0,0.4,4446.666667,4450.0
127,79.0,0.0,4450.0,4450.666667
127,84.0,0.5,4450.666667,4452.0
127,80.0,0.0,4452.0,4453.0
127,81.0,0.8,4453.0,4453.333334
127,82.0,0.4,4453.333334,4454.0
127,81.0,0.5,4454.0,4455.0
127,83.0,0.8,4455.0,4456.0
127,77.0,0.0,4456.0,4457.0
127,81.0,0.0,4457.0,4457.333334
127,86.0,0.0,4457.333334,4458.0
127,89.0,0.0,4458.0,4459.0
127,93.0,0.4,4459.0,4460.0
127,88.0,0.0,4460.0,4461.333334
127,93.0,0.5,4461.333334,4462.666667
127,91.0,0.0,4462.666667,4463.0
127,89.0,0.0,4463.0,4464.0
127,87.0,0.0,4464.0,4465.0
127,89.0,0.0,4465.0,4465.333334
127,86.0,0.3,4465.333334,4467.0
127,83.0,0.8,4467.0,4468.0
127,79.0,0.4,4468.0,4469.0
127,77.0,0.0,4469.0,4469.333334
127,79.0,0.0,4469.333334,4470.0
127,81.0,0.4,4470.0,4470.666667
127,77.0,0.0,4470.666667,4471.0
127,74.0,0.6,4471.0,4472.0
127,79.0,0.1,4472.0,4473.0
127,74.0,0.0,4473.0,4473.333334
127,69.0,0.4,4473.333334,4474.0
127,74.0,0.6,4474.0,4474.666667
127,69.0,0.8,4474.666667,4475.0
127,74.0,0.2,4475.0,4477.333334
127,77.0,0.0,4477.333334,4478.0
127,74.0,0.3,4478.0,4479.0
127,76.0,0.0,4480.0,4481.0
127,74.0,0.0,4481.0,4481.333334
127,77.0,0.0,4481.333334,4482.666667
127,81.0,0.5,4482.666667,4483.0
127,86.0,0.2,4483.0,4484.0
127,80.0,0.0,4484.0,4485.0
127,81.0,0.0,4485.0,4485.333334
127,82.0,0.4,4485.333334,4486.0
127,81.0,0.4,4486.0,4486.666667
127,86.0,0.6,4486.666667,4488.0
127,82.0,0.0,4488.0,4489.333334
127,76.0,0.0,4490.0,4490.666667
127,74.0,0.9,4490.666667,4491.0
127,76.0,0.6,4491.0,4492.0
127,70.0,0.0,4492.0,4493.0
127,72.0,0.2,4493.0,4493.333334
127,67.0,0.0,4493.333334,4494.0
127,71.0,0.9,4494.0,4495.0
127,69.0,0.4,4495.0,4497.333334
127,65.0,0.0,4497.333334,4498.666667
127,64.0,0.7,4498.666667,4499.0
127,67.0,0.0,4499.0,4500.0
127,71.0,0.0,4500.0,4501.333334
127,67.0,0.4,4501.333334,4502.666667
127,69.0,0.0,4502.666667,4503.0
127,67.0,0.4,4503.0,4504.0
127,68.0,0.0,4504.0,4505.0
127,71.0,0.5,4505.0,4505.333334
127,74.0,0.2,4505.333334,4506.0
127,72.0,0.2,4506.0,4506.666667
127,71.0,0.5,4506.666667,4507.0
127,69.0,0.4,4507.0,4508.0
127,70.0,0.4,4508.0,4509.0
127,67.0,0.4,4509.0,4509.333334
127,62.0,0.3,4509.333334,4510.0
127,67.0,0.0,4510.0,4510.666667
127,70.0,0.4,4510.666667,4511.0
127,65.0,0.0,4511.0,4512.0
127,70.0,0.0,4512.0,4513.0
127,64.0,0.4,4513.0,4513.333334
127,59.0,0.5,4513.333334,4514.0
127,57.0,0.0,4514.0,4514.666667
127,55.0,0.7,4514.666667,4515.0
127,58.0,0.4,4515.0,4516.0
127,52.0,0.6,4516.0,4517.0
127,53.0,0.0,4517.0,4517.333334
127,55.0,0.4,4517.333334,4518.0
127,52.0,0.6,4518.0,4518.666667
127,48.0,0.2,4518.666667,4521.0
127,50.0,0.6,4521.0,4521.333334
127,44.0,0.0,4521.333334,4522.666667
127,41.0,0.0,4522.666667,4523.0
127,47.0,0.8,4523.0,4524.0
127,43.0,0.4,4524.0,4525.0
127,47.0,0.5,4525.0,4525.333334
127,45.0,0.0,4525.333334,4526.0
127,43.0,0.4,4526.0,4528.0
127,44.0,0.0,4528.0,4529.333334
127,45.0,0.8,4529.333334,4530.0
127,41.0,0.0,4530.0,4530.666667
127,43.0,0.0,4530.666667,4531.0
127,38.0,0.2,4531.0,4532.0
127,33.0,0.8,4532.0,4533.0
127,36.0,0.5,4533.0,4533.333334
127,40.0,0.0,4533.333334,4534.0
127,36.0,0.2,4534.0,4534.666667
127,31.0,0.1,4534.666667,4536.0
127,34.0,0.1,4536.0,4537.0
127,33.0,0.0,4537.0,4537.333334
127,31.0,0.0,4537.333334,4538.666667
127,29.0,0.0,4538.666667,4539.0
127,28.0,0.6,4539.0,4540.0
127,26.0,0.0,4540.0,4541.333334
127,34.0,0.0,4541.333334,4542.0
127,29.0,0.0,4542.0,4543.0
127,32.0,0.0,4543.0,4544.0
127,29.0,0.0,4544.0,4545.0
127,28.0,0.0,4545.0,4547.0
127,31.0,0.0,4547.0,4548.0
127,28.0,0.0,4548.0,4549.0
127,31.0,0.7,4549.0,4549.333334
127,33.0,0.8,4549.333334,4550.0
127,35.0,0.8,4550.0,4550.666667
127,29.0,0.3,4550.666667,4553.333334
127,35.0,0.8,4553.333334,4554.666667
127,33.0,0.5,4554.666667,4555.0
127,32.0,0.0,4555.0,4556.0
127,33.0,0.0,4556.0,4557.0
127,29.0,0.3,4557.0,4557.333334
127,26.0,0.9,4557.333334,4558.0
127,29.0,0.0,4558.0,4558.666667
127,26.0,0.2,4558.666667,4560.0
127,31.0,0.0,4560.0,4561.0
127,29.0,0.0,4561.0,4562.0
127,26.0,0.6,4562.0,4562.666667
127,24.0,0.5,4562.666667,4563.0
127,33.0,0.4,4563.0,4564.0
127,34.0,0.4,4564.0,4565.0
127,31.0,0.4,4565.0,4566.0
127,34.0,0.0,4566.0,4566.666667
127,32.0,0.5,4566.666667,4568.0
127,31.0,0.0,4568.0,4569.333334
127,35.0,0.8,4569.333334,4570.666667
127,33.0,0.0,4570.666667,4571.0
127,35.0,0.8,4571.0,4572.0
127,34.0,0.0,4572.0,4573.0
127,29.0,0.0,4573.0,4574.666667
127,34.0,0.1,4574.666667,4575.0
127,28.0,0.6,4575.0,4576.0
127,32.0,0.0,4576.0,4577.0
127,33.0,0.0,4577.0,4578.666667
127,36.0,0.5,4578.666667,4579.0
127,38.0,0.2,4579.0,4580.0
127,43.0,0.1,4580.0,4582.666667
127,46.0,0.1,4582.666667,4583.0
127,47.0,0.6,4583.0,4584.0
127,45.0,0.4,4584.0,4586.0
127,48.0,0.5,4586.0,4586.666667
127,52.0,0.0,4586.666667,4588.0
127,55.0,0.0,4588.0,4589.0
127,57.0,0.8,4589.0,4589.333334
127,59.0,0.6,4589.333334,4590.0
127,57.0,0.5,4590.0,4591.0
127,62.0,0.0,4591.0,4592.0
127,68.0,0.0,4592.0,4593.0
127,62.0,0.6,4593.0,4594.0
127,57.0,0.0,4594.0,4594.666667
127,58.0,0.0,4594.666667,4595.0
127,55.0,0.0,4595.0,4596.0
127,56.0,0.0,4596.0,4597.0
127,60.0,0.2,4597.0,4597.333334
127,55.0,0.1,4597.333334,4599.0
127,56.0,0.0,4600.0,4601.0
127,50.0,0.9,4601.0,4601.333334
127,55.0,0.0,4601.333334,4602.666667
127,53.0,0.0,4602.666667,4603.0
127,55.0,0.0,4603.0,4604.0
127,53.0,0.0,4604.0,4605.0
127,55.0,0.1,4605.0,4606.0
127,56.0,0.0,4606.0,4606.666667
127,50.0,0.2,4606.666667,4608.0
127,53.0,0.0,4608.0,4609.333334
127,57.0,0.0,4609.333334,4610.0
127,52.0,0.0,4610.0,4612.0
127,53.0,0.6,4612.0,4613.0
127,52.0,0.7,4613.0,4613.333334
127,56.0,0.5,4613.333334,4614.0
127,53.0,0.0,4614.0,4615.0
127,52.0,0.6,4615.0,4616.0
127,55.0,0.0,4616.0,4617.0
127,57.0,0.0,4617.0,4617.333334
127,62.0,0.9,4617.333334,4618.0
127,67.0,0.7,4618.0,4618.666667
127,69.0,0.5,4618.666667,4619.0
127,74.0,0.2,4619.0,4620.0
127,69.0,0.0,4620.0,4622.0
127,65.0,0.6,4622.0,4622.666667
127,62.0,0.2,4622.666667,4623.0
127,57.0,0.5,4623.0,4624.0
127,53.0,0.5,4624.0,4625.0
127,56.0,0.5,4625.0,4625.333334
127,50.0,0.9,4625.333334,4626.0
127,53.0,0.0,4626.0,4627.0
127,47.0,0.8,4627.0,4628.0
127,41.0,0.0,4628.0,4629.0
127,45.0,0.5,4629.0,4629.333334
127,43.0,0.1,4629.333334,4630.0
127,46.0,0.0,4630.0,4630.666667
127,47.0,0.9,4630.666667,4632.0
127,45.0,0.0,4632.0,4633.0
127,48.0,0.5,4633.0,4633.333334
127,47.0,0.8,4633.333334,4634.0
127,53.0,0.3,4634.0,4635.0
127,57.0,0.4,4635.0,4636.0
127,60.0,0.0,4636.0,4637.0
127,59.0,0.9,4637.0,4637.333334
127,60.0,0.2,4637.333334,4639.0
127,64.0,0.0,4640.0,4641.0
127,60.0,0.5,4641.0,4641.333334
127,59.0,0.6,4641.333334,4642.0
127,53.0,0.0,4642.0,4643.0
127,57.0,0.4,4643.0,4644.0
127,59.0,0.4,4644.0,4645.333334
127,55.0,0.1,4645.333334,4646.0
127,58.0,0.0,4646.0,4646.666667
127,57.0,0.0,4646.666667,4648.0
127,53.0,0.0,4648.0,4649.333334
127,52.0,0.0,4650.0,4650.666667
127,57.0,0.5,4650.666667,4651.0
127,55.0,0.0,4651.0,4652.0
127,56.0,0.0,4652.0,4653.0
127,50.0,0.3,4653.0,4653.333334
127,53.0,0.0,4653.333334,4654.0
127,50.0,0.6,4654.0,4654.666667
127,45.0,0.4,4654.666667,4655.0
127,50.0,0.2,4655.0,4656.0
127,46.0,0.0,4656.0,4657.0
127,45.0,0.0,4657.0,4658.666667
127,43.0,0.0,4658.666667,4659.0
127,40.0,0.6,4659.0,4661.333334
127,43.0,0.1,4661.333334,4662.0
127,41.0,0.0,4662.0,4662.666667
127,45.0,0.0,4662.666667,4663.0
127,43.0,0.1,4663.0,4664.0
127,41.0,0.0,4664.0,4665.0
127,40.0,0.0,4665.0,4665.333334
127,43.0,0.0,4665.333334,4666.0
127,41.0,0.0,4666.0,4666.666667
127,44.0,0.0,4666.666667,4667.0
127,50.0,0.2,4667.0,4668.0
127,53.0,0.3,4668.0,4669.0
127,55.0,0.1,4669.0,4670.0
127,53.0,0.0,4670.0,4671.0
127,57.0,0.5,4671.0,4673.0
127,58.0,0.1,4673.0,4673.333334
127,56.0,0.5,4673.333334,4674.0
127,57.0,0.0,4674.0,4674.666667
127,62.0,0.0,4674.666667,4675.0
127,59.0,0.8,4675.0,4676.0
127,64.0,0.6,4676.0,4677.0
127,69.0,0.5,4677.0,4677.333334
127,74.0,0.6,4677.333334,4678.0
127,69.0,0.4,4678.0,4678.666667
127,65.0,0.0,4678.666667,4680.0
127,64.0,0.0,4680.0,4681.0
127,58.0,0.4,4681.0,4681.333334
127,62.0,0.6,4681.333334,4682.666667
127,58.0,0.4,4682.666667,4683.0
127,59.0,0.8,4683.0,4684.0
127,55.0,0.0,4684.0,4685.0
127,57.0,0.0,4685.0,4685.333334
127,62.0,0.6,4685.333334,4686.0
127,58.0,0.0,4686.0,4686.666667
127,57.0,0.5,4686.666667,4688.0
127,60.0,0.3,4688.0,4689.333334
127,62.0,0.6,4689.333334,4690.0
127,59.0,0.5,4690.0,4690.666667
127,62.0,0.3,4690.666667,4691.0
127,57.0,0.4,4691.0,4693.0
127,60.0,0.2,4693.0,4693.333334
127,55.0,0.0,4693.333334,4694.666667
127,50.0,0.0,4694.666667,4695.0
127,47.0,0.8,4695.0,4696.0
127,44.0,0.0,4696.0,4697.0
127,45.0,0.0,4697.0,4697.333334
127,50.0,0.2,4697.333334,4698.0
127,45.0,0.8,4698.0,4698.666667
127,50.0,0.0,4698.666667,4699.0
127,55.0,0.0,4699.0,4700.0
127,56.0,0.0,4700.0,4701.333334
127,57.0,0.4,4701.333334,4702.0
127,62.0,0.0,4702.0,4703.0
127,65.0,0.0,4703.0,4704.0
127,69.0,0.5,4704.0,4705.0
127,68.0,0.5,4705.0,4706.0
127,62.0,0.6,4706.0,4706.666667
127,64.0,0.0,4706.666667,4708.0
127,59.0,0.0,4708.0,4709.0
127,53.0,0.0,4709.0,4709.333334
127,58.0,0.0,4709.333334,4710.0
127,56.0,0.0,4710.0,4710.666667
127,60.0,0.2,4710.666667,4711.0
127,55.0,0.4,4711.0,4712.0
127,59.0,0.7,4712.0,4713.0
127,56.0,0.0,4713.0,4713.333334
127,55.0,0.0,4713.333334,4714.0
127,60.0,0.2,4714.0,4714.666667
127,57.0,0.5,4714.666667,4715.0
127,60.0,0.5,4715.0,4716.0
127,57.0,0.0,4716.0,4717.0
127,55.0,0.4,4717.0,4718.666667
127,57.0,0.4,4718.666667,4720.0
127,52.0,0.0,4720.0,4721.0
127,56.0,0.0,4721.0,4722.0
127,50.0,0.9,4722.0,4722.666667
127,45.0,0.5,4722.666667,4723.0
127,50.0,0.2,4723.0,4724.0
127,55.0,0.2,4724.0,4725.0
127,56.0,0.5,4725.0,4725.333334
127,58.0,0.0,4725.333334,4726.666667
127,57.0,0.5,4726.666667,4728.0
127,60.0,0.2,4728.0,4729.333334
127,55.0,0.0,4729.333334,4730.0
127,52.0,0.0,4730.0,4730.666667
127,56.0,0.0,4730.666667,4731.0
127,59.0,0.8,4731.0,4732.0
127,55.0,0.0,4732.0,4733.0
127,57.0,0.8,4733.0,4734.0
127,58.0,0.1,4734.0,4734.666667
127,53.0,0.0,4734.666667,4735.0
127,57.0,0.4,4735.0,4736.0
127,53.0,0.0,4736.0,4737.0
127,57.0,0.0,4737.0,4737.333334
127,52.0,0.4,4737.333334,4738.666667
127,57.0,0.0,4738.666667,4740.0
127,52.0,0.0,4740.0,4741.333334
127,53.0,0.6,4741.333334,4742.0
127,48.0,0.5,4742.0,4742.666667
127,53.0,0.0,4742.666667,4743.0
127,50.0,0.6,4743.0,4744.0
127,53.0,0.0,4744.0,4745.0
127,47.0,0.5,4745.0,4746.0
127,52.0,0.7,4746.0,4747.0
127,55.0,0.0,4747.0,4748.0
127,53.0,0.0,4748.0,4749.0
127,50.0,0.6,4749.0,4750.0
127,47.0,0.8,4750.0,4750.666667
127,52.0,0.6,4750.666667,4751.0
127,53.0,0.0,4751.0,4752.0
127,55.0,0.4,4752.0,4753.0
127,53.0,0.6,4753.0,4753.333334
127,48.0,0.5,4753.333334,4754.0
127,45.0,0.0,4754.0,4754.666667
127,43.0,0.4,4754.666667,4755.0
127,46.0,0.1,4755.0,4756.0
127,50.0,0.3,4756.0,4757.0
127,53.0,0.0,4757.0,4757.333334
127,58.0,0.0,4757.333334,4758.0
127,53.0,0.3,4758.0,4759.0
127,55.0,0.4,4760.0,4761.333334
127,50.0,0.2,4761.333334,4762.666667
127,48.0,0.2,4762.666667,4763.0
127,52.0,0.6,4763.0,4764.0
127,48.0,0.4,4764.0,4765.0
127,45.0,0.5,4765.0,4765.333334
127,48.0,0.2,4765.333334,4766.666667
127,45.0,0.4,4766.666667,4768.0
127,46.0,0.1,4768.0,4769.333334
127,45.0,0.0,4769.333334,4770.0
127,44.0,0.5,4770.0,4770.666667
127,43.0,0.4,4770.666667,4771.0
127,38.0,0.2,4771.0,4772.0
127,35.0,0.0,4772.0,4773.0
127,33.0,0.5,4773.0,4773.333334
127,31.0,0.7,4773.333334,4774.0
127,33.0,0.4,4774.0,4775.0
127,31.0,0.0,4775.0,4776.0
127,29.0,0.0,4776.0,4777.0
127,33.0,0.0,4777.0,4777.333334
127,32.0,0.0,4777.333334,4778.0
127,33.0,0.5,4778.0,4778.666667
127,31.0,0.4,4778.666667,4779.0
127,35.0,0.8,4779.0,4780.0
127,40.0,0.0,4780.0,4782.0
127,35.0,0.9,4782.0,4782.666667
127,33.0,0.4,4782.666667,4783.0
127,38.0,0.0,4783.0,4784.0
127,33.0,0.0,4784.0,4785.0
127,28.0,0.0,4785.0,4785.333334
127,31.0,0.7,4785.333334,4786.0
127,36.0,0.5,4786.0,4786.666667
127,31.0,0.0,4786.666667,4787.0
127,33.0,0.4,4787.0,4788.0
127,29.0,0.4,4788.0,4789.0
127,26.0,0.3,4789.0,4789.333334
127,32.0,0.0,4789.333334,4790.0
127,31.0,0.0,4790.0,4790.666667
127,29.0,0.0,4790.666667,4791.0
127,28.0,0.4,4791.0,4792.0
127,29.0,0.0,4792.0,4793.333334
127,31.0,0.0,4793.333334,4794.0
127,35.0,0.9,4794.0,4795.0
127,31.0,0.0,4795.0,4796.0
127,29.0,0.0,4796.0,4797.0
127,28.0,0.7,4797.0,4797.333334
127,29.0,0.0,4797.333334,4799.0
127,28.0,0.0,4800.0,4801.0
127,24.0,0.5,4801.0,4801.333334
127,29.0,0.0,4801.333334,4802.666667
127,26.0,0.6,4802.666667,4803.0
127,31.0,0.0,4803.0,4805.0
127,29.0,0.0,4805.0,4805.333334
127,32.0,0.0,4805.333334,4806.0
127,31.0,0.0,4806.0,4806.666667
127,36.0,0.5,4806.666667,4808.0
127,31.0,0.0,4808.0,4809.333334
127,34.0,0.4,4810.0,4810.666667
127,31.0,0.1,4810.666667,4811.0
127,33.0,0.4,4811.0,4812.0
127,31.0,0.0,4812.0,4813.0
127,26.0,0.3,4813.0,4813.333334
127,31.0,0.0,4813.333334,4814.0
127,26.0,0.6,4814.0,4814.666667
127,33.0,0.4,4814.666667,4815.0
127,26.0,0.2,4815.0,4816.0
127,29.0,0.0,4816.0,4817.0
127,33.0,0.0,4817.0,4817.333334
127,29.0,0.0,4817.333334,4819.0
127,35.0,0.8,4819.0,4820.0
127,31.0,0.0,4820.0,4821.333334
127,33.0,0.5,4821.333334,4822.0
127,29.0,0.0,4822.0,4822.666667
127,33.0,0.0,4822.666667,4823.0
127,31.0,0.1,4823.0,4824.0
127,34.0,0.0,4824.0,4825.0
127,40.0,0.0,4825.0,4825.333334
127,35.0,0.8,4825.333334,4826.0
127,41.0,0.0,4826.0,4826.666667
127,44.0,0.5,4826.666667,4827.0
127,38.0,0.2,4827.0,4828.0
127,39.0,0.2,4828.0,4829.0
127,43.0,0.1,4829.0,4830.0
127,46.0,0.0,4830.0,4830.666667
127,47.0,0.6,4830.666667,4831.0
127,45.0,0.5,4831.0,4832.0
127,43.0,0.4,4832.0,4833.0
127,46.0,0.1,4833.0,4833.333334
127,47.0,0.5,4833.333334,4834.0
127,45.0,0.0,4834.0,4834.666667
127,48.0,0.5,4834.666667,4835.0
127,52.0,0.6,4835.0,4836.0
127,53.0,0.2,4836.0,4837.0
127,57.0,0.5,4837.0,4840.0
127,52.0,0.0,4840.0,4841.0
127,46.0,0.4,4841.0,4841.333334
127,50.0,0.0,4841.333334,4842.666667
127,55.0,0.4,4842.666667,4843.0
127,52.0,0.6,4843.0,4844.0
127,57.0,0.4,4844.0,4846.0
127,58.0,0.0,4846.0,4846.666667
127,52.0,0.6,4846.666667,4848.0
127,55.0,0.4,4848.0,4849.333334
127,60.0,0.2,4849.333334,4850.0
127,55.0,0.0,4850.0,4850.666667
127,60.0,0.5,4850.666667,4852.0
127,55.0,0.7,4852.0,4853.0
127,60.0,0.2,4853.0,4853.333334
127,55.0,0.4,4853.333334,4854.0
127,60.0,0.5,4854.0,4854.666667
127,62.0,0.9,4854.666667,4855.0
127,64.0,0.6,4855.0,4856.0
127,67.0,0.4,4856.0,4857.0
127,69.0,0.0,4857.0,4857.333334
127,64.0,0.6,4857.333334,4858.0
127,60.0,0.2,4858.0,4858.666667
127,65.0,0.0,4858.666667,4859.0
127,69.0,0.4,4859.0,4860.0
127,70.0,0.0,4860.0,4861.0
127,68.0,0.0,4861.333334,4863.0
127,65.0,0.0,4863.0,4865.333334
127,67.0,0.4,4866.0,4866.666667
127,64.0,0.0,4866.666667,4867.0
127,59.0,0.8,4867.0,4868.0
127,55.0,0.0,4868.0,4869.0
127,53.0,0.0,4869.0,4869.333334
127,56.0,0.0,4869.333334,4870.0
127,53.0,0.3,4870.0,4870.666667
127,52.0,0.7,4870.666667,4871.0
127,55.0,0.4,4871.0,4872.0
127,53.0,0.0,4872.0,4873.0
127,56.0,0.0,4873.0,4873.333334
127,59.0,0.8,4873.333334,4874.0
127,57.0,0.8,4874.0,4874.666667
127,55.0,0.4,4874.666667,4875.0
127,50.0,0.2,4875.0,4876.0
127,45.0,0.0,4876.0,4877.0
127,43.0,0.4,4877.0,4878.666667
127,45.0,0.4,4878.666667,4881.0
127,44.0,0.0,4881.0,4882.0
127,43.0,0.1,4882.0,4882.666667
127,41.0,0.6,4882.666667,4883.0
127,38.0,0.2,4883.0,4884.0
127,33.0,0.2,4884.0,4885.333334
127,36.0,0.8,4885.333334,4886.0
127,34.0,0.0,4886.0,4886.666667
127,32.0,0.5,4886.666667,4888.0
127,29.0,0.0,4888.0,4889.333334
127,35.0,0.8,4889.333334,4890.0
127,40.0,0.0,4890.0,4890.666667
127,41.0,0.0,4890.666667,4891.0
127,40.0,0.6,4891.0,4892.0
127,45.0,0.0,4892.0,4894.0
127,46.0,0.1,4894.0,4894.666667
127,47.0,0.9,4894.666667,4895.0
127,43.0,0.0,4895.0,4896.0
127,45.0,0.0,4896.0,4897.333334
127,48.0,0.5,4897.333334,4898.666667
127,53.0,0.3,4898.666667,4899.0
127,55.0,0.0,4899.0,4900.0
127,50.0,0.0,4900.0,4901.333334
127,53.0,0.0,4901.333334,4902.0
127,55.0,0.0,4902.0,4902.666667
127,59.0,0.9,4902.666667,4903.0
127,62.0,0.6,4903.0,4904.0
127,60.0,0.2,4904.0,4905.0
127,59.0,0.5,4905.0,4906.0
127,53.0,0.3,4906.0,4906.666667
127,52.0,0.0,4906.666667,4907.0
127,57.0,0.4,4907.0,4908.0
127,60.0,0.0,4908.0,4909.0
127,62.0,0.6,4909.0,4909.333334
127,65.0,0.0,4909.333334,4910.0
127,67.0,0.7,4910.0,4910.666667
127,62.0,0.2,4910.666667,4911.0
127,65.0,0.0,4911.0,4912.0
127,62.0,0.6,4912.0,4913.0
127,65.0,0.6,4913.0,4913.333334
127,69.0,0.0,4913.333334,4915.0
127,71.0,0.6,4915.0,4916.0
127,72.0,0.8,4916.0,4917.0
127,77.0,0.0,4917.0,4917.333334
127,82.0,0.4,4917.333334,4918.0
127,77.0,0.3,4918.0,4919.0
127,71.0,0.0,4920.0,4921.0
127,67.0,0.4,4921.0,4921.333334
127,64.0,0.6,4921.333334,4922.666667
127,58.0,0.0,4922.666667,4923.0
127,59.0,0.8,4923.0,4924.0
127,60.0,0.3,4924.0,4925.0
127,59.0,0.5,4925.0,4925.333334
127,62.0,0.6,4925.333334,4926.0
127,58.0,0.0,4926.0,4926.666667
127,62.0,0.2,4926.666667,4928.0
127,65.0,0.0,4928.0,4929.333334
127,69.0,0.0,4929.333334,4930.0
127,68.0,0.5,4930.0,4931.0
127,62.0,0.2,4931.0,4932.0
127,67.0,0.0,4932.0,4933.0
127,69.0,0.5,4933.0,4933.333334
127,64.0,0.0,4933.333334,4934.0
127,69.0,0.8,4934.0,4936.0
127,65.0,0.0,4936.0,4937.333334
127,67.0,0.1,4937.333334,4938.0
127,72.0,0.5,4938.0,4938.666667
127,68.0,0.0,4938.666667,4939.0
127,64.0,0.6,4939.0,4941.333334
127,65.0,0.0,4941.333334,4942.0
127,70.0,0.1,4942.0,4942.666667
127,69.0,0.4,4942.666667,4943.0
127,74.0,0.0,4943.0,4944.0
127,77.0,0.3,4944.0,4945.0
127,76.0,0.0,4945.0,4945.333334
127,79.0,0.1,4945.333334,4946.0
127,81.0,0.5,4946.0,4946.666667
127,77.0,0.0,4946.666667,4947.0
127,79.0,0.0,4947.0,4948.0
127,80.0,0.0,4948.0,4949.0
127,74.0,0.3,4949.0,4950.666667
127,70.0,0.1,4950.666667,4951.0
127,64.0,0.4,4951.0,4952.0
127,67.0,0.0,4952.0,4953.0
127,65.0,0.0,4953.0,4953.333334
127,67.0,0.1,4953.333334,4954.0
127,70.0,0.1,4954.0,4954.666667
127,72.0,0.8,4954.666667,4955.0
127,69.0,0.4,4955.0,4957.0
127,64.0,0.7,4957.0,4957.333334
127,69.0,0.8,4957.333334,4958.0
127,65.0,0.0,4958.0,4959.0
127,64.0,0.0,4960.0,4961.0
127,65.0,0.0,4961.0,4961.333334
127,70.0,0.4,4961.333334,4962.0
127,69.0,0.5,4962.0,4964.0
127,71.0,0.4,4964.0,4965.0
127,74.0,0.6,4965.0,4965.333334
127,79.0,0.7,4965.333334,4966.0
127,82.0,0.0,4966.0,4966.666667
127,76.0,0.0,4966.666667,4968.0
127,70.0,0.0,4968.0,4969.333334
127,67.0,0.0,4970.0,4970.666667
127,72.0,0.5,4970.666667,4971.0
127,71.0,0.8,4971.0,4972.0
127,70.0,0.0,4972.0,4973.0
127,65.0,0.0,4973.0,4973.333334
127,69.0,0.8,4973.333334,4974.0
127,64.0,0.7,4974.0,4974.666667
127,62.0,0.2,4974.666667,4975.0
127,59.0,0.8,4975.0,4976.0
127,55.0,0.4,4976.0,4977.0
127,57.0,0.0,4977.0,4977.333334
127,60.0,0.2,4977.333334,4979.0
127,62.0,0.2,4979.0,4980.0
127,59.0,0.5,4980.0,4981.333334
127,55.0,0.0,4981.333334,4982.0
127,50.0,0.3,4982.0,4982.666667
127,45.0,0.0,4982.666667,4983.0
127,46.0,0.4,4983.0,4985.0
127,47.0,0.5,4985.0,4985.333334
127,52.0,0.6,4985.333334,4986.0
127,55.0,0.7,4986.0,4986.666667
127,58.0,0.1,4986.666667,4987.0
127,52.0,0.6,4987.0,4988.0
127,55.0,0.4,4988.0,4989.0
127,60.0,0.2,4989.0,4989.333334
127,62.0,0.0,4989.333334,4990.0
127,60.0,0.5,4990.0,4990.666667
127,65.0,0.0,4990.666667,4991.0
127,68.0,0.0,4991.0,4992.0
127,65.0,0.0,4992.0,4993.0
127,67.0,0.4,4993.0,4994.0
127,69.0,0.0,4994.0,4994.666667
127,74.0,0.6,4994.666667,4995.0
127,79.0,0.0,4995.0,4996.0
127,80.0,0.0,4996.0,4997.0
127,81.0,0.8,4997.0,4997.333334
127,80.0,0.0,4997.333334,4998.0
127,79.0,0.0,4998.0,4998.666667
127,77.0,0.0,4998.666667,5000.0
127,76.0,0.0,5000.0,5001.0
127,79.0,0.1,5001.0,5002.666667
127,84.0,0.8,5002.666667,5003.0
127,79.0,0.0,5003.0,5004.0
127,77.0,0.0,5004.0,5005.0
127,74.0,0.9,5005.0,5005.333334
127,72.0,0.2,5005.333334,5006.0
127,70.0,0.0,5006.0,5006.666667
127,69.0,0.4,5006.666667,5008.0
127,65.0,0.0,5008.0,5009.333334
127,67.0,0.4,5009.333334,5010.0
127,64.0,0.0,5010.0,5010.666667
127,67.0,0.7,5010.666667,5011.0
127,64.0,0.6,5011.0,5012.0
127,69.0,0.8,5012.0,5013.0
127,65.0,0.3,5013.0,5014.666667
127,68.0,0.0,5014.666667,5015.0
127,71.0,0.8,5015.0,5016.0
127,69.0,0.5,5016.0,5018.0
127,74.0,0.9,5018.0,5018.666667
127,70.0,0.4,5018.666667,5019.0
127,74.0,0.2,5019.0,5020.0
127,70.0,0.0,5020.0,5022.0
127,72.0,0.5,5022.0,5024.0
127,69.0,0.1,5024.0,5025.0
127,68.0,0.5,5025.0,5026.0
127,71.0,0.9,5026.0,5026.666667
127,76.0,0.0,5026.666667,5027.0
127,71.0,0.8,5027.0,5029.0
127,72.0,0.5,5029.0,5029.333334
127,68.0,0.0,5029.333334,5030.0
127,65.0,0.0,5030.0,5030.666667
127,69.0,0.8,5030.666667,5031.0
127,70.0,0.1,5031.0,5033.0
127,69.0,0.5,5033.0,5033.333334
127,67.0,0.0,5033.333334,5034.0
127,72.0,0.5,5034.0,5034.666667
127,77.0,0.0,5034.666667,5035.0
127,81.0,0.4,5035.0,5037.0
127,82.0,0.1,5037.0,5038.0
127,81.0,0.8,5038.0,5038.666667
127,86.0,0.2,5038.666667,5040.0
127,88.0,0.0,5040.0,5041.0
127,93.0,0.5,5041.0,5042.0
127,95.0,0.6,5042.0,5042.666667
127,93.0,0.4,5042.666667,5044.0
127,98.0,0.4,5044.0,5045.333334
127,94.0,0.4,5045.333334,5046.666667
127,93.0,0.5,5046.666667,5048.0
127,88.0,0.1,5048.0,5050.666667
127,89.0,0.0,5050.666667,5051.0
127,91.0,0.0,5051.0,5052.0
127,86.0,0.0,5052.0,5053.0
127,91.0,0.7,5053.0,5053.333334
127,93.0,0.8,5053.333334,5054.0
127,91.0,0.4,5054.0,5054.666667
127,89.0,0.0,5054.666667,5055.0
127,86.0,0.2,5055.0,5056.0
127,91.0,0.0,5056.0,5057.0
127,93.0,0.0,5057.0,5057.333334
127,89.0,0.6,5057.333334,5058.666667
127,93.0,0.0,5058.666667,5059.0
127,88.0,0.6,5059.0,5060.0
127,91.0,0.0,5060.0,5062.0
127,89.0,0.0,5062.0,5063.0
127,86.0,0.9,5063.0,5064.0
127,89.0,0.3,5064.0,5065.0
127,88.0,0.0,5065.0,5066.0
127,93.0,0.8,5066.0,5066.666667
127,88.0,0.0,5066.666667,5067.0
127,86.0,0.2,5067.0,5068.0
127,91.0,0.4,5068.0,5069.0
127,86.0,0.9,5069.0,5070.0
127,89.0,0.0,5070.0,5070.666667
127,91.0,0.0,5070.666667,5071.0
127,96.0,0.5,5071.0,5072.0
127,101.0,0.1,5072.0,5073.0
127,95.0,0.9,5073.0,5073.333334
127,94.0,0.4,5073.333334,5074.0
127,93.0,0.0,5074.0,5075.0
127,95.0,0.8,5075.0,5076.0
127,89.0,0.0,5076.0,5077.0
127,84.0,0.5,5077.0,5079.0
127,80.0,0.0,5080.0,5081.0
127,83.0,0.6,5081.0,5081.333334
127,88.0,0.6,5081.333334,5082.666667
127,89.0,0.0,5082.666667,5083.0
127,83.0,0.8,5083.0,5084.0
127,79.0,0.1,5084.0,5085.0
127,81.0,0.0,5085.0,5086.0
127,77.0,0.0,5086.0,5086.666667
127,79.0,0.0,5086.666667,5088.0
127,81.0,0.5,5088.0,5090.0
127,77.0,0.0,5090.0,5090.666667
127,81.0,0.5,5090.666667,5092.0
127,82.0,0.2,5092.0,5093.0
127,81.0,0.8,5093.0,5093.333334
127,80.0,0.0,5093.333334,5094.0
127,79.0,0.0,5094.0,5095.0
127,76.0,0.6,5095.0,5096.0
127,79.0,0.1,5096.0,5097.0
127,81.0,0.0,5097.0,5097.333334
127,86.0,0.0,5097.333334,5098.0
127,89.0,0.0,5098.0,5098.666667
127,94.0,0.4,5098.666667,5099.0
127,91.0,0.0,5099.0,5100.0
127,92.0,0.0,5100.0,5101.333334
127,96.0,0.5,5101.333334,5102.0
127,91.0,0.1,5102.0,5102.666667
127,95.0,0.8,5102.666667,5103.0
127,89.0,0.0,5103.0,5104.0
127,93.0,0.3,5104.0,5105.0
127,92.0,0.5,5105.0,5105.333334
127,86.0,0.3,5105.333334,5106.666667
127,82.0,0.0,5106.666667,5107.0
127,76.0,0.6,5107.0,5109.0
127,77.0,0.0,5109.0,5110.0
127,79.0,0.4,5110.0,5111.0
127,74.0,0.6,5111.0,5112.0
127,71.0,0.4,5112.0,5113.0
127,74.0,0.0,5113.0,5113.333334
127,69.0,0.4,5113.333334,5114.0
127,74.0,0.6,5114.0,5114.666667
127,70.0,0.4,5114.666667,5115.0
127,69.0,0.5,5115.0,5116.0
127,64.0,0.3,5116.0,5117.0
127,62.0,0.6,5117.0,5117.333334
127,65.0,0.0,5117.333334,5118.0
127,62.0,0.3,5118.0,5119.0
127,64.0,0.0,5120.0,5121.0
127,62.0,0.0,5121.0,5121.333334
127,65.0,0.0,5121.333334,5122.666667
127,60.0,0.5,5122.666667,5123.0
127,62.0,0.2,5123.0,5124.0
127,57.0,0.0,5124.0,5125.0
127,56.0,0.5,5125.0,5125.333334
127,53.0,0.0,5125.333334,5126.0
127,57.0,0.4,5126.0,5127.0
127,58.0,0.0,5128.0,5129.333334
127,52.0,0.0,5130.0,5130.666667
127,47.0,0.6,5130.666667,5132.0
127,46.0,0.0,5132.0,5133.0
127,48.0,0.2,5133.0,5133.333334
127,43.0,0.0,5133.333334,5134.0
127,47.0,0.9,5134.0,5135.0
127,43.0,0.0,5135.0,5136.0
127,44.0,0.0,5136.0,5137.0
127,45.0,0.0,5137.0,5137.333334
127,41.0,0.0,5137.333334,5138.666667
127,40.0,0.7,5138.666667,5139.0
127,45.0,0.4,5139.0,5140.0
127,40.0,0.0,5140.0,5141.333334
127,34.0,0.4,5141.333334,5142.0
127,33.0,0.5,5142.0,5143.0
127,31.0,0.4,5143.0,5144.0
127,34.0,0.0,5144.0,5145.0
127,33.0,0.5,5145.0,5145.333334
127,28.0,0.6,5145.333334,5146.0
127,24.0,0.2,5146.0,5146.666667
127,35.0,0.5,5146.666667,5147.0
127,31.0,0.0,5147.0,5148.0
127,32.0,0.0,5148.0,5149.0
127,31.0,0.4,5149.0,5149.333334
127,35.0,0.8,5149.333334,5150.0
127,33.0,0.4,5150.0,5150.666667
127,34.0,0.4,5150.666667,5151.0
127,29.0,0.0,5151.0,5152.0
127,33.0,0.0,5152.0,5153.0
127,28.0,0.4,5153.0,5153.333334
127,35.0,0.5,5153.333334,5154.0
127,33.0,0.0,5154.0,5154.666667
127,26.0,0.3,5154.666667,5155.0
127,35.0,0.9,5155.0,5156.0
127,26.0,0.2,5156.0,5157.0
127,29.0,0.0,5157.0,5157.333334
127,26.0,0.6,5157.333334,5158.666667
127,24.0,0.2,5158.666667,5161.0
127,26.0,0.6,5161.0,5161.333334
127,32.0,0.0,5161.333334,5162.666667
127,29.0,0.0,5162.666667,5163.0
127,28.0,0.6,5163.0,5164.0
127,31.0,0.4,5164.0,5165.0
127,24.0,0.5,5165.0,5165.333334
127,33.0,0.0,5165.333334,5166.0
127,31.0,0.4,5166.0,5166.666667
127,35.0,0.8,5166.666667,5168.0
127,24.0,0.0,5168.0,5169.333334
127,33.0,0.8,5169.333334,5170.0
127,31.0,0.4,5170.0,5170.666667
127,33.0,0.4,5170.666667,5171.0
127,26.0,0.2,5171.0,5172.0
127,24.0,0.2,5172.0,5173.333334
127,31.0,0.0,5173.333334,5174.0
127,24.0,0.2,5174.0,5174.666667
127,31.0,0.1,5174.666667,5175.0
127,33.0,0.4,5175.0,5176.0
127,34.0,0.1,5176.0,5177.0
127,33.0,0.0,5177.0,5177.333334
127,35.0,0.8,5177.333334,5178.0
127,31.0,0.4,5178.0,5178.666667
127,29.0,0.0,5178.666667,5179.0
127,35.0,0.8,5179.0,5180.0
127,31.0,0.0,5180.0,5182.0
127,29.0,0.0,5182.0,5183.0
127,32.0,0.0,5183.0,5184.0
127,29.0,0.0,5184.0,5185.0
127,28.0,0.0,5185.0,5187.0
127,33.0,0.4,5187.0,5189.0
127,31.0,0.7,5189.0,5189.333334
127,29.0,0.0,5189.333334,5190.0
127,31.0,0.0,5190.0,5190.666667
127,29.0,0.3,5190.666667,5193.333334
127,26.0,0.2,5193.333334,5194.666667
127,29.0,0.3,5194.666667,5195.0
127,31.0,0.0,5195.0,5196.0
127,33.0,0.0,5196.0,5197.0
127,29.0,0.3,5197.0,5197.333334
127,31.0,0.1,5197.333334,5198.0
127,29.0,0.0,5198.0,5198.666667
127,31.0,0.0,5198.666667,5200.0
127,28.0,0.0,5200.0,5201.0
127,29.0,0.0,5201.0,5202.0
127,26.0,0.6,5202.0,5202.666667
127,33.0,0.5,5202.666667,5203.0
127,31.0,0.0,5203.0,5204.0
127,32.0,0.0,5204.0,5205.0
127,24.0,0.5,5205.0,5205.333334
127,33.0,0.5,5205.333334,5206.0
127,31.0,0.0,5206.0,5206.666667
127,32.0,0.5,5206.666667,5208.0
127,31.0,0.1,5208.0,5209.333334
127,28.0,0.6,5209.333334,5210.0
127,31.0,0.0,5210.0,5210.666667
127,33.0,0.0,5210.666667,5212.0
127,31.0,0.4,5212.0,5213.0
127,29.0,0.0,5213.0,5214.666667
127,34.0,0.1,5214.666667,5215.0
127,33.0,0.4,5215.0,5219.0
127,35.0,0.8,5219.0,5220.0
127,32.0,0.0,5220.0,5221.333334
127,33.0,0.8,5221.333334,5222.0
127,31.0,0.7,5222.0,5222.666667
127,34.0,0.1,5222.666667,5223.0
127,35.0,0.6,5223.0,5224.0
127,31.0,0.7,5224.0,5225.0
127,35.0,0.5,5225.0,5226.0
127,24.0,0.5,5226.0,5226.666667
127,28.0,0.0,5226.666667,5227.0
127,26.0,0.2,5227.0,5228.0
127,33.0,0.4,5228.0,5229.333334
127,34.0,0.4,5229.333334,5230.0
127,33.0,0.4,5230.0,5230.666667
127,26.0,0.2,5230.666667,5232.0
127,31.0,0.2,5232.0,5233.0
127,26.0,0.6,5233.0,5233.333334
127,32.0,0.5,5233.333334,5234.0
127,33.0,0.0,5234.0,5234.666667
127,34.0,0.0,5234.666667,5235.0
127,28.0,0.6,5235.0,5236.0
127,31.0,0.4,5236.0,5237.0
127,36.0,0.2,5237.0,5237.333334
127,31.0,0.4,5237.333334,5238.0
127,36.0,0.5,5238.0,5239.0
127,31.0,0.4,5240.0,5241.0
127,26.0,0.9,5241.0,5241.333334
127,35.0,0.8,5241.333334,5242.666667
127,34.0,0.0,5242.666667,5243.0
127,28.0,0.6,5243.0,5244.0
127,29.0,0.0,5244.0,5245.333334
127,31.0,0.4,5245.333334,5246.0
127,32.0,0.0,5246.0,5246.666667
127,35.0,0.8,5246.666667,5248.0
127,41.0,0.0,5248.0,5249.333334
127,45.0,0.0,5249.333334,5250.0
127,40.0,0.0,5250.0,5251.0
127,43.0,0.0,5251.0,5252.0
127,44.0,0.0,5252.0,5253.0
127,40.0,0.7,5253.0,5253.333334
127,46.0,0.4,5253.333334,5254.0
127,41.0,0.0,5254.0,5255.0
127,35.0,0.8,5255.0,5256.0
127,31.0,0.0,5256.0,5257.0
127,33.0,0.0,5257.0,5257.333334
127,38.0,0.9,5257.333334,5258.0
127,43.0,0.7,5258.0,5258.666667
127,45.0,0.8,5258.666667,5261.333334
127,48.0,0.2,5261.333334,5262.0
127,53.0,0.6,5262.0,5262.666667
127,55.0,0.0,5262.666667,5263.0
127,57.0,0.5,5263.0,5264.0
127,56.0,0.0,5264.0,5265.333334
127,50.0,0.9,5265.333334,5266.0
127,53.0,0.0,5266.0,5266.666667
127,55.0,0.0,5266.666667,5267.0
127,59.0,0.8,5267.0,5268.0
127,53.0,0.0,5268.0,5269.0
127,57.0,0.5,5269.0,5270.666667
127,59.0,0.9,5270.666667,5272.0
127,57.0,0.0,5272.0,5273.0
127,60.0,0.5,5273.0,5273.333334
127,55.0,0.4,5273.333334,5274.0
127,53.0,0.3,5274.0,5274.666667
127,57.0,0.8,5274.666667,5275.0
127,62.0,0.2,5275.0,5276.0
127,60.0,0.0,5276.0,5277.0
127,59.0,0.9,5277.0,5278.0
127,60.0,0.2,5278.0,5279.0
127,64.0,0.0,5280.0,5281.0
127,60.0,0.5,5281.0,5281.333334
127,59.0,0.6,5281.333334,5282.0
127,53.0,0.0,5282.0,5283.0
127,50.0,0.2,5283.0,5285.0
127,45.0,0.0,5285.0,5285.333334
127,50.0,0.0,5285.333334,5286.0
127,45.0,0.4,5286.0,5286.666667
127,44.0,0.0,5286.666667,5288.0
127,41.0,0.0,5288.0,5289.333334
127,47.0,0.5,5290.0,5290.666667
127,43.0,0.1,5290.666667,5291.0
127,40.0,0.6,5291.0,5292.0
127,46.0,0.0,5292.0,5293.0
127,50.0,0.3,5293.0,5293.333334
127,53.0,0.0,5293.333334,5294.0
127,50.0,0.6,5294.0,5297.0
127,45.0,0.0,5297.0,5299.0
127,43.0,0.0,5299.0,5300.0
127,40.0,0.0,5300.0,5301.0
127,43.0,0.1,5301.333334,5302.0
127,41.0,0.0,5302.0,5302.666667
127,45.0,0.0,5302.666667,5303.0
127,43.0,0.1,5303.0,5304.0
127,41.0,0.0,5304.0,5305.0
127,40.0,0.0,5305.0,5305.333334
127,35.0,0.8,5305.333334,5306.0
127,41.0,0.0,5306.0,5307.0
127,45.0,0.4,5307.0,5308.0
127,41.0,0.3,5308.0,5309.0
127,43.0,0.1,5309.0,5310.0
127,41.0,0.0,5310.0,5311.0
127,45.0,0.5,5311.0,5312.0
127,44.0,0.0,5312.0,5313.0
127,46.0,0.1,5313.0,5313.333334
127,43.0,0.4,5313.333334,5314.0
127,45.0,0.0,5314.0,5314.666667
127,44.0,0.0,5314.666667,5315.0
127,43.0,0.1,5315.0,5316.0
127,45.0,0.4,5316.0,5317.333334
127,46.0,0.4,5317.333334,5318.0
127,45.0,0.8,5318.0,5318.666667
127,41.0,0.0,5318.666667,5320.0
127,43.0,0.0,5320.0,5321.0
127,46.0,0.4,5321.0,5321.333334
127,50.0,0.6,5321.333334,5322.666667
127,44.0,0.0,5322.666667,5323.0
127,47.0,0.8,5323.0,5324.0
127,43.0,0.0,5324.0,5325.0
127,40.0,0.0,5325.0,5325.333334
127,43.0,0.4,5325.333334,5326.0
127,46.0,0.0,5326.0,5326.666667
127,43.0,0.0,5326.666667,5328.0
127,48.0,0.5,5328.0,5329.333334
127,50.0,0.6,5329.333334,5330.0
127,45.0,0.8,5330.0,5330.666667
127,50.0,0.3,5330.666667,5332.0
127,48.0,0.5,5332.0,5333.333334
127,43.0,0.0,5333.333334,5334.0
127,48.0,0.5,5334.0,5334.666667
127,50.0,0.0,5334.666667,5335.0
127,52.0,0.6,5335.0,5336.0
127,56.0,0.0,5336.0,5337.0
127,57.0,0.0,5337.0,5337.333334
127,55.0,0.0,5337.333334,5338.0
127,57.0,0.8,5338.0,5338.666667
127,56.0,0.0,5338.666667,5339.0
127,52.0,0.6,5339.0,5340.0
127,58.0,0.1,5340.0,5341.0
127,55.0,0.0,5341.333334,5342.0
127,50.0,0.0,5342.0,5343.0
127,53.0,0.0,5343.0,5344.0
127,56.0,0.0,5344.0,5345.0
127,55.0,0.1,5345.0,5346.0
127,50.0,0.6,5346.0,5346.666667
127,52.0,0.0,5346.666667,5347.0
127,55.0,0.0,5347.0,5348.0
127,57.0,0.0,5348.0,5349.0
127,53.0,0.0,5349.0,5349.333334
127,55.0,0.0,5349.333334,5350.0
127,59.0,0.8,5350.0,5350.666667
127,60.0,0.2,5350.666667,5351.0
127,55.0,0.4,5351.0,5352.0
127,59.0,0.8,5352.0,5353.0
127,56.0,0.0,5353.0,5353.333334
127,57.0,0.4,5353.333334,5354.0
127,60.0,0.2,5354.0,5354.666667
127,55.0,0.1,5354.666667,5355.0
127,57.0,0.4,5355.0,5357.0
127,55.0,0.4,5357.0,5358.666667
127,59.0,0.8,5358.666667,5360.0
127,53.0,0.0,5360.0,5361.0
127,56.0,0.0,5361.0,5362.0
127,50.0,0.9,5362.0,5362.666667
127,45.0,0.4,5362.666667,5364.0
127,46.0,0.4,5364.0,5365.333334
127,41.0,0.0,5365.333334,5366.0
127,46.0,0.0,5366.0,5366.666667
127,47.0,0.5,5366.666667,5368.0
127,45.0,0.8,5368.0,5369.333334
127,50.0,0.2,5369.333334,5370.0
127,52.0,0.0,5370.0,5370.666667
127,46.0,0.1,5370.666667,5371.0
127,47.0,0.8,5371.0,5372.0
127,44.0,0.0,5372.0,5373.0
127,45.0,0.8,5373.0,5373.333334
127,43.0,0.0,5373.333334,5374.0
127,46.0,0.1,5374.0,5374.666667
127,41.0,0.0,5374.666667,5375.0
127,43.0,0.0,5375.0,5376.0
127,41.0,0.0,5376.0,5377.0
127,45.0,0.0,5377.0,5377.333334
127,40.0,0.4,5377.333334,5378.666667
127,45.0,0.0,5378.666667,5379.0
127,50.0,0.2,5379.0,5380.0
127,52.0,0.0,5380.0,5381.333334
127,53.0,0.6,5381.333334,5382.0
127,57.0,0.4,5382.0,5382.666667
127,53.0,0.0,5382.666667,5383.0
127,50.0,0.6,5383.0,5384.0
127,47.0,0.4,5384.0,5385.0
127,45.0,0.5,5385.0,5386.0
127,40.0,0.7,5386.0,5388.0
127,38.0,0.0,5388.0,5390.0
127,33.0,0.8,5390.0,5390.666667
127,28.0,0.6,5390.666667,5391.0
127,29.0,0.0,5391.0,5392.0
127,31.0,0.4,5392.0,5393.0
127,29.0,0.6,5393.0,5394.0
127,33.0,0.0,5394.0,5394.666667
127,34.0,0.0,5394.666667,5395.0
127,31.0,0.0,5395.0,5397.0
127,29.0,0.0,5397.0,5397.333334
127,24.0,0.5,5397.333334,5398.0
127,29.0,0.3,5398.0,5399.0
127,28.0,0.0,5400.0,5401.0
127,31.0,0.4,5401.0,5402.666667
127,32.0,0.0,5402.666667,5403.0
127,31.0,0.0,5403.0,5404.0
127,29.0,0.5,5404.0,5405.0
127,34.0,0.4,5405.0,5405.333334
127,36.0,0.2,5405.333334,5406.0
127,33.0,0.5,5406.0,5406.666667
127,31.0,0.0,5406.666667,5408.0
127,29.0,0.0,5408.0,5409.333334
127,33.0,0.0,5409.333334,5410.0
127,32.0,0.5,5410.0,5410.666667
127,38.0,0.6,5410.666667,5411.0
127,40.0,0.6,5411.0,5412.0
127,41.0,0.0,5412.0,5413.0
127,45.0,0.5,5413.0,5413.333334
127,44.0,0.0,5413.333334,5414.0
127,45.0,0.8,5414.0,5415.0
127,43.0,0.0,5415.0,5416.0
127,41.0,0.0,5416.0,5417.0
127,45.0,0.0,5417.0,5417.333334
127,44.0,0.0,5417.333334,5418.0
127,45.0,0.5,5418.0,5418.666667
127,43.0,0.4,5418.666667,5419.0
127,38.0,0.2,5419.0,5420.0
127,40.0,0.0,5420.0,5421.333334
127,41.0,0.6,5421.333334,5422.0
127,47.0,0.9,5422.0,5423.0
127,50.0,0.0,5423.0,5424.0
127,45.0,0.0,5424.0,5425.0
127,40.0,0.0,5425.0,5425.333334
127,43.0,0.7,5425.333334,5426.0
127,48.0,0.5,5426.0,5426.666667
127,46.0,0.1,5426.666667,5427.0
127,47.0,0.8,5427.0,5428.0
127,41.0,0.3,5428.0,5429.0
127,38.0,0.3,5429.0,5429.333334
127,41.0,0.0,5429.333334,5430.0
127,46.0,0.0,5430.0,5431.0
127,40.0,0.4,5431.0,5432.0
127,41.0,0.0,5432.0,5433.333334
127,38.0,0.2,5433.333334,5434.0
127,35.0,0.9,5434.0,5434.666667
127,41.0,0.3,5434.666667,5435.0
127,45.0,0.4,5435.0,5436.0
127,46.0,0.4,5436.0,5437.0
127,40.0,0.7,5437.0,5437.333334
127,41.0,0.0,5437.333334,5439.0
127,40.0,0.0,5440.0,5441.0
127,41.0,0.0,5441.0,5442.0
127,36.0,0.5,5442.0,5442.666667
127,31.0,0.4,5442.666667,5443.0
127,33.0,0.4,5443.0,5444.0
127,29.0,0.0,5444.0,5445.333334
127,27.0,0.2,5445.333334,5446.0
127,34.0,0.0,5446.0,5446.666667
127,33.0,0.0,5446.666667,5448.0
127,35.0,0.0,5448.0,5449.333334
127,31.0,0.0,5450.0,5452.0
127,32.0,0.0,5452.0,5453.0
127,29.0,0.0,5453.0,5453.333334
127,31.0,0.0,5453.333334,5454.0
127,28.0,0.7,5454.0,5456.0
127,33.0,0.4,5456.0,5457.333334
127,29.0,0.0,5457.333334,5459.0
127,28.0,0.6,5459.0,5460.0
127,35.0,0.5,5460.0,5461.333334
127,33.0,0.5,5461.333334,5462.0
127,35.0,0.8,5462.0,5462.666667
127,33.0,0.0,5462.666667,5463.0
127,34.0,0.4,5463.0,5465.0
127,35.0,0.5,5465.0,5465.333334
127,31.0,0.0,5465.333334,5466.0
127,26.0,0.3,5466.0,5466.666667
127,32.0,0.0,5466.666667,5467.0
127,26.0,0.2,5467.0,5469.0
127,24.0,0.2,5469.0,5469.333334
127,31.0,0.0,5469.333334,5470.0
127,24.0,0.5,5470.0,5470.666667
127,35.0,0.6,5470.666667,5471.0
127,32.0,0.0,5471.0,5472.0
127,29.0,0.0,5472.0,5473.0
127,31.0,0.4,5473.0,5473.333334
127,35.0,0.5,5473.333334,5474.0
127,33.0,0.0,5474.0,5475.0
127,35.0,0.8,5475.0,5476.0
127,24.0,0.4,5476.0,5477.0
127,33.0,0.8,5477.0,5479.0
127,31.0,0.0,5480.0,5481.333334
127,26.0,0.0,5481.333334,5482.666667
127,35.0,0.9,5482.666667,5484.0
127,29.0,0.0,5484.0,5485.0
127,33.0,0.0,5485.0,5486.0
127,31.0,0.1,5486.0,5486.666667
127,35.0,0.8,5486.666667,5488.0
127,29.0,0.0,5488.0,5489.333334
127,24.0,0.2,5489.333334,5490.0
127,28.0,0.0,5490.0,5490.666667
127,33.0,0.4,5490.666667,5492.0
127,29.0,0.0,5492.0,5493.333334
127,31.0,0.0,5493.333334,5494.0
127,29.0,0.0,5494.0,5494.666667
127,26.0,0.9,5494.666667,5496.0
127,29.0,0.3,5496.0,5497.0
127,33.0,0.0,5497.0,5497.333334
127,35.0,0.8,5497.333334,5498.0
127,31.0,0.1,5498.0,5498.666667
127,35.0,0.9,5498.666667,5499.0
127,31.0,0.0,5499.0,5500.0
127,35.0,0.0,5500.0,5501.333334
127,34.0,0.0,5501.333334,5502.0
127,33.0,0.5,5502.0,5503.0
127,24.0,0.5,5503.0,5504.0
127,29.0,0.0,5504.0,5505.0
127,32.0,0.5,5505.0,5506.0
127,34.0,0.1,5506.0,5506.666667
127,40.0,0.0,5506.666667,5508.0
127,38.0,0.0,5508.0,5509.0
127,36.0,0.5,5509.0,5510.0
127,41.0,0.0,5510.0,5510.666667
127,40.0,0.7,5510.666667,5511.0
127,46.0,0.1,5511.0,5512.0
127,41.0,0.0,5512.0,5513.0
127,45.0,0.5,5513.0,5513.333334
127,50.0,0.2,5513.333334,5514.666667
127,55.0,0.4,5514.666667,5515.0
127,53.0,0.0,5515.0,5516.0
127,57.0,0.0,5516.0,5517.0
127,58.0,0.1,5517.0,5517.333334
127,62.0,0.3,5517.333334,5518.0
127,57.0,0.8,5518.0,5518.666667
127,52.0,0.6,5518.666667,5521.0
127,57.0,0.5,5521.0,5522.0
127,58.0,0.4,5522.0,5522.666667
127,55.0,0.4,5522.666667,5523.0
127,50.0,0.2,5523.0,5524.0
127,45.0,0.2,5524.0,5525.0
127,44.0,0.5,5525.0,5525.333334
127,46.0,0.4,5525.333334,5526.666667
127,44.0,0.5,5526.666667,5528.0
127,41.0,0.0,5528.0,5529.333334
127,43.0,0.0,5529.333334,5530.0
127,41.0,0.6,5530.0,5530.666667
127,44.0,0.0,5530.666667,5531.0
127,47.0,0.8,5531.0,5532.0
127,46.0,0.0,5532.0,5533.0
127,43.0,0.7,5533.0,5533.333334
127,38.0,0.2,5533.333334,5534.0
127,43.0,0.4,5534.0,5534.666667
127,47.0,0.9,5534.666667,5536.0
127,53.0,0.0,5536.0,5537.0
127,57.0,0.0,5537.0,5537.333334
127,60.0,0.5,5537.333334,5538.666667
127,64.0,0.7,5538.666667,5539.0
127,69.0,0.4,5539.0,5540.0
127,65.0,0.0,5540.0,5542.666667
127,59.0,0.9,5542.666667,5543.0
127,62.0,0.9,5543.0,5544.0
127,57.0,0.2,5544.0,5545.0
127,52.0,0.0,5545.0,5546.0
127,48.0,0.2,5546.0,5546.666667
127,52.0,0.0,5546.666667,5547.0
127,55.0,0.0,5547.0,5548.0
127,56.0,0.0,5548.0,5549.0
127,50.0,0.9,5549.0,5549.333334
127,53.0,0.0,5549.333334,5550.0
127,55.0,0.0,5550.0,5550.666667
127,57.0,0.4,5550.666667,5551.0
127,60.0,0.5,5551.0,5552.0
127,57.0,0.4,5552.0,5553.0
127,59.0,0.9,5553.0,5553.333334
127,53.0,0.6,5553.333334,5554.0
127,57.0,0.0,5554.0,5554.666667
127,58.0,0.0,5554.666667,5555.0
127,55.0,0.4,5555.0,5556.0
127,57.0,0.8,5556.0,5557.0
127,60.0,0.5,5557.0,5557.333334
127,62.0,0.0,5557.333334,5558.0
127,59.0,0.8,5558.0,5559.0
127,64.0,0.0,5560.0,5561.0
127,59.0,0.6,5561.0,5562.666667
127,57.0,0.4,5562.666667,5563.0
127,52.0,0.6,5563.0,5564.0
127,50.0,0.0,5564.0,5565.0
127,44.0,0.0,5565.0,5565.333334
127,50.0,0.6,5565.333334,5566.0
127,53.0,0.0,5566.0,5566.666667
127,59.0,0.8,5566.666667,5568.0
127,55.0,0.0,5568.0,5569.333334
127,57.0,0.0,5569.333334,5570.0
127,53.0,0.0,5570.0,5571.0
127,50.0,0.2,5571.0,5573.0
127,45.0,0.8,5573.0,5573.333334
127,43.0,0.0,5573.333334,5574.0
127,45.0,0.4,5574.0,5576.0
127,43.0,0.0,5576.0,5577.0
127,45.0,0.0,5577.0,5577.333334
127,43.0,0.1,5577.333334,5578.0
127,41.0,0.0,5578.0,5578.666667
127,43.0,0.0,5578.666667,5579.0
127,47.0,0.8,5579.0,5580.0
127,41.0,0.0,5580.0,5582.0
127,43.0,0.1,5582.0,5582.666667
127,40.0,0.6,5582.666667,5583.0
127,41.0,0.0,5583.0,5584.0
127,44.0,0.0,5584.0,5585.0
127,43.0,0.4,5585.0,5586.0
127,44.0,0.0,5586.0,5586.666667
127,41.0,0.3,5586.666667,5587.0
127,45.0,0.4,5587.0,5588.0
127,46.0,0.4,5588.0,5589.0
127,41.0,0.0,5589.0,5589.333334
127,44.0,0.0,5589.333334,5590.0
127,43.0,0.0,5590.0,5590.666667
127,46.0,0.1,5590.666667,5591.0
127,50.0,0.6,5591.0,5592.0
127,44.0,0.0,5592.0,5593.0
127,50.0,0.0,5593.0,5593.333334
127,55.0,0.0,5593.333334,5594.666667
127,56.0,0.0,5594.666667,5595.0
127,55.0,0.0,5595.0,5597.0
127,50.0,0.6,5597.0,5597.333334
127,55.0,0.0,5597.333334,5598.0
127,50.0,0.3,5598.0,5599.0
127,52.0,0.0,5600.0,5601.0
127,50.0,0.0,5601.0,5601.333334
127,46.0,0.4,5601.333334,5602.0
127,44.0,0.0,5602.0,5603.0
127,43.0,0.0,5603.0,5608.0
127,44.0,0.0,5608.0,5609.333334
127,40.0,0.0,5610.0,5610.666667
127,44.0,0.0,5610.666667,5611.0
127,45.0,0.4,5611.0,5612.0
127,43.0,0.0,5612.0,5613.0
127,48.0,0.2,5613.0,5613.333334
127,47.0,0.5,5613.333334,5614.666667
127,52.0,0.6,5614.666667,5615.0
127,57.0,0.4,5615.0,5616.0
127,55.0,0.1,5616.0,5617.0
127,57.0,0.0,5617.0,5617.333334
127,60.0,0.2,5617.333334,5618.666667
127,57.0,0.4,5618.666667,5619.0
127,59.0,0.8,5619.0,5621.333334
127,58.0,0.4,5621.333334,5622.0
127,57.0,0.4,5622.0,5623.0
127,55.0,0.4,5623.0,5624.0
127,60.0,0.0,5624.0,5625.0
127,59.0,0.5,5625.0,5625.333334
127,62.0,0.2,5625.333334,5626.0
127,57.0,0.8,5626.0,5626.666667
127,60.0,0.2,5626.666667,5627.0
127,62.0,0.2,5627.0,5628.0
127,58.0,0.1,5628.0,5629.0
127,55.0,0.4,5629.0,5629.333334
127,56.0,0.0,5629.333334,5630.0
127,55.0,0.0,5630.0,5630.666667
127,53.0,0.0,5630.666667,5633.0
127,52.0,0.4,5633.0,5633.333334
127,56.0,0.5,5633.333334,5634.0
127,57.0,0.0,5634.0,5634.666667
127,55.0,0.4,5634.666667,5635.0
127,52.0,0.6,5635.0,5636.0
127,53.0,0.6,5636.0,5637.333334
127,57.0,0.0,5637.333334,5638.0
127,59.0,0.8,5638.0,5638.666667
127,53.0,0.0,5638.666667,5640.0
127,52.0,0.0,5640.0,5641.0
127,50.0,0.6,5641.0,5641.333334
127,55.0,0.4,5641.333334,5642.666667
127,60.0,0.8,5642.666667,5643.0
127,64.0,0.6,5643.0,5644.0
127,60.0,0.0,5644.0,5645.333334
127,57.0,0.8,5645.333334,5646.0
127,58.0,0.0,5646.0,5646.666667
127,57.0,0.4,5646.666667,5648.0
127,60.0,0.5,5648.0,5649.333334
127,55.0,0.4,5649.333334,5650.0
127,52.0,0.0,5650.0,5650.666667
127,55.0,0.7,5650.666667,5652.0
127,56.0,0.0,5652.0,5653.0
127,60.0,0.5,5653.0,5653.333334
127,64.0,0.0,5653.333334,5654.0
127,60.0,0.2,5654.0,5654.666667
127,56.0,0.0,5654.666667,5655.0
127,55.0,0.0,5655.0,5656.0
127,53.0,0.0,5656.0,5657.0
127,57.0,0.0,5657.0,5658.0
127,62.0,0.6,5658.0,5658.666667
127,58.0,0.4,5658.666667,5659.0
127,57.0,0.4,5659.0,5660.0
127,56.0,0.0,5660.0,5661.0
127,58.0,0.0,5661.333334,5662.0
127,53.0,0.0,5662.0,5663.0
127,56.0,0.0,5663.0,5664.0
127,53.0,0.0,5664.0,5665.0
127,52.0,0.0,5665.0,5666.0
127,53.0,0.6,5666.0,5666.666667
127,52.0,0.0,5666.666667,5667.0
127,47.0,0.8,5667.0,5668.0
127,45.0,0.0,5668.0,5669.0
127,43.0,0.7,5669.0,5670.0
127,46.0,0.1,5670.0,5670.666667
127,45.0,0.8,5670.666667,5671.0
127,41.0,0.6,5671.0,5673.333334
127,45.0,0.4,5673.333334,5674.666667
127,41.0,0.0,5674.666667,5675.0
127,38.0,0.2,5675.0,5676.0
127,41.0,0.0,5676.0,5678.666667
127,40.0,0.6,5678.666667,5681.0
127,41.0,0.0,5681.0,5682.0
127,43.0,0.4,5682.0,5682.666667
127,48.0,0.5,5682.666667,5683.0
127,50.0,0.2,5683.0,5685.0
127,45.0,0.0,5685.0,5685.333334
127,48.0,0.2,5685.333334,5686.0
127,46.0,0.0,5686.0,5686.666667
127,45.0,0.5,5686.666667,5688.0
127,41.0,0.1,5688.0,5689.333334
127,38.0,0.2,5689.333334,5690.0
127,43.0,0.0,5690.0,5690.666667
127,41.0,0.0,5690.666667,5691.0
127,40.0,0.6,5691.0,5692.0
127,38.0,0.5,5692.0,5693.0
127,41.0,0.0,5693.0,5693.333334
127,45.0,0.8,5693.333334,5694.0
127,41.0,0.3,5694.0,5695.0
127,40.0,0.6,5695.0,5696.0
127,35.0,0.5,5696.0,5697.0
127,33.0,0.0,5697.0,5697.333334
127,29.0,0.6,5697.333334,5698.666667
127,33.0,0.0,5698.666667,5699.0
127,31.0,0.0,5699.0,5700.0
127,32.0,0.0,5700.0,5701.333334
127,31.0,0.1,5701.333334,5702.666667
127,29.0,0.0,5702.666667,5703.0
127,35.0,0.6,5703.0,5704.0
127,41.0,0.0,5704.0,5705.0
127,47.0,0.5,5705.0,5706.0
127,45.0,0.5,5706.0,5706.666667
127,47.0,0.5,5706.666667,5707.0
127,45.0,0.4,5707.0,5708.0
127,43.0,0.4,5708.0,5710.0
127,48.0,0.5,5710.0,5710.666667
127,47.0,0.8,5710.666667,5711.0
127,50.0,0.0,5711.0,5712.0
127,45.0,0.5,5712.0,5713.0
127,50.0,0.6,5713.0,5713.333334
127,45.0,0.0,5713.333334,5714.666667
127,46.0,0.0,5714.666667,5715.0
127,47.0,0.8,5715.0,5716.0
127,45.0,0.5,5716.0,5717.0
127,48.0,0.2,5717.0,5717.333334
127,45.0,0.5,5717.333334,5719.0
127,44.0,0.0,5720.0,5721.0
127,38.0,0.9,5721.0,5721.333334
127,33.0,0.4,5721.333334,5722.666667
127,34.0,0.1,5722.666667,5723.0
127,35.0,0.8,5723.0,5724.0
127,33.0,0.5,5724.0,5725.0
127,35.0,0.5,5725.0,5725.333334
127,31.0,0.0,5725.333334,5726.0
127,34.0,0.0,5726.0,5727.0
127,29.0,0.0,5728.0,5729.333334
127,33.0,0.0,5729.333334,5730.0
127,28.0,0.0,5730.0,5730.666667
127,24.0,0.5,5730.666667,5731.0
127,26.0,0.2,5731.0,5732.0
127,31.0,0.0,5732.0,5733.0
127,28.0,0.7,5733.0,5733.333334
127,32.0,0.0,5733.333334,5734.0
127,29.0,0.0,5734.0,5735.0
127,26.0,0.2,5735.0,5736.0
127,34.0,0.1,5736.0,5737.0
127,33.0,0.0,5737.0,5737.333334
127,26.0,0.0,5737.333334,5738.666667
127,24.0,0.8,5738.666667,5739.0
127,28.0,0.6,5739.0,5741.333334
127,33.0,0.5,5741.333334,5742.0
127,31.0,0.4,5742.0,5742.666667
127,28.0,0.6,5742.666667,5743.0
127,33.0,0.5,5743.0,5745.0
127,32.0,0.5,5745.0,5745.333334
127,38.0,0.3,5745.333334,5746.0
127,41.0,0.0,5746.0,5746.666667
127,45.0,0.4,5746.666667,5747.0
127,43.0,0.0,5747.0,5748.0
127,40.0,0.0,5748.0,5749.0
127,45.0,0.5,5749.0,5750.0
127,50.0,0.2,5750.0,5750.666667
127,53.0,0.0,5750.666667,5751.0
127,59.0,0.9,5751.0,5752.0
127,58.0,0.1,5752.0,5753.0
127,60.0,0.5,5753.0,5753.333334
127,62.0,0.0,5753.333334,5754.0
127,64.0,0.7,5754.0,5754.666667
127,69.0,0.8,5754.666667,5755.0
127,65.0,0.0,5755.0,5756.0
127,64.0,0.7,5756.0,5757.0
127,59.0,0.9,5757.0,5757.333334
127,53.0,0.0,5757.333334,5758.0
127,48.0,0.2,5758.0,5759.0
127,52.0,0.0,5760.0,5761.0
127,48.0,0.5,5761.0,5761.333334
127,53.0,0.0,5761.333334,5762.666667
127,57.0,0.5,5762.666667,5764.0
127,62.0,0.2,5764.0,5765.0
127,65.0,0.6,5765.0,5765.333334
127,70.0,0.4,5765.333334,5766.666667
127,64.0,0.0,5766.666667,5768.0
127,69.0,0.0,5768.0,5770.666667
127,70.0,0.4,5770.666667,5771.0
127,71.0,0.8,5771.0,5772.0
127,69.0,0.4,5772.0,5773.0
127,74.0,0.3,5773.0,5773.333334
127,77.0,0.0,5773.333334,5774.0
127,74.0,0.6,5774.0,5774.666667
127,71.0,0.8,5774.666667,5776.0
127,70.0,0.0,5776.0,5777.0
127,69.0,0.0,5777.0,5777.333334
127,65.0,0.0,5777.333334,5778.666667
127,64.0,0.7,5778.666667,5779.0
127,62.0,0.2,5779.0,5780.0
127,64.0,0.0,5780.0,5781.333334
127,67.0,0.4,5781.333334,5782.0
127,65.0,0.0,5782.0,5782.666667
127,69.0,0.0,5782.666667,5783.0
127,67.0,0.1,5783.0,5785.0
127,64.0,0.0,5785.0,5785.333334
127,69.0,0.4,5785.333334,5786.0
127,65.0,0.0,5786.0,5786.666667
127,69.0,0.0,5786.666667,5787.0
127,64.0,0.6,5787.0,5789.0
127,67.0,0.1,5789.0,5789.333334
127,71.0,0.8,5789.333334,5790.0
127,65.0,0.3,5790.0,5790.666667
127,70.0,0.4,5790.666667,5791.0
127,69.0,0.5,5791.0,5792.0
127,67.0,0.0,5792.0,5793.0
127,70.0,0.1,5793.0,5793.333334
127,71.0,0.5,5793.333334,5794.0
127,69.0,0.0,5794.0,5794.666667
127,67.0,0.7,5794.666667,5797.0
127,69.0,0.5,5797.0,5797.333334
127,67.0,0.4,5797.333334,5798.666667
127,72.0,0.2,5798.666667,5800.0
127,69.0,0.0,5800.0,5801.0
127,70.0,0.4,5801.0,5801.333334
127,68.0,0.0,5801.333334,5802.666667
127,65.0,0.0,5802.666667,5803.0
127,67.0,0.0,5803.0,5805.333334
127,69.0,0.0,5805.333334,5806.0
127,70.0,0.0,5806.0,5806.666667
127,64.0,0.4,5806.666667,5808.0
127,65.0,0.0,5808.0,5809.333334
127,69.0,0.8,5809.333334,5810.0
127,71.0,0.5,5810.0,5810.666667
127,69.0,0.5,5810.666667,5811.0
127,64.0,0.6,5811.0,5812.0
127,62.0,0.3,5812.0,5813.0
127,60.0,0.2,5813.0,5813.333334
127,57.0,0.8,5813.333334,5814.666667
127,55.0,0.1,5814.666667,5815.0
127,59.0,0.8,5815.0,5816.0
127,58.0,0.4,5816.0,5817.0
127,57.0,0.0,5817.0,5817.333334
127,52.0,0.6,5817.333334,5818.0
127,48.0,0.2,5818.0,5818.666667
127,53.0,0.0,5818.666667,5819.0
127,50.0,0.2,5819.0,5820.0
127,48.0,0.2,5820.0,5821.0
127,46.0,0.0,5821.333334,5822.0
127,44.0,0.0,5822.0,5823.0
127,41.0,0.0,5823.0,5825.0
127,44.0,0.5,5825.0,5826.0
127,43.0,0.4,5826.0,5826.666667
127,40.0,0.0,5826.666667,5827.0
127,35.0,0.8,5827.0,5828.0
127,38.0,0.0,5828.0,5829.0
127,41.0,0.0,5829.0,5829.333334
127,36.0,0.2,5829.333334,5830.0
127,34.0,0.0,5830.0,5830.666667
127,29.0,0.3,5830.666667,5831.0
127,31.0,0.4,5831.0,5832.0
127,29.0,0.0,5832.0,5833.0
127,32.0,0.0,5833.0,5833.333334
127,38.0,0.2,5833.333334,5834.0
127,33.0,0.8,5834.0,5834.666667
127,36.0,0.5,5834.666667,5835.0
127,33.0,0.4,5835.0,5837.0
127,31.0,0.4,5837.0,5837.333334
127,26.0,0.9,5837.333334,5838.0
127,31.0,0.7,5838.0,5838.666667
127,35.0,0.8,5838.666667,5840.0
127,40.0,0.0,5840.0,5841.0
127,44.0,0.0,5841.0,5842.0
127,43.0,0.1,5842.0,5842.666667
127,48.0,0.5,5842.666667,5843.0
127,45.0,0.4,5843.0,5844.0
127,46.0,0.4,5844.0,5845.0
127,50.0,0.9,5845.333334,5846.0
127,46.0,0.0,5846.0,5846.666667
127,44.0,0.5,5846.666667,5848.0
127,41.0,0.0,5848.0,5849.333334
127,45.0,0.4,5849.333334,5850.0
127,40.0,0.0,5850.0,5850.666667
127,45.0,0.0,5850.666667,5851.0
127,43.0,0.0,5851.0,5853.0
127,45.0,0.8,5853.0,5853.333334
127,41.0,0.0,5853.333334,5854.0
127,46.0,0.1,5854.0,5855.0
127,45.0,0.4,5855.0,5856.0
127,41.0,0.0,5856.0,5857.0
127,45.0,0.0,5857.0,5858.666667
127,48.0,0.5,5858.666667,5859.0
127,52.0,0.6,5859.0,5862.0
127,48.0,0.5,5862.0,5862.666667
127,46.0,0.1,5862.666667,5863.0
127,50.0,0.6,5863.0,5864.0
127,48.0,0.2,5864.0,5865.0
127,45.0,0.5,5865.0,5866.0
127,41.0,0.3,5866.0,5866.666667
127,40.0,0.0,5866.666667,5867.0
127,38.0,0.2,5867.0,5868.0
127,41.0,0.0,5868.0,5869.0
127,38.0,0.6,5869.0,5869.333334
127,35.0,0.6,5869.333334,5870.0
127,33.0,0.8,5870.0,5870.666667
127,31.0,0.0,5870.666667,5871.0
127,29.0,0.0,5871.0,5872.0
127,35.0,0.0,5872.0,5873.0
127,41.0,0.6,5873.0,5874.0
127,45.0,0.0,5874.0,5874.666667
127,43.0,0.0,5874.666667,5875.0
127,47.0,0.8,5875.0,5876.0
127,43.0,0.1,5876.0,5877.0
127,41.0,0.0,5877.0,5879.0
127,35.0,0.5,5880.0,5881.0
127,31.0,0.4,5881.0,5881.333334
127,33.0,0.4,5881.333334,5882.666667
127,29.0,0.0,5882.666667,5883.0
127,35.0,0.8,5883.0,5884.0
127,33.0,0.5,5884.0,5885.333334
127,31.0,0.4,5885.333334,5886.0
127,34.0,0.0,5886.0,5886.666667
127,38.0,0.2,5886.666667,5888.0
127,33.0,0.0,5888.0,5890.0
127,32.0,0.5,5890.0,5891.0
127,33.0,0.4,5891.0,5892.0
127,34.0,0.1,5892.0,5893.0
127,33.0,0.5,5893.0,5893.333334
127,32.0,0.5,5893.333334,5894.0
127,31.0,0.0,5894.0,5896.0
127,32.0,0.0,5896.0,5897.0
127,33.0,0.0,5897.0,5897.333334
127,38.0,0.9,5897.333334,5898.0
127,36.0,0.5,5898.0,5898.666667
127,40.0,0.4,5898.666667,5899.0
127,43.0,0.0,5899.0,5900.0
127,44.0,0.0,5900.0,5901.333334
127,45.0,0.8,5901.333334,5902.0
127,46.0,0.1,5902.0,5902.666667
127,50.0,0.2,5902.666667,5904.0
127,48.0,0.5,5904.0,5905.0
127,52.0,0.0,5905.0,5905.333334
127,50.0,0.9,5905.333334,5906.0
127,45.0,0.5,5906.0,5907.0
127,40.0,0.6,5907.0,5908.0
127,45.0,0.5,5908.0,5909.0
127,50.0,0.3,5909.0,5909.333334
127,55.0,0.1,5909.333334,5910.0
127,57.0,0.4,5910.0,5910.666667
127,59.0,0.9,5910.666667,5911.0
127,64.0,0.4,5911.0,5912.0
127,69.0,0.0,5912.0,5913.0
127,65.0,0.0,5913.0,5913.333334
127,64.0,0.6,5913.333334,5914.0
127,58.0,0.1,5914.0,5914.666667
127,53.0,0.0,5914.666667,5915.0
127,50.0,0.0,5915.0,5916.0
127,45.0,0.5,5916.0,5917.0
127,40.0,0.7,5917.0,5917.333334
127,36.0,0.2,5917.333334,5918.0
127,41.0,0.0,5918.0,5919.0
127,40.0,0.0,5920.0,5921.0
127,41.0,0.0,5921.0,5921.333334
127,47.0,0.6,5921.333334,5922.0
127,45.0,0.5,5922.0,5923.0
127,50.0,0.2,5923.0,5924.0
127,46.0,0.4,5924.0,5925.0
127,52.0,0.0,5925.0,5925.333334
127,55.0,0.1,5925.333334,5926.0
127,57.0,0.4,5926.0,5927.0
127,53.0,0.0,5928.0,5930.666667
127,57.0,0.5,5930.666667,5931.0
127,59.0,0.8,5931.0,5932.0
127,58.0,0.0,5932.0,5933.0
127,53.0,0.0,5933.0,5933.333334
127,55.0,0.0,5933.333334,5934.0
127,52.0,0.7,5934.0,5936.0
127,55.0,0.0,5936.0,5937.0
127,57.0,0.0,5937.0,5941.333334
127,53.0,0.0,5941.333334,5942.0
127,47.0,0.8,5942.0,5942.666667
127,45.0,0.0,5942.666667,5943.0
127,46.0,0.4,5943.0,5944.0
127,43.0,0.0,5944.0,5945.0
127,47.0,0.5,5945.0,5945.333334
127,45.0,0.4,5945.333334,5946.0
127,43.0,0.7,5946.0,5949.0
127,48.0,0.2,5949.0,5950.0
127,45.0,0.4,5950.0,5950.666667
127,41.0,0.0,5950.666667,5951.0
127,44.0,0.0,5951.0,5952.0
127,41.0,0.0,5952.0,5953.0
127,43.0,0.4,5953.0,5953.333334
127,41.0,0.0,5953.333334,5954.0
127,45.0,0.0,5954.0,5954.666667
127,50.0,0.0,5954.666667,5955.0
127,52.0,0.4,5955.0,5956.0
127,53.0,0.6,5956.0,5957.0
127,57.0,0.8,5957.0,5957.333334
127,55.0,0.4,5957.333334,5958.0
127,57.0,0.5,5958.0,5958.666667
127,53.0,0.0,5958.666667,5960.0
127,57.0,0.4,5960.0,5961.0
127,55.0,0.1,5961.0,5961.333334
127,50.0,0.6,5961.333334,5962.666667
127,55.0,0.7,5962.666667,5963.0
127,52.0,0.6,5963.0,5964.0
127,53.0,0.0,5964.0,5965.333334
127,50.0,0.6,5965.333334,5966.0
127,46.0,0.0,5966.0,5966.666667
127,50.0,0.2,5966.666667,5968.0
127,53.0,0.0,5968.0,5969.333334
127,50.0,0.6,5969.333334,5970.0
127,52.0,0.0,5970.0,5970.666667
127,50.0,0.3,5970.666667,5972.0
127,48.0,0.2,5972.0,5973.0
127,53.0,0.3,5973.0,5973.333334
127,55.0,0.0,5973.333334,5974.0
127,53.0,0.0,5974.0,5974.666667
127,50.0,0.0,5974.666667,5976.0
127,48.0,0.5,5976.0,5977.0
127,45.0,0.0,5977.0,5977.333334
127,50.0,0.2,5977.333334,5978.666667
127,56.0,0.0,5978.666667,5979.0
127,59.0,0.8,5979.0,5980.0
127,53.0,0.0,5980.0,5981.333334
127,57.0,0.4,5981.333334,5982.0
127,60.0,0.5,5982.0,5984.0
127,62.0,0.4,5984.0,5985.0
127,56.0,0.5,5985.0,5986.0
127,59.0,0.9,5986.0,5986.666667
127,64.0,0.0,5986.666667,5987.0
127,69.0,0.4,5987.0,5989.0
127,72.0,0.5,5989.0,5989.333334
127,70.0,0.0,5989.333334,5990.0
127,65.0,0.0,5990.0,5990.666667
127,60.0,0.2,5990.666667,5991.0
127,58.0,0.1,5991.0,5992.0
127,55.0,0.4,5992.0,5993.0
127,57.0,0.5,5993.0,5994.0
127,60.0,0.5,5994.0,5994.666667
127,57.0,0.5,5994.666667,5995.0
127,55.0,0.0,5995.0,5996.0
127,57.0,0.0,5996.0,5997.0
127,58.0,0.1,5997.0,5998.0
127,57.0,0.8,5998.0,5998.666667
127,55.0,0.0,5998.666667,6000.0
127,52.0,0.0,6000.0,6001.0
127,57.0,0.5,6001.0,6002.0
127,59.0,0.6,6002.0,6002.666667
127,55.0,0.0,6002.666667,6005.0
127,53.0,0.0,6005.0,6005.333334
127,56.0,0.0,6005.333334,6006.0
127,55.0,0.0,6006.0,6006.666667
127,59.0,0.5,6006.666667,6008.0
127,53.0,0.0,6008.0,6009.333334
127,57.0,0.4,6009.333334,6010.666667
127,58.0,0.4,6010.666667,6011.0
127,57.0,0.4,6011.0,6012.0
127,53.0,0.0,6012.0,6013.0
127,55.0,0.7,6013.0,6014.666667
127,53.0,0.0,6014.666667,6015.0
127,50.0,0.2,6015.0,6016.0
127,53.0,0.0,6016.0,6017.0
127,57.0,0.0,6017.0,6017.333334
127,52.0,0.4,6017.333334,6018.666667
127,57.0,0.0,6018.666667,6019.0
127,59.0,0.8,6019.0,6020.0
127,56.0,0.4,6020.0,6021.333334
127,60.0,0.8,6021.333334,6022.0
127,65.0,0.0,6022.0,6023.0
127,62.0,0.9,6023.0,6024.0
127,64.0,0.4,6024.0,6026.0
127,69.0,0.8,6026.0,6026.666667
127,64.0,0.0,6026.666667,6027.0
127,62.0,0.2,6027.0,6030.0
127,57.0,0.4,6030.0,6030.666667
127,59.0,0.8,6030.666667,6031.0
127,60.0,0.5,6031.0,6032.0
127,57.0,0.1,6032.0,6033.0
127,59.0,0.9,6033.0,6034.0
127,57.0,0.0,6034.0,6034.666667
127,55.0,0.4,6034.666667,6035.0
127,52.0,0.6,6035.0,6036.0
127,53.0,0.0,6036.0,6037.0
127,48.0,0.5,6037.0,6037.333334
127,46.0,0.0,6037.333334,6038.0
127,48.0,0.2,6038.0,6039.0
127,53.0,0.0,6040.0,6041.0
127,47.0,0.6,6041.0,6041.333334
127,50.0,0.2,6041.333334,6042.666667
127,45.0,0.8,6042.666667,6043.0
127,40.0,0.6,6043.0,6044.0
127,36.0,0.1,6044.0,6046.0
127,41.0,0.0,6046.0,6046.666667
127,43.0,0.0,6046.666667,6048.0
127,46.0,0.1,6048.0,6049.333334
127,45.0,0.0,6049.333334,6050.0
127,43.0,0.0,6050.0,6052.0
127,40.0,0.0,6052.0,6053.0
127,45.0,0.8,6053.0,6053.333334
127,44.0,0.0,6053.333334,6054.0
127,45.0,0.5,6054.0,6055.0
127,47.0,0.8,6055.0,6056.0
127,41.0,0.0,6056.0,6057.0
127,45.0,0.0,6057.0,6057.333334
127,44.0,0.0,6057.333334,6058.0
127,41.0,0.0,6058.0,6058.666667
127,36.0,0.5,6058.666667,6059.0
127,33.0,0.4,6059.0,6060.0
127,28.0,0.0,6060.0,6062.666667
127,31.0,0.0,6062.666667,6063.0
127,29.0,0.0,6063.0,6064.0
127,27.0,0.0,6064.0,6065.0
127,29.0,0.0,6065.0,6065.333334
127,31.0,0.7,6065.333334,6066.0
127,26.0,0.0,6066.0,6066.666667
127,35.0,0.8,6066.666667,6068.0
127,31.0,0.4,6068.0,6069.0
127,29.0,0.0,6069.0,6069.333334
127,24.0,0.8,6069.333334,6070.0
127,33.0,0.4,6070.0,6070.666667
127,29.0,0.0,6070.666667,6071.0
127,26.0,0.6,6071.0,6072.0
127,31.0,0.7,6072.0,6073.0
127,26.0,0.0,6073.0,6073.333334
127,32.0,0.0,6073.333334,6074.0
127,26.0,0.6,6074.0,6074.666667
127,33.0,0.4,6074.666667,6075.0
127,26.0,0.2,6075.0,6077.333334
127,29.0,0.0,6077.333334,6078.0
127,26.0,0.3,6078.0,6079.0
127,28.0,0.0,6080.0,6081.0
127,26.0,0.0,6081.0,6081.333334
127,29.0,0.0,6081.333334,6082.666667
127,26.0,0.6,6082.666667,6084.0
127,33.0,0.0,6084.0,6085.333334
127,34.0,0.4,6085.333334,6086.0
127,33.0,0.4,6086.0,6086.666667
127,31.0,0.4,6086.666667,6088.0
127,34.0,0.0,6088.0,6089.333334
127,28.0,0.0,6090.0,6090.666667
127,31.0,0.0,6090.666667,6091.0
127,28.0,0.6,6091.0,6092.0
127,34.0,0.0,6092.0,6093.0
127,24.0,0.2,6093.0,6094.0
127,35.0,0.9,6094.0,6095.0
127,33.0,0.4,6095.0,6096.0
127,34.0,0.0,6096.0,6097.0
127,33.0,0.0,6097.0,6097.333334
127,29.0,0.0,6097.333334,6099.0
127,31.0,0.0,6099.0,6100.0
127,28.0,0.0,6100.0,6101.333334
127,32.0,0.0,6101.333334,6102.0
127,31.0,0.0,6102.0,6102.666667
127,33.0,0.0,6102.666667,6103.0
127,31.0,0.4,6103.0,6104.0
127,32.0,0.0,6104.0,6105.0
127,35.0,0.5,6105.0,6105.333334
127,26.0,0.2,6105.333334,6106.0
127,24.0,0.2,6106.0,6106.666667
127,31.0,0.1,6106.666667,6107.0
127,33.0,0.4,6107.0,6108.0
127,34.0,0.4,6108.0,6109.0
127,31.0,0.4,6109.0,6110.666667
127,35.0,0.6,6110.666667,6111.0
127,29.0,0.0,6111.0,6112.0
127,33.0,0.4,6112.0,6113.0
127,28.0,0.4,6113.0,6113.333334
127,33.0,0.8,6113.333334,6114.666667
127,36.0,0.5,6114.666667,6115.0
127,34.0,0.4,6115.0,6116.0
127,36.0,0.6,6116.0,6117.0
127,41.0,0.0,6117.0,6117.333334
127,43.0,0.0,6117.333334,6118.0
127,40.0,0.6,6118.0,6118.666667
127,45.0,0.8,6118.666667,6120.0
127,40.0,0.0,6120.0,6121.0
127,38.0,0.6,6121.0,6122.666667
127,44.0,0.0,6122.666667,6123.0
127,47.0,0.8,6123.0,6124.0
127,45.0,0.5,6124.0,6125.0
127,47.0,0.5,6125.0,6125.333334
127,45.0,0.0,6125.333334,6126.0
127,43.0,0.4,6126.0,6128.0
127,44.0,0.0,6128.0,6129.333334
127,48.0,0.2,6129.333334,6130.0
127,53.0,0.0,6130.0,6130.666667
127,55.0,0.0,6130.666667,6131.0
127,50.0,0.2,6131.0,6132.0
127,45.0,0.8,6132.0,6133.0
127,48.0,0.5,6133.0,6133.333334
127,44.0,0.0,6133.333334,6134.0
127,48.0,0.2,6134.0,6134.666667
127,50.0,0.9,6134.666667,6135.0
127,55.0,0.0,6135.0,6136.0
127,58.0,0.1,6136.0,6137.0
127,57.0,0.0,6137.0,6137.333334
127,55.0,0.0,6137.333334,6138.666667
127,53.0,0.0,6138.666667,6139.0
127,52.0,0.6,6139.0,6140.0
127,55.0,0.0,6140.0,6141.333334
127,56.0,0.0,6141.333334,6142.0
127,53.0,0.0,6142.0,6143.0
127,56.0,0.0,6143.0,6144.0
127,53.0,0.0,6144.0,6145.0
127,52.0,0.0,6145.0,6147.0
127,55.0,0.0,6147.0,6148.0
127,52.0,0.0,6148.0,6149.0
127,55.0,0.7,6149.0,6149.333334
127,53.0,0.6,6149.333334,6150.0
127,59.0,0.8,6150.0,6150.666667
127,64.0,0.7,6150.666667,6151.0
127,65.0,0.6,6151.0,6153.333334
127,64.0,0.6,6153.333334,6154.666667
127,67.0,0.4,6154.666667,6155.0
127,68.0,0.0,6155.0,6156.0
127,69.0,0.0,6156.0,6157.0
127,65.0,0.3,6157.0,6157.333334
127,67.0,0.7,6157.333334,6158.0
127,65.0,0.0,6158.0,6158.666667
127,62.0,0.2,6158.666667,6160.0
127,57.0,0.0,6160.0,6161.0
127,53.0,0.0,6161.0,6162.0
127,50.0,0.6,6162.0,6162.666667
127,53.0,0.6,6162.666667,6163.0
127,57.0,0.4,6163.0,6165.0
127,55.0,0.4,6165.0,6165.333334
127,53.0,0.6,6165.333334,6166.0
127,58.0,0.0,6166.0,6166.666667
127,56.0,0.5,6166.666667,6168.0
127,53.0,0.0,6168.0,6169.333334
127,47.0,0.8,6169.333334,6170.666667
127,41.0,0.0,6170.666667,6171.0
127,47.0,0.8,6171.0,6172.0
127,45.0,0.0,6172.0,6173.0
127,41.0,0.0,6173.0,6173.333334
127,46.0,0.0,6173.333334,6174.0
127,41.0,0.3,6174.0,6174.666667
127,47.0,0.9,6174.666667,6175.0
127,52.0,0.6,6175.0,6176.0
127,56.0,0.0,6176.0,6177.0
127,57.0,0.0,6177.0,6177.333334
127,60.0,0.5,6177.333334,6178.666667
127,65.0,0.3,6178.666667,6179.0
127,62.0,0.2,6179.0,6180.0
127,67.0,0.1,6180.0,6181.333334
127,65.0,0.0,6181.333334,6182.0
127,67.0,0.7,6182.0,6182.666667
127,71.0,0.9,6182.666667,6184.0
127,72.0,0.2,6184.0,6185.0
127,69.0,0.8,6185.0,6186.0
127,72.0,0.5,6186.0,6186.666667
127,76.0,0.0,6186.666667,6188.0
127,72.0,0.0,6188.0,6189.0
127,69.0,0.8,6189.0,6189.333334
127,65.0,0.0,6189.333334,6190.0
127,69.0,0.5,6190.0,6191.0
127,74.0,0.0,6191.0,6192.0
127,79.0,0.0,6192.0,6193.0
127,74.0,0.6,6193.0,6194.0
127,69.0,0.0,6194.0,6194.666667
127,70.0,0.0,6194.666667,6195.0
127,67.0,0.0,6195.0,6196.0
127,68.0,0.0,6196.0,6197.0
127,72.0,0.2,6197.0,6197.333334
127,74.0,0.6,6197.333334,6198.0
127,79.0,0.0,6198.0,6199.0
127,80.0,0.0,6200.0,6201.0
127,74.0,0.9,6201.0,6201.333334
127,79.0,0.0,6201.333334,6202.666667
127,80.0,0.0,6202.666667,6203.0
127,79.0,0.0,6203.0,6204.0
127,77.0,0.0,6204.0,6205.0
127,79.0,0.1,6205.0,6205.333334
127,74.0,0.6,6205.333334,6206.0
127,68.0,0.0,6206.0,6206.666667
127,62.0,0.2,6206.666667,6208.0
127,65.0,0.0,6208.0,6209.333334
127,69.0,0.0,6209.333334,6210.0
127,64.0,0.0,6210.0,6212.0
127,65.0,0.6,6212.0,6213.0
127,64.0,0.7,6213.0,6213.333334
127,67.0,0.0,6213.333334,6214.0
127,65.0,0.0,6214.0,6215.0
127,64.0,0.6,6215.0,6216.0
127,67.0,0.0,6216.0,6217.0
127,69.0,0.0,6217.0,6217.333334
127,67.0,0.1,6217.333334,6218.666667
127,68.0,0.0,6218.666667,6219.0
127,62.0,0.2,6219.0,6220.0
127,57.0,0.0,6220.0,6221.333334
127,53.0,0.0,6221.333334,6222.666667
127,50.0,0.2,6222.666667,6223.0
127,45.0,0.5,6223.0,6224.0
127,41.0,0.3,6224.0,6225.0
127,44.0,0.5,6225.0,6225.333334
127,43.0,0.1,6225.333334,6226.0
127,41.0,0.0,6226.0,6227.0
127,35.0,0.8,6227.0,6228.0
127,41.0,0.0,6228.0,6229.0
127,45.0,0.5,6229.0,6230.0
127,46.0,0.0,6230.0,6231.0
127,47.0,0.9,6231.0,6232.0
127,53.0,0.0,6232.0,6233.0
127,48.0,0.5,6233.0,6233.333334
127,47.0,0.8,6233.333334,6234.0
127,53.0,0.3,6234.0,6234.666667
127,48.0,0.8,6234.666667,6235.0
127,45.0,0.4,6235.0,6236.0
127,41.0,0.0,6236.0,6237.0
127,47.0,0.9,6237.0,6237.333334
127,45.0,0.4,6237.333334,6238.0
127,48.0,0.2,6238.0,6239.0
127,52.0,0.0,6240.0,6241.0
127,48.0,0.5,6241.0,6241.333334
127,46.0,0.4,6241.333334,6242.0
127,41.0,0.0,6242.0,6243.0
127,45.0,0.4,6243.0,6244.0
127,47.0,0.4,6244.0,6245.333334
127,43.0,0.7,6245.333334,6246.0
127,46.0,0.0,6246.0,6246.666667
127,45.0,0.0,6246.666667,6248.0
127,46.0,0.0,6248.0,6249.333334
127,52.0,0.0,6250.0,6250.666667
127,48.0,0.5,6250.666667,6251.0
127,43.0,0.0,6251.0,6252.0
127,44.0,0.0,6252.0,6253.0
127,50.0,0.3,6253.0,6253.333334
127,47.0,0.5,6253.333334,6254.0
127,50.0,0.6,6254.0,6254.666667
127,45.0,0.4,6254.666667,6255.0
127,50.0,0.2,6255.0,6256.0
127,45.0,0.0,6256.0,6257.333334
127,48.0,0.2,6257.333334,6258.666667
127,43.0,0.0,6258.666667,6259.0
127,40.0,0.6,6259.0,6260.0
127,35.0,0.0,6260.0,6261.333334
127,32.0,0.0,6261.333334,6262.0
127,29.0,0.0,6262.0,6262.666667
127,33.0,0.0,6262.666667,6263.0
127,31.0,0.1,6263.0,6264.0
127,33.0,0.0,6264.0,6265.0
127,28.0,0.0,6265.0,6265.333334
127,31.0,0.0,6265.333334,6266.0
127,29.0,0.0,6266.0,6266.666667
127,32.0,0.0,6266.666667,6267.0
127,38.0,0.2,6267.0,6268.0
127,41.0,0.3,6268.0,6269.0
127,43.0,0.1,6269.0,6269.333334
127,38.0,0.0,6269.333334,6270.0
127,41.0,0.0,6270.0,6271.0
127,45.0,0.5,6271.0,6272.0
127,47.0,0.9,6272.0,6273.0
127,46.0,0.1,6273.0,6273.333334
127,44.0,0.5,6273.333334,6274.0
127,45.0,0.0,6274.0,6274.666667
127,50.0,0.6,6274.666667,6275.0
127,47.0,0.8,6275.0,6276.0
127,52.0,0.6,6276.0,6277.0
127,57.0,0.5,6277.0,6278.666667
127,53.0,0.0,6278.666667,6280.0
127,56.0,0.0,6280.0,6281.0
127,58.0,0.4,6281.0,6281.333334
127,55.0,0.4,6281.333334,6283.0
127,59.0,0.8,6283.0,6284.0
127,55.0,0.0,6284.0,6285.0
127,57.0,0.0,6285.0,6285.333334
127,60.0,0.2,6285.333334,6286.0
127,58.0,0.0,6286.0,6286.666667
127,60.0,0.5,6286.666667,6288.0
127,59.0,0.5,6288.0,6289.333334
127,55.0,0.4,6289.333334,6290.0
127,59.0,0.5,6290.0,6290.666667
127,55.0,0.7,6290.666667,6291.0
127,57.0,0.4,6291.0,6293.0
127,60.0,0.2,6293.0,6293.333334
127,55.0,0.0,6293.333334,6294.666667
127,56.0,0.0,6294.666667,6295.0
127,59.0,0.8,6295.0,6296.0
127,62.0,0.0,6296.0,6297.0
127,57.0,0.0,6297.0,6297.333334
127,62.0,0.2,6297.333334,6298.0
127,57.0,0.8,6298.0,6298.666667
127,51.0,0.2,6298.666667,6299.0
127,55.0,0.0,6299.0,6300.0
127,56.0,0.0,6300.0,6301.333334
127,58.0,0.0,6301.333334,6302.0
127,62.0,0.0,6302.0,6303.0
127,65.0,0.0,6303.0,6305.0
127,68.0,0.5,6305.0,6306.0
127,62.0,0.6,6306.0,6306.666667
127,64.0,0.0,6306.666667,6308.0
127,59.0,0.0,6308.0,6309.0
127,53.0,0.0,6309.0,6309.333334
127,58.0,0.0,6309.333334,6310.0
127,56.0,0.0,6310.0,6310.666667
127,57.0,0.8,6310.666667,6311.0
127,55.0,0.4,6311.0,6312.0
127,58.0,0.1,6312.0,6313.0
127,56.0,0.0,6313.0,6313.333334
127,57.0,0.4,6313.333334,6314.0
127,60.0,0.2,6314.0,6314.666667
127,65.0,0.0,6314.666667,6315.0
127,60.0,0.5,6315.0,6316.0
127,57.0,0.0,6316.0,6317.0
127,55.0,0.4,6317.0,6318.666667
127,57.0,0.4,6318.666667,6320.0
127,52.0,0.0,6320.0,6321.0
127,56.0,0.0,6321.0,6322.0
127,50.0,0.9,6322.0,6322.666667
127,48.0,0.5,6322.666667,6323.0
127,50.0,0.2,6323.0,6325.0
127,44.0,0.5,6325.0,6325.333334
127,41.0,0.0,6325.333334,6326.0
127,46.0,0.0,6326.0,6326.666667
127,47.0,0.5,6326.666667,6328.0
127,52.0,0.6,6328.0,6329.333334
127,55.0,0.0,6329.333334,6330.0
127,52.0,0.0,6330.0,6330.666667
127,53.0,0.0,6330.666667,6331.0
127,47.0,0.8,6331.0,6332.0
127,46.0,0.0,6332.0,6333.0
127,45.0,0.8,6333.0,6333.333334
127,47.0,0.8,6333.333334,6334.0
127,46.0,0.1,6334.0,6334.666667
127,41.0,0.0,6334.666667,6335.0
127,45.0,0.4,6335.0,6336.0
127,41.0,0.0,6336.0,6337.0
127,45.0,0.0,6337.0,6337.333334
127,41.0,0.6,6337.333334,6338.666667
127,45.0,0.0,6338.666667,6340.0
127,40.0,0.0,6340.0,6341.333334
127,38.0,0.3,6341.333334,6342.0
127,36.0,0.5,6342.0,6342.666667
127,41.0,0.0,6342.666667,6343.0
127,38.0,0.6,6343.0,6344.0
127,41.0,0.0,6344.0,6345.0
127,35.0,0.5,6345.0,6346.0
127,40.0,0.7,6346.0,6346.666667
127,45.0,0.8,6346.666667,6347.0
127,43.0,0.0,6347.0,6348.0
127,41.0,0.0,6348.0,6349.0
127,38.0,0.6,6349.0,6350.0
127,35.0,0.8,6350.0,6350.666667
127,40.0,0.6,6350.666667,6351.0
127,41.0,0.0,6351.0,6352.0
127,43.0,0.4,6352.0,6353.0
127,41.0,0.6,6353.0,6353.333334
127,45.0,0.5,6353.333334,6355.0
127,46.0,0.1,6355.0,6356.0
127,50.0,0.3,6356.0,6357.0
127,53.0,0.0,6357.0,6359.0
127,56.0,0.5,6360.0,6361.0
127,55.0,0.4,6361.0,6361.333334
127,50.0,0.2,6361.333334,6362.666667
127,53.0,0.0,6362.666667,6363.0
127,52.0,0.6,6363.0,6364.0
127,55.0,0.4,6364.0,6365.0
127,57.0,0.5,6365.0,6366.666667
127,55.0,0.0,6366.666667,6368.0
127,53.0,0.3,6368.0,6369.333334
127,57.0,0.0,6369.333334,6370.0
127,56.0,0.5,6370.0,6370.666667
127,57.0,0.5,6370.666667,6371.0
127,62.0,0.2,6371.0,6372.0
127,65.0,0.0,6372.0,6373.0
127,69.0,0.5,6373.0,6373.333334
127,67.0,0.0,6373.333334,6374.0
127,69.0,0.4,6374.0,6375.0
127,67.0,0.0,6375.0,6376.0
127,65.0,0.3,6376.0,6377.0
127,69.0,0.0,6377.0,6377.333334
127,74.0,0.0,6377.333334,6378.0
127,69.0,0.5,6378.0,6378.666667
127,65.0,0.0,6378.666667,6379.0
127,59.0,0.8,6379.0,6380.0
127,64.0,0.0,6380.0,6381.333334
127,60.0,0.5,6381.333334,6382.0
127,59.0,0.9,6382.0,6382.666667
127,57.0,0.4,6382.666667,6383.0
127,62.0,0.0,6383.0,6384.0
127,58.0,0.0,6384.0,6385.0
127,52.0,0.0,6385.0,6385.333334
127,50.0,0.3,6385.333334,6386.0
127,48.0,0.5,6386.0,6386.666667
127,43.0,0.0,6386.666667,6387.0
127,45.0,0.4,6387.0,6388.0
127,46.0,0.4,6388.0,6389.0
127,50.0,0.3,6389.0,6389.333334
127,53.0,0.0,6389.333334,6390.0
127,55.0,0.0,6390.0,6391.0
127,52.0,0.4,6391.0,6392.0
127,47.0,0.0,6392.0,6393.333334
127,43.0,0.0,6393.333334,6394.0
127,47.0,0.9,6394.0,6394.666667
127,44.0,0.0,6394.666667,6395.0
127,43.0,0.0,6395.0,6396.0
127,40.0,0.0,6396.0,6397.333334
127,41.0,0.0,6397.333334,6398.0
