,Type,Channel,Note,Pitch,Velocity,Time
0,note_on,0,40,--,64,0
1,note_off,0,40,--,64,320
2,note_on,0,41,--,64,0
3,note_off,0,41,--,64,640
4,note_on,0,43,--,64,0
5,note_off,0,43,--,64,320
6,note_on,0,44,--,64,0
7,note_off,0,44,--,64,160
8,note_on,0,43,--,64,0
9,note_off,0,43,--,64,160
10,note_on,0,41,--,64,0
11,note_off,0,41,--,64,320
12,note_on,0,43,--,64,0
13,note_off,0,43,--,64,480
14,note_on,0,41,--,64,0
15,note_off,0,41,--,64,160
16,note_on,0,43,--,64,0
17,pitchwheel,0,--,409,--,0
18,note_off,0,43,--,64,320
19,note_on,0,43,--,64,0
20,note_off,0,43,--,64,640
21,note_on,0,45,--,64,0
22,pitchwheel,0,--,1638,--,0
23,note_off,0,45,--,64,320
24,note_on,0,46,--,64,0
25,note_off,0,46,--,64,320
26,note_on,0,41,--,64,0
27,note_off,0,41,--,64,320
28,note_on,0,41,--,64,0
29,pitchwheel,0,--,1228,--,0
30,note_off,0,41,--,64,320
31,note_on,0,43,--,64,0
32,note_off,0,43,--,64,320
33,note_on,0,43,--,64,0
34,pitchwheel,0,--,409,--,0
35,note_off,0,43,--,64,160
36,note_on,0,45,--,64,0
37,pitchwheel,0,--,1638,--,0
38,note_off,0,45,--,64,160
39,note_on,0,45,--,64,0
40,note_off,0,45,--,64,320
41,note_on,0,46,--,64,0
42,note_off,0,46,--,64,320
43,note_on,0,47,--,64,0
44,pitchwheel,0,--,3276,--,0
45,note_off,0,47,--,64,160
46,note_on,0,53,--,64,0
47,note_off,0,53,--,64,160
48,note_on,0,48,--,64,0
49,pitchwheel,0,--,3276,--,0
50,note_off,0,48,--,64,320
51,note_on,0,53,--,64,0
52,pitchwheel,0,--,1228,--,0
53,note_off,0,53,--,64,320
54,note_on,0,57,--,64,0
55,pitchwheel,0,--,1638,--,0
56,note_off,0,57,--,64,160
57,note_on,0,55,--,64,0
58,note_off,0,55,--,64,160
59,note_on,0,59,--,64,0
60,pitchwheel,0,--,2457,--,0
61,note_off,0,59,--,64,320
62,note_on,0,58,--,64,0
63,pitchwheel,0,--,1638,--,0
64,note_off,0,58,--,64,320
65,note_on,0,59,--,64,0
66,pitchwheel,0,--,2047,--,0
67,note_off,0,59,--,64,160
68,note_on,0,57,--,64,0
69,note_off,0,57,--,64,160
70,note_on,0,53,--,64,0
71,note_off,0,53,--,64,320
72,note_on,0,50,--,64,0
73,pitchwheel,0,--,819,--,0
74,note_off,0,50,--,64,320
75,note_on,0,51,--,64,0
76,pitchwheel,0,--,819,--,0
77,note_off,0,51,--,64,160
78,note_on,0,47,--,64,0
79,pitchwheel,0,--,3276,--,0
80,note_off,0,47,--,64,160
81,note_on,0,45,--,64,0
82,pitchwheel,0,--,3276,--,0
83,note_off,0,45,--,64,320
84,note_on,0,46,--,64,0
85,note_off,0,46,--,64,320
86,note_on,0,50,--,64,0
87,note_off,0,50,--,64,320
88,note_on,0,45,--,64,0
89,pitchwheel,0,--,2047,--,0
90,note_off,0,45,--,64,320
91,note_on,0,45,--,64,0
92,pitchwheel,0,--,1638,--,0
93,note_off,0,45,--,64,320
94,note_on,0,45,--,64,0
95,note_off,0,45,--,64,160
96,note_on,0,47,--,64,0
97,pitchwheel,0,--,2457,--,0
98,note_off,0,47,--,64,160
99,note_on,0,52,--,64,0
100,pitchwheel,0,--,2457,--,0
101,note_off,0,52,--,64,320
102,note_on,0,53,--,64,0
103,pitchwheel,0,--,2457,--,0
104,note_off,0,53,--,64,320
105,note_on,0,48,--,64,0
106,pitchwheel,0,--,819,--,0
107,note_off,0,48,--,64,160
108,note_on,0,47,--,64,0
109,pitchwheel,0,--,2047,--,0
110,note_off,0,47,--,64,160
111,note_on,0,48,--,64,0
112,pitchwheel,0,--,2047,--,0
113,note_off,0,48,--,64,320
114,note_on,0,53,--,64,0
115,note_off,0,53,--,64,320
116,note_on,0,48,--,64,0
117,pitchwheel,0,--,3276,--,0
118,note_off,0,48,--,64,160
119,note_on,0,50,--,64,0
120,pitchwheel,0,--,819,--,0
121,note_off,0,50,--,64,160
122,note_on,0,48,--,64,0
123,pitchwheel,0,--,2047,--,0
124,note_off,0,48,--,64,320
125,note_on,0,51,--,64,0
126,pitchwheel,0,--,819,--,0
127,note_off,0,51,--,64,320
128,note_on,0,45,--,64,0
129,pitchwheel,0,--,1638,--,0
130,note_off,0,45,--,64,160
131,note_on,0,45,--,64,0
132,pitchwheel,0,--,3276,--,0
133,note_off,0,45,--,64,480
134,note_on,0,46,--,64,0
135,note_off,0,46,--,64,480
136,note_on,0,50,--,64,0
137,note_off,0,50,--,64,480
138,note_on,0,46,--,64,0
139,note_off,0,46,--,64,480
140,note_on,0,50,--,64,0
141,pitchwheel,0,--,2457,--,0
142,note_off,0,50,--,64,160
143,note_on,0,47,--,64,0
144,pitchwheel,0,--,2047,--,0
145,note_off,0,47,--,64,320
146,note_on,0,45,--,64,0
147,note_off,0,45,--,64,320
148,note_on,0,41,--,64,0
149,note_off,0,41,--,64,160
150,note_on,0,40,--,64,0
151,pitchwheel,0,--,2457,--,0
152,note_off,0,40,--,64,160
153,note_on,0,40,--,64,0
154,pitchwheel,0,--,2866,--,0
155,note_off,0,40,--,64,320
156,note_on,0,41,--,64,0
157,pitchwheel,0,--,2457,--,0
158,note_off,0,41,--,64,320
159,note_on,0,45,--,64,0
160,pitchwheel,0,--,1638,--,0
161,note_off,0,45,--,64,160
162,note_on,0,48,--,64,0
163,pitchwheel,0,--,819,--,0
164,note_off,0,48,--,64,160
165,note_on,0,45,--,64,0
166,pitchwheel,0,--,2047,--,0
167,note_off,0,45,--,64,320
168,note_on,0,45,--,64,0
169,note_off,0,45,--,64,320
170,note_on,0,45,--,64,0
171,pitchwheel,0,--,3276,--,0
172,note_off,0,45,--,64,320
173,note_on,0,40,--,64,0
174,pitchwheel,0,--,2457,--,0
175,note_off,0,40,--,64,320
176,note_on,0,36,--,64,0
177,pitchwheel,0,--,3276,--,0
178,note_off,0,36,--,64,480
179,note_on,0,36,--,64,0
180,pitchwheel,0,--,2047,--,0
181,note_off,0,36,--,64,160
182,note_on,0,38,--,64,0
183,note_off,0,38,--,64,320
184,note_on,0,43,--,64,0
185,pitchwheel,0,--,1638,--,0
186,note_off,0,43,--,64,320
187,note_on,0,43,--,64,0
188,pitchwheel,0,--,409,--,0
189,note_off,0,43,--,64,160
190,note_on,0,45,--,64,0
191,pitchwheel,0,--,1638,--,0
192,note_off,0,45,--,64,160
193,note_on,0,41,--,64,0
194,note_off,0,41,--,64,320
195,note_on,0,38,--,64,0
196,pitchwheel,0,--,2457,--,0
197,note_off,0,38,--,64,320
198,note_on,0,38,--,64,0
199,pitchwheel,0,--,819,--,0
200,note_off,0,38,--,64,320
201,note_on,0,46,--,64,0
202,pitchwheel,0,--,1638,--,0
203,note_off,0,46,--,64,320
204,note_on,0,46,--,64,0
205,note_off,0,46,--,64,320
206,note_on,0,41,--,64,0
207,pitchwheel,0,--,1228,--,0
208,note_off,0,41,--,64,320
209,note_on,0,41,--,64,0
210,note_off,0,41,--,64,320
211,note_on,0,41,--,64,0
212,pitchwheel,0,--,2457,--,0
213,note_off,0,41,--,64,320
214,note_on,0,38,--,64,0
215,pitchwheel,0,--,3685,--,0
216,note_off,0,38,--,64,320
217,note_on,0,36,--,64,0
218,pitchwheel,0,--,819,--,0
219,note_off,0,36,--,64,320
220,note_on,0,47,--,64,0
221,pitchwheel,0,--,2047,--,0
222,note_off,0,47,--,64,480
223,note_on,0,43,--,64,0
224,note_off,0,43,--,64,160
225,note_on,0,47,--,64,0
226,pitchwheel,0,--,3685,--,0
227,note_off,0,47,--,64,320
228,note_on,0,41,--,64,0
229,note_off,0,41,--,64,480
230,note_on,0,40,--,64,0
231,pitchwheel,0,--,2866,--,0
232,note_off,0,40,--,64,160
233,note_on,0,36,--,64,0
234,pitchwheel,0,--,3276,--,0
235,note_off,0,36,--,64,320
236,note_on,0,38,--,64,0
237,pitchwheel,0,--,819,--,0
238,note_off,0,38,--,64,320
239,note_on,0,36,--,64,0
240,pitchwheel,0,--,2047,--,0
241,note_off,0,36,--,64,160
242,note_on,0,45,--,64,0
243,pitchwheel,0,--,1638,--,0
244,note_off,0,45,--,64,160
245,note_on,0,47,--,64,0
246,pitchwheel,0,--,3276,--,0
247,note_off,0,47,--,64,320
248,note_on,0,45,--,64,0
249,pitchwheel,0,--,2047,--,0
250,note_off,0,45,--,64,320
251,note_on,0,45,--,64,0
252,note_off,0,45,--,64,320
253,note_on,0,45,--,64,0
254,pitchwheel,0,--,1638,--,0
255,note_off,0,45,--,64,320
256,note_on,0,45,--,64,0
257,pitchwheel,0,--,3276,--,0
258,note_off,0,45,--,64,320
259,note_on,0,45,--,64,0
260,pitchwheel,0,--,1638,--,0
261,note_off,0,45,--,64,160
262,note_on,0,40,--,64,0
263,pitchwheel,0,--,2457,--,0
264,note_off,0,40,--,64,480
265,note_on,0,40,--,64,0
266,note_off,0,40,--,64,320
267,note_on,0,45,--,64,0
268,pitchwheel,0,--,1638,--,0
269,note_off,0,45,--,64,320
270,note_on,0,46,--,64,0
271,note_off,0,46,--,64,320
272,note_on,0,43,--,64,0
273,pitchwheel,0,--,2866,--,0
274,note_off,0,43,--,64,320
275,note_on,0,43,--,64,0
276,pitchwheel,0,--,1638,--,0
277,note_off,0,43,--,64,320
278,note_on,0,47,--,64,0
279,pitchwheel,0,--,3276,--,0
280,note_off,0,47,--,64,320
281,note_on,0,47,--,64,0
282,pitchwheel,0,--,3685,--,0
283,note_off,0,47,--,64,320
284,note_on,0,45,--,64,0
285,note_off,0,45,--,64,160
286,note_on,0,41,--,64,0
287,note_off,0,41,--,64,480
288,note_on,0,43,--,64,0
289,note_off,0,43,--,64,480
290,note_on,0,38,--,64,0
291,pitchwheel,0,--,819,--,0
292,note_off,0,38,--,64,480
293,note_on,0,43,--,64,0
294,note_off,0,43,--,64,320
295,note_on,0,46,--,64,0
296,pitchwheel,0,--,409,--,0
297,note_off,0,46,--,64,160
298,note_on,0,45,--,64,0
299,pitchwheel,0,--,2047,--,0
300,note_off,0,45,--,64,160
301,note_on,0,41,--,64,0
302,note_off,0,41,--,64,320
303,note_on,0,41,--,64,0
304,pitchwheel,0,--,1228,--,0
305,note_off,0,41,--,64,320
306,note_on,0,40,--,64,0
307,pitchwheel,0,--,2866,--,0
308,note_off,0,40,--,64,160
309,note_on,0,41,--,64,0
310,note_off,0,41,--,64,160
311,note_on,0,40,--,64,0
312,pitchwheel,0,--,2457,--,0
313,note_off,0,40,--,64,320
314,note_on,0,41,--,64,0
315,pitchwheel,0,--,2457,--,0
316,note_off,0,41,--,64,320
317,note_on,0,38,--,64,0
318,pitchwheel,0,--,3685,--,0
319,note_off,0,38,--,64,320
320,note_on,0,45,--,64,0
321,pitchwheel,0,--,1638,--,0
322,note_off,0,45,--,64,320
323,note_on,0,36,--,64,0
324,pitchwheel,0,--,2047,--,0
325,note_off,0,36,--,64,320
326,note_on,0,39,--,64,0
327,pitchwheel,0,--,819,--,0
328,note_off,0,39,--,64,160
329,note_on,0,47,--,64,0
330,pitchwheel,0,--,3276,--,0
331,note_off,0,47,--,64,160
332,note_on,0,38,--,64,0
333,pitchwheel,0,--,2457,--,0
334,note_off,0,38,--,64,320
335,note_on,0,45,--,64,0
336,note_off,0,45,--,64,320
337,note_on,0,47,--,64,0
338,pitchwheel,0,--,2457,--,0
339,note_off,0,47,--,64,160
340,note_on,0,47,--,64,0
341,pitchwheel,0,--,3685,--,0
342,note_off,0,47,--,64,160
343,note_on,0,36,--,64,0
344,pitchwheel,0,--,3276,--,0
345,note_off,0,36,--,64,320
346,note_on,0,36,--,64,0
347,pitchwheel,0,--,2047,--,0
348,note_off,0,36,--,64,320
349,note_on,0,36,--,64,0
350,pitchwheel,0,--,819,--,0
351,note_off,0,36,--,64,320
352,note_on,0,36,--,64,0
353,pitchwheel,0,--,3276,--,0
354,note_off,0,36,--,64,320
355,note_on,0,38,--,64,0
356,pitchwheel,0,--,2457,--,0
357,note_off,0,38,--,64,160
358,note_on,0,41,--,64,0
359,note_off,0,41,--,64,480
360,note_on,0,36,--,64,0
361,pitchwheel,0,--,2047,--,0
362,note_off,0,36,--,64,320
363,note_on,0,36,--,64,0
364,pitchwheel,0,--,3276,--,0
365,note_off,0,36,--,64,160
366,note_on,0,47,--,64,0
367,pitchwheel,0,--,3276,--,0
368,note_off,0,47,--,64,160
369,note_on,0,47,--,64,0
370,pitchwheel,0,--,2047,--,0
371,note_off,0,47,--,64,320
372,note_on,0,46,--,64,0
373,note_off,0,46,--,64,480
374,note_on,0,45,--,64,0
375,note_off,0,45,--,64,160
376,note_on,0,45,--,64,0
377,pitchwheel,0,--,2047,--,0
378,note_off,0,45,--,64,320
379,note_on,0,45,--,64,0
380,pitchwheel,0,--,1638,--,0
381,note_off,0,45,--,64,320
382,note_on,0,37,--,64,0
383,note_off,0,37,--,64,320
384,note_on,0,38,--,64,0
385,pitchwheel,0,--,819,--,0
386,note_off,0,38,--,64,320
387,note_on,0,38,--,64,0
388,pitchwheel,0,--,2457,--,0
389,note_off,0,38,--,64,320
390,note_on,0,43,--,64,0
391,pitchwheel,0,--,2866,--,0
392,note_off,0,43,--,64,320
393,note_on,0,43,--,64,0
394,pitchwheel,0,--,1638,--,0
395,note_off,0,43,--,64,320
396,note_on,0,40,--,64,0
397,note_off,0,40,--,64,320
398,note_on,0,47,--,64,0
399,pitchwheel,0,--,2457,--,0
400,note_off,0,47,--,64,160
401,note_on,0,45,--,64,0
402,pitchwheel,0,--,1638,--,0
403,note_off,0,45,--,64,160
404,note_on,0,45,--,64,0
405,note_off,0,45,--,64,320
406,note_on,0,45,--,64,0
407,pitchwheel,0,--,2047,--,0
408,note_off,0,45,--,64,320
409,note_on,0,40,--,64,0
410,pitchwheel,0,--,2457,--,0
411,note_off,0,40,--,64,160
412,note_on,0,43,--,64,0
413,pitchwheel,0,--,2866,--,0
414,note_off,0,43,--,64,480
415,note_on,0,43,--,64,0
416,pitchwheel,0,--,1638,--,0
417,note_off,0,43,--,64,320
418,note_on,0,41,--,64,0
419,note_off,0,41,--,64,160
420,note_on,0,47,--,64,0
421,pitchwheel,0,--,3276,--,0
422,note_off,0,47,--,64,160
423,note_on,0,45,--,64,0
424,pitchwheel,0,--,2047,--,0
425,note_off,0,45,--,64,320
426,note_on,0,47,--,64,0
427,pitchwheel,0,--,3685,--,0
428,note_off,0,47,--,64,320
429,note_on,0,45,--,64,0
430,pitchwheel,0,--,3276,--,0
431,note_off,0,45,--,64,160
432,note_on,0,45,--,64,0
433,note_off,0,45,--,64,160
434,note_on,0,38,--,64,0
435,pitchwheel,0,--,3685,--,0
436,note_off,0,38,--,64,320
437,note_on,0,43,--,64,0
438,note_off,0,43,--,64,320
439,note_on,0,44,--,64,0
440,note_off,0,44,--,64,160
441,note_on,0,43,--,64,0
442,note_off,0,43,--,64,160
443,note_on,0,38,--,64,0
444,pitchwheel,0,--,3685,--,0
445,note_off,0,38,--,64,320
446,note_on,0,47,--,64,0
447,pitchwheel,0,--,3276,--,0
448,note_off,0,47,--,64,320
449,note_on,0,43,--,64,0
450,pitchwheel,0,--,409,--,0
451,note_off,0,43,--,64,320
452,note_on,0,44,--,64,0
453,note_off,0,44,--,64,320
454,note_on,0,43,--,64,0
455,note_off,0,43,--,64,320
456,note_on,0,47,--,64,0
457,pitchwheel,0,--,3685,--,0
458,note_off,0,47,--,64,160
459,note_on,0,46,--,64,0
460,pitchwheel,0,--,409,--,0
461,note_off,0,46,--,64,160
462,note_on,0,38,--,64,0
463,note_off,0,38,--,64,320
464,note_on,0,36,--,64,0
465,pitchwheel,0,--,819,--,0
466,note_off,0,36,--,64,320
467,note_on,0,36,--,64,0
468,pitchwheel,0,--,2047,--,0
469,note_off,0,36,--,64,160
470,note_on,0,47,--,64,0
471,pitchwheel,0,--,2047,--,0
472,note_off,0,47,--,64,160
473,note_on,0,36,--,64,0
474,pitchwheel,0,--,819,--,0
475,note_off,0,36,--,64,320
476,note_on,0,40,--,64,0
477,pitchwheel,0,--,2866,--,0
478,note_off,0,40,--,64,320
479,note_on,0,36,--,64,0
480,pitchwheel,0,--,3276,--,0
481,note_off,0,36,--,64,160
482,note_on,0,40,--,64,0
483,pitchwheel,0,--,2457,--,0
484,note_off,0,40,--,64,160
485,note_on,0,40,--,64,0
486,pitchwheel,0,--,1638,--,0
487,note_off,0,40,--,64,320
488,note_on,0,41,--,64,0
489,note_off,0,41,--,64,320
490,note_on,0,45,--,64,0
491,pitchwheel,0,--,1638,--,0
492,note_off,0,45,--,64,160
493,note_on,0,50,--,64,0
494,pitchwheel,0,--,3685,--,0
495,note_off,0,50,--,64,160
496,note_on,0,56,--,64,0
497,note_off,0,56,--,64,320
498,note_on,0,57,--,64,0
499,pitchwheel,0,--,1638,--,0
500,note_off,0,57,--,64,320
501,note_on,0,59,--,64,0
502,pitchwheel,0,--,3276,--,0
503,note_off,0,59,--,64,160
504,note_on,0,48,--,64,0
505,pitchwheel,0,--,2047,--,0
506,note_off,0,48,--,64,480
507,note_on,0,51,--,64,0
508,pitchwheel,0,--,819,--,0
509,note_off,0,51,--,64,480
510,note_on,0,50,--,64,0
511,pitchwheel,0,--,2457,--,0
512,note_off,0,50,--,64,160
513,note_on,0,47,--,64,0
514,pitchwheel,0,--,2047,--,0
515,note_off,0,47,--,64,320
516,note_on,0,47,--,64,0
517,pitchwheel,0,--,3276,--,0
518,note_off,0,47,--,64,320
519,note_on,0,46,--,64,0
520,note_off,0,46,--,64,160
521,note_on,0,47,--,64,0
522,pitchwheel,0,--,2457,--,0
523,note_off,0,47,--,64,160
524,note_on,0,45,--,64,0
525,pitchwheel,0,--,2047,--,0
526,note_off,0,45,--,64,320
527,note_on,0,45,--,64,0
528,pitchwheel,0,--,3276,--,0
529,note_off,0,45,--,64,320
530,note_on,0,40,--,64,0
531,pitchwheel,0,--,2457,--,0
532,note_off,0,40,--,64,160
533,note_on,0,36,--,64,0
534,pitchwheel,0,--,2047,--,0
535,note_off,0,36,--,64,160
536,note_on,0,41,--,64,0
537,pitchwheel,0,--,2457,--,0
538,note_off,0,41,--,64,320
539,note_on,0,45,--,64,0
540,note_off,0,45,--,64,480
541,note_on,0,50,--,64,0
542,pitchwheel,0,--,819,--,0
543,note_off,0,50,--,64,320
544,note_on,0,51,--,64,0
545,pitchwheel,0,--,819,--,0
546,note_off,0,51,--,64,480
547,note_on,0,50,--,64,0
548,pitchwheel,0,--,2457,--,0
549,note_off,0,50,--,64,160
550,note_on,0,48,--,64,0
551,pitchwheel,0,--,819,--,0
552,note_off,0,48,--,64,320
553,note_on,0,45,--,64,0
554,pitchwheel,0,--,2047,--,0
555,note_off,0,45,--,64,320
556,note_on,0,46,--,64,0
557,note_off,0,46,--,64,160
558,note_on,0,47,--,64,0
559,pitchwheel,0,--,3276,--,0
560,note_off,0,47,--,64,160
561,note_on,0,44,--,64,0
562,pitchwheel,0,--,2047,--,0
563,note_off,0,44,--,64,320
564,note_on,0,43,--,64,0
565,pitchwheel,0,--,2866,--,0
566,note_off,0,43,--,64,320
567,note_on,0,40,--,64,0
568,pitchwheel,0,--,2457,--,0
569,note_off,0,40,--,64,160
570,note_on,0,47,--,64,0
571,pitchwheel,0,--,2047,--,0
572,note_off,0,47,--,64,160
573,note_on,0,36,--,64,0
574,pitchwheel,0,--,3276,--,0
575,note_off,0,36,--,64,320
576,note_on,0,38,--,64,0
577,pitchwheel,0,--,1228,--,0
578,note_off,0,38,--,64,320
579,note_on,0,36,--,64,0
580,pitchwheel,0,--,2047,--,0
581,note_off,0,36,--,64,320
582,note_on,0,47,--,64,0
583,pitchwheel,0,--,3685,--,0
584,note_off,0,47,--,64,320
585,note_on,0,45,--,64,0
586,pitchwheel,0,--,2047,--,0
587,note_off,0,45,--,64,320
588,note_on,0,38,--,64,0
589,note_off,0,38,--,64,320
590,note_on,0,45,--,64,0
591,note_off,0,45,--,64,320
592,note_on,0,43,--,64,0
593,note_off,0,43,--,64,320
594,note_on,0,46,--,64,0
595,pitchwheel,0,--,1638,--,0
596,note_off,0,46,--,64,160
597,note_on,0,38,--,64,0
598,pitchwheel,0,--,819,--,0
599,note_off,0,38,--,64,160
600,note_on,0,40,--,64,0
601,pitchwheel,0,--,2866,--,0
602,note_off,0,40,--,64,320
603,note_on,0,38,--,64,0
604,pitchwheel,0,--,2457,--,0
605,note_off,0,38,--,64,480
606,note_on,0,43,--,64,0
607,pitchwheel,0,--,2866,--,0
608,note_off,0,43,--,64,160
609,note_on,0,43,--,64,0
610,note_off,0,43,--,64,320
611,note_on,0,43,--,64,0
612,pitchwheel,0,--,1638,--,0
613,note_off,0,43,--,64,480
614,note_on,0,38,--,64,0
615,pitchwheel,0,--,819,--,0
616,note_off,0,38,--,64,160
617,note_on,0,45,--,64,0
618,pitchwheel,0,--,1638,--,0
619,note_off,0,45,--,64,320
620,note_on,0,44,--,64,0
621,note_off,0,44,--,64,320
622,note_on,0,36,--,64,0
623,pitchwheel,0,--,2047,--,0
624,note_off,0,36,--,64,160
625,note_on,0,45,--,64,0
626,note_off,0,45,--,64,160
627,note_on,0,46,--,64,0
628,pitchwheel,0,--,409,--,0
629,note_off,0,46,--,64,320
630,note_on,0,45,--,64,0
631,pitchwheel,0,--,2047,--,0
632,note_off,0,45,--,64,320
633,note_on,0,43,--,64,0
634,pitchwheel,0,--,409,--,0
635,note_off,0,43,--,64,160
636,note_on,0,40,--,64,0
637,pitchwheel,0,--,2457,--,0
638,note_off,0,40,--,64,480
639,note_on,0,44,--,64,0
640,pitchwheel,0,--,2047,--,0
641,note_off,0,44,--,64,320
642,note_on,0,47,--,64,0
643,pitchwheel,0,--,3276,--,0
644,note_off,0,47,--,64,320
645,note_on,0,46,--,64,0
646,pitchwheel,0,--,1638,--,0
647,note_off,0,46,--,64,320
648,note_on,0,36,--,64,0
649,pitchwheel,0,--,819,--,0
650,note_off,0,36,--,64,320
651,note_on,0,47,--,64,0
652,pitchwheel,0,--,3685,--,0
653,note_off,0,47,--,64,160
654,note_on,0,45,--,64,0
655,pitchwheel,0,--,2047,--,0
656,note_off,0,45,--,64,160
657,note_on,0,45,--,64,0
658,pitchwheel,0,--,1638,--,0
659,note_off,0,45,--,64,320
660,note_on,0,45,--,64,0
661,pitchwheel,0,--,2047,--,0
662,note_off,0,45,--,64,320
663,note_on,0,45,--,64,0
664,note_off,0,45,--,64,160
665,note_on,0,45,--,64,0
666,pitchwheel,0,--,3276,--,0
667,note_off,0,45,--,64,160
668,note_on,0,38,--,64,0
669,pitchwheel,0,--,3685,--,0
670,note_off,0,38,--,64,640
671,note_on,0,36,--,64,0
672,pitchwheel,0,--,3276,--,0
673,note_off,0,36,--,64,160
674,note_on,0,43,--,64,0
675,note_off,0,43,--,64,480
676,note_on,0,44,--,64,0
677,note_off,0,44,--,64,320
678,note_on,0,47,--,64,0
679,pitchwheel,0,--,2457,--,0
680,note_off,0,47,--,64,160
681,note_on,0,50,--,64,0
682,pitchwheel,0,--,3685,--,0
683,note_off,0,50,--,64,160
684,note_on,0,45,--,64,0
685,pitchwheel,0,--,2047,--,0
686,note_off,0,45,--,64,320
687,note_on,0,47,--,64,0
688,pitchwheel,0,--,3276,--,0
689,note_off,0,47,--,64,320
690,note_on,0,50,--,64,0
691,pitchwheel,0,--,2457,--,0
692,note_off,0,50,--,64,160
693,note_on,0,55,--,64,0
694,pitchwheel,0,--,409,--,0
695,note_off,0,55,--,64,160
696,note_on,0,52,--,64,0
697,pitchwheel,0,--,2457,--,0
698,note_off,0,52,--,64,320
699,note_on,0,51,--,64,0
700,pitchwheel,0,--,819,--,0
701,note_off,0,51,--,64,320
702,note_on,0,55,--,64,0
703,pitchwheel,0,--,1638,--,0
704,note_off,0,55,--,64,160
705,note_on,0,53,--,64,0
706,note_off,0,53,--,64,160
707,note_on,0,58,--,64,0
708,note_off,0,58,--,64,320
709,note_on,0,59,--,64,0
710,pitchwheel,0,--,3685,--,0
711,note_off,0,59,--,64,320
712,note_on,0,48,--,64,0
713,pitchwheel,0,--,3276,--,0
714,note_off,0,48,--,64,160
715,note_on,0,50,--,64,0
716,note_off,0,50,--,64,160
717,note_on,0,50,--,64,0
718,pitchwheel,0,--,2457,--,0
719,note_off,0,50,--,64,320
720,note_on,0,48,--,64,0
721,pitchwheel,0,--,2047,--,0
722,note_off,0,48,--,64,320
723,note_on,0,43,--,64,0
724,note_off,0,43,--,64,160
725,note_on,0,48,--,64,0
726,pitchwheel,0,--,2047,--,0
727,note_off,0,48,--,64,160
728,note_on,0,48,--,64,0
729,pitchwheel,0,--,819,--,0
730,note_off,0,48,--,64,320
731,note_on,0,53,--,64,0
732,note_off,0,53,--,64,320
733,note_on,0,52,--,64,0
734,pitchwheel,0,--,2866,--,0
735,note_off,0,52,--,64,320
736,note_on,0,49,--,64,0
737,note_off,0,49,--,64,320
738,note_on,0,53,--,64,0
739,note_off,0,53,--,64,160
740,note_on,0,52,--,64,0
741,pitchwheel,0,--,1638,--,0
742,note_off,0,52,--,64,160
743,note_on,0,50,--,64,0
744,pitchwheel,0,--,2457,--,0
745,note_off,0,50,--,64,320
746,note_on,0,50,--,64,0
747,pitchwheel,0,--,819,--,0
748,note_off,0,50,--,64,320
749,note_on,0,53,--,64,0
750,pitchwheel,0,--,2457,--,0
751,note_off,0,53,--,64,160
752,note_on,0,57,--,64,0
753,pitchwheel,0,--,1638,--,0
754,note_off,0,57,--,64,480
755,note_on,0,56,--,64,0
756,note_off,0,56,--,64,480
757,note_on,0,50,--,64,0
758,pitchwheel,0,--,2457,--,0
759,note_off,0,50,--,64,160
760,note_on,0,48,--,64,0
761,pitchwheel,0,--,3276,--,0
762,note_off,0,48,--,64,320
763,note_on,0,47,--,64,0
764,pitchwheel,0,--,3276,--,0
765,note_off,0,47,--,64,320
766,note_on,0,47,--,64,0
767,pitchwheel,0,--,2047,--,0
768,note_off,0,47,--,64,320
769,note_on,0,52,--,64,0
770,pitchwheel,0,--,2457,--,0
771,note_off,0,52,--,64,320
772,note_on,0,51,--,64,0
773,pitchwheel,0,--,819,--,0
774,note_off,0,51,--,64,320
775,note_on,0,48,--,64,0
776,pitchwheel,0,--,819,--,0
777,note_off,0,48,--,64,320
778,note_on,0,47,--,64,0
779,pitchwheel,0,--,3685,--,0
780,note_off,0,47,--,64,320
781,note_on,0,47,--,64,0
782,pitchwheel,0,--,2047,--,0
783,note_off,0,47,--,64,320
784,note_on,0,45,--,64,0
785,pitchwheel,0,--,2047,--,0
786,note_off,0,45,--,64,160
787,note_on,0,47,--,64,0
788,pitchwheel,0,--,3276,--,0
789,note_off,0,47,--,64,160
790,note_on,0,45,--,64,0
791,note_off,0,45,--,64,320
792,note_on,0,46,--,64,0
793,note_off,0,46,--,64,320
794,note_on,0,43,--,64,0
795,note_off,0,43,--,64,160
796,note_on,0,45,--,64,0
797,pitchwheel,0,--,2047,--,0
798,note_off,0,45,--,64,160
799,note_on,0,41,--,64,0
800,note_off,0,41,--,64,320
801,note_on,0,45,--,64,0
802,pitchwheel,0,--,3276,--,0
803,note_off,0,45,--,64,320
804,note_on,0,45,--,64,0
805,pitchwheel,0,--,2047,--,0
806,note_off,0,45,--,64,160
807,note_on,0,40,--,64,0
808,pitchwheel,0,--,2457,--,0
809,note_off,0,40,--,64,160
810,note_on,0,47,--,64,0
811,pitchwheel,0,--,2457,--,0
812,note_off,0,47,--,64,320
813,note_on,0,38,--,64,0
814,pitchwheel,0,--,2457,--,0
815,note_off,0,38,--,64,320
816,note_on,0,40,--,64,0
817,pitchwheel,0,--,2866,--,0
818,note_off,0,40,--,64,160
819,note_on,0,45,--,64,0
820,note_off,0,45,--,64,160
821,note_on,0,43,--,64,0
822,pitchwheel,0,--,2866,--,0
823,note_off,0,43,--,64,320
824,note_on,0,45,--,64,0
825,pitchwheel,0,--,1638,--,0
826,note_off,0,45,--,64,320
827,note_on,0,46,--,64,0
828,pitchwheel,0,--,1638,--,0
829,note_off,0,46,--,64,160
830,note_on,0,50,--,64,0
831,pitchwheel,0,--,819,--,0
832,note_off,0,50,--,64,160
833,note_on,0,55,--,64,0
834,pitchwheel,0,--,1638,--,0
835,note_off,0,55,--,64,320
836,note_on,0,53,--,64,0
837,note_off,0,53,--,64,320
838,note_on,0,50,--,64,0
839,note_off,0,50,--,64,320
840,note_on,0,47,--,64,0
841,pitchwheel,0,--,2457,--,0
842,note_off,0,47,--,64,320
843,note_on,0,48,--,64,0
844,pitchwheel,0,--,819,--,0
845,note_off,0,48,--,64,320
846,note_on,0,45,--,64,0
847,note_off,0,45,--,64,160
848,note_on,0,45,--,64,0
849,pitchwheel,0,--,2047,--,0
850,note_off,0,45,--,64,160
851,note_on,0,47,--,64,0
852,pitchwheel,0,--,3276,--,0
853,note_off,0,47,--,64,320
854,note_on,0,46,--,64,0
855,note_off,0,46,--,64,320
856,note_on,0,41,--,64,0
857,note_off,0,41,--,64,160
858,note_on,0,44,--,64,0
859,pitchwheel,0,--,2047,--,0
860,note_off,0,44,--,64,160
861,note_on,0,40,--,64,0
862,pitchwheel,0,--,2457,--,0
863,note_off,0,40,--,64,320
864,note_on,0,43,--,64,0
865,pitchwheel,0,--,2866,--,0
866,note_off,0,43,--,64,320
867,note_on,0,40,--,64,0
868,pitchwheel,0,--,2457,--,0
869,note_off,0,40,--,64,320
870,note_on,0,36,--,64,0
871,pitchwheel,0,--,2047,--,0
872,note_off,0,36,--,64,320
873,note_on,0,36,--,64,0
874,pitchwheel,0,--,3276,--,0
875,note_off,0,36,--,64,320
876,note_on,0,47,--,64,0
877,pitchwheel,0,--,3276,--,0
878,note_off,0,47,--,64,160
879,note_on,0,38,--,64,0
880,pitchwheel,0,--,1228,--,0
881,note_off,0,38,--,64,160
882,note_on,0,39,--,64,0
883,pitchwheel,0,--,819,--,0
884,note_off,0,39,--,64,320
885,note_on,0,36,--,64,0
886,pitchwheel,0,--,2047,--,0
887,note_off,0,36,--,64,320
888,note_on,0,45,--,64,0
889,pitchwheel,0,--,2047,--,0
890,note_off,0,45,--,64,160
891,note_on,0,47,--,64,0
892,pitchwheel,0,--,3685,--,0
893,note_off,0,47,--,64,800
894,note_on,0,38,--,64,0
895,note_off,0,38,--,64,160
896,note_on,0,45,--,64,0
897,pitchwheel,0,--,3276,--,0
898,note_off,0,45,--,64,320
899,note_on,0,45,--,64,0
900,note_off,0,45,--,64,320
901,note_on,0,38,--,64,0
902,pitchwheel,0,--,3685,--,0
903,note_off,0,38,--,64,160
904,note_on,0,43,--,64,0
905,note_off,0,43,--,64,160
906,note_on,0,45,--,64,0
907,pitchwheel,0,--,3276,--,0
908,note_off,0,45,--,64,320
909,note_on,0,45,--,64,0
910,pitchwheel,0,--,2047,--,0
911,note_off,0,45,--,64,320
912,note_on,0,40,--,64,0
913,pitchwheel,0,--,2457,--,0
914,note_off,0,40,--,64,160
915,note_on,0,40,--,64,0
916,pitchwheel,0,--,2866,--,0
917,note_off,0,40,--,64,160
918,note_on,0,36,--,64,0
919,pitchwheel,0,--,819,--,0
920,note_off,0,36,--,64,320
921,note_on,0,43,--,64,0
922,note_off,0,43,--,64,320
923,note_on,0,38,--,64,0
924,pitchwheel,0,--,3685,--,0
925,note_off,0,38,--,64,320
926,note_on,0,40,--,64,0
927,pitchwheel,0,--,2457,--,0
928,note_off,0,40,--,64,320
929,note_on,0,43,--,64,0
930,note_off,0,43,--,64,480
931,note_on,0,41,--,64,0
932,note_off,0,41,--,64,160
933,note_on,0,43,--,64,0
934,pitchwheel,0,--,409,--,0
935,note_off,0,43,--,64,320
936,note_on,0,43,--,64,0
937,pitchwheel,0,--,1638,--,0
938,note_off,0,43,--,64,320
939,note_on,0,44,--,64,0
940,note_off,0,44,--,64,160
941,note_on,0,45,--,64,0
942,pitchwheel,0,--,1638,--,0
943,note_off,0,45,--,64,160
944,note_on,0,47,--,64,0
945,pitchwheel,0,--,2047,--,0
946,note_off,0,47,--,64,320
947,note_on,0,44,--,64,0
948,note_off,0,44,--,64,320
949,note_on,0,43,--,64,0
950,note_off,0,43,--,64,160
951,note_on,0,36,--,64,0
952,pitchwheel,0,--,2047,--,0
953,note_off,0,36,--,64,160
954,note_on,0,46,--,64,0
955,pitchwheel,0,--,1638,--,0
956,note_off,0,46,--,64,320
957,note_on,0,46,--,64,0
958,pitchwheel,0,--,409,--,0
959,note_off,0,46,--,64,320
960,note_on,0,43,--,64,0
961,pitchwheel,0,--,1638,--,0
962,note_off,0,43,--,64,320
963,note_on,0,41,--,64,0
964,note_off,0,41,--,64,320
965,note_on,0,43,--,64,0
966,pitchwheel,0,--,409,--,0
967,note_off,0,43,--,64,320
968,note_on,0,38,--,64,0
969,pitchwheel,0,--,3685,--,0
970,note_off,0,38,--,64,320
971,note_on,0,36,--,64,0
972,pitchwheel,0,--,2047,--,0
973,note_off,0,36,--,64,320
974,note_on,0,45,--,64,0
975,pitchwheel,0,--,1638,--,0
976,note_off,0,45,--,64,320
977,note_on,0,36,--,64,0
978,pitchwheel,0,--,819,--,0
979,note_off,0,36,--,64,160
980,note_on,0,47,--,64,0
981,pitchwheel,0,--,3276,--,0
982,note_off,0,47,--,64,160
983,note_on,0,38,--,64,0
984,pitchwheel,0,--,2457,--,0
985,note_off,0,38,--,64,320
986,note_on,0,38,--,64,0
987,pitchwheel,0,--,1228,--,0
988,note_off,0,38,--,64,480
989,note_on,0,36,--,64,0
990,pitchwheel,0,--,819,--,0
991,note_off,0,36,--,64,160
992,note_on,0,45,--,64,0
993,pitchwheel,0,--,2047,--,0
994,note_off,0,45,--,64,320
995,note_on,0,47,--,64,0
996,pitchwheel,0,--,3685,--,0
997,note_off,0,47,--,64,320
998,note_on,0,40,--,64,0
999,pitchwheel,0,--,1638,--,0
1000,note_off,0,40,--,64,160
1001,note_on,0,45,--,64,0
1002,pitchwheel,0,--,1638,--,0
1003,note_off,0,45,--,64,160
1004,note_on,0,43,--,64,0
1005,note_off,0,43,--,64,320
1006,note_on,0,41,--,64,0
1007,note_off,0,41,--,64,320
1008,note_on,0,37,--,64,0
1009,note_off,0,37,--,64,160
1010,note_on,0,45,--,64,0
1011,note_off,0,45,--,64,160
1012,note_on,0,46,--,64,0
1013,note_off,0,46,--,64,320
1014,note_on,0,38,--,64,0
1015,pitchwheel,0,--,3685,--,0
1016,note_off,0,38,--,64,320
1017,note_on,0,44,--,64,0
1018,note_off,0,44,--,64,160
1019,note_on,0,38,--,64,0
1020,pitchwheel,0,--,819,--,0
1021,note_off,0,38,--,64,480
1022,note_on,0,36,--,64,0
1023,pitchwheel,0,--,3276,--,0
1024,note_off,0,36,--,64,320
1025,note_on,0,40,--,64,0
1026,pitchwheel,0,--,2457,--,0
1027,note_off,0,40,--,64,320
1028,note_on,0,39,--,64,0
1029,pitchwheel,0,--,819,--,0
1030,note_off,0,39,--,64,320
1031,note_on,0,45,--,64,0
1032,pitchwheel,0,--,3276,--,0
1033,note_off,0,45,--,64,320
1034,note_on,0,46,--,64,0
1035,pitchwheel,0,--,409,--,0
1036,note_off,0,46,--,64,160
1037,note_on,0,47,--,64,0
1038,pitchwheel,0,--,2457,--,0
1039,note_off,0,47,--,64,160
1040,note_on,0,38,--,64,0
1041,pitchwheel,0,--,819,--,0
1042,note_off,0,38,--,64,320
1043,note_on,0,39,--,64,0
1044,pitchwheel,0,--,819,--,0
1045,note_off,0,39,--,64,320
1046,note_on,0,45,--,64,0
1047,note_off,0,45,--,64,160
1048,note_on,0,40,--,64,0
1049,note_off,0,40,--,64,480
1050,note_on,0,38,--,64,0
1051,pitchwheel,0,--,2457,--,0
1052,note_off,0,38,--,64,320
1053,note_on,0,47,--,64,0
1054,pitchwheel,0,--,2047,--,0
1055,note_off,0,47,--,64,160
1056,note_on,0,40,--,64,0
1057,pitchwheel,0,--,2457,--,0
1058,note_off,0,40,--,64,480
1059,note_on,0,39,--,64,0
1060,pitchwheel,0,--,819,--,0
1061,note_off,0,39,--,64,320
1062,note_on,0,46,--,64,0
1063,pitchwheel,0,--,409,--,0
1064,note_off,0,46,--,64,160
1065,note_on,0,43,--,64,0
1066,pitchwheel,0,--,1638,--,0
1067,note_off,0,43,--,64,160
1068,note_on,0,46,--,64,0
1069,note_off,0,46,--,64,800
1070,note_on,0,38,--,64,0
1071,note_off,0,38,--,64,160
1072,note_on,0,47,--,64,0
1073,pitchwheel,0,--,3276,--,0
1074,note_off,0,47,--,64,320
1075,note_on,0,36,--,64,0
1076,pitchwheel,0,--,3276,--,0
1077,note_off,0,36,--,64,320
1078,note_on,0,38,--,64,0
1079,pitchwheel,0,--,2457,--,0
1080,note_off,0,38,--,64,320
1081,note_on,0,40,--,64,0
1082,pitchwheel,0,--,2457,--,0
1083,note_off,0,40,--,64,320
1084,note_on,0,36,--,64,0
1085,pitchwheel,0,--,2047,--,0
1086,note_off,0,36,--,64,320
1087,note_on,0,41,--,64,0
1088,pitchwheel,0,--,2457,--,0
1089,note_off,0,41,--,64,160
1090,note_on,0,43,--,64,0
1091,note_off,0,43,--,64,160
1092,note_on,0,38,--,64,0
1093,pitchwheel,0,--,2457,--,0
1094,note_off,0,38,--,64,320
1095,note_on,0,36,--,64,0
1096,pitchwheel,0,--,819,--,0
1097,note_off,0,36,--,64,320
1098,note_on,0,45,--,64,0
1099,pitchwheel,0,--,1638,--,0
1100,note_off,0,45,--,64,160
1101,note_on,0,41,--,64,0
1102,note_off,0,41,--,64,160
1103,note_on,0,46,--,64,0
1104,pitchwheel,0,--,1638,--,0
1105,note_off,0,46,--,64,320
1106,note_on,0,41,--,64,0
1107,note_off,0,41,--,64,320
1108,note_on,0,41,--,64,0
1109,pitchwheel,0,--,1228,--,0
1110,note_off,0,41,--,64,320
1111,note_on,0,40,--,64,0
1112,note_off,0,40,--,64,320
1113,note_on,0,38,--,64,0
1114,pitchwheel,0,--,2457,--,0
1115,note_off,0,38,--,64,160
1116,note_on,0,41,--,64,0
1117,note_off,0,41,--,64,480
1118,note_on,0,38,--,64,0
1119,pitchwheel,0,--,2457,--,0
1120,note_off,0,38,--,64,480
1121,note_on,0,38,--,64,0
1122,pitchwheel,0,--,819,--,0
1123,note_off,0,38,--,64,160
1124,note_on,0,38,--,64,0
1125,pitchwheel,0,--,3685,--,0
1126,note_off,0,38,--,64,320
1127,note_on,0,46,--,64,0
1128,note_off,0,46,--,64,480
1129,note_on,0,46,--,64,0
1130,note_off,0,46,--,64,320
1131,note_on,0,47,--,64,0
1132,pitchwheel,0,--,3276,--,0
1133,note_off,0,47,--,64,320
1134,note_on,0,44,--,64,0
1135,pitchwheel,0,--,2047,--,0
1136,note_off,0,44,--,64,320
1137,note_on,0,43,--,64,0
1138,note_off,0,43,--,64,320
1139,note_on,0,43,--,64,0
1140,pitchwheel,0,--,2866,--,0
1141,note_off,0,43,--,64,320
1142,note_on,0,38,--,64,0
1143,pitchwheel,0,--,1228,--,0
1144,note_off,0,38,--,64,320
1145,note_on,0,38,--,64,0
1146,pitchwheel,0,--,2457,--,0
1147,note_off,0,38,--,64,320
1148,note_on,0,47,--,64,0
1149,pitchwheel,0,--,2047,--,0
1150,note_off,0,47,--,64,320
1151,note_on,0,47,--,64,0
1152,pitchwheel,0,--,2457,--,0
1153,note_off,0,47,--,64,160
1154,note_on,0,40,--,64,0
1155,pitchwheel,0,--,2457,--,0
1156,note_off,0,40,--,64,160
1157,note_on,0,45,--,64,0
1158,note_off,0,45,--,64,320
1159,note_on,0,39,--,64,0
1160,pitchwheel,0,--,819,--,0
1161,note_off,0,39,--,64,320
1162,note_on,0,40,--,64,0
1163,pitchwheel,0,--,2457,--,0
1164,note_off,0,40,--,64,160
1165,note_on,0,36,--,64,0
1166,pitchwheel,0,--,819,--,0
1167,note_off,0,36,--,64,160
1168,note_on,0,39,--,64,0
1169,pitchwheel,0,--,819,--,0
1170,note_off,0,39,--,64,320
1171,note_on,0,47,--,64,0
1172,pitchwheel,0,--,3685,--,0
1173,note_off,0,47,--,64,480
1174,note_on,0,43,--,64,0
1175,note_off,0,43,--,64,160
1176,note_on,0,45,--,64,0
1177,pitchwheel,0,--,2047,--,0
1178,note_off,0,45,--,64,640
1179,note_on,0,47,--,64,0
1180,pitchwheel,0,--,3685,--,0
1181,note_off,0,47,--,64,160
1182,note_on,0,45,--,64,0
1183,note_off,0,45,--,64,160
1184,note_on,0,38,--,64,0
1185,note_off,0,38,--,64,320
1186,note_on,0,38,--,64,0
1187,pitchwheel,0,--,819,--,0
1188,note_off,0,38,--,64,320
1189,note_on,0,36,--,64,0
1190,pitchwheel,0,--,3276,--,0
1191,note_off,0,36,--,64,160
1192,note_on,0,43,--,64,0
1193,note_off,0,43,--,64,160
1194,note_on,0,43,--,64,0
1195,pitchwheel,0,--,409,--,0
1196,note_off,0,43,--,64,320
1197,note_on,0,43,--,64,0
1198,note_off,0,43,--,64,320
1199,note_on,0,43,--,64,0
1200,pitchwheel,0,--,409,--,0
1201,note_off,0,43,--,64,320
1202,note_on,0,46,--,64,0
1203,pitchwheel,0,--,1638,--,0
1204,note_off,0,46,--,64,320
1205,note_on,0,45,--,64,0
1206,pitchwheel,0,--,2047,--,0
1207,note_off,0,45,--,64,320
1208,note_on,0,40,--,64,0
1209,pitchwheel,0,--,2866,--,0
1210,note_off,0,40,--,64,160
1211,note_on,0,47,--,64,0
1212,pitchwheel,0,--,2457,--,0
1213,note_off,0,47,--,64,160
1214,note_on,0,47,--,64,0
1215,pitchwheel,0,--,3276,--,0
1216,note_off,0,47,--,64,320
1217,note_on,0,46,--,64,0
1218,pitchwheel,0,--,1638,--,0
1219,note_off,0,46,--,64,320
1220,note_on,0,45,--,64,0
1221,pitchwheel,0,--,2047,--,0
1222,note_off,0,45,--,64,160
1223,note_on,0,40,--,64,0
1224,pitchwheel,0,--,2866,--,0
1225,note_off,0,40,--,64,160
1226,note_on,0,45,--,64,0
1227,pitchwheel,0,--,3276,--,0
1228,note_off,0,45,--,64,320
1229,note_on,0,43,--,64,0
1230,pitchwheel,0,--,2866,--,0
1231,note_off,0,43,--,64,320
1232,note_on,0,44,--,64,0
1233,pitchwheel,0,--,2047,--,0
1234,note_off,0,44,--,64,160
1235,note_on,0,45,--,64,0
1236,pitchwheel,0,--,1638,--,0
1237,note_off,0,45,--,64,160
1238,note_on,0,40,--,64,0
1239,pitchwheel,0,--,1638,--,0
1240,note_off,0,40,--,64,320
1241,note_on,0,41,--,64,0
1242,note_off,0,41,--,64,320
1243,note_on,0,45,--,64,0
1244,pitchwheel,0,--,1638,--,0
1245,note_off,0,45,--,64,160
1246,note_on,0,43,--,64,0
1247,pitchwheel,0,--,1638,--,0
1248,note_off,0,43,--,64,160
1249,note_on,0,44,--,64,0
1250,note_off,0,44,--,64,320
1251,note_on,0,41,--,64,0
1252,note_off,0,41,--,64,320
1253,note_on,0,45,--,64,0
1254,pitchwheel,0,--,1638,--,0
1255,note_off,0,45,--,64,160
1256,note_on,0,50,--,64,0
1257,note_off,0,50,--,64,480
1258,note_on,0,47,--,64,0
1259,pitchwheel,0,--,2457,--,0
1260,note_off,0,47,--,64,480
1261,note_on,0,50,--,64,0
1262,pitchwheel,0,--,2457,--,0
1263,note_off,0,50,--,64,160
1264,note_on,0,52,--,64,0
1265,note_off,0,52,--,64,320
1266,note_on,0,55,--,64,0
1267,note_off,0,55,--,64,320
1268,note_on,0,58,--,64,0
1269,note_off,0,58,--,64,160
1270,note_on,0,59,--,64,0
1271,pitchwheel,0,--,3276,--,0
1272,note_off,0,59,--,64,160
1273,note_on,0,53,--,64,0
1274,pitchwheel,0,--,1228,--,0
1275,note_off,0,53,--,64,320
1276,note_on,0,53,--,64,0
1277,note_off,0,53,--,64,320
1278,note_on,0,47,--,64,0
1279,pitchwheel,0,--,3276,--,0
1280,note_off,0,47,--,64,160
1281,note_on,0,53,--,64,0
1282,note_off,0,53,--,64,160
1283,note_on,0,51,--,64,0
1284,pitchwheel,0,--,819,--,0
1285,note_off,0,51,--,64,320
1286,note_on,0,52,--,64,0
1287,pitchwheel,0,--,2457,--,0
1288,note_off,0,52,--,64,480
1289,note_on,0,52,--,64,0
1290,pitchwheel,0,--,2457,--,0
1291,note_off,0,52,--,64,800
1292,note_on,0,48,--,64,0
1293,pitchwheel,0,--,2047,--,0
1294,note_off,0,48,--,64,160
1295,note_on,0,50,--,64,0
1296,pitchwheel,0,--,2457,--,0
1297,note_off,0,50,--,64,320
1298,note_on,0,45,--,64,0
1299,pitchwheel,0,--,2047,--,0
1300,note_off,0,45,--,64,320
1301,note_on,0,46,--,64,0
1302,pitchwheel,0,--,1638,--,0
1303,note_off,0,46,--,64,160
1304,note_on,0,47,--,64,0
1305,pitchwheel,0,--,3276,--,0
1306,note_off,0,47,--,64,160
1307,note_on,0,44,--,64,0
1308,pitchwheel,0,--,2047,--,0
1309,note_off,0,44,--,64,320
1310,note_on,0,39,--,64,0
1311,pitchwheel,0,--,819,--,0
1312,note_off,0,39,--,64,320
1313,note_on,0,38,--,64,0
1314,pitchwheel,0,--,819,--,0
1315,note_off,0,38,--,64,160
1316,note_on,0,45,--,64,0
1317,note_off,0,45,--,64,160
1318,note_on,0,39,--,64,0
1319,pitchwheel,0,--,819,--,0
1320,note_off,0,39,--,64,320
1321,note_on,0,36,--,64,0
1322,pitchwheel,0,--,2047,--,0
1323,note_off,0,36,--,64,320
1324,note_on,0,46,--,64,0
1325,note_off,0,46,--,64,320
1326,note_on,0,47,--,64,0
1327,pitchwheel,0,--,3685,--,0
1328,note_off,0,47,--,64,640
1329,note_on,0,38,--,64,0
1330,note_off,0,38,--,64,320
1331,note_on,0,45,--,64,0
1332,note_off,0,45,--,64,320
1333,note_on,0,45,--,64,0
1334,pitchwheel,0,--,3276,--,0
1335,note_off,0,45,--,64,320
1336,note_on,0,38,--,64,0
1337,pitchwheel,0,--,3685,--,0
1338,note_off,0,38,--,64,160
1339,note_on,0,38,--,64,0
1340,pitchwheel,0,--,819,--,0
1341,note_off,0,38,--,64,160
1342,note_on,0,46,--,64,0
1343,pitchwheel,0,--,409,--,0
1344,note_off,0,46,--,64,320
1345,note_on,0,45,--,64,0
1346,pitchwheel,0,--,3276,--,0
1347,note_off,0,45,--,64,640
1348,note_on,0,45,--,64,0
1349,pitchwheel,0,--,1638,--,0
1350,note_off,0,45,--,64,320
1351,note_on,0,45,--,64,0
1352,pitchwheel,0,--,2047,--,0
1353,note_off,0,45,--,64,480
1354,note_on,0,40,--,64,0
1355,pitchwheel,0,--,2457,--,0
1356,note_off,0,40,--,64,160
1357,note_on,0,38,--,64,0
1358,pitchwheel,0,--,819,--,0
1359,note_off,0,38,--,64,320
1360,note_on,0,36,--,64,0
1361,pitchwheel,0,--,2047,--,0
1362,note_off,0,36,--,64,480
1363,note_on,0,45,--,64,0
1364,note_off,0,45,--,64,160
1365,note_on,0,47,--,64,0
1366,pitchwheel,0,--,2457,--,0
1367,note_off,0,47,--,64,320
1368,note_on,0,38,--,64,0
1369,pitchwheel,0,--,3685,--,0
1370,note_off,0,38,--,64,320
1371,note_on,0,45,--,64,0
1372,pitchwheel,0,--,2047,--,0
1373,note_off,0,45,--,64,160
1374,note_on,0,40,--,64,0
1375,pitchwheel,0,--,2457,--,0
1376,note_off,0,40,--,64,480
1377,note_on,0,40,--,64,0
1378,note_off,0,40,--,64,320
1379,note_on,0,47,--,64,0
1380,pitchwheel,0,--,3276,--,0
1381,note_off,0,47,--,64,320
1382,note_on,0,38,--,64,0
1383,pitchwheel,0,--,2457,--,0
1384,note_off,0,38,--,64,320
1385,note_on,0,38,--,64,0
1386,pitchwheel,0,--,1228,--,0
1387,note_off,0,38,--,64,320
1388,note_on,0,38,--,64,0
1389,pitchwheel,0,--,2457,--,0
1390,note_off,0,38,--,64,160
1391,note_on,0,43,--,64,0
1392,pitchwheel,0,--,1638,--,0
1393,note_off,0,43,--,64,160
1394,note_on,0,45,--,64,0
1395,pitchwheel,0,--,1638,--,0
1396,note_off,0,45,--,64,320
1397,note_on,0,45,--,64,0
1398,pitchwheel,0,--,2047,--,0
1399,note_off,0,45,--,64,320
1400,note_on,0,45,--,64,0
1401,note_off,0,45,--,64,160
1402,note_on,0,47,--,64,0
1403,pitchwheel,0,--,2047,--,0
1404,note_off,0,47,--,64,160
1405,note_on,0,43,--,64,0
1406,pitchwheel,0,--,1638,--,0
1407,note_off,0,43,--,64,320
1408,note_on,0,45,--,64,0
1409,pitchwheel,0,--,1638,--,0
1410,note_off,0,45,--,64,320
1411,note_on,0,46,--,64,0
1412,note_off,0,46,--,64,160
1413,note_on,0,43,--,64,0
1414,note_off,0,43,--,64,480
1415,note_on,0,46,--,64,0
1416,pitchwheel,0,--,1638,--,0
1417,note_off,0,46,--,64,320
1418,note_on,0,47,--,64,0
1419,pitchwheel,0,--,2457,--,0
1420,note_off,0,47,--,64,160
1421,note_on,0,53,--,64,0
1422,note_off,0,53,--,64,160
1423,note_on,0,48,--,64,0
1424,pitchwheel,0,--,3276,--,0
1425,note_off,0,48,--,64,320
1426,note_on,0,43,--,64,0
1427,pitchwheel,0,--,1638,--,0
1428,note_off,0,43,--,64,320
1429,note_on,0,38,--,64,0
1430,pitchwheel,0,--,2457,--,0
1431,note_off,0,38,--,64,160
1432,note_on,0,41,--,64,0
1433,note_off,0,41,--,64,160
1434,note_on,0,43,--,64,0
1435,note_off,0,43,--,64,320
1436,note_on,0,46,--,64,0
1437,pitchwheel,0,--,1638,--,0
1438,note_off,0,46,--,64,320
1439,note_on,0,43,--,64,0
1440,pitchwheel,0,--,409,--,0
1441,note_off,0,43,--,64,160
1442,note_on,0,38,--,64,0
1443,pitchwheel,0,--,3685,--,0
1444,note_off,0,38,--,64,160
1445,note_on,0,43,--,64,0
1446,note_off,0,43,--,64,320
1447,note_on,0,38,--,64,0
1448,note_off,0,38,--,64,320
1449,note_on,0,36,--,64,0
1450,pitchwheel,0,--,819,--,0
1451,note_off,0,36,--,64,160
1452,note_on,0,45,--,64,0
1453,pitchwheel,0,--,1638,--,0
1454,note_off,0,45,--,64,160
1455,note_on,0,38,--,64,0
1456,pitchwheel,0,--,2457,--,0
1457,note_off,0,38,--,64,320
1458,note_on,0,41,--,64,0
1459,note_off,0,41,--,64,320
1460,note_on,0,40,--,64,0
1461,pitchwheel,0,--,2457,--,0
1462,note_off,0,40,--,64,160
1463,note_on,0,38,--,64,0
1464,pitchwheel,0,--,2457,--,0
1465,note_off,0,38,--,64,160
1466,note_on,0,40,--,64,0
1467,pitchwheel,0,--,2866,--,0
1468,note_off,0,40,--,64,320
1469,note_on,0,45,--,64,0
1470,pitchwheel,0,--,2047,--,0
1471,note_off,0,45,--,64,320
1472,note_on,0,45,--,64,0
1473,pitchwheel,0,--,3276,--,0
1474,note_off,0,45,--,64,320
1475,note_on,0,45,--,64,0
1476,pitchwheel,0,--,2047,--,0
1477,note_off,0,45,--,64,320
1478,note_on,0,41,--,64,0
1479,note_off,0,41,--,64,640
1480,note_on,0,40,--,64,0
1481,pitchwheel,0,--,1638,--,0
1482,note_off,0,40,--,64,320
1483,note_on,0,38,--,64,0
1484,pitchwheel,0,--,2457,--,0
1485,note_off,0,38,--,64,160
1486,note_on,0,43,--,64,0
1487,note_off,0,43,--,64,160
1488,note_on,0,45,--,64,0
1489,note_off,0,45,--,64,320
1490,note_on,0,46,--,64,0
1491,note_off,0,46,--,64,480
1492,note_on,0,49,--,64,0
1493,note_off,0,49,--,64,160
1494,note_on,0,43,--,64,0
1495,pitchwheel,0,--,409,--,0
1496,note_off,0,43,--,64,320
1497,note_on,0,46,--,64,0
1498,note_off,0,46,--,64,320
1499,note_on,0,40,--,64,0
1500,note_off,0,40,--,64,320
1501,note_on,0,40,--,64,0
1502,pitchwheel,0,--,2457,--,0
1503,note_off,0,40,--,64,320
1504,note_on,0,41,--,64,0
1505,pitchwheel,0,--,2457,--,0
1506,note_off,0,41,--,64,320
1507,note_on,0,38,--,64,0
1508,pitchwheel,0,--,1228,--,0
1509,note_off,0,38,--,64,320
1510,note_on,0,38,--,64,0
1511,pitchwheel,0,--,2457,--,0
1512,note_off,0,38,--,64,320
1513,note_on,0,37,--,64,0
1514,note_off,0,37,--,64,320
1515,note_on,0,43,--,64,0
1516,pitchwheel,0,--,409,--,0
1517,note_off,0,43,--,64,160
1518,note_on,0,40,--,64,0
1519,pitchwheel,0,--,2457,--,0
1520,note_off,0,40,--,64,160
1521,note_on,0,45,--,64,0
1522,note_off,0,45,--,64,320
1523,note_on,0,39,--,64,0
1524,pitchwheel,0,--,819,--,0
1525,note_off,0,39,--,64,320
1526,note_on,0,38,--,64,0
1527,pitchwheel,0,--,819,--,0
1528,note_off,0,38,--,64,160
1529,note_on,0,45,--,64,0
1530,pitchwheel,0,--,3276,--,0
1531,note_off,0,45,--,64,160
1532,note_on,0,47,--,64,0
1533,pitchwheel,0,--,2047,--,0
1534,note_off,0,47,--,64,320
1535,note_on,0,46,--,64,0
1536,pitchwheel,0,--,409,--,0
1537,note_off,0,46,--,64,320
1538,note_on,0,40,--,64,0
1539,pitchwheel,0,--,2457,--,0
1540,note_off,0,40,--,64,160
1541,note_on,0,38,--,64,0
1542,pitchwheel,0,--,819,--,0
1543,note_off,0,38,--,64,160
1544,note_on,0,47,--,64,0
1545,pitchwheel,0,--,2457,--,0
1546,note_off,0,47,--,64,320
1547,note_on,0,46,--,64,0
1548,note_off,0,46,--,64,320
1549,note_on,0,37,--,64,0
1550,note_off,0,37,--,64,160
1551,note_on,0,45,--,64,0
1552,note_off,0,45,--,64,160
1553,note_on,0,36,--,64,0
1554,pitchwheel,0,--,819,--,0
1555,note_off,0,36,--,64,320
1556,note_on,0,47,--,64,0
1557,pitchwheel,0,--,3276,--,0
1558,note_off,0,47,--,64,320
1559,note_on,0,47,--,64,0
1560,pitchwheel,0,--,3685,--,0
1561,note_off,0,47,--,64,160
1562,note_on,0,38,--,64,0
1563,pitchwheel,0,--,819,--,0
1564,note_off,0,38,--,64,160
1565,note_on,0,43,--,64,0
1566,pitchwheel,0,--,409,--,0
1567,note_off,0,43,--,64,320
1568,note_on,0,43,--,64,0
1569,note_off,0,43,--,64,320
1570,note_on,0,38,--,64,0
1571,note_off,0,38,--,64,640
1572,note_on,0,38,--,64,0
1573,pitchwheel,0,--,2457,--,0
1574,note_off,0,38,--,64,320
1575,note_on,0,45,--,64,0
1576,note_off,0,45,--,64,160
1577,note_on,0,46,--,64,0
1578,pitchwheel,0,--,409,--,0
1579,note_off,0,46,--,64,160
1580,note_on,0,45,--,64,0
1581,pitchwheel,0,--,1638,--,0
1582,note_off,0,45,--,64,320
1583,note_on,0,46,--,64,0
1584,note_off,0,46,--,64,320
1585,note_on,0,45,--,64,0
1586,pitchwheel,0,--,2047,--,0
1587,note_off,0,45,--,64,320
1588,note_on,0,45,--,64,0
1589,pitchwheel,0,--,3276,--,0
1590,note_off,0,45,--,64,320
1591,note_on,0,44,--,64,0
1592,pitchwheel,0,--,2047,--,0
1593,note_off,0,44,--,64,160
1594,note_on,0,47,--,64,0
1595,pitchwheel,0,--,3276,--,0
1596,note_off,0,47,--,64,160
1597,note_on,0,36,--,64,0
1598,pitchwheel,0,--,2047,--,0
1599,note_off,0,36,--,64,320
1600,note_on,0,45,--,64,0
1601,pitchwheel,0,--,3276,--,0
1602,note_off,0,45,--,64,320
1603,note_on,0,40,--,64,0
1604,pitchwheel,0,--,2457,--,0
1605,note_off,0,40,--,64,160
1606,note_on,0,38,--,64,0
1607,pitchwheel,0,--,2457,--,0
1608,note_off,0,38,--,64,160
1609,note_on,0,38,--,64,0
1610,pitchwheel,0,--,819,--,0
1611,note_off,0,38,--,64,320
1612,note_on,0,47,--,64,0
1613,pitchwheel,0,--,2047,--,0
1614,note_off,0,47,--,64,320
1615,note_on,0,47,--,64,0
1616,pitchwheel,0,--,2457,--,0
1617,note_off,0,47,--,64,160
1618,note_on,0,36,--,64,0
1619,pitchwheel,0,--,2047,--,0
1620,note_off,0,36,--,64,480
1621,note_on,0,47,--,64,0
1622,pitchwheel,0,--,3685,--,0
1623,note_off,0,47,--,64,480
1624,note_on,0,38,--,64,0
1625,pitchwheel,0,--,2457,--,0
1626,note_off,0,38,--,64,160
1627,note_on,0,47,--,64,0
1628,pitchwheel,0,--,2047,--,0
1629,note_off,0,47,--,64,320
1630,note_on,0,45,--,64,0
1631,note_off,0,45,--,64,320
1632,note_on,0,39,--,64,0
1633,pitchwheel,0,--,819,--,0
1634,note_off,0,39,--,64,160
1635,note_on,0,45,--,64,0
1636,pitchwheel,0,--,1638,--,0
1637,note_off,0,45,--,64,160
1638,note_on,0,36,--,64,0
1639,pitchwheel,0,--,819,--,0
1640,note_off,0,36,--,64,320
1641,note_on,0,36,--,64,0
1642,pitchwheel,0,--,2047,--,0
1643,note_off,0,36,--,64,320
1644,note_on,0,40,--,64,0
1645,pitchwheel,0,--,2457,--,0
1646,note_off,0,40,--,64,160
1647,note_on,0,41,--,64,0
1648,note_off,0,41,--,64,160
1649,note_on,0,38,--,64,0
1650,pitchwheel,0,--,819,--,0
1651,note_off,0,38,--,64,320
1652,note_on,0,41,--,64,0
1653,pitchwheel,0,--,1228,--,0
1654,note_off,0,41,--,64,320
1655,note_on,0,43,--,64,0
1656,pitchwheel,0,--,1638,--,0
1657,note_off,0,43,--,64,320
1658,note_on,0,47,--,64,0
1659,pitchwheel,0,--,3276,--,0
1660,note_off,0,47,--,64,320
1661,note_on,0,46,--,64,0
1662,pitchwheel,0,--,1638,--,0
1663,note_off,0,46,--,64,480
1664,note_on,0,50,--,64,0
1665,pitchwheel,0,--,2457,--,0
1666,note_off,0,50,--,64,160
1667,note_on,0,50,--,64,0
1668,note_off,0,50,--,64,320
1669,note_on,0,55,--,64,0
1670,pitchwheel,0,--,1638,--,0
1671,note_off,0,55,--,64,320
1672,note_on,0,58,--,64,0
1673,pitchwheel,0,--,1638,--,0
1674,note_off,0,58,--,64,160
1675,note_on,0,57,--,64,0
1676,pitchwheel,0,--,1638,--,0
1677,note_off,0,57,--,64,160
1678,note_on,0,50,--,64,0
1679,pitchwheel,0,--,3685,--,0
1680,note_off,0,50,--,64,320
1681,note_on,0,50,--,64,0
1682,pitchwheel,0,--,2457,--,0
1683,note_off,0,50,--,64,320
1684,note_on,0,57,--,64,0
1685,pitchwheel,0,--,1638,--,0
1686,note_off,0,57,--,64,160
1687,note_on,0,50,--,64,0
1688,pitchwheel,0,--,3685,--,0
1689,note_off,0,50,--,64,160
1690,note_on,0,45,--,64,0
1691,note_off,0,45,--,64,320
1692,note_on,0,46,--,64,0
1693,note_off,0,46,--,64,320
1694,note_on,0,47,--,64,0
1695,pitchwheel,0,--,3276,--,0
1696,note_off,0,47,--,64,320
1697,note_on,0,53,--,64,0
1698,note_off,0,53,--,64,320
1699,note_on,0,56,--,64,0
1700,note_off,0,56,--,64,320
1701,note_on,0,50,--,64,0
1702,pitchwheel,0,--,3685,--,0
1703,note_off,0,50,--,64,320
1704,note_on,0,53,--,64,0
1705,note_off,0,53,--,64,320
1706,note_on,0,55,--,64,0
1707,note_off,0,55,--,64,320
1708,note_on,0,58,--,64,0
1709,pitchwheel,0,--,1638,--,0
1710,note_off,0,58,--,64,160
1711,note_on,0,55,--,64,0
1712,note_off,0,55,--,64,160
1713,note_on,0,55,--,64,0
1714,pitchwheel,0,--,1638,--,0
1715,note_off,0,55,--,64,320
1716,note_on,0,55,--,64,0
1717,pitchwheel,0,--,2866,--,0
1718,note_off,0,55,--,64,480
1719,note_on,0,50,--,64,0
1720,pitchwheel,0,--,1228,--,0
1721,note_off,0,50,--,64,160
1722,note_on,0,45,--,64,0
1723,pitchwheel,0,--,2047,--,0
1724,note_off,0,45,--,64,320
1725,note_on,0,41,--,64,0
1726,note_off,0,41,--,64,320
1727,note_on,0,36,--,64,0
1728,pitchwheel,0,--,2047,--,0
1729,note_off,0,36,--,64,160
1730,note_on,0,47,--,64,0
1731,pitchwheel,0,--,3276,--,0
1732,note_off,0,47,--,64,160
1733,note_on,0,38,--,64,0
1734,pitchwheel,0,--,819,--,0
1735,note_off,0,38,--,64,320
1736,note_on,0,44,--,64,0
1737,note_off,0,44,--,64,320
1738,note_on,0,38,--,64,0
1739,pitchwheel,0,--,2457,--,0
1740,note_off,0,38,--,64,160
1741,note_on,0,45,--,64,0
1742,note_off,0,45,--,64,160
1743,note_on,0,47,--,64,0
1744,pitchwheel,0,--,3276,--,0
1745,note_off,0,47,--,64,320
1746,note_on,0,38,--,64,0
1747,pitchwheel,0,--,1228,--,0
1748,note_off,0,38,--,64,320
1749,note_on,0,39,--,64,0
1750,pitchwheel,0,--,819,--,0
1751,note_off,0,39,--,64,160
1752,note_on,0,40,--,64,0
1753,pitchwheel,0,--,2457,--,0
1754,note_off,0,40,--,64,480
1755,note_on,0,39,--,64,0
1756,pitchwheel,0,--,819,--,0
1757,note_off,0,39,--,64,320
1758,note_on,0,40,--,64,0
1759,pitchwheel,0,--,2457,--,0
1760,note_off,0,40,--,64,320
1761,note_on,0,41,--,64,0
1762,pitchwheel,0,--,2457,--,0
1763,note_off,0,41,--,64,320
1764,note_on,0,41,--,64,0
1765,note_off,0,41,--,64,320
1766,note_on,0,40,--,64,0
1767,pitchwheel,0,--,2866,--,0
1768,note_off,0,40,--,64,160
1769,note_on,0,45,--,64,0
1770,pitchwheel,0,--,2047,--,0
1771,note_off,0,45,--,64,160
1772,note_on,0,50,--,64,0
1773,pitchwheel,0,--,819,--,0
1774,note_off,0,50,--,64,320
1775,note_on,0,56,--,64,0
1776,note_off,0,56,--,64,320
1777,note_on,0,57,--,64,0
1778,note_off,0,57,--,64,160
1779,note_on,0,59,--,64,0
1780,pitchwheel,0,--,3685,--,0
1781,note_off,0,59,--,64,480
1782,note_on,0,55,--,64,0
1783,note_off,0,55,--,64,480
1784,note_on,0,50,--,64,0
1785,pitchwheel,0,--,819,--,0
1786,note_off,0,50,--,64,800
1787,note_on,0,46,--,64,0
1788,pitchwheel,0,--,409,--,0
1789,note_off,0,46,--,64,160
1790,note_on,0,43,--,64,0
1791,pitchwheel,0,--,409,--,0
1792,note_off,0,43,--,64,160
1793,note_on,0,38,--,64,0
1794,pitchwheel,0,--,3685,--,0
1795,note_off,0,38,--,64,320
1796,note_on,0,36,--,64,0
1797,pitchwheel,0,--,2047,--,0
1798,note_off,0,36,--,64,320
1799,note_on,0,45,--,64,0
1800,pitchwheel,0,--,3276,--,0
1801,note_off,0,45,--,64,160
1802,note_on,0,43,--,64,0
1803,pitchwheel,0,--,409,--,0
1804,note_off,0,43,--,64,160
1805,note_on,0,45,--,64,0
1806,pitchwheel,0,--,1638,--,0
1807,note_off,0,45,--,64,320
1808,note_on,0,45,--,64,0
1809,pitchwheel,0,--,2047,--,0
1810,note_off,0,45,--,64,320
1811,note_on,0,36,--,64,0
1812,pitchwheel,0,--,819,--,0
1813,note_off,0,36,--,64,160
1814,note_on,0,41,--,64,0
1815,note_off,0,41,--,64,480
1816,note_on,0,40,--,64,0
1817,pitchwheel,0,--,2866,--,0
1818,note_off,0,40,--,64,320
1819,note_on,0,45,--,64,0
1820,pitchwheel,0,--,2047,--,0
1821,note_off,0,45,--,64,160
1822,note_on,0,47,--,64,0
1823,pitchwheel,0,--,3276,--,0
1824,note_off,0,47,--,64,160
1825,note_on,0,50,--,64,0
1826,pitchwheel,0,--,2457,--,0
1827,note_off,0,50,--,64,320
1828,note_on,0,45,--,64,0
1829,note_off,0,45,--,64,320
1830,note_on,0,47,--,64,0
1831,pitchwheel,0,--,3276,--,0
1832,note_off,0,47,--,64,160
1833,note_on,0,45,--,64,0
1834,pitchwheel,0,--,2047,--,0
1835,note_off,0,45,--,64,160
1836,note_on,0,46,--,64,0
1837,pitchwheel,0,--,1638,--,0
1838,note_off,0,46,--,64,320
1839,note_on,0,45,--,64,0
1840,pitchwheel,0,--,3276,--,0
1841,note_off,0,45,--,64,320
1842,note_on,0,45,--,64,0
1843,pitchwheel,0,--,2047,--,0
1844,note_off,0,45,--,64,320
1845,note_on,0,44,--,64,0
1846,pitchwheel,0,--,2047,--,0
1847,note_off,0,44,--,64,320
1848,note_on,0,38,--,64,0
1849,pitchwheel,0,--,2457,--,0
1850,note_off,0,38,--,64,160
1851,note_on,0,40,--,64,0
1852,pitchwheel,0,--,1638,--,0
1853,note_off,0,40,--,64,480
1854,note_on,0,41,--,64,0
1855,note_off,0,41,--,64,320
1856,note_on,0,44,--,64,0
1857,note_off,0,44,--,64,160
1858,note_on,0,45,--,64,0
1859,pitchwheel,0,--,1638,--,0
1860,note_off,0,45,--,64,160
1861,note_on,0,50,--,64,0
1862,pitchwheel,0,--,2457,--,0
1863,note_off,0,50,--,64,320
1864,note_on,0,56,--,64,0
1865,note_off,0,56,--,64,480
1866,note_on,0,53,--,64,0
1867,note_off,0,53,--,64,160
1868,note_on,0,56,--,64,0
1869,note_off,0,56,--,64,320
1870,note_on,0,57,--,64,0
1871,pitchwheel,0,--,1638,--,0
1872,note_off,0,57,--,64,320
1873,note_on,0,59,--,64,0
1874,pitchwheel,0,--,2047,--,0
1875,note_off,0,59,--,64,320
1876,note_on,0,52,--,64,0
1877,pitchwheel,0,--,2457,--,0
1878,note_off,0,52,--,64,320
1879,note_on,0,56,--,64,0
1880,note_off,0,56,--,64,320
1881,note_on,0,48,--,64,0
1882,pitchwheel,0,--,819,--,0
1883,note_off,0,48,--,64,320
1884,note_on,0,59,--,64,0
1885,pitchwheel,0,--,3685,--,0
1886,note_off,0,59,--,64,320
1887,note_on,0,59,--,64,0
1888,pitchwheel,0,--,3276,--,0
1889,note_off,0,59,--,64,320
1890,note_on,0,59,--,64,0
1891,pitchwheel,0,--,3685,--,0
1892,note_off,0,59,--,64,160
1893,note_on,0,55,--,64,0
1894,note_off,0,55,--,64,160
1895,note_on,0,57,--,64,0
1896,note_off,0,57,--,64,320
1897,note_on,0,58,--,64,0
1898,note_off,0,58,--,64,320
1899,note_on,0,55,--,64,0
1900,note_off,0,55,--,64,160
1901,note_on,0,53,--,64,0
1902,pitchwheel,0,--,1228,--,0
1903,note_off,0,53,--,64,160
1904,note_on,0,55,--,64,0
1905,pitchwheel,0,--,1638,--,0
1906,note_off,0,55,--,64,320
1907,note_on,0,53,--,64,0
1908,note_off,0,53,--,64,320
1909,note_on,0,57,--,64,0
1910,pitchwheel,0,--,2047,--,0
1911,note_off,0,57,--,64,160
1912,note_on,0,59,--,64,0
1913,pitchwheel,0,--,3276,--,0
1914,note_off,0,59,--,64,480
1915,note_on,0,58,--,64,0
1916,pitchwheel,0,--,1638,--,0
1917,note_off,0,58,--,64,320
1918,note_on,0,56,--,64,0
1919,pitchwheel,0,--,2047,--,0
1920,note_off,0,56,--,64,160
1921,note_on,0,57,--,64,0
1922,note_off,0,57,--,64,160
1923,note_on,0,50,--,64,0
1924,pitchwheel,0,--,3685,--,0
1925,note_off,0,50,--,64,320
1926,note_on,0,45,--,64,0
1927,pitchwheel,0,--,1638,--,0
1928,note_off,0,45,--,64,320
1929,note_on,0,48,--,64,0
1930,pitchwheel,0,--,2047,--,0
1931,note_off,0,48,--,64,160
1932,note_on,0,52,--,64,0
1933,pitchwheel,0,--,2457,--,0
1934,note_off,0,52,--,64,160
1935,note_on,0,55,--,64,0
1936,pitchwheel,0,--,1638,--,0
1937,note_off,0,55,--,64,320
1938,note_on,0,51,--,64,0
1939,pitchwheel,0,--,819,--,0
1940,note_off,0,51,--,64,320
1941,note_on,0,55,--,64,0
1942,pitchwheel,0,--,409,--,0
1943,note_off,0,55,--,64,320
1944,note_on,0,48,--,64,0
1945,pitchwheel,0,--,819,--,0
1946,note_off,0,48,--,64,320
1947,note_on,0,50,--,64,0
1948,pitchwheel,0,--,2457,--,0
1949,note_off,0,50,--,64,480
1950,note_on,0,45,--,64,0
1951,pitchwheel,0,--,2047,--,0
1952,note_off,0,45,--,64,160
1953,note_on,0,47,--,64,0
1954,pitchwheel,0,--,3276,--,0
1955,note_off,0,47,--,64,320
1956,note_on,0,46,--,64,0
1957,pitchwheel,0,--,1638,--,0
1958,note_off,0,46,--,64,320
1959,note_on,0,41,--,64,0
1960,note_off,0,41,--,64,160
1961,note_on,0,44,--,64,0
1962,pitchwheel,0,--,2047,--,0
1963,note_off,0,44,--,64,160
1964,note_on,0,40,--,64,0
1965,pitchwheel,0,--,2866,--,0
1966,note_off,0,40,--,64,320
1967,note_on,0,36,--,64,0
1968,pitchwheel,0,--,819,--,0
1969,note_off,0,36,--,64,320
1970,note_on,0,38,--,64,0
1971,note_off,0,38,--,64,160
1972,note_on,0,38,--,64,0
1973,pitchwheel,0,--,819,--,0
1974,note_off,0,38,--,64,160
1975,note_on,0,40,--,64,0
1976,pitchwheel,0,--,1638,--,0
1977,note_off,0,40,--,64,320
1978,note_on,0,41,--,64,0
1979,note_off,0,41,--,64,320
1980,note_on,0,43,--,64,0
1981,note_off,0,43,--,64,160
1982,note_on,0,48,--,64,0
1983,pitchwheel,0,--,2047,--,0
1984,note_off,0,48,--,64,160
1985,note_on,0,52,--,64,0
1986,pitchwheel,0,--,1638,--,0
1987,note_off,0,52,--,64,320
1988,note_on,0,58,--,64,0
1989,note_off,0,58,--,64,480
1990,note_on,0,59,--,64,0
1991,pitchwheel,0,--,3685,--,0
1992,note_off,0,59,--,64,480
1993,note_on,0,48,--,64,0
1994,pitchwheel,0,--,3276,--,0
1995,note_off,0,48,--,64,480
1996,note_on,0,50,--,64,0
1997,note_off,0,50,--,64,160
1998,note_on,0,49,--,64,0
1999,note_off,0,49,--,64,320
2000,note_on,0,45,--,64,0
2001,pitchwheel,0,--,1638,--,0
2002,note_off,0,45,--,64,480
2003,note_on,0,47,--,64,0
2004,pitchwheel,0,--,3276,--,0
2005,note_off,0,47,--,64,160
2006,note_on,0,48,--,64,0
2007,pitchwheel,0,--,819,--,0
2008,note_off,0,48,--,64,320
2009,note_on,0,48,--,64,0
2010,pitchwheel,0,--,2047,--,0
2011,note_off,0,48,--,64,320
2012,note_on,0,50,--,64,0
2013,pitchwheel,0,--,819,--,0
2014,note_off,0,50,--,64,160
2015,note_on,0,46,--,64,0
2016,pitchwheel,0,--,409,--,0
2017,note_off,0,46,--,64,160
2018,note_on,0,44,--,64,0
2019,note_off,0,44,--,64,320
2020,note_on,0,45,--,64,0
2021,note_off,0,45,--,64,480
2022,note_on,0,47,--,64,0
2023,pitchwheel,0,--,3276,--,0
2024,note_off,0,47,--,64,320
2025,note_on,0,48,--,64,0
2026,pitchwheel,0,--,3276,--,0
2027,note_off,0,48,--,64,480
2028,note_on,0,53,--,64,0
2029,note_off,0,53,--,64,160
2030,note_on,0,50,--,64,0
2031,pitchwheel,0,--,3685,--,0
2032,note_off,0,50,--,64,320
2033,note_on,0,45,--,64,0
2034,pitchwheel,0,--,2047,--,0
2035,note_off,0,45,--,64,320
2036,note_on,0,46,--,64,0
2037,note_off,0,46,--,64,160
2038,note_on,0,50,--,64,0
2039,pitchwheel,0,--,819,--,0
2040,note_off,0,50,--,64,160
2041,note_on,0,55,--,64,0
2042,pitchwheel,0,--,2866,--,0
2043,note_off,0,55,--,64,320
2044,note_on,0,57,--,64,0
2045,pitchwheel,0,--,3276,--,0
2046,note_off,0,57,--,64,320
2047,note_on,0,50,--,64,0
2048,pitchwheel,0,--,819,--,0
2049,note_off,0,50,--,64,320
2050,note_on,0,58,--,64,0
2051,pitchwheel,0,--,1638,--,0
2052,note_off,0,58,--,64,320
2053,note_on,0,53,--,64,0
2054,note_off,0,53,--,64,320
2055,note_on,0,55,--,64,0
2056,pitchwheel,0,--,1638,--,0
2057,note_off,0,55,--,64,320
2058,note_on,0,59,--,64,0
2059,pitchwheel,0,--,3685,--,0
2060,note_off,0,59,--,64,320
2061,note_on,0,51,--,64,0
2062,pitchwheel,0,--,819,--,0
2063,note_off,0,51,--,64,320
2064,note_on,0,50,--,64,0
2065,note_off,0,50,--,64,320
2066,note_on,0,57,--,64,0
2067,note_off,0,57,--,64,320
2068,note_on,0,52,--,64,0
2069,pitchwheel,0,--,2457,--,0
2070,note_off,0,52,--,64,320
2071,note_on,0,56,--,64,0
2072,note_off,0,56,--,64,160
2073,note_on,0,59,--,64,0
2074,pitchwheel,0,--,3276,--,0
2075,note_off,0,59,--,64,160
2076,note_on,0,55,--,64,0
2077,pitchwheel,0,--,1638,--,0
2078,note_off,0,55,--,64,320
2079,note_on,0,55,--,64,0
2080,pitchwheel,0,--,2866,--,0
2081,note_off,0,55,--,64,480
2082,note_on,0,50,--,64,0
2083,pitchwheel,0,--,1228,--,0
2084,note_off,0,50,--,64,160
2085,note_on,0,45,--,64,0
2086,note_off,0,45,--,64,320
2087,note_on,0,41,--,64,0
2088,note_off,0,41,--,64,480
2089,note_on,0,45,--,64,0
2090,pitchwheel,0,--,1638,--,0
2091,note_off,0,45,--,64,160
2092,note_on,0,40,--,64,0
2093,pitchwheel,0,--,2457,--,0
2094,note_off,0,40,--,64,320
2095,note_on,0,39,--,64,0
2096,pitchwheel,0,--,819,--,0
2097,note_off,0,39,--,64,320
2098,note_on,0,45,--,64,0
2099,note_off,0,45,--,64,320
2100,note_on,0,46,--,64,0
2101,note_off,0,46,--,64,320
2102,note_on,0,43,--,64,0
2103,pitchwheel,0,--,1638,--,0
2104,note_off,0,43,--,64,320
2105,note_on,0,46,--,64,0
2106,note_off,0,46,--,64,160
2107,note_on,0,45,--,64,0
2108,pitchwheel,0,--,1638,--,0
2109,note_off,0,45,--,64,480
2110,note_on,0,46,--,64,0
2111,note_off,0,46,--,64,320
2112,note_on,0,50,--,64,0
2113,pitchwheel,0,--,819,--,0
2114,note_off,0,50,--,64,320
2115,note_on,0,53,--,64,0
2116,pitchwheel,0,--,2457,--,0
2117,note_off,0,53,--,64,320
2118,note_on,0,55,--,64,0
2119,pitchwheel,0,--,2866,--,0
2120,note_off,0,55,--,64,320
2121,note_on,0,55,--,64,0
2122,pitchwheel,0,--,1638,--,0
2123,note_off,0,55,--,64,160
2124,note_on,0,59,--,64,0
2125,pitchwheel,0,--,2457,--,0
2126,note_off,0,59,--,64,160
2127,note_on,0,52,--,64,0
2128,pitchwheel,0,--,2457,--,0
2129,note_off,0,52,--,64,320
2130,note_on,0,57,--,64,0
2131,pitchwheel,0,--,3276,--,0
2132,note_off,0,57,--,64,320
2133,note_on,0,57,--,64,0
2134,note_off,0,57,--,64,160
2135,note_on,0,55,--,64,0
2136,pitchwheel,0,--,2866,--,0
2137,note_off,0,55,--,64,160
2138,note_on,0,50,--,64,0
2139,pitchwheel,0,--,2457,--,0
2140,note_off,0,50,--,64,320
2141,note_on,0,47,--,64,0
2142,pitchwheel,0,--,3276,--,0
2143,note_off,0,47,--,64,320
2144,note_on,0,44,--,64,0
2145,note_off,0,44,--,64,160
2146,note_on,0,43,--,64,0
2147,note_off,0,43,--,64,480
2148,note_on,0,46,--,64,0
2149,pitchwheel,0,--,1638,--,0
2150,note_off,0,46,--,64,320
2151,note_on,0,47,--,64,0
2152,pitchwheel,0,--,2457,--,0
2153,note_off,0,47,--,64,160
2154,note_on,0,43,--,64,0
2155,pitchwheel,0,--,409,--,0
2156,note_off,0,43,--,64,160
2157,note_on,0,43,--,64,0
2158,pitchwheel,0,--,1638,--,0
2159,note_off,0,43,--,64,320
2160,note_on,0,43,--,64,0
2161,note_off,0,43,--,64,320
2162,note_on,0,38,--,64,0
2163,pitchwheel,0,--,2457,--,0
2164,note_off,0,38,--,64,160
2165,note_on,0,38,--,64,0
2166,note_off,0,38,--,64,160
2167,note_on,0,45,--,64,0
2168,pitchwheel,0,--,1638,--,0
2169,note_off,0,45,--,64,320
2170,note_on,0,45,--,64,0
2171,note_off,0,45,--,64,320
2172,note_on,0,38,--,64,0
2173,pitchwheel,0,--,3685,--,0
2174,note_off,0,38,--,64,160
2175,note_on,0,38,--,64,0
2176,pitchwheel,0,--,2457,--,0
2177,note_off,0,38,--,64,160
2178,note_on,0,45,--,64,0
2179,pitchwheel,0,--,1638,--,0
2180,note_off,0,45,--,64,320
2181,note_on,0,41,--,64,0
2182,note_off,0,41,--,64,320
2183,note_on,0,46,--,64,0
2184,pitchwheel,0,--,1638,--,0
2185,note_off,0,46,--,64,160
2186,note_on,0,40,--,64,0
2187,pitchwheel,0,--,2457,--,0
2188,note_off,0,40,--,64,160
2189,note_on,0,38,--,64,0
2190,pitchwheel,0,--,2457,--,0
2191,note_off,0,38,--,64,320
2192,note_on,0,40,--,64,0
2193,pitchwheel,0,--,2866,--,0
2194,note_off,0,40,--,64,320
2195,note_on,0,43,--,64,0
2196,note_off,0,43,--,64,160
2197,note_on,0,45,--,64,0
2198,pitchwheel,0,--,2047,--,0
2199,note_off,0,45,--,64,160
2200,note_on,0,41,--,64,0
2201,pitchwheel,0,--,1228,--,0
2202,note_off,0,41,--,64,320
2203,note_on,0,45,--,64,0
2204,pitchwheel,0,--,3276,--,0
2205,note_off,0,45,--,64,320
2206,note_on,0,36,--,64,0
2207,pitchwheel,0,--,819,--,0
2208,note_off,0,36,--,64,320
2209,note_on,0,46,--,64,0
2210,pitchwheel,0,--,1638,--,0
2211,note_off,0,46,--,64,320
2212,note_on,0,41,--,64,0
2213,note_off,0,41,--,64,320
2214,note_on,0,38,--,64,0
2215,pitchwheel,0,--,2457,--,0
2216,note_off,0,38,--,64,320
2217,note_on,0,40,--,64,0
2218,pitchwheel,0,--,2457,--,0
2219,note_off,0,40,--,64,320
2220,note_on,0,36,--,64,0
2221,pitchwheel,0,--,3276,--,0
2222,note_off,0,36,--,64,160
2223,note_on,0,43,--,64,0
2224,note_off,0,43,--,64,160
2225,note_on,0,44,--,64,0
2226,pitchwheel,0,--,2047,--,0
2227,note_off,0,44,--,64,320
2228,note_on,0,45,--,64,0
2229,pitchwheel,0,--,1638,--,0
2230,note_off,0,45,--,64,480
2231,note_on,0,45,--,64,0
2232,note_off,0,45,--,64,160
2233,note_on,0,45,--,64,0
2234,pitchwheel,0,--,1638,--,0
2235,note_off,0,45,--,64,320
2236,note_on,0,46,--,64,0
2237,note_off,0,46,--,64,320
2238,note_on,0,43,--,64,0
2239,note_off,0,43,--,64,640
2240,note_on,0,43,--,64,0
2241,pitchwheel,0,--,409,--,0
2242,note_off,0,43,--,64,320
2243,note_on,0,43,--,64,0
2244,pitchwheel,0,--,2866,--,0
2245,note_off,0,43,--,64,320
2246,note_on,0,43,--,64,0
2247,pitchwheel,0,--,1638,--,0
2248,note_off,0,43,--,64,320
2249,note_on,0,43,--,64,0
2250,note_off,0,43,--,64,320
2251,note_on,0,45,--,64,0
2252,pitchwheel,0,--,2047,--,0
2253,note_off,0,45,--,64,160
2254,note_on,0,40,--,64,0
2255,pitchwheel,0,--,2457,--,0
2256,note_off,0,40,--,64,160
2257,note_on,0,45,--,64,0
2258,note_off,0,45,--,64,320
2259,note_on,0,41,--,64,0
2260,pitchwheel,0,--,2457,--,0
2261,note_off,0,41,--,64,320
2262,note_on,0,45,--,64,0
2263,pitchwheel,0,--,1638,--,0
2264,note_off,0,45,--,64,160
2265,note_on,0,38,--,64,0
2266,pitchwheel,0,--,1228,--,0
2267,note_off,0,38,--,64,160
2268,note_on,0,44,--,64,0
2269,pitchwheel,0,--,2047,--,0
2270,note_off,0,44,--,64,320
2271,note_on,0,38,--,64,0
2272,pitchwheel,0,--,2457,--,0
2273,note_off,0,38,--,64,320
2274,note_on,0,43,--,64,0
2275,note_off,0,43,--,64,320
2276,note_on,0,47,--,64,0
2277,pitchwheel,0,--,2457,--,0
2278,note_off,0,47,--,64,320
2279,note_on,0,43,--,64,0
2280,pitchwheel,0,--,2866,--,0
2281,note_off,0,43,--,64,320
2282,note_on,0,47,--,64,0
2283,pitchwheel,0,--,2047,--,0
2284,note_off,0,47,--,64,160
2285,note_on,0,45,--,64,0
2286,note_off,0,45,--,64,160
2287,note_on,0,38,--,64,0
2288,pitchwheel,0,--,1228,--,0
2289,note_off,0,38,--,64,320
2290,note_on,0,47,--,64,0
2291,pitchwheel,0,--,3276,--,0
2292,note_off,0,47,--,64,320
2293,note_on,0,38,--,64,0
2294,pitchwheel,0,--,2457,--,0
2295,note_off,0,38,--,64,160
2296,note_on,0,38,--,64,0
2297,pitchwheel,0,--,819,--,0
2298,note_off,0,38,--,64,160
2299,note_on,0,38,--,64,0
2300,pitchwheel,0,--,3685,--,0
2301,note_off,0,38,--,64,320
2302,note_on,0,47,--,64,0
2303,pitchwheel,0,--,2047,--,0
2304,note_off,0,47,--,64,320
2305,note_on,0,38,--,64,0
2306,note_off,0,38,--,64,320
2307,note_on,0,36,--,64,0
2308,pitchwheel,0,--,3276,--,0
2309,note_off,0,36,--,64,320
2310,note_on,0,38,--,64,0
2311,pitchwheel,0,--,2457,--,0
2312,note_off,0,38,--,64,320
2313,note_on,0,45,--,64,0
2314,note_off,0,45,--,64,160
2315,note_on,0,47,--,64,0
2316,pitchwheel,0,--,2457,--,0
2317,note_off,0,47,--,64,160
2318,note_on,0,43,--,64,0
2319,pitchwheel,0,--,409,--,0
2320,note_off,0,43,--,64,320
2321,note_on,0,46,--,64,0
2322,note_off,0,46,--,64,320
2323,note_on,0,36,--,64,0
2324,pitchwheel,0,--,2047,--,0
2325,note_off,0,36,--,64,160
2326,note_on,0,37,--,64,0
2327,note_off,0,37,--,64,160
2328,note_on,0,36,--,64,0
2329,pitchwheel,0,--,819,--,0
2330,note_off,0,36,--,64,640
2331,note_on,0,36,--,64,0
2332,pitchwheel,0,--,2047,--,0
2333,note_off,0,36,--,64,160
2334,note_on,0,47,--,64,0
2335,pitchwheel,0,--,3276,--,0
2336,note_off,0,47,--,64,480
2337,note_on,0,47,--,64,0
2338,pitchwheel,0,--,3685,--,0
2339,note_off,0,47,--,64,320
2340,note_on,0,38,--,64,0
2341,pitchwheel,0,--,819,--,0
2342,note_off,0,38,--,64,160
2343,note_on,0,43,--,64,0
2344,pitchwheel,0,--,409,--,0
2345,note_off,0,43,--,64,160
2346,note_on,0,47,--,64,0
2347,pitchwheel,0,--,3685,--,0
2348,note_off,0,47,--,64,320
2349,note_on,0,43,--,64,0
2350,note_off,0,43,--,64,320
2351,note_on,0,45,--,64,0
2352,pitchwheel,0,--,2047,--,0
2353,note_off,0,45,--,64,160
2354,note_on,0,50,--,64,0
2355,note_off,0,50,--,64,480
2356,note_on,0,44,--,64,0
2357,note_off,0,44,--,64,320
2358,note_on,0,38,--,64,0
2359,pitchwheel,0,--,2457,--,0
2360,note_off,0,38,--,64,160
2361,note_on,0,47,--,64,0
2362,pitchwheel,0,--,3685,--,0
2363,note_off,0,47,--,64,320
2364,note_on,0,47,--,64,0
2365,pitchwheel,0,--,3276,--,0
2366,note_off,0,47,--,64,320
2367,note_on,0,38,--,64,0
2368,note_off,0,38,--,64,160
2369,note_on,0,45,--,64,0
2370,pitchwheel,0,--,1638,--,0
2371,note_off,0,45,--,64,160
2372,note_on,0,41,--,64,0
2373,pitchwheel,0,--,1228,--,0
2374,note_off,0,41,--,64,320
2375,note_on,0,41,--,64,0
2376,note_off,0,41,--,64,320
2377,note_on,0,45,--,64,0
2378,pitchwheel,0,--,1638,--,0
2379,note_off,0,45,--,64,160
2380,note_on,0,45,--,64,0
2381,pitchwheel,0,--,2047,--,0
2382,note_off,0,45,--,64,480
2383,note_on,0,45,--,64,0
2384,note_off,0,45,--,64,320
2385,note_on,0,43,--,64,0
2386,pitchwheel,0,--,409,--,0
2387,note_off,0,43,--,64,320
2388,note_on,0,45,--,64,0
2389,pitchwheel,0,--,1638,--,0
2390,note_off,0,45,--,64,320
2391,note_on,0,46,--,64,0
2392,pitchwheel,0,--,1638,--,0
2393,note_off,0,46,--,64,480
2394,note_on,0,48,--,64,0
2395,pitchwheel,0,--,2047,--,0
2396,note_off,0,48,--,64,160
2397,note_on,0,43,--,64,0
2398,pitchwheel,0,--,409,--,0
2399,note_off,0,43,--,64,320
2400,note_on,0,43,--,64,0
2401,pitchwheel,0,--,1638,--,0
2402,note_off,0,43,--,64,320
2403,note_on,0,46,--,64,0
2404,pitchwheel,0,--,1638,--,0
2405,note_off,0,46,--,64,160
2406,note_on,0,40,--,64,0
2407,pitchwheel,0,--,2457,--,0
2408,note_off,0,40,--,64,160
2409,note_on,0,36,--,64,0
2410,pitchwheel,0,--,2047,--,0
2411,note_off,0,36,--,64,320
2412,note_on,0,41,--,64,0
2413,note_off,0,41,--,64,320
2414,note_on,0,43,--,64,0
2415,note_off,0,43,--,64,160
2416,note_on,0,47,--,64,0
2417,pitchwheel,0,--,2047,--,0
2418,note_off,0,47,--,64,160
2419,note_on,0,48,--,64,0
2420,pitchwheel,0,--,3276,--,0
2421,note_off,0,48,--,64,320
2422,note_on,0,48,--,64,0
2423,pitchwheel,0,--,2047,--,0
2424,note_off,0,48,--,64,320
2425,note_on,0,48,--,64,0
2426,pitchwheel,0,--,819,--,0
2427,note_off,0,48,--,64,320
2428,note_on,0,53,--,64,0
2429,note_off,0,53,--,64,320
2430,note_on,0,47,--,64,0
2431,pitchwheel,0,--,3685,--,0
2432,note_off,0,47,--,64,320
2433,note_on,0,50,--,64,0
2434,pitchwheel,0,--,3685,--,0
2435,note_off,0,50,--,64,320
2436,note_on,0,45,--,64,0
2437,pitchwheel,0,--,2047,--,0
2438,note_off,0,45,--,64,320
2439,note_on,0,47,--,64,0
2440,pitchwheel,0,--,2047,--,0
2441,note_off,0,47,--,64,320
2442,note_on,0,46,--,64,0
2443,pitchwheel,0,--,1638,--,0
2444,note_off,0,46,--,64,160
2445,note_on,0,50,--,64,0
2446,pitchwheel,0,--,819,--,0
2447,note_off,0,50,--,64,160
2448,note_on,0,46,--,64,0
2449,pitchwheel,0,--,409,--,0
2450,note_off,0,46,--,64,320
2451,note_on,0,45,--,64,0
2452,pitchwheel,0,--,3276,--,0
2453,note_off,0,45,--,64,480
2454,note_on,0,48,--,64,0
2455,pitchwheel,0,--,819,--,0
2456,note_off,0,48,--,64,160
2457,note_on,0,44,--,64,0
2458,pitchwheel,0,--,2047,--,0
2459,note_off,0,44,--,64,320
2460,note_on,0,41,--,64,0
2461,note_off,0,41,--,64,320
2462,note_on,0,40,--,64,0
2463,pitchwheel,0,--,1638,--,0
2464,note_off,0,40,--,64,160
2465,note_on,0,40,--,64,0
2466,pitchwheel,0,--,2457,--,0
2467,note_off,0,40,--,64,160
2468,note_on,0,38,--,64,0
2469,pitchwheel,0,--,819,--,0
2470,note_off,0,38,--,64,640
2471,note_on,0,40,--,64,0
2472,pitchwheel,0,--,1638,--,0
2473,note_off,0,40,--,64,160
2474,note_on,0,45,--,64,0
2475,note_off,0,45,--,64,160
2476,note_on,0,46,--,64,0
2477,note_off,0,46,--,64,320
2478,note_on,0,43,--,64,0
2479,pitchwheel,0,--,1638,--,0
2480,note_off,0,43,--,64,320
2481,note_on,0,44,--,64,0
2482,note_off,0,44,--,64,160
2483,note_on,0,47,--,64,0
2484,pitchwheel,0,--,3276,--,0
2485,note_off,0,47,--,64,480
2486,note_on,0,46,--,64,0
2487,pitchwheel,0,--,1638,--,0
2488,note_off,0,46,--,64,320
2489,note_on,0,47,--,64,0
2490,pitchwheel,0,--,3276,--,0
2491,note_off,0,47,--,64,320
2492,note_on,0,46,--,64,0
2493,pitchwheel,0,--,1638,--,0
2494,note_off,0,46,--,64,320
2495,note_on,0,50,--,64,0
2496,note_off,0,50,--,64,320
2497,note_on,0,48,--,64,0
2498,pitchwheel,0,--,819,--,0
2499,note_off,0,48,--,64,160
2500,note_on,0,43,--,64,0
2501,pitchwheel,0,--,1638,--,0
2502,note_off,0,43,--,64,160
2503,note_on,0,45,--,64,0
2504,pitchwheel,0,--,1638,--,0
2505,note_off,0,45,--,64,320
2506,note_on,0,46,--,64,0
2507,pitchwheel,0,--,1638,--,0
2508,note_off,0,46,--,64,320
2509,note_on,0,45,--,64,0
2510,note_off,0,45,--,64,160
2511,note_on,0,50,--,64,0
2512,pitchwheel,0,--,3685,--,0
2513,note_off,0,50,--,64,480
2514,note_on,0,50,--,64,0
2515,pitchwheel,0,--,2457,--,0
2516,note_off,0,50,--,64,320
2517,note_on,0,56,--,64,0
2518,note_off,0,56,--,64,160
2519,note_on,0,57,--,64,0
2520,pitchwheel,0,--,1638,--,0
2521,note_off,0,57,--,64,480
2522,note_on,0,57,--,64,0
2523,note_off,0,57,--,64,320
2524,note_on,0,58,--,64,0
2525,pitchwheel,0,--,409,--,0
2526,note_off,0,58,--,64,160
2527,note_on,0,53,--,64,0
2528,note_off,0,53,--,64,480
2529,note_on,0,47,--,64,0
2530,pitchwheel,0,--,2047,--,0
2531,note_off,0,47,--,64,320
2532,note_on,0,53,--,64,0
2533,pitchwheel,0,--,1228,--,0
2534,note_off,0,53,--,64,160
2535,note_on,0,53,--,64,0
2536,note_off,0,53,--,64,160
2537,note_on,0,55,--,64,0
2538,note_off,0,55,--,64,320
2539,note_on,0,56,--,64,0
2540,note_off,0,56,--,64,320
2541,note_on,0,55,--,64,0
2542,pitchwheel,0,--,2866,--,0
2543,note_off,0,55,--,64,160
2544,note_on,0,50,--,64,0
2545,pitchwheel,0,--,3685,--,0
2546,note_off,0,50,--,64,160
2547,note_on,0,46,--,64,0
2548,note_off,0,46,--,64,320
2549,note_on,0,48,--,64,0
2550,pitchwheel,0,--,2047,--,0
2551,note_off,0,48,--,64,320
2552,note_on,0,43,--,64,0
2553,pitchwheel,0,--,1638,--,0
2554,note_off,0,43,--,64,160
2555,note_on,0,43,--,64,0
2556,note_off,0,43,--,64,160
2557,note_on,0,38,--,64,0
2558,pitchwheel,0,--,2457,--,0
2559,note_off,0,38,--,64,320
2560,note_on,0,45,--,64,0
2561,note_off,0,45,--,64,320
2562,note_on,0,40,--,64,0
2563,pitchwheel,0,--,2457,--,0
2564,note_off,0,40,--,64,160
2565,note_on,0,43,--,64,0
2566,pitchwheel,0,--,1638,--,0
2567,note_off,0,43,--,64,160
2568,note_on,0,41,--,64,0
2569,pitchwheel,0,--,2457,--,0
2570,note_off,0,41,--,64,320
2571,note_on,0,41,--,64,0
2572,pitchwheel,0,--,1228,--,0
2573,note_off,0,41,--,64,320
2574,note_on,0,41,--,64,0
2575,note_off,0,41,--,64,320
2576,note_on,0,41,--,64,0
2577,note_off,0,41,--,64,320
2578,note_on,0,38,--,64,0
2579,pitchwheel,0,--,2457,--,0
2580,note_off,0,38,--,64,160
2581,note_on,0,41,--,64,0
2582,note_off,0,41,--,64,480
2583,note_on,0,45,--,64,0
2584,pitchwheel,0,--,1638,--,0
2585,note_off,0,45,--,64,320
2586,note_on,0,47,--,64,0
2587,pitchwheel,0,--,3276,--,0
2588,note_off,0,47,--,64,160
2589,note_on,0,38,--,64,0
2590,pitchwheel,0,--,819,--,0
2591,note_off,0,38,--,64,480
2592,note_on,0,44,--,64,0
2593,note_off,0,44,--,64,480
2594,note_on,0,38,--,64,0
2595,pitchwheel,0,--,2457,--,0
2596,note_off,0,38,--,64,160
2597,note_on,0,46,--,64,0
2598,pitchwheel,0,--,1638,--,0
2599,note_off,0,46,--,64,320
2600,note_on,0,47,--,64,0
2601,pitchwheel,0,--,3276,--,0
2602,note_off,0,47,--,64,320
2603,note_on,0,47,--,64,0
2604,pitchwheel,0,--,2047,--,0
2605,note_off,0,47,--,64,320
2606,note_on,0,47,--,64,0
2607,pitchwheel,0,--,3276,--,0
2608,note_off,0,47,--,64,320
2609,note_on,0,39,--,64,0
2610,pitchwheel,0,--,819,--,0
2611,note_off,0,39,--,64,320
2612,note_on,0,41,--,64,0
2613,note_off,0,41,--,64,320
2614,note_on,0,41,--,64,0
2615,pitchwheel,0,--,1228,--,0
2616,note_off,0,41,--,64,320
2617,note_on,0,45,--,64,0
2618,note_off,0,45,--,64,320
2619,note_on,0,47,--,64,0
2620,pitchwheel,0,--,3685,--,0
2621,note_off,0,47,--,64,160
2622,note_on,0,52,--,64,0
2623,pitchwheel,0,--,2457,--,0
2624,note_off,0,52,--,64,160
2625,note_on,0,57,--,64,0
2626,note_off,0,57,--,64,320
2627,note_on,0,53,--,64,0
2628,pitchwheel,0,--,2457,--,0
2629,note_off,0,53,--,64,320
2630,note_on,0,50,--,64,0
2631,pitchwheel,0,--,819,--,0
2632,note_off,0,50,--,64,160
2633,note_on,0,53,--,64,0
2634,note_off,0,53,--,64,160
2635,note_on,0,48,--,64,0
2636,pitchwheel,0,--,3276,--,0
2637,note_off,0,48,--,64,320
2638,note_on,0,52,--,64,0
2639,pitchwheel,0,--,2866,--,0
2640,note_off,0,52,--,64,320
2641,note_on,0,47,--,64,0
2642,pitchwheel,0,--,3685,--,0
2643,note_off,0,47,--,64,160
2644,note_on,0,50,--,64,0
2645,pitchwheel,0,--,819,--,0
2646,note_off,0,50,--,64,160
2647,note_on,0,45,--,64,0
2648,pitchwheel,0,--,2047,--,0
2649,note_off,0,45,--,64,320
2650,note_on,0,47,--,64,0
2651,pitchwheel,0,--,3685,--,0
2652,note_off,0,47,--,64,480
2653,note_on,0,45,--,64,0
2654,note_off,0,45,--,64,160
2655,note_on,0,50,--,64,0
2656,note_off,0,50,--,64,320
2657,note_on,0,52,--,64,0
2658,pitchwheel,0,--,2457,--,0
2659,note_off,0,52,--,64,320
2660,note_on,0,58,--,64,0
2661,pitchwheel,0,--,1638,--,0
2662,note_off,0,58,--,64,160
2663,note_on,0,55,--,64,0
2664,note_off,0,55,--,64,160
2665,note_on,0,57,--,64,0
2666,pitchwheel,0,--,3276,--,0
2667,note_off,0,57,--,64,640
2668,note_on,0,55,--,64,0
2669,pitchwheel,0,--,409,--,0
2670,note_off,0,55,--,64,320
2671,note_on,0,50,--,64,0
2672,pitchwheel,0,--,3685,--,0
2673,note_off,0,50,--,64,320
2674,note_on,0,50,--,64,0
2675,pitchwheel,0,--,819,--,0
2676,note_off,0,50,--,64,320
2677,note_on,0,46,--,64,0
2678,pitchwheel,0,--,409,--,0
2679,note_off,0,46,--,64,320
2680,note_on,0,43,--,64,0
2681,note_off,0,43,--,64,320
2682,note_on,0,44,--,64,0
2683,note_off,0,44,--,64,320
2684,note_on,0,48,--,64,0
2685,pitchwheel,0,--,819,--,0
2686,note_off,0,48,--,64,160
2687,note_on,0,48,--,64,0
2688,pitchwheel,0,--,2047,--,0
2689,note_off,0,48,--,64,480
2690,note_on,0,45,--,64,0
2691,pitchwheel,0,--,3276,--,0
2692,note_off,0,45,--,64,320
2693,note_on,0,48,--,64,0
2694,pitchwheel,0,--,3276,--,0
2695,note_off,0,48,--,64,160
2696,note_on,0,45,--,64,0
2697,pitchwheel,0,--,1638,--,0
2698,note_off,0,45,--,64,160
2699,note_on,0,40,--,64,0
2700,pitchwheel,0,--,1638,--,0
2701,note_off,0,40,--,64,320
2702,note_on,0,41,--,64,0
2703,note_off,0,41,--,64,320
2704,note_on,0,40,--,64,0
2705,pitchwheel,0,--,2457,--,0
2706,note_off,0,40,--,64,160
2707,note_on,0,36,--,64,0
2708,pitchwheel,0,--,819,--,0
2709,note_off,0,36,--,64,160
2710,note_on,0,39,--,64,0
2711,pitchwheel,0,--,819,--,0
2712,note_off,0,39,--,64,320
2713,note_on,0,45,--,64,0
2714,note_off,0,45,--,64,320
2715,note_on,0,46,--,64,0
2716,note_off,0,46,--,64,160
2717,note_on,0,48,--,64,0
2718,pitchwheel,0,--,2047,--,0
2719,note_off,0,48,--,64,480
2720,note_on,0,45,--,64,0
2721,pitchwheel,0,--,2047,--,0
2722,note_off,0,45,--,64,480
2723,note_on,0,50,--,64,0
2724,pitchwheel,0,--,2457,--,0
2725,note_off,0,50,--,64,160
2726,note_on,0,47,--,64,0
2727,pitchwheel,0,--,2047,--,0
2728,note_off,0,47,--,64,320
2729,note_on,0,43,--,64,0
2730,note_off,0,43,--,64,320
2731,note_on,0,46,--,64,0
2732,note_off,0,46,--,64,160
2733,note_on,0,47,--,64,0
2734,pitchwheel,0,--,3276,--,0
2735,note_off,0,47,--,64,160
2736,note_on,0,45,--,64,0
2737,pitchwheel,0,--,3276,--,0
2738,note_off,0,45,--,64,320
2739,note_on,0,45,--,64,0
2740,pitchwheel,0,--,2047,--,0
2741,note_off,0,45,--,64,320
2742,note_on,0,50,--,64,0
2743,pitchwheel,0,--,819,--,0
2744,note_off,0,50,--,64,160
2745,note_on,0,45,--,64,0
2746,pitchwheel,0,--,3276,--,0
2747,note_off,0,45,--,64,160
2748,note_on,0,43,--,64,0
2749,pitchwheel,0,--,1638,--,0
2750,note_off,0,43,--,64,320
2751,note_on,0,45,--,64,0
2752,note_off,0,45,--,64,480
2753,note_on,0,45,--,64,0
2754,pitchwheel,0,--,1638,--,0
2755,note_off,0,45,--,64,320
2756,note_on,0,44,--,64,0
2757,note_off,0,44,--,64,480
2758,note_on,0,38,--,64,0
2759,pitchwheel,0,--,2457,--,0
2760,note_off,0,38,--,64,160
2761,note_on,0,43,--,64,0
2762,pitchwheel,0,--,409,--,0
2763,note_off,0,43,--,64,320
2764,note_on,0,45,--,64,0
2765,pitchwheel,0,--,2047,--,0
2766,note_off,0,45,--,64,320
2767,note_on,0,50,--,64,0
2768,pitchwheel,0,--,2457,--,0
2769,note_off,0,50,--,64,160
2770,note_on,0,50,--,64,0
2771,pitchwheel,0,--,819,--,0
2772,note_off,0,50,--,64,160
2773,note_on,0,44,--,64,0
2774,pitchwheel,0,--,2047,--,0
2775,note_off,0,44,--,64,320
2776,note_on,0,50,--,64,0
2777,pitchwheel,0,--,1228,--,0
2778,note_off,0,50,--,64,320
2779,note_on,0,47,--,64,0
2780,pitchwheel,0,--,3276,--,0
2781,note_off,0,47,--,64,160
2782,note_on,0,50,--,64,0
2783,pitchwheel,0,--,2457,--,0
2784,note_off,0,50,--,64,160
2785,note_on,0,46,--,64,0
2786,pitchwheel,0,--,1638,--,0
2787,note_off,0,46,--,64,320
2788,note_on,0,41,--,64,0
2789,note_off,0,41,--,64,320
2790,note_on,0,45,--,64,0
2791,pitchwheel,0,--,1638,--,0
2792,note_off,0,45,--,64,320
2793,note_on,0,47,--,64,0
2794,pitchwheel,0,--,3685,--,0
2795,note_off,0,47,--,64,320
2796,note_on,0,45,--,64,0
2797,pitchwheel,0,--,2047,--,0
2798,note_off,0,45,--,64,320
2799,note_on,0,50,--,64,0
2800,note_off,0,50,--,64,320
2801,note_on,0,45,--,64,0
2802,note_off,0,45,--,64,320
2803,note_on,0,45,--,64,0
2804,pitchwheel,0,--,2047,--,0
2805,note_off,0,45,--,64,320
2806,note_on,0,43,--,64,0
2807,pitchwheel,0,--,1638,--,0
2808,note_off,0,43,--,64,160
2809,note_on,0,40,--,64,0
2810,pitchwheel,0,--,2457,--,0
2811,note_off,0,40,--,64,160
2812,note_on,0,38,--,64,0
2813,pitchwheel,0,--,2457,--,0
2814,note_off,0,38,--,64,320
2815,note_on,0,38,--,64,0
2816,pitchwheel,0,--,1228,--,0
2817,note_off,0,38,--,64,480
2818,note_on,0,36,--,64,0
2819,pitchwheel,0,--,819,--,0
2820,note_off,0,36,--,64,160
2821,note_on,0,38,--,64,0
2822,pitchwheel,0,--,819,--,0
2823,note_off,0,38,--,64,320
2824,note_on,0,47,--,64,0
2825,pitchwheel,0,--,3685,--,0
2826,note_off,0,47,--,64,480
2827,note_on,0,47,--,64,0
2828,pitchwheel,0,--,3276,--,0
2829,note_off,0,47,--,64,480
2830,note_on,0,47,--,64,0
2831,pitchwheel,0,--,3685,--,0
2832,note_off,0,47,--,64,320
2833,note_on,0,44,--,64,0
2834,pitchwheel,0,--,2047,--,0
2835,note_off,0,44,--,64,160
2836,note_on,0,45,--,64,0
2837,note_off,0,45,--,64,160
2838,note_on,0,46,--,64,0
2839,note_off,0,46,--,64,320
2840,note_on,0,41,--,64,0
2841,note_off,0,41,--,64,320
2842,note_on,0,36,--,64,0
2843,pitchwheel,0,--,3276,--,0
2844,note_off,0,36,--,64,160
2845,note_on,0,43,--,64,0
2846,note_off,0,43,--,64,480
2847,note_on,0,43,--,64,0
2848,pitchwheel,0,--,1638,--,0
2849,note_off,0,43,--,64,320
2850,note_on,0,45,--,64,0
2851,pitchwheel,0,--,1638,--,0
2852,note_off,0,45,--,64,320
2853,note_on,0,38,--,64,0
2854,pitchwheel,0,--,2457,--,0
2855,note_off,0,38,--,64,320
2856,note_on,0,45,--,64,0
2857,pitchwheel,0,--,3276,--,0
2858,note_off,0,45,--,64,320
2859,note_on,0,46,--,64,0
2860,pitchwheel,0,--,409,--,0
2861,note_off,0,46,--,64,320
2862,note_on,0,40,--,64,0
2863,pitchwheel,0,--,2457,--,0
2864,note_off,0,40,--,64,320
2865,note_on,0,36,--,64,0
2866,pitchwheel,0,--,2047,--,0
2867,note_off,0,36,--,64,320
2868,note_on,0,45,--,64,0
2869,note_off,0,45,--,64,160
2870,note_on,0,44,--,64,0
2871,pitchwheel,0,--,2047,--,0
2872,note_off,0,44,--,64,160
2873,note_on,0,43,--,64,0
2874,pitchwheel,0,--,409,--,0
2875,note_off,0,43,--,64,320
2876,note_on,0,43,--,64,0
2877,note_off,0,43,--,64,480
2878,note_on,0,45,--,64,0
2879,pitchwheel,0,--,1638,--,0
2880,note_off,0,45,--,64,480
2881,note_on,0,36,--,64,0
2882,pitchwheel,0,--,2047,--,0
2883,note_off,0,36,--,64,320
2884,note_on,0,47,--,64,0
2885,pitchwheel,0,--,2457,--,0
2886,note_off,0,47,--,64,160
2887,note_on,0,43,--,64,0
2888,pitchwheel,0,--,1638,--,0
2889,note_off,0,43,--,64,160
2890,note_on,0,36,--,64,0
2891,pitchwheel,0,--,819,--,0
2892,note_off,0,36,--,64,320
2893,note_on,0,38,--,64,0
2894,pitchwheel,0,--,1228,--,0
2895,note_off,0,38,--,64,320
2896,note_on,0,38,--,64,0
2897,pitchwheel,0,--,2457,--,0
2898,note_off,0,38,--,64,160
2899,note_on,0,43,--,64,0
2900,pitchwheel,0,--,409,--,0
2901,note_off,0,43,--,64,160
2902,note_on,0,40,--,64,0
2903,pitchwheel,0,--,2457,--,0
2904,note_off,0,40,--,64,320
2905,note_on,0,44,--,64,0
2906,note_off,0,44,--,64,320
2907,note_on,0,38,--,64,0
2908,pitchwheel,0,--,2457,--,0
2909,note_off,0,38,--,64,160
2910,note_on,0,41,--,64,0
2911,note_off,0,41,--,64,160
2912,note_on,0,40,--,64,0
2913,pitchwheel,0,--,2457,--,0
2914,note_off,0,40,--,64,320
2915,note_on,0,38,--,64,0
2916,pitchwheel,0,--,2457,--,0
2917,note_off,0,38,--,64,320
2918,note_on,0,40,--,64,0
2919,pitchwheel,0,--,2866,--,0
2920,note_off,0,40,--,64,160
2921,note_on,0,47,--,64,0
2922,pitchwheel,0,--,3276,--,0
2923,note_off,0,47,--,64,160
2924,note_on,0,38,--,64,0
2925,pitchwheel,0,--,2457,--,0
2926,note_off,0,38,--,64,320
2927,note_on,0,38,--,64,0
2928,pitchwheel,0,--,1228,--,0
2929,note_off,0,38,--,64,320
2930,note_on,0,47,--,64,0
2931,pitchwheel,0,--,3685,--,0
2932,note_off,0,47,--,64,160
2933,note_on,0,41,--,64,0
2934,note_off,0,41,--,64,160
2935,note_on,0,46,--,64,0
2936,pitchwheel,0,--,1638,--,0
2937,note_off,0,46,--,64,320
2938,note_on,0,41,--,64,0
2939,note_off,0,41,--,64,320
2940,note_on,0,41,--,64,0
2941,pitchwheel,0,--,1228,--,0
2942,note_off,0,41,--,64,320
2943,note_on,0,44,--,64,0
2944,note_off,0,44,--,64,320
2945,note_on,0,41,--,64,0
2946,note_off,0,41,--,64,160
2947,note_on,0,40,--,64,0
2948,pitchwheel,0,--,1638,--,0
2949,note_off,0,40,--,64,480
2950,note_on,0,41,--,64,0
2951,note_off,0,41,--,64,320
2952,note_on,0,44,--,64,0
2953,note_off,0,44,--,64,160
2954,note_on,0,43,--,64,0
2955,note_off,0,43,--,64,160
2956,note_on,0,38,--,64,0
2957,note_off,0,38,--,64,320
2958,note_on,0,40,--,64,0
2959,pitchwheel,0,--,1638,--,0
2960,note_off,0,40,--,64,480
2961,note_on,0,43,--,64,0
2962,pitchwheel,0,--,409,--,0
2963,note_off,0,43,--,64,320
2964,note_on,0,46,--,64,0
2965,note_off,0,46,--,64,320
2966,note_on,0,45,--,64,0
2967,note_off,0,45,--,64,320
2968,note_on,0,45,--,64,0
2969,pitchwheel,0,--,1638,--,0
2970,note_off,0,45,--,64,320
2971,note_on,0,46,--,64,0
2972,note_off,0,46,--,64,320
2973,note_on,0,45,--,64,0
2974,pitchwheel,0,--,3276,--,0
2975,note_off,0,45,--,64,320
2976,note_on,0,46,--,64,0
2977,pitchwheel,0,--,409,--,0
2978,note_off,0,46,--,64,320
2979,note_on,0,49,--,64,0
2980,note_off,0,49,--,64,320
2981,note_on,0,43,--,64,0
2982,pitchwheel,0,--,409,--,0
2983,note_off,0,43,--,64,160
2984,note_on,0,45,--,64,0
2985,pitchwheel,0,--,1638,--,0
2986,note_off,0,45,--,64,160
2987,note_on,0,45,--,64,0
2988,note_off,0,45,--,64,320
2989,note_on,0,47,--,64,0
2990,pitchwheel,0,--,3276,--,0
2991,note_off,0,47,--,64,160
2992,note_on,0,48,--,64,0
2993,pitchwheel,0,--,819,--,0
2994,note_off,0,48,--,64,160
2995,note_on,0,46,--,64,0
2996,pitchwheel,0,--,1638,--,0
2997,note_off,0,46,--,64,320
2998,note_on,0,48,--,64,0
2999,pitchwheel,0,--,2047,--,0
3000,note_off,0,48,--,64,480
3001,note_on,0,50,--,64,0
3002,pitchwheel,0,--,819,--,0
3003,note_off,0,50,--,64,160
3004,note_on,0,47,--,64,0
3005,pitchwheel,0,--,2457,--,0
3006,note_off,0,47,--,64,320
3007,note_on,0,47,--,64,0
3008,pitchwheel,0,--,3276,--,0
3009,note_off,0,47,--,64,320
3010,note_on,0,52,--,64,0
3011,pitchwheel,0,--,2866,--,0
3012,note_off,0,52,--,64,160
3013,note_on,0,57,--,64,0
3014,note_off,0,57,--,64,160
3015,note_on,0,50,--,64,0
3016,pitchwheel,0,--,1228,--,0
3017,note_off,0,50,--,64,320
3018,note_on,0,50,--,64,0
3019,pitchwheel,0,--,819,--,0
3020,note_off,0,50,--,64,320
3021,note_on,0,50,--,64,0
3022,pitchwheel,0,--,2457,--,0
3023,note_off,0,50,--,64,160
3024,note_on,0,47,--,64,0
3025,pitchwheel,0,--,3276,--,0
3026,note_off,0,47,--,64,480
3027,note_on,0,48,--,64,0
3028,pitchwheel,0,--,3276,--,0
3029,note_off,0,48,--,64,320
3030,note_on,0,50,--,64,0
3031,note_off,0,50,--,64,320
3032,note_on,0,48,--,64,0
3033,pitchwheel,0,--,3276,--,0
3034,note_off,0,48,--,64,320
3035,note_on,0,50,--,64,0
3036,pitchwheel,0,--,2457,--,0
3037,note_off,0,50,--,64,320
3038,note_on,0,45,--,64,0
3039,note_off,0,45,--,64,160
3040,note_on,0,45,--,64,0
3041,pitchwheel,0,--,2047,--,0
3042,note_off,0,45,--,64,160
3043,note_on,0,40,--,64,0
3044,pitchwheel,0,--,2457,--,0
3045,note_off,0,40,--,64,320
3046,note_on,0,46,--,64,0
3047,pitchwheel,0,--,1638,--,0
3048,note_off,0,46,--,64,320
3049,note_on,0,41,--,64,0
3050,note_off,0,41,--,64,160
3051,note_on,0,43,--,64,0
3052,pitchwheel,0,--,2866,--,0
3053,note_off,0,43,--,64,160
3054,note_on,0,41,--,64,0
3055,pitchwheel,0,--,1228,--,0
3056,note_off,0,41,--,64,320
3057,note_on,0,45,--,64,0
3058,pitchwheel,0,--,3276,--,0
3059,note_off,0,45,--,64,320
3060,note_on,0,40,--,64,0
3061,note_off,0,40,--,64,160
3062,note_on,0,38,--,64,0
3063,pitchwheel,0,--,819,--,0
3064,note_off,0,38,--,64,160
3065,note_on,0,36,--,64,0
3066,pitchwheel,0,--,2047,--,0
3067,note_off,0,36,--,64,320
3068,note_on,0,46,--,64,0
3069,pitchwheel,0,--,1638,--,0
3070,note_off,0,46,--,64,320
3071,note_on,0,43,--,64,0
3072,note_off,0,43,--,64,160
3073,note_on,0,41,--,64,0
3074,note_off,0,41,--,64,160
3075,note_on,0,44,--,64,0
3076,note_off,0,44,--,64,320
3077,note_on,0,41,--,64,0
3078,note_off,0,41,--,64,320
3079,note_on,0,46,--,64,0
3080,note_off,0,46,--,64,160
3081,note_on,0,47,--,64,0
3082,pitchwheel,0,--,3685,--,0
3083,note_off,0,47,--,64,480
3084,note_on,0,51,--,64,0
3085,pitchwheel,0,--,819,--,0
3086,note_off,0,51,--,64,480
3087,note_on,0,50,--,64,0
3088,note_off,0,50,--,64,160
3089,note_on,0,49,--,64,0
3090,note_off,0,49,--,64,320
3091,note_on,0,45,--,64,0
3092,pitchwheel,0,--,1638,--,0
3093,note_off,0,45,--,64,320
3094,note_on,0,46,--,64,0
3095,pitchwheel,0,--,1638,--,0
3096,note_off,0,46,--,64,160
3097,note_on,0,40,--,64,0
3098,pitchwheel,0,--,2457,--,0
3099,note_off,0,40,--,64,160
3100,note_on,0,45,--,64,0
3101,pitchwheel,0,--,2047,--,0
3102,note_off,0,45,--,64,320
3103,note_on,0,45,--,64,0
3104,pitchwheel,0,--,3276,--,0
3105,note_off,0,45,--,64,320
3106,note_on,0,45,--,64,0
3107,pitchwheel,0,--,1638,--,0
3108,note_off,0,45,--,64,160
3109,note_on,0,43,--,64,0
3110,pitchwheel,0,--,1638,--,0
3111,note_off,0,43,--,64,160
3112,note_on,0,45,--,64,0
3113,pitchwheel,0,--,2047,--,0
3114,note_off,0,45,--,64,320
3115,note_on,0,45,--,64,0
3116,note_off,0,45,--,64,320
3117,note_on,0,43,--,64,0
3118,pitchwheel,0,--,409,--,0
3119,note_off,0,43,--,64,320
3120,note_on,0,47,--,64,0
3121,pitchwheel,0,--,3276,--,0
3122,note_off,0,47,--,64,320
3123,note_on,0,45,--,64,0
3124,note_off,0,45,--,64,480
3125,note_on,0,41,--,64,0
3126,note_off,0,41,--,64,160
3127,note_on,0,36,--,64,0
3128,pitchwheel,0,--,819,--,0
3129,note_off,0,36,--,64,320
3130,note_on,0,43,--,64,0
3131,pitchwheel,0,--,1638,--,0
3132,note_off,0,43,--,64,320
3133,note_on,0,45,--,64,0
3134,pitchwheel,0,--,2047,--,0
3135,note_off,0,45,--,64,160
3136,note_on,0,40,--,64,0
3137,pitchwheel,0,--,2457,--,0
3138,note_off,0,40,--,64,160
3139,note_on,0,47,--,64,0
3140,pitchwheel,0,--,2047,--,0
3141,note_off,0,47,--,64,320
3142,note_on,0,39,--,64,0
3143,pitchwheel,0,--,819,--,0
3144,note_off,0,39,--,64,320
3145,note_on,0,38,--,64,0
3146,pitchwheel,0,--,819,--,0
3147,note_off,0,38,--,64,160
3148,note_on,0,45,--,64,0
3149,note_off,0,45,--,64,160
3150,note_on,0,39,--,64,0
3151,pitchwheel,0,--,819,--,0
3152,note_off,0,39,--,64,320
3153,note_on,0,38,--,64,0
3154,pitchwheel,0,--,1228,--,0
3155,note_off,0,38,--,64,320
3156,note_on,0,46,--,64,0
3157,pitchwheel,0,--,409,--,0
3158,note_off,0,46,--,64,320
3159,note_on,0,41,--,64,0
3160,note_off,0,41,--,64,320
3161,note_on,0,36,--,64,0
3162,pitchwheel,0,--,3276,--,0
3163,note_off,0,36,--,64,320
3164,note_on,0,38,--,64,0
3165,pitchwheel,0,--,3685,--,0
3166,note_off,0,38,--,64,320
3167,note_on,0,45,--,64,0
3168,pitchwheel,0,--,2047,--,0
3169,note_off,0,45,--,64,320
3170,note_on,0,40,--,64,0
3171,pitchwheel,0,--,2457,--,0
3172,note_off,0,40,--,64,320
3173,note_on,0,41,--,64,0
3174,pitchwheel,0,--,2457,--,0
3175,note_off,0,41,--,64,160
3176,note_on,0,38,--,64,0
3177,pitchwheel,0,--,819,--,0
3178,note_off,0,38,--,64,160
3179,note_on,0,40,--,64,0
3180,pitchwheel,0,--,2866,--,0
3181,note_off,0,40,--,64,320
3182,note_on,0,41,--,64,0
3183,note_off,0,41,--,64,480
3184,note_on,0,43,--,64,0
3185,pitchwheel,0,--,2866,--,0
3186,note_off,0,43,--,64,160
3187,note_on,0,40,--,64,0
3188,note_off,0,40,--,64,320
3189,note_on,0,41,--,64,0
3190,note_off,0,41,--,64,320
3191,note_on,0,36,--,64,0
3192,pitchwheel,0,--,2047,--,0
3193,note_off,0,36,--,64,160
3194,note_on,0,40,--,64,0
3195,pitchwheel,0,--,2457,--,0
3196,note_off,0,40,--,64,160
3197,note_on,0,45,--,64,0
3198,pitchwheel,0,--,1638,--,0
3199,note_off,0,45,--,64,320
3200,note_on,0,41,--,64,0
3201,pitchwheel,0,--,2457,--,0
3202,note_off,0,41,--,64,480
3203,note_on,0,45,--,64,0
3204,note_off,0,45,--,64,160
3205,note_on,0,40,--,64,0
3206,pitchwheel,0,--,2457,--,0
3207,note_off,0,40,--,64,320
3208,note_on,0,38,--,64,0
3209,pitchwheel,0,--,2457,--,0
3210,note_off,0,38,--,64,320
3211,note_on,0,38,--,64,0
3212,pitchwheel,0,--,819,--,0
3213,note_off,0,38,--,64,160
3214,note_on,0,47,--,64,0
3215,pitchwheel,0,--,3276,--,0
3216,note_off,0,47,--,64,480
3217,note_on,0,44,--,64,0
3218,note_off,0,44,--,64,320
3219,note_on,0,43,--,64,0
3220,note_off,0,43,--,64,320
3221,note_on,0,46,--,64,0
3222,note_off,0,46,--,64,320
3223,note_on,0,40,--,64,0
3224,pitchwheel,0,--,2866,--,0
3225,note_off,0,40,--,64,320
3226,note_on,0,41,--,64,0
3227,note_off,0,41,--,64,160
3228,note_on,0,47,--,64,0
3229,pitchwheel,0,--,2457,--,0
3230,note_off,0,47,--,64,160
3231,note_on,0,47,--,64,0
3232,pitchwheel,0,--,3276,--,0
3233,note_off,0,47,--,64,320
3234,note_on,0,47,--,64,0
3235,pitchwheel,0,--,3685,--,0
3236,note_off,0,47,--,64,320
3237,note_on,0,45,--,64,0
3238,note_off,0,45,--,64,160
3239,note_on,0,44,--,64,0
3240,pitchwheel,0,--,2047,--,0
3241,note_off,0,44,--,64,480
3242,note_on,0,40,--,64,0
3243,pitchwheel,0,--,2457,--,0
3244,note_off,0,40,--,64,320
3245,note_on,0,40,--,64,0
3246,pitchwheel,0,--,2866,--,0
3247,note_off,0,40,--,64,160
3248,note_on,0,45,--,64,0
3249,pitchwheel,0,--,1638,--,0
3250,note_off,0,45,--,64,480
3251,note_on,0,45,--,64,0
3252,note_off,0,45,--,64,320
3253,note_on,0,46,--,64,0
3254,pitchwheel,0,--,409,--,0
3255,note_off,0,46,--,64,160
3256,note_on,0,38,--,64,0
3257,pitchwheel,0,--,3685,--,0
3258,note_off,0,38,--,64,160
3259,note_on,0,43,--,64,0
3260,pitchwheel,0,--,2866,--,0
3261,note_off,0,43,--,64,320
3262,note_on,0,45,--,64,0
3263,pitchwheel,0,--,1638,--,0
3264,note_off,0,45,--,64,320
3265,note_on,0,48,--,64,0
3266,pitchwheel,0,--,819,--,0
3267,note_off,0,48,--,64,160
3268,note_on,0,50,--,64,0
3269,note_off,0,50,--,64,160
3270,note_on,0,50,--,64,0
3271,pitchwheel,0,--,819,--,0
3272,note_off,0,50,--,64,320
3273,note_on,0,48,--,64,0
3274,pitchwheel,0,--,2047,--,0
3275,note_off,0,48,--,64,320
3276,note_on,0,45,--,64,0
3277,pitchwheel,0,--,2047,--,0
3278,note_off,0,45,--,64,160
3279,note_on,0,50,--,64,0
3280,pitchwheel,0,--,2457,--,0
3281,note_off,0,50,--,64,160
3282,note_on,0,47,--,64,0
3283,pitchwheel,0,--,3685,--,0
3284,note_off,0,47,--,64,320
3285,note_on,0,53,--,64,0
3286,note_off,0,53,--,64,320
3287,note_on,0,58,--,64,0
3288,pitchwheel,0,--,1638,--,0
3289,note_off,0,58,--,64,160
3290,note_on,0,55,--,64,0
3291,note_off,0,55,--,64,160
3292,note_on,0,50,--,64,0
3293,pitchwheel,0,--,2457,--,0
3294,note_off,0,50,--,64,320
3295,note_on,0,53,--,64,0
3296,pitchwheel,0,--,1228,--,0
3297,note_off,0,53,--,64,320
3298,note_on,0,47,--,64,0
3299,pitchwheel,0,--,3276,--,0
3300,note_off,0,47,--,64,160
3301,note_on,0,48,--,64,0
3302,pitchwheel,0,--,2047,--,0
3303,note_off,0,48,--,64,160
3304,note_on,0,44,--,64,0
3305,note_off,0,44,--,64,320
3306,note_on,0,47,--,64,0
3307,pitchwheel,0,--,3685,--,0
3308,note_off,0,47,--,64,320
3309,note_on,0,47,--,64,0
3310,pitchwheel,0,--,3276,--,0
3311,note_off,0,47,--,64,320
3312,note_on,0,47,--,64,0
3313,pitchwheel,0,--,2047,--,0
3314,note_off,0,47,--,64,320
3315,note_on,0,50,--,64,0
3316,pitchwheel,0,--,2457,--,0
3317,note_off,0,50,--,64,160
3318,note_on,0,53,--,64,0
3319,note_off,0,53,--,64,480
3320,note_on,0,50,--,64,0
3321,pitchwheel,0,--,2457,--,0
3322,note_off,0,50,--,64,320
3323,note_on,0,50,--,64,0
3324,note_off,0,50,--,64,160
3325,note_on,0,52,--,64,0
3326,pitchwheel,0,--,2457,--,0
3327,note_off,0,52,--,64,160
3328,note_on,0,57,--,64,0
3329,note_off,0,57,--,64,320
3330,note_on,0,58,--,64,0
3331,note_off,0,58,--,64,480
3332,note_on,0,56,--,64,0
3333,pitchwheel,0,--,2047,--,0
3334,note_off,0,56,--,64,160
3335,note_on,0,59,--,64,0
3336,pitchwheel,0,--,2457,--,0
3337,note_off,0,59,--,64,320
3338,note_on,0,57,--,64,0
3339,pitchwheel,0,--,1638,--,0
3340,note_off,0,57,--,64,320
3341,note_on,0,50,--,64,0
3342,pitchwheel,0,--,3685,--,0
3343,note_off,0,50,--,64,320
3344,note_on,0,45,--,64,0
3345,pitchwheel,0,--,1638,--,0
3346,note_off,0,45,--,64,640
3347,note_on,0,45,--,64,0
3348,pitchwheel,0,--,2047,--,0
3349,note_off,0,45,--,64,320
3350,note_on,0,45,--,64,0
3351,pitchwheel,0,--,1638,--,0
3352,note_off,0,45,--,64,320
3353,note_on,0,43,--,64,0
3354,note_off,0,43,--,64,320
3355,note_on,0,47,--,64,0
3356,pitchwheel,0,--,2457,--,0
3357,note_off,0,47,--,64,320
3358,note_on,0,45,--,64,0
3359,note_off,0,45,--,64,320
3360,note_on,0,45,--,64,0
3361,pitchwheel,0,--,2047,--,0
3362,note_off,0,45,--,64,320
3363,note_on,0,43,--,64,0
3364,note_off,0,43,--,64,160
3365,note_on,0,43,--,64,0
3366,pitchwheel,0,--,2866,--,0
3367,note_off,0,43,--,64,160
3368,note_on,0,44,--,64,0
3369,note_off,0,44,--,64,320
3370,note_on,0,43,--,64,0
3371,pitchwheel,0,--,1638,--,0
3372,note_off,0,43,--,64,320
3373,note_on,0,41,--,64,0
3374,note_off,0,41,--,64,160
3375,note_on,0,43,--,64,0
3376,note_off,0,43,--,64,160
3377,note_on,0,45,--,64,0
3378,pitchwheel,0,--,2047,--,0
3379,note_off,0,45,--,64,640
3380,note_on,0,40,--,64,0
3381,note_off,0,40,--,64,160
3382,note_on,0,45,--,64,0
3383,note_off,0,45,--,64,160
3384,note_on,0,50,--,64,0
3385,pitchwheel,0,--,3685,--,0
3386,note_off,0,50,--,64,320
3387,note_on,0,52,--,64,0
3388,pitchwheel,0,--,2457,--,0
3389,note_off,0,52,--,64,320
3390,note_on,0,58,--,64,0
3391,pitchwheel,0,--,1638,--,0
3392,note_off,0,58,--,64,160
3393,note_on,0,57,--,64,0
3394,pitchwheel,0,--,1638,--,0
3395,note_off,0,57,--,64,160
3396,note_on,0,50,--,64,0
3397,pitchwheel,0,--,1228,--,0
3398,note_off,0,50,--,64,320
3399,note_on,0,48,--,64,0
3400,pitchwheel,0,--,2047,--,0
3401,note_off,0,48,--,64,320
3402,note_on,0,55,--,64,0
3403,pitchwheel,0,--,409,--,0
3404,note_off,0,55,--,64,320
3405,note_on,0,58,--,64,0
3406,pitchwheel,0,--,1638,--,0
3407,note_off,0,58,--,64,320
3408,note_on,0,55,--,64,0
3409,note_off,0,55,--,64,320
3410,note_on,0,55,--,64,0
3411,pitchwheel,0,--,1638,--,0
3412,note_off,0,55,--,64,160
3413,note_on,0,59,--,64,0
3414,pitchwheel,0,--,2457,--,0
3415,note_off,0,59,--,64,480
3416,note_on,0,48,--,64,0
3417,pitchwheel,0,--,3276,--,0
3418,note_off,0,48,--,64,320
3419,note_on,0,52,--,64,0
3420,pitchwheel,0,--,2866,--,0
3421,note_off,0,52,--,64,160
3422,note_on,0,59,--,64,0
3423,pitchwheel,0,--,2047,--,0
3424,note_off,0,59,--,64,160
3425,note_on,0,53,--,64,0
3426,note_off,0,53,--,64,320
3427,note_on,0,50,--,64,0
3428,pitchwheel,0,--,1228,--,0
3429,note_off,0,50,--,64,320
3430,note_on,0,52,--,64,0
3431,note_off,0,52,--,64,160
3432,note_on,0,47,--,64,0
3433,pitchwheel,0,--,3276,--,0
3434,note_off,0,47,--,64,160
3435,note_on,0,52,--,64,0
3436,pitchwheel,0,--,1638,--,0
3437,note_off,0,52,--,64,320
3438,note_on,0,53,--,64,0
3439,note_off,0,53,--,64,320
3440,note_on,0,47,--,64,0
3441,pitchwheel,0,--,3276,--,0
3442,note_off,0,47,--,64,160
3443,note_on,0,50,--,64,0
3444,pitchwheel,0,--,3685,--,0
3445,note_off,0,50,--,64,160
3446,note_on,0,48,--,64,0
3447,pitchwheel,0,--,2047,--,0
3448,note_off,0,48,--,64,320
3449,note_on,0,47,--,64,0
3450,pitchwheel,0,--,3276,--,0
3451,note_off,0,47,--,64,320
3452,note_on,0,46,--,64,0
3453,note_off,0,46,--,64,160
3454,note_on,0,50,--,64,0
3455,note_off,0,50,--,64,480
3456,note_on,0,48,--,64,0
3457,pitchwheel,0,--,3276,--,0
3458,note_off,0,48,--,64,480
3459,note_on,0,50,--,64,0
3460,pitchwheel,0,--,2457,--,0
3461,note_off,0,50,--,64,160
3462,note_on,0,52,--,64,0
3463,note_off,0,52,--,64,320
3464,note_on,0,50,--,64,0
3465,pitchwheel,0,--,819,--,0
3466,note_off,0,50,--,64,320
3467,note_on,0,51,--,64,0
3468,pitchwheel,0,--,819,--,0
3469,note_off,0,51,--,64,160
3470,note_on,0,55,--,64,0
3471,pitchwheel,0,--,409,--,0
3472,note_off,0,55,--,64,160
3473,note_on,0,52,--,64,0
3474,pitchwheel,0,--,2866,--,0
3475,note_off,0,52,--,64,320
3476,note_on,0,53,--,64,0
3477,note_off,0,53,--,64,320
3478,note_on,0,52,--,64,0
3479,pitchwheel,0,--,2457,--,0
3480,note_off,0,52,--,64,160
3481,note_on,0,48,--,64,0
3482,pitchwheel,0,--,2047,--,0
3483,note_off,0,48,--,64,160
3484,note_on,0,51,--,64,0
3485,pitchwheel,0,--,819,--,0
3486,note_off,0,51,--,64,320
3487,note_on,0,48,--,64,0
3488,pitchwheel,0,--,819,--,0
3489,note_off,0,48,--,64,480
3490,note_on,0,52,--,64,0
3491,pitchwheel,0,--,2457,--,0
3492,note_off,0,52,--,64,320
3493,note_on,0,53,--,64,0
3494,pitchwheel,0,--,2457,--,0
3495,note_off,0,53,--,64,640
3496,note_on,0,52,--,64,0
3497,pitchwheel,0,--,2457,--,0
3498,note_off,0,52,--,64,320
3499,note_on,0,57,--,64,0
3500,pitchwheel,0,--,2047,--,0
3501,note_off,0,57,--,64,480
3502,note_on,0,50,--,64,0
3503,pitchwheel,0,--,819,--,0
3504,note_off,0,50,--,64,160
3505,note_on,0,44,--,64,0
3506,pitchwheel,0,--,2047,--,0
3507,note_off,0,44,--,64,320
3508,note_on,0,47,--,64,0
3509,pitchwheel,0,--,3685,--,0
3510,note_off,0,47,--,64,320
3511,note_on,0,43,--,64,0
3512,note_off,0,43,--,64,160
3513,note_on,0,41,--,64,0
3514,note_off,0,41,--,64,160
3515,note_on,0,44,--,64,0
3516,note_off,0,44,--,64,320
3517,note_on,0,45,--,64,0
3518,pitchwheel,0,--,2047,--,0
3519,note_off,0,45,--,64,320
3520,note_on,0,50,--,64,0
3521,pitchwheel,0,--,819,--,0
3522,note_off,0,50,--,64,320
3523,note_on,0,47,--,64,0
3524,pitchwheel,0,--,3685,--,0
3525,note_off,0,47,--,64,320
3526,note_on,0,44,--,64,0
3527,note_off,0,44,--,64,320
3528,note_on,0,50,--,64,0
3529,note_off,0,50,--,64,320
3530,note_on,0,45,--,64,0
3531,note_off,0,45,--,64,320
3532,note_on,0,45,--,64,0
3533,pitchwheel,0,--,1638,--,0
3534,note_off,0,45,--,64,320
3535,note_on,0,46,--,64,0
3536,pitchwheel,0,--,1638,--,0
3537,note_off,0,46,--,64,160
3538,note_on,0,47,--,64,0
3539,pitchwheel,0,--,3276,--,0
3540,note_off,0,47,--,64,160
3541,note_on,0,47,--,64,0
3542,pitchwheel,0,--,3685,--,0
3543,note_off,0,47,--,64,320
3544,note_on,0,48,--,64,0
3545,pitchwheel,0,--,819,--,0
3546,note_off,0,48,--,64,480
3547,note_on,0,53,--,64,0
3548,pitchwheel,0,--,1228,--,0
3549,note_off,0,53,--,64,160
3550,note_on,0,48,--,64,0
3551,pitchwheel,0,--,3276,--,0
3552,note_off,0,48,--,64,320
3553,note_on,0,53,--,64,0
3554,note_off,0,53,--,64,480
3555,note_on,0,57,--,64,0
3556,pitchwheel,0,--,1638,--,0
3557,note_off,0,57,--,64,480
3558,note_on,0,57,--,64,0
3559,pitchwheel,0,--,2047,--,0
3560,note_off,0,57,--,64,320
3561,note_on,0,50,--,64,0
3562,pitchwheel,0,--,2457,--,0
3563,note_off,0,50,--,64,160
3564,note_on,0,57,--,64,0
3565,note_off,0,57,--,64,160
3566,note_on,0,58,--,64,0
3567,pitchwheel,0,--,409,--,0
3568,note_off,0,58,--,64,320
3569,note_on,0,55,--,64,0
3570,pitchwheel,0,--,409,--,0
3571,note_off,0,55,--,64,480
3572,note_on,0,57,--,64,0
3573,pitchwheel,0,--,1638,--,0
3574,note_off,0,57,--,64,480
3575,note_on,0,58,--,64,0
3576,pitchwheel,0,--,1638,--,0
3577,note_off,0,58,--,64,320
3578,note_on,0,59,--,64,0
3579,pitchwheel,0,--,3276,--,0
3580,note_off,0,59,--,64,320
3581,note_on,0,57,--,64,0
3582,pitchwheel,0,--,3276,--,0
3583,note_off,0,57,--,64,320
3584,note_on,0,53,--,64,0
3585,note_off,0,53,--,64,320
3586,note_on,0,57,--,64,0
3587,pitchwheel,0,--,1638,--,0
3588,note_off,0,57,--,64,160
3589,note_on,0,55,--,64,0
3590,pitchwheel,0,--,1638,--,0
3591,note_off,0,55,--,64,160
3592,note_on,0,55,--,64,0
3593,note_off,0,55,--,64,320
3594,note_on,0,58,--,64,0
3595,pitchwheel,0,--,1638,--,0
3596,note_off,0,58,--,64,320
3597,note_on,0,57,--,64,0
3598,note_off,0,57,--,64,160
3599,note_on,0,48,--,64,0
3600,pitchwheel,0,--,2047,--,0
3601,note_off,0,48,--,64,160
3602,note_on,0,48,--,64,0
3603,pitchwheel,0,--,819,--,0
3604,note_off,0,48,--,64,320
3605,note_on,0,50,--,64,0
3606,pitchwheel,0,--,819,--,0
3607,note_off,0,50,--,64,320
3608,note_on,0,51,--,64,0
3609,pitchwheel,0,--,819,--,0
3610,note_off,0,51,--,64,160
3611,note_on,0,55,--,64,0
3612,note_off,0,55,--,64,480
3613,note_on,0,48,--,64,0
3614,pitchwheel,0,--,3276,--,0
3615,note_off,0,48,--,64,320
3616,note_on,0,59,--,64,0
3617,pitchwheel,0,--,2457,--,0
3618,note_off,0,59,--,64,160
3619,note_on,0,48,--,64,0
3620,pitchwheel,0,--,2047,--,0
3621,note_off,0,48,--,64,160
3622,note_on,0,57,--,64,0
3623,pitchwheel,0,--,2047,--,0
3624,note_off,0,57,--,64,320
3625,note_on,0,55,--,64,0
3626,note_off,0,55,--,64,320
3627,note_on,0,50,--,64,0
3628,pitchwheel,0,--,2457,--,0
3629,note_off,0,50,--,64,160
3630,note_on,0,53,--,64,0
3631,note_off,0,53,--,64,160
3632,note_on,0,52,--,64,0
3633,pitchwheel,0,--,2457,--,0
3634,note_off,0,52,--,64,320
3635,note_on,0,48,--,64,0
3636,pitchwheel,0,--,3276,--,0
3637,note_off,0,48,--,64,320
3638,note_on,0,48,--,64,0
3639,pitchwheel,0,--,819,--,0
3640,note_off,0,48,--,64,160
3641,note_on,0,50,--,64,0
3642,pitchwheel,0,--,3685,--,0
3643,note_off,0,50,--,64,160
3644,note_on,0,47,--,64,0
3645,pitchwheel,0,--,3276,--,0
3646,note_off,0,47,--,64,320
3647,note_on,0,45,--,64,0
3648,pitchwheel,0,--,2047,--,0
3649,note_off,0,45,--,64,320
3650,note_on,0,50,--,64,0
3651,pitchwheel,0,--,3685,--,0
3652,note_off,0,50,--,64,160
3653,note_on,0,52,--,64,0
3654,pitchwheel,0,--,2457,--,0
3655,note_off,0,52,--,64,160
3656,note_on,0,50,--,64,0
3657,pitchwheel,0,--,2457,--,0
3658,note_off,0,50,--,64,320
3659,note_on,0,45,--,64,0
3660,pitchwheel,0,--,3276,--,0
3661,note_off,0,45,--,64,320
3662,note_on,0,43,--,64,0
3663,note_off,0,43,--,64,160
3664,note_on,0,46,--,64,0
3665,pitchwheel,0,--,409,--,0
3666,note_off,0,46,--,64,160
3667,note_on,0,45,--,64,0
3668,pitchwheel,0,--,2047,--,0
3669,note_off,0,45,--,64,320
3670,note_on,0,45,--,64,0
3671,pitchwheel,0,--,3276,--,0
3672,note_off,0,45,--,64,320
3673,note_on,0,45,--,64,0
3674,pitchwheel,0,--,2047,--,0
3675,note_off,0,45,--,64,320
3676,note_on,0,44,--,64,0
3677,pitchwheel,0,--,2047,--,0
3678,note_off,0,44,--,64,320
3679,note_on,0,41,--,64,0
3680,note_off,0,41,--,64,320
3681,note_on,0,38,--,64,0
3682,pitchwheel,0,--,2457,--,0
3683,note_off,0,38,--,64,320
3684,note_on,0,40,--,64,0
3685,pitchwheel,0,--,1638,--,0
3686,note_off,0,40,--,64,320
3687,note_on,0,44,--,64,0
3688,note_off,0,44,--,64,160
3689,note_on,0,38,--,64,0
3690,pitchwheel,0,--,819,--,0
3691,note_off,0,38,--,64,160
3692,note_on,0,41,--,64,0
3693,note_off,0,41,--,64,320
3694,note_on,0,44,--,64,0
3695,note_off,0,44,--,64,480
3696,note_on,0,40,--,64,0
3697,pitchwheel,0,--,1638,--,0
3698,note_off,0,40,--,64,160
3699,note_on,0,44,--,64,0
3700,note_off,0,44,--,64,320
3701,note_on,0,46,--,64,0
3702,note_off,0,46,--,64,320
3703,note_on,0,40,--,64,0
3704,note_off,0,40,--,64,320
3705,note_on,0,47,--,64,0
3706,pitchwheel,0,--,3276,--,0
3707,note_off,0,47,--,64,320
3708,note_on,0,46,--,64,0
3709,pitchwheel,0,--,1638,--,0
3710,note_off,0,46,--,64,320
3711,note_on,0,41,--,64,0
3712,note_off,0,41,--,64,320
3713,note_on,0,40,--,64,0
3714,pitchwheel,0,--,2866,--,0
3715,note_off,0,40,--,64,320
3716,note_on,0,41,--,64,0
3717,note_off,0,41,--,64,320
3718,note_on,0,38,--,64,0
3719,note_off,0,38,--,64,160
3720,note_on,0,47,--,64,0
3721,pitchwheel,0,--,3276,--,0
3722,note_off,0,47,--,64,160
3723,note_on,0,45,--,64,0
3724,note_off,0,45,--,64,320
3725,note_on,0,46,--,64,0
3726,pitchwheel,0,--,1638,--,0
3727,note_off,0,46,--,64,320
3728,note_on,0,38,--,64,0
3729,pitchwheel,0,--,819,--,0
3730,note_off,0,38,--,64,160
3731,note_on,0,36,--,64,0
3732,pitchwheel,0,--,2047,--,0
3733,note_off,0,36,--,64,160
3734,note_on,0,36,--,64,0
3735,pitchwheel,0,--,3276,--,0
3736,note_off,0,36,--,64,320
3737,note_on,0,36,--,64,0
3738,pitchwheel,0,--,819,--,0
3739,note_off,0,36,--,64,320
3740,note_on,0,38,--,64,0
3741,pitchwheel,0,--,1228,--,0
3742,note_off,0,38,--,64,160
3743,note_on,0,45,--,64,0
3744,pitchwheel,0,--,1638,--,0
3745,note_off,0,45,--,64,160
3746,note_on,0,47,--,64,0
3747,pitchwheel,0,--,2457,--,0
3748,note_off,0,47,--,64,320
3749,note_on,0,46,--,64,0
3750,pitchwheel,0,--,1638,--,0
3751,note_off,0,46,--,64,320
3752,note_on,0,37,--,64,0
3753,note_off,0,37,--,64,160
3754,note_on,0,45,--,64,0
3755,note_off,0,45,--,64,160
3756,note_on,0,36,--,64,0
3757,pitchwheel,0,--,819,--,0
3758,note_off,0,36,--,64,320
3759,note_on,0,40,--,64,0
3760,pitchwheel,0,--,2457,--,0
3761,note_off,0,40,--,64,320
3762,note_on,0,39,--,64,0
3763,pitchwheel,0,--,819,--,0
3764,note_off,0,39,--,64,160
3765,note_on,0,45,--,64,0
3766,pitchwheel,0,--,1638,--,0
3767,note_off,0,45,--,64,160
3768,note_on,0,36,--,64,0
3769,pitchwheel,0,--,819,--,0
3770,note_off,0,36,--,64,320
3771,note_on,0,44,--,64,0
3772,note_off,0,44,--,64,320
3773,note_on,0,38,--,64,0
3774,note_off,0,38,--,64,320
3775,note_on,0,47,--,64,0
3776,pitchwheel,0,--,2457,--,0
3777,note_off,0,47,--,64,320
3778,note_on,0,43,--,64,0
3779,note_off,0,43,--,64,320
3780,note_on,0,45,--,64,0
3781,note_off,0,45,--,64,160
3782,note_on,0,46,--,64,0
3783,pitchwheel,0,--,409,--,0
3784,note_off,0,46,--,64,160
3785,note_on,0,43,--,64,0
3786,note_off,0,43,--,64,320
3787,note_on,0,41,--,64,0
3788,note_off,0,41,--,64,320
3789,note_on,0,45,--,64,0
3790,pitchwheel,0,--,3276,--,0
3791,note_off,0,45,--,64,160
3792,note_on,0,47,--,64,0
3793,pitchwheel,0,--,2047,--,0
3794,note_off,0,47,--,64,160
3795,note_on,0,45,--,64,0
3796,pitchwheel,0,--,2047,--,0
3797,note_off,0,45,--,64,320
3798,note_on,0,41,--,64,0
3799,pitchwheel,0,--,1228,--,0
3800,note_off,0,41,--,64,320
3801,note_on,0,45,--,64,0
3802,pitchwheel,0,--,1638,--,0
3803,note_off,0,45,--,64,160
3804,note_on,0,43,--,64,0
3805,note_off,0,43,--,64,160
3806,note_on,0,36,--,64,0
3807,pitchwheel,0,--,2047,--,0
3808,note_off,0,36,--,64,320
3809,note_on,0,41,--,64,0
3810,note_off,0,41,--,64,320
3811,note_on,0,38,--,64,0
3812,pitchwheel,0,--,819,--,0
3813,note_off,0,38,--,64,160
3814,note_on,0,43,--,64,0
3815,pitchwheel,0,--,2866,--,0
3816,note_off,0,43,--,64,160
3817,note_on,0,41,--,64,0
3818,pitchwheel,0,--,2457,--,0
3819,note_off,0,41,--,64,320
3820,note_on,0,46,--,64,0
3821,note_off,0,46,--,64,480
3822,note_on,0,48,--,64,0
3823,pitchwheel,0,--,2047,--,0
3824,note_off,0,48,--,64,480
3825,note_on,0,46,--,64,0
3826,pitchwheel,0,--,1638,--,0
3827,note_off,0,46,--,64,480
3828,note_on,0,50,--,64,0
3829,pitchwheel,0,--,2457,--,0
3830,note_off,0,50,--,64,160
3831,note_on,0,47,--,64,0
3832,pitchwheel,0,--,2047,--,0
3833,note_off,0,47,--,64,320
3834,note_on,0,45,--,64,0
3835,note_off,0,45,--,64,320
3836,note_on,0,39,--,64,0
3837,pitchwheel,0,--,819,--,0
3838,note_off,0,39,--,64,160
3839,note_on,0,40,--,64,0
3840,pitchwheel,0,--,2457,--,0
3841,note_off,0,40,--,64,160
3842,note_on,0,41,--,64,0
3843,note_off,0,41,--,64,320
3844,note_on,0,41,--,64,0
3845,pitchwheel,0,--,1228,--,0
3846,note_off,0,41,--,64,320
3847,note_on,0,40,--,64,0
3848,pitchwheel,0,--,2457,--,0
3849,note_off,0,40,--,64,160
3850,note_on,0,41,--,64,0
3851,pitchwheel,0,--,1228,--,0
3852,note_off,0,41,--,64,160
3853,note_on,0,39,--,64,0
3854,pitchwheel,0,--,819,--,0
3855,note_off,0,39,--,64,320
3856,note_on,0,45,--,64,0
3857,note_off,0,45,--,64,320
3858,note_on,0,43,--,64,0
3859,pitchwheel,0,--,1638,--,0
3860,note_off,0,43,--,64,320
3861,note_on,0,43,--,64,0
3862,note_off,0,43,--,64,320
3863,note_on,0,43,--,64,0
3864,pitchwheel,0,--,1638,--,0
3865,note_off,0,43,--,64,480
3866,note_on,0,38,--,64,0
3867,pitchwheel,0,--,2457,--,0
3868,note_off,0,38,--,64,160
3869,note_on,0,43,--,64,0
3870,pitchwheel,0,--,409,--,0
3871,note_off,0,43,--,64,320
3872,note_on,0,43,--,64,0
3873,pitchwheel,0,--,1638,--,0
3874,note_off,0,43,--,64,320
3875,note_on,0,48,--,64,0
3876,pitchwheel,0,--,819,--,0
3877,note_off,0,48,--,64,160
3878,note_on,0,45,--,64,0
3879,pitchwheel,0,--,1638,--,0
3880,note_off,0,45,--,64,480
3881,note_on,0,47,--,64,0
3882,pitchwheel,0,--,3276,--,0
3883,note_off,0,47,--,64,320
3884,note_on,0,45,--,64,0
3885,pitchwheel,0,--,1638,--,0
3886,note_off,0,45,--,64,320
3887,note_on,0,46,--,64,0
3888,pitchwheel,0,--,1638,--,0
3889,note_off,0,46,--,64,320
3890,note_on,0,45,--,64,0
3891,pitchwheel,0,--,3276,--,0
3892,note_off,0,45,--,64,320
3893,note_on,0,47,--,64,0
3894,pitchwheel,0,--,3276,--,0
3895,note_off,0,47,--,64,320
3896,note_on,0,53,--,64,0
3897,note_off,0,53,--,64,320
3898,note_on,0,50,--,64,0
3899,pitchwheel,0,--,1228,--,0
3900,note_off,0,50,--,64,320
3901,note_on,0,50,--,64,0
3902,pitchwheel,0,--,3685,--,0
3903,note_off,0,50,--,64,320
3904,note_on,0,53,--,64,0
3905,note_off,0,53,--,64,320
3906,note_on,0,47,--,64,0
3907,pitchwheel,0,--,3276,--,0
3908,note_off,0,47,--,64,320
3909,note_on,0,44,--,64,0
3910,note_off,0,44,--,64,160
3911,note_on,0,47,--,64,0
3912,pitchwheel,0,--,3276,--,0
3913,note_off,0,47,--,64,160
3914,note_on,0,48,--,64,0
3915,pitchwheel,0,--,819,--,0
3916,note_off,0,48,--,64,320
3917,note_on,0,48,--,64,0
3918,pitchwheel,0,--,2047,--,0
3919,note_off,0,48,--,64,480
3920,note_on,0,53,--,64,0
3921,note_off,0,53,--,64,160
3922,note_on,0,47,--,64,0
3923,pitchwheel,0,--,2047,--,0
3924,note_off,0,47,--,64,320
3925,note_on,0,53,--,64,0
3926,note_off,0,53,--,64,320
3927,note_on,0,52,--,64,0
3928,pitchwheel,0,--,1638,--,0
3929,note_off,0,52,--,64,160
3930,note_on,0,47,--,64,0
3931,pitchwheel,0,--,3276,--,0
3932,note_off,0,47,--,64,480
3933,note_on,0,47,--,64,0
3934,pitchwheel,0,--,3685,--,0
3935,note_off,0,47,--,64,320
3936,note_on,0,45,--,64,0
3937,note_off,0,45,--,64,320
3938,note_on,0,46,--,64,0
3939,note_off,0,46,--,64,320
3940,note_on,0,48,--,64,0
3941,pitchwheel,0,--,2047,--,0
3942,note_off,0,48,--,64,320
3943,note_on,0,53,--,64,0
3944,pitchwheel,0,--,2457,--,0
3945,note_off,0,53,--,64,160
3946,note_on,0,50,--,64,0
3947,pitchwheel,0,--,819,--,0
3948,note_off,0,50,--,64,480
3949,note_on,0,48,--,64,0
3950,pitchwheel,0,--,3276,--,0
3951,note_off,0,48,--,64,320
3952,note_on,0,50,--,64,0
3953,pitchwheel,0,--,819,--,0
3954,note_off,0,50,--,64,320
3955,note_on,0,53,--,64,0
3956,pitchwheel,0,--,2457,--,0
3957,note_off,0,53,--,64,320
3958,note_on,0,57,--,64,0
3959,pitchwheel,0,--,3276,--,0
3960,note_off,0,57,--,64,320
3961,note_on,0,57,--,64,0
3962,pitchwheel,0,--,2047,--,0
3963,note_off,0,57,--,64,320
3964,note_on,0,55,--,64,0
3965,note_off,0,55,--,64,320
3966,note_on,0,56,--,64,0
3967,note_off,0,56,--,64,320
3968,note_on,0,57,--,64,0
3969,note_off,0,57,--,64,320
3970,note_on,0,52,--,64,0
3971,pitchwheel,0,--,2457,--,0
3972,note_off,0,52,--,64,320
3973,note_on,0,49,--,64,0
3974,note_off,0,49,--,64,160
3975,note_on,0,52,--,64,0
3976,pitchwheel,0,--,2457,--,0
3977,note_off,0,52,--,64,480
3978,note_on,0,57,--,64,0
3979,pitchwheel,0,--,1638,--,0
3980,note_off,0,57,--,64,320
3981,note_on,0,58,--,64,0
3982,pitchwheel,0,--,409,--,0
3983,note_off,0,58,--,64,160
3984,note_on,0,57,--,64,0
3985,pitchwheel,0,--,3276,--,0
3986,note_off,0,57,--,64,160
3987,note_on,0,58,--,64,0
3988,note_off,0,58,--,64,320
3989,note_on,0,59,--,64,0
3990,pitchwheel,0,--,2047,--,0
3991,note_off,0,59,--,64,320
3992,note_on,0,48,--,64,0
3993,pitchwheel,0,--,819,--,0
3994,note_off,0,48,--,64,160
3995,note_on,0,55,--,64,0
3996,pitchwheel,0,--,409,--,0
3997,note_off,0,55,--,64,160
3998,note_on,0,55,--,64,0
3999,note_off,0,55,--,64,320
4000,note_on,0,58,--,64,0
4001,pitchwheel,0,--,1638,--,0
4002,note_off,0,58,--,64,320
4003,note_on,0,53,--,64,0
4004,note_off,0,53,--,64,320
4005,note_on,0,57,--,64,0
4006,pitchwheel,0,--,2047,--,0
4007,note_off,0,57,--,64,320
4008,note_on,0,58,--,64,0
4009,pitchwheel,0,--,409,--,0
4010,note_off,0,58,--,64,320
4011,note_on,0,56,--,64,0
4012,note_off,0,56,--,64,160
4013,note_on,0,55,--,64,0
4014,note_off,0,55,--,64,160
4015,note_on,0,50,--,64,0
4016,pitchwheel,0,--,2457,--,0
4017,note_off,0,50,--,64,320
4018,note_on,0,56,--,64,0
4019,note_off,0,56,--,64,320
4020,note_on,0,57,--,64,0
4021,pitchwheel,0,--,1638,--,0
4022,note_off,0,57,--,64,160
4023,note_on,0,48,--,64,0
4024,pitchwheel,0,--,819,--,0
4025,note_off,0,48,--,64,160
4026,note_on,0,48,--,64,0
4027,pitchwheel,0,--,3276,--,0
4028,note_off,0,48,--,64,320
4029,note_on,0,50,--,64,0
4030,pitchwheel,0,--,2457,--,0
4031,note_off,0,50,--,64,320
4032,note_on,0,50,--,64,0
4033,pitchwheel,0,--,1228,--,0
4034,note_off,0,50,--,64,320
4035,note_on,0,50,--,64,0
4036,pitchwheel,0,--,2457,--,0
4037,note_off,0,50,--,64,480
4038,note_on,0,52,--,64,0
4039,pitchwheel,0,--,1638,--,0
4040,note_off,0,52,--,64,480
4041,note_on,0,53,--,64,0
4042,note_off,0,53,--,64,320
4043,note_on,0,48,--,64,0
4044,pitchwheel,0,--,3276,--,0
4045,note_off,0,48,--,64,160
4046,note_on,0,52,--,64,0
4047,pitchwheel,0,--,2457,--,0
4048,note_off,0,52,--,64,160
4049,note_on,0,52,--,64,0
4050,note_off,0,52,--,64,320
4051,note_on,0,51,--,64,0
4052,pitchwheel,0,--,819,--,0
4053,note_off,0,51,--,64,480
4054,note_on,0,57,--,64,0
4055,note_off,0,57,--,64,160
4056,note_on,0,58,--,64,0
4057,note_off,0,58,--,64,640
4058,note_on,0,59,--,64,0
4059,pitchwheel,0,--,2047,--,0
4060,note_off,0,59,--,64,320
4061,note_on,0,52,--,64,0
4062,pitchwheel,0,--,2457,--,0
4063,note_off,0,52,--,64,320
4064,note_on,0,51,--,64,0
4065,pitchwheel,0,--,819,--,0
4066,note_off,0,51,--,64,320
4067,note_on,0,53,--,64,0
4068,pitchwheel,0,--,1228,--,0
4069,note_off,0,53,--,64,320
4070,note_on,0,53,--,64,0
4071,note_off,0,53,--,64,320
4072,note_on,0,57,--,64,0
4073,pitchwheel,0,--,1638,--,0
4074,note_off,0,57,--,64,320
4075,note_on,0,58,--,64,0
4076,pitchwheel,0,--,409,--,0
4077,note_off,0,58,--,64,160
4078,note_on,0,55,--,64,0
4079,note_off,0,55,--,64,160
4080,note_on,0,57,--,64,0
4081,note_off,0,57,--,64,320
4082,note_on,0,58,--,64,0
4083,note_off,0,58,--,64,320
4084,note_on,0,50,--,64,0
4085,pitchwheel,0,--,819,--,0
4086,note_off,0,50,--,64,160
4087,note_on,0,57,--,64,0
4088,pitchwheel,0,--,3276,--,0
4089,note_off,0,57,--,64,480
4090,note_on,0,57,--,64,0
4091,pitchwheel,0,--,2047,--,0
4092,note_off,0,57,--,64,320
4093,note_on,0,50,--,64,0
4094,pitchwheel,0,--,2457,--,0
4095,note_off,0,50,--,64,160
4096,note_on,0,50,--,64,0
4097,pitchwheel,0,--,819,--,0
4098,note_off,0,50,--,64,160
4099,note_on,0,57,--,64,0
4100,pitchwheel,0,--,2047,--,0
4101,note_off,0,57,--,64,320
4102,note_on,0,56,--,64,0
4103,note_off,0,56,--,64,320
4104,note_on,0,56,--,64,0
4105,pitchwheel,0,--,2047,--,0
4106,note_off,0,56,--,64,160
4107,note_on,0,57,--,64,0
4108,note_off,0,57,--,64,160
4109,note_on,0,50,--,64,0
4110,note_off,0,50,--,64,320
4111,note_on,0,59,--,64,0
4112,pitchwheel,0,--,3276,--,0
4113,note_off,0,59,--,64,320
4114,note_on,0,57,--,64,0
4115,note_off,0,57,--,64,160
4116,note_on,0,57,--,64,0
4117,pitchwheel,0,--,1638,--,0
4118,note_off,0,57,--,64,160
4119,note_on,0,48,--,64,0
4120,pitchwheel,0,--,2047,--,0
4121,note_off,0,48,--,64,320
4122,note_on,0,52,--,64,0
4123,pitchwheel,0,--,2457,--,0
4124,note_off,0,52,--,64,320
4125,note_on,0,55,--,64,0
4126,pitchwheel,0,--,409,--,0
4127,note_off,0,55,--,64,320
4128,note_on,0,56,--,64,0
4129,note_off,0,56,--,64,320
4130,note_on,0,55,--,64,0
4131,pitchwheel,0,--,409,--,0
4132,note_off,0,55,--,64,320
4133,note_on,0,55,--,64,0
4134,pitchwheel,0,--,1638,--,0
4135,note_off,0,55,--,64,160
4136,note_on,0,57,--,64,0
4137,pitchwheel,0,--,2047,--,0
4138,note_off,0,57,--,64,160
4139,note_on,0,57,--,64,0
4140,pitchwheel,0,--,1638,--,0
4141,note_off,0,57,--,64,320
4142,note_on,0,58,--,64,0
4143,pitchwheel,0,--,1638,--,0
4144,note_off,0,58,--,64,320
4145,note_on,0,58,--,64,0
4146,pitchwheel,0,--,409,--,0
4147,note_off,0,58,--,64,160
4148,note_on,0,56,--,64,0
4149,pitchwheel,0,--,2047,--,0
4150,note_off,0,56,--,64,160
4151,note_on,0,57,--,64,0
4152,pitchwheel,0,--,3276,--,0
4153,note_off,0,57,--,64,320
4154,note_on,0,50,--,64,0
4155,pitchwheel,0,--,1228,--,0
4156,note_off,0,50,--,64,320
4157,note_on,0,58,--,64,0
4158,pitchwheel,0,--,1638,--,0
4159,note_off,0,58,--,64,160
4160,note_on,0,59,--,64,0
4161,pitchwheel,0,--,3276,--,0
4162,note_off,0,59,--,64,160
4163,note_on,0,52,--,64,0
4164,pitchwheel,0,--,1638,--,0
4165,note_off,0,52,--,64,320
4166,note_on,0,53,--,64,0
4167,note_off,0,53,--,64,320
4168,note_on,0,57,--,64,0
4169,pitchwheel,0,--,1638,--,0
4170,note_off,0,57,--,64,160
4171,note_on,0,53,--,64,0
4172,note_off,0,53,--,64,160
4173,note_on,0,56,--,64,0
4174,note_off,0,56,--,64,320
4175,note_on,0,57,--,64,0
4176,pitchwheel,0,--,1638,--,0
4177,note_off,0,57,--,64,320
4178,note_on,0,52,--,64,0
4179,pitchwheel,0,--,2457,--,0
4180,note_off,0,52,--,64,160
4181,note_on,0,59,--,64,0
4182,pitchwheel,0,--,3685,--,0
4183,note_off,0,59,--,64,480
4184,note_on,0,57,--,64,0
4185,pitchwheel,0,--,2047,--,0
4186,note_off,0,57,--,64,480
4187,note_on,0,50,--,64,0
4188,note_off,0,50,--,64,160
4189,note_on,0,57,--,64,0
4190,note_off,0,57,--,64,640
4191,note_on,0,58,--,64,0
4192,note_off,0,58,--,64,160
4193,note_on,0,57,--,64,0
4194,pitchwheel,0,--,2047,--,0
4195,note_off,0,57,--,64,160
4196,note_on,0,48,--,64,0
4197,pitchwheel,0,--,2047,--,0
4198,note_off,0,48,--,64,320
4199,note_on,0,48,--,64,0
4200,pitchwheel,0,--,819,--,0
4201,note_off,0,48,--,64,320
4202,note_on,0,59,--,64,0
4203,pitchwheel,0,--,3276,--,0
4204,note_off,0,59,--,64,160
4205,note_on,0,50,--,64,0
4206,pitchwheel,0,--,2457,--,0
4207,note_off,0,50,--,64,160
4208,note_on,0,55,--,64,0
4209,pitchwheel,0,--,1638,--,0
4210,note_off,0,55,--,64,320
4211,note_on,0,57,--,64,0
4212,note_off,0,57,--,64,480
4213,note_on,0,52,--,64,0
4214,pitchwheel,0,--,2457,--,0
4215,note_off,0,52,--,64,320
4216,note_on,0,51,--,64,0
4217,pitchwheel,0,--,819,--,0
4218,note_off,0,51,--,64,480
4219,note_on,0,53,--,64,0
4220,note_off,0,53,--,64,160
4221,note_on,0,50,--,64,0
4222,pitchwheel,0,--,819,--,0
4223,note_off,0,50,--,64,320
4224,note_on,0,57,--,64,0
4225,pitchwheel,0,--,2047,--,0
4226,note_off,0,57,--,64,480
4227,note_on,0,59,--,64,0
4228,pitchwheel,0,--,3276,--,0
4229,note_off,0,59,--,64,160
4230,note_on,0,53,--,64,0
4231,note_off,0,53,--,64,320
4232,note_on,0,55,--,64,0
4233,pitchwheel,0,--,2866,--,0
4234,note_off,0,55,--,64,320
4235,note_on,0,50,--,64,0
4236,pitchwheel,0,--,819,--,0
4237,note_off,0,50,--,64,160
4238,note_on,0,44,--,64,0
4239,pitchwheel,0,--,2047,--,0
4240,note_off,0,44,--,64,160
4241,note_on,0,48,--,64,0
4242,pitchwheel,0,--,3276,--,0
4243,note_off,0,48,--,64,320
4244,note_on,0,43,--,64,0
4245,pitchwheel,0,--,2866,--,0
4246,note_off,0,43,--,64,320
4247,note_on,0,40,--,64,0
4248,pitchwheel,0,--,2457,--,0
4249,note_off,0,40,--,64,320
4250,note_on,0,47,--,64,0
4251,pitchwheel,0,--,3685,--,0
4252,note_off,0,47,--,64,320
4253,note_on,0,36,--,64,0
4254,pitchwheel,0,--,3276,--,0
4255,note_off,0,36,--,64,320
4256,note_on,0,38,--,64,0
4257,note_off,0,38,--,64,320
4258,note_on,0,45,--,64,0
4259,note_off,0,45,--,64,320
4260,note_on,0,44,--,64,0
4261,pitchwheel,0,--,2047,--,0
4262,note_off,0,44,--,64,320
4263,note_on,0,46,--,64,0
4264,pitchwheel,0,--,1638,--,0
4265,note_off,0,46,--,64,160
4266,note_on,0,45,--,64,0
4267,pitchwheel,0,--,1638,--,0
4268,note_off,0,45,--,64,160
4269,note_on,0,41,--,64,0
4270,pitchwheel,0,--,1228,--,0
4271,note_off,0,41,--,64,320
4272,note_on,0,41,--,64,0
4273,note_off,0,41,--,64,480
4274,note_on,0,45,--,64,0
4275,pitchwheel,0,--,3276,--,0
4276,note_off,0,45,--,64,160
4277,note_on,0,40,--,64,0
4278,note_off,0,40,--,64,320
4279,note_on,0,41,--,64,0
4280,note_off,0,41,--,64,480
4281,note_on,0,40,--,64,0
4282,pitchwheel,0,--,2457,--,0
4283,note_off,0,40,--,64,160
4284,note_on,0,45,--,64,0
4285,pitchwheel,0,--,1638,--,0
4286,note_off,0,45,--,64,320
4287,note_on,0,44,--,64,0
4288,note_off,0,44,--,64,320
4289,note_on,0,36,--,64,0
4290,pitchwheel,0,--,2047,--,0
4291,note_off,0,36,--,64,160
4292,note_on,0,45,--,64,0
4293,note_off,0,45,--,64,160
4294,note_on,0,47,--,64,0
4295,pitchwheel,0,--,2457,--,0
4296,note_off,0,47,--,64,320
4297,note_on,0,43,--,64,0
4298,pitchwheel,0,--,409,--,0
4299,note_off,0,43,--,64,320
4300,note_on,0,43,--,64,0
4301,pitchwheel,0,--,1638,--,0
4302,note_off,0,43,--,64,160
4303,note_on,0,43,--,64,0
4304,note_off,0,43,--,64,480
4305,note_on,0,44,--,64,0
4306,pitchwheel,0,--,2047,--,0
4307,note_off,0,44,--,64,320
4308,note_on,0,43,--,64,0
4309,note_off,0,43,--,64,320
4310,note_on,0,46,--,64,0
4311,pitchwheel,0,--,1638,--,0
4312,note_off,0,46,--,64,320
4313,note_on,0,36,--,64,0
4314,pitchwheel,0,--,2047,--,0
4315,note_off,0,36,--,64,320
4316,note_on,0,36,--,64,0
4317,pitchwheel,0,--,819,--,0
4318,note_off,0,36,--,64,160
4319,note_on,0,47,--,64,0
4320,pitchwheel,0,--,2457,--,0
4321,note_off,0,47,--,64,160
4322,note_on,0,47,--,64,0
4323,pitchwheel,0,--,3276,--,0
4324,note_off,0,47,--,64,320
4325,note_on,0,46,--,64,0
4326,pitchwheel,0,--,1638,--,0
4327,note_off,0,46,--,64,320
4328,note_on,0,45,--,64,0
4329,note_off,0,45,--,64,160
4330,note_on,0,38,--,64,0
4331,pitchwheel,0,--,1228,--,0
4332,note_off,0,38,--,64,160
4333,note_on,0,38,--,64,0
4334,pitchwheel,0,--,3685,--,0
4335,note_off,0,38,--,64,320
4336,note_on,0,38,--,64,0
4337,pitchwheel,0,--,2457,--,0
4338,note_off,0,38,--,64,320
4339,note_on,0,39,--,64,0
4340,pitchwheel,0,--,819,--,0
4341,note_off,0,39,--,64,160
4342,note_on,0,40,--,64,0
4343,pitchwheel,0,--,2457,--,0
4344,note_off,0,40,--,64,480
4345,note_on,0,38,--,64,0
4346,note_off,0,38,--,64,320
4347,note_on,0,47,--,64,0
4348,pitchwheel,0,--,2457,--,0
4349,note_off,0,47,--,64,160
4350,note_on,0,38,--,64,0
4351,pitchwheel,0,--,2457,--,0
4352,note_off,0,38,--,64,160
4353,note_on,0,46,--,64,0
4354,pitchwheel,0,--,1638,--,0
4355,note_off,0,46,--,64,320
4356,note_on,0,44,--,64,0
4357,pitchwheel,0,--,2047,--,0
4358,note_off,0,44,--,64,320
4359,note_on,0,38,--,64,0
4360,pitchwheel,0,--,2457,--,0
4361,note_off,0,38,--,64,160
4362,note_on,0,38,--,64,0
4363,note_off,0,38,--,64,160
4364,note_on,0,38,--,64,0
4365,pitchwheel,0,--,819,--,0
4366,note_off,0,38,--,64,320
4367,note_on,0,39,--,64,0
4368,pitchwheel,0,--,819,--,0
4369,note_off,0,39,--,64,320
4370,note_on,0,43,--,64,0
4371,pitchwheel,0,--,2866,--,0
4372,note_off,0,43,--,64,160
4373,note_on,0,38,--,64,0
4374,pitchwheel,0,--,2457,--,0
4375,note_off,0,38,--,64,160
4376,note_on,0,43,--,64,0
4377,note_off,0,43,--,64,320
4378,note_on,0,45,--,64,0
4379,pitchwheel,0,--,2047,--,0
4380,note_off,0,45,--,64,320
4381,note_on,0,38,--,64,0
4382,pitchwheel,0,--,819,--,0
4383,note_off,0,38,--,64,160
4384,note_on,0,47,--,64,0
4385,pitchwheel,0,--,3685,--,0
4386,note_off,0,47,--,64,160
4387,note_on,0,38,--,64,0
4388,pitchwheel,0,--,2457,--,0
4389,note_off,0,38,--,64,320
4390,note_on,0,36,--,64,0
4391,pitchwheel,0,--,2047,--,0
4392,note_off,0,36,--,64,320
4393,note_on,0,47,--,64,0
4394,pitchwheel,0,--,3276,--,0
4395,note_off,0,47,--,64,160
4396,note_on,0,41,--,64,0
4397,note_off,0,41,--,64,160
4398,note_on,0,36,--,64,0
4399,pitchwheel,0,--,819,--,0
4400,note_off,0,36,--,64,320
4401,note_on,0,41,--,64,0
4402,pitchwheel,0,--,1228,--,0
4403,note_off,0,41,--,64,320
4404,note_on,0,41,--,64,0
4405,note_off,0,41,--,64,320
4406,note_on,0,40,--,64,0
4407,note_off,0,40,--,64,320
4408,note_on,0,41,--,64,0
4409,note_off,0,41,--,64,640
4410,note_on,0,38,--,64,0
4411,pitchwheel,0,--,819,--,0
4412,note_off,0,38,--,64,320
4413,note_on,0,38,--,64,0
4414,pitchwheel,0,--,2457,--,0
4415,note_off,0,38,--,64,160
4416,note_on,0,43,--,64,0
4417,note_off,0,43,--,64,480
4418,note_on,0,44,--,64,0
4419,note_off,0,44,--,64,480
4420,note_on,0,38,--,64,0
4421,note_off,0,38,--,64,160
4422,note_on,0,36,--,64,0
4423,pitchwheel,0,--,3276,--,0
4424,note_off,0,36,--,64,320
4425,note_on,0,46,--,64,0
4426,note_off,0,46,--,64,320
4427,note_on,0,44,--,64,0
4428,pitchwheel,0,--,2047,--,0
4429,note_off,0,44,--,64,320
4430,note_on,0,47,--,64,0
4431,pitchwheel,0,--,3276,--,0
4432,note_off,0,47,--,64,320
4433,note_on,0,46,--,64,0
4434,note_off,0,46,--,64,320
4435,note_on,0,36,--,64,0
4436,pitchwheel,0,--,2047,--,0
4437,note_off,0,36,--,64,320
4438,note_on,0,36,--,64,0
4439,pitchwheel,0,--,819,--,0
4440,note_off,0,36,--,64,320
4441,note_on,0,38,--,64,0
4442,pitchwheel,0,--,819,--,0
4443,note_off,0,38,--,64,320
4444,note_on,0,36,--,64,0
4445,pitchwheel,0,--,819,--,0
4446,note_off,0,36,--,64,160
4447,note_on,0,45,--,64,0
4448,pitchwheel,0,--,1638,--,0
4449,note_off,0,45,--,64,160
4450,note_on,0,45,--,64,0
4451,note_off,0,45,--,64,320
4452,note_on,0,46,--,64,0
4453,note_off,0,46,--,64,320
4454,note_on,0,45,--,64,0
4455,pitchwheel,0,--,1638,--,0
4456,note_off,0,45,--,64,160
4457,note_on,0,45,--,64,0
4458,pitchwheel,0,--,3276,--,0
4459,note_off,0,45,--,64,160
4460,note_on,0,43,--,64,0
4461,note_off,0,43,--,64,320
4462,note_on,0,46,--,64,0
4463,pitchwheel,0,--,409,--,0
4464,note_off,0,46,--,64,320
4465,note_on,0,43,--,64,0
4466,note_off,0,43,--,64,320
4467,note_on,0,47,--,64,0
4468,pitchwheel,0,--,2457,--,0
4469,note_off,0,47,--,64,320
4470,note_on,0,46,--,64,0
4471,note_off,0,46,--,64,320
4472,note_on,0,45,--,64,0
4473,pitchwheel,0,--,3276,--,0
4474,note_off,0,45,--,64,160
4475,note_on,0,45,--,64,0
4476,note_off,0,45,--,64,160
4477,note_on,0,43,--,64,0
4478,pitchwheel,0,--,2866,--,0
4479,note_off,0,43,--,64,320
4480,note_on,0,43,--,64,0
4481,note_off,0,43,--,64,320
4482,note_on,0,43,--,64,0
4483,pitchwheel,0,--,1638,--,0
4484,note_off,0,43,--,64,160
4485,note_on,0,47,--,64,0
4486,pitchwheel,0,--,3276,--,0
4487,note_off,0,47,--,64,160
4488,note_on,0,43,--,64,0
4489,pitchwheel,0,--,2866,--,0
4490,note_off,0,43,--,64,320
4491,note_on,0,43,--,64,0
4492,note_off,0,43,--,64,320
4493,note_on,0,38,--,64,0
4494,note_off,0,38,--,64,640
4495,note_on,0,38,--,64,0
4496,pitchwheel,0,--,2457,--,0
4497,note_off,0,38,--,64,320
4498,note_on,0,45,--,64,0
4499,note_off,0,45,--,64,160
4500,note_on,0,47,--,64,0
4501,pitchwheel,0,--,2457,--,0
4502,note_off,0,47,--,64,160
4503,note_on,0,40,--,64,0
4504,pitchwheel,0,--,2457,--,0
4505,note_off,0,40,--,64,320
4506,note_on,0,44,--,64,0
4507,note_off,0,44,--,64,320
4508,note_on,0,41,--,64,0
4509,pitchwheel,0,--,1228,--,0
4510,note_off,0,41,--,64,160
4511,note_on,0,40,--,64,0
4512,pitchwheel,0,--,2866,--,0
4513,note_off,0,40,--,64,160
4514,note_on,0,41,--,64,0
4515,note_off,0,41,--,64,320
4516,note_on,0,38,--,64,0
4517,pitchwheel,0,--,1228,--,0
4518,note_off,0,38,--,64,320
4519,note_on,0,43,--,64,0
4520,note_off,0,43,--,64,160
4521,note_on,0,38,--,64,0
4522,pitchwheel,0,--,819,--,0
4523,note_off,0,38,--,64,160
4524,note_on,0,36,--,64,0
4525,pitchwheel,0,--,2047,--,0
4526,note_off,0,36,--,64,320
4527,note_on,0,38,--,64,0
4528,pitchwheel,0,--,2457,--,0
4529,note_off,0,38,--,64,320
4530,note_on,0,43,--,64,0
4531,note_off,0,43,--,64,960
4532,note_on,0,46,--,64,0
4533,note_off,0,46,--,64,160
4534,note_on,0,50,--,64,0
4535,note_off,0,50,--,64,480
4536,note_on,0,48,--,64,0
4537,pitchwheel,0,--,3276,--,0
4538,note_off,0,48,--,64,480
4539,note_on,0,50,--,64,0
4540,pitchwheel,0,--,2457,--,0
4541,note_off,0,50,--,64,160
4542,note_on,0,47,--,64,0
4543,pitchwheel,0,--,2047,--,0
4544,note_off,0,47,--,64,320
4545,note_on,0,45,--,64,0
4546,note_off,0,45,--,64,320
4547,note_on,0,41,--,64,0
4548,pitchwheel,0,--,2457,--,0
4549,note_off,0,41,--,64,160
4550,note_on,0,40,--,64,0
4551,pitchwheel,0,--,2457,--,0
4552,note_off,0,40,--,64,160
4553,note_on,0,36,--,64,0
4554,pitchwheel,0,--,819,--,0
4555,note_off,0,36,--,64,320
4556,note_on,0,47,--,64,0
4557,pitchwheel,0,--,3685,--,0
4558,note_off,0,47,--,64,320
4559,note_on,0,40,--,64,0
4560,pitchwheel,0,--,2457,--,0
4561,note_off,0,40,--,64,160
4562,note_on,0,41,--,64,0
4563,note_off,0,41,--,64,480
4564,note_on,0,41,--,64,0
4565,pitchwheel,0,--,1228,--,0
4566,note_off,0,41,--,64,320
4567,note_on,0,38,--,64,0
4568,pitchwheel,0,--,3685,--,0
4569,note_off,0,38,--,64,320
4570,note_on,0,38,--,64,0
4571,pitchwheel,0,--,819,--,0
4572,note_off,0,38,--,64,320
4573,note_on,0,47,--,64,0
4574,pitchwheel,0,--,3276,--,0
4575,note_off,0,47,--,64,480
4576,note_on,0,48,--,64,0
4577,pitchwheel,0,--,2047,--,0
4578,note_off,0,48,--,64,160
4579,note_on,0,50,--,64,0
4580,note_off,0,50,--,64,320
4581,note_on,0,55,--,64,0
4582,pitchwheel,0,--,1638,--,0
4583,note_off,0,55,--,64,320
4584,note_on,0,59,--,64,0
4585,pitchwheel,0,--,2457,--,0
4586,note_off,0,59,--,64,160
4587,note_on,0,55,--,64,0
4588,note_off,0,55,--,64,160
4589,note_on,0,49,--,64,0
4590,note_off,0,49,--,64,320
4591,note_on,0,50,--,64,0
4592,pitchwheel,0,--,2457,--,0
4593,note_off,0,50,--,64,320
4594,note_on,0,47,--,64,0
4595,pitchwheel,0,--,3276,--,0
4596,note_off,0,47,--,64,160
4597,note_on,0,53,--,64,0
4598,note_off,0,53,--,64,160
4599,note_on,0,58,--,64,0
4600,pitchwheel,0,--,1638,--,0
4601,note_off,0,58,--,64,320
4602,note_on,0,55,--,64,0
4603,pitchwheel,0,--,1638,--,0
4604,note_off,0,55,--,64,320
4605,note_on,0,55,--,64,0
4606,pitchwheel,0,--,409,--,0
4607,note_off,0,55,--,64,320
4608,note_on,0,53,--,64,0
4609,note_off,0,53,--,64,320
4610,note_on,0,58,--,64,0
4611,pitchwheel,0,--,1638,--,0
4612,note_off,0,58,--,64,320
4613,note_on,0,50,--,64,0
4614,pitchwheel,0,--,3685,--,0
4615,note_off,0,50,--,64,320
4616,note_on,0,48,--,64,0
4617,pitchwheel,0,--,2047,--,0
4618,note_off,0,48,--,64,320
4619,note_on,0,57,--,64,0
4620,pitchwheel,0,--,1638,--,0
4621,note_off,0,57,--,64,320
4622,note_on,0,48,--,64,0
4623,pitchwheel,0,--,819,--,0
4624,note_off,0,48,--,64,160
4625,note_on,0,57,--,64,0
4626,pitchwheel,0,--,1638,--,0
4627,note_off,0,57,--,64,160
4628,note_on,0,53,--,64,0
4629,note_off,0,53,--,64,320
4630,note_on,0,52,--,64,0
4631,pitchwheel,0,--,2866,--,0
4632,note_off,0,52,--,64,480
4633,note_on,0,57,--,64,0
4634,pitchwheel,0,--,2047,--,0
4635,note_off,0,57,--,64,160
4636,note_on,0,51,--,64,0
4637,pitchwheel,0,--,819,--,0
4638,note_off,0,51,--,64,320
4639,note_on,0,53,--,64,0
4640,note_off,0,53,--,64,320
4641,note_on,0,48,--,64,0
4642,pitchwheel,0,--,2047,--,0
4643,note_off,0,48,--,64,160
4644,note_on,0,57,--,64,0
4645,pitchwheel,0,--,1638,--,0
4646,note_off,0,57,--,64,160
4647,note_on,0,52,--,64,0
4648,pitchwheel,0,--,2457,--,0
4649,note_off,0,52,--,64,320
4650,note_on,0,48,--,64,0
4651,pitchwheel,0,--,3276,--,0
4652,note_off,0,48,--,64,320
4653,note_on,0,47,--,64,0
4654,pitchwheel,0,--,2047,--,0
4655,note_off,0,47,--,64,160
4656,note_on,0,45,--,64,0
4657,note_off,0,45,--,64,160
4658,note_on,0,46,--,64,0
4659,note_off,0,46,--,64,320
4660,note_on,0,43,--,64,0
4661,pitchwheel,0,--,409,--,0
4662,note_off,0,43,--,64,320
4663,note_on,0,47,--,64,0
4664,pitchwheel,0,--,3685,--,0
4665,note_off,0,47,--,64,160
4666,note_on,0,47,--,64,0
4667,pitchwheel,0,--,3276,--,0
4668,note_off,0,47,--,64,480
4669,note_on,0,53,--,64,0
4670,note_off,0,53,--,64,320
4671,note_on,0,50,--,64,0
4672,pitchwheel,0,--,819,--,0
4673,note_off,0,50,--,64,320
4674,note_on,0,51,--,64,0
4675,pitchwheel,0,--,819,--,0
4676,note_off,0,51,--,64,320
4677,note_on,0,48,--,64,0
4678,pitchwheel,0,--,819,--,0
4679,note_off,0,48,--,64,320
4680,note_on,0,48,--,64,0
4681,pitchwheel,0,--,2047,--,0
4682,note_off,0,48,--,64,160
4683,note_on,0,43,--,64,0
4684,pitchwheel,0,--,1638,--,0
4685,note_off,0,43,--,64,160
4686,note_on,0,43,--,64,0
4687,note_off,0,43,--,64,320
4688,note_on,0,44,--,64,0
4689,note_off,0,44,--,64,320
4690,note_on,0,45,--,64,0
4691,note_off,0,45,--,64,160
4692,note_on,0,47,--,64,0
4693,pitchwheel,0,--,2047,--,0
4694,note_off,0,47,--,64,480
4695,note_on,0,47,--,64,0
4696,pitchwheel,0,--,3276,--,0
4697,note_off,0,47,--,64,320
4698,note_on,0,47,--,64,0
4699,pitchwheel,0,--,3685,--,0
4700,note_off,0,47,--,64,160
4701,note_on,0,50,--,64,0
4702,pitchwheel,0,--,819,--,0
4703,note_off,0,50,--,64,480
4704,note_on,0,51,--,64,0
4705,pitchwheel,0,--,819,--,0
4706,note_off,0,51,--,64,320
4707,note_on,0,46,--,64,0
4708,pitchwheel,0,--,409,--,0
4709,note_off,0,46,--,64,160
4710,note_on,0,50,--,64,0
4711,pitchwheel,0,--,1228,--,0
4712,note_off,0,50,--,64,160
4713,note_on,0,50,--,64,0
4714,note_off,0,50,--,64,320
4715,note_on,0,47,--,64,0
4716,pitchwheel,0,--,2047,--,0
4717,note_off,0,47,--,64,320
4718,note_on,0,53,--,64,0
4719,pitchwheel,0,--,1228,--,0
4720,note_off,0,53,--,64,160
4721,note_on,0,53,--,64,0
4722,note_off,0,53,--,64,160
4723,note_on,0,57,--,64,0
4724,pitchwheel,0,--,1638,--,0
4725,note_off,0,57,--,64,320
4726,note_on,0,56,--,64,0
4727,note_off,0,56,--,64,320
4728,note_on,0,53,--,64,0
4729,note_off,0,53,--,64,160
4730,note_on,0,50,--,64,0
4731,pitchwheel,0,--,3685,--,0
4732,note_off,0,50,--,64,160
4733,note_on,0,45,--,64,0
4734,pitchwheel,0,--,1638,--,0
4735,note_off,0,45,--,64,320
4736,note_on,0,48,--,64,0
4737,pitchwheel,0,--,2047,--,0
4738,note_off,0,48,--,64,320
4739,note_on,0,48,--,64,0
4740,pitchwheel,0,--,3276,--,0
4741,note_off,0,48,--,64,160
4742,note_on,0,52,--,64,0
4743,pitchwheel,0,--,2457,--,0
4744,note_off,0,52,--,64,160
4745,note_on,0,50,--,64,0
4746,pitchwheel,0,--,2457,--,0
4747,note_off,0,50,--,64,320
4748,note_on,0,45,--,64,0
4749,note_off,0,45,--,64,320
4750,note_on,0,43,--,64,0
4751,note_off,0,43,--,64,160
4752,note_on,0,40,--,64,0
4753,pitchwheel,0,--,2866,--,0
4754,note_off,0,40,--,64,160
4755,note_on,0,43,--,64,0
4756,pitchwheel,0,--,409,--,0
4757,note_off,0,43,--,64,320
4758,note_on,0,43,--,64,0
4759,pitchwheel,0,--,1638,--,0
4760,note_off,0,43,--,64,320
4761,note_on,0,43,--,64,0
4762,pitchwheel,0,--,2866,--,0
4763,note_off,0,43,--,64,320
4764,note_on,0,43,--,64,0
4765,note_off,0,43,--,64,320
4766,note_on,0,38,--,64,0
4767,pitchwheel,0,--,2457,--,0
4768,note_off,0,38,--,64,160
4769,note_on,0,41,--,64,0
4770,note_off,0,41,--,64,480
4771,note_on,0,36,--,64,0
4772,pitchwheel,0,--,2047,--,0
4773,note_off,0,36,--,64,320
4774,note_on,0,38,--,64,0
4775,pitchwheel,0,--,2457,--,0
4776,note_off,0,38,--,64,160
4777,note_on,0,45,--,64,0
4778,pitchwheel,0,--,1638,--,0
4779,note_off,0,45,--,64,160
4780,note_on,0,38,--,64,0
4781,pitchwheel,0,--,3685,--,0
4782,note_off,0,38,--,64,320
4783,note_on,0,46,--,64,0
4784,note_off,0,46,--,64,480
4785,note_on,0,46,--,64,0
4786,pitchwheel,0,--,1638,--,0
4787,note_off,0,46,--,64,320
4788,note_on,0,40,--,64,0
4789,pitchwheel,0,--,2457,--,0
4790,note_off,0,40,--,64,320
4791,note_on,0,36,--,64,0
4792,pitchwheel,0,--,2047,--,0
4793,note_off,0,36,--,64,320
4794,note_on,0,40,--,64,0
4795,pitchwheel,0,--,2457,--,0
4796,note_off,0,40,--,64,320
4797,note_on,0,41,--,64,0
4798,pitchwheel,0,--,2457,--,0
4799,note_off,0,41,--,64,320
4800,note_on,0,36,--,64,0
4801,pitchwheel,0,--,819,--,0
4802,note_off,0,36,--,64,320
4803,note_on,0,36,--,64,0
4804,pitchwheel,0,--,2047,--,0
4805,note_off,0,36,--,64,320
4806,note_on,0,45,--,64,0
4807,pitchwheel,0,--,1638,--,0
4808,note_off,0,45,--,64,320
4809,note_on,0,47,--,64,0
4810,pitchwheel,0,--,2457,--,0
4811,note_off,0,47,--,64,160
4812,note_on,0,43,--,64,0
4813,note_off,0,43,--,64,160
4814,note_on,0,45,--,64,0
4815,note_off,0,45,--,64,320
4816,note_on,0,46,--,64,0
4817,note_off,0,46,--,64,320
4818,note_on,0,43,--,64,0
4819,note_off,0,43,--,64,160
4820,note_on,0,40,--,64,0
4821,pitchwheel,0,--,2866,--,0
4822,note_off,0,40,--,64,160
4823,note_on,0,47,--,64,0
4824,pitchwheel,0,--,3276,--,0
4825,note_off,0,47,--,64,320
4826,note_on,0,41,--,64,0
4827,note_off,0,41,--,64,320
4828,note_on,0,38,--,64,0
4829,pitchwheel,0,--,3685,--,0
4830,note_off,0,38,--,64,160
4831,note_on,0,47,--,64,0
4832,pitchwheel,0,--,3276,--,0
4833,note_off,0,47,--,64,160
4834,note_on,0,45,--,64,0
4835,pitchwheel,0,--,2047,--,0
4836,note_off,0,45,--,64,320
4837,note_on,0,46,--,64,0
4838,pitchwheel,0,--,1638,--,0
4839,note_off,0,46,--,64,320
4840,note_on,0,44,--,64,0
4841,pitchwheel,0,--,2047,--,0
4842,note_off,0,44,--,64,160
4843,note_on,0,45,--,64,0
4844,note_off,0,45,--,64,160
4845,note_on,0,38,--,64,0
4846,pitchwheel,0,--,3685,--,0
4847,note_off,0,38,--,64,320
4848,note_on,0,45,--,64,0
4849,pitchwheel,0,--,1638,--,0
4850,note_off,0,45,--,64,320
4851,note_on,0,45,--,64,0
4852,pitchwheel,0,--,2047,--,0
4853,note_off,0,45,--,64,160
4854,note_on,0,40,--,64,0
4855,pitchwheel,0,--,2457,--,0
4856,note_off,0,40,--,64,160
4857,note_on,0,41,--,64,0
4858,note_off,0,41,--,64,320
4859,note_on,0,40,--,64,0
4860,pitchwheel,0,--,2866,--,0
4861,note_off,0,40,--,64,320
4862,note_on,0,43,--,64,0
4863,pitchwheel,0,--,409,--,0
4864,note_off,0,43,--,64,320
4865,note_on,0,45,--,64,0
4866,pitchwheel,0,--,3276,--,0
4867,note_off,0,45,--,64,320
4868,note_on,0,41,--,64,0
4869,note_off,0,41,--,64,320
4870,note_on,0,46,--,64,0
4871,pitchwheel,0,--,409,--,0
4872,note_off,0,46,--,64,320
4873,note_on,0,47,--,64,0
4874,pitchwheel,0,--,3276,--,0
4875,note_off,0,47,--,64,320
4876,note_on,0,46,--,64,0
4877,pitchwheel,0,--,1638,--,0
4878,note_off,0,46,--,64,320
4879,note_on,0,43,--,64,0
4880,pitchwheel,0,--,1638,--,0
4881,note_off,0,43,--,64,160
4882,note_on,0,40,--,64,0
4883,note_off,0,40,--,64,160
4884,note_on,0,43,--,64,0
4885,pitchwheel,0,--,2866,--,0
4886,note_off,0,43,--,64,320
4887,note_on,0,36,--,64,0
4888,pitchwheel,0,--,819,--,0
4889,note_off,0,36,--,64,320
4890,note_on,0,40,--,64,0
4891,note_off,0,40,--,64,160
4892,note_on,0,38,--,64,0
4893,pitchwheel,0,--,819,--,0
4894,note_off,0,38,--,64,160
4895,note_on,0,41,--,64,0
4896,note_off,0,41,--,64,320
4897,note_on,0,36,--,64,0
4898,pitchwheel,0,--,2047,--,0
4899,note_off,0,36,--,64,320
4900,note_on,0,43,--,64,0
4901,note_off,0,43,--,64,160
4902,note_on,0,45,--,64,0
4903,pitchwheel,0,--,2047,--,0
4904,note_off,0,45,--,64,160
4905,note_on,0,44,--,64,0
4906,note_off,0,44,--,64,320
4907,note_on,0,41,--,64,0
4908,note_off,0,41,--,64,320
4909,note_on,0,43,--,64,0
4910,note_off,0,43,--,64,160
4911,note_on,0,36,--,64,0
4912,pitchwheel,0,--,2047,--,0
4913,note_off,0,36,--,64,480
4914,note_on,0,43,--,64,0
4915,pitchwheel,0,--,409,--,0
4916,note_off,0,43,--,64,480
4917,note_on,0,38,--,64,0
4918,pitchwheel,0,--,2457,--,0
4919,note_off,0,38,--,64,160
4920,note_on,0,43,--,64,0
4921,note_off,0,43,--,64,320
4922,note_on,0,45,--,64,0
4923,note_off,0,45,--,64,320
4924,note_on,0,46,--,64,0
4925,note_off,0,46,--,64,160
4926,note_on,0,47,--,64,0
4927,pitchwheel,0,--,3276,--,0
4928,note_off,0,47,--,64,160
4929,note_on,0,41,--,64,0
4930,note_off,0,41,--,64,320
4931,note_on,0,41,--,64,0
4932,pitchwheel,0,--,1228,--,0
4933,note_off,0,41,--,64,320
4934,note_on,0,43,--,64,0
4935,note_off,0,43,--,64,160
4936,note_on,0,47,--,64,0
4937,pitchwheel,0,--,3685,--,0
4938,note_off,0,47,--,64,160
4939,note_on,0,43,--,64,0
4940,pitchwheel,0,--,409,--,0
4941,note_off,0,43,--,64,320
4942,note_on,0,45,--,64,0
4943,note_off,0,45,--,64,480
4944,note_on,0,47,--,64,0
4945,pitchwheel,0,--,3276,--,0
4946,note_off,0,47,--,64,320
4947,note_on,0,47,--,64,0
4948,pitchwheel,0,--,2047,--,0
4949,note_off,0,47,--,64,480
4950,note_on,0,50,--,64,0
4951,pitchwheel,0,--,2457,--,0
4952,note_off,0,50,--,64,160
4953,note_on,0,45,--,64,0
4954,pitchwheel,0,--,1638,--,0
4955,note_off,0,45,--,64,320
4956,note_on,0,47,--,64,0
4957,pitchwheel,0,--,2457,--,0
4958,note_off,0,47,--,64,320
4959,note_on,0,46,--,64,0
4960,pitchwheel,0,--,1638,--,0
4961,note_off,0,46,--,64,160
4962,note_on,0,47,--,64,0
4963,pitchwheel,0,--,3276,--,0
4964,note_off,0,47,--,64,160
4965,note_on,0,47,--,64,0
4966,pitchwheel,0,--,2047,--,0
4967,note_off,0,47,--,64,320
4968,note_on,0,53,--,64,0
4969,note_off,0,53,--,64,320
4970,note_on,0,50,--,64,0
4971,pitchwheel,0,--,819,--,0
4972,note_off,0,50,--,64,160
4973,note_on,0,45,--,64,0
4974,note_off,0,45,--,64,160
4975,note_on,0,39,--,64,0
4976,pitchwheel,0,--,819,--,0
4977,note_off,0,39,--,64,320
4978,note_on,0,46,--,64,0
4979,note_off,0,46,--,64,640
4980,note_on,0,38,--,64,0
4981,note_off,0,38,--,64,320
4982,note_on,0,47,--,64,0
4983,pitchwheel,0,--,2457,--,0
4984,note_off,0,47,--,64,320
4985,note_on,0,38,--,64,0
4986,pitchwheel,0,--,2457,--,0
4987,note_off,0,38,--,64,320
4988,note_on,0,45,--,64,0
4989,note_off,0,45,--,64,320
4990,note_on,0,40,--,64,0
4991,pitchwheel,0,--,2457,--,0
4992,note_off,0,40,--,64,320
4993,note_on,0,41,--,64,0
4994,pitchwheel,0,--,2457,--,0
4995,note_off,0,41,--,64,160
4996,note_on,0,45,--,64,0
4997,pitchwheel,0,--,1638,--,0
4998,note_off,0,45,--,64,160
4999,note_on,0,36,--,64,0
5000,pitchwheel,0,--,819,--,0
5001,note_off,0,36,--,64,320
5002,note_on,0,36,--,64,0
5003,pitchwheel,0,--,2047,--,0
5004,note_off,0,36,--,64,480
5005,note_on,0,45,--,64,0
5006,pitchwheel,0,--,2047,--,0
5007,note_off,0,45,--,64,160
5008,note_on,0,36,--,64,0
5009,pitchwheel,0,--,3276,--,0
5010,note_off,0,36,--,64,320
5011,note_on,0,36,--,64,0
5012,pitchwheel,0,--,2047,--,0
5013,note_off,0,36,--,64,480
5014,note_on,0,38,--,64,0
5015,pitchwheel,0,--,819,--,0
5016,note_off,0,38,--,64,160
5017,note_on,0,45,--,64,0
5018,pitchwheel,0,--,1638,--,0
5019,note_off,0,45,--,64,320
5020,note_on,0,47,--,64,0
5021,pitchwheel,0,--,2457,--,0
5022,note_off,0,47,--,64,480
5023,note_on,0,45,--,64,0
5024,note_off,0,45,--,64,160
5025,note_on,0,46,--,64,0
5026,note_off,0,46,--,64,320
5027,note_on,0,41,--,64,0
5028,note_off,0,41,--,64,320
5029,note_on,0,46,--,64,0
5030,note_off,0,46,--,64,160
5031,note_on,0,43,--,64,0
5032,note_off,0,43,--,64,480
5033,note_on,0,44,--,64,0
5034,note_off,0,44,--,64,320
5035,note_on,0,43,--,64,0
5036,note_off,0,43,--,64,320
5037,note_on,0,41,--,64,0
5038,note_off,0,41,--,64,640
5039,note_on,0,38,--,64,0
5040,pitchwheel,0,--,819,--,0
5041,note_off,0,38,--,64,160
5042,note_on,0,45,--,64,0
5043,pitchwheel,0,--,2047,--,0
5044,note_off,0,45,--,64,160
5045,note_on,0,45,--,64,0
5046,pitchwheel,0,--,1638,--,0
5047,note_off,0,45,--,64,320
5048,note_on,0,45,--,64,0
5049,pitchwheel,0,--,2047,--,0
5050,note_off,0,45,--,64,320
5051,note_on,0,45,--,64,0
5052,note_off,0,45,--,64,160
5053,note_on,0,40,--,64,0
5054,note_off,0,40,--,64,160
5055,note_on,0,45,--,64,0
5056,pitchwheel,0,--,3276,--,0
5057,note_off,0,45,--,64,320
5058,note_on,0,40,--,64,0
5059,pitchwheel,0,--,2457,--,0
5060,note_off,0,40,--,64,320
5061,note_on,0,36,--,64,0
5062,pitchwheel,0,--,3276,--,0
5063,note_off,0,36,--,64,160
5064,note_on,0,40,--,64,0
5065,pitchwheel,0,--,2457,--,0
5066,note_off,0,40,--,64,480
5067,note_on,0,38,--,64,0
5068,note_off,0,38,--,64,320
5069,note_on,0,43,--,64,0
5070,pitchwheel,0,--,1638,--,0
5071,note_off,0,43,--,64,160
5072,note_on,0,38,--,64,0
5073,pitchwheel,0,--,1228,--,0
5074,note_off,0,38,--,64,160
5075,note_on,0,43,--,64,0
5076,pitchwheel,0,--,409,--,0
5077,note_off,0,43,--,64,320
5078,note_on,0,41,--,64,0
5079,note_off,0,41,--,64,320
5080,note_on,0,38,--,64,0
5081,pitchwheel,0,--,2457,--,0
5082,note_off,0,38,--,64,160
5083,note_on,0,43,--,64,0
5084,pitchwheel,0,--,409,--,0
5085,note_off,0,43,--,64,160
5086,note_on,0,38,--,64,0
5087,pitchwheel,0,--,819,--,0
5088,note_off,0,38,--,64,320
5089,note_on,0,46,--,64,0
5090,pitchwheel,0,--,1638,--,0
5091,note_off,0,46,--,64,320
5092,note_on,0,45,--,64,0
5093,pitchwheel,0,--,2047,--,0
5094,note_off,0,45,--,64,160
5095,note_on,0,41,--,64,0
5096,note_off,0,41,--,64,160
5097,note_on,0,41,--,64,0
5098,pitchwheel,0,--,1228,--,0
5099,note_off,0,41,--,64,320
5100,note_on,0,41,--,64,0
5101,note_off,0,41,--,64,320
5102,note_on,0,41,--,64,0
5103,pitchwheel,0,--,2457,--,0
5104,note_off,0,41,--,64,160
5105,note_on,0,47,--,64,0
5106,pitchwheel,0,--,2457,--,0
5107,note_off,0,47,--,64,160
5108,note_on,0,38,--,64,0
5109,pitchwheel,0,--,3685,--,0
5110,note_off,0,38,--,64,320
5111,note_on,0,36,--,64,0
5112,pitchwheel,0,--,819,--,0
5113,note_off,0,36,--,64,320
5114,note_on,0,47,--,64,0
5115,pitchwheel,0,--,3276,--,0
5116,note_off,0,47,--,64,160
5117,note_on,0,40,--,64,0
5118,pitchwheel,0,--,2866,--,0
5119,note_off,0,40,--,64,480
5120,note_on,0,41,--,64,0
5121,note_off,0,41,--,64,320
5122,note_on,0,36,--,64,0
5123,pitchwheel,0,--,819,--,0
5124,note_off,0,36,--,64,320
5125,note_on,0,36,--,64,0
5126,pitchwheel,0,--,3276,--,0
5127,note_off,0,36,--,64,320
5128,note_on,0,41,--,64,0
5129,note_off,0,41,--,64,160
5130,note_on,0,40,--,64,0
5131,pitchwheel,0,--,1638,--,0
5132,note_off,0,40,--,64,160
5133,note_on,0,36,--,64,0
5134,pitchwheel,0,--,2047,--,0
5135,note_off,0,36,--,64,320
5136,note_on,0,47,--,64,0
5137,pitchwheel,0,--,3276,--,0
5138,note_off,0,47,--,64,320
5139,note_on,0,39,--,64,0
5140,pitchwheel,0,--,819,--,0
5141,note_off,0,39,--,64,160
5142,note_on,0,47,--,64,0
5143,pitchwheel,0,--,3276,--,0
5144,note_off,0,47,--,64,160
5145,note_on,0,45,--,64,0
5146,note_off,0,45,--,64,320
5147,note_on,0,45,--,64,0
5148,pitchwheel,0,--,1638,--,0
5149,note_off,0,45,--,64,480
5150,note_on,0,40,--,64,0
5151,note_off,0,40,--,64,160
5152,note_on,0,45,--,64,0
5153,pitchwheel,0,--,1638,--,0
5154,note_off,0,45,--,64,320
5155,note_on,0,46,--,64,0
5156,note_off,0,46,--,64,320
5157,note_on,0,40,--,64,0
5158,note_off,0,40,--,64,320
5159,note_on,0,45,--,64,0
5160,pitchwheel,0,--,1638,--,0
5161,note_off,0,45,--,64,320
5162,note_on,0,46,--,64,0
5163,note_off,0,46,--,64,320
5164,note_on,0,43,--,64,0
5165,pitchwheel,0,--,2866,--,0
5166,note_off,0,43,--,64,320
5167,note_on,0,43,--,64,0
5168,pitchwheel,0,--,1638,--,0
5169,note_off,0,43,--,64,320
5170,note_on,0,40,--,64,0
5171,note_off,0,40,--,64,320
5172,note_on,0,47,--,64,0
5173,pitchwheel,0,--,3685,--,0
5174,note_off,0,47,--,64,160
5175,note_on,0,38,--,64,0
5176,pitchwheel,0,--,819,--,0
5177,note_off,0,38,--,64,160
5178,note_on,0,45,--,64,0
5179,note_off,0,45,--,64,320
5180,note_on,0,39,--,64,0
5181,pitchwheel,0,--,819,--,0
5182,note_off,0,39,--,64,320
5183,note_on,0,43,--,64,0
5184,note_off,0,43,--,64,160
5185,note_on,0,40,--,64,0
5186,pitchwheel,0,--,2866,--,0
5187,note_off,0,40,--,64,480
5188,note_on,0,41,--,64,0
5189,note_off,0,41,--,64,320
5190,note_on,0,43,--,64,0
5191,note_off,0,43,--,64,160
5192,note_on,0,40,--,64,0
5193,pitchwheel,0,--,2457,--,0
5194,note_off,0,40,--,64,160
5195,note_on,0,46,--,64,0
5196,pitchwheel,0,--,409,--,0
5197,note_off,0,46,--,64,320
5198,note_on,0,41,--,64,0
5199,note_off,0,41,--,64,320
5200,note_on,0,47,--,64,0
5201,pitchwheel,0,--,2047,--,0
5202,note_off,0,47,--,64,160
5203,note_on,0,45,--,64,0
5204,note_off,0,45,--,64,160
5205,note_on,0,40,--,64,0
5206,pitchwheel,0,--,2866,--,0
5207,note_off,0,40,--,64,320
5208,note_on,0,40,--,64,0
5209,pitchwheel,0,--,2457,--,0
5210,note_off,0,40,--,64,320
5211,note_on,0,38,--,64,0
5212,pitchwheel,0,--,819,--,0
5213,note_off,0,38,--,64,160
5214,note_on,0,40,--,64,0
5215,pitchwheel,0,--,2457,--,0
5216,note_off,0,40,--,64,160
5217,note_on,0,38,--,64,0
5218,pitchwheel,0,--,3685,--,0
5219,note_off,0,38,--,64,320
5220,note_on,0,41,--,64,0
5221,pitchwheel,0,--,2457,--,0
5222,note_off,0,41,--,64,320
5223,note_on,0,36,--,64,0
5224,pitchwheel,0,--,2047,--,0
5225,note_off,0,36,--,64,320
5226,note_on,0,39,--,64,0
5227,pitchwheel,0,--,819,--,0
5228,note_off,0,39,--,64,320
5229,note_on,0,38,--,64,0
5230,pitchwheel,0,--,2457,--,0
5231,note_off,0,38,--,64,320
5232,note_on,0,45,--,64,0
5233,note_off,0,45,--,64,160
5234,note_on,0,45,--,64,0
5235,pitchwheel,0,--,2047,--,0
5236,note_off,0,45,--,64,160
5237,note_on,0,47,--,64,0
5238,pitchwheel,0,--,2457,--,0
5239,note_off,0,47,--,64,320
5240,note_on,0,36,--,64,0
5241,pitchwheel,0,--,3276,--,0
5242,note_off,0,36,--,64,320
5243,note_on,0,36,--,64,0
5244,pitchwheel,0,--,2047,--,0
5245,note_off,0,36,--,64,160
5246,note_on,0,44,--,64,0
5247,pitchwheel,0,--,2047,--,0
5248,note_off,0,44,--,64,160
5249,note_on,0,36,--,64,0
5250,pitchwheel,0,--,819,--,0
5251,note_off,0,36,--,64,320
5252,note_on,0,41,--,64,0
5253,note_off,0,41,--,64,320
5254,note_on,0,36,--,64,0
5255,pitchwheel,0,--,3276,--,0
5256,note_off,0,36,--,64,160
5257,note_on,0,43,--,64,0
5258,note_off,0,43,--,64,160
5259,note_on,0,38,--,64,0
5260,pitchwheel,0,--,2457,--,0
5261,note_off,0,38,--,64,320
5262,note_on,0,44,--,64,0
5263,note_off,0,44,--,64,320
5264,note_on,0,47,--,64,0
5265,pitchwheel,0,--,3276,--,0
5266,note_off,0,47,--,64,160
5267,note_on,0,45,--,64,0
5268,pitchwheel,0,--,2047,--,0
5269,note_off,0,45,--,64,160
5270,note_on,0,36,--,64,0
5271,pitchwheel,0,--,3276,--,0
5272,note_off,0,36,--,64,320
5273,note_on,0,47,--,64,0
5274,pitchwheel,0,--,2047,--,0
5275,note_off,0,47,--,64,320
5276,note_on,0,46,--,64,0
5277,note_off,0,46,--,64,160
5278,note_on,0,47,--,64,0
5279,pitchwheel,0,--,3685,--,0
5280,note_off,0,47,--,64,480
5281,note_on,0,45,--,64,0
5282,pitchwheel,0,--,2047,--,0
5283,note_off,0,45,--,64,320
5284,note_on,0,38,--,64,0
5285,note_off,0,38,--,64,160
5286,note_on,0,37,--,64,0
5287,note_off,0,37,--,64,320
5288,note_on,0,38,--,64,0
5289,pitchwheel,0,--,819,--,0
5290,note_off,0,38,--,64,320
5291,note_on,0,38,--,64,0
5292,pitchwheel,0,--,2457,--,0
5293,note_off,0,38,--,64,160
5294,note_on,0,45,--,64,0
5295,pitchwheel,0,--,1638,--,0
5296,note_off,0,45,--,64,160
5297,note_on,0,43,--,64,0
5298,pitchwheel,0,--,2866,--,0
5299,note_off,0,43,--,64,320
5300,note_on,0,43,--,64,0
5301,pitchwheel,0,--,1638,--,0
5302,note_off,0,43,--,64,320
5303,note_on,0,38,--,64,0
5304,pitchwheel,0,--,819,--,0
5305,note_off,0,38,--,64,160
5306,note_on,0,47,--,64,0
5307,pitchwheel,0,--,3685,--,0
5308,note_off,0,47,--,64,160
5309,note_on,0,47,--,64,0
5310,pitchwheel,0,--,2457,--,0
5311,note_off,0,47,--,64,320
5312,note_on,0,36,--,64,0
5313,pitchwheel,0,--,819,--,0
5314,note_off,0,36,--,64,320
5315,note_on,0,45,--,64,0
5316,pitchwheel,0,--,2047,--,0
5317,note_off,0,45,--,64,320
5318,note_on,0,40,--,64,0
5319,pitchwheel,0,--,2457,--,0
5320,note_off,0,40,--,64,320
5321,note_on,0,36,--,64,0
5322,pitchwheel,0,--,3276,--,0
5323,note_off,0,36,--,64,480
5324,note_on,0,41,--,64,0
5325,note_off,0,41,--,64,480
5326,note_on,0,45,--,64,0
5327,pitchwheel,0,--,2047,--,0
5328,note_off,0,45,--,64,320
5329,note_on,0,41,--,64,0
5330,pitchwheel,0,--,2457,--,0
5331,note_off,0,41,--,64,160
5332,note_on,0,45,--,64,0
5333,pitchwheel,0,--,1638,--,0
5334,note_off,0,45,--,64,160
5335,note_on,0,45,--,64,0
5336,pitchwheel,0,--,3276,--,0
5337,note_off,0,45,--,64,320
5338,note_on,0,50,--,64,0
5339,pitchwheel,0,--,3685,--,0
5340,note_off,0,50,--,64,320
5341,note_on,0,55,--,64,0
5342,note_off,0,55,--,64,160
5343,note_on,0,50,--,64,0
5344,pitchwheel,0,--,2457,--,0
5345,note_off,0,50,--,64,160
5346,note_on,0,56,--,64,0
5347,note_off,0,56,--,64,320
5348,note_on,0,50,--,64,0
5349,pitchwheel,0,--,3685,--,0
5350,note_off,0,50,--,64,320
5351,note_on,0,47,--,64,0
5352,pitchwheel,0,--,3276,--,0
5353,note_off,0,47,--,64,320
5354,note_on,0,43,--,64,0
5355,pitchwheel,0,--,409,--,0
5356,note_off,0,43,--,64,640
5357,note_on,0,41,--,64,0
5358,note_off,0,41,--,64,320
5359,note_on,0,47,--,64,0
5360,pitchwheel,0,--,3685,--,0
5361,note_off,0,47,--,64,320
5362,note_on,0,40,--,64,0
5363,note_off,0,40,--,64,320
5364,note_on,0,36,--,64,0
5365,pitchwheel,0,--,819,--,0
5366,note_off,0,36,--,64,160
5367,note_on,0,47,--,64,0
5368,pitchwheel,0,--,3276,--,0
5369,note_off,0,47,--,64,160
5370,note_on,0,36,--,64,0
5371,pitchwheel,0,--,2047,--,0
5372,note_off,0,36,--,64,320
5373,note_on,0,36,--,64,0
5374,pitchwheel,0,--,819,--,0
5375,note_off,0,36,--,64,480
5376,note_on,0,41,--,64,0
5377,note_off,0,41,--,64,160
5378,note_on,0,36,--,64,0
5379,pitchwheel,0,--,3276,--,0
5380,note_off,0,36,--,64,320
5381,note_on,0,40,--,64,0
5382,pitchwheel,0,--,1638,--,0
5383,note_off,0,40,--,64,320
5384,note_on,0,41,--,64,0
5385,note_off,0,41,--,64,160
5386,note_on,0,43,--,64,0
5387,note_off,0,43,--,64,160
5388,note_on,0,45,--,64,0
5389,pitchwheel,0,--,1638,--,0
5390,note_off,0,45,--,64,320
5391,note_on,0,44,--,64,0
5392,note_off,0,44,--,64,320
5393,note_on,0,38,--,64,0
5394,pitchwheel,0,--,2457,--,0
5395,note_off,0,38,--,64,160
5396,note_on,0,45,--,64,0
5397,note_off,0,45,--,64,160
5398,note_on,0,47,--,64,0
5399,pitchwheel,0,--,3276,--,0
5400,note_off,0,47,--,64,320
5401,note_on,0,36,--,64,0
5402,pitchwheel,0,--,819,--,0
5403,note_off,0,36,--,64,320
5404,note_on,0,39,--,64,0
5405,pitchwheel,0,--,819,--,0
5406,note_off,0,39,--,64,160
5407,note_on,0,38,--,64,0
5408,pitchwheel,0,--,819,--,0
5409,note_off,0,38,--,64,480
5410,note_on,0,39,--,64,0
5411,pitchwheel,0,--,819,--,0
5412,note_off,0,39,--,64,320
5413,note_on,0,47,--,64,0
5414,pitchwheel,0,--,3276,--,0
5415,note_off,0,47,--,64,320
5416,note_on,0,46,--,64,0
5417,note_off,0,46,--,64,320
5418,note_on,0,45,--,64,0
5419,pitchwheel,0,--,2047,--,0
5420,note_off,0,45,--,64,320
5421,note_on,0,45,--,64,0
5422,pitchwheel,0,--,3276,--,0
5423,note_off,0,45,--,64,160
5424,note_on,0,47,--,64,0
5425,pitchwheel,0,--,2457,--,0
5426,note_off,0,47,--,64,160
5427,note_on,0,40,--,64,0
5428,pitchwheel,0,--,2457,--,0
5429,note_off,0,40,--,64,320
5430,note_on,0,41,--,64,0
5431,pitchwheel,0,--,2457,--,0
5432,note_off,0,41,--,64,320
5433,note_on,0,45,--,64,0
5434,note_off,0,45,--,64,160
5435,note_on,0,43,--,64,0
5436,note_off,0,43,--,64,480
5437,note_on,0,38,--,64,0
5438,pitchwheel,0,--,2457,--,0
5439,note_off,0,38,--,64,320
5440,note_on,0,39,--,64,0
5441,pitchwheel,0,--,819,--,0
5442,note_off,0,39,--,64,160
5443,note_on,0,40,--,64,0
5444,pitchwheel,0,--,2457,--,0
5445,note_off,0,40,--,64,480
5446,note_on,0,36,--,64,0
5447,pitchwheel,0,--,3276,--,0
5448,note_off,0,36,--,64,320
5449,note_on,0,45,--,64,0
5450,pitchwheel,0,--,2047,--,0
5451,note_off,0,45,--,64,160
5452,note_on,0,36,--,64,0
5453,pitchwheel,0,--,819,--,0
5454,note_off,0,36,--,64,160
5455,note_on,0,46,--,64,0
5456,note_off,0,46,--,64,320
5457,note_on,0,44,--,64,0
5458,pitchwheel,0,--,2047,--,0
5459,note_off,0,44,--,64,320
5460,note_on,0,43,--,64,0
5461,pitchwheel,0,--,2866,--,0
5462,note_off,0,43,--,64,160
5463,note_on,0,38,--,64,0
5464,note_off,0,38,--,64,160
5465,note_on,0,40,--,64,0
5466,pitchwheel,0,--,2457,--,0
5467,note_off,0,40,--,64,320
5468,note_on,0,38,--,64,0
5469,pitchwheel,0,--,3685,--,0
5470,note_off,0,38,--,64,320
5471,note_on,0,38,--,64,0
5472,pitchwheel,0,--,1228,--,0
5473,note_off,0,38,--,64,160
5474,note_on,0,38,--,64,0
5475,pitchwheel,0,--,2457,--,0
5476,note_off,0,38,--,64,160
5477,note_on,0,36,--,64,0
5478,pitchwheel,0,--,2047,--,0
5479,note_off,0,36,--,64,320
5480,note_on,0,45,--,64,0
5481,pitchwheel,0,--,3276,--,0
5482,note_off,0,45,--,64,480
5483,note_on,0,43,--,64,0
5484,note_off,0,43,--,64,160
5485,note_on,0,38,--,64,0
5486,note_off,0,38,--,64,320
5487,note_on,0,45,--,64,0
5488,note_off,0,45,--,64,320
5489,note_on,0,43,--,64,0
5490,note_off,0,43,--,64,160
5491,note_on,0,45,--,64,0
5492,pitchwheel,0,--,3276,--,0
5493,note_off,0,45,--,64,160
5494,note_on,0,46,--,64,0
5495,pitchwheel,0,--,1638,--,0
5496,note_off,0,46,--,64,320
5497,note_on,0,45,--,64,0
5498,pitchwheel,0,--,2047,--,0
5499,note_off,0,45,--,64,320
5500,note_on,0,43,--,64,0
5501,note_off,0,43,--,64,320
5502,note_on,0,43,--,64,0
5503,note_off,0,43,--,64,320
5504,note_on,0,41,--,64,0
5505,note_off,0,41,--,64,640
5506,note_on,0,38,--,64,0
5507,pitchwheel,0,--,2457,--,0
5508,note_off,0,38,--,64,320
5509,note_on,0,44,--,64,0
5510,note_off,0,44,--,64,160
5511,note_on,0,45,--,64,0
5512,pitchwheel,0,--,1638,--,0
5513,note_off,0,45,--,64,160
5514,note_on,0,36,--,64,0
5515,pitchwheel,0,--,2047,--,0
5516,note_off,0,36,--,64,320
5517,note_on,0,46,--,64,0
5518,pitchwheel,0,--,409,--,0
5519,note_off,0,46,--,64,480
5520,note_on,0,41,--,64,0
5521,note_off,0,41,--,64,160
5522,note_on,0,43,--,64,0
5523,pitchwheel,0,--,409,--,0
5524,note_off,0,43,--,64,320
5525,note_on,0,46,--,64,0
5526,note_off,0,46,--,64,320
5527,note_on,0,44,--,64,0
5528,pitchwheel,0,--,2047,--,0
5529,note_off,0,44,--,64,320
5530,note_on,0,47,--,64,0
5531,pitchwheel,0,--,3276,--,0
5532,note_off,0,47,--,64,320
5533,note_on,0,46,--,64,0
5534,pitchwheel,0,--,1638,--,0
5535,note_off,0,46,--,64,320
5536,note_on,0,36,--,64,0
5537,pitchwheel,0,--,819,--,0
5538,note_off,0,36,--,64,320
5539,note_on,0,47,--,64,0
5540,pitchwheel,0,--,3685,--,0
5541,note_off,0,47,--,64,320
5542,note_on,0,45,--,64,0
5543,pitchwheel,0,--,1638,--,0
5544,note_off,0,45,--,64,320
5545,note_on,0,45,--,64,0
5546,pitchwheel,0,--,2047,--,0
5547,note_off,0,45,--,64,160
5548,note_on,0,47,--,64,0
5549,pitchwheel,0,--,3276,--,0
5550,note_off,0,47,--,64,160
5551,note_on,0,45,--,64,0
5552,note_off,0,45,--,64,320
5553,note_on,0,46,--,64,0
5554,pitchwheel,0,--,1638,--,0
5555,note_off,0,46,--,64,320
5556,note_on,0,38,--,64,0
5557,pitchwheel,0,--,819,--,0
5558,note_off,0,38,--,64,160
5559,note_on,0,41,--,64,0
5560,note_off,0,41,--,64,160
5561,note_on,0,36,--,64,0
5562,pitchwheel,0,--,3276,--,0
5563,note_off,0,36,--,64,320
5564,note_on,0,40,--,64,0
5565,pitchwheel,0,--,2866,--,0
5566,note_off,0,40,--,64,320
5567,note_on,0,36,--,64,0
5568,pitchwheel,0,--,2047,--,0
5569,note_off,0,36,--,64,160
5570,note_on,0,38,--,64,0
5571,pitchwheel,0,--,819,--,0
5572,note_off,0,38,--,64,160
5573,note_on,0,47,--,64,0
5574,pitchwheel,0,--,2457,--,0
5575,note_off,0,47,--,64,320
5576,note_on,0,45,--,64,0
5577,pitchwheel,0,--,2047,--,0
5578,note_off,0,45,--,64,320
5579,note_on,0,40,--,64,0
5580,note_off,0,40,--,64,160
5581,note_on,0,45,--,64,0
5582,note_off,0,45,--,64,160
5583,note_on,0,38,--,64,0
5584,pitchwheel,0,--,2457,--,0
5585,note_off,0,38,--,64,320
5586,note_on,0,40,--,64,0
5587,pitchwheel,0,--,2457,--,0
5588,note_off,0,40,--,64,320
5589,note_on,0,39,--,64,0
5590,pitchwheel,0,--,819,--,0
5591,note_off,0,39,--,64,160
5592,note_on,0,38,--,64,0
5593,pitchwheel,0,--,819,--,0
5594,note_off,0,38,--,64,160
5595,note_on,0,43,--,64,0
5596,pitchwheel,0,--,1638,--,0
5597,note_off,0,43,--,64,320
5598,note_on,0,46,--,64,0
5599,note_off,0,46,--,64,320
5600,note_on,0,50,--,64,0
5601,note_off,0,50,--,64,320
5602,note_on,0,48,--,64,0
5603,pitchwheel,0,--,3276,--,0
5604,note_off,0,48,--,64,320
5605,note_on,0,50,--,64,0
5606,pitchwheel,0,--,2457,--,0
5607,note_off,0,50,--,64,320
5608,note_on,0,48,--,64,0
5609,pitchwheel,0,--,2047,--,0
5610,note_off,0,48,--,64,160
5611,note_on,0,47,--,64,0
5612,pitchwheel,0,--,2457,--,0
5613,note_off,0,47,--,64,160
5614,note_on,0,43,--,64,0
5615,note_off,0,43,--,64,320
5616,note_on,0,46,--,64,0
5617,pitchwheel,0,--,1638,--,0
5618,note_off,0,46,--,64,320
5619,note_on,0,41,--,64,0
5620,note_off,0,41,--,64,160
5621,note_on,0,37,--,64,0
5622,note_off,0,37,--,64,160
5623,note_on,0,40,--,64,0
5624,pitchwheel,0,--,2866,--,0
5625,note_off,0,40,--,64,320
5626,note_on,0,36,--,64,0
5627,pitchwheel,0,--,819,--,0
5628,note_off,0,36,--,64,320
5629,note_on,0,37,--,64,0
5630,note_off,0,37,--,64,160
5631,note_on,0,40,--,64,0
5632,pitchwheel,0,--,2457,--,0
5633,note_off,0,40,--,64,160
5634,note_on,0,41,--,64,0
5635,note_off,0,41,--,64,320
5636,note_on,0,38,--,64,0
5637,pitchwheel,0,--,2457,--,0
5638,note_off,0,38,--,64,320
5639,note_on,0,38,--,64,0
5640,pitchwheel,0,--,819,--,0
5641,note_off,0,38,--,64,160
5642,note_on,0,36,--,64,0
5643,pitchwheel,0,--,819,--,0
5644,note_off,0,36,--,64,160
5645,note_on,0,41,--,64,0
5646,pitchwheel,0,--,2457,--,0
5647,note_off,0,41,--,64,320
5648,note_on,0,47,--,64,0
5649,pitchwheel,0,--,3276,--,0
5650,note_off,0,47,--,64,480
5651,note_on,0,38,--,64,0
5652,note_off,0,38,--,64,480
5653,note_on,0,47,--,64,0
5654,pitchwheel,0,--,2457,--,0
5655,note_off,0,47,--,64,480
5656,note_on,0,38,--,64,0
5657,pitchwheel,0,--,2457,--,0
5658,note_off,0,38,--,64,160
5659,note_on,0,47,--,64,0
5660,pitchwheel,0,--,2047,--,0
5661,note_off,0,47,--,64,320
5662,note_on,0,45,--,64,0
5663,note_off,0,45,--,64,320
5664,note_on,0,39,--,64,0
5665,pitchwheel,0,--,819,--,0
5666,note_off,0,39,--,64,160
5667,note_on,0,43,--,64,0
5668,note_off,0,43,--,64,160
5669,note_on,0,48,--,64,0
5670,pitchwheel,0,--,819,--,0
5671,note_off,0,48,--,64,320
5672,note_on,0,47,--,64,0
5673,pitchwheel,0,--,3685,--,0
5674,note_off,0,47,--,64,320
5675,note_on,0,43,--,64,0
5676,note_off,0,43,--,64,160
5677,note_on,0,45,--,64,0
5678,pitchwheel,0,--,3276,--,0
5679,note_off,0,45,--,64,160
5680,note_on,0,45,--,64,0
5681,pitchwheel,0,--,2047,--,0
5682,note_off,0,45,--,64,800
5683,note_on,0,43,--,64,0
5684,note_off,0,43,--,64,320
5685,note_on,0,41,--,64,0
5686,note_off,0,41,--,64,480
5687,note_on,0,36,--,64,0
5688,pitchwheel,0,--,2047,--,0
5689,note_off,0,36,--,64,160
5690,note_on,0,45,--,64,0
5691,pitchwheel,0,--,2047,--,0
5692,note_off,0,45,--,64,320
5693,note_on,0,47,--,64,0
5694,pitchwheel,0,--,2457,--,0
5695,note_off,0,47,--,64,320
5696,note_on,0,38,--,64,0
5697,pitchwheel,0,--,2457,--,0
5698,note_off,0,38,--,64,160
5699,note_on,0,38,--,64,0
5700,pitchwheel,0,--,819,--,0
5701,note_off,0,38,--,64,160
5702,note_on,0,40,--,64,0
5703,pitchwheel,0,--,2866,--,0
5704,note_off,0,40,--,64,320
5705,note_on,0,43,--,64,0
5706,pitchwheel,0,--,2866,--,0
5707,note_off,0,43,--,64,320
5708,note_on,0,45,--,64,0
5709,pitchwheel,0,--,1638,--,0
5710,note_off,0,45,--,64,320
5711,note_on,0,46,--,64,0
5712,pitchwheel,0,--,1638,--,0
5713,note_off,0,46,--,64,320
5714,note_on,0,43,--,64,0
5715,pitchwheel,0,--,1638,--,0
5716,note_off,0,43,--,64,320
5717,note_on,0,41,--,64,0
5718,note_off,0,41,--,64,320
5719,note_on,0,38,--,64,0
5720,note_off,0,38,--,64,320
5721,note_on,0,47,--,64,0
5722,pitchwheel,0,--,2457,--,0
5723,note_off,0,47,--,64,320
5724,note_on,0,38,--,64,0
5725,pitchwheel,0,--,2457,--,0
5726,note_off,0,38,--,64,320
5727,note_on,0,45,--,64,0
5728,note_off,0,45,--,64,320
5729,note_on,0,47,--,64,0
5730,pitchwheel,0,--,2047,--,0
5731,note_off,0,47,--,64,320
5732,note_on,0,45,--,64,0
5733,pitchwheel,0,--,2047,--,0
5734,note_off,0,45,--,64,160
5735,note_on,0,40,--,64,0
5736,pitchwheel,0,--,2457,--,0
5737,note_off,0,40,--,64,160
5738,note_on,0,41,--,64,0
5739,note_off,0,41,--,64,320
5740,note_on,0,40,--,64,0
5741,pitchwheel,0,--,2457,--,0
5742,note_off,0,40,--,64,480
5743,note_on,0,41,--,64,0
5744,note_off,0,41,--,64,160
5745,note_on,0,40,--,64,0
5746,pitchwheel,0,--,2457,--,0
5747,note_off,0,40,--,64,320
5748,note_on,0,36,--,64,0
5749,pitchwheel,0,--,2047,--,0
5750,note_off,0,36,--,64,480
5751,note_on,0,40,--,64,0
5752,pitchwheel,0,--,2457,--,0
5753,note_off,0,40,--,64,160
5754,note_on,0,47,--,64,0
5755,pitchwheel,0,--,3276,--,0
5756,note_off,0,47,--,64,320
5757,note_on,0,39,--,64,0
5758,pitchwheel,0,--,819,--,0
5759,note_off,0,39,--,64,320
5760,note_on,0,45,--,64,0
5761,note_off,0,45,--,64,320
5762,note_on,0,45,--,64,0
5763,pitchwheel,0,--,2047,--,0
5764,note_off,0,45,--,64,320
5765,note_on,0,43,--,64,0
5766,pitchwheel,0,--,1638,--,0
5767,note_off,0,43,--,64,320
5768,note_on,0,47,--,64,0
5769,pitchwheel,0,--,3685,--,0
5770,note_off,0,47,--,64,160
5771,note_on,0,43,--,64,0
5772,note_off,0,43,--,64,480
5773,note_on,0,43,--,64,0
5774,pitchwheel,0,--,1638,--,0
5775,note_off,0,43,--,64,320
5776,note_on,0,38,--,64,0
5777,pitchwheel,0,--,819,--,0
5778,note_off,0,38,--,64,320
5779,note_on,0,38,--,64,0
5780,pitchwheel,0,--,3685,--,0
5781,note_off,0,38,--,64,320
5782,note_on,0,43,--,64,0
5783,pitchwheel,0,--,409,--,0
5784,note_off,0,43,--,64,320
5785,note_on,0,45,--,64,0
5786,pitchwheel,0,--,2047,--,0
5787,note_off,0,45,--,64,160
5788,note_on,0,43,--,64,0
5789,pitchwheel,0,--,1638,--,0
5790,note_off,0,43,--,64,160
5791,note_on,0,40,--,64,0
5792,pitchwheel,0,--,2457,--,0
5793,note_off,0,40,--,64,320
5794,note_on,0,36,--,64,0
5795,pitchwheel,0,--,819,--,0
5796,note_off,0,36,--,64,320
5797,note_on,0,45,--,64,0
5798,note_off,0,45,--,64,320
5799,note_on,0,38,--,64,0
5800,pitchwheel,0,--,3685,--,0
5801,note_off,0,38,--,64,320
5802,note_on,0,40,--,64,0
5803,pitchwheel,0,--,2457,--,0
5804,note_off,0,40,--,64,320
5805,note_on,0,36,--,64,0
5806,pitchwheel,0,--,3276,--,0
5807,note_off,0,36,--,64,160
5808,note_on,0,45,--,64,0
5809,pitchwheel,0,--,1638,--,0
5810,note_off,0,45,--,64,480
5811,note_on,0,46,--,64,0
5812,pitchwheel,0,--,1638,--,0
5813,note_off,0,46,--,64,320
5814,note_on,0,43,--,64,0
5815,pitchwheel,0,--,1638,--,0
5816,note_off,0,43,--,64,160
5817,note_on,0,45,--,64,0
5818,pitchwheel,0,--,3276,--,0
5819,note_off,0,45,--,64,160
5820,note_on,0,44,--,64,0
5821,note_off,0,44,--,64,320
5822,note_on,0,47,--,64,0
5823,pitchwheel,0,--,2047,--,0
5824,note_off,0,47,--,64,320
5825,note_on,0,53,--,64,0
5826,note_off,0,53,--,64,320
5827,note_on,0,55,--,64,0
5828,note_off,0,55,--,64,320
5829,note_on,0,58,--,64,0
5830,pitchwheel,0,--,1638,--,0
5831,note_off,0,58,--,64,320
5832,note_on,0,53,--,64,0
5833,note_off,0,53,--,64,160
5834,note_on,0,50,--,64,0
5835,pitchwheel,0,--,3685,--,0
5836,note_off,0,50,--,64,160
5837,note_on,0,55,--,64,0
5838,pitchwheel,0,--,1638,--,0
5839,note_off,0,55,--,64,320
5840,note_on,0,53,--,64,0
5841,note_off,0,53,--,64,320
5842,note_on,0,58,--,64,0
5843,pitchwheel,0,--,1638,--,0
5844,note_off,0,58,--,64,160
5845,note_on,0,59,--,64,0
5846,pitchwheel,0,--,3276,--,0
5847,note_off,0,59,--,64,160
5848,note_on,0,50,--,64,0
5849,pitchwheel,0,--,3685,--,0
5850,note_off,0,50,--,64,320
5851,note_on,0,48,--,64,0
5852,pitchwheel,0,--,2047,--,0
5853,note_off,0,48,--,64,320
5854,note_on,0,57,--,64,0
5855,pitchwheel,0,--,1638,--,0
5856,note_off,0,57,--,64,160
5857,note_on,0,48,--,64,0
5858,pitchwheel,0,--,819,--,0
5859,note_off,0,48,--,64,480
5860,note_on,0,48,--,64,0
5861,pitchwheel,0,--,2047,--,0
5862,note_off,0,48,--,64,320
5863,note_on,0,50,--,64,0
5864,pitchwheel,0,--,1228,--,0
5865,note_off,0,50,--,64,320
5866,note_on,0,59,--,64,0
5867,pitchwheel,0,--,2047,--,0
5868,note_off,0,59,--,64,320
5869,note_on,0,53,--,64,0
5870,note_off,0,53,--,64,320
5871,note_on,0,52,--,64,0
5872,pitchwheel,0,--,1638,--,0
5873,note_off,0,52,--,64,320
5874,note_on,0,55,--,64,0
5875,note_off,0,55,--,64,320
5876,note_on,0,53,--,64,0
5877,note_off,0,53,--,64,160
5878,note_on,0,47,--,64,0
5879,pitchwheel,0,--,3276,--,0
5880,note_off,0,47,--,64,160
5881,note_on,0,49,--,64,0
5882,note_off,0,49,--,64,320
5883,note_on,0,46,--,64,0
5884,note_off,0,46,--,64,480
5885,note_on,0,45,--,64,0
5886,note_off,0,45,--,64,160
5887,note_on,0,44,--,64,0
5888,note_off,0,44,--,64,320
5889,note_on,0,46,--,64,0
5890,note_off,0,46,--,64,320
5891,note_on,0,49,--,64,0
5892,note_off,0,49,--,64,320
5893,note_on,0,52,--,64,0
5894,pitchwheel,0,--,2457,--,0
5895,note_off,0,52,--,64,320
5896,note_on,0,51,--,64,0
5897,pitchwheel,0,--,819,--,0
5898,note_off,0,51,--,64,320
5899,note_on,0,45,--,64,0
5900,pitchwheel,0,--,3276,--,0
5901,note_off,0,45,--,64,320
5902,note_on,0,46,--,64,0
5903,pitchwheel,0,--,409,--,0
5904,note_off,0,46,--,64,320
5905,note_on,0,50,--,64,0
5906,pitchwheel,0,--,819,--,0
5907,note_off,0,50,--,64,320
5908,note_on,0,51,--,64,0
5909,pitchwheel,0,--,819,--,0
5910,note_off,0,51,--,64,160
5911,note_on,0,50,--,64,0
5912,pitchwheel,0,--,819,--,0
5913,note_off,0,50,--,64,160
5914,note_on,0,45,--,64,0
5915,note_off,0,45,--,64,320
5916,note_on,0,41,--,64,0
5917,pitchwheel,0,--,2457,--,0
5918,note_off,0,41,--,64,320
5919,note_on,0,38,--,64,0
5920,pitchwheel,0,--,819,--,0
5921,note_off,0,38,--,64,160
5922,note_on,0,45,--,64,0
5923,pitchwheel,0,--,3276,--,0
5924,note_off,0,45,--,64,160
5925,note_on,0,47,--,64,0
5926,pitchwheel,0,--,2047,--,0
5927,note_off,0,47,--,64,320
5928,note_on,0,45,--,64,0
5929,pitchwheel,0,--,2047,--,0
5930,note_off,0,45,--,64,320
5931,note_on,0,47,--,64,0
5932,pitchwheel,0,--,3276,--,0
5933,note_off,0,47,--,64,160
5934,note_on,0,43,--,64,0
5935,note_off,0,43,--,64,160
5936,note_on,0,46,--,64,0
5937,pitchwheel,0,--,409,--,0
5938,note_off,0,46,--,64,320
5939,note_on,0,46,--,64,0
5940,note_off,0,46,--,64,320
5941,note_on,0,45,--,64,0
5942,pitchwheel,0,--,2047,--,0
5943,note_off,0,45,--,64,160
5944,note_on,0,45,--,64,0
5945,note_off,0,45,--,64,480
5946,note_on,0,47,--,64,0
5947,pitchwheel,0,--,3276,--,0
5948,note_off,0,47,--,64,320
5949,note_on,0,45,--,64,0
5950,pitchwheel,0,--,3276,--,0
5951,note_off,0,45,--,64,160
5952,note_on,0,40,--,64,0
5953,pitchwheel,0,--,2457,--,0
5954,note_off,0,40,--,64,160
5955,note_on,0,38,--,64,0
5956,pitchwheel,0,--,2457,--,0
5957,note_off,0,38,--,64,320
5958,note_on,0,37,--,64,0
5959,note_off,0,37,--,64,320
5960,note_on,0,36,--,64,0
5961,pitchwheel,0,--,2047,--,0
5962,note_off,0,36,--,64,320
5963,note_on,0,41,--,64,0
5964,pitchwheel,0,--,2457,--,0
5965,note_off,0,41,--,64,320
5966,note_on,0,38,--,64,0
5967,pitchwheel,0,--,2457,--,0
5968,note_off,0,38,--,64,320
5969,note_on,0,45,--,64,0
5970,note_off,0,45,--,64,160
5971,note_on,0,46,--,64,0
5972,pitchwheel,0,--,409,--,0
5973,note_off,0,46,--,64,160
5974,note_on,0,45,--,64,0
5975,pitchwheel,0,--,1638,--,0
5976,note_off,0,45,--,64,320
5977,note_on,0,46,--,64,0
5978,note_off,0,46,--,64,320
5979,note_on,0,41,--,64,0
5980,note_off,0,41,--,64,160
5981,note_on,0,47,--,64,0
5982,pitchwheel,0,--,2047,--,0
5983,note_off,0,47,--,64,160
5984,note_on,0,41,--,64,0
5985,pitchwheel,0,--,1228,--,0
5986,note_off,0,41,--,64,320
5987,note_on,0,36,--,64,0
5988,pitchwheel,0,--,819,--,0
5989,note_off,0,36,--,64,320
5990,note_on,0,40,--,64,0
5991,note_off,0,40,--,64,160
5992,note_on,0,43,--,64,0
5993,note_off,0,43,--,64,160
5994,note_on,0,38,--,64,0
5995,pitchwheel,0,--,2457,--,0
5996,note_off,0,38,--,64,320
5997,note_on,0,46,--,64,0
5998,pitchwheel,0,--,1638,--,0
5999,note_off,0,46,--,64,320
6000,note_on,0,45,--,64,0
6001,pitchwheel,0,--,1638,--,0
6002,note_off,0,45,--,64,160
6003,note_on,0,41,--,64,0
6004,note_off,0,41,--,64,480
6005,note_on,0,38,--,64,0
6006,pitchwheel,0,--,3685,--,0
6007,note_off,0,38,--,64,320
6008,note_on,0,46,--,64,0
6009,note_off,0,46,--,64,160
6010,note_on,0,36,--,64,0
6011,pitchwheel,0,--,2047,--,0
6012,note_off,0,36,--,64,480
6013,note_on,0,46,--,64,0
6014,note_off,0,46,--,64,480
6015,note_on,0,38,--,64,0
6016,pitchwheel,0,--,2457,--,0
6017,note_off,0,38,--,64,160
6018,note_on,0,44,--,64,0
6019,pitchwheel,0,--,2047,--,0
6020,note_off,0,44,--,64,320
6021,note_on,0,45,--,64,0
6022,note_off,0,45,--,64,320
6023,note_on,0,43,--,64,0
6024,pitchwheel,0,--,2866,--,0
6025,note_off,0,43,--,64,160
6026,note_on,0,45,--,64,0
6027,pitchwheel,0,--,1638,--,0
6028,note_off,0,45,--,64,160
6029,note_on,0,50,--,64,0
6030,pitchwheel,0,--,1228,--,0
6031,note_off,0,50,--,64,320
6032,note_on,0,50,--,64,0
6033,pitchwheel,0,--,2457,--,0
6034,note_off,0,50,--,64,320
6035,note_on,0,47,--,64,0
6036,pitchwheel,0,--,3276,--,0
6037,note_off,0,47,--,64,160
6038,note_on,0,50,--,64,0
6039,pitchwheel,0,--,2457,--,0
6040,note_off,0,50,--,64,160
6041,note_on,0,47,--,64,0
6042,pitchwheel,0,--,2457,--,0
6043,note_off,0,47,--,64,320
6044,note_on,0,45,--,64,0
6045,note_off,0,45,--,64,320
6046,note_on,0,50,--,64,0
6047,pitchwheel,0,--,1228,--,0
6048,note_off,0,50,--,64,320
6049,note_on,0,52,--,64,0
6050,pitchwheel,0,--,2457,--,0
6051,note_off,0,52,--,64,320
6052,note_on,0,51,--,64,0
6053,pitchwheel,0,--,819,--,0
6054,note_off,0,51,--,64,640
6055,note_on,0,47,--,64,0
6056,pitchwheel,0,--,3685,--,0
6057,note_off,0,47,--,64,320
6058,note_on,0,45,--,64,0
6059,pitchwheel,0,--,2047,--,0
6060,note_off,0,45,--,64,320
6061,note_on,0,44,--,64,0
6062,note_off,0,44,--,64,160
6063,note_on,0,43,--,64,0
6064,note_off,0,43,--,64,160
6065,note_on,0,47,--,64,0
6066,pitchwheel,0,--,3685,--,0
6067,note_off,0,47,--,64,320
6068,note_on,0,48,--,64,0
6069,pitchwheel,0,--,3276,--,0
6070,note_off,0,48,--,64,320
6071,note_on,0,50,--,64,0
6072,pitchwheel,0,--,819,--,0
6073,note_off,0,50,--,64,160
6074,note_on,0,52,--,64,0
6075,note_off,0,52,--,64,160
6076,note_on,0,48,--,64,0
6077,pitchwheel,0,--,3276,--,0
6078,note_off,0,48,--,64,320
6079,note_on,0,43,--,64,0
6080,pitchwheel,0,--,409,--,0
6081,note_off,0,43,--,64,320
6082,note_on,0,43,--,64,0
6083,note_off,0,43,--,64,320
6084,note_on,0,43,--,64,0
6085,pitchwheel,0,--,409,--,0
6086,note_off,0,43,--,64,320
6087,note_on,0,46,--,64,0
6088,pitchwheel,0,--,1638,--,0
6089,note_off,0,46,--,64,320
6090,note_on,0,41,--,64,0
6091,note_off,0,41,--,64,320
6092,note_on,0,40,--,64,0
6093,pitchwheel,0,--,2866,--,0
6094,note_off,0,40,--,64,320
6095,note_on,0,47,--,64,0
6096,pitchwheel,0,--,3276,--,0
6097,note_off,0,47,--,64,320
6098,note_on,0,46,--,64,0
6099,pitchwheel,0,--,1638,--,0
6100,note_off,0,46,--,64,160
6101,note_on,0,40,--,64,0
6102,pitchwheel,0,--,2457,--,0
6103,note_off,0,40,--,64,160
6104,note_on,0,45,--,64,0
6105,pitchwheel,0,--,2047,--,0
6106,note_off,0,45,--,64,320
6107,note_on,0,45,--,64,0
6108,pitchwheel,0,--,3276,--,0
6109,note_off,0,45,--,64,480
6110,note_on,0,41,--,64,0
6111,pitchwheel,0,--,1228,--,0
6112,note_off,0,41,--,64,160
6113,note_on,0,44,--,64,0
6114,pitchwheel,0,--,2047,--,0
6115,note_off,0,44,--,64,320
6116,note_on,0,40,--,64,0
6117,pitchwheel,0,--,1638,--,0
6118,note_off,0,40,--,64,320
6119,note_on,0,41,--,64,0
6120,note_off,0,41,--,64,160
6121,note_on,0,45,--,64,0
6122,pitchwheel,0,--,1638,--,0
6123,note_off,0,45,--,64,480
6124,note_on,0,44,--,64,0
6125,note_off,0,44,--,64,320
6126,note_on,0,41,--,64,0
6127,note_off,0,41,--,64,160
6128,note_on,0,45,--,64,0
6129,note_off,0,45,--,64,160
6130,note_on,0,45,--,64,0
6131,pitchwheel,0,--,1638,--,0
6132,note_off,0,45,--,64,320
6133,note_on,0,41,--,64,0
6134,note_off,0,41,--,64,320
6135,note_on,0,44,--,64,0
6136,note_off,0,44,--,64,160
6137,note_on,0,38,--,64,0
6138,pitchwheel,0,--,819,--,0
6139,note_off,0,38,--,64,480
6140,note_on,0,40,--,64,0
6141,note_off,0,40,--,64,320
6142,note_on,0,43,--,64,0
6143,note_off,0,43,--,64,320
6144,note_on,0,46,--,64,0
6145,note_off,0,46,--,64,320
6146,note_on,0,50,--,64,0
6147,pitchwheel,0,--,2457,--,0
6148,note_off,0,50,--,64,320
6149,note_on,0,53,--,64,0
6150,note_off,0,53,--,64,160
6151,note_on,0,57,--,64,0
6152,pitchwheel,0,--,2047,--,0
6153,note_off,0,57,--,64,160
6154,note_on,0,59,--,64,0
6155,pitchwheel,0,--,3276,--,0
6156,note_off,0,59,--,64,320
6157,note_on,0,56,--,64,0
6158,note_off,0,56,--,64,320
6159,note_on,0,57,--,64,0
6160,note_off,0,57,--,64,160
6161,note_on,0,56,--,64,0
6162,pitchwheel,0,--,2047,--,0
6163,note_off,0,56,--,64,480
6164,note_on,0,52,--,64,0
6165,pitchwheel,0,--,2457,--,0
6166,note_off,0,52,--,64,320
6167,note_on,0,51,--,64,0
6168,pitchwheel,0,--,819,--,0
6169,note_off,0,51,--,64,160
6170,note_on,0,47,--,64,0
6171,pitchwheel,0,--,3276,--,0
6172,note_off,0,47,--,64,480
6173,note_on,0,45,--,64,0
6174,note_off,0,45,--,64,320
6175,note_on,0,45,--,64,0
6176,pitchwheel,0,--,2047,--,0
6177,note_off,0,45,--,64,160
6178,note_on,0,48,--,64,0
6179,pitchwheel,0,--,2047,--,0
6180,note_off,0,48,--,64,160
6181,note_on,0,46,--,64,0
6182,pitchwheel,0,--,1638,--,0
6183,note_off,0,46,--,64,320
6184,note_on,0,44,--,64,0
6185,pitchwheel,0,--,2047,--,0
6186,note_off,0,44,--,64,320
6187,note_on,0,48,--,64,0
6188,pitchwheel,0,--,819,--,0
6189,note_off,0,48,--,64,160
6190,note_on,0,43,--,64,0
6191,pitchwheel,0,--,409,--,0
6192,note_off,0,43,--,64,160
6193,note_on,0,38,--,64,0
6194,pitchwheel,0,--,819,--,0
6195,note_off,0,38,--,64,320
6196,note_on,0,39,--,64,0
6197,pitchwheel,0,--,819,--,0
6198,note_off,0,39,--,64,320
6199,note_on,0,36,--,64,0
6200,pitchwheel,0,--,2047,--,0
6201,note_off,0,36,--,64,160
6202,note_on,0,41,--,64,0
6203,note_off,0,41,--,64,160
6204,note_on,0,46,--,64,0
6205,note_off,0,46,--,64,320
6206,note_on,0,47,--,64,0
6207,pitchwheel,0,--,3685,--,0
6208,note_off,0,47,--,64,320
6209,note_on,0,46,--,64,0
6210,pitchwheel,0,--,1638,--,0
6211,note_off,0,46,--,64,160
6212,note_on,0,45,--,64,0
6213,pitchwheel,0,--,1638,--,0
6214,note_off,0,45,--,64,160
6215,note_on,0,50,--,64,0
6216,note_off,0,50,--,64,320
6217,note_on,0,45,--,64,0
6218,note_off,0,45,--,64,320
6219,note_on,0,47,--,64,0
6220,pitchwheel,0,--,3276,--,0
6221,note_off,0,47,--,64,160
6222,note_on,0,46,--,64,0
6223,pitchwheel,0,--,409,--,0
6224,note_off,0,46,--,64,160
6225,note_on,0,50,--,64,0
6226,pitchwheel,0,--,3685,--,0
6227,note_off,0,50,--,64,320
6228,note_on,0,46,--,64,0
6229,pitchwheel,0,--,409,--,0
6230,note_off,0,46,--,64,320
6231,note_on,0,45,--,64,0
6232,pitchwheel,0,--,3276,--,0
6233,note_off,0,45,--,64,320
6234,note_on,0,45,--,64,0
6235,pitchwheel,0,--,1638,--,0
6236,note_off,0,45,--,64,320
6237,note_on,0,41,--,64,0
6238,note_off,0,41,--,64,160
6239,note_on,0,40,--,64,0
6240,pitchwheel,0,--,1638,--,0
6241,note_off,0,40,--,64,480
6242,note_on,0,41,--,64,0
6243,note_off,0,41,--,64,320
6244,note_on,0,36,--,64,0
6245,pitchwheel,0,--,2047,--,0
6246,note_off,0,36,--,64,160
6247,note_on,0,45,--,64,0
6248,pitchwheel,0,--,1638,--,0
6249,note_off,0,45,--,64,480
6250,note_on,0,44,--,64,0
6251,note_off,0,44,--,64,480
6252,note_on,0,38,--,64,0
6253,pitchwheel,0,--,2457,--,0
6254,note_off,0,38,--,64,160
6255,note_on,0,45,--,64,0
6256,pitchwheel,0,--,2047,--,0
6257,note_off,0,45,--,64,320
6258,note_on,0,40,--,64,0
6259,pitchwheel,0,--,2457,--,0
6260,note_off,0,40,--,64,320
6261,note_on,0,40,--,64,0
6262,note_off,0,40,--,64,320
6263,note_on,0,47,--,64,0
6264,pitchwheel,0,--,3276,--,0
6265,note_off,0,47,--,64,320
6266,note_on,0,39,--,64,0
6267,pitchwheel,0,--,819,--,0
6268,note_off,0,39,--,64,320
6269,note_on,0,38,--,64,0
6270,pitchwheel,0,--,1228,--,0
6271,note_off,0,38,--,64,320
6272,note_on,0,38,--,64,0
6273,pitchwheel,0,--,2457,--,0
6274,note_off,0,38,--,64,320
6275,note_on,0,45,--,64,0
6276,pitchwheel,0,--,1638,--,0
6277,note_off,0,45,--,64,320
6278,note_on,0,45,--,64,0
6279,pitchwheel,0,--,2047,--,0
6280,note_off,0,45,--,64,160
6281,note_on,0,43,--,64,0
6282,note_off,0,43,--,64,160
6283,note_on,0,45,--,64,0
6284,note_off,0,45,--,64,320
6285,note_on,0,43,--,64,0
6286,pitchwheel,0,--,1638,--,0
6287,note_off,0,43,--,64,320
6288,note_on,0,45,--,64,0
6289,pitchwheel,0,--,1638,--,0
6290,note_off,0,45,--,64,160
6291,note_on,0,48,--,64,0
6292,pitchwheel,0,--,2047,--,0
6293,note_off,0,48,--,64,160
6294,note_on,0,46,--,64,0
6295,note_off,0,46,--,64,320
6296,note_on,0,48,--,64,0
6297,pitchwheel,0,--,819,--,0
6298,note_off,0,48,--,64,320
6299,note_on,0,50,--,64,0
6300,note_off,0,50,--,64,160
6301,note_on,0,47,--,64,0
6302,pitchwheel,0,--,3276,--,0
6303,note_off,0,47,--,64,160
6304,note_on,0,47,--,64,0
6305,pitchwheel,0,--,2457,--,0
6306,note_off,0,47,--,64,320
6307,note_on,0,43,--,64,0
6308,pitchwheel,0,--,1638,--,0
6309,note_off,0,43,--,64,320
6310,note_on,0,43,--,64,0
6311,pitchwheel,0,--,2866,--,0
6312,note_off,0,43,--,64,160
6313,note_on,0,45,--,64,0
6314,note_off,0,45,--,64,160
6315,note_on,0,50,--,64,0
6316,pitchwheel,0,--,2457,--,0
6317,note_off,0,50,--,64,320
6318,note_on,0,55,--,64,0
6319,note_off,0,55,--,64,320
6320,note_on,0,58,--,64,0
6321,pitchwheel,0,--,1638,--,0
6322,note_off,0,58,--,64,160
6323,note_on,0,52,--,64,0
6324,pitchwheel,0,--,2457,--,0
6325,note_off,0,52,--,64,160
6326,note_on,0,55,--,64,0
6327,pitchwheel,0,--,409,--,0
6328,note_off,0,55,--,64,320
6329,note_on,0,55,--,64,0
6330,note_off,0,55,--,64,320
6331,note_on,0,50,--,64,0
6332,note_off,0,50,--,64,320
6333,note_on,0,48,--,64,0
6334,pitchwheel,0,--,819,--,0
6335,note_off,0,48,--,64,320
6336,note_on,0,50,--,64,0
6337,pitchwheel,0,--,2457,--,0
6338,note_off,0,50,--,64,320
6339,note_on,0,53,--,64,0
6340,note_off,0,53,--,64,160
6341,note_on,0,57,--,64,0
6342,pitchwheel,0,--,2047,--,0
6343,note_off,0,57,--,64,160
6344,note_on,0,52,--,64,0
6345,pitchwheel,0,--,2457,--,0
6346,note_off,0,52,--,64,320
6347,note_on,0,52,--,64,0
6348,pitchwheel,0,--,2866,--,0
6349,note_off,0,52,--,64,320
6350,note_on,0,57,--,64,0
6351,pitchwheel,0,--,2047,--,0
6352,note_off,0,57,--,64,160
6353,note_on,0,53,--,64,0
6354,note_off,0,53,--,64,160
6355,note_on,0,57,--,64,0
6356,pitchwheel,0,--,3276,--,0
6357,note_off,0,57,--,64,320
6358,note_on,0,55,--,64,0
6359,pitchwheel,0,--,2866,--,0
6360,note_off,0,55,--,64,320
6361,note_on,0,58,--,64,0
6362,pitchwheel,0,--,1638,--,0
6363,note_off,0,58,--,64,160
6364,note_on,0,50,--,64,0
6365,pitchwheel,0,--,819,--,0
6366,note_off,0,50,--,64,160
6367,note_on,0,53,--,64,0
6368,note_off,0,53,--,64,320
6369,note_on,0,48,--,64,0
6370,pitchwheel,0,--,3276,--,0
6371,note_off,0,48,--,64,320
6372,note_on,0,43,--,64,0
6373,note_off,0,43,--,64,160
6374,note_on,0,43,--,64,0
6375,pitchwheel,0,--,2866,--,0
6376,note_off,0,43,--,64,160
6377,note_on,0,38,--,64,0
6378,pitchwheel,0,--,2457,--,0
6379,note_off,0,38,--,64,320
6380,note_on,0,40,--,64,0
6381,pitchwheel,0,--,2457,--,0
6382,note_off,0,40,--,64,320
6383,note_on,0,46,--,64,0
6384,note_off,0,46,--,64,160
6385,note_on,0,47,--,64,0
6386,pitchwheel,0,--,3685,--,0
6387,note_off,0,47,--,64,480
6388,note_on,0,45,--,64,0
6389,pitchwheel,0,--,3276,--,0
6390,note_off,0,45,--,64,480
6391,note_on,0,50,--,64,0
6392,note_off,0,50,--,64,160
6393,note_on,0,52,--,64,0
6394,note_off,0,52,--,64,320
6395,note_on,0,52,--,64,0
6396,pitchwheel,0,--,2457,--,0
6397,note_off,0,52,--,64,320
6398,note_on,0,53,--,64,0
6399,pitchwheel,0,--,2457,--,0
6400,note_off,0,53,--,64,160
6401,note_on,0,47,--,64,0
6402,pitchwheel,0,--,3276,--,0
6403,note_off,0,47,--,64,160
6404,note_on,0,50,--,64,0
6405,pitchwheel,0,--,1228,--,0
6406,note_off,0,50,--,64,320
6407,note_on,0,50,--,64,0
6408,pitchwheel,0,--,2457,--,0
6409,note_off,0,50,--,64,320
6410,note_on,0,55,--,64,0
6411,note_off,0,55,--,64,160
6412,note_on,0,53,--,64,0
6413,pitchwheel,0,--,1228,--,0
6414,note_off,0,53,--,64,160
6415,note_on,0,55,--,64,0
6416,pitchwheel,0,--,409,--,0
6417,note_off,0,55,--,64,320
6418,note_on,0,57,--,64,0
6419,note_off,0,57,--,64,480
6420,note_on,0,50,--,64,0
6421,pitchwheel,0,--,819,--,0
6422,note_off,0,50,--,64,320
6423,note_on,0,59,--,64,0
6424,pitchwheel,0,--,2047,--,0
6425,note_off,0,59,--,64,480
6426,note_on,0,53,--,64,0
6427,note_off,0,53,--,64,160
6428,note_on,0,52,--,64,0
6429,pitchwheel,0,--,2457,--,0
6430,note_off,0,52,--,64,320
6431,note_on,0,47,--,64,0
6432,pitchwheel,0,--,2457,--,0
6433,note_off,0,47,--,64,320
6434,note_on,0,46,--,64,0
6435,note_off,0,46,--,64,160
6436,note_on,0,45,--,64,0
6437,pitchwheel,0,--,1638,--,0
6438,note_off,0,45,--,64,160
6439,note_on,0,49,--,64,0
6440,note_off,0,49,--,64,320
6441,note_on,0,48,--,64,0
6442,pitchwheel,0,--,819,--,0
6443,note_off,0,48,--,64,320
6444,note_on,0,47,--,64,0
6445,pitchwheel,0,--,3276,--,0
6446,note_off,0,47,--,64,160
6447,note_on,0,48,--,64,0
6448,pitchwheel,0,--,2047,--,0
6449,note_off,0,48,--,64,160
6450,note_on,0,47,--,64,0
6451,pitchwheel,0,--,3685,--,0
6452,note_off,0,47,--,64,320
6453,note_on,0,47,--,64,0
6454,pitchwheel,0,--,2457,--,0
6455,note_off,0,47,--,64,320
6456,note_on,0,43,--,64,0
6457,note_off,0,43,--,64,320
6458,note_on,0,38,--,64,0
6459,note_off,0,38,--,64,320
6460,note_on,0,43,--,64,0
6461,pitchwheel,0,--,1638,--,0
6462,note_off,0,43,--,64,320
6463,note_on,0,38,--,64,0
6464,pitchwheel,0,--,2457,--,0
6465,note_off,0,38,--,64,320
6466,note_on,0,45,--,64,0
6467,note_off,0,45,--,64,320
6468,note_on,0,45,--,64,0
6469,pitchwheel,0,--,1638,--,0
6470,note_off,0,45,--,64,320
6471,note_on,0,36,--,64,0
6472,pitchwheel,0,--,3276,--,0
6473,note_off,0,36,--,64,160
6474,note_on,0,43,--,64,0
6475,note_off,0,43,--,64,160
6476,note_on,0,45,--,64,0
6477,pitchwheel,0,--,2047,--,0
6478,note_off,0,45,--,64,320
6479,note_on,0,45,--,64,0
6480,pitchwheel,0,--,3276,--,0
6481,note_off,0,45,--,64,480
6482,note_on,0,36,--,64,0
6483,pitchwheel,0,--,2047,--,0
6484,note_off,0,36,--,64,160
6485,note_on,0,44,--,64,0
6486,pitchwheel,0,--,2047,--,0
6487,note_off,0,44,--,64,320
6488,note_on,0,36,--,64,0
6489,pitchwheel,0,--,2047,--,0
6490,note_off,0,36,--,64,480
6491,note_on,0,47,--,64,0
6492,pitchwheel,0,--,3276,--,0
6493,note_off,0,47,--,64,160
6494,note_on,0,40,--,64,0
6495,pitchwheel,0,--,2457,--,0
6496,note_off,0,40,--,64,320
6497,note_on,0,38,--,64,0
6498,pitchwheel,0,--,819,--,0
6499,note_off,0,38,--,64,320
6500,note_on,0,47,--,64,0
6501,pitchwheel,0,--,2047,--,0
6502,note_off,0,47,--,64,160
6503,note_on,0,45,--,64,0
6504,note_off,0,45,--,64,160
6505,note_on,0,47,--,64,0
6506,pitchwheel,0,--,2457,--,0
6507,note_off,0,47,--,64,320
6508,note_on,0,38,--,64,0
6509,pitchwheel,0,--,3685,--,0
6510,note_off,0,38,--,64,320
6511,note_on,0,47,--,64,0
6512,pitchwheel,0,--,3685,--,0
6513,note_off,0,47,--,64,160
6514,note_on,0,40,--,64,0
6515,pitchwheel,0,--,2457,--,0
6516,note_off,0,40,--,64,480
6517,note_on,0,39,--,64,0
6518,pitchwheel,0,--,819,--,0
6519,note_off,0,39,--,64,320
6520,note_on,0,38,--,64,0
6521,pitchwheel,0,--,819,--,0
6522,note_off,0,38,--,64,320
6523,note_on,0,39,--,64,0
6524,pitchwheel,0,--,819,--,0
6525,note_off,0,39,--,64,320
6526,note_on,0,38,--,64,0
6527,note_off,0,38,--,64,320
6528,note_on,0,36,--,64,0
6529,pitchwheel,0,--,2047,--,0
6530,note_off,0,36,--,64,160
6531,note_on,0,47,--,64,0
6532,pitchwheel,0,--,2457,--,0
6533,note_off,0,47,--,64,160
6534,note_on,0,40,--,64,0
6535,pitchwheel,0,--,2457,--,0
6536,note_off,0,40,--,64,320
6537,note_on,0,38,--,64,0
6538,pitchwheel,0,--,819,--,0
6539,note_off,0,38,--,64,320
6540,note_on,0,45,--,64,0
6541,note_off,0,45,--,64,160
6542,note_on,0,44,--,64,0
6543,pitchwheel,0,--,2047,--,0
6544,note_off,0,44,--,64,160
6545,note_on,0,43,--,64,0
6546,pitchwheel,0,--,1638,--,0
6547,note_off,0,43,--,64,320
6548,note_on,0,47,--,64,0
6549,pitchwheel,0,--,3276,--,0
6550,note_off,0,47,--,64,320
6551,note_on,0,46,--,64,0
6552,pitchwheel,0,--,1638,--,0
6553,note_off,0,46,--,64,160
6554,note_on,0,38,--,64,0
6555,pitchwheel,0,--,819,--,0
6556,note_off,0,38,--,64,480
6557,note_on,0,38,--,64,0
6558,note_off,0,38,--,64,320
6559,note_on,0,43,--,64,0
6560,pitchwheel,0,--,1638,--,0
6561,note_off,0,43,--,64,160
6562,note_on,0,43,--,64,0
6563,pitchwheel,0,--,2866,--,0
6564,note_off,0,43,--,64,160
6565,note_on,0,46,--,64,0
6566,pitchwheel,0,--,1638,--,0
6567,note_off,0,46,--,64,320
6568,note_on,0,43,--,64,0
6569,note_off,0,43,--,64,320
6570,note_on,0,38,--,64,0
6571,pitchwheel,0,--,2457,--,0
6572,note_off,0,38,--,64,160
6573,note_on,0,38,--,64,0
6574,note_off,0,38,--,64,160
6575,note_on,0,45,--,64,0
6576,pitchwheel,0,--,1638,--,0
6577,note_off,0,45,--,64,320
6578,note_on,0,45,--,64,0
6579,note_off,0,45,--,64,320
6580,note_on,0,41,--,64,0
6581,note_off,0,41,--,64,160
6582,note_on,0,38,--,64,0
6583,pitchwheel,0,--,2457,--,0
6584,note_off,0,38,--,64,160
6585,note_on,0,47,--,64,0
6586,pitchwheel,0,--,3276,--,0
6587,note_off,0,47,--,64,320
6588,note_on,0,41,--,64,0
6589,note_off,0,41,--,64,320
6590,note_on,0,44,--,64,0
6591,note_off,0,44,--,64,160
6592,note_on,0,47,--,64,0
6593,pitchwheel,0,--,3276,--,0
6594,note_off,0,47,--,64,160
6595,note_on,0,50,--,64,0
6596,pitchwheel,0,--,3685,--,0
6597,note_off,0,50,--,64,320
6598,note_on,0,53,--,64,0
6599,note_off,0,53,--,64,320
6600,note_on,0,55,--,64,0
6601,note_off,0,55,--,64,160
6602,note_on,0,53,--,64,0
6603,pitchwheel,0,--,1228,--,0
6604,note_off,0,53,--,64,160
6605,note_on,0,58,--,64,0
6606,pitchwheel,0,--,1638,--,0
6607,note_off,0,58,--,64,320
6608,note_on,0,55,--,64,0
6609,pitchwheel,0,--,1638,--,0
6610,note_off,0,55,--,64,320
6611,note_on,0,55,--,64,0
6612,pitchwheel,0,--,2866,--,0
6613,note_off,0,55,--,64,320
6614,note_on,0,57,--,64,0
6615,pitchwheel,0,--,2047,--,0
6616,note_off,0,57,--,64,320
6617,note_on,0,53,--,64,0
6618,note_off,0,53,--,64,320
6619,note_on,0,48,--,64,0
6620,pitchwheel,0,--,2047,--,0
6621,note_off,0,48,--,64,320
6622,note_on,0,50,--,64,0
6623,pitchwheel,0,--,819,--,0
6624,note_off,0,50,--,64,320
6625,note_on,0,56,--,64,0
6626,note_off,0,56,--,64,160
6627,note_on,0,50,--,64,0
6628,pitchwheel,0,--,819,--,0
6629,note_off,0,50,--,64,160
6630,note_on,0,50,--,64,0
6631,pitchwheel,0,--,2457,--,0
6632,note_off,0,50,--,64,800
6633,note_on,0,51,--,64,0
6634,pitchwheel,0,--,819,--,0
6635,note_off,0,51,--,64,320
6636,note_on,0,52,--,64,0
6637,pitchwheel,0,--,2457,--,0
6638,note_off,0,52,--,64,320
6639,note_on,0,57,--,64,0
6640,note_off,0,57,--,64,320
6641,note_on,0,52,--,64,0
6642,pitchwheel,0,--,2457,--,0
6643,note_off,0,52,--,64,320
6644,note_on,0,53,--,64,0
6645,pitchwheel,0,--,2457,--,0
6646,note_off,0,53,--,64,320
6647,note_on,0,53,--,64,0
6648,note_off,0,53,--,64,320
6649,note_on,0,52,--,64,0
6650,pitchwheel,0,--,2866,--,0
6651,note_off,0,52,--,64,320
6652,note_on,0,50,--,64,0
6653,pitchwheel,0,--,819,--,0
6654,note_off,0,50,--,64,320
6655,note_on,0,47,--,64,0
6656,pitchwheel,0,--,3685,--,0
6657,note_off,0,47,--,64,160
6658,note_on,0,47,--,64,0
6659,pitchwheel,0,--,3276,--,0
6660,note_off,0,47,--,64,160
6661,note_on,0,45,--,64,0
6662,note_off,0,45,--,64,320
6663,note_on,0,46,--,64,0
6664,note_off,0,46,--,64,320
6665,note_on,0,43,--,64,0
6666,note_off,0,43,--,64,160
6667,note_on,0,48,--,64,0
6668,pitchwheel,0,--,2047,--,0
6669,note_off,0,48,--,64,480
6670,note_on,0,48,--,64,0
6671,pitchwheel,0,--,819,--,0
6672,note_off,0,48,--,64,320
6673,note_on,0,50,--,64,0
6674,pitchwheel,0,--,819,--,0
6675,note_off,0,50,--,64,320
6676,note_on,0,46,--,64,0
6677,pitchwheel,0,--,409,--,0
6678,note_off,0,46,--,64,320
6679,note_on,0,50,--,64,0
6680,pitchwheel,0,--,3685,--,0
6681,note_off,0,50,--,64,320
6682,note_on,0,48,--,64,0
6683,pitchwheel,0,--,2047,--,0
6684,note_off,0,48,--,64,160
6685,note_on,0,45,--,64,0
6686,note_off,0,45,--,64,160
6687,note_on,0,45,--,64,0
6688,pitchwheel,0,--,3276,--,0
6689,note_off,0,45,--,64,320
6690,note_on,0,45,--,64,0
6691,pitchwheel,0,--,1638,--,0
6692,note_off,0,45,--,64,320
6693,note_on,0,45,--,64,0
6694,pitchwheel,0,--,2047,--,0
6695,note_off,0,45,--,64,160
6696,note_on,0,45,--,64,0
6697,pitchwheel,0,--,1638,--,0
6698,note_off,0,45,--,64,160
6699,note_on,0,48,--,64,0
6700,pitchwheel,0,--,819,--,0
6701,note_off,0,48,--,64,320
6702,note_on,0,43,--,64,0
6703,note_off,0,43,--,64,320
6704,note_on,0,48,--,64,0
6705,pitchwheel,0,--,2047,--,0
6706,note_off,0,48,--,64,320
6707,note_on,0,45,--,64,0
6708,pitchwheel,0,--,2047,--,0
6709,note_off,0,45,--,64,320
6710,note_on,0,43,--,64,0
6711,note_off,0,43,--,64,320
6712,note_on,0,45,--,64,0
6713,note_off,0,45,--,64,160
6714,note_on,0,47,--,64,0
6715,pitchwheel,0,--,2457,--,0
6716,note_off,0,47,--,64,160
6717,note_on,0,47,--,64,0
6718,pitchwheel,0,--,3276,--,0
6719,note_off,0,47,--,64,320
6720,note_on,0,46,--,64,0
6721,pitchwheel,0,--,1638,--,0
6722,note_off,0,46,--,64,320
6723,note_on,0,45,--,64,0
6724,pitchwheel,0,--,3276,--,0
6725,note_off,0,45,--,64,320
6726,note_on,0,45,--,64,0
6727,pitchwheel,0,--,2047,--,0
6728,note_off,0,45,--,64,320
6729,note_on,0,43,--,64,0
6730,pitchwheel,0,--,2866,--,0
6731,note_off,0,43,--,64,320
6732,note_on,0,44,--,64,0
6733,note_off,0,44,--,64,160
6734,note_on,0,43,--,64,0
6735,note_off,0,43,--,64,160
6736,note_on,0,38,--,64,0
6737,pitchwheel,0,--,2457,--,0
6738,note_off,0,38,--,64,320
6739,note_on,0,43,--,64,0
6740,pitchwheel,0,--,1638,--,0
6741,note_off,0,43,--,64,320
6742,note_on,0,38,--,64,0
6743,pitchwheel,0,--,819,--,0
6744,note_off,0,38,--,64,160
6745,note_on,0,43,--,64,0
6746,pitchwheel,0,--,2866,--,0
6747,note_off,0,43,--,64,160
6748,note_on,0,44,--,64,0
6749,note_off,0,44,--,64,320
6750,note_on,0,43,--,64,0
6751,note_off,0,43,--,64,320
6752,note_on,0,46,--,64,0
6753,note_off,0,46,--,64,160
6754,note_on,0,50,--,64,0
6755,note_off,0,50,--,64,480
6756,note_on,0,44,--,64,0
6757,note_off,0,44,--,64,320
6758,note_on,0,38,--,64,0
6759,pitchwheel,0,--,2457,--,0
6760,note_off,0,38,--,64,160
6761,note_on,0,47,--,64,0
6762,pitchwheel,0,--,2047,--,0
6763,note_off,0,47,--,64,320
6764,note_on,0,45,--,64,0
6765,note_off,0,45,--,64,320
6766,note_on,0,46,--,64,0
6767,pitchwheel,0,--,1638,--,0
6768,note_off,0,46,--,64,160
6769,note_on,0,40,--,64,0
6770,pitchwheel,0,--,2457,--,0
6771,note_off,0,40,--,64,160
6772,note_on,0,36,--,64,0
6773,pitchwheel,0,--,819,--,0
6774,note_off,0,36,--,64,320
6775,note_on,0,47,--,64,0
6776,pitchwheel,0,--,3685,--,0
6777,note_off,0,47,--,64,320
6778,note_on,0,47,--,64,0
6779,pitchwheel,0,--,3276,--,0
6780,note_off,0,47,--,64,160
6781,note_on,0,41,--,64,0
6782,pitchwheel,0,--,1228,--,0
6783,note_off,0,41,--,64,160
6784,note_on,0,47,--,64,0
6785,pitchwheel,0,--,3685,--,0
6786,note_off,0,47,--,64,320
6787,note_on,0,45,--,64,0
6788,note_off,0,45,--,64,320
6789,note_on,0,41,--,64,0
6790,note_off,0,41,--,64,320
6791,note_on,0,43,--,64,0
6792,note_off,0,43,--,64,800
6793,note_on,0,36,--,64,0
6794,pitchwheel,0,--,2047,--,0
6795,note_off,0,36,--,64,160
6796,note_on,0,45,--,64,0
6797,pitchwheel,0,--,2047,--,0
6798,note_off,0,45,--,64,640
6799,note_on,0,46,--,64,0
6800,pitchwheel,0,--,1638,--,0
6801,note_off,0,46,--,64,160
6802,note_on,0,43,--,64,0
6803,note_off,0,43,--,64,160
6804,note_on,0,44,--,64,0
6805,pitchwheel,0,--,2047,--,0
6806,note_off,0,44,--,64,320
6807,note_on,0,38,--,64,0
6808,pitchwheel,0,--,3685,--,0
6809,note_off,0,38,--,64,320
6810,note_on,0,45,--,64,0
6811,pitchwheel,0,--,1638,--,0
6812,note_off,0,45,--,64,160
6813,note_on,0,45,--,64,0
6814,note_off,0,45,--,64,160
6815,note_on,0,36,--,64,0
6816,pitchwheel,0,--,2047,--,0
6817,note_off,0,36,--,64,320
6818,note_on,0,43,--,64,0
6819,pitchwheel,0,--,1638,--,0
6820,note_off,0,43,--,64,640
6821,note_on,0,43,--,64,0
6822,pitchwheel,0,--,409,--,0
6823,note_off,0,43,--,64,320
6824,note_on,0,47,--,64,0
6825,pitchwheel,0,--,3685,--,0
6826,note_off,0,47,--,64,320
6827,note_on,0,41,--,64,0
6828,note_off,0,41,--,64,320
6829,note_on,0,38,--,64,0
6830,pitchwheel,0,--,2457,--,0
6831,note_off,0,38,--,64,320
6832,note_on,0,47,--,64,0
6833,pitchwheel,0,--,2047,--,0
6834,note_off,0,47,--,64,320
6835,note_on,0,38,--,64,0
6836,pitchwheel,0,--,1228,--,0
6837,note_off,0,38,--,64,160
6838,note_on,0,40,--,64,0
6839,pitchwheel,0,--,2457,--,0
6840,note_off,0,40,--,64,160
6841,note_on,0,41,--,64,0
6842,note_off,0,41,--,64,320
6843,note_on,0,40,--,64,0
6844,pitchwheel,0,--,2866,--,0
6845,note_off,0,40,--,64,480
6846,note_on,0,36,--,64,0
6847,pitchwheel,0,--,819,--,0
6848,note_off,0,36,--,64,160
6849,note_on,0,38,--,64,0
6850,note_off,0,38,--,64,320
6851,note_on,0,40,--,64,0
6852,pitchwheel,0,--,1638,--,0
6853,note_off,0,40,--,64,320
6854,note_on,0,41,--,64,0
6855,note_off,0,41,--,64,160
6856,note_on,0,40,--,64,0
6857,pitchwheel,0,--,2457,--,0
6858,note_off,0,40,--,64,160
6859,note_on,0,43,--,64,0
6860,note_off,0,43,--,64,320
6861,note_on,0,40,--,64,0
6862,pitchwheel,0,--,1638,--,0
6863,note_off,0,40,--,64,320
6864,note_on,0,45,--,64,0
6865,note_off,0,45,--,64,160
6866,note_on,0,46,--,64,0
6867,note_off,0,46,--,64,320
6868,note_on,0,50,--,64,0
6869,pitchwheel,0,--,3685,--,0
6870,note_off,0,50,--,64,320
6871,note_on,0,48,--,64,0
6872,pitchwheel,0,--,3276,--,0
6873,note_off,0,48,--,64,160
6874,note_on,0,50,--,64,0
6875,pitchwheel,0,--,819,--,0
6876,note_off,0,50,--,64,480
6877,note_on,0,49,--,64,0
6878,note_off,0,49,--,64,320
6879,note_on,0,45,--,64,0
6880,pitchwheel,0,--,1638,--,0
6881,note_off,0,45,--,64,640
6882,note_on,0,48,--,64,0
6883,pitchwheel,0,--,819,--,0
6884,note_off,0,48,--,64,320
6885,note_on,0,48,--,64,0
6886,pitchwheel,0,--,2047,--,0
6887,note_off,0,48,--,64,160
6888,note_on,0,43,--,64,0
6889,pitchwheel,0,--,1638,--,0
6890,note_off,0,43,--,64,160
6891,note_on,0,38,--,64,0
6892,pitchwheel,0,--,819,--,0
6893,note_off,0,38,--,64,320
6894,note_on,0,44,--,64,0
6895,note_off,0,44,--,64,320
6896,note_on,0,45,--,64,0
6897,note_off,0,45,--,64,160
6898,note_on,0,49,--,64,0
6899,note_off,0,49,--,64,480
6900,note_on,0,50,--,64,0
6901,pitchwheel,0,--,2457,--,0
6902,note_off,0,50,--,64,320
6903,note_on,0,48,--,64,0
6904,pitchwheel,0,--,3276,--,0
6905,note_off,0,48,--,64,160
6906,note_on,0,47,--,64,0
6907,pitchwheel,0,--,3276,--,0
6908,note_off,0,47,--,64,480
6909,note_on,0,46,--,64,0
6910,pitchwheel,0,--,1638,--,0
6911,note_off,0,46,--,64,320
6912,note_on,0,45,--,64,0
6913,pitchwheel,0,--,2047,--,0
6914,note_off,0,45,--,64,160
6915,note_on,0,43,--,64,0
6916,pitchwheel,0,--,1638,--,0
6917,note_off,0,43,--,64,160
6918,note_on,0,46,--,64,0
6919,note_off,0,46,--,64,320
6920,note_on,0,43,--,64,0
6921,pitchwheel,0,--,2866,--,0
6922,note_off,0,43,--,64,320
6923,note_on,0,45,--,64,0
6924,pitchwheel,0,--,3276,--,0
6925,note_off,0,45,--,64,160
6926,note_on,0,41,--,64,0
6927,note_off,0,41,--,64,160
6928,note_on,0,38,--,64,0
6929,pitchwheel,0,--,819,--,0
6930,note_off,0,38,--,64,320
6931,note_on,0,46,--,64,0
6932,pitchwheel,0,--,1638,--,0
6933,note_off,0,46,--,64,320
6934,note_on,0,41,--,64,0
6935,note_off,0,41,--,64,160
6936,note_on,0,38,--,64,0
6937,pitchwheel,0,--,3685,--,0
6938,note_off,0,38,--,64,160
6939,note_on,0,43,--,64,0
6940,pitchwheel,0,--,1638,--,0
6941,note_off,0,43,--,64,320
6942,note_on,0,47,--,64,0
6943,pitchwheel,0,--,3685,--,0
6944,note_off,0,47,--,64,320
6945,note_on,0,51,--,64,0
6946,pitchwheel,0,--,819,--,0
6947,note_off,0,51,--,64,160
6948,note_on,0,45,--,64,0
6949,pitchwheel,0,--,1638,--,0
6950,note_off,0,45,--,64,160
6951,note_on,0,50,--,64,0
6952,note_off,0,50,--,64,320
6953,note_on,0,48,--,64,0
6954,pitchwheel,0,--,819,--,0
6955,note_off,0,48,--,64,320
6956,note_on,0,52,--,64,0
6957,pitchwheel,0,--,2457,--,0
6958,note_off,0,52,--,64,160
6959,note_on,0,53,--,64,0
6960,note_off,0,53,--,64,160
6961,note_on,0,56,--,64,0
6962,note_off,0,56,--,64,320
6963,note_on,0,55,--,64,0
6964,pitchwheel,0,--,1638,--,0
6965,note_off,0,55,--,64,320
6966,note_on,0,55,--,64,0
6967,pitchwheel,0,--,2866,--,0
6968,note_off,0,55,--,64,320
6969,note_on,0,57,--,64,0
6970,note_off,0,57,--,64,320
6971,note_on,0,53,--,64,0
6972,note_off,0,53,--,64,640
6973,note_on,0,52,--,64,0
6974,pitchwheel,0,--,2457,--,0
6975,note_off,0,52,--,64,320
6976,note_on,0,51,--,64,0
6977,pitchwheel,0,--,819,--,0
6978,note_off,0,51,--,64,160
6979,note_on,0,52,--,64,0
6980,pitchwheel,0,--,2457,--,0
6981,note_off,0,52,--,64,160
6982,note_on,0,57,--,64,0
6983,note_off,0,57,--,64,320
6984,note_on,0,58,--,64,0
6985,note_off,0,58,--,64,480
6986,note_on,0,59,--,64,0
6987,pitchwheel,0,--,2047,--,0
6988,note_off,0,59,--,64,160
6989,note_on,0,58,--,64,0
6990,note_off,0,58,--,64,640
6991,note_on,0,57,--,64,0
6992,pitchwheel,0,--,2047,--,0
6993,note_off,0,57,--,64,320
6994,note_on,0,50,--,64,0
6995,pitchwheel,0,--,819,--,0
6996,note_off,0,50,--,64,320
6997,note_on,0,59,--,64,0
6998,pitchwheel,0,--,3685,--,0
6999,note_off,0,59,--,64,320
7000,note_on,0,55,--,64,0
7001,pitchwheel,0,--,2866,--,0
7002,note_off,0,55,--,64,320
7003,note_on,0,55,--,64,0
7004,pitchwheel,0,--,1638,--,0
7005,note_off,0,55,--,64,320
7006,note_on,0,53,--,64,0
7007,note_off,0,53,--,64,320
7008,note_on,0,57,--,64,0
7009,pitchwheel,0,--,3276,--,0
7010,note_off,0,57,--,64,160
7011,note_on,0,50,--,64,0
7012,pitchwheel,0,--,819,--,0
7013,note_off,0,50,--,64,160
7014,note_on,0,57,--,64,0
7015,note_off,0,57,--,64,320
7016,note_on,0,51,--,64,0
7017,pitchwheel,0,--,819,--,0
7018,note_off,0,51,--,64,320
7019,note_on,0,47,--,64,0
7020,pitchwheel,0,--,3276,--,0
7021,note_off,0,47,--,64,160
7022,note_on,0,48,--,64,0
7023,pitchwheel,0,--,819,--,0
7024,note_off,0,48,--,64,160
7025,note_on,0,44,--,64,0
7026,note_off,0,44,--,64,320
7027,note_on,0,48,--,64,0
7028,pitchwheel,0,--,2047,--,0
7029,note_off,0,48,--,64,320
7030,note_on,0,53,--,64,0
7031,note_off,0,53,--,64,160
7032,note_on,0,55,--,64,0
7033,note_off,0,55,--,64,160
7034,note_on,0,59,--,64,0
7035,pitchwheel,0,--,2457,--,0
7036,note_off,0,59,--,64,320
7037,note_on,0,56,--,64,0
7038,note_off,0,56,--,64,320
7039,note_on,0,56,--,64,0
7040,pitchwheel,0,--,2047,--,0
7041,note_off,0,56,--,64,160
7042,note_on,0,57,--,64,0
7043,note_off,0,57,--,64,160
7044,note_on,0,50,--,64,0
7045,pitchwheel,0,--,2457,--,0
7046,note_off,0,50,--,64,320
7047,note_on,0,45,--,64,0
7048,pitchwheel,0,--,1638,--,0
7049,note_off,0,45,--,64,320
7050,note_on,0,45,--,64,0
7051,note_off,0,45,--,64,160
7052,note_on,0,47,--,64,0
7053,pitchwheel,0,--,3276,--,0
7054,note_off,0,47,--,64,160
7055,note_on,0,50,--,64,0
7056,pitchwheel,0,--,3685,--,0
7057,note_off,0,50,--,64,320
7058,note_on,0,45,--,64,0
7059,pitchwheel,0,--,1638,--,0
7060,note_off,0,45,--,64,320
7061,note_on,0,50,--,64,0
7062,note_off,0,50,--,64,320
7063,note_on,0,46,--,64,0
7064,pitchwheel,0,--,1638,--,0
7065,note_off,0,46,--,64,320
7066,note_on,0,47,--,64,0
7067,pitchwheel,0,--,3276,--,0
7068,note_off,0,47,--,64,320
7069,note_on,0,53,--,64,0
7070,note_off,0,53,--,64,160
7071,note_on,0,58,--,64,0
7072,pitchwheel,0,--,409,--,0
7073,note_off,0,58,--,64,160
7074,note_on,0,55,--,64,0
7075,note_off,0,55,--,64,320
7076,note_on,0,53,--,64,0
7077,pitchwheel,0,--,1228,--,0
7078,note_off,0,53,--,64,320
7079,note_on,0,48,--,64,0
7080,pitchwheel,0,--,2047,--,0
7081,note_off,0,48,--,64,160
7082,note_on,0,47,--,64,0
7083,pitchwheel,0,--,2047,--,0
7084,note_off,0,47,--,64,160
7085,note_on,0,48,--,64,0
7086,pitchwheel,0,--,819,--,0
7087,note_off,0,48,--,64,320
7088,note_on,0,53,--,64,0
7089,pitchwheel,0,--,1228,--,0
7090,note_off,0,53,--,64,320
7091,note_on,0,47,--,64,0
7092,pitchwheel,0,--,2047,--,0
7093,note_off,0,47,--,64,160
7094,note_on,0,45,--,64,0
7095,pitchwheel,0,--,1638,--,0
7096,note_off,0,45,--,64,160
7097,note_on,0,41,--,64,0
7098,note_off,0,41,--,64,320
7099,note_on,0,38,--,64,0
7100,pitchwheel,0,--,2457,--,0
7101,note_off,0,38,--,64,320
7102,note_on,0,40,--,64,0
7103,pitchwheel,0,--,2457,--,0
7104,note_off,0,40,--,64,160
7105,note_on,0,41,--,64,0
7106,note_off,0,41,--,64,160
7107,note_on,0,36,--,64,0
7108,pitchwheel,0,--,3276,--,0
7109,note_off,0,36,--,64,320
7110,note_on,0,44,--,64,0
7111,pitchwheel,0,--,2047,--,0
7112,note_off,0,44,--,64,320
7113,note_on,0,45,--,64,0
7114,pitchwheel,0,--,1638,--,0
7115,note_off,0,45,--,64,160
7116,note_on,0,36,--,64,0
7117,pitchwheel,0,--,2047,--,0
7118,note_off,0,36,--,64,480
7119,note_on,0,36,--,64,0
7120,pitchwheel,0,--,3276,--,0
7121,note_off,0,36,--,64,480
7122,note_on,0,38,--,64,0
7123,pitchwheel,0,--,2457,--,0
7124,note_off,0,38,--,64,160
7125,note_on,0,43,--,64,0
7126,note_off,0,43,--,64,320
7127,note_on,0,45,--,64,0
7128,note_off,0,45,--,64,320
7129,note_on,0,45,--,64,0
7130,pitchwheel,0,--,2047,--,0
7131,note_off,0,45,--,64,160
7132,note_on,0,43,--,64,0
7133,note_off,0,43,--,64,160
7134,note_on,0,43,--,64,0
7135,pitchwheel,0,--,2866,--,0
7136,note_off,0,43,--,64,320
7137,note_on,0,43,--,64,0
7138,pitchwheel,0,--,1638,--,0
7139,note_off,0,43,--,64,320
7140,note_on,0,43,--,64,0
7141,note_off,0,43,--,64,160
7142,note_on,0,43,--,64,0
7143,pitchwheel,0,--,1638,--,0
7144,note_off,0,43,--,64,160
7145,note_on,0,45,--,64,0
7146,pitchwheel,0,--,2047,--,0
7147,note_off,0,45,--,64,320
7148,note_on,0,45,--,64,0
7149,note_off,0,45,--,64,480
7150,note_on,0,45,--,64,0
7151,pitchwheel,0,--,1638,--,0
7152,note_off,0,45,--,64,320
7153,note_on,0,44,--,64,0
7154,pitchwheel,0,--,2047,--,0
7155,note_off,0,44,--,64,480
7156,note_on,0,38,--,64,0
7157,pitchwheel,0,--,2457,--,0
7158,note_off,0,38,--,64,160
7159,note_on,0,43,--,64,0
7160,note_off,0,43,--,64,320
7161,note_on,0,47,--,64,0
7162,pitchwheel,0,--,2457,--,0
7163,note_off,0,47,--,64,320
7164,note_on,0,43,--,64,0
7165,pitchwheel,0,--,2866,--,0
7166,note_off,0,43,--,64,160
7167,note_on,0,38,--,64,0
7168,pitchwheel,0,--,819,--,0
7169,note_off,0,38,--,64,160
7170,note_on,0,47,--,64,0
7171,pitchwheel,0,--,2047,--,0
7172,note_off,0,47,--,64,320
7173,note_on,0,38,--,64,0
7174,pitchwheel,0,--,2457,--,0
7175,note_off,0,38,--,64,320
7176,note_on,0,47,--,64,0
7177,pitchwheel,0,--,3276,--,0
7178,note_off,0,47,--,64,160
7179,note_on,0,38,--,64,0
7180,pitchwheel,0,--,3685,--,0
7181,note_off,0,38,--,64,160
7182,note_on,0,38,--,64,0
7183,pitchwheel,0,--,2457,--,0
7184,note_off,0,38,--,64,320
7185,note_on,0,38,--,64,0
7186,pitchwheel,0,--,3685,--,0
7187,note_off,0,38,--,64,320
7188,note_on,0,47,--,64,0
7189,pitchwheel,0,--,3276,--,0
7190,note_off,0,47,--,64,320
7191,note_on,0,38,--,64,0
7192,note_off,0,38,--,64,320
7193,note_on,0,36,--,64,0
7194,pitchwheel,0,--,3276,--,0
7195,note_off,0,36,--,64,320
7196,note_on,0,38,--,64,0
7197,pitchwheel,0,--,2457,--,0
7198,note_off,0,38,--,64,320
7199,note_on,0,45,--,64,0
7200,note_off,0,45,--,64,320
7201,note_on,0,43,--,64,0
7202,pitchwheel,0,--,409,--,0
7203,note_off,0,43,--,64,320
7204,note_on,0,46,--,64,0
7205,pitchwheel,0,--,1638,--,0
7206,note_off,0,46,--,64,160
7207,note_on,0,40,--,64,0
7208,pitchwheel,0,--,2457,--,0
7209,note_off,0,40,--,64,160
7210,note_on,0,36,--,64,0
7211,pitchwheel,0,--,2047,--,0
7212,note_off,0,36,--,64,320
7213,note_on,0,36,--,64,0
7214,pitchwheel,0,--,819,--,0
7215,note_off,0,36,--,64,640
7216,note_on,0,36,--,64,0
7217,pitchwheel,0,--,2047,--,0
7218,note_off,0,36,--,64,800
7219,note_on,0,45,--,64,0
7220,pitchwheel,0,--,1638,--,0
7221,note_off,0,45,--,64,160
7222,note_on,0,38,--,64,0
7223,pitchwheel,0,--,819,--,0
7224,note_off,0,38,--,64,320
7225,note_on,0,47,--,64,0
7226,pitchwheel,0,--,2457,--,0
7227,note_off,0,47,--,64,320
7228,note_on,0,41,--,64,0
7229,note_off,0,41,--,64,160
7230,note_on,0,45,--,64,0
7231,note_off,0,45,--,64,160
7232,note_on,0,45,--,64,0
7233,pitchwheel,0,--,2047,--,0
7234,note_off,0,45,--,64,320
7235,note_on,0,48,--,64,0
7236,pitchwheel,0,--,2047,--,0
7237,note_off,0,48,--,64,320
7238,note_on,0,44,--,64,0
7239,note_off,0,44,--,64,160
7240,note_on,0,43,--,64,0
7241,note_off,0,43,--,64,480
7242,note_on,0,47,--,64,0
7243,pitchwheel,0,--,3276,--,0
7244,note_off,0,47,--,64,640
7245,note_on,0,50,--,64,0
7246,note_off,0,50,--,64,320
7247,note_on,0,50,--,64,0
7248,pitchwheel,0,--,3685,--,0
7249,note_off,0,50,--,64,320
7250,note_on,0,53,--,64,0
7251,note_off,0,53,--,64,160
7252,note_on,0,57,--,64,0
7253,pitchwheel,0,--,2047,--,0
7254,note_off,0,57,--,64,160
7255,note_on,0,57,--,64,0
7256,pitchwheel,0,--,1638,--,0
7257,note_off,0,57,--,64,320
7258,note_on,0,57,--,64,0
7259,pitchwheel,0,--,2047,--,0
7260,note_off,0,57,--,64,320
7261,note_on,0,57,--,64,0
7262,note_off,0,57,--,64,160
7263,note_on,0,56,--,64,0
7264,pitchwheel,0,--,2047,--,0
7265,note_off,0,56,--,64,160
7266,note_on,0,55,--,64,0
7267,pitchwheel,0,--,409,--,0
7268,note_off,0,55,--,64,320
7269,note_on,0,57,--,64,0
7270,pitchwheel,0,--,1638,--,0
7271,note_off,0,57,--,64,320
7272,note_on,0,58,--,64,0
7273,pitchwheel,0,--,1638,--,0
7274,note_off,0,58,--,64,160
7275,note_on,0,57,--,64,0
7276,pitchwheel,0,--,1638,--,0
7277,note_off,0,57,--,64,480
7278,note_on,0,57,--,64,0
7279,pitchwheel,0,--,2047,--,0
7280,note_off,0,57,--,64,320
7281,note_on,0,55,--,64,0
7282,pitchwheel,0,--,1638,--,0
7283,note_off,0,55,--,64,160
7284,note_on,0,53,--,64,0
7285,note_off,0,53,--,64,160
7286,note_on,0,58,--,64,0
7287,pitchwheel,0,--,1638,--,0
7288,note_off,0,58,--,64,320
7289,note_on,0,48,--,64,0
7290,pitchwheel,0,--,2047,--,0
7291,note_off,0,48,--,64,320
7292,note_on,0,53,--,64,0
7293,note_off,0,53,--,64,160
7294,note_on,0,55,--,64,0
7295,pitchwheel,0,--,409,--,0
7296,note_off,0,55,--,64,160
7297,note_on,0,55,--,64,0
7298,note_off,0,55,--,64,320
7299,note_on,0,48,--,64,0
7300,pitchwheel,0,--,3276,--,0
7301,note_off,0,48,--,64,320
7302,note_on,0,48,--,64,0
7303,pitchwheel,0,--,2047,--,0
7304,note_off,0,48,--,64,160
7305,note_on,0,53,--,64,0
7306,note_off,0,53,--,64,160
7307,note_on,0,48,--,64,0
7308,pitchwheel,0,--,819,--,0
7309,note_off,0,48,--,64,320
7310,note_on,0,46,--,64,0
7311,pitchwheel,0,--,409,--,0
7312,note_off,0,46,--,64,480
7313,note_on,0,47,--,64,0
7314,pitchwheel,0,--,3276,--,0
7315,note_off,0,47,--,64,160
7316,note_on,0,50,--,64,0
7317,pitchwheel,0,--,3685,--,0
7318,note_off,0,50,--,64,320
7319,note_on,0,46,--,64,0
7320,pitchwheel,0,--,1638,--,0
7321,note_off,0,46,--,64,320
7322,note_on,0,40,--,64,0
7323,pitchwheel,0,--,2457,--,0
7324,note_off,0,40,--,64,160
7325,note_on,0,43,--,64,0
7326,pitchwheel,0,--,1638,--,0
7327,note_off,0,43,--,64,160
7328,note_on,0,46,--,64,0
7329,pitchwheel,0,--,1638,--,0
7330,note_off,0,46,--,64,320
7331,note_on,0,46,--,64,0
7332,pitchwheel,0,--,409,--,0
7333,note_off,0,46,--,64,320
7334,note_on,0,45,--,64,0
7335,pitchwheel,0,--,3276,--,0
7336,note_off,0,45,--,64,320
7337,note_on,0,44,--,64,0
7338,pitchwheel,0,--,2047,--,0
7339,note_off,0,44,--,64,320
7340,note_on,0,41,--,64,0
7341,note_off,0,41,--,64,320
7342,note_on,0,40,--,64,0
7343,pitchwheel,0,--,1638,--,0
7344,note_off,0,40,--,64,320
7345,note_on,0,38,--,64,0
7346,pitchwheel,0,--,819,--,0
7347,note_off,0,38,--,64,320
7348,note_on,0,44,--,64,0
7349,note_off,0,44,--,64,160
7350,note_on,0,43,--,64,0
7351,note_off,0,43,--,64,160
7352,note_on,0,40,--,64,0
7353,pitchwheel,0,--,1638,--,0
7354,note_off,0,40,--,64,320
7355,note_on,0,44,--,64,0
7356,note_off,0,44,--,64,480
7357,note_on,0,41,--,64,0
7358,note_off,0,41,--,64,160
7359,note_on,0,44,--,64,0
7360,note_off,0,44,--,64,320
7361,note_on,0,43,--,64,0
7362,note_off,0,43,--,64,320
7363,note_on,0,41,--,64,0
7364,note_off,0,41,--,64,320
7365,note_on,0,47,--,64,0
7366,pitchwheel,0,--,3276,--,0
7367,note_off,0,47,--,64,320
7368,note_on,0,46,--,64,0
7369,pitchwheel,0,--,1638,--,0
7370,note_off,0,46,--,64,320
7371,note_on,0,36,--,64,0
7372,pitchwheel,0,--,2047,--,0
7373,note_off,0,36,--,64,320
7374,note_on,0,36,--,64,0
7375,pitchwheel,0,--,819,--,0
7376,note_off,0,36,--,64,320
7377,note_on,0,43,--,64,0
7378,note_off,0,43,--,64,320
7379,note_on,0,44,--,64,0
7380,note_off,0,44,--,64,160
7381,note_on,0,45,--,64,0
7382,pitchwheel,0,--,1638,--,0
7383,note_off,0,45,--,64,160
7384,note_on,0,45,--,64,0
7385,note_off,0,45,--,64,320
7386,note_on,0,46,--,64,0
7387,note_off,0,46,--,64,320
7388,note_on,0,45,--,64,0
7389,pitchwheel,0,--,1638,--,0
7390,note_off,0,45,--,64,160
7391,note_on,0,41,--,64,0
7392,note_off,0,41,--,64,160
7393,note_on,0,44,--,64,0
7394,note_off,0,44,--,64,320
7395,note_on,0,41,--,64,0
7396,pitchwheel,0,--,1228,--,0
7397,note_off,0,41,--,64,320
7398,note_on,0,43,--,64,0
7399,note_off,0,43,--,64,320
7400,note_on,0,46,--,64,0
7401,pitchwheel,0,--,409,--,0
7402,note_off,0,46,--,64,320
7403,note_on,0,43,--,64,0
7404,pitchwheel,0,--,409,--,0
7405,note_off,0,43,--,64,320
7406,note_on,0,47,--,64,0
7407,pitchwheel,0,--,2047,--,0
7408,note_off,0,47,--,64,160
7409,note_on,0,45,--,64,0
7410,note_off,0,45,--,64,160
7411,note_on,0,41,--,64,0
7412,pitchwheel,0,--,1228,--,0
7413,note_off,0,41,--,64,320
7414,note_on,0,43,--,64,0
7415,note_off,0,43,--,64,320
7416,note_on,0,41,--,64,0
7417,note_off,0,41,--,64,160
7418,note_on,0,47,--,64,0
7419,pitchwheel,0,--,3276,--,0
7420,note_off,0,47,--,64,160
7421,note_on,0,43,--,64,0
7422,pitchwheel,0,--,2866,--,0
7423,note_off,0,43,--,64,320
7424,note_on,0,46,--,64,0
7425,note_off,0,46,--,64,320
7426,note_on,0,36,--,64,0
7427,pitchwheel,0,--,2047,--,0
7428,note_off,0,36,--,64,320
7429,note_on,0,43,--,64,0
7430,pitchwheel,0,--,1638,--,0
7431,note_off,0,43,--,64,320
7432,note_on,0,45,--,64,0
7433,pitchwheel,0,--,1638,--,0
7434,note_off,0,45,--,64,320
7435,note_on,0,45,--,64,0
7436,note_off,0,45,--,64,160
7437,note_on,0,47,--,64,0
7438,pitchwheel,0,--,2457,--,0
7439,note_off,0,47,--,64,160
7440,note_on,0,40,--,64,0
7441,pitchwheel,0,--,2457,--,0
7442,note_off,0,40,--,64,320
7443,note_on,0,41,--,64,0
7444,pitchwheel,0,--,2457,--,0
7445,note_off,0,41,--,64,320
7446,note_on,0,41,--,64,0
7447,pitchwheel,0,--,1228,--,0
7448,note_off,0,41,--,64,160
7449,note_on,0,47,--,64,0
7450,pitchwheel,0,--,2047,--,0
7451,note_off,0,47,--,64,160
7452,note_on,0,41,--,64,0
7453,note_off,0,41,--,64,800
7454,note_on,0,38,--,64,0
7455,pitchwheel,0,--,819,--,0
7456,note_off,0,38,--,64,160
7457,note_on,0,38,--,64,0
7458,pitchwheel,0,--,2457,--,0
7459,note_off,0,38,--,64,320
7460,note_on,0,39,--,64,0
7461,pitchwheel,0,--,819,--,0
7462,note_off,0,39,--,64,320
7463,note_on,0,45,--,64,0
7464,pitchwheel,0,--,1638,--,0
7465,note_off,0,45,--,64,160
7466,note_on,0,45,--,64,0
7467,pitchwheel,0,--,3276,--,0
7468,note_off,0,45,--,64,160
7469,note_on,0,47,--,64,0
7470,pitchwheel,0,--,3276,--,0
7471,note_off,0,47,--,64,320
7472,note_on,0,46,--,64,0
7473,note_off,0,46,--,64,480
7474,note_on,0,38,--,64,0
7475,note_off,0,38,--,64,480
7476,note_on,0,46,--,64,0
7477,pitchwheel,0,--,1638,--,0
7478,note_off,0,46,--,64,480
7479,note_on,0,38,--,64,0
7480,pitchwheel,0,--,2457,--,0
7481,note_off,0,38,--,64,160
7482,note_on,0,47,--,64,0
7483,pitchwheel,0,--,2047,--,0
7484,note_off,0,47,--,64,320
7485,note_on,0,47,--,64,0
7486,pitchwheel,0,--,3276,--,0
7487,note_off,0,47,--,64,320
7488,note_on,0,36,--,64,0
7489,pitchwheel,0,--,819,--,0
7490,note_off,0,36,--,64,160
7491,note_on,0,40,--,64,0
7492,pitchwheel,0,--,2457,--,0
7493,note_off,0,40,--,64,160
7494,note_on,0,41,--,64,0
7495,note_off,0,41,--,64,320
7496,note_on,0,41,--,64,0
7497,pitchwheel,0,--,1228,--,0
7498,note_off,0,41,--,64,320
7499,note_on,0,47,--,64,0
7500,pitchwheel,0,--,3276,--,0
7501,note_off,0,47,--,64,160
7502,note_on,0,36,--,64,0
7503,pitchwheel,0,--,819,--,0
7504,note_off,0,36,--,64,160
7505,note_on,0,47,--,64,0
7506,pitchwheel,0,--,3685,--,0
7507,note_off,0,47,--,64,320
7508,note_on,0,45,--,64,0
7509,note_off,0,45,--,64,320
7510,note_on,0,36,--,64,0
7511,pitchwheel,0,--,2047,--,0
7512,note_off,0,36,--,64,320
7513,note_on,0,38,--,64,0
7514,pitchwheel,0,--,819,--,0
7515,note_off,0,38,--,64,320
7516,note_on,0,36,--,64,0
7517,pitchwheel,0,--,3276,--,0
7518,note_off,0,36,--,64,480
7519,note_on,0,36,--,64,0
7520,pitchwheel,0,--,2047,--,0
7521,note_off,0,36,--,64,160
7522,note_on,0,47,--,64,0
7523,pitchwheel,0,--,3685,--,0
7524,note_off,0,47,--,64,320
7525,note_on,0,45,--,64,0
7526,pitchwheel,0,--,2047,--,0
7527,note_off,0,45,--,64,480
7528,note_on,0,45,--,64,0
7529,pitchwheel,0,--,1638,--,0
7530,note_off,0,45,--,64,480
7531,note_on,0,38,--,64,0
7532,note_off,0,38,--,64,320
7533,note_on,0,40,--,64,0
7534,pitchwheel,0,--,2457,--,0
7535,note_off,0,40,--,64,320
7536,note_on,0,46,--,64,0
7537,pitchwheel,0,--,1638,--,0
7538,note_off,0,46,--,64,320
7539,note_on,0,46,--,64,0
7540,note_off,0,46,--,64,640
7541,note_on,0,43,--,64,0
7542,pitchwheel,0,--,409,--,0
7543,note_off,0,43,--,64,320
7544,note_on,0,46,--,64,0
7545,note_off,0,46,--,64,320
7546,note_on,0,41,--,64,0
7547,note_off,0,41,--,64,320
7548,note_on,0,46,--,64,0
7549,pitchwheel,0,--,409,--,0
7550,note_off,0,46,--,64,320
7551,note_on,0,47,--,64,0
7552,pitchwheel,0,--,2047,--,0
7553,note_off,0,47,--,64,320
7554,note_on,0,44,--,64,0
7555,note_off,0,44,--,64,160
7556,note_on,0,43,--,64,0
7557,note_off,0,43,--,64,160
7558,note_on,0,48,--,64,0
7559,pitchwheel,0,--,819,--,0
7560,note_off,0,48,--,64,320
7561,note_on,0,48,--,64,0
7562,pitchwheel,0,--,2047,--,0
7563,note_off,0,48,--,64,480
7564,note_on,0,52,--,64,0
7565,pitchwheel,0,--,2866,--,0
7566,note_off,0,52,--,64,160
7567,note_on,0,48,--,64,0
7568,pitchwheel,0,--,3276,--,0
7569,note_off,0,48,--,64,320
7570,note_on,0,52,--,64,0
7571,pitchwheel,0,--,1638,--,0
7572,note_off,0,52,--,64,320
7573,note_on,0,53,--,64,0
7574,note_off,0,53,--,64,160
7575,note_on,0,57,--,64,0
7576,pitchwheel,0,--,1638,--,0
7577,note_off,0,57,--,64,160
7578,note_on,0,52,--,64,0
7579,pitchwheel,0,--,2457,--,0
7580,note_off,0,52,--,64,320
7581,note_on,0,51,--,64,0
7582,pitchwheel,0,--,819,--,0
7583,note_off,0,51,--,64,320
7584,note_on,0,57,--,64,0
7585,note_off,0,57,--,64,320
7586,note_on,0,58,--,64,0
7587,note_off,0,58,--,64,320
7588,note_on,0,57,--,64,0
7589,pitchwheel,0,--,3276,--,0
7590,note_off,0,57,--,64,320
7591,note_on,0,57,--,64,0
7592,pitchwheel,0,--,2047,--,0
7593,note_off,0,57,--,64,160
7594,note_on,0,52,--,64,0
7595,pitchwheel,0,--,2457,--,0
7596,note_off,0,52,--,64,480
7597,note_on,0,48,--,64,0
7598,pitchwheel,0,--,3276,--,0
7599,note_off,0,48,--,64,320
7600,note_on,0,43,--,64,0
7601,note_off,0,43,--,64,320
7602,note_on,0,46,--,64,0
7603,note_off,0,46,--,64,320
7604,note_on,0,45,--,64,0
7605,pitchwheel,0,--,3276,--,0
7606,note_off,0,45,--,64,320
7607,note_on,0,45,--,64,0
7608,pitchwheel,0,--,2047,--,0
7609,note_off,0,45,--,64,160
7610,note_on,0,43,--,64,0
7611,pitchwheel,0,--,1638,--,0
7612,note_off,0,43,--,64,160
7613,note_on,0,38,--,64,0
7614,pitchwheel,0,--,819,--,0
7615,note_off,0,38,--,64,320
7616,note_on,0,43,--,64,0
7617,pitchwheel,0,--,1638,--,0
7618,note_off,0,43,--,64,320
7619,note_on,0,45,--,64,0
7620,note_off,0,45,--,64,160
7621,note_on,0,41,--,64,0
7622,note_off,0,41,--,64,480
7623,note_on,0,38,--,64,0
7624,pitchwheel,0,--,2457,--,0
7625,note_off,0,38,--,64,320
7626,note_on,0,44,--,64,0
7627,note_off,0,44,--,64,160
7628,note_on,0,38,--,64,0
7629,pitchwheel,0,--,819,--,0
7630,note_off,0,38,--,64,480
7631,note_on,0,46,--,64,0
7632,pitchwheel,0,--,1638,--,0
7633,note_off,0,46,--,64,320
7634,note_on,0,45,--,64,0
7635,pitchwheel,0,--,2047,--,0
7636,note_off,0,45,--,64,320
7637,note_on,0,50,--,64,0
7638,pitchwheel,0,--,2457,--,0
7639,note_off,0,50,--,64,320
7640,note_on,0,56,--,64,0
7641,pitchwheel,0,--,2047,--,0
7642,note_off,0,56,--,64,320
7643,note_on,0,50,--,64,0
7644,pitchwheel,0,--,1228,--,0
7645,note_off,0,50,--,64,160
7646,note_on,0,53,--,64,0
7647,note_off,0,53,--,64,160
7648,note_on,0,47,--,64,0
7649,pitchwheel,0,--,3276,--,0
7650,note_off,0,47,--,64,320
7651,note_on,0,46,--,64,0
7652,pitchwheel,0,--,1638,--,0
7653,note_off,0,46,--,64,320
7654,note_on,0,41,--,64,0
7655,note_off,0,41,--,64,160
7656,note_on,0,38,--,64,0
7657,pitchwheel,0,--,3685,--,0
7658,note_off,0,38,--,64,160
7659,note_on,0,45,--,64,0
7660,pitchwheel,0,--,1638,--,0
7661,note_off,0,45,--,64,320
7662,note_on,0,47,--,64,0
7663,pitchwheel,0,--,3685,--,0
7664,note_off,0,47,--,64,320
7665,note_on,0,45,--,64,0
7666,pitchwheel,0,--,2047,--,0
7667,note_off,0,45,--,64,160
7668,note_on,0,47,--,64,0
7669,pitchwheel,0,--,3276,--,0
7670,note_off,0,47,--,64,160
7671,note_on,0,50,--,64,0
7672,note_off,0,50,--,64,320
7673,note_on,0,45,--,64,0
7674,note_off,0,45,--,64,320
7675,note_on,0,45,--,64,0
7676,pitchwheel,0,--,2047,--,0
7677,note_off,0,45,--,64,160
7678,note_on,0,47,--,64,0
7679,pitchwheel,0,--,3685,--,0
7680,note_off,0,47,--,64,160
7681,note_on,0,43,--,64,0
7682,pitchwheel,0,--,1638,--,0
7683,note_off,0,43,--,64,320
7684,note_on,0,38,--,64,0
7685,pitchwheel,0,--,2457,--,0
7686,note_off,0,38,--,64,320
7687,note_on,0,38,--,64,0
7688,pitchwheel,0,--,1228,--,0
7689,note_off,0,38,--,64,320
7690,note_on,0,38,--,64,0
7691,pitchwheel,0,--,819,--,0
7692,note_off,0,38,--,64,320
7693,note_on,0,41,--,64,0
7694,note_off,0,41,--,64,640
7695,note_on,0,36,--,64,0
7696,pitchwheel,0,--,2047,--,0
7697,note_off,0,36,--,64,320
7698,note_on,0,36,--,64,0
7699,pitchwheel,0,--,3276,--,0
7700,note_off,0,36,--,64,160
7701,note_on,0,47,--,64,0
7702,pitchwheel,0,--,3276,--,0
7703,note_off,0,47,--,64,160
7704,note_on,0,44,--,64,0
7705,pitchwheel,0,--,2047,--,0
7706,note_off,0,44,--,64,320
7707,note_on,0,46,--,64,0
7708,note_off,0,46,--,64,480
7709,note_on,0,45,--,64,0
7710,note_off,0,45,--,64,160
7711,note_on,0,36,--,64,0
7712,pitchwheel,0,--,3276,--,0
7713,note_off,0,36,--,64,320
7714,note_on,0,45,--,64,0
7715,pitchwheel,0,--,1638,--,0
7716,note_off,0,45,--,64,320
7717,note_on,0,44,--,64,0
7718,pitchwheel,0,--,2047,--,0
7719,note_off,0,44,--,64,320
7720,note_on,0,45,--,64,0
7721,pitchwheel,0,--,1638,--,0
7722,note_off,0,45,--,64,640
7723,note_on,0,45,--,64,0
7724,pitchwheel,0,--,3276,--,0
7725,note_off,0,45,--,64,320
7726,note_on,0,46,--,64,0
7727,pitchwheel,0,--,409,--,0
7728,note_off,0,46,--,64,320
7729,note_on,0,40,--,64,0
7730,pitchwheel,0,--,2457,--,0
7731,note_off,0,40,--,64,320
7732,note_on,0,36,--,64,0
7733,pitchwheel,0,--,2047,--,0
7734,note_off,0,36,--,64,160
7735,note_on,0,45,--,64,0
7736,pitchwheel,0,--,1638,--,0
7737,note_off,0,45,--,64,160
7738,note_on,0,45,--,64,0
7739,note_off,0,45,--,64,320
7740,note_on,0,46,--,64,0
7741,note_off,0,46,--,64,320
7742,note_on,0,43,--,64,0
7743,note_off,0,43,--,64,160
7744,note_on,0,43,--,64,0
7745,pitchwheel,0,--,2866,--,0
7746,note_off,0,43,--,64,480
7747,note_on,0,43,--,64,0
7748,pitchwheel,0,--,1638,--,0
7749,note_off,0,43,--,64,320
7750,note_on,0,36,--,64,0
7751,pitchwheel,0,--,2047,--,0
7752,note_off,0,36,--,64,160
7753,note_on,0,47,--,64,0
7754,pitchwheel,0,--,3276,--,0
7755,note_off,0,47,--,64,160
7756,note_on,0,47,--,64,0
7757,pitchwheel,0,--,2457,--,0
7758,note_off,0,47,--,64,320
7759,note_on,0,47,--,64,0
7760,pitchwheel,0,--,3685,--,0
7761,note_off,0,47,--,64,320
7762,note_on,0,38,--,64,0
7763,pitchwheel,0,--,1228,--,0
7764,note_off,0,38,--,64,160
7765,note_on,0,45,--,64,0
7766,note_off,0,45,--,64,160
7767,note_on,0,38,--,64,0
7768,pitchwheel,0,--,2457,--,0
7769,note_off,0,38,--,64,320
7770,note_on,0,40,--,64,0
7771,pitchwheel,0,--,2457,--,0
7772,note_off,0,40,--,64,320
7773,note_on,0,44,--,64,0
7774,note_off,0,44,--,64,160
7775,note_on,0,43,--,64,0
7776,note_off,0,43,--,64,160
7777,note_on,0,38,--,64,0
7778,pitchwheel,0,--,2457,--,0
7779,note_off,0,38,--,64,320
7780,note_on,0,40,--,64,0
7781,pitchwheel,0,--,2457,--,0
7782,note_off,0,40,--,64,320
7783,note_on,0,38,--,64,0
7784,note_off,0,38,--,64,320
7785,note_on,0,40,--,64,0
7786,pitchwheel,0,--,2866,--,0
7787,note_off,0,40,--,64,320
7788,note_on,0,38,--,64,0
7789,pitchwheel,0,--,2457,--,0
7790,note_off,0,38,--,64,320
7791,note_on,0,45,--,64,0
7792,pitchwheel,0,--,2047,--,0
7793,note_off,0,45,--,64,160
7794,note_on,0,46,--,64,0
7795,pitchwheel,0,--,409,--,0
7796,note_off,0,46,--,64,160
7797,note_on,0,47,--,64,0
7798,pitchwheel,0,--,3685,--,0
7799,note_off,0,47,--,64,320
7800,note_on,0,46,--,64,0
7801,pitchwheel,0,--,1638,--,0
7802,note_off,0,46,--,64,320
7803,note_on,0,41,--,64,0
7804,note_off,0,41,--,64,160
7805,note_on,0,47,--,64,0
7806,pitchwheel,0,--,2047,--,0
7807,note_off,0,47,--,64,160
7808,note_on,0,41,--,64,0
7809,pitchwheel,0,--,1228,--,0
7810,note_off,0,41,--,64,320
7811,note_on,0,40,--,64,0
7812,pitchwheel,0,--,2866,--,0
7813,note_off,0,40,--,64,320
7814,note_on,0,44,--,64,0
7815,note_off,0,44,--,64,160
7816,note_on,0,40,--,64,0
7817,pitchwheel,0,--,2457,--,0
7818,note_off,0,40,--,64,160
7819,note_on,0,41,--,64,0
7820,note_off,0,41,--,64,320
7821,note_on,0,38,--,64,0
7822,pitchwheel,0,--,819,--,0
7823,note_off,0,38,--,64,320
7824,note_on,0,43,--,64,0
7825,note_off,0,43,--,64,160
7826,note_on,0,38,--,64,0
7827,pitchwheel,0,--,3685,--,0
7828,note_off,0,38,--,64,160
7829,note_on,0,44,--,64,0
7830,note_off,0,44,--,64,320
7831,note_on,0,45,--,64,0
7832,pitchwheel,0,--,1638,--,0
7833,note_off,0,45,--,64,320
7834,note_on,0,46,--,64,0
7835,note_off,0,46,--,64,160
7836,note_on,0,48,--,64,0
7837,pitchwheel,0,--,2047,--,0
7838,note_off,0,48,--,64,480
7839,note_on,0,51,--,64,0
7840,pitchwheel,0,--,819,--,0
7841,note_off,0,51,--,64,480
7842,note_on,0,50,--,64,0
7843,pitchwheel,0,--,2457,--,0
7844,note_off,0,50,--,64,160
7845,note_on,0,45,--,64,0
7846,note_off,0,45,--,64,640
7847,note_on,0,46,--,64,0
7848,note_off,0,46,--,64,160
7849,note_on,0,47,--,64,0
7850,pitchwheel,0,--,2457,--,0
7851,note_off,0,47,--,64,160
7852,note_on,0,45,--,64,0
7853,pitchwheel,0,--,3276,--,0
7854,note_off,0,45,--,64,320
7855,note_on,0,46,--,64,0
7856,pitchwheel,0,--,409,--,0
7857,note_off,0,46,--,64,320
7858,note_on,0,43,--,64,0
7859,note_off,0,43,--,64,160
7860,note_on,0,48,--,64,0
7861,pitchwheel,0,--,2047,--,0
7862,note_off,0,48,--,64,160
7863,note_on,0,43,--,64,0
7864,pitchwheel,0,--,409,--,0
7865,note_off,0,43,--,64,320
7866,note_on,0,45,--,64,0
7867,note_off,0,45,--,64,480
7868,note_on,0,47,--,64,0
7869,pitchwheel,0,--,3276,--,0
7870,note_off,0,47,--,64,320
7871,note_on,0,46,--,64,0
7872,pitchwheel,0,--,1638,--,0
7873,note_off,0,46,--,64,480
7874,note_on,0,50,--,64,0
7875,pitchwheel,0,--,2457,--,0
7876,note_off,0,50,--,64,160
7877,note_on,0,48,--,64,0
7878,pitchwheel,0,--,2047,--,0
7879,note_off,0,48,--,64,320
7880,note_on,0,47,--,64,0
7881,pitchwheel,0,--,2457,--,0
7882,note_off,0,47,--,64,320
7883,note_on,0,47,--,64,0
7884,pitchwheel,0,--,3276,--,0
7885,note_off,0,47,--,64,320
7886,note_on,0,52,--,64,0
7887,pitchwheel,0,--,2866,--,0
7888,note_off,0,52,--,64,320
7889,note_on,0,50,--,64,0
7890,pitchwheel,0,--,1228,--,0
7891,note_off,0,50,--,64,320
7892,note_on,0,50,--,64,0
7893,pitchwheel,0,--,819,--,0
7894,note_off,0,50,--,64,160
7895,note_on,0,47,--,64,0
7896,pitchwheel,0,--,2047,--,0
7897,note_off,0,47,--,64,160
7898,note_on,0,50,--,64,0
7899,pitchwheel,0,--,2457,--,0
7900,note_off,0,50,--,64,320
7901,note_on,0,46,--,64,0
7902,note_off,0,46,--,64,320
7903,note_on,0,43,--,64,0
7904,note_off,0,43,--,64,320
7905,note_on,0,38,--,64,0
7906,note_off,0,38,--,64,320
7907,note_on,0,36,--,64,0
7908,pitchwheel,0,--,3276,--,0
7909,note_off,0,36,--,64,320
7910,note_on,0,38,--,64,0
7911,pitchwheel,0,--,2457,--,0
7912,note_off,0,38,--,64,320
7913,note_on,0,45,--,64,0
7914,note_off,0,45,--,64,320
7915,note_on,0,40,--,64,0
7916,pitchwheel,0,--,2457,--,0
7917,note_off,0,40,--,64,320
7918,note_on,0,46,--,64,0
7919,pitchwheel,0,--,1638,--,0
7920,note_off,0,46,--,64,160
7921,note_on,0,38,--,64,0
7922,pitchwheel,0,--,819,--,0
7923,note_off,0,38,--,64,160
7924,note_on,0,41,--,64,0
7925,note_off,0,41,--,64,320
7926,note_on,0,41,--,64,0
7927,pitchwheel,0,--,1228,--,0
7928,note_off,0,41,--,64,480
7929,note_on,0,43,--,64,0
7930,pitchwheel,0,--,2866,--,0
7931,note_off,0,43,--,64,160
7932,note_on,0,40,--,64,0
7933,note_off,0,40,--,64,320
7934,note_on,0,43,--,64,0
7935,pitchwheel,0,--,1638,--,0
7936,note_off,0,43,--,64,480
7937,note_on,0,38,--,64,0
7938,pitchwheel,0,--,819,--,0
7939,note_off,0,38,--,64,160
7940,note_on,0,43,--,64,0
7941,note_off,0,43,--,64,320
7942,note_on,0,44,--,64,0
7943,note_off,0,44,--,64,320
7944,note_on,0,41,--,64,0
7945,note_off,0,41,--,64,160
7946,note_on,0,45,--,64,0
7947,note_off,0,45,--,64,160
7948,note_on,0,46,--,64,0
7949,note_off,0,46,--,64,320
7950,note_on,0,45,--,64,0
7951,pitchwheel,0,--,2047,--,0
7952,note_off,0,45,--,64,320
7953,note_on,0,46,--,64,0
7954,note_off,0,46,--,64,160
7955,note_on,0,40,--,64,0
7956,pitchwheel,0,--,2457,--,0
7957,note_off,0,40,--,64,480
7958,note_on,0,37,--,64,0
7959,note_off,0,37,--,64,320
7960,note_on,0,45,--,64,0
7961,pitchwheel,0,--,1638,--,0
7962,note_off,0,45,--,64,320
7963,note_on,0,46,--,64,0
7964,pitchwheel,0,--,1638,--,0
7965,note_off,0,46,--,64,320
7966,note_on,0,45,--,64,0
7967,pitchwheel,0,--,2047,--,0
7968,note_off,0,45,--,64,320
7969,note_on,0,45,--,64,0
7970,pitchwheel,0,--,3276,--,0
7971,note_off,0,45,--,64,160
7972,note_on,0,45,--,64,0
7973,pitchwheel,0,--,2047,--,0
7974,note_off,0,45,--,64,160
7975,note_on,0,45,--,64,0
7976,pitchwheel,0,--,1638,--,0
7977,note_off,0,45,--,64,320
7978,note_on,0,45,--,64,0
7979,pitchwheel,0,--,2047,--,0
7980,note_off,0,45,--,64,320
7981,note_on,0,45,--,64,0
7982,note_off,0,45,--,64,160
7983,note_on,0,45,--,64,0
7984,pitchwheel,0,--,3276,--,0
7985,note_off,0,45,--,64,160
7986,note_on,0,43,--,64,0
7987,pitchwheel,0,--,409,--,0
7988,note_off,0,43,--,64,320
7989,note_on,0,47,--,64,0
7990,pitchwheel,0,--,3276,--,0
7991,note_off,0,47,--,64,320
7992,note_on,0,36,--,64,0
7993,pitchwheel,0,--,3276,--,0
7994,note_off,0,36,--,64,160
7995,note_on,0,43,--,64,0
7996,note_off,0,43,--,64,480
7997,note_on,0,44,--,64,0
7998,note_off,0,44,--,64,320
7999,note_on,0,43,--,64,0
8000,pitchwheel,0,--,1638,--,0
8001,note_off,0,43,--,64,160
8002,note_on,0,38,--,64,0
8003,pitchwheel,0,--,3685,--,0
8004,note_off,0,38,--,64,160
8005,note_on,0,45,--,64,0
8006,pitchwheel,0,--,2047,--,0
8007,note_off,0,45,--,64,320
8008,note_on,0,47,--,64,0
8009,pitchwheel,0,--,2047,--,0
8010,note_off,0,47,--,64,320
8011,note_on,0,38,--,64,0
8012,pitchwheel,0,--,2457,--,0
8013,note_off,0,38,--,64,160
8014,note_on,0,43,--,64,0
8015,pitchwheel,0,--,409,--,0
8016,note_off,0,43,--,64,160
8017,note_on,0,38,--,64,0
8018,pitchwheel,0,--,819,--,0
8019,note_off,0,38,--,64,320
8020,note_on,0,39,--,64,0
8021,pitchwheel,0,--,819,--,0
8022,note_off,0,39,--,64,320
8023,note_on,0,38,--,64,0
8024,pitchwheel,0,--,1228,--,0
8025,note_off,0,38,--,64,160
8026,note_on,0,41,--,64,0
8027,note_off,0,41,--,64,160
8028,note_on,0,46,--,64,0
8029,pitchwheel,0,--,409,--,0
8030,note_off,0,46,--,64,320
8031,note_on,0,47,--,64,0
8032,pitchwheel,0,--,3685,--,0
8033,note_off,0,47,--,64,320
8034,note_on,0,48,--,64,0
8035,pitchwheel,0,--,3276,--,0
8036,note_off,0,48,--,64,160
8037,note_on,0,50,--,64,0
8038,note_off,0,50,--,64,160
8039,note_on,0,50,--,64,0
8040,pitchwheel,0,--,3685,--,0
8041,note_off,0,50,--,64,320
8042,note_on,0,48,--,64,0
8043,pitchwheel,0,--,819,--,0
8044,note_off,0,48,--,64,320
8045,note_on,0,52,--,64,0
8046,pitchwheel,0,--,2457,--,0
8047,note_off,0,52,--,64,160
8048,note_on,0,48,--,64,0
8049,pitchwheel,0,--,2047,--,0
8050,note_off,0,48,--,64,160
8051,note_on,0,53,--,64,0
8052,pitchwheel,0,--,2457,--,0
8053,note_off,0,53,--,64,320
8054,note_on,0,52,--,64,0
8055,pitchwheel,0,--,2866,--,0
8056,note_off,0,52,--,64,320
8057,note_on,0,53,--,64,0
8058,note_off,0,53,--,64,320
8059,note_on,0,52,--,64,0
8060,note_off,0,52,--,64,320
8061,note_on,0,53,--,64,0
8062,note_off,0,53,--,64,160
8063,note_on,0,52,--,64,0
8064,pitchwheel,0,--,1638,--,0
8065,note_off,0,52,--,64,160
8066,note_on,0,48,--,64,0
8067,pitchwheel,0,--,2047,--,0
8068,note_off,0,48,--,64,320
8069,note_on,0,53,--,64,0
8070,note_off,0,53,--,64,320
8071,note_on,0,53,--,64,0
8072,pitchwheel,0,--,2457,--,0
8073,note_off,0,53,--,64,160
8074,note_on,0,57,--,64,0
8075,pitchwheel,0,--,1638,--,0
8076,note_off,0,57,--,64,480
8077,note_on,0,56,--,64,0
8078,note_off,0,56,--,64,480
8079,note_on,0,50,--,64,0
8080,pitchwheel,0,--,2457,--,0
8081,note_off,0,50,--,64,160
8082,note_on,0,50,--,64,0
8083,pitchwheel,0,--,819,--,0
8084,note_off,0,50,--,64,320
8085,note_on,0,47,--,64,0
8086,pitchwheel,0,--,3276,--,0
8087,note_off,0,47,--,64,320
8088,note_on,0,49,--,64,0
8089,note_off,0,49,--,64,320
8090,note_on,0,43,--,64,0
8091,note_off,0,43,--,64,320
8092,note_on,0,46,--,64,0
8093,note_off,0,46,--,64,320
8094,note_on,0,40,--,64,0
8095,pitchwheel,0,--,2866,--,0
8096,note_off,0,40,--,64,320
8097,note_on,0,41,--,64,0
8098,note_off,0,41,--,64,320
8099,note_on,0,47,--,64,0
8100,pitchwheel,0,--,2047,--,0
8101,note_off,0,47,--,64,320
8102,note_on,0,47,--,64,0
8103,pitchwheel,0,--,3685,--,0
8104,note_off,0,47,--,64,160
8105,note_on,0,47,--,64,0
8106,pitchwheel,0,--,3276,--,0
8107,note_off,0,47,--,64,160
8108,note_on,0,45,--,64,0
8109,note_off,0,45,--,64,320
8110,note_on,0,46,--,64,0
8111,note_off,0,46,--,64,320
8112,note_on,0,40,--,64,0
8113,pitchwheel,0,--,2457,--,0
8114,note_off,0,40,--,64,160
8115,note_on,0,45,--,64,0
8116,pitchwheel,0,--,2047,--,0
8117,note_off,0,45,--,64,160
8118,note_on,0,40,--,64,0
8119,pitchwheel,0,--,2866,--,0
8120,note_off,0,40,--,64,320
8121,note_on,0,45,--,64,0
8122,pitchwheel,0,--,3276,--,0
8123,note_off,0,45,--,64,320
8124,note_on,0,38,--,64,0
8125,pitchwheel,0,--,819,--,0
8126,note_off,0,38,--,64,160
8127,note_on,0,40,--,64,0
8128,pitchwheel,0,--,2457,--,0
8129,note_off,0,40,--,64,160
8130,note_on,0,46,--,64,0
8131,pitchwheel,0,--,409,--,0
8132,note_off,0,46,--,64,320
8133,note_on,0,43,--,64,0
8134,pitchwheel,0,--,2866,--,0
8135,note_off,0,43,--,64,320
8136,note_on,0,40,--,64,0
8137,note_off,0,40,--,64,160
8138,note_on,0,45,--,64,0
8139,note_off,0,45,--,64,160
8140,note_on,0,48,--,64,0
8141,pitchwheel,0,--,819,--,0
8142,note_off,0,48,--,64,320
8143,note_on,0,50,--,64,0
8144,pitchwheel,0,--,819,--,0
8145,note_off,0,50,--,64,320
8146,note_on,0,48,--,64,0
8147,pitchwheel,0,--,2047,--,0
8148,note_off,0,48,--,64,160
8149,note_on,0,50,--,64,0
8150,pitchwheel,0,--,819,--,0
8151,note_off,0,50,--,64,160
8152,note_on,0,45,--,64,0
8153,pitchwheel,0,--,2047,--,0
8154,note_off,0,45,--,64,320
8155,note_on,0,47,--,64,0
8156,pitchwheel,0,--,3685,--,0
8157,note_off,0,47,--,64,320
8158,note_on,0,48,--,64,0
8159,pitchwheel,0,--,2047,--,0
8160,note_off,0,48,--,64,320
8161,note_on,0,46,--,64,0
8162,pitchwheel,0,--,1638,--,0
8163,note_off,0,46,--,64,320
8164,note_on,0,48,--,64,0
8165,pitchwheel,0,--,819,--,0
8166,note_off,0,48,--,64,320
8167,note_on,0,45,--,64,0
8168,note_off,0,45,--,64,160
8169,note_on,0,45,--,64,0
8170,pitchwheel,0,--,2047,--,0
8171,note_off,0,45,--,64,160
8172,note_on,0,47,--,64,0
8173,pitchwheel,0,--,3276,--,0
8174,note_off,0,47,--,64,320
8175,note_on,0,46,--,64,0
8176,note_off,0,46,--,64,320
8177,note_on,0,47,--,64,0
8178,pitchwheel,0,--,3685,--,0
8179,note_off,0,47,--,64,160
8180,note_on,0,44,--,64,0
8181,pitchwheel,0,--,2047,--,0
8182,note_off,0,44,--,64,160
8183,note_on,0,47,--,64,0
8184,pitchwheel,0,--,3276,--,0
8185,note_off,0,47,--,64,320
8186,note_on,0,43,--,64,0
8187,pitchwheel,0,--,2866,--,0
8188,note_off,0,43,--,64,320
8189,note_on,0,47,--,64,0
8190,pitchwheel,0,--,2047,--,0
8191,note_off,0,47,--,64,160
8192,note_on,0,52,--,64,0
8193,pitchwheel,0,--,2457,--,0
8194,note_off,0,52,--,64,160
8195,note_on,0,50,--,64,0
8196,pitchwheel,0,--,2457,--,0
8197,note_off,0,50,--,64,320
8198,note_on,0,48,--,64,0
8199,pitchwheel,0,--,3276,--,0
8200,note_off,0,48,--,64,320
8201,note_on,0,47,--,64,0
8202,pitchwheel,0,--,3276,--,0
8203,note_off,0,47,--,64,160
8204,note_on,0,50,--,64,0
8205,pitchwheel,0,--,1228,--,0
8206,note_off,0,50,--,64,160
8207,note_on,0,50,--,64,0
8208,note_off,0,50,--,64,320
8209,note_on,0,48,--,64,0
8210,pitchwheel,0,--,2047,--,0
8211,note_off,0,48,--,64,320
8212,note_on,0,46,--,64,0
8213,note_off,0,46,--,64,160
8214,note_on,0,47,--,64,0
8215,pitchwheel,0,--,3685,--,0
8216,note_off,0,47,--,64,480
8217,note_on,0,47,--,64,0
8218,pitchwheel,0,--,2457,--,0
8219,note_off,0,47,--,64,320
8220,note_on,0,50,--,64,0
8221,note_off,0,50,--,64,160
8222,note_on,0,50,--,64,0
8223,pitchwheel,0,--,3685,--,0
8224,note_off,0,50,--,64,320
8225,note_on,0,45,--,64,0
8226,note_off,0,45,--,64,320
8227,note_on,0,50,--,64,0
8228,pitchwheel,0,--,2457,--,0
8229,note_off,0,50,--,64,160
8230,note_on,0,55,--,64,0
8231,note_off,0,55,--,64,160
8232,note_on,0,57,--,64,0
8233,pitchwheel,0,--,2047,--,0
8234,note_off,0,57,--,64,320
8235,note_on,0,57,--,64,0
8236,pitchwheel,0,--,1638,--,0
8237,note_off,0,57,--,64,320
8238,note_on,0,50,--,64,0
8239,pitchwheel,0,--,819,--,0
8240,note_off,0,50,--,64,160
8241,note_on,0,52,--,64,0
8242,pitchwheel,0,--,2866,--,0
8243,note_off,0,52,--,64,160
8244,note_on,0,47,--,64,0
8245,pitchwheel,0,--,2457,--,0
8246,note_off,0,47,--,64,320
8247,note_on,0,45,--,64,0
8248,note_off,0,45,--,64,320
8249,note_on,0,41,--,64,0
8250,note_off,0,41,--,64,320
8251,note_on,0,43,--,64,0
8252,note_off,0,43,--,64,800
8253,note_on,0,41,--,64,0
8254,note_off,0,41,--,64,480
8255,note_on,0,45,--,64,0
8256,pitchwheel,0,--,2047,--,0
8257,note_off,0,45,--,64,320
8258,note_on,0,44,--,64,0
8259,note_off,0,44,--,64,160
8260,note_on,0,45,--,64,0
8261,pitchwheel,0,--,1638,--,0
8262,note_off,0,45,--,64,160
8263,note_on,0,40,--,64,0
8264,note_off,0,40,--,64,320
8265,note_on,0,38,--,64,0
8266,pitchwheel,0,--,3685,--,0
8267,note_off,0,38,--,64,320
8268,note_on,0,40,--,64,0
8269,pitchwheel,0,--,2457,--,0
8270,note_off,0,40,--,64,160
8271,note_on,0,36,--,64,0
8272,pitchwheel,0,--,2047,--,0
8273,note_off,0,36,--,64,160
8274,note_on,0,46,--,64,0
8275,pitchwheel,0,--,1638,--,0
8276,note_off,0,46,--,64,320
8277,note_on,0,46,--,64,0
8278,pitchwheel,0,--,409,--,0
8279,note_off,0,46,--,64,320
8280,note_on,0,36,--,64,0
8281,pitchwheel,0,--,2047,--,0
8282,note_off,0,36,--,64,320
8283,note_on,0,43,--,64,0
8284,pitchwheel,0,--,409,--,0
8285,note_off,0,43,--,64,640
8286,note_on,0,41,--,64,0
8287,note_off,0,41,--,64,320
8288,note_on,0,43,--,64,0
8289,pitchwheel,0,--,1638,--,0
8290,note_off,0,43,--,64,320
8291,note_on,0,44,--,64,0
8292,pitchwheel,0,--,2047,--,0
8293,note_off,0,44,--,64,320
8294,note_on,0,36,--,64,0
8295,pitchwheel,0,--,3276,--,0
8296,note_off,0,36,--,64,160
8297,note_on,0,47,--,64,0
8298,pitchwheel,0,--,3276,--,0
8299,note_off,0,47,--,64,160
8300,note_on,0,40,--,64,0
8301,pitchwheel,0,--,2866,--,0
8302,note_off,0,40,--,64,320
8303,note_on,0,41,--,64,0
8304,note_off,0,41,--,64,480
8305,note_on,0,36,--,64,0
8306,pitchwheel,0,--,819,--,0
8307,note_off,0,36,--,64,160
8308,note_on,0,40,--,64,0
8309,note_off,0,40,--,64,320
8310,note_on,0,40,--,64,0
8311,pitchwheel,0,--,1638,--,0
8312,note_off,0,40,--,64,320
8313,note_on,0,41,--,64,0
8314,note_off,0,41,--,64,160
8315,note_on,0,45,--,64,0
8316,pitchwheel,0,--,1638,--,0
8317,note_off,0,45,--,64,160
8318,note_on,0,47,--,64,0
8319,pitchwheel,0,--,3276,--,0
8320,note_off,0,47,--,64,320
8321,note_on,0,48,--,64,0
8322,pitchwheel,0,--,2047,--,0
8323,note_off,0,48,--,64,320
8324,note_on,0,52,--,64,0
8325,note_off,0,52,--,64,160
8326,note_on,0,57,--,64,0
8327,note_off,0,57,--,64,160
8328,note_on,0,58,--,64,0
8329,note_off,0,58,--,64,320
8330,note_on,0,50,--,64,0
8331,pitchwheel,0,--,3685,--,0
8332,note_off,0,50,--,64,320
8333,note_on,0,56,--,64,0
8334,note_off,0,56,--,64,160
8335,note_on,0,50,--,64,0
8336,pitchwheel,0,--,819,--,0
8337,note_off,0,50,--,64,480
8338,note_on,0,48,--,64,0
8339,pitchwheel,0,--,3276,--,0
8340,note_off,0,48,--,64,320
8341,note_on,0,50,--,64,0
8342,pitchwheel,0,--,819,--,0
8343,note_off,0,50,--,64,320
8344,note_on,0,51,--,64,0
8345,pitchwheel,0,--,819,--,0
8346,note_off,0,51,--,64,320
8347,note_on,0,52,--,64,0
8348,pitchwheel,0,--,2866,--,0
8349,note_off,0,52,--,64,320
8350,note_on,0,53,--,64,0
8351,note_off,0,53,--,64,160
8352,note_on,0,47,--,64,0
8353,pitchwheel,0,--,2457,--,0
8354,note_off,0,47,--,64,160
8355,note_on,0,52,--,64,0
8356,pitchwheel,0,--,2457,--,0
8357,note_off,0,52,--,64,320
8358,note_on,0,51,--,64,0
8359,pitchwheel,0,--,819,--,0
8360,note_off,0,51,--,64,320
8361,note_on,0,57,--,64,0
8362,note_off,0,57,--,64,160
8363,note_on,0,52,--,64,0
8364,note_off,0,52,--,64,480
8365,note_on,0,52,--,64,0
8366,pitchwheel,0,--,2457,--,0
8367,note_off,0,52,--,64,320
8368,note_on,0,53,--,64,0
8369,pitchwheel,0,--,2457,--,0
8370,note_off,0,53,--,64,160
8371,note_on,0,52,--,64,0
8372,pitchwheel,0,--,2457,--,0
8373,note_off,0,52,--,64,800
8374,note_on,0,57,--,64,0
8375,pitchwheel,0,--,2047,--,0
8376,note_off,0,57,--,64,160
8377,note_on,0,55,--,64,0
8378,pitchwheel,0,--,1638,--,0
8379,note_off,0,55,--,64,480
8380,note_on,0,56,--,64,0
8381,pitchwheel,0,--,2047,--,0
8382,note_off,0,56,--,64,320
8383,note_on,0,53,--,64,0
8384,note_off,0,53,--,64,160
8385,note_on,0,50,--,64,0
8386,note_off,0,50,--,64,160
8387,note_on,0,55,--,64,0
8388,note_off,0,55,--,64,320
8389,note_on,0,56,--,64,0
8390,note_off,0,56,--,64,320
8391,note_on,0,57,--,64,0
8392,pitchwheel,0,--,2047,--,0
8393,note_off,0,57,--,64,160
8394,note_on,0,50,--,64,0
8395,pitchwheel,0,--,2457,--,0
8396,note_off,0,50,--,64,160
8397,note_on,0,50,--,64,0
8398,pitchwheel,0,--,819,--,0
8399,note_off,0,50,--,64,320
8400,note_on,0,48,--,64,0
8401,pitchwheel,0,--,2047,--,0
8402,note_off,0,48,--,64,480
8403,note_on,0,55,--,64,0
8404,note_off,0,55,--,64,160
8405,note_on,0,50,--,64,0
8406,note_off,0,50,--,64,320
8407,note_on,0,48,--,64,0
8408,pitchwheel,0,--,819,--,0
8409,note_off,0,48,--,64,320
8410,note_on,0,45,--,64,0
8411,pitchwheel,0,--,1638,--,0
8412,note_off,0,45,--,64,160
8413,note_on,0,41,--,64,0
8414,note_off,0,41,--,64,160
8415,note_on,0,46,--,64,0
8416,pitchwheel,0,--,1638,--,0
8417,note_off,0,46,--,64,320
8418,note_on,0,47,--,64,0
8419,pitchwheel,0,--,3685,--,0
8420,note_off,0,47,--,64,320
8421,note_on,0,48,--,64,0
8422,pitchwheel,0,--,819,--,0
8423,note_off,0,48,--,64,320
8424,note_on,0,48,--,64,0
8425,pitchwheel,0,--,3276,--,0
8426,note_off,0,48,--,64,320
8427,note_on,0,53,--,64,0
8428,note_off,0,53,--,64,640
8429,note_on,0,50,--,64,0
8430,pitchwheel,0,--,2457,--,0
8431,note_off,0,50,--,64,320
8432,note_on,0,56,--,64,0
8433,note_off,0,56,--,64,160
8434,note_on,0,50,--,64,0
8435,pitchwheel,0,--,819,--,0
8436,note_off,0,50,--,64,160
8437,note_on,0,50,--,64,0
8438,pitchwheel,0,--,2457,--,0
8439,note_off,0,50,--,64,320
8440,note_on,0,53,--,64,0
8441,pitchwheel,0,--,2457,--,0
8442,note_off,0,53,--,64,480
8443,note_on,0,55,--,64,0
8444,pitchwheel,0,--,409,--,0
8445,note_off,0,55,--,64,320
8446,note_on,0,59,--,64,0
8447,pitchwheel,0,--,3276,--,0
8448,note_off,0,59,--,64,320
8449,note_on,0,52,--,64,0
8450,note_off,0,52,--,64,320
8451,note_on,0,47,--,64,0
8452,pitchwheel,0,--,3276,--,0
8453,note_off,0,47,--,64,320
8454,note_on,0,48,--,64,0
8455,pitchwheel,0,--,3276,--,0
8456,note_off,0,48,--,64,320
8457,note_on,0,53,--,64,0
8458,note_off,0,53,--,64,320
8459,note_on,0,57,--,64,0
8460,pitchwheel,0,--,1638,--,0
8461,note_off,0,57,--,64,320
8462,note_on,0,59,--,64,0
8463,pitchwheel,0,--,2047,--,0
8464,note_off,0,59,--,64,480
8465,note_on,0,52,--,64,0
8466,pitchwheel,0,--,2457,--,0
8467,note_off,0,52,--,64,160
8468,note_on,0,57,--,64,0
8469,note_off,0,57,--,64,320
8470,note_on,0,51,--,64,0
8471,pitchwheel,0,--,819,--,0
8472,note_off,0,51,--,64,320
8473,note_on,0,50,--,64,0
8474,pitchwheel,0,--,819,--,0
8475,note_off,0,50,--,64,160
8476,note_on,0,48,--,64,0
8477,pitchwheel,0,--,819,--,0
8478,note_off,0,48,--,64,160
8479,note_on,0,51,--,64,0
8480,pitchwheel,0,--,819,--,0
8481,note_off,0,51,--,64,320
8482,note_on,0,47,--,64,0
8483,pitchwheel,0,--,3685,--,0
8484,note_off,0,47,--,64,320
8485,note_on,0,50,--,64,0
8486,pitchwheel,0,--,1228,--,0
8487,note_off,0,50,--,64,160
8488,note_on,0,55,--,64,0
8489,note_off,0,55,--,64,160
8490,note_on,0,59,--,64,0
8491,pitchwheel,0,--,2457,--,0
8492,note_off,0,59,--,64,320
8493,note_on,0,57,--,64,0
8494,pitchwheel,0,--,2047,--,0
8495,note_off,0,57,--,64,320
8496,note_on,0,55,--,64,0
8497,note_off,0,55,--,64,160
8498,note_on,0,57,--,64,0
8499,note_off,0,57,--,64,160
8500,note_on,0,50,--,64,0
8501,pitchwheel,0,--,2457,--,0
8502,note_off,0,50,--,64,320
8503,note_on,0,52,--,64,0
8504,pitchwheel,0,--,2457,--,0
8505,note_off,0,52,--,64,320
8506,note_on,0,48,--,64,0
8507,pitchwheel,0,--,3276,--,0
8508,note_off,0,48,--,64,160
8509,note_on,0,43,--,64,0
8510,note_off,0,43,--,64,160
8511,note_on,0,48,--,64,0
8512,pitchwheel,0,--,819,--,0
8513,note_off,0,48,--,64,320
8514,note_on,0,53,--,64,0
8515,note_off,0,53,--,64,320
8516,note_on,0,50,--,64,0
8517,note_off,0,50,--,64,320
8518,note_on,0,50,--,64,0
8519,pitchwheel,0,--,3685,--,0
8520,note_off,0,50,--,64,320
8521,note_on,0,50,--,64,0
8522,pitchwheel,0,--,2457,--,0
8523,note_off,0,50,--,64,320
8524,note_on,0,45,--,64,0
8525,pitchwheel,0,--,3276,--,0
8526,note_off,0,45,--,64,160
8527,note_on,0,47,--,64,0
8528,pitchwheel,0,--,2457,--,0
8529,note_off,0,47,--,64,160
8530,note_on,0,43,--,64,0
8531,note_off,0,43,--,64,320
8532,note_on,0,45,--,64,0
8533,pitchwheel,0,--,2047,--,0
8534,note_off,0,45,--,64,320
8535,note_on,0,45,--,64,0
8536,pitchwheel,0,--,3276,--,0
8537,note_off,0,45,--,64,160
8538,note_on,0,40,--,64,0
8539,pitchwheel,0,--,2866,--,0
8540,note_off,0,40,--,64,160
8541,note_on,0,45,--,64,0
8542,pitchwheel,0,--,2047,--,0
8543,note_off,0,45,--,64,320
8544,note_on,0,43,--,64,0
8545,pitchwheel,0,--,2866,--,0
8546,note_off,0,43,--,64,320
8547,note_on,0,44,--,64,0
8548,pitchwheel,0,--,2047,--,0
8549,note_off,0,44,--,64,160
8550,note_on,0,45,--,64,0
8551,pitchwheel,0,--,1638,--,0
8552,note_off,0,45,--,64,160
8553,note_on,0,41,--,64,0
8554,note_off,0,41,--,64,320
8555,note_on,0,38,--,64,0
8556,pitchwheel,0,--,2457,--,0
8557,note_off,0,38,--,64,320
8558,note_on,0,45,--,64,0
8559,pitchwheel,0,--,1638,--,0
8560,note_off,0,45,--,64,160
8561,note_on,0,43,--,64,0
8562,pitchwheel,0,--,1638,--,0
8563,note_off,0,43,--,64,160
8564,note_on,0,44,--,64,0
8565,note_off,0,44,--,64,320
8566,note_on,0,41,--,64,0
8567,note_off,0,41,--,64,320
8568,note_on,0,46,--,64,0
8569,note_off,0,46,--,64,160
8570,note_on,0,50,--,64,0
8571,note_off,0,50,--,64,480
8572,note_on,0,47,--,64,0
8573,pitchwheel,0,--,2457,--,0
8574,note_off,0,47,--,64,480
8575,note_on,0,50,--,64,0
8576,pitchwheel,0,--,2457,--,0
8577,note_off,0,50,--,64,160
8578,note_on,0,52,--,64,0
8579,note_off,0,52,--,64,320
8580,note_on,0,57,--,64,0
8581,note_off,0,57,--,64,320
8582,note_on,0,58,--,64,0
8583,pitchwheel,0,--,1638,--,0
8584,note_off,0,58,--,64,160
8585,note_on,0,59,--,64,0
8586,pitchwheel,0,--,3276,--,0
8587,note_off,0,59,--,64,160
8588,note_on,0,53,--,64,0
8589,note_off,0,53,--,64,320
8590,note_on,0,52,--,64,0
8591,pitchwheel,0,--,2866,--,0
8592,note_off,0,52,--,64,320
8593,note_on,0,50,--,64,0
8594,pitchwheel,0,--,819,--,0
8595,note_off,0,50,--,64,160
8596,note_on,0,53,--,64,0
8597,note_off,0,53,--,64,160
8598,note_on,0,50,--,64,0
8599,note_off,0,50,--,64,320
8600,note_on,0,52,--,64,0
8601,pitchwheel,0,--,2457,--,0
8602,note_off,0,52,--,64,480
8603,note_on,0,50,--,64,0
8604,pitchwheel,0,--,819,--,0
8605,note_off,0,50,--,64,320
8606,note_on,0,48,--,64,0
8607,pitchwheel,0,--,3276,--,0
8608,note_off,0,48,--,64,480
8609,note_on,0,48,--,64,0
8610,pitchwheel,0,--,2047,--,0
8611,note_off,0,48,--,64,160
8612,note_on,0,50,--,64,0
8613,pitchwheel,0,--,1228,--,0
8614,note_off,0,50,--,64,320
8615,note_on,0,47,--,64,0
8616,pitchwheel,0,--,2457,--,0
8617,note_off,0,47,--,64,320
8618,note_on,0,46,--,64,0
8619,pitchwheel,0,--,1638,--,0
8620,note_off,0,46,--,64,160
8621,note_on,0,47,--,64,0
8622,pitchwheel,0,--,3276,--,0
8623,note_off,0,47,--,64,160
8624,note_on,0,49,--,64,0
8625,note_off,0,49,--,64,320
8626,note_on,0,48,--,64,0
8627,pitchwheel,0,--,819,--,0
8628,note_off,0,48,--,64,320
8629,note_on,0,52,--,64,0
8630,pitchwheel,0,--,2457,--,0
8631,note_off,0,52,--,64,160
8632,note_on,0,57,--,64,0
8633,note_off,0,57,--,64,160
8634,note_on,0,51,--,64,0
8635,pitchwheel,0,--,819,--,0
8636,note_off,0,51,--,64,320
8637,note_on,0,48,--,64,0
8638,pitchwheel,0,--,819,--,0
8639,note_off,0,48,--,64,320
8640,note_on,0,47,--,64,0
8641,pitchwheel,0,--,3276,--,0
8642,note_off,0,47,--,64,320
8643,note_on,0,50,--,64,0
8644,note_off,0,50,--,64,320
8645,note_on,0,47,--,64,0
8646,pitchwheel,0,--,2457,--,0
8647,note_off,0,47,--,64,320
8648,note_on,0,50,--,64,0
8649,pitchwheel,0,--,2457,--,0
8650,note_off,0,50,--,64,320
8651,note_on,0,45,--,64,0
8652,note_off,0,45,--,64,320
8653,note_on,0,45,--,64,0
8654,pitchwheel,0,--,3276,--,0
8655,note_off,0,45,--,64,320
8656,note_on,0,41,--,64,0
8657,note_off,0,41,--,64,160
8658,note_on,0,38,--,64,0
8659,pitchwheel,0,--,819,--,0
8660,note_off,0,38,--,64,160
8661,note_on,0,45,--,64,0
8662,pitchwheel,0,--,3276,--,0
8663,note_off,0,45,--,64,320
8664,note_on,0,45,--,64,0
8665,pitchwheel,0,--,2047,--,0
8666,note_off,0,45,--,64,480
8667,note_on,0,45,--,64,0
8668,pitchwheel,0,--,3276,--,0
8669,note_off,0,45,--,64,160
8670,note_on,0,45,--,64,0
8671,pitchwheel,0,--,1638,--,0
8672,note_off,0,45,--,64,320
8673,note_on,0,45,--,64,0
8674,pitchwheel,0,--,2047,--,0
8675,note_off,0,45,--,64,480
8676,note_on,0,40,--,64,0
8677,pitchwheel,0,--,2457,--,0
8678,note_off,0,40,--,64,160
8679,note_on,0,38,--,64,0
8680,pitchwheel,0,--,819,--,0
8681,note_off,0,38,--,64,320
8682,note_on,0,36,--,64,0
8683,pitchwheel,0,--,819,--,0
8684,note_off,0,36,--,64,480
8685,note_on,0,45,--,64,0
8686,note_off,0,45,--,64,160
8687,note_on,0,46,--,64,0
8688,note_off,0,46,--,64,320
8689,note_on,0,38,--,64,0
8690,pitchwheel,0,--,3685,--,0
8691,note_off,0,38,--,64,320
8692,note_on,0,46,--,64,0
8693,pitchwheel,0,--,1638,--,0
8694,note_off,0,46,--,64,160
8695,note_on,0,40,--,64,0
8696,pitchwheel,0,--,2457,--,0
8697,note_off,0,40,--,64,480
8698,note_on,0,36,--,64,0
8699,pitchwheel,0,--,3276,--,0
8700,note_off,0,36,--,64,320
8701,note_on,0,40,--,64,0
8702,pitchwheel,0,--,2457,--,0
8703,note_off,0,40,--,64,320
8704,note_on,0,39,--,64,0
8705,pitchwheel,0,--,819,--,0
8706,note_off,0,39,--,64,320
8707,note_on,0,41,--,64,0
8708,note_off,0,41,--,64,320
8709,note_on,0,41,--,64,0
8710,pitchwheel,0,--,1228,--,0
8711,note_off,0,41,--,64,160
8712,note_on,0,43,--,64,0
8713,pitchwheel,0,--,1638,--,0
8714,note_off,0,43,--,64,160
8715,note_on,0,40,--,64,0
8716,pitchwheel,0,--,2457,--,0
8717,note_off,0,40,--,64,320
8718,note_on,0,39,--,64,0
8719,pitchwheel,0,--,819,--,0
8720,note_off,0,39,--,64,320
8721,note_on,0,45,--,64,0
8722,note_off,0,45,--,64,160
8723,note_on,0,47,--,64,0
8724,pitchwheel,0,--,2047,--,0
8725,note_off,0,47,--,64,160
8726,note_on,0,43,--,64,0
8727,pitchwheel,0,--,1638,--,0
8728,note_off,0,43,--,64,320
8729,note_on,0,43,--,64,0
8730,note_off,0,43,--,64,320
8731,note_on,0,43,--,64,0
8732,pitchwheel,0,--,1638,--,0
8733,note_off,0,43,--,64,160
8734,note_on,0,43,--,64,0
8735,note_off,0,43,--,64,480
8736,note_on,0,46,--,64,0
8737,pitchwheel,0,--,1638,--,0
8738,note_off,0,46,--,64,320
8739,note_on,0,43,--,64,0
8740,pitchwheel,0,--,1638,--,0
8741,note_off,0,43,--,64,160
8742,note_on,0,41,--,64,0
8743,note_off,0,41,--,64,160
8744,note_on,0,36,--,64,0
8745,pitchwheel,0,--,819,--,0
8746,note_off,0,36,--,64,320
8747,note_on,0,43,--,64,0
8748,pitchwheel,0,--,1638,--,0
8749,note_off,0,43,--,64,320
8750,note_on,0,41,--,64,0
8751,note_off,0,41,--,64,320
8752,note_on,0,45,--,64,0
8753,pitchwheel,0,--,1638,--,0
8754,note_off,0,45,--,64,320
8755,note_on,0,46,--,64,0
8756,pitchwheel,0,--,1638,--,0
8757,note_off,0,46,--,64,320
8758,note_on,0,45,--,64,0
8759,pitchwheel,0,--,3276,--,0
8760,note_off,0,45,--,64,160
8761,note_on,0,50,--,64,0
8762,pitchwheel,0,--,3685,--,0
8763,note_off,0,50,--,64,160
8764,note_on,0,47,--,64,0
8765,pitchwheel,0,--,3276,--,0
8766,note_off,0,47,--,64,320
8767,note_on,0,53,--,64,0
8768,note_off,0,53,--,64,320
8769,note_on,0,50,--,64,0
8770,pitchwheel,0,--,1228,--,0
8771,note_off,0,50,--,64,160
8772,note_on,0,45,--,64,0
8773,pitchwheel,0,--,1638,--,0
8774,note_off,0,45,--,64,160
8775,note_on,0,50,--,64,0
8776,pitchwheel,0,--,3685,--,0
8777,note_off,0,50,--,64,320
8778,note_on,0,53,--,64,0
8779,note_off,0,53,--,64,320
8780,note_on,0,47,--,64,0
8781,pitchwheel,0,--,3276,--,0
8782,note_off,0,47,--,64,160
8783,note_on,0,50,--,64,0
8784,pitchwheel,0,--,2457,--,0
8785,note_off,0,50,--,64,160
8786,note_on,0,56,--,64,0
8787,note_off,0,56,--,64,320
8788,note_on,0,48,--,64,0
8789,pitchwheel,0,--,819,--,0
8790,note_off,0,48,--,64,320
8791,note_on,0,48,--,64,0
8792,pitchwheel,0,--,2047,--,0
8793,note_off,0,48,--,64,320
8794,note_on,0,59,--,64,0
8795,pitchwheel,0,--,2047,--,0
8796,note_off,0,59,--,64,320
8797,note_on,0,53,--,64,0
8798,note_off,0,53,--,64,160
8799,note_on,0,53,--,64,0
8800,note_off,0,53,--,64,160
8801,note_on,0,52,--,64,0
8802,pitchwheel,0,--,1638,--,0
8803,note_off,0,52,--,64,320
8804,note_on,0,47,--,64,0
8805,pitchwheel,0,--,3276,--,0
8806,note_off,0,47,--,64,320
8807,note_on,0,51,--,64,0
8808,pitchwheel,0,--,819,--,0
8809,note_off,0,51,--,64,160
8810,note_on,0,55,--,64,0
8811,note_off,0,55,--,64,160
8812,note_on,0,57,--,64,0
8813,note_off,0,57,--,64,320
8814,note_on,0,58,--,64,0
8815,note_off,0,58,--,64,480
8816,note_on,0,49,--,64,0
8817,note_off,0,49,--,64,160
8818,note_on,0,53,--,64,0
8819,pitchwheel,0,--,2457,--,0
8820,note_off,0,53,--,64,320
8821,note_on,0,58,--,64,0
8822,note_off,0,58,--,64,320
8823,note_on,0,56,--,64,0
8824,pitchwheel,0,--,2047,--,0
8825,note_off,0,56,--,64,320
8826,note_on,0,50,--,64,0
8827,pitchwheel,0,--,819,--,0
8828,note_off,0,50,--,64,320
8829,note_on,0,53,--,64,0
8830,pitchwheel,0,--,2457,--,0
8831,note_off,0,53,--,64,320
8832,note_on,0,57,--,64,0
8833,pitchwheel,0,--,3276,--,0
8834,note_off,0,57,--,64,320
8835,note_on,0,57,--,64,0
8836,pitchwheel,0,--,2047,--,0
8837,note_off,0,57,--,64,320
8838,note_on,0,55,--,64,0
8839,note_off,0,55,--,64,320
8840,note_on,0,56,--,64,0
8841,note_off,0,56,--,64,160
8842,note_on,0,52,--,64,0
8843,pitchwheel,0,--,2457,--,0
8844,note_off,0,52,--,64,160
8845,note_on,0,57,--,64,0
8846,note_off,0,57,--,64,320
8847,note_on,0,51,--,64,0
8848,pitchwheel,0,--,819,--,0
8849,note_off,0,51,--,64,320
8850,note_on,0,52,--,64,0
8851,pitchwheel,0,--,2457,--,0
8852,note_off,0,52,--,64,160
8853,note_on,0,57,--,64,0
8854,pitchwheel,0,--,3276,--,0
8855,note_off,0,57,--,64,160
8856,note_on,0,49,--,64,0
8857,note_off,0,49,--,64,320
8858,note_on,0,58,--,64,0
8859,pitchwheel,0,--,409,--,0
8860,note_off,0,58,--,64,320
8861,note_on,0,57,--,64,0
8862,pitchwheel,0,--,1638,--,0
8863,note_off,0,57,--,64,160
8864,note_on,0,50,--,64,0
8865,pitchwheel,0,--,819,--,0
8866,note_off,0,50,--,64,160
8867,note_on,0,46,--,64,0
8868,pitchwheel,0,--,409,--,0
8869,note_off,0,46,--,64,320
8870,note_on,0,46,--,64,0
8871,note_off,0,46,--,64,320
8872,note_on,0,47,--,64,0
8873,pitchwheel,0,--,2047,--,0
8874,note_off,0,47,--,64,160
8875,note_on,0,45,--,64,0
8876,note_off,0,45,--,64,160
8877,note_on,0,48,--,64,0
8878,pitchwheel,0,--,819,--,0
8879,note_off,0,48,--,64,320
8880,note_on,0,43,--,64,0
8881,note_off,0,43,--,64,320
8882,note_on,0,46,--,64,0
8883,pitchwheel,0,--,1638,--,0
8884,note_off,0,46,--,64,160
8885,note_on,0,50,--,64,0
8886,pitchwheel,0,--,819,--,0
8887,note_off,0,50,--,64,160
8888,note_on,0,53,--,64,0
8889,note_off,0,53,--,64,320
8890,note_on,0,57,--,64,0
8891,pitchwheel,0,--,2047,--,0
8892,note_off,0,57,--,64,320
8893,note_on,0,48,--,64,0
8894,pitchwheel,0,--,2047,--,0
8895,note_off,0,48,--,64,320
8896,note_on,0,56,--,64,0
8897,note_off,0,56,--,64,320
8898,note_on,0,59,--,64,0
8899,pitchwheel,0,--,3276,--,0
8900,note_off,0,59,--,64,320
8901,note_on,0,57,--,64,0
8902,note_off,0,57,--,64,160
8903,note_on,0,58,--,64,0
8904,pitchwheel,0,--,409,--,0
8905,note_off,0,58,--,64,160
8906,note_on,0,57,--,64,0
8907,pitchwheel,0,--,1638,--,0
8908,note_off,0,57,--,64,320
8909,note_on,0,58,--,64,0
8910,note_off,0,58,--,64,320
8911,note_on,0,50,--,64,0
8912,pitchwheel,0,--,2457,--,0
8913,note_off,0,50,--,64,160
8914,note_on,0,45,--,64,0
8915,pitchwheel,0,--,2047,--,0
8916,note_off,0,45,--,64,160
8917,note_on,0,50,--,64,0
8918,pitchwheel,0,--,1228,--,0
8919,note_off,0,50,--,64,320
8920,note_on,0,50,--,64,0
8921,pitchwheel,0,--,2457,--,0
8922,note_off,0,50,--,64,160
8923,note_on,0,47,--,64,0
8924,pitchwheel,0,--,3276,--,0
8925,note_off,0,47,--,64,480
8926,note_on,0,45,--,64,0
8927,pitchwheel,0,--,3276,--,0
8928,note_off,0,45,--,64,320
8929,note_on,0,43,--,64,0
8930,note_off,0,43,--,64,160
8931,note_on,0,38,--,64,0
8932,pitchwheel,0,--,2457,--,0
8933,note_off,0,38,--,64,160
8934,note_on,0,36,--,64,0
8935,pitchwheel,0,--,3276,--,0
8936,note_off,0,36,--,64,320
8937,note_on,0,40,--,64,0
8938,note_off,0,40,--,64,320
8939,note_on,0,45,--,64,0
8940,pitchwheel,0,--,2047,--,0
8941,note_off,0,45,--,64,160
8942,note_on,0,48,--,64,0
8943,pitchwheel,0,--,2047,--,0
8944,note_off,0,48,--,64,480
8945,note_on,0,53,--,64,0
8946,pitchwheel,0,--,2457,--,0
8947,note_off,0,53,--,64,480
8948,note_on,0,50,--,64,0
8949,pitchwheel,0,--,2457,--,0
8950,note_off,0,50,--,64,160
8951,note_on,0,47,--,64,0
8952,pitchwheel,0,--,2047,--,0
8953,note_off,0,47,--,64,320
8954,note_on,0,52,--,64,0
8955,pitchwheel,0,--,2457,--,0
8956,note_off,0,52,--,64,320
8957,note_on,0,51,--,64,0
8958,pitchwheel,0,--,819,--,0
8959,note_off,0,51,--,64,160
8960,note_on,0,45,--,64,0
8961,pitchwheel,0,--,1638,--,0
8962,note_off,0,45,--,64,160
8963,note_on,0,41,--,64,0
8964,pitchwheel,0,--,1228,--,0
8965,note_off,0,41,--,64,320
8966,note_on,0,41,--,64,0
8967,note_off,0,41,--,64,320
8968,note_on,0,45,--,64,0
8969,pitchwheel,0,--,1638,--,0
8970,note_off,0,45,--,64,160
8971,note_on,0,41,--,64,0
8972,note_off,0,41,--,64,160
8973,note_on,0,46,--,64,0
8974,pitchwheel,0,--,409,--,0
8975,note_off,0,46,--,64,320
8976,note_on,0,45,--,64,0
8977,note_off,0,45,--,64,320
8978,note_on,0,41,--,64,0
8979,note_off,0,41,--,64,320
8980,note_on,0,38,--,64,0
8981,pitchwheel,0,--,819,--,0
8982,note_off,0,38,--,64,320
8983,note_on,0,40,--,64,0
8984,note_off,0,40,--,64,480
8985,note_on,0,38,--,64,0
8986,pitchwheel,0,--,2457,--,0
8987,note_off,0,38,--,64,480
8988,note_on,0,45,--,64,0
8989,pitchwheel,0,--,2047,--,0
8990,note_off,0,45,--,64,320
8991,note_on,0,44,--,64,0
8992,note_off,0,44,--,64,160
8993,note_on,0,45,--,64,0
8994,pitchwheel,0,--,1638,--,0
8995,note_off,0,45,--,64,160
8996,note_on,0,44,--,64,0
8997,pitchwheel,0,--,2047,--,0
8998,note_off,0,44,--,64,320
8999,note_on,0,38,--,64,0
9000,note_off,0,38,--,64,320
9001,note_on,0,47,--,64,0
9002,pitchwheel,0,--,3276,--,0
9003,note_off,0,47,--,64,160
9004,note_on,0,38,--,64,0
9005,pitchwheel,0,--,3685,--,0
9006,note_off,0,38,--,64,160
9007,note_on,0,45,--,64,0
9008,note_off,0,45,--,64,320
9009,note_on,0,46,--,64,0
9010,note_off,0,46,--,64,320
9011,note_on,0,40,--,64,0
9012,pitchwheel,0,--,2457,--,0
9013,note_off,0,40,--,64,320
9014,note_on,0,43,--,64,0
9015,pitchwheel,0,--,409,--,0
9016,note_off,0,43,--,64,320
9017,note_on,0,44,--,64,0
9018,note_off,0,44,--,64,320
9019,note_on,0,41,--,64,0
9020,note_off,0,41,--,64,320
9021,note_on,0,43,--,64,0
9022,pitchwheel,0,--,1638,--,0
9023,note_off,0,43,--,64,320
9024,note_on,0,45,--,64,0
9025,pitchwheel,0,--,1638,--,0
9026,note_off,0,45,--,64,320
9027,note_on,0,46,--,64,0
9028,pitchwheel,0,--,1638,--,0
9029,note_off,0,46,--,64,160
9030,note_on,0,43,--,64,0
9031,note_off,0,43,--,64,160
9032,note_on,0,46,--,64,0
9033,pitchwheel,0,--,409,--,0
9034,note_off,0,46,--,64,320
9035,note_on,0,45,--,64,0
9036,pitchwheel,0,--,3276,--,0
9037,note_off,0,45,--,64,480
9038,note_on,0,50,--,64,0
9039,pitchwheel,0,--,1228,--,0
9040,note_off,0,50,--,64,160
9041,note_on,0,46,--,64,0
9042,pitchwheel,0,--,1638,--,0
9043,note_off,0,46,--,64,320
9044,note_on,0,52,--,64,0
9045,pitchwheel,0,--,1638,--,0
9046,note_off,0,52,--,64,320
9047,note_on,0,53,--,64,0
9048,note_off,0,53,--,64,160
9049,note_on,0,47,--,64,0
9050,pitchwheel,0,--,3276,--,0
9051,note_off,0,47,--,64,160
9052,note_on,0,45,--,64,0
9053,pitchwheel,0,--,1638,--,0
9054,note_off,0,45,--,64,320
9055,note_on,0,44,--,64,0
9056,note_off,0,44,--,64,320
9057,note_on,0,38,--,64,0
9058,pitchwheel,0,--,2457,--,0
9059,note_off,0,38,--,64,160
9060,note_on,0,45,--,64,0
9061,note_off,0,45,--,64,160
9062,note_on,0,40,--,64,0
9063,pitchwheel,0,--,2457,--,0
9064,note_off,0,40,--,64,320
9065,note_on,0,38,--,64,0
9066,pitchwheel,0,--,1228,--,0
9067,note_off,0,38,--,64,320
9068,note_on,0,39,--,64,0
9069,pitchwheel,0,--,819,--,0
9070,note_off,0,39,--,64,160
9071,note_on,0,40,--,64,0
9072,pitchwheel,0,--,2457,--,0
9073,note_off,0,40,--,64,480
9074,note_on,0,39,--,64,0
9075,pitchwheel,0,--,819,--,0
9076,note_off,0,39,--,64,320
9077,note_on,0,43,--,64,0
9078,note_off,0,43,--,64,320
9079,note_on,0,46,--,64,0
9080,note_off,0,46,--,64,320
9081,note_on,0,48,--,64,0
9082,pitchwheel,0,--,2047,--,0
9083,note_off,0,48,--,64,320
9084,note_on,0,48,--,64,0
9085,pitchwheel,0,--,819,--,0
9086,note_off,0,48,--,64,160
9087,note_on,0,45,--,64,0
9088,pitchwheel,0,--,2047,--,0
9089,note_off,0,45,--,64,160
9090,note_on,0,47,--,64,0
9091,pitchwheel,0,--,3276,--,0
9092,note_off,0,47,--,64,320
9093,note_on,0,43,--,64,0
9094,pitchwheel,0,--,1638,--,0
9095,note_off,0,43,--,64,320
9096,note_on,0,45,--,64,0
9097,note_off,0,45,--,64,160
9098,note_on,0,47,--,64,0
9099,pitchwheel,0,--,3685,--,0
9100,note_off,0,47,--,64,480
9101,note_on,0,52,--,64,0
9102,pitchwheel,0,--,2457,--,0
9103,note_off,0,52,--,64,320
9104,note_on,0,51,--,64,0
9105,pitchwheel,0,--,819,--,0
9106,note_off,0,51,--,64,160
9107,note_on,0,50,--,64,0
9108,pitchwheel,0,--,819,--,0
9109,note_off,0,50,--,64,480
9110,note_on,0,48,--,64,0
9111,pitchwheel,0,--,3276,--,0
9112,note_off,0,48,--,64,320
9113,note_on,0,45,--,64,0
9114,pitchwheel,0,--,2047,--,0
9115,note_off,0,45,--,64,160
9116,note_on,0,43,--,64,0
9117,pitchwheel,0,--,409,--,0
9118,note_off,0,43,--,64,480
9119,note_on,0,43,--,64,0
9120,note_off,0,43,--,64,320
9121,note_on,0,43,--,64,0
9122,pitchwheel,0,--,2866,--,0
9123,note_off,0,43,--,64,160
9124,note_on,0,43,--,64,0
9125,pitchwheel,0,--,409,--,0
9126,note_off,0,43,--,64,160
9127,note_on,0,38,--,64,0
9128,pitchwheel,0,--,819,--,0
9129,note_off,0,38,--,64,320
9130,note_on,0,36,--,64,0
9131,pitchwheel,0,--,3276,--,0
9132,note_off,0,36,--,64,320
9133,note_on,0,43,--,64,0
9134,pitchwheel,0,--,2866,--,0
9135,note_off,0,43,--,64,160
9136,note_on,0,41,--,64,0
9137,note_off,0,41,--,64,160
9138,note_on,0,40,--,64,0
9139,pitchwheel,0,--,2457,--,0
9140,note_off,0,40,--,64,320
9141,note_on,0,40,--,64,0
9142,pitchwheel,0,--,2866,--,0
9143,note_off,0,40,--,64,320
9144,note_on,0,45,--,64,0
9145,pitchwheel,0,--,3276,--,0
9146,note_off,0,45,--,64,160
9147,note_on,0,47,--,64,0
9148,pitchwheel,0,--,3276,--,0
9149,note_off,0,47,--,64,160
9150,note_on,0,38,--,64,0
9151,note_off,0,38,--,64,320
9152,note_on,0,45,--,64,0
9153,note_off,0,45,--,64,320
9154,note_on,0,47,--,64,0
9155,pitchwheel,0,--,3276,--,0
9156,note_off,0,47,--,64,160
9157,note_on,0,45,--,64,0
9158,pitchwheel,0,--,2047,--,0
9159,note_off,0,45,--,64,160
9160,note_on,0,46,--,64,0
9161,pitchwheel,0,--,1638,--,0
9162,note_off,0,46,--,64,320
9163,note_on,0,45,--,64,0
9164,pitchwheel,0,--,3276,--,0
9165,note_off,0,45,--,64,320
9166,note_on,0,41,--,64,0
9167,note_off,0,41,--,64,320
9168,note_on,0,40,--,64,0
9169,note_off,0,40,--,64,320
9170,note_on,0,41,--,64,0
9171,note_off,0,41,--,64,160
9172,note_on,0,40,--,64,0
9173,pitchwheel,0,--,1638,--,0
9174,note_off,0,40,--,64,480
9175,note_on,0,41,--,64,0
9176,note_off,0,41,--,64,320
9177,note_on,0,44,--,64,0
9178,note_off,0,44,--,64,160
9179,note_on,0,45,--,64,0
9180,pitchwheel,0,--,1638,--,0
9181,note_off,0,45,--,64,160
9182,note_on,0,36,--,64,0
9183,pitchwheel,0,--,2047,--,0
9184,note_off,0,36,--,64,320
9185,note_on,0,44,--,64,0
9186,note_off,0,44,--,64,480
9187,note_on,0,41,--,64,0
9188,note_off,0,41,--,64,160
9189,note_on,0,43,--,64,0
9190,pitchwheel,0,--,1638,--,0
9191,note_off,0,43,--,64,320
9192,note_on,0,45,--,64,0
9193,pitchwheel,0,--,1638,--,0
9194,note_off,0,45,--,64,320
9195,note_on,0,44,--,64,0
9196,pitchwheel,0,--,2047,--,0
9197,note_off,0,44,--,64,320
9198,note_on,0,43,--,64,0
9199,note_off,0,43,--,64,320
9200,note_on,0,44,--,64,0
9201,note_off,0,44,--,64,320
9202,note_on,0,36,--,64,0
9203,pitchwheel,0,--,2047,--,0
9204,note_off,0,36,--,64,320
9205,note_on,0,36,--,64,0
9206,pitchwheel,0,--,819,--,0
9207,note_off,0,36,--,64,320
9208,note_on,0,40,--,64,0
9209,note_off,0,40,--,64,320
9210,note_on,0,46,--,64,0
9211,pitchwheel,0,--,1638,--,0
9212,note_off,0,46,--,64,160
9213,note_on,0,43,--,64,0
9214,note_off,0,43,--,64,160
9215,note_on,0,45,--,64,0
9216,note_off,0,45,--,64,320
9217,note_on,0,46,--,64,0
9218,note_off,0,46,--,64,320
9219,note_on,0,40,--,64,0
9220,pitchwheel,0,--,2457,--,0
9221,note_off,0,40,--,64,160
9222,note_on,0,41,--,64,0
9223,pitchwheel,0,--,1228,--,0
9224,note_off,0,41,--,64,160
9225,note_on,0,39,--,64,0
9226,pitchwheel,0,--,819,--,0
9227,note_off,0,39,--,64,320
9228,note_on,0,41,--,64,0
9229,note_off,0,41,--,64,320
9230,note_on,0,38,--,64,0
9231,note_off,0,38,--,64,160
9232,note_on,0,47,--,64,0
9233,pitchwheel,0,--,3276,--,0
9234,note_off,0,47,--,64,160
9235,note_on,0,47,--,64,0
9236,pitchwheel,0,--,2457,--,0
9237,note_off,0,47,--,64,320
9238,note_on,0,46,--,64,0
9239,pitchwheel,0,--,1638,--,0
9240,note_off,0,46,--,64,320
9241,note_on,0,44,--,64,0
9242,pitchwheel,0,--,2047,--,0
9243,note_off,0,44,--,64,160
9244,note_on,0,45,--,64,0
9245,note_off,0,45,--,64,160
9246,note_on,0,38,--,64,0
9247,pitchwheel,0,--,2457,--,0
9248,note_off,0,38,--,64,320
9249,note_on,0,38,--,64,0
9250,pitchwheel,0,--,819,--,0
9251,note_off,0,38,--,64,320
9252,note_on,0,39,--,64,0
9253,pitchwheel,0,--,819,--,0
9254,note_off,0,39,--,64,160
9255,note_on,0,40,--,64,0
9256,pitchwheel,0,--,2457,--,0
9257,note_off,0,40,--,64,160
9258,note_on,0,43,--,64,0
9259,pitchwheel,0,--,2866,--,0
9260,note_off,0,43,--,64,320
9261,note_on,0,43,--,64,0
9262,note_off,0,43,--,64,320
9263,note_on,0,38,--,64,0
9264,note_off,0,38,--,64,320
9265,note_on,0,38,--,64,0
9266,pitchwheel,0,--,819,--,0
9267,note_off,0,38,--,64,320
9268,note_on,0,38,--,64,0
9269,pitchwheel,0,--,2457,--,0
9270,note_off,0,38,--,64,320
9271,note_on,0,36,--,64,0
9272,pitchwheel,0,--,2047,--,0
9273,note_off,0,36,--,64,160
9274,note_on,0,45,--,64,0
9275,pitchwheel,0,--,2047,--,0
9276,note_off,0,45,--,64,160
9277,note_on,0,47,--,64,0
9278,pitchwheel,0,--,3276,--,0
9279,note_off,0,47,--,64,320
9280,note_on,0,46,--,64,0
9281,pitchwheel,0,--,1638,--,0
9282,note_off,0,46,--,64,320
9283,note_on,0,41,--,64,0
9284,pitchwheel,0,--,1228,--,0
9285,note_off,0,41,--,64,160
9286,note_on,0,44,--,64,0
9287,pitchwheel,0,--,2047,--,0
9288,note_off,0,44,--,64,160
9289,note_on,0,41,--,64,0
9290,note_off,0,41,--,64,320
9291,note_on,0,36,--,64,0
9292,pitchwheel,0,--,819,--,0
9293,note_off,0,36,--,64,320
9294,note_on,0,40,--,64,0
9295,note_off,0,40,--,64,160
9296,note_on,0,38,--,64,0
9297,pitchwheel,0,--,819,--,0
9298,note_off,0,38,--,64,160
9299,note_on,0,41,--,64,0
9300,note_off,0,41,--,64,320
9301,note_on,0,39,--,64,0
9302,pitchwheel,0,--,819,--,0
9303,note_off,0,39,--,64,320
9304,note_on,0,38,--,64,0
9305,pitchwheel,0,--,819,--,0
9306,note_off,0,38,--,64,160
9307,note_on,0,36,--,64,0
9308,pitchwheel,0,--,2047,--,0
9309,note_off,0,36,--,64,160
9310,note_on,0,38,--,64,0
9311,pitchwheel,0,--,2457,--,0
9312,note_off,0,38,--,64,320
9313,note_on,0,46,--,64,0
9314,note_off,0,46,--,64,320
9315,note_on,0,40,--,64,0
9316,pitchwheel,0,--,2457,--,0
9317,note_off,0,40,--,64,160
9318,note_on,0,47,--,64,0
9319,pitchwheel,0,--,3685,--,0
9320,note_off,0,47,--,64,480
9321,note_on,0,46,--,64,0
9322,pitchwheel,0,--,1638,--,0
9323,note_off,0,46,--,64,480
9324,note_on,0,38,--,64,0
9325,note_off,0,38,--,64,160
9326,note_on,0,44,--,64,0
9327,pitchwheel,0,--,2047,--,0
9328,note_off,0,44,--,64,320
9329,note_on,0,45,--,64,0
9330,note_off,0,45,--,64,320
9331,note_on,0,46,--,64,0
9332,note_off,0,46,--,64,160
9333,note_on,0,47,--,64,0
9334,pitchwheel,0,--,3276,--,0
9335,note_off,0,47,--,64,160
9336,note_on,0,36,--,64,0
9337,pitchwheel,0,--,2047,--,0
9338,note_off,0,36,--,64,320
9339,note_on,0,36,--,64,0
9340,pitchwheel,0,--,819,--,0
9341,note_off,0,36,--,64,320
9342,note_on,0,38,--,64,0
9343,pitchwheel,0,--,819,--,0
9344,note_off,0,38,--,64,160
9345,note_on,0,46,--,64,0
9346,pitchwheel,0,--,409,--,0
9347,note_off,0,46,--,64,160
9348,note_on,0,36,--,64,0
9349,pitchwheel,0,--,819,--,0
9350,note_off,0,36,--,64,320
9351,note_on,0,45,--,64,0
9352,note_off,0,45,--,64,480
9353,note_on,0,45,--,64,0
9354,pitchwheel,0,--,1638,--,0
9355,note_off,0,45,--,64,800
9356,note_on,0,41,--,64,0
9357,note_off,0,41,--,64,160
9358,note_on,0,43,--,64,0
9359,note_off,0,43,--,64,320
9360,note_on,0,47,--,64,0
9361,pitchwheel,0,--,2457,--,0
9362,note_off,0,47,--,64,320
9363,note_on,0,46,--,64,0
9364,note_off,0,46,--,64,160
9365,note_on,0,38,--,64,0
9366,pitchwheel,0,--,819,--,0
9367,note_off,0,38,--,64,160
9368,note_on,0,45,--,64,0
9369,pitchwheel,0,--,3276,--,0
9370,note_off,0,45,--,64,320
9371,note_on,0,43,--,64,0
9372,pitchwheel,0,--,2866,--,0
9373,note_off,0,43,--,64,320
9374,note_on,0,43,--,64,0
9375,note_off,0,43,--,64,320
9376,note_on,0,43,--,64,0
9377,pitchwheel,0,--,1638,--,0
9378,note_off,0,43,--,64,320
9379,note_on,0,43,--,64,0
9380,pitchwheel,0,--,2866,--,0
9381,note_off,0,43,--,64,320
9382,note_on,0,43,--,64,0
9383,note_off,0,43,--,64,320
9384,note_on,0,38,--,64,0
9385,note_off,0,38,--,64,320
9386,note_on,0,45,--,64,0
9387,pitchwheel,0,--,2047,--,0
9388,note_off,0,45,--,64,320
9389,note_on,0,38,--,64,0
9390,pitchwheel,0,--,2457,--,0
9391,note_off,0,38,--,64,320
9392,note_on,0,45,--,64,0
9393,note_off,0,45,--,64,320
9394,note_on,0,40,--,64,0
9395,pitchwheel,0,--,2457,--,0
9396,note_off,0,40,--,64,320
9397,note_on,0,44,--,64,0
9398,note_off,0,44,--,64,160
9399,note_on,0,47,--,64,0
9400,pitchwheel,0,--,3276,--,0
9401,note_off,0,47,--,64,160
9402,note_on,0,41,--,64,0
9403,pitchwheel,0,--,1228,--,0
9404,note_off,0,41,--,64,320
9405,note_on,0,41,--,64,0
9406,note_off,0,41,--,64,480
9407,note_on,0,38,--,64,0
9408,pitchwheel,0,--,1228,--,0
9409,note_off,0,38,--,64,160
9410,note_on,0,43,--,64,0
9411,note_off,0,43,--,64,320
9412,note_on,0,38,--,64,0
9413,pitchwheel,0,--,2457,--,0
9414,note_off,0,38,--,64,480
9415,note_on,0,45,--,64,0
9416,pitchwheel,0,--,1638,--,0
9417,note_off,0,45,--,64,160
9418,note_on,0,43,--,64,0
9419,note_off,0,43,--,64,320
9420,note_on,0,45,--,64,0
9421,pitchwheel,0,--,2047,--,0
9422,note_off,0,45,--,64,320
9423,note_on,0,45,--,64,0
9424,note_off,0,45,--,64,320
9425,note_on,0,46,--,64,0
9426,note_off,0,46,--,64,320
9427,note_on,0,43,--,64,0
9428,pitchwheel,0,--,1638,--,0
9429,note_off,0,43,--,64,320
9430,note_on,0,47,--,64,0
9431,pitchwheel,0,--,3685,--,0
9432,note_off,0,47,--,64,160
9433,note_on,0,45,--,64,0
9434,pitchwheel,0,--,1638,--,0
9435,note_off,0,45,--,64,480
9436,note_on,0,46,--,64,0
9437,note_off,0,46,--,64,320
9438,note_on,0,40,--,64,0
9439,pitchwheel,0,--,2457,--,0
9440,note_off,0,40,--,64,320
9441,note_on,0,41,--,64,0
9442,pitchwheel,0,--,2457,--,0
9443,note_off,0,41,--,64,320
9444,note_on,0,36,--,64,0
9445,pitchwheel,0,--,819,--,0
9446,note_off,0,36,--,64,320
9447,note_on,0,47,--,64,0
9448,pitchwheel,0,--,3685,--,0
9449,note_off,0,47,--,64,160
9450,note_on,0,47,--,64,0
9451,pitchwheel,0,--,2457,--,0
9452,note_off,0,47,--,64,160
9453,note_on,0,40,--,64,0
9454,pitchwheel,0,--,2457,--,0
9455,note_off,0,40,--,64,320
9456,note_on,0,36,--,64,0
9457,pitchwheel,0,--,3276,--,0
9458,note_off,0,36,--,64,320
9459,note_on,0,45,--,64,0
9460,note_off,0,45,--,64,160
9461,note_on,0,43,--,64,0
9462,pitchwheel,0,--,2866,--,0
9463,note_off,0,43,--,64,160
9464,note_on,0,38,--,64,0
9465,pitchwheel,0,--,3685,--,0
9466,note_off,0,38,--,64,320
9467,note_on,0,38,--,64,0
9468,pitchwheel,0,--,819,--,0
9469,note_off,0,38,--,64,320
9470,note_on,0,47,--,64,0
9471,pitchwheel,0,--,3276,--,0
9472,note_off,0,47,--,64,160
9473,note_on,0,43,--,64,0
9474,note_off,0,43,--,64,480
9475,note_on,0,46,--,64,0
9476,pitchwheel,0,--,1638,--,0
9477,note_off,0,46,--,64,320
9478,note_on,0,43,--,64,0
9479,pitchwheel,0,--,1638,--,0
9480,note_off,0,43,--,64,160
9481,note_on,0,43,--,64,0
9482,pitchwheel,0,--,409,--,0
9483,note_off,0,43,--,64,160
9484,note_on,0,47,--,64,0
9485,pitchwheel,0,--,2457,--,0
9486,note_off,0,47,--,64,320
9487,note_on,0,49,--,64,0
9488,note_off,0,49,--,64,320
9489,note_on,0,50,--,64,0
9490,pitchwheel,0,--,2457,--,0
9491,note_off,0,50,--,64,160
9492,note_on,0,50,--,64,0
9493,note_off,0,50,--,64,160
9494,note_on,0,47,--,64,0
9495,pitchwheel,0,--,3276,--,0
9496,note_off,0,47,--,64,320
9497,note_on,0,46,--,64,0
9498,pitchwheel,0,--,1638,--,0
9499,note_off,0,46,--,64,320
9500,note_on,0,43,--,64,0
9501,pitchwheel,0,--,1638,--,0
9502,note_off,0,43,--,64,160
9503,note_on,0,38,--,64,0
9504,pitchwheel,0,--,2457,--,0
9505,note_off,0,38,--,64,160
9506,note_on,0,43,--,64,0
9507,pitchwheel,0,--,409,--,0
9508,note_off,0,43,--,64,320
9509,note_on,0,41,--,64,0
9510,note_off,0,41,--,64,320
9511,note_on,0,46,--,64,0
9512,pitchwheel,0,--,1638,--,0
9513,note_off,0,46,--,64,160
9514,note_on,0,40,--,64,0
9515,pitchwheel,0,--,2457,--,0
9516,note_off,0,40,--,64,160
9517,note_on,0,38,--,64,0
9518,pitchwheel,0,--,3685,--,0
9519,note_off,0,38,--,64,320
9520,note_on,0,36,--,64,0
9521,pitchwheel,0,--,2047,--,0
9522,note_off,0,36,--,64,320
9523,note_on,0,45,--,64,0
9524,pitchwheel,0,--,1638,--,0
9525,note_off,0,45,--,64,160
9526,note_on,0,45,--,64,0
9527,pitchwheel,0,--,2047,--,0
9528,note_off,0,45,--,64,160
9529,note_on,0,48,--,64,0
9530,pitchwheel,0,--,819,--,0
9531,note_off,0,48,--,64,320
9532,note_on,0,45,--,64,0
9533,pitchwheel,0,--,3276,--,0
9534,note_off,0,45,--,64,320
9535,note_on,0,40,--,64,0
9536,pitchwheel,0,--,2866,--,0
9537,note_off,0,40,--,64,320
9538,note_on,0,39,--,64,0
9539,pitchwheel,0,--,819,--,0
9540,note_off,0,39,--,64,320
9541,note_on,0,41,--,64,0
9542,note_off,0,41,--,64,320
9543,note_on,0,36,--,64,0
9544,pitchwheel,0,--,2047,--,0
9545,note_off,0,36,--,64,320
9546,note_on,0,40,--,64,0
9547,pitchwheel,0,--,2457,--,0
9548,note_off,0,40,--,64,320
9549,note_on,0,36,--,64,0
9550,pitchwheel,0,--,3276,--,0
9551,note_off,0,36,--,64,160
9552,note_on,0,43,--,64,0
9553,note_off,0,43,--,64,160
9554,note_on,0,47,--,64,0
9555,pitchwheel,0,--,2047,--,0
9556,note_off,0,47,--,64,320
9557,note_on,0,46,--,64,0
9558,note_off,0,46,--,64,480
9559,note_on,0,45,--,64,0
9560,note_off,0,45,--,64,160
9561,note_on,0,47,--,64,0
9562,pitchwheel,0,--,3685,--,0
9563,note_off,0,47,--,64,320
9564,note_on,0,46,--,64,0
9565,note_off,0,46,--,64,320
9566,note_on,0,41,--,64,0
9567,note_off,0,41,--,64,320
9568,note_on,0,38,--,64,0
9569,pitchwheel,0,--,819,--,0
9570,note_off,0,38,--,64,320
9571,note_on,0,39,--,64,0
9572,pitchwheel,0,--,819,--,0
9573,note_off,0,39,--,64,320
9574,note_on,0,36,--,64,0
9575,pitchwheel,0,--,819,--,0
9576,note_off,0,36,--,64,320
9577,note_on,0,36,--,64,0
9578,pitchwheel,0,--,2047,--,0
9579,note_off,0,36,--,64,320
9580,note_on,0,43,--,64,0
9581,note_off,0,43,--,64,320
9582,note_on,0,44,--,64,0
9583,note_off,0,44,--,64,160
9584,note_on,0,40,--,64,0
9585,pitchwheel,0,--,2457,--,0
9586,note_off,0,40,--,64,160
9587,note_on,0,45,--,64,0
9588,note_off,0,45,--,64,320
9589,note_on,0,41,--,64,0
9590,pitchwheel,0,--,2457,--,0
9591,note_off,0,41,--,64,320
9592,note_on,0,47,--,64,0
9593,pitchwheel,0,--,3276,--,0
9594,note_off,0,47,--,64,160
9595,note_on,0,38,--,64,0
9596,pitchwheel,0,--,1228,--,0
9597,note_off,0,38,--,64,160
9598,note_on,0,47,--,64,0
9599,pitchwheel,0,--,3685,--,0
9600,note_off,0,47,--,64,320
9601,note_on,0,38,--,64,0
9602,pitchwheel,0,--,2457,--,0
9603,note_off,0,38,--,64,320
9604,note_on,0,47,--,64,0
9605,pitchwheel,0,--,3276,--,0
9606,note_off,0,47,--,64,160
9607,note_on,0,43,--,64,0
9608,note_off,0,43,--,64,160
9609,note_on,0,46,--,64,0
9610,pitchwheel,0,--,409,--,0
9611,note_off,0,46,--,64,320
9612,note_on,0,43,--,64,0
9613,pitchwheel,0,--,409,--,0
9614,note_off,0,43,--,64,320
9615,note_on,0,47,--,64,0
9616,pitchwheel,0,--,2047,--,0
9617,note_off,0,47,--,64,160
9618,note_on,0,45,--,64,0
9619,note_off,0,45,--,64,160
9620,note_on,0,41,--,64,0
9621,pitchwheel,0,--,1228,--,0
9622,note_off,0,41,--,64,320
9623,note_on,0,45,--,64,0
9624,pitchwheel,0,--,1638,--,0
9625,note_off,0,45,--,64,320
9626,note_on,0,44,--,64,0
9627,note_off,0,44,--,64,160
9628,note_on,0,38,--,64,0
9629,pitchwheel,0,--,819,--,0
9630,note_off,0,38,--,64,160
9631,note_on,0,41,--,64,0
9632,note_off,0,41,--,64,320
9633,note_on,0,45,--,64,0
9634,pitchwheel,0,--,1638,--,0
9635,note_off,0,45,--,64,320
9636,note_on,0,48,--,64,0
9637,pitchwheel,0,--,2047,--,0
9638,note_off,0,48,--,64,320
9639,note_on,0,48,--,64,0
9640,pitchwheel,0,--,3276,--,0
9641,note_off,0,48,--,64,320
9642,note_on,0,50,--,64,0
9643,pitchwheel,0,--,2457,--,0
9644,note_off,0,50,--,64,320
9645,note_on,0,45,--,64,0
9646,note_off,0,45,--,64,160
9647,note_on,0,47,--,64,0
9648,pitchwheel,0,--,2457,--,0
9649,note_off,0,47,--,64,160
9650,note_on,0,43,--,64,0
9651,note_off,0,43,--,64,320
9652,note_on,0,43,--,64,0
9653,pitchwheel,0,--,409,--,0
9654,note_off,0,43,--,64,320
9655,note_on,0,43,--,64,0
9656,pitchwheel,0,--,1638,--,0
9657,note_off,0,43,--,64,160
9658,note_on,0,49,--,64,0
9659,note_off,0,49,--,64,160
9660,note_on,0,43,--,64,0
9661,pitchwheel,0,--,2866,--,0
9662,note_off,0,43,--,64,320
9663,note_on,0,48,--,64,0
9664,pitchwheel,0,--,819,--,0
9665,note_off,0,48,--,64,320
9666,note_on,0,43,--,64,0
9667,note_off,0,43,--,64,160
9668,note_on,0,47,--,64,0
9669,pitchwheel,0,--,3276,--,0
9670,note_off,0,47,--,64,160
9671,note_on,0,50,--,64,0
9672,pitchwheel,0,--,2457,--,0
9673,note_off,0,50,--,64,320
9674,note_on,0,47,--,64,0
9675,pitchwheel,0,--,3685,--,0
9676,note_off,0,47,--,64,320
9677,note_on,0,50,--,64,0
9678,pitchwheel,0,--,819,--,0
9679,note_off,0,50,--,64,160
9680,note_on,0,55,--,64,0
9681,pitchwheel,0,--,409,--,0
9682,note_off,0,55,--,64,160
9683,note_on,0,50,--,64,0
9684,pitchwheel,0,--,2457,--,0
9685,note_off,0,50,--,64,320
9686,note_on,0,50,--,64,0
9687,pitchwheel,0,--,3685,--,0
9688,note_off,0,50,--,64,320
9689,note_on,0,46,--,64,0
9690,note_off,0,46,--,64,160
9691,note_on,0,50,--,64,0
9692,note_off,0,50,--,64,480
9693,note_on,0,46,--,64,0
9694,pitchwheel,0,--,1638,--,0
9695,note_off,0,46,--,64,320
9696,note_on,0,50,--,64,0
9697,pitchwheel,0,--,2457,--,0
9698,note_off,0,50,--,64,160
9699,note_on,0,48,--,64,0
9700,pitchwheel,0,--,2047,--,0
9701,note_off,0,48,--,64,320
9702,note_on,0,45,--,64,0
9703,note_off,0,45,--,64,320
9704,note_on,0,41,--,64,0
9705,pitchwheel,0,--,2457,--,0
9706,note_off,0,41,--,64,160
9707,note_on,0,45,--,64,0
9708,pitchwheel,0,--,1638,--,0
9709,note_off,0,45,--,64,160
9710,note_on,0,48,--,64,0
9711,pitchwheel,0,--,819,--,0
9712,note_off,0,48,--,64,320
9713,note_on,0,48,--,64,0
9714,pitchwheel,0,--,2047,--,0
9715,note_off,0,48,--,64,320
9716,note_on,0,45,--,64,0
9717,pitchwheel,0,--,1638,--,0
9718,note_off,0,45,--,64,160
9719,note_on,0,45,--,64,0
9720,pitchwheel,0,--,2047,--,0
9721,note_off,0,45,--,64,160
9722,note_on,0,47,--,64,0
9723,pitchwheel,0,--,2457,--,0
9724,note_off,0,47,--,64,320
9725,note_on,0,45,--,64,0
9726,pitchwheel,0,--,3276,--,0
9727,note_off,0,45,--,64,320
9728,note_on,0,48,--,64,0
9729,pitchwheel,0,--,2047,--,0
9730,note_off,0,48,--,64,320
9731,note_on,0,43,--,64,0
9732,note_off,0,43,--,64,320
9733,note_on,0,44,--,64,0
9734,pitchwheel,0,--,2047,--,0
9735,note_off,0,44,--,64,480
9736,note_on,0,48,--,64,0
9737,pitchwheel,0,--,2047,--,0
9738,note_off,0,48,--,64,160
9739,note_on,0,50,--,64,0
9740,pitchwheel,0,--,3685,--,0
9741,note_off,0,50,--,64,320
9742,note_on,0,45,--,64,0
9743,pitchwheel,0,--,2047,--,0
9744,note_off,0,45,--,64,320
9745,note_on,0,46,--,64,0
9746,pitchwheel,0,--,1638,--,0
9747,note_off,0,46,--,64,160
9748,note_on,0,40,--,64,0
9749,pitchwheel,0,--,2457,--,0
9750,note_off,0,40,--,64,160
9751,note_on,0,44,--,64,0
9752,pitchwheel,0,--,2047,--,0
9753,note_off,0,44,--,64,320
9754,note_on,0,38,--,64,0
9755,pitchwheel,0,--,3685,--,0
9756,note_off,0,38,--,64,320
9757,note_on,0,45,--,64,0
9758,pitchwheel,0,--,1638,--,0
9759,note_off,0,45,--,64,160
9760,note_on,0,47,--,64,0
9761,pitchwheel,0,--,2047,--,0
9762,note_off,0,47,--,64,160
9763,note_on,0,45,--,64,0
9764,pitchwheel,0,--,2047,--,0
9765,note_off,0,45,--,64,320
9766,note_on,0,47,--,64,0
9767,pitchwheel,0,--,2457,--,0
9768,note_off,0,47,--,64,320
9769,note_on,0,38,--,64,0
9770,pitchwheel,0,--,1228,--,0
9771,note_off,0,38,--,64,320
9772,note_on,0,43,--,64,0
9773,pitchwheel,0,--,409,--,0
9774,note_off,0,43,--,64,320
9775,note_on,0,45,--,64,0
9776,pitchwheel,0,--,3276,--,0
9777,note_off,0,45,--,64,320
9778,note_on,0,41,--,64,0
9779,note_off,0,41,--,64,320
9780,note_on,0,46,--,64,0
9781,pitchwheel,0,--,409,--,0
9782,note_off,0,46,--,64,320
9783,note_on,0,47,--,64,0
9784,pitchwheel,0,--,2047,--,0
9785,note_off,0,47,--,64,320
9786,note_on,0,46,--,64,0
9787,pitchwheel,0,--,1638,--,0
9788,note_off,0,46,--,64,160
9789,note_on,0,50,--,64,0
9790,pitchwheel,0,--,819,--,0
9791,note_off,0,50,--,64,160
9792,note_on,0,55,--,64,0
9793,pitchwheel,0,--,1638,--,0
9794,note_off,0,55,--,64,320
9795,note_on,0,55,--,64,0
9796,pitchwheel,0,--,2866,--,0
9797,note_off,0,55,--,64,480
9798,note_on,0,48,--,64,0
9799,pitchwheel,0,--,819,--,0
9800,note_off,0,48,--,64,160
9801,note_on,0,52,--,64,0
9802,note_off,0,52,--,64,320
9803,note_on,0,53,--,64,0
9804,note_off,0,53,--,64,480
9805,note_on,0,52,--,64,0
9806,pitchwheel,0,--,2457,--,0
9807,note_off,0,52,--,64,160
9808,note_on,0,55,--,64,0
9809,note_off,0,55,--,64,320
9810,note_on,0,56,--,64,0
9811,note_off,0,56,--,64,320
9812,note_on,0,53,--,64,0
9813,note_off,0,53,--,64,160
9814,note_on,0,57,--,64,0
9815,note_off,0,57,--,64,160
9816,note_on,0,55,--,64,0
9817,note_off,0,55,--,64,320
9818,note_on,0,55,--,64,0
9819,pitchwheel,0,--,1638,--,0
9820,note_off,0,55,--,64,320
9821,note_on,0,55,--,64,0
9822,pitchwheel,0,--,409,--,0
9823,note_off,0,55,--,64,160
9824,note_on,0,59,--,64,0
9825,pitchwheel,0,--,3276,--,0
9826,note_off,0,59,--,64,480
9827,note_on,0,58,--,64,0
9828,pitchwheel,0,--,1638,--,0
9829,note_off,0,58,--,64,320
9830,note_on,0,57,--,64,0
9831,pitchwheel,0,--,1638,--,0
9832,note_off,0,57,--,64,320
9833,note_on,0,58,--,64,0
9834,note_off,0,58,--,64,320
9835,note_on,0,53,--,64,0
9836,note_off,0,53,--,64,320
9837,note_on,0,53,--,64,0
9838,pitchwheel,0,--,1228,--,0
9839,note_off,0,53,--,64,160
9840,note_on,0,55,--,64,0
9841,pitchwheel,0,--,1638,--,0
9842,note_off,0,55,--,64,160
9843,note_on,0,55,--,64,0
9844,note_off,0,55,--,64,320
9845,note_on,0,55,--,64,0
9846,pitchwheel,0,--,409,--,0
9847,note_off,0,55,--,64,320
9848,note_on,0,57,--,64,0
9849,note_off,0,57,--,64,160
9850,note_on,0,50,--,64,0
9851,pitchwheel,0,--,3685,--,0
9852,note_off,0,50,--,64,480
9853,note_on,0,50,--,64,0
9854,pitchwheel,0,--,2457,--,0
9855,note_off,0,50,--,64,320
9856,note_on,0,48,--,64,0
9857,pitchwheel,0,--,3276,--,0
9858,note_off,0,48,--,64,160
9859,note_on,0,57,--,64,0
9860,pitchwheel,0,--,1638,--,0
9861,note_off,0,57,--,64,800
9862,note_on,0,59,--,64,0
9863,pitchwheel,0,--,2457,--,0
9864,note_off,0,59,--,64,160
9865,note_on,0,53,--,64,0
9866,note_off,0,53,--,64,160
9867,note_on,0,58,--,64,0
9868,pitchwheel,0,--,1638,--,0
9869,note_off,0,58,--,64,320
9870,note_on,0,59,--,64,0
9871,pitchwheel,0,--,2047,--,0
9872,note_off,0,59,--,64,320
9873,note_on,0,53,--,64,0
9874,note_off,0,53,--,64,160
9875,note_on,0,53,--,64,0
9876,note_off,0,53,--,64,160
9877,note_on,0,50,--,64,0
9878,pitchwheel,0,--,819,--,0
9879,note_off,0,50,--,64,320
9880,note_on,0,51,--,64,0
9881,pitchwheel,0,--,819,--,0
9882,note_off,0,51,--,64,320
9883,note_on,0,45,--,64,0
9884,pitchwheel,0,--,3276,--,0
9885,note_off,0,45,--,64,160
9886,note_on,0,50,--,64,0
9887,pitchwheel,0,--,3685,--,0
9888,note_off,0,50,--,64,160
9889,note_on,0,46,--,64,0
9890,note_off,0,46,--,64,320
9891,note_on,0,50,--,64,0
9892,note_off,0,50,--,64,320
9893,note_on,0,45,--,64,0
9894,pitchwheel,0,--,2047,--,0
9895,note_off,0,45,--,64,160
9896,note_on,0,43,--,64,0
9897,note_off,0,43,--,64,160
9898,note_on,0,38,--,64,0
9899,pitchwheel,0,--,2457,--,0
9900,note_off,0,38,--,64,320
9901,note_on,0,46,--,64,0
9902,pitchwheel,0,--,1638,--,0
9903,note_off,0,46,--,64,320
9904,note_on,0,40,--,64,0
9905,pitchwheel,0,--,2457,--,0
9906,note_off,0,40,--,64,160
9907,note_on,0,43,--,64,0
9908,pitchwheel,0,--,1638,--,0
9909,note_off,0,43,--,64,160
9910,note_on,0,41,--,64,0
9911,pitchwheel,0,--,2457,--,0
9912,note_off,0,41,--,64,320
9913,note_on,0,43,--,64,0
9914,pitchwheel,0,--,2866,--,0
9915,note_off,0,43,--,64,320
9916,note_on,0,36,--,64,0
9917,pitchwheel,0,--,2047,--,0
9918,note_off,0,36,--,64,320
9919,note_on,0,36,--,64,0
9920,pitchwheel,0,--,3276,--,0
9921,note_off,0,36,--,64,320
9922,note_on,0,36,--,64,0
9923,pitchwheel,0,--,2047,--,0
9924,note_off,0,36,--,64,160
9925,note_on,0,41,--,64,0
9926,note_off,0,41,--,64,480
9927,note_on,0,45,--,64,0
9928,pitchwheel,0,--,1638,--,0
9929,note_off,0,45,--,64,480
9930,note_on,0,50,--,64,0
9931,pitchwheel,0,--,819,--,0
9932,note_off,0,50,--,64,480
9933,note_on,0,56,--,64,0
9934,note_off,0,56,--,64,480
9935,note_on,0,50,--,64,0
9936,pitchwheel,0,--,2457,--,0
9937,note_off,0,50,--,64,160
9938,note_on,0,46,--,64,0
9939,note_off,0,46,--,64,320
9940,note_on,0,47,--,64,0
9941,pitchwheel,0,--,3276,--,0
9942,note_off,0,47,--,64,320
9943,note_on,0,47,--,64,0
9944,pitchwheel,0,--,2047,--,0
9945,note_off,0,47,--,64,320
9946,note_on,0,43,--,64,0
9947,note_off,0,43,--,64,320
9948,note_on,0,41,--,64,0
9949,note_off,0,41,--,64,320
9950,note_on,0,40,--,64,0
9951,pitchwheel,0,--,2866,--,0
9952,note_off,0,40,--,64,320
9953,note_on,0,38,--,64,0
9954,pitchwheel,0,--,819,--,0
9955,note_off,0,38,--,64,320
9956,note_on,0,45,--,64,0
9957,note_off,0,45,--,64,320
9958,note_on,0,45,--,64,0
9959,pitchwheel,0,--,2047,--,0
9960,note_off,0,45,--,64,160
9961,note_on,0,40,--,64,0
9962,pitchwheel,0,--,2457,--,0
9963,note_off,0,40,--,64,160
9964,note_on,0,45,--,64,0
9965,note_off,0,45,--,64,320
9966,note_on,0,45,--,64,0
9967,pitchwheel,0,--,3276,--,0
9968,note_off,0,45,--,64,320
9969,note_on,0,40,--,64,0
9970,pitchwheel,0,--,2457,--,0
9971,note_off,0,40,--,64,160
9972,note_on,0,41,--,64,0
9973,note_off,0,41,--,64,160
9974,note_on,0,36,--,64,0
9975,pitchwheel,0,--,3276,--,0
9976,note_off,0,36,--,64,320
9977,note_on,0,40,--,64,0
9978,pitchwheel,0,--,2866,--,0
9979,note_off,0,40,--,64,320
9980,note_on,0,38,--,64,0
9981,note_off,0,38,--,64,160
9982,note_on,0,38,--,64,0
9983,pitchwheel,0,--,819,--,0
9984,note_off,0,38,--,64,160
9985,note_on,0,43,--,64,0
9986,pitchwheel,0,--,1638,--,0
9987,note_off,0,43,--,64,320
9988,note_on,0,43,--,64,0
9989,pitchwheel,0,--,409,--,0
9990,note_off,0,43,--,64,320
9991,note_on,0,41,--,64,0
9992,note_off,0,41,--,64,160
9993,note_on,0,45,--,64,0
9994,note_off,0,45,--,64,160
9995,note_on,0,38,--,64,0
9996,pitchwheel,0,--,2457,--,0
9997,note_off,0,38,--,64,320
9998,note_on,0,38,--,64,0
9999,pitchwheel,0,--,819,--,0
10000,note_off,0,38,--,64,320
10001,note_on,0,46,--,64,0
10002,pitchwheel,0,--,1638,--,0
10003,note_off,0,46,--,64,160
10004,note_on,0,43,--,64,0
10005,note_off,0,43,--,64,160
10006,note_on,0,45,--,64,0
10007,pitchwheel,0,--,2047,--,0
10008,note_off,0,45,--,64,320
10009,note_on,0,41,--,64,0
10010,pitchwheel,0,--,1228,--,0
10011,note_off,0,41,--,64,320
10012,note_on,0,41,--,64,0
10013,note_off,0,41,--,64,320
10014,note_on,0,41,--,64,0
10015,pitchwheel,0,--,2457,--,0
10016,note_off,0,41,--,64,320
10017,note_on,0,38,--,64,0
10018,pitchwheel,0,--,3685,--,0
10019,note_off,0,38,--,64,320
10020,note_on,0,36,--,64,0
10021,pitchwheel,0,--,819,--,0
10022,note_off,0,36,--,64,160
10023,note_on,0,46,--,64,0
10024,pitchwheel,0,--,409,--,0
10025,note_off,0,46,--,64,160
10026,note_on,0,47,--,64,0
10027,pitchwheel,0,--,3276,--,0
10028,note_off,0,47,--,64,320
10029,note_on,0,38,--,64,0
10030,pitchwheel,0,--,3685,--,0
10031,note_off,0,38,--,64,320
10032,note_on,0,47,--,64,0
10033,pitchwheel,0,--,3685,--,0
10034,note_off,0,47,--,64,160
10035,note_on,0,36,--,64,0
10036,pitchwheel,0,--,2047,--,0
10037,note_off,0,36,--,64,160
10038,note_on,0,36,--,64,0
10039,pitchwheel,0,--,819,--,0
10040,note_off,0,36,--,64,320
10041,note_on,0,45,--,64,0
10042,pitchwheel,0,--,3276,--,0
10043,note_off,0,45,--,64,320
10044,note_on,0,36,--,64,0
10045,pitchwheel,0,--,3276,--,0
10046,note_off,0,36,--,64,160
10047,note_on,0,45,--,64,0
10048,pitchwheel,0,--,1638,--,0
10049,note_off,0,45,--,64,160
10050,note_on,0,41,--,64,0
10051,note_off,0,41,--,64,320
10052,note_on,0,36,--,64,0
10053,pitchwheel,0,--,2047,--,0
10054,note_off,0,36,--,64,320
10055,note_on,0,47,--,64,0
10056,pitchwheel,0,--,3276,--,0
10057,note_off,0,47,--,64,160
10058,note_on,0,36,--,64,0
10059,pitchwheel,0,--,819,--,0
10060,note_off,0,36,--,64,160
10061,note_on,0,39,--,64,0
10062,pitchwheel,0,--,819,--,0
10063,note_off,0,39,--,64,320
10064,note_on,0,45,--,64,0
10065,note_off,0,45,--,64,320
10066,note_on,0,45,--,64,0
10067,pitchwheel,0,--,1638,--,0
10068,note_off,0,45,--,64,160
10069,note_on,0,48,--,64,0
10070,pitchwheel,0,--,2047,--,0
10071,note_off,0,48,--,64,480
10072,note_on,0,45,--,64,0
10073,pitchwheel,0,--,1638,--,0
10074,note_off,0,45,--,64,480
10075,note_on,0,50,--,64,0
10076,pitchwheel,0,--,2457,--,0
10077,note_off,0,50,--,64,160
10078,note_on,0,52,--,64,0
10079,note_off,0,52,--,64,320
10080,note_on,0,57,--,64,0
10081,note_off,0,57,--,64,320
10082,note_on,0,58,--,64,0
10083,note_off,0,58,--,64,160
10084,note_on,0,59,--,64,0
10085,pitchwheel,0,--,3276,--,0
10086,note_off,0,59,--,64,160
10087,note_on,0,55,--,64,0
10088,pitchwheel,0,--,2866,--,0
10089,note_off,0,55,--,64,320
10090,note_on,0,55,--,64,0
10091,pitchwheel,0,--,1638,--,0
10092,note_off,0,55,--,64,320
10093,note_on,0,59,--,64,0
10094,pitchwheel,0,--,3276,--,0
10095,note_off,0,59,--,64,160
10096,note_on,0,57,--,64,0
10097,pitchwheel,0,--,3276,--,0
10098,note_off,0,57,--,64,160
10099,note_on,0,59,--,64,0
10100,pitchwheel,0,--,3685,--,0
10101,note_off,0,59,--,64,320
10102,note_on,0,57,--,64,0
10103,pitchwheel,0,--,2047,--,0
10104,note_off,0,57,--,64,480
10105,note_on,0,55,--,64,0
10106,note_off,0,55,--,64,320
10107,note_on,0,56,--,64,0
10108,note_off,0,56,--,64,480
10109,note_on,0,50,--,64,0
10110,pitchwheel,0,--,2457,--,0
10111,note_off,0,50,--,64,160
10112,note_on,0,55,--,64,0
10113,note_off,0,55,--,64,320
10114,note_on,0,58,--,64,0
10115,pitchwheel,0,--,409,--,0
10116,note_off,0,58,--,64,320
10117,note_on,0,53,--,64,0
10118,note_off,0,53,--,64,160
10119,note_on,0,50,--,64,0
10120,pitchwheel,0,--,819,--,0
10121,note_off,0,50,--,64,160
10122,note_on,0,47,--,64,0
10123,pitchwheel,0,--,2047,--,0
10124,note_off,0,47,--,64,320
10125,note_on,0,44,--,64,0
10126,note_off,0,44,--,64,320
10127,note_on,0,40,--,64,0
10128,pitchwheel,0,--,2457,--,0
10129,note_off,0,40,--,64,160
10130,note_on,0,38,--,64,0
10131,pitchwheel,0,--,2457,--,0
10132,note_off,0,38,--,64,160
10133,note_on,0,38,--,64,0
10134,pitchwheel,0,--,819,--,0
10135,note_off,0,38,--,64,320
10136,note_on,0,38,--,64,0
10137,pitchwheel,0,--,3685,--,0
10138,note_off,0,38,--,64,320
10139,note_on,0,45,--,64,0
10140,pitchwheel,0,--,1638,--,0
10141,note_off,0,45,--,64,320
10142,note_on,0,36,--,64,0
10143,pitchwheel,0,--,2047,--,0
10144,note_off,0,36,--,64,320
10145,note_on,0,39,--,64,0
10146,pitchwheel,0,--,819,--,0
10147,note_off,0,39,--,64,320
10148,note_on,0,38,--,64,0
10149,pitchwheel,0,--,2457,--,0
10150,note_off,0,38,--,64,320
10151,note_on,0,45,--,64,0
10152,note_off,0,45,--,64,320
10153,note_on,0,47,--,64,0
10154,pitchwheel,0,--,2047,--,0
10155,note_off,0,47,--,64,320
10156,note_on,0,36,--,64,0
10157,pitchwheel,0,--,3276,--,0
10158,note_off,0,36,--,64,160
10159,note_on,0,40,--,64,0
10160,pitchwheel,0,--,2457,--,0
10161,note_off,0,40,--,64,160
10162,note_on,0,36,--,64,0
10163,pitchwheel,0,--,2047,--,0
10164,note_off,0,36,--,64,320
10165,note_on,0,36,--,64,0
10166,pitchwheel,0,--,819,--,0
10167,note_off,0,36,--,64,640
10168,note_on,0,36,--,64,0
10169,pitchwheel,0,--,3276,--,0
10170,note_off,0,36,--,64,320
10171,note_on,0,38,--,64,0
10172,pitchwheel,0,--,2457,--,0
10173,note_off,0,38,--,64,480
10174,note_on,0,47,--,64,0
10175,pitchwheel,0,--,3276,--,0
10176,note_off,0,47,--,64,480
10177,note_on,0,47,--,64,0
10178,pitchwheel,0,--,3685,--,0
10179,note_off,0,47,--,64,320
10180,note_on,0,47,--,64,0
10181,pitchwheel,0,--,2047,--,0
10182,note_off,0,47,--,64,160
10183,note_on,0,45,--,64,0
10184,note_off,0,45,--,64,160
10185,note_on,0,46,--,64,0
10186,note_off,0,46,--,64,320
10187,note_on,0,41,--,64,0
10188,note_off,0,41,--,64,320
10189,note_on,0,45,--,64,0
10190,pitchwheel,0,--,2047,--,0
10191,note_off,0,45,--,64,160
10192,note_on,0,43,--,64,0
10193,note_off,0,43,--,64,480
10194,note_on,0,43,--,64,0
10195,pitchwheel,0,--,1638,--,0
10196,note_off,0,43,--,64,320
10197,note_on,0,38,--,64,0
10198,pitchwheel,0,--,819,--,0
10199,note_off,0,38,--,64,320
10200,note_on,0,38,--,64,0
10201,pitchwheel,0,--,2457,--,0
10202,note_off,0,38,--,64,320
10203,note_on,0,43,--,64,0
10204,pitchwheel,0,--,2866,--,0
10205,note_off,0,43,--,64,320
10206,note_on,0,43,--,64,0
10207,pitchwheel,0,--,1638,--,0
10208,note_off,0,43,--,64,320
10209,note_on,0,38,--,64,0
10210,pitchwheel,0,--,819,--,0
10211,note_off,0,38,--,64,320
10212,note_on,0,46,--,64,0
10213,pitchwheel,0,--,1638,--,0
10214,note_off,0,46,--,64,320
10215,note_on,0,45,--,64,0
10216,note_off,0,45,--,64,160
10217,note_on,0,44,--,64,0
10218,pitchwheel,0,--,2047,--,0
10219,note_off,0,44,--,64,160
10220,note_on,0,45,--,64,0
10221,pitchwheel,0,--,2047,--,0
10222,note_off,0,45,--,64,320
10223,note_on,0,40,--,64,0
10224,pitchwheel,0,--,2457,--,0
10225,note_off,0,40,--,64,480
10226,note_on,0,45,--,64,0
10227,pitchwheel,0,--,1638,--,0
10228,note_off,0,45,--,64,480
10229,note_on,0,41,--,64,0
10230,note_off,0,41,--,64,320
10231,note_on,0,45,--,64,0
10232,pitchwheel,0,--,2047,--,0
10233,note_off,0,45,--,64,160
10234,note_on,0,43,--,64,0
10235,pitchwheel,0,--,1638,--,0
10236,note_off,0,43,--,64,160
10237,note_on,0,41,--,64,0
10238,pitchwheel,0,--,2457,--,0
10239,note_off,0,41,--,64,320
10240,note_on,0,45,--,64,0
10241,pitchwheel,0,--,3276,--,0
10242,note_off,0,45,--,64,320
10243,note_on,0,38,--,64,0
10244,pitchwheel,0,--,3685,--,0
10245,note_off,0,38,--,64,160
10246,note_on,0,43,--,64,0
10247,pitchwheel,0,--,409,--,0
10248,note_off,0,43,--,64,160
10249,note_on,0,43,--,64,0
10250,note_off,0,43,--,64,320
10251,note_on,0,44,--,64,0
10252,note_off,0,44,--,64,320
10253,note_on,0,38,--,64,0
10254,pitchwheel,0,--,3685,--,0
10255,note_off,0,38,--,64,160
10256,note_on,0,41,--,64,0
10257,note_off,0,41,--,64,160
10258,note_on,0,47,--,64,0
10259,pitchwheel,0,--,3276,--,0
10260,note_off,0,47,--,64,320
10261,note_on,0,43,--,64,0
10262,pitchwheel,0,--,409,--,0
10263,note_off,0,43,--,64,320
10264,note_on,0,44,--,64,0
10265,note_off,0,44,--,64,160
10266,note_on,0,47,--,64,0
10267,pitchwheel,0,--,3276,--,0
10268,note_off,0,47,--,64,160
10269,note_on,0,41,--,64,0
10270,note_off,0,41,--,64,320
10271,note_on,0,38,--,64,0
10272,pitchwheel,0,--,1228,--,0
10273,note_off,0,38,--,64,320
10274,note_on,0,38,--,64,0
10275,note_off,0,38,--,64,160
10276,note_on,0,41,--,64,0
10277,note_off,0,41,--,64,160
10278,note_on,0,36,--,64,0
10279,pitchwheel,0,--,819,--,0
10280,note_off,0,36,--,64,320
10281,note_on,0,36,--,64,0
10282,pitchwheel,0,--,2047,--,0
10283,note_off,0,36,--,64,320
10284,note_on,0,36,--,64,0
10285,pitchwheel,0,--,819,--,0
10286,note_off,0,36,--,64,320
10287,note_on,0,36,--,64,0
10288,pitchwheel,0,--,3276,--,0
10289,note_off,0,36,--,64,320
10290,note_on,0,40,--,64,0
10291,pitchwheel,0,--,1638,--,0
10292,note_off,0,40,--,64,320
10293,note_on,0,41,--,64,0
10294,note_off,0,41,--,64,640
10295,note_on,0,44,--,64,0
10296,note_off,0,44,--,64,160
10297,note_on,0,43,--,64,0
10298,note_off,0,43,--,64,160
10299,note_on,0,38,--,64,0
10300,pitchwheel,0,--,2457,--,0
10301,note_off,0,38,--,64,320
10302,note_on,0,40,--,64,0
10303,pitchwheel,0,--,1638,--,0
10304,note_off,0,40,--,64,480
10305,note_on,0,39,--,64,0
10306,pitchwheel,0,--,819,--,0
10307,note_off,0,39,--,64,320
10308,note_on,0,46,--,64,0
10309,note_off,0,46,--,64,320
10310,note_on,0,47,--,64,0
10311,pitchwheel,0,--,2047,--,0
10312,note_off,0,47,--,64,320
10313,note_on,0,47,--,64,0
10314,pitchwheel,0,--,3276,--,0
10315,note_off,0,47,--,64,320
10316,note_on,0,36,--,64,0
10317,pitchwheel,0,--,3276,--,0
10318,note_off,0,36,--,64,320
10319,note_on,0,45,--,64,0
10320,pitchwheel,0,--,2047,--,0
10321,note_off,0,45,--,64,320
10322,note_on,0,45,--,64,0
10323,pitchwheel,0,--,3276,--,0
10324,note_off,0,45,--,64,320
10325,note_on,0,37,--,64,0
10326,note_off,0,37,--,64,320
10327,note_on,0,41,--,64,0
10328,pitchwheel,0,--,2457,--,0
10329,note_off,0,41,--,64,160
10330,note_on,0,45,--,64,0
10331,pitchwheel,0,--,1638,--,0
10332,note_off,0,45,--,64,160
10333,note_on,0,45,--,64,0
10334,note_off,0,45,--,64,320
10335,note_on,0,50,--,64,0
10336,pitchwheel,0,--,819,--,0
10337,note_off,0,50,--,64,160
10338,note_on,0,48,--,64,0
10339,pitchwheel,0,--,819,--,0
10340,note_off,0,48,--,64,160
10341,note_on,0,51,--,64,0
10342,pitchwheel,0,--,819,--,0
10343,note_off,0,51,--,64,320
10344,note_on,0,48,--,64,0
10345,pitchwheel,0,--,2047,--,0
10346,note_off,0,48,--,64,320
10347,note_on,0,48,--,64,0
10348,pitchwheel,0,--,819,--,0
10349,note_off,0,48,--,64,160
10350,note_on,0,50,--,64,0
10351,pitchwheel,0,--,819,--,0
10352,note_off,0,50,--,64,160
10353,note_on,0,45,--,64,0
10354,pitchwheel,0,--,2047,--,0
10355,note_off,0,45,--,64,320
10356,note_on,0,46,--,64,0
10357,note_off,0,46,--,64,320
10358,note_on,0,44,--,64,0
10359,pitchwheel,0,--,2047,--,0
10360,note_off,0,44,--,64,160
10361,note_on,0,45,--,64,0
10362,note_off,0,45,--,64,160
10363,note_on,0,43,--,64,0
10364,pitchwheel,0,--,2866,--,0
10365,note_off,0,43,--,64,320
10366,note_on,0,40,--,64,0
10367,pitchwheel,0,--,2457,--,0
10368,note_off,0,40,--,64,320
10369,note_on,0,36,--,64,0
10370,pitchwheel,0,--,3276,--,0
10371,note_off,0,36,--,64,160
10372,note_on,0,47,--,64,0
10373,pitchwheel,0,--,3276,--,0
10374,note_off,0,47,--,64,160
10375,note_on,0,50,--,64,0
10376,pitchwheel,0,--,1228,--,0
10377,note_off,0,50,--,64,320
10378,note_on,0,48,--,64,0
10379,pitchwheel,0,--,2047,--,0
10380,note_off,0,48,--,64,320
10381,note_on,0,47,--,64,0
10382,pitchwheel,0,--,3685,--,0
10383,note_off,0,47,--,64,640
10384,note_on,0,50,--,64,0
10385,pitchwheel,0,--,3685,--,0
10386,note_off,0,50,--,64,320
10387,note_on,0,45,--,64,0
10388,note_off,0,45,--,64,160
10389,note_on,0,45,--,64,0
10390,pitchwheel,0,--,2047,--,0
10391,note_off,0,45,--,64,160
10392,note_on,0,43,--,64,0
10393,note_off,0,43,--,64,320
10394,note_on,0,46,--,64,0
10395,pitchwheel,0,--,1638,--,0
10396,note_off,0,46,--,64,320
10397,note_on,0,40,--,64,0
10398,pitchwheel,0,--,2866,--,0
10399,note_off,0,40,--,64,160
10400,note_on,0,43,--,64,0
10401,pitchwheel,0,--,2866,--,0
10402,note_off,0,43,--,64,160
10403,note_on,0,43,--,64,0
10404,note_off,0,43,--,64,320
10405,note_on,0,45,--,64,0
10406,pitchwheel,0,--,3276,--,0
10407,note_off,0,45,--,64,320
10408,note_on,0,43,--,64,0
10409,note_off,0,43,--,64,160
10410,note_on,0,38,--,64,0
10411,pitchwheel,0,--,819,--,0
10412,note_off,0,38,--,64,160
10413,note_on,0,41,--,64,0
10414,note_off,0,41,--,64,320
10415,note_on,0,46,--,64,0
10416,pitchwheel,0,--,1638,--,0
10417,note_off,0,46,--,64,320
10418,note_on,0,45,--,64,0
10419,pitchwheel,0,--,1638,--,0
10420,note_off,0,45,--,64,160
10421,note_on,0,41,--,64,0
10422,note_off,0,41,--,64,160
10423,note_on,0,44,--,64,0
10424,note_off,0,44,--,64,320
10425,note_on,0,48,--,64,0
10426,pitchwheel,0,--,2047,--,0
10427,note_off,0,48,--,64,320
10428,note_on,0,46,--,64,0
10429,pitchwheel,0,--,409,--,0
10430,note_off,0,46,--,64,160
10431,note_on,0,47,--,64,0
10432,pitchwheel,0,--,3685,--,0
10433,note_off,0,47,--,64,480
10434,note_on,0,51,--,64,0
10435,pitchwheel,0,--,819,--,0
10436,note_off,0,51,--,64,480
10437,note_on,0,50,--,64,0
10438,note_off,0,50,--,64,160
10439,note_on,0,44,--,64,0
10440,pitchwheel,0,--,2047,--,0
10441,note_off,0,44,--,64,320
10442,note_on,0,47,--,64,0
10443,pitchwheel,0,--,3276,--,0
10444,note_off,0,47,--,64,320
10445,note_on,0,46,--,64,0
10446,pitchwheel,0,--,1638,--,0
10447,note_off,0,46,--,64,160
10448,note_on,0,40,--,64,0
10449,pitchwheel,0,--,2457,--,0
10450,note_off,0,40,--,64,160
10451,note_on,0,36,--,64,0
10452,pitchwheel,0,--,819,--,0
10453,note_off,0,36,--,64,320
10454,note_on,0,47,--,64,0
10455,pitchwheel,0,--,3685,--,0
10456,note_off,0,47,--,64,320
10457,note_on,0,45,--,64,0
10458,pitchwheel,0,--,1638,--,0
10459,note_off,0,45,--,64,160
10460,note_on,0,43,--,64,0
10461,pitchwheel,0,--,1638,--,0
10462,note_off,0,43,--,64,160
10463,note_on,0,45,--,64,0
10464,pitchwheel,0,--,2047,--,0
10465,note_off,0,45,--,64,320
10466,note_on,0,45,--,64,0
10467,note_off,0,45,--,64,320
10468,note_on,0,50,--,64,0
10469,pitchwheel,0,--,3685,--,0
10470,note_off,0,50,--,64,320
10471,note_on,0,50,--,64,0
10472,pitchwheel,0,--,819,--,0
10473,note_off,0,50,--,64,320
10474,note_on,0,48,--,64,0
10475,pitchwheel,0,--,3276,--,0
10476,note_off,0,48,--,64,480
10477,note_on,0,53,--,64,0
10478,note_off,0,53,--,64,160
10479,note_on,0,48,--,64,0
10480,pitchwheel,0,--,2047,--,0
10481,note_off,0,48,--,64,320
10482,note_on,0,47,--,64,0
10483,pitchwheel,0,--,2457,--,0
10484,note_off,0,47,--,64,320
10485,note_on,0,45,--,64,0
10486,pitchwheel,0,--,2047,--,0
10487,note_off,0,45,--,64,160
10488,note_on,0,40,--,64,0
10489,pitchwheel,0,--,2457,--,0
10490,note_off,0,40,--,64,160
10491,note_on,0,40,--,64,0
10492,note_off,0,40,--,64,320
10493,note_on,0,38,--,64,0
10494,pitchwheel,0,--,2457,--,0
10495,note_off,0,38,--,64,320
10496,note_on,0,40,--,64,0
10497,pitchwheel,0,--,2457,--,0
10498,note_off,0,40,--,64,160
10499,note_on,0,45,--,64,0
10500,note_off,0,45,--,64,160
10501,note_on,0,39,--,64,0
10502,pitchwheel,0,--,819,--,0
10503,note_off,0,39,--,64,320
10504,note_on,0,43,--,64,0
10505,pitchwheel,0,--,1638,--,0
10506,note_off,0,43,--,64,320
10507,note_on,0,46,--,64,0
10508,note_off,0,46,--,64,320
10509,note_on,0,50,--,64,0
10510,note_off,0,50,--,64,320
10511,note_on,0,48,--,64,0
10512,pitchwheel,0,--,3276,--,0
10513,note_off,0,48,--,64,320
10514,note_on,0,50,--,64,0
10515,pitchwheel,0,--,2457,--,0
10516,note_off,0,50,--,64,320
10517,note_on,0,48,--,64,0
10518,pitchwheel,0,--,2047,--,0
10519,note_off,0,48,--,64,320
10520,note_on,0,43,--,64,0
10521,note_off,0,43,--,64,320
10522,note_on,0,48,--,64,0
10523,pitchwheel,0,--,819,--,0
10524,note_off,0,48,--,64,160
10525,note_on,0,50,--,64,0
10526,pitchwheel,0,--,819,--,0
10527,note_off,0,50,--,64,160
10528,note_on,0,53,--,64,0
10529,note_off,0,53,--,64,320
10530,note_on,0,52,--,64,0
10531,pitchwheel,0,--,2866,--,0
10532,note_off,0,52,--,64,480
10533,note_on,0,55,--,64,0
10534,pitchwheel,0,--,2866,--,0
10535,note_off,0,55,--,64,160
10536,note_on,0,49,--,64,0
10537,note_off,0,49,--,64,320
10538,note_on,0,53,--,64,0
10539,note_off,0,53,--,64,320
10540,note_on,0,50,--,64,0
10541,pitchwheel,0,--,2457,--,0
10542,note_off,0,50,--,64,160
10543,note_on,0,52,--,64,0
10544,pitchwheel,0,--,2457,--,0
10545,note_off,0,52,--,64,160
10546,note_on,0,50,--,64,0
10547,pitchwheel,0,--,819,--,0
10548,note_off,0,50,--,64,320
10549,note_on,0,53,--,64,0
10550,pitchwheel,0,--,2457,--,0
10551,note_off,0,53,--,64,480
10552,note_on,0,57,--,64,0
10553,note_off,0,57,--,64,160
10554,note_on,0,59,--,64,0
10555,pitchwheel,0,--,3276,--,0
10556,note_off,0,59,--,64,320
10557,note_on,0,50,--,64,0
10558,pitchwheel,0,--,2457,--,0
10559,note_off,0,50,--,64,320
10560,note_on,0,48,--,64,0
10561,pitchwheel,0,--,3276,--,0
10562,note_off,0,48,--,64,160
10563,note_on,0,59,--,64,0
10564,pitchwheel,0,--,3276,--,0
10565,note_off,0,59,--,64,480
10566,note_on,0,56,--,64,0
10567,note_off,0,56,--,64,320
10568,note_on,0,52,--,64,0
10569,pitchwheel,0,--,2457,--,0
10570,note_off,0,52,--,64,320
10571,note_on,0,51,--,64,0
10572,pitchwheel,0,--,819,--,0
10573,note_off,0,51,--,64,320
10574,note_on,0,53,--,64,0
10575,note_off,0,53,--,64,320
10576,note_on,0,47,--,64,0
10577,pitchwheel,0,--,3685,--,0
10578,note_off,0,47,--,64,160
10579,note_on,0,47,--,64,0
10580,pitchwheel,0,--,2457,--,0
10581,note_off,0,47,--,64,160
10582,note_on,0,43,--,64,0
10583,note_off,0,43,--,64,320
10584,note_on,0,43,--,64,0
10585,pitchwheel,0,--,1638,--,0
10586,note_off,0,43,--,64,320
10587,note_on,0,45,--,64,0
10588,note_off,0,45,--,64,160
10589,note_on,0,44,--,64,0
10590,pitchwheel,0,--,2047,--,0
10591,note_off,0,44,--,64,480
10592,note_on,0,43,--,64,0
10593,note_off,0,43,--,64,320
10594,note_on,0,41,--,64,0
10595,note_off,0,41,--,64,160
10596,note_on,0,45,--,64,0
10597,pitchwheel,0,--,1638,--,0
10598,note_off,0,45,--,64,480
10599,note_on,0,45,--,64,0
10600,pitchwheel,0,--,2047,--,0
10601,note_off,0,45,--,64,320
10602,note_on,0,47,--,64,0
10603,pitchwheel,0,--,2457,--,0
10604,note_off,0,47,--,64,160
10605,note_on,0,50,--,64,0
10606,pitchwheel,0,--,3685,--,0
10607,note_off,0,50,--,64,160
10608,note_on,0,50,--,64,0
10609,pitchwheel,0,--,2457,--,0
10610,note_off,0,50,--,64,320
10611,note_on,0,52,--,64,0
10612,pitchwheel,0,--,2866,--,0
10613,note_off,0,52,--,64,320
10614,note_on,0,55,--,64,0
10615,pitchwheel,0,--,2866,--,0
10616,note_off,0,55,--,64,160
10617,note_on,0,50,--,64,0
10618,note_off,0,50,--,64,160
10619,note_on,0,45,--,64,0
10620,pitchwheel,0,--,1638,--,0
10621,note_off,0,45,--,64,320
10622,note_on,0,46,--,64,0
10623,pitchwheel,0,--,1638,--,0
10624,note_off,0,46,--,64,320
10625,note_on,0,43,--,64,0
10626,pitchwheel,0,--,1638,--,0
10627,note_off,0,43,--,64,160
10628,note_on,0,38,--,64,0
10629,pitchwheel,0,--,2457,--,0
10630,note_off,0,38,--,64,160
10631,note_on,0,41,--,64,0
10632,note_off,0,41,--,64,320
10633,note_on,0,38,--,64,0
10634,note_off,0,38,--,64,320
10635,note_on,0,47,--,64,0
10636,pitchwheel,0,--,2457,--,0
10637,note_off,0,47,--,64,160
10638,note_on,0,43,--,64,0
10639,note_off,0,43,--,64,160
10640,note_on,0,38,--,64,0
10641,pitchwheel,0,--,2457,--,0
10642,note_off,0,38,--,64,320
10643,note_on,0,45,--,64,0
10644,note_off,0,45,--,64,320
10645,note_on,0,47,--,64,0
10646,pitchwheel,0,--,3276,--,0
10647,note_off,0,47,--,64,160
10648,note_on,0,36,--,64,0
10649,pitchwheel,0,--,2047,--,0
10650,note_off,0,36,--,64,160
10651,note_on,0,45,--,64,0
10652,pitchwheel,0,--,2047,--,0
10653,note_off,0,45,--,64,320
10654,note_on,0,41,--,64,0
10655,note_off,0,41,--,64,320
10656,note_on,0,40,--,64,0
10657,pitchwheel,0,--,2457,--,0
10658,note_off,0,40,--,64,320
10659,note_on,0,40,--,64,0
10660,pitchwheel,0,--,2457,--,0
10661,note_off,0,40,--,64,320
10662,note_on,0,36,--,64,0
10663,pitchwheel,0,--,2047,--,0
10664,note_off,0,36,--,64,160
10665,note_on,0,41,--,64,0
10666,note_off,0,41,--,64,480
10667,note_on,0,38,--,64,0
10668,pitchwheel,0,--,2457,--,0
10669,note_off,0,38,--,64,320
10670,note_on,0,39,--,64,0
10671,pitchwheel,0,--,819,--,0
10672,note_off,0,39,--,64,160
10673,note_on,0,40,--,64,0
10674,pitchwheel,0,--,2457,--,0
10675,note_off,0,40,--,64,160
10676,note_on,0,45,--,64,0
10677,note_off,0,45,--,64,320
10678,note_on,0,45,--,64,0
10679,pitchwheel,0,--,2047,--,0
10680,note_off,0,45,--,64,480
10681,note_on,0,44,--,64,0
10682,pitchwheel,0,--,2047,--,0
10683,note_off,0,44,--,64,160
10684,note_on,0,47,--,64,0
10685,pitchwheel,0,--,3685,--,0
10686,note_off,0,47,--,64,320
10687,note_on,0,45,--,64,0
10688,pitchwheel,0,--,1638,--,0
10689,note_off,0,45,--,64,320
10690,note_on,0,45,--,64,0
10691,pitchwheel,0,--,3276,--,0
10692,note_off,0,45,--,64,320
10693,note_on,0,38,--,64,0
10694,pitchwheel,0,--,819,--,0
10695,note_off,0,38,--,64,320
10696,note_on,0,38,--,64,0
10697,pitchwheel,0,--,3685,--,0
10698,note_off,0,38,--,64,320
10699,note_on,0,45,--,64,0
10700,pitchwheel,0,--,3276,--,0
10701,note_off,0,45,--,64,320
10702,note_on,0,45,--,64,0
10703,pitchwheel,0,--,2047,--,0
10704,note_off,0,45,--,64,320
10705,note_on,0,43,--,64,0
10706,note_off,0,43,--,64,320
10707,note_on,0,36,--,64,0
10708,pitchwheel,0,--,819,--,0
10709,note_off,0,36,--,64,320
10710,note_on,0,45,--,64,0
10711,note_off,0,45,--,64,320
10712,note_on,0,45,--,64,0
10713,pitchwheel,0,--,2047,--,0
10714,note_off,0,45,--,64,320
10715,note_on,0,40,--,64,0
10716,pitchwheel,0,--,2457,--,0
10717,note_off,0,40,--,64,160
10718,note_on,0,43,--,64,0
10719,pitchwheel,0,--,2866,--,0
10720,note_off,0,43,--,64,160
10721,note_on,0,36,--,64,0
10722,pitchwheel,0,--,3276,--,0
10723,note_off,0,36,--,64,320
10724,note_on,0,43,--,64,0
10725,pitchwheel,0,--,1638,--,0
10726,note_off,0,43,--,64,320
10727,note_on,0,43,--,64,0
10728,pitchwheel,0,--,409,--,0
10729,note_off,0,43,--,64,160
10730,note_on,0,43,--,64,0
10731,note_off,0,43,--,64,160
10732,note_on,0,43,--,64,0
10733,pitchwheel,0,--,1638,--,0
10734,note_off,0,43,--,64,320
10735,note_on,0,44,--,64,0
10736,note_off,0,44,--,64,320
10737,note_on,0,47,--,64,0
10738,pitchwheel,0,--,2047,--,0
10739,note_off,0,47,--,64,160
10740,note_on,0,45,--,64,0
10741,note_off,0,45,--,64,160
10742,note_on,0,41,--,64,0
10743,note_off,0,41,--,64,320
10744,note_on,0,43,--,64,0
10745,note_off,0,43,--,64,320
10746,note_on,0,46,--,64,0
10747,pitchwheel,0,--,1638,--,0
10748,note_off,0,46,--,64,160
10749,note_on,0,45,--,64,0
10750,pitchwheel,0,--,1638,--,0
10751,note_off,0,45,--,64,160
10752,note_on,0,41,--,64,0
10753,note_off,0,41,--,64,320
10754,note_on,0,43,--,64,0
10755,pitchwheel,0,--,1638,--,0
10756,note_off,0,43,--,64,320
10757,note_on,0,41,--,64,0
10758,note_off,0,41,--,64,320
10759,note_on,0,46,--,64,0
10760,pitchwheel,0,--,1638,--,0
10761,note_off,0,46,--,64,320
10762,note_on,0,43,--,64,0
10763,note_off,0,43,--,64,320
10764,note_on,0,36,--,64,0
10765,pitchwheel,0,--,2047,--,0
10766,note_off,0,36,--,64,160
10767,note_on,0,47,--,64,0
10768,pitchwheel,0,--,2457,--,0
10769,note_off,0,47,--,64,160
10770,note_on,0,45,--,64,0
10771,pitchwheel,0,--,1638,--,0
10772,note_off,0,45,--,64,320
10773,note_on,0,43,--,64,0
10774,pitchwheel,0,--,2866,--,0
10775,note_off,0,43,--,64,320
10776,note_on,0,38,--,64,0
10777,pitchwheel,0,--,2457,--,0
10778,note_off,0,38,--,64,160
10779,note_on,0,47,--,64,0
10780,pitchwheel,0,--,2047,--,0
10781,note_off,0,47,--,64,160
10782,note_on,0,38,--,64,0
10783,pitchwheel,0,--,1228,--,0
10784,note_off,0,38,--,64,640
10785,note_on,0,45,--,64,0
10786,pitchwheel,0,--,2047,--,0
10787,note_off,0,45,--,64,160
10788,note_on,0,47,--,64,0
10789,pitchwheel,0,--,3276,--,0
10790,note_off,0,47,--,64,160
10791,note_on,0,41,--,64,0
10792,note_off,0,41,--,64,320
10793,note_on,0,40,--,64,0
10794,pitchwheel,0,--,1638,--,0
10795,note_off,0,40,--,64,320
10796,note_on,0,43,--,64,0
10797,note_off,0,43,--,64,160
10798,note_on,0,38,--,64,0
10799,pitchwheel,0,--,3685,--,0
10800,note_off,0,38,--,64,160
10801,note_on,0,41,--,64,0
10802,note_off,0,41,--,64,320
10803,note_on,0,37,--,64,0
10804,note_off,0,37,--,64,320
10805,note_on,0,46,--,64,0
10806,note_off,0,46,--,64,160
10807,note_on,0,38,--,64,0
10808,note_off,0,38,--,64,480
10809,note_on,0,36,--,64,0
10810,pitchwheel,0,--,3276,--,0
10811,note_off,0,36,--,64,480
10812,note_on,0,38,--,64,0
10813,pitchwheel,0,--,2457,--,0
10814,note_off,0,38,--,64,160
10815,note_on,0,37,--,64,0
10816,note_off,0,37,--,64,320
10817,note_on,0,40,--,64,0
10818,pitchwheel,0,--,2457,--,0
10819,note_off,0,40,--,64,320
10820,note_on,0,39,--,64,0
10821,pitchwheel,0,--,819,--,0
10822,note_off,0,39,--,64,160
10823,note_on,0,43,--,64,0
10824,pitchwheel,0,--,409,--,0
10825,note_off,0,43,--,64,160
10826,note_on,0,45,--,64,0
10827,pitchwheel,0,--,3276,--,0
10828,note_off,0,45,--,64,320
10829,note_on,0,46,--,64,0
10830,pitchwheel,0,--,409,--,0
10831,note_off,0,46,--,64,320
10832,note_on,0,50,--,64,0
10833,pitchwheel,0,--,819,--,0
10834,note_off,0,50,--,64,160
10835,note_on,0,48,--,64,0
10836,pitchwheel,0,--,2047,--,0
10837,note_off,0,48,--,64,160
10838,note_on,0,51,--,64,0
10839,pitchwheel,0,--,819,--,0
10840,note_off,0,51,--,64,320
10841,note_on,0,48,--,64,0
10842,pitchwheel,0,--,819,--,0
10843,note_off,0,48,--,64,480
10844,note_on,0,50,--,64,0
10845,pitchwheel,0,--,819,--,0
10846,note_off,0,50,--,64,320
10847,note_on,0,47,--,64,0
10848,pitchwheel,0,--,2047,--,0
10849,note_off,0,47,--,64,640
10850,note_on,0,47,--,64,0
10851,pitchwheel,0,--,3276,--,0
10852,note_off,0,47,--,64,320
10853,note_on,0,46,--,64,0
10854,pitchwheel,0,--,409,--,0
10855,note_off,0,46,--,64,320
10856,note_on,0,46,--,64,0
10857,note_off,0,46,--,64,160
10858,note_on,0,50,--,64,0
10859,pitchwheel,0,--,819,--,0
10860,note_off,0,50,--,64,160
10861,note_on,0,45,--,64,0
10862,pitchwheel,0,--,2047,--,0
10863,note_off,0,45,--,64,320
10864,note_on,0,47,--,64,0
10865,pitchwheel,0,--,3685,--,0
10866,note_off,0,47,--,64,320
10867,note_on,0,47,--,64,0
10868,pitchwheel,0,--,3276,--,0
10869,note_off,0,47,--,64,160
10870,note_on,0,53,--,64,0
10871,note_off,0,53,--,64,160
10872,note_on,0,57,--,64,0
10873,pitchwheel,0,--,3276,--,0
10874,note_off,0,57,--,64,320
10875,note_on,0,57,--,64,0
10876,pitchwheel,0,--,2047,--,0
10877,note_off,0,57,--,64,320
10878,note_on,0,52,--,64,0
10879,pitchwheel,0,--,2457,--,0
10880,note_off,0,52,--,64,320
10881,note_on,0,48,--,64,0
10882,pitchwheel,0,--,2047,--,0
10883,note_off,0,48,--,64,320
10884,note_on,0,44,--,64,0
10885,note_off,0,44,--,64,320
10886,note_on,0,38,--,64,0
10887,pitchwheel,0,--,2457,--,0
10888,note_off,0,38,--,64,320
10889,note_on,0,45,--,64,0
10890,note_off,0,45,--,64,320
10891,note_on,0,45,--,64,0
10892,pitchwheel,0,--,1638,--,0
10893,note_off,0,45,--,64,320
10894,note_on,0,46,--,64,0
10895,pitchwheel,0,--,1638,--,0
10896,note_off,0,46,--,64,160
10897,note_on,0,47,--,64,0
10898,pitchwheel,0,--,3276,--,0
10899,note_off,0,47,--,64,160
10900,note_on,0,41,--,64,0
10901,note_off,0,41,--,64,320
10902,note_on,0,41,--,64,0
10903,pitchwheel,0,--,1228,--,0
10904,note_off,0,41,--,64,640
10905,note_on,0,40,--,64,0
10906,note_off,0,40,--,64,320
10907,note_on,0,38,--,64,0
10908,pitchwheel,0,--,2457,--,0
10909,note_off,0,38,--,64,480
10910,note_on,0,45,--,64,0
10911,pitchwheel,0,--,1638,--,0
10912,note_off,0,45,--,64,480
10913,note_on,0,45,--,64,0
10914,pitchwheel,0,--,2047,--,0
10915,note_off,0,45,--,64,320
10916,note_on,0,50,--,64,0
10917,pitchwheel,0,--,3685,--,0
10918,note_off,0,50,--,64,160
10919,note_on,0,45,--,64,0
10920,note_off,0,45,--,64,160
10921,note_on,0,46,--,64,0
10922,note_off,0,46,--,64,320
10923,note_on,0,43,--,64,0
10924,pitchwheel,0,--,409,--,0
10925,note_off,0,43,--,64,320
10926,note_on,0,46,--,64,0
10927,note_off,0,46,--,64,160
10928,note_on,0,45,--,64,0
10929,pitchwheel,0,--,1638,--,0
10930,note_off,0,45,--,64,480
10931,note_on,0,46,--,64,0
10932,pitchwheel,0,--,1638,--,0
10933,note_off,0,46,--,64,320
10934,note_on,0,43,--,64,0
10935,note_off,0,43,--,64,320
10936,note_on,0,43,--,64,0
10937,pitchwheel,0,--,2866,--,0
10938,note_off,0,43,--,64,320
10939,note_on,0,38,--,64,0
10940,pitchwheel,0,--,1228,--,0
10941,note_off,0,38,--,64,320
10942,note_on,0,38,--,64,0
10943,pitchwheel,0,--,2457,--,0
10944,note_off,0,38,--,64,160
10945,note_on,0,43,--,64,0
10946,pitchwheel,0,--,1638,--,0
10947,note_off,0,43,--,64,160
10948,note_on,0,47,--,64,0
10949,pitchwheel,0,--,3276,--,0
10950,note_off,0,47,--,64,320
10951,note_on,0,47,--,64,0
10952,pitchwheel,0,--,2457,--,0
10953,note_off,0,47,--,64,320
10954,note_on,0,45,--,64,0
10955,note_off,0,45,--,64,160
10956,note_on,0,48,--,64,0
10957,pitchwheel,0,--,2047,--,0
10958,note_off,0,48,--,64,160
10959,note_on,0,50,--,64,0
10960,pitchwheel,0,--,1228,--,0
10961,note_off,0,50,--,64,320
10962,note_on,0,52,--,64,0
10963,pitchwheel,0,--,2457,--,0
10964,note_off,0,52,--,64,320
10965,note_on,0,51,--,64,0
10966,pitchwheel,0,--,819,--,0
10967,note_off,0,51,--,64,160
10968,note_on,0,55,--,64,0
10969,note_off,0,55,--,64,480
10970,note_on,0,48,--,64,0
10971,pitchwheel,0,--,3276,--,0
10972,note_off,0,48,--,64,320
10973,note_on,0,57,--,64,0
10974,pitchwheel,0,--,2047,--,0
10975,note_off,0,57,--,64,160
10976,note_on,0,48,--,64,0
10977,pitchwheel,0,--,2047,--,0
10978,note_off,0,48,--,64,160
10979,note_on,0,56,--,64,0
10980,note_off,0,56,--,64,320
10981,note_on,0,59,--,64,0
10982,pitchwheel,0,--,3685,--,0
10983,note_off,0,59,--,64,320
10984,note_on,0,50,--,64,0
10985,note_off,0,50,--,64,160
10986,note_on,0,53,--,64,0
10987,note_off,0,53,--,64,160
10988,note_on,0,50,--,64,0
10989,pitchwheel,0,--,819,--,0
10990,note_off,0,50,--,64,320
10991,note_on,0,48,--,64,0
10992,pitchwheel,0,--,3276,--,0
10993,note_off,0,48,--,64,320
10994,note_on,0,43,--,64,0
10995,pitchwheel,0,--,409,--,0
10996,note_off,0,43,--,64,160
10997,note_on,0,38,--,64,0
10998,pitchwheel,0,--,3685,--,0
10999,note_off,0,38,--,64,160
11000,note_on,0,43,--,64,0
11001,note_off,0,43,--,64,320
11002,note_on,0,43,--,64,0
11003,pitchwheel,0,--,409,--,0
11004,note_off,0,43,--,64,320
11005,note_on,0,46,--,64,0
11006,pitchwheel,0,--,1638,--,0
11007,note_off,0,46,--,64,160
11008,note_on,0,40,--,64,0
11009,pitchwheel,0,--,2457,--,0
11010,note_off,0,40,--,64,160
11011,note_on,0,41,--,64,0
11012,note_off,0,41,--,64,320
11013,note_on,0,40,--,64,0
11014,pitchwheel,0,--,2866,--,0
11015,note_off,0,40,--,64,320
11016,note_on,0,47,--,64,0
11017,pitchwheel,0,--,3276,--,0
11018,note_off,0,47,--,64,160
11019,note_on,0,46,--,64,0
11020,pitchwheel,0,--,409,--,0
11021,note_off,0,46,--,64,160
11022,note_on,0,46,--,64,0
11023,pitchwheel,0,--,1638,--,0
11024,note_off,0,46,--,64,320
11025,note_on,0,45,--,64,0
11026,pitchwheel,0,--,3276,--,0
11027,note_off,0,45,--,64,640
11028,note_on,0,44,--,64,0
11029,pitchwheel,0,--,2047,--,0
11030,note_off,0,44,--,64,320
11031,note_on,0,40,--,64,0
11032,pitchwheel,0,--,1638,--,0
11033,note_off,0,40,--,64,160
11034,note_on,0,41,--,64,0
11035,note_off,0,41,--,64,480
11036,note_on,0,40,--,64,0
11037,pitchwheel,0,--,1638,--,0
11038,note_off,0,40,--,64,320
11039,note_on,0,44,--,64,0
11040,note_off,0,44,--,64,160
11041,note_on,0,38,--,64,0
11042,pitchwheel,0,--,819,--,0
11043,note_off,0,38,--,64,160
11044,note_on,0,41,--,64,0
11045,note_off,0,41,--,64,320
11046,note_on,0,44,--,64,0
11047,note_off,0,44,--,64,480
11048,note_on,0,40,--,64,0
11049,pitchwheel,0,--,1638,--,0
11050,note_off,0,40,--,64,160
11051,note_on,0,44,--,64,0
11052,note_off,0,44,--,64,320
11053,note_on,0,46,--,64,0
11054,note_off,0,46,--,64,320
11055,note_on,0,40,--,64,0
11056,note_off,0,40,--,64,320
11057,note_on,0,43,--,64,0
11058,note_off,0,43,--,64,320
11059,note_on,0,44,--,64,0
11060,note_off,0,44,--,64,320
11061,note_on,0,41,--,64,0
11062,pitchwheel,0,--,1228,--,0
11063,note_off,0,41,--,64,320
11064,note_on,0,41,--,64,0
11065,note_off,0,41,--,64,640
11066,note_on,0,39,--,64,0
11067,pitchwheel,0,--,819,--,0
11068,note_off,0,39,--,64,160
11069,note_on,0,47,--,64,0
11070,pitchwheel,0,--,3276,--,0
11071,note_off,0,47,--,64,160
11072,note_on,0,45,--,64,0
11073,note_off,0,45,--,64,320
11074,note_on,0,46,--,64,0
11075,pitchwheel,0,--,1638,--,0
11076,note_off,0,46,--,64,320
11077,note_on,0,40,--,64,0
11078,pitchwheel,0,--,2457,--,0
11079,note_off,0,40,--,64,160
11080,note_on,0,36,--,64,0
11081,pitchwheel,0,--,2047,--,0
11082,note_off,0,36,--,64,160
11083,note_on,0,39,--,64,0
11084,pitchwheel,0,--,819,--,0
11085,note_off,0,39,--,64,320
11086,note_on,0,36,--,64,0
11087,pitchwheel,0,--,819,--,0
11088,note_off,0,36,--,64,320
11089,note_on,0,38,--,64,0
11090,pitchwheel,0,--,2457,--,0
11091,note_off,0,38,--,64,160
11092,note_on,0,45,--,64,0
11093,pitchwheel,0,--,1638,--,0
11094,note_off,0,45,--,64,160
11095,note_on,0,45,--,64,0
11096,pitchwheel,0,--,2047,--,0
11097,note_off,0,45,--,64,320
11098,note_on,0,46,--,64,0
11099,pitchwheel,0,--,1638,--,0
11100,note_off,0,46,--,64,320
11101,note_on,0,44,--,64,0
11102,pitchwheel,0,--,2047,--,0
11103,note_off,0,44,--,64,160
11104,note_on,0,45,--,64,0
11105,note_off,0,45,--,64,160
11106,note_on,0,36,--,64,0
11107,pitchwheel,0,--,819,--,0
11108,note_off,0,36,--,64,320
11109,note_on,0,38,--,64,0
11110,pitchwheel,0,--,819,--,0
11111,note_off,0,38,--,64,320
11112,note_on,0,39,--,64,0
11113,pitchwheel,0,--,819,--,0
11114,note_off,0,39,--,64,160
11115,note_on,0,45,--,64,0
11116,pitchwheel,0,--,1638,--,0
11117,note_off,0,45,--,64,160
11118,note_on,0,36,--,64,0
11119,pitchwheel,0,--,2047,--,0
11120,note_off,0,36,--,64,320
11121,note_on,0,44,--,64,0
11122,note_off,0,44,--,64,320
11123,note_on,0,47,--,64,0
11124,pitchwheel,0,--,3685,--,0
11125,note_off,0,47,--,64,320
11126,note_on,0,46,--,64,0
11127,pitchwheel,0,--,1638,--,0
11128,note_off,0,46,--,64,320
11129,note_on,0,43,--,64,0
11130,note_off,0,43,--,64,320
11131,note_on,0,45,--,64,0
11132,note_off,0,45,--,64,160
11133,note_on,0,46,--,64,0
11134,pitchwheel,0,--,409,--,0
11135,note_off,0,46,--,64,160
11136,note_on,0,47,--,64,0
11137,pitchwheel,0,--,3276,--,0
11138,note_off,0,47,--,64,320
11139,note_on,0,38,--,64,0
11140,pitchwheel,0,--,3685,--,0
11141,note_off,0,38,--,64,320
11142,note_on,0,46,--,64,0
11143,pitchwheel,0,--,409,--,0
11144,note_off,0,46,--,64,160
11145,note_on,0,47,--,64,0
11146,pitchwheel,0,--,2047,--,0
11147,note_off,0,47,--,64,160
11148,note_on,0,45,--,64,0
11149,pitchwheel,0,--,3276,--,0
11150,note_off,0,45,--,64,320
11151,note_on,0,41,--,64,0
11152,pitchwheel,0,--,1228,--,0
11153,note_off,0,41,--,64,320
11154,note_on,0,45,--,64,0
11155,pitchwheel,0,--,1638,--,0
11156,note_off,0,45,--,64,160
11157,note_on,0,43,--,64,0
11158,note_off,0,43,--,64,160
11159,note_on,0,41,--,64,0
11160,note_off,0,41,--,64,640
11161,note_on,0,38,--,64,0
11162,pitchwheel,0,--,819,--,0
11163,note_off,0,38,--,64,160
11164,note_on,0,43,--,64,0
11165,pitchwheel,0,--,2866,--,0
11166,note_off,0,43,--,64,160
11167,note_on,0,36,--,64,0
11168,pitchwheel,0,--,2047,--,0
11169,note_off,0,36,--,64,320
11170,note_on,0,46,--,64,0
11171,note_off,0,46,--,64,320
11172,note_on,0,47,--,64,0
11173,pitchwheel,0,--,2457,--,0
11174,note_off,0,47,--,64,160
11175,note_on,0,36,--,64,0
11176,pitchwheel,0,--,2047,--,0
11177,note_off,0,36,--,64,480
11178,note_on,0,45,--,64,0
11179,pitchwheel,0,--,2047,--,0
11180,note_off,0,45,--,64,480
11181,note_on,0,38,--,64,0
11182,pitchwheel,0,--,2457,--,0
11183,note_off,0,38,--,64,160
11184,note_on,0,40,--,64,0
11185,note_off,0,40,--,64,320
11186,note_on,0,45,--,64,0
11187,note_off,0,45,--,64,320
11188,note_on,0,50,--,64,0
11189,pitchwheel,0,--,2457,--,0
11190,note_off,0,50,--,64,160
11191,note_on,0,52,--,64,0
11192,pitchwheel,0,--,2457,--,0
11193,note_off,0,52,--,64,160
11194,note_on,0,50,--,64,0
11195,pitchwheel,0,--,1228,--,0
11196,note_off,0,50,--,64,320
11197,note_on,0,50,--,64,0
11198,pitchwheel,0,--,2457,--,0
11199,note_off,0,50,--,64,320
11200,note_on,0,45,--,64,0
11201,pitchwheel,0,--,1638,--,0
11202,note_off,0,45,--,64,160
11203,note_on,0,41,--,64,0
11204,pitchwheel,0,--,1228,--,0
11205,note_off,0,41,--,64,160
11206,note_on,0,45,--,64,0
11207,pitchwheel,0,--,2047,--,0
11208,note_off,0,45,--,64,320
11209,note_on,0,45,--,64,0
11210,note_off,0,45,--,64,320
11211,note_on,0,43,--,64,0
11212,pitchwheel,0,--,1638,--,0
11213,note_off,0,43,--,64,320
11214,note_on,0,45,--,64,0
11215,pitchwheel,0,--,1638,--,0
11216,note_off,0,45,--,64,320
11217,note_on,0,46,--,64,0
11218,note_off,0,46,--,64,480
11219,note_on,0,50,--,64,0
11220,pitchwheel,0,--,2457,--,0
11221,note_off,0,50,--,64,160
11222,note_on,0,50,--,64,0
11223,note_off,0,50,--,64,320
11224,note_on,0,47,--,64,0
11225,pitchwheel,0,--,2457,--,0
11226,note_off,0,47,--,64,320
11227,note_on,0,48,--,64,0
11228,pitchwheel,0,--,3276,--,0
11229,note_off,0,48,--,64,160
11230,note_on,0,45,--,64,0
11231,pitchwheel,0,--,1638,--,0
11232,note_off,0,45,--,64,160
11233,note_on,0,43,--,64,0
11234,pitchwheel,0,--,2866,--,0
11235,note_off,0,43,--,64,320
11236,note_on,0,47,--,64,0
11237,pitchwheel,0,--,3276,--,0
11238,note_off,0,47,--,64,320
11239,note_on,0,43,--,64,0
11240,note_off,0,43,--,64,320
11241,note_on,0,46,--,64,0
11242,pitchwheel,0,--,1638,--,0
11243,note_off,0,46,--,64,320
11244,note_on,0,46,--,64,0
11245,note_off,0,46,--,64,320
11246,note_on,0,43,--,64,0
11247,note_off,0,43,--,64,320
11248,note_on,0,38,--,64,0
11249,note_off,0,38,--,64,320
11250,note_on,0,36,--,64,0
11251,pitchwheel,0,--,819,--,0
11252,note_off,0,36,--,64,320
11253,note_on,0,38,--,64,0
11254,pitchwheel,0,--,2457,--,0
11255,note_off,0,38,--,64,320
11256,note_on,0,41,--,64,0
11257,note_off,0,41,--,64,320
11258,note_on,0,40,--,64,0
11259,pitchwheel,0,--,2457,--,0
11260,note_off,0,40,--,64,320
11261,note_on,0,40,--,64,0
11262,pitchwheel,0,--,2866,--,0
11263,note_off,0,40,--,64,160
11264,note_on,0,47,--,64,0
11265,pitchwheel,0,--,3276,--,0
11266,note_off,0,47,--,64,160
11267,note_on,0,45,--,64,0
11268,pitchwheel,0,--,2047,--,0
11269,note_off,0,45,--,64,320
11270,note_on,0,45,--,64,0
11271,pitchwheel,0,--,3276,--,0
11272,note_off,0,45,--,64,480
11273,note_on,0,41,--,64,0
11274,note_off,0,41,--,64,160
11275,note_on,0,46,--,64,0
11276,pitchwheel,0,--,1638,--,0
11277,note_off,0,46,--,64,320
11278,note_on,0,41,--,64,0
11279,pitchwheel,0,--,1228,--,0
11280,note_off,0,41,--,64,480
11281,note_on,0,47,--,64,0
11282,pitchwheel,0,--,3276,--,0
11283,note_off,0,47,--,64,160
11284,note_on,0,43,--,64,0
11285,note_off,0,43,--,64,320
11286,note_on,0,38,--,64,0
11287,pitchwheel,0,--,2457,--,0
11288,note_off,0,38,--,64,320
11289,note_on,0,45,--,64,0
11290,note_off,0,45,--,64,320
11291,note_on,0,46,--,64,0
11292,note_off,0,46,--,64,320
11293,note_on,0,36,--,64,0
11294,pitchwheel,0,--,2047,--,0
11295,note_off,0,36,--,64,320
11296,note_on,0,43,--,64,0
11297,pitchwheel,0,--,409,--,0
11298,note_off,0,43,--,64,160
11299,note_on,0,38,--,64,0
11300,pitchwheel,0,--,819,--,0
11301,note_off,0,38,--,64,480
11302,note_on,0,36,--,64,0
11303,pitchwheel,0,--,3276,--,0
11304,note_off,0,36,--,64,320
11305,note_on,0,40,--,64,0
11306,pitchwheel,0,--,2457,--,0
11307,note_off,0,40,--,64,320
11308,note_on,0,41,--,64,0
11309,pitchwheel,0,--,2457,--,0
11310,note_off,0,41,--,64,320
11311,note_on,0,38,--,64,0
11312,pitchwheel,0,--,1228,--,0
11313,note_off,0,38,--,64,320
11314,note_on,0,38,--,64,0
11315,pitchwheel,0,--,2457,--,0
11316,note_off,0,38,--,64,160
11317,note_on,0,45,--,64,0
11318,pitchwheel,0,--,2047,--,0
11319,note_off,0,45,--,64,160
11320,note_on,0,43,--,64,0
11321,note_off,0,43,--,64,320
11322,note_on,0,43,--,64,0
11323,pitchwheel,0,--,409,--,0
11324,note_off,0,43,--,64,320
11325,note_on,0,45,--,64,0
11326,note_off,0,45,--,64,320
11327,note_on,0,38,--,64,0
11328,pitchwheel,0,--,819,--,0
11329,note_off,0,38,--,64,320
11330,note_on,0,47,--,64,0
11331,pitchwheel,0,--,2047,--,0
11332,note_off,0,47,--,64,160
11333,note_on,0,40,--,64,0
11334,pitchwheel,0,--,2457,--,0
11335,note_off,0,40,--,64,480
11336,note_on,0,46,--,64,0
11337,pitchwheel,0,--,1638,--,0
11338,note_off,0,46,--,64,320
11339,note_on,0,47,--,64,0
11340,pitchwheel,0,--,2457,--,0
11341,note_off,0,47,--,64,160
11342,note_on,0,45,--,64,0
11343,pitchwheel,0,--,3276,--,0
11344,note_off,0,45,--,64,160
11345,note_on,0,46,--,64,0
11346,note_off,0,46,--,64,320
11347,note_on,0,49,--,64,0
11348,note_off,0,49,--,64,320
11349,note_on,0,48,--,64,0
11350,pitchwheel,0,--,819,--,0
11351,note_off,0,48,--,64,160
11352,note_on,0,43,--,64,0
11353,pitchwheel,0,--,409,--,0
11354,note_off,0,43,--,64,160
11355,note_on,0,47,--,64,0
11356,pitchwheel,0,--,3276,--,0
11357,note_off,0,47,--,64,320
11358,note_on,0,47,--,64,0
11359,pitchwheel,0,--,3685,--,0
11360,note_off,0,47,--,64,320
11361,note_on,0,43,--,64,0
11362,pitchwheel,0,--,409,--,0
11363,note_off,0,43,--,64,160
11364,note_on,0,41,--,64,0
11365,note_off,0,41,--,64,160
11366,note_on,0,43,--,64,0
11367,note_off,0,43,--,64,320
11368,note_on,0,46,--,64,0
11369,pitchwheel,0,--,409,--,0
11370,note_off,0,46,--,64,480
11371,note_on,0,43,--,64,0
11372,note_off,0,43,--,64,160
11373,note_on,0,38,--,64,0
11374,pitchwheel,0,--,2457,--,0
11375,note_off,0,38,--,64,320
11376,note_on,0,44,--,64,0
11377,note_off,0,44,--,64,320
11378,note_on,0,45,--,64,0
11379,pitchwheel,0,--,1638,--,0
11380,note_off,0,45,--,64,160
11381,note_on,0,48,--,64,0
11382,pitchwheel,0,--,819,--,0
11383,note_off,0,48,--,64,160
11384,note_on,0,48,--,64,0
11385,pitchwheel,0,--,3276,--,0
11386,note_off,0,48,--,64,320
11387,note_on,0,45,--,64,0
11388,pitchwheel,0,--,2047,--,0
11389,note_off,0,45,--,64,320
11390,note_on,0,45,--,64,0
11391,pitchwheel,0,--,3276,--,0
11392,note_off,0,45,--,64,320
11393,note_on,0,44,--,64,0
11394,pitchwheel,0,--,2047,--,0
11395,note_off,0,44,--,64,320
11396,note_on,0,48,--,64,0
11397,pitchwheel,0,--,2047,--,0
11398,note_off,0,48,--,64,160
11399,note_on,0,52,--,64,0
11400,pitchwheel,0,--,1638,--,0
11401,note_off,0,52,--,64,480
11402,note_on,0,53,--,64,0
11403,note_off,0,53,--,64,320
11404,note_on,0,50,--,64,0
11405,pitchwheel,0,--,819,--,0
11406,note_off,0,50,--,64,160
11407,note_on,0,52,--,64,0
11408,pitchwheel,0,--,2457,--,0
11409,note_off,0,52,--,64,160
11410,note_on,0,47,--,64,0
11411,pitchwheel,0,--,2047,--,0
11412,note_off,0,47,--,64,320
11413,note_on,0,47,--,64,0
11414,pitchwheel,0,--,2457,--,0
11415,note_off,0,47,--,64,480
11416,note_on,0,45,--,64,0
11417,note_off,0,45,--,64,160
11418,note_on,0,47,--,64,0
11419,pitchwheel,0,--,3685,--,0
11420,note_off,0,47,--,64,320
11421,note_on,0,46,--,64,0
11422,note_off,0,46,--,64,320
11423,note_on,0,47,--,64,0
11424,pitchwheel,0,--,2047,--,0
11425,note_off,0,47,--,64,320
11426,note_on,0,50,--,64,0
11427,pitchwheel,0,--,819,--,0
11428,note_off,0,50,--,64,320
11429,note_on,0,51,--,64,0
11430,pitchwheel,0,--,819,--,0
11431,note_off,0,51,--,64,320
11432,note_on,0,48,--,64,0
11433,pitchwheel,0,--,819,--,0
11434,note_off,0,48,--,64,320
11435,note_on,0,48,--,64,0
11436,pitchwheel,0,--,2047,--,0
11437,note_off,0,48,--,64,320
11438,note_on,0,52,--,64,0
11439,pitchwheel,0,--,2457,--,0
11440,note_off,0,52,--,64,320
11441,note_on,0,50,--,64,0
11442,pitchwheel,0,--,819,--,0
11443,note_off,0,50,--,64,160
11444,note_on,0,55,--,64,0
11445,note_off,0,55,--,64,160
11446,note_on,0,57,--,64,0
11447,note_off,0,57,--,64,320
11448,note_on,0,55,--,64,0
11449,pitchwheel,0,--,1638,--,0
11450,note_off,0,55,--,64,320
11451,note_on,0,59,--,64,0
11452,pitchwheel,0,--,3276,--,0
11453,note_off,0,59,--,64,160
11454,note_on,0,57,--,64,0
11455,pitchwheel,0,--,3276,--,0
11456,note_off,0,57,--,64,160
11457,note_on,0,58,--,64,0
11458,pitchwheel,0,--,1638,--,0
11459,note_off,0,58,--,64,320
11460,note_on,0,57,--,64,0
11461,pitchwheel,0,--,2047,--,0
11462,note_off,0,57,--,64,320
11463,note_on,0,50,--,64,0
11464,note_off,0,50,--,64,160
11465,note_on,0,50,--,64,0
11466,pitchwheel,0,--,819,--,0
11467,note_off,0,50,--,64,160
11468,note_on,0,55,--,64,0
11469,pitchwheel,0,--,1638,--,0
11470,note_off,0,55,--,64,320
11471,note_on,0,58,--,64,0
11472,pitchwheel,0,--,1638,--,0
11473,note_off,0,58,--,64,320
11474,note_on,0,50,--,64,0
11475,pitchwheel,0,--,3685,--,0
11476,note_off,0,50,--,64,160
11477,note_on,0,57,--,64,0
11478,note_off,0,57,--,64,160
11479,note_on,0,50,--,64,0
11480,pitchwheel,0,--,2457,--,0
11481,note_off,0,50,--,64,320
11482,note_on,0,57,--,64,0
11483,pitchwheel,0,--,1638,--,0
11484,note_off,0,57,--,64,320
11485,note_on,0,57,--,64,0
11486,note_off,0,57,--,64,160
11487,note_on,0,57,--,64,0
11488,pitchwheel,0,--,1638,--,0
11489,note_off,0,57,--,64,160
11490,note_on,0,53,--,64,0
11491,note_off,0,53,--,64,320
11492,note_on,0,47,--,64,0
11493,pitchwheel,0,--,3276,--,0
11494,note_off,0,47,--,64,320
11495,note_on,0,53,--,64,0
11496,note_off,0,53,--,64,320
11497,note_on,0,56,--,64,0
11498,note_off,0,56,--,64,320
11499,note_on,0,50,--,64,0
11500,pitchwheel,0,--,3685,--,0
11501,note_off,0,50,--,64,320
11502,note_on,0,53,--,64,0
11503,note_off,0,53,--,64,160
11504,note_on,0,57,--,64,0
11505,pitchwheel,0,--,2047,--,0
11506,note_off,0,57,--,64,160
11507,note_on,0,55,--,64,0
11508,note_off,0,55,--,64,320
11509,note_on,0,58,--,64,0
11510,pitchwheel,0,--,1638,--,0
11511,note_off,0,58,--,64,320
11512,note_on,0,55,--,64,0
11513,pitchwheel,0,--,1638,--,0
11514,note_off,0,55,--,64,160
11515,note_on,0,56,--,64,0
11516,pitchwheel,0,--,2047,--,0
11517,note_off,0,56,--,64,160
11518,note_on,0,55,--,64,0
11519,pitchwheel,0,--,2866,--,0
11520,note_off,0,55,--,64,320
11521,note_on,0,50,--,64,0
11522,pitchwheel,0,--,1228,--,0
11523,note_off,0,50,--,64,320
11524,note_on,0,45,--,64,0
11525,pitchwheel,0,--,2047,--,0
11526,note_off,0,45,--,64,160
11527,note_on,0,47,--,64,0
11528,pitchwheel,0,--,3276,--,0
11529,note_off,0,47,--,64,160
11530,note_on,0,53,--,64,0
11531,note_off,0,53,--,64,320
11532,note_on,0,48,--,64,0
11533,pitchwheel,0,--,2047,--,0
11534,note_off,0,48,--,64,320
11535,note_on,0,50,--,64,0
11536,pitchwheel,0,--,819,--,0
11537,note_off,0,50,--,64,160
11538,note_on,0,53,--,64,0
11539,note_off,0,53,--,64,160
11540,note_on,0,56,--,64,0
11541,note_off,0,56,--,64,320
11542,note_on,0,50,--,64,0
11543,pitchwheel,0,--,2457,--,0
11544,note_off,0,50,--,64,320
11545,note_on,0,47,--,64,0
11546,pitchwheel,0,--,3276,--,0
11547,note_off,0,47,--,64,160
11548,note_on,0,47,--,64,0
11549,pitchwheel,0,--,3685,--,0
11550,note_off,0,47,--,64,480
11551,note_on,0,45,--,64,0
11552,pitchwheel,0,--,2047,--,0
11553,note_off,0,45,--,64,480
11554,note_on,0,50,--,64,0
11555,note_off,0,50,--,64,160
11556,note_on,0,45,--,64,0
11557,note_off,0,45,--,64,320
11558,note_on,0,40,--,64,0
11559,pitchwheel,0,--,2457,--,0
11560,note_off,0,40,--,64,320
11561,note_on,0,41,--,64,0
11562,pitchwheel,0,--,2457,--,0
11563,note_off,0,41,--,64,160
11564,note_on,0,45,--,64,0
11565,pitchwheel,0,--,2047,--,0
11566,note_off,0,45,--,64,160
11567,note_on,0,41,--,64,0
11568,note_off,0,41,--,64,320
11569,note_on,0,40,--,64,0
11570,pitchwheel,0,--,2866,--,0
11571,note_off,0,40,--,64,320
11572,note_on,0,38,--,64,0
11573,pitchwheel,0,--,819,--,0
11574,note_off,0,38,--,64,160
11575,note_on,0,38,--,64,0
11576,pitchwheel,0,--,2457,--,0
11577,note_off,0,38,--,64,160
11578,note_on,0,47,--,64,0
11579,pitchwheel,0,--,3685,--,0
11580,note_off,0,47,--,64,320
11581,note_on,0,38,--,64,0
11582,pitchwheel,0,--,1228,--,0
11583,note_off,0,38,--,64,480
11584,note_on,0,43,--,64,0
11585,note_off,0,43,--,64,320
11586,note_on,0,38,--,64,0
11587,pitchwheel,0,--,819,--,0
11588,note_off,0,38,--,64,480
11589,note_on,0,41,--,64,0
11590,note_off,0,41,--,64,160
11591,note_on,0,38,--,64,0
11592,pitchwheel,0,--,819,--,0
11593,note_off,0,38,--,64,320
11594,note_on,0,46,--,64,0
11595,pitchwheel,0,--,409,--,0
11596,note_off,0,46,--,64,320
11597,note_on,0,38,--,64,0
11598,pitchwheel,0,--,3685,--,0
11599,note_off,0,38,--,64,160
11600,note_on,0,47,--,64,0
11601,pitchwheel,0,--,3276,--,0
11602,note_off,0,47,--,64,160
11603,note_on,0,36,--,64,0
11604,pitchwheel,0,--,2047,--,0
11605,note_off,0,36,--,64,320
11606,note_on,0,45,--,64,0
11607,pitchwheel,0,--,3276,--,0
11608,note_off,0,45,--,64,320
11609,note_on,0,45,--,64,0
11610,pitchwheel,0,--,1638,--,0
11611,note_off,0,45,--,64,160
11612,note_on,0,44,--,64,0
11613,pitchwheel,0,--,2047,--,0
11614,note_off,0,44,--,64,160
11615,note_on,0,45,--,64,0
11616,pitchwheel,0,--,2047,--,0
11617,note_off,0,45,--,64,320
11618,note_on,0,46,--,64,0
11619,note_off,0,46,--,64,640
11620,note_on,0,36,--,64,0
11621,pitchwheel,0,--,2047,--,0
11622,note_off,0,36,--,64,320
11623,note_on,0,45,--,64,0
11624,pitchwheel,0,--,2047,--,0
11625,note_off,0,45,--,64,320
11626,note_on,0,38,--,64,0
11627,pitchwheel,0,--,2457,--,0
11628,note_off,0,38,--,64,320
11629,note_on,0,45,--,64,0
11630,note_off,0,45,--,64,320
11631,note_on,0,44,--,64,0
11632,pitchwheel,0,--,2047,--,0
11633,note_off,0,44,--,64,320
11634,note_on,0,46,--,64,0
11635,pitchwheel,0,--,1638,--,0
11636,note_off,0,46,--,64,160
11637,note_on,0,45,--,64,0
11638,pitchwheel,0,--,1638,--,0
11639,note_off,0,45,--,64,160
11640,note_on,0,45,--,64,0
11641,pitchwheel,0,--,3276,--,0
11642,note_off,0,45,--,64,320
11643,note_on,0,45,--,64,0
11644,pitchwheel,0,--,2047,--,0
11645,note_off,0,45,--,64,480
11646,note_on,0,45,--,64,0
11647,pitchwheel,0,--,3276,--,0
11648,note_off,0,45,--,64,160
11649,note_on,0,44,--,64,0
11650,note_off,0,44,--,64,320
11651,note_on,0,46,--,64,0
11652,pitchwheel,0,--,409,--,0
11653,note_off,0,46,--,64,480
11654,note_on,0,40,--,64,0
11655,pitchwheel,0,--,2457,--,0
11656,note_off,0,40,--,64,160
11657,note_on,0,38,--,64,0
11658,pitchwheel,0,--,819,--,0
11659,note_off,0,38,--,64,320
11660,note_on,0,36,--,64,0
11661,pitchwheel,0,--,2047,--,0
11662,note_off,0,36,--,64,320
11663,note_on,0,38,--,64,0
11664,pitchwheel,0,--,2457,--,0
11665,note_off,0,38,--,64,160
11666,note_on,0,45,--,64,0
11667,note_off,0,45,--,64,160
11668,note_on,0,46,--,64,0
11669,note_off,0,46,--,64,320
11670,note_on,0,43,--,64,0
11671,pitchwheel,0,--,409,--,0
11672,note_off,0,43,--,64,320
11673,note_on,0,44,--,64,0
11674,note_off,0,44,--,64,160
11675,note_on,0,43,--,64,0
11676,note_off,0,43,--,64,480
11677,note_on,0,47,--,64,0
11678,pitchwheel,0,--,2047,--,0
11679,note_off,0,47,--,64,320
11680,note_on,0,40,--,64,0
11681,pitchwheel,0,--,2457,--,0
11682,note_off,0,40,--,64,320
11683,note_on,0,46,--,64,0
11684,pitchwheel,0,--,1638,--,0
11685,note_off,0,46,--,64,320
11686,note_on,0,48,--,64,0
11687,pitchwheel,0,--,819,--,0
11688,note_off,0,48,--,64,320
11689,note_on,0,47,--,64,0
11690,pitchwheel,0,--,3685,--,0
11691,note_off,0,47,--,64,160
11692,note_on,0,47,--,64,0
11693,pitchwheel,0,--,2457,--,0
11694,note_off,0,47,--,64,160
11695,note_on,0,47,--,64,0
11696,pitchwheel,0,--,3276,--,0
11697,note_off,0,47,--,64,320
11698,note_on,0,47,--,64,0
11699,pitchwheel,0,--,3685,--,0
11700,note_off,0,47,--,64,320
11701,note_on,0,45,--,64,0
11702,note_off,0,45,--,64,160
11703,note_on,0,50,--,64,0
11704,pitchwheel,0,--,1228,--,0
11705,note_off,0,50,--,64,160
11706,note_on,0,53,--,64,0
11707,note_off,0,53,--,64,320
11708,note_on,0,55,--,64,0
11709,note_off,0,55,--,64,320
11710,note_on,0,55,--,64,0
11711,pitchwheel,0,--,1638,--,0
11712,note_off,0,55,--,64,160
11713,note_on,0,52,--,64,0
11714,pitchwheel,0,--,2457,--,0
11715,note_off,0,52,--,64,480
11716,note_on,0,56,--,64,0
11717,note_off,0,56,--,64,480
11718,note_on,0,50,--,64,0
11719,pitchwheel,0,--,2457,--,0
11720,note_off,0,50,--,64,160
11721,note_on,0,46,--,64,0
11722,pitchwheel,0,--,1638,--,0
11723,note_off,0,46,--,64,320
11724,note_on,0,44,--,64,0
11725,pitchwheel,0,--,2047,--,0
11726,note_off,0,44,--,64,320
11727,note_on,0,38,--,64,0
11728,pitchwheel,0,--,3685,--,0
11729,note_off,0,38,--,64,160
11730,note_on,0,38,--,64,0
11731,note_off,0,38,--,64,160
11732,note_on,0,45,--,64,0
11733,pitchwheel,0,--,1638,--,0
11734,note_off,0,45,--,64,320
11735,note_on,0,40,--,64,0
11736,pitchwheel,0,--,2866,--,0
11737,note_off,0,40,--,64,320
11738,note_on,0,43,--,64,0
11739,pitchwheel,0,--,1638,--,0
11740,note_off,0,43,--,64,160
11741,note_on,0,38,--,64,0
11742,pitchwheel,0,--,2457,--,0
11743,note_off,0,38,--,64,480
11744,note_on,0,43,--,64,0
11745,pitchwheel,0,--,409,--,0
11746,note_off,0,43,--,64,320
11747,note_on,0,36,--,64,0
11748,pitchwheel,0,--,819,--,0
11749,note_off,0,36,--,64,160
11750,note_on,0,47,--,64,0
11751,pitchwheel,0,--,3685,--,0
11752,note_off,0,47,--,64,160
11753,note_on,0,41,--,64,0
11754,note_off,0,41,--,64,320
11755,note_on,0,38,--,64,0
11756,pitchwheel,0,--,2457,--,0
11757,note_off,0,38,--,64,320
11758,note_on,0,47,--,64,0
11759,pitchwheel,0,--,3276,--,0
11760,note_off,0,47,--,64,160
11761,note_on,0,41,--,64,0
11762,note_off,0,41,--,64,160
11763,note_on,0,38,--,64,0
11764,pitchwheel,0,--,1228,--,0
11765,note_off,0,38,--,64,320
11766,note_on,0,41,--,64,0
11767,note_off,0,41,--,64,320
11768,note_on,0,40,--,64,0
11769,pitchwheel,0,--,2866,--,0
11770,note_off,0,40,--,64,320
11771,note_on,0,38,--,64,0
11772,note_off,0,38,--,64,320
11773,note_on,0,40,--,64,0
11774,pitchwheel,0,--,1638,--,0
11775,note_off,0,40,--,64,160
11776,note_on,0,41,--,64,0
11777,note_off,0,41,--,64,480
11778,note_on,0,43,--,64,0
11779,note_off,0,43,--,64,320
11780,note_on,0,40,--,64,0
11781,pitchwheel,0,--,1638,--,0
11782,note_off,0,40,--,64,160
11783,note_on,0,43,--,64,0
11784,note_off,0,43,--,64,480
11785,note_on,0,44,--,64,0
11786,note_off,0,44,--,64,480
11787,note_on,0,38,--,64,0
11788,note_off,0,38,--,64,160
11789,note_on,0,36,--,64,0
11790,pitchwheel,0,--,3276,--,0
11791,note_off,0,36,--,64,320
11792,note_on,0,46,--,64,0
11793,note_off,0,46,--,64,320
11794,note_on,0,37,--,64,0
11795,note_off,0,37,--,64,320
11796,note_on,0,45,--,64,0
11797,pitchwheel,0,--,1638,--,0
11798,note_off,0,45,--,64,320
11799,note_on,0,43,--,64,0
11800,pitchwheel,0,--,409,--,0
11801,note_off,0,43,--,64,320
11802,note_on,0,36,--,64,0
11803,pitchwheel,0,--,819,--,0
11804,note_off,0,36,--,64,320
11805,note_on,0,36,--,64,0
11806,pitchwheel,0,--,2047,--,0
11807,note_off,0,36,--,64,320
11808,note_on,0,38,--,64,0
11809,pitchwheel,0,--,819,--,0
11810,note_off,0,38,--,64,320
11811,note_on,0,44,--,64,0
11812,note_off,0,44,--,64,160
11813,note_on,0,45,--,64,0
11814,pitchwheel,0,--,1638,--,0
11815,note_off,0,45,--,64,160
11816,note_on,0,45,--,64,0
11817,note_off,0,45,--,64,320
11818,note_on,0,46,--,64,0
11819,note_off,0,46,--,64,320
11820,note_on,0,47,--,64,0
11821,pitchwheel,0,--,3276,--,0
11822,note_off,0,47,--,64,160
11823,note_on,0,45,--,64,0
11824,pitchwheel,0,--,3276,--,0
11825,note_off,0,45,--,64,160
11826,note_on,0,48,--,64,0
11827,pitchwheel,0,--,3276,--,0
11828,note_off,0,48,--,64,320
11829,note_on,0,46,--,64,0
11830,pitchwheel,0,--,409,--,0
11831,note_off,0,46,--,64,320
11832,note_on,0,50,--,64,0
11833,pitchwheel,0,--,3685,--,0
11834,note_off,0,50,--,64,160
11835,note_on,0,55,--,64,0
11836,note_off,0,55,--,64,160
11837,note_on,0,57,--,64,0
11838,pitchwheel,0,--,2047,--,0
11839,note_off,0,57,--,64,320
11840,note_on,0,58,--,64,0
11841,note_off,0,58,--,64,320
11842,note_on,0,55,--,64,0
11843,pitchwheel,0,--,2866,--,0
11844,note_off,0,55,--,64,160
11845,note_on,0,57,--,64,0
11846,note_off,0,57,--,64,160
11847,note_on,0,57,--,64,0
11848,pitchwheel,0,--,3276,--,0
11849,note_off,0,57,--,64,320
11850,note_on,0,50,--,64,0
11851,pitchwheel,0,--,819,--,0
11852,note_off,0,50,--,64,320
11853,note_on,0,58,--,64,0
11854,pitchwheel,0,--,1638,--,0
11855,note_off,0,58,--,64,160
11856,note_on,0,59,--,64,0
11857,pitchwheel,0,--,3276,--,0
11858,note_off,0,59,--,64,160
11859,note_on,0,53,--,64,0
11860,note_off,0,53,--,64,320
11861,note_on,0,55,--,64,0
11862,pitchwheel,0,--,1638,--,0
11863,note_off,0,55,--,64,320
11864,note_on,0,59,--,64,0
11865,pitchwheel,0,--,3685,--,0
11866,note_off,0,59,--,64,320
11867,note_on,0,51,--,64,0
11868,pitchwheel,0,--,819,--,0
11869,note_off,0,51,--,64,320
11870,note_on,0,50,--,64,0
11871,note_off,0,50,--,64,320
11872,note_on,0,57,--,64,0
11873,note_off,0,57,--,64,160
11874,note_on,0,59,--,64,0
11875,pitchwheel,0,--,2457,--,0
11876,note_off,0,59,--,64,160
11877,note_on,0,52,--,64,0
11878,pitchwheel,0,--,2457,--,0
11879,note_off,0,52,--,64,320
11880,note_on,0,56,--,64,0
11881,note_off,0,56,--,64,320
11882,note_on,0,55,--,64,0
11883,pitchwheel,0,--,1638,--,0
11884,note_off,0,55,--,64,160
11885,note_on,0,52,--,64,0
11886,pitchwheel,0,--,2866,--,0
11887,note_off,0,52,--,64,160
11888,note_on,0,55,--,64,0
11889,pitchwheel,0,--,2866,--,0
11890,note_off,0,55,--,64,320
11891,note_on,0,50,--,64,0
11892,pitchwheel,0,--,1228,--,0
11893,note_off,0,50,--,64,320
11894,note_on,0,45,--,64,0
11895,note_off,0,45,--,64,160
11896,note_on,0,50,--,64,0
11897,pitchwheel,0,--,819,--,0
11898,note_off,0,50,--,64,160
11899,note_on,0,53,--,64,0
11900,note_off,0,53,--,64,320
11901,note_on,0,50,--,64,0
11902,pitchwheel,0,--,2457,--,0
11903,note_off,0,50,--,64,320
11904,note_on,0,52,--,64,0
11905,pitchwheel,0,--,2457,--,0
11906,note_off,0,52,--,64,320
11907,note_on,0,51,--,64,0
11908,pitchwheel,0,--,819,--,0
11909,note_off,0,51,--,64,320
11910,note_on,0,57,--,64,0
11911,note_off,0,57,--,64,320
11912,note_on,0,58,--,64,0
11913,note_off,0,58,--,64,160
11914,note_on,0,50,--,64,0
11915,note_off,0,50,--,64,480
11916,note_on,0,48,--,64,0
11917,pitchwheel,0,--,3276,--,0
11918,note_off,0,48,--,64,480
11919,note_on,0,50,--,64,0
11920,pitchwheel,0,--,2457,--,0
11921,note_off,0,50,--,64,160
11922,note_on,0,45,--,64,0
11923,pitchwheel,0,--,2047,--,0
11924,note_off,0,45,--,64,320
11925,note_on,0,50,--,64,0
11926,pitchwheel,0,--,819,--,0
11927,note_off,0,50,--,64,320
11928,note_on,0,53,--,64,0
11929,pitchwheel,0,--,2457,--,0
11930,note_off,0,53,--,64,160
11931,note_on,0,52,--,64,0
11932,pitchwheel,0,--,2457,--,0
11933,note_off,0,52,--,64,160
11934,note_on,0,55,--,64,0
11935,pitchwheel,0,--,2866,--,0
11936,note_off,0,55,--,64,320
11937,note_on,0,55,--,64,0
11938,pitchwheel,0,--,1638,--,0
11939,note_off,0,55,--,64,320
11940,note_on,0,52,--,64,0
11941,pitchwheel,0,--,2457,--,0
11942,note_off,0,52,--,64,160
11943,note_on,0,53,--,64,0
11944,note_off,0,53,--,64,160
11945,note_on,0,57,--,64,0
11946,pitchwheel,0,--,3276,--,0
11947,note_off,0,57,--,64,320
11948,note_on,0,57,--,64,0
11949,note_off,0,57,--,64,320
11950,note_on,0,50,--,64,0
11951,pitchwheel,0,--,2457,--,0
11952,note_off,0,50,--,64,320
11953,note_on,0,59,--,64,0
11954,pitchwheel,0,--,3276,--,0
11955,note_off,0,59,--,64,320
11956,note_on,0,56,--,64,0
11957,note_off,0,56,--,64,480
11958,note_on,0,48,--,64,0
11959,pitchwheel,0,--,2047,--,0
11960,note_off,0,48,--,64,160
11961,note_on,0,53,--,64,0
11962,note_off,0,53,--,64,320
11963,note_on,0,47,--,64,0
11964,pitchwheel,0,--,2457,--,0
11965,note_off,0,47,--,64,320
11966,note_on,0,43,--,64,0
11967,pitchwheel,0,--,1638,--,0
11968,note_off,0,43,--,64,160
11969,note_on,0,43,--,64,0
11970,note_off,0,43,--,64,160
11971,note_on,0,44,--,64,0
11972,pitchwheel,0,--,2047,--,0
11973,note_off,0,44,--,64,320
11974,note_on,0,44,--,64,0
11975,note_off,0,44,--,64,320
11976,note_on,0,45,--,64,0
11977,pitchwheel,0,--,1638,--,0
11978,note_off,0,45,--,64,160
11979,note_on,0,41,--,64,0
11980,note_off,0,41,--,64,160
11981,note_on,0,45,--,64,0
11982,note_off,0,45,--,64,320
11983,note_on,0,46,--,64,0
11984,note_off,0,46,--,64,320
11985,note_on,0,45,--,64,0
11986,pitchwheel,0,--,1638,--,0
11987,note_off,0,45,--,64,320
11988,note_on,0,50,--,64,0
11989,note_off,0,50,--,64,320
11990,note_on,0,46,--,64,0
11991,note_off,0,46,--,64,320
11992,note_on,0,50,--,64,0
11993,pitchwheel,0,--,2457,--,0
11994,note_off,0,50,--,64,320
11995,note_on,0,53,--,64,0
11996,note_off,0,53,--,64,320
11997,note_on,0,55,--,64,0
11998,note_off,0,55,--,64,320
11999,note_on,0,53,--,64,0
12000,pitchwheel,0,--,1228,--,0
12001,note_off,0,53,--,64,160
12002,note_on,0,57,--,64,0
12003,pitchwheel,0,--,1638,--,0
12004,note_off,0,57,--,64,160
12005,note_on,0,48,--,64,0
12006,pitchwheel,0,--,2047,--,0
12007,note_off,0,48,--,64,320
12008,note_on,0,48,--,64,0
12009,pitchwheel,0,--,819,--,0
12010,note_off,0,48,--,64,480
12011,note_on,0,45,--,64,0
12012,pitchwheel,0,--,2047,--,0
12013,note_off,0,45,--,64,160
12014,note_on,0,47,--,64,0
12015,pitchwheel,0,--,2047,--,0
12016,note_off,0,47,--,64,320
12017,note_on,0,45,--,64,0
12018,pitchwheel,0,--,3276,--,0
12019,note_off,0,45,--,64,320
12020,note_on,0,50,--,64,0
12021,pitchwheel,0,--,2457,--,0
12022,note_off,0,50,--,64,160
12023,note_on,0,45,--,64,0
12024,pitchwheel,0,--,1638,--,0
12025,note_off,0,45,--,64,160
12026,note_on,0,40,--,64,0
12027,pitchwheel,0,--,2457,--,0
12028,note_off,0,40,--,64,320
12029,note_on,0,36,--,64,0
12030,pitchwheel,0,--,3276,--,0
12031,note_off,0,36,--,64,320
12032,note_on,0,44,--,64,0
12033,pitchwheel,0,--,2047,--,0
12034,note_off,0,44,--,64,160
12035,note_on,0,45,--,64,0
12036,note_off,0,45,--,64,160
12037,note_on,0,45,--,64,0
12038,pitchwheel,0,--,1638,--,0
12039,note_off,0,45,--,64,320
12040,note_on,0,43,--,64,0
12041,pitchwheel,0,--,409,--,0
12042,note_off,0,43,--,64,320
12043,note_on,0,45,--,64,0
12044,pitchwheel,0,--,1638,--,0
12045,note_off,0,45,--,64,160
12046,note_on,0,47,--,64,0
12047,pitchwheel,0,--,3276,--,0
12048,note_off,0,47,--,64,480
12049,note_on,0,43,--,64,0
12050,note_off,0,43,--,64,640
12051,note_on,0,45,--,64,0
12052,pitchwheel,0,--,2047,--,0
12053,note_off,0,45,--,64,320
12054,note_on,0,43,--,64,0
12055,pitchwheel,0,--,2866,--,0
12056,note_off,0,43,--,64,320
12057,note_on,0,43,--,64,0
12058,pitchwheel,0,--,1638,--,0
12059,note_off,0,43,--,64,320
12060,note_on,0,43,--,64,0
12061,note_off,0,43,--,64,320
12062,note_on,0,45,--,64,0
12063,pitchwheel,0,--,2047,--,0
12064,note_off,0,45,--,64,320
12065,note_on,0,45,--,64,0
12066,note_off,0,45,--,64,160
12067,note_on,0,47,--,64,0
12068,pitchwheel,0,--,2047,--,0
12069,note_off,0,47,--,64,480
12070,note_on,0,45,--,64,0
12071,pitchwheel,0,--,1638,--,0
12072,note_off,0,45,--,64,320
12073,note_on,0,44,--,64,0
12074,pitchwheel,0,--,2047,--,0
12075,note_off,0,44,--,64,160
12076,note_on,0,38,--,64,0
12077,pitchwheel,0,--,819,--,0
12078,note_off,0,38,--,64,480
12079,note_on,0,39,--,64,0
12080,pitchwheel,0,--,819,--,0
12081,note_off,0,39,--,64,320
12082,note_on,0,47,--,64,0
12083,pitchwheel,0,--,2457,--,0
12084,note_off,0,47,--,64,160
12085,note_on,0,38,--,64,0
12086,pitchwheel,0,--,1228,--,0
12087,note_off,0,38,--,64,160
12088,note_on,0,43,--,64,0
12089,pitchwheel,0,--,2866,--,0
12090,note_off,0,43,--,64,320
12091,note_on,0,46,--,64,0
12092,pitchwheel,0,--,409,--,0
12093,note_off,0,46,--,64,320
12094,note_on,0,50,--,64,0
12095,pitchwheel,0,--,1228,--,0
12096,note_off,0,50,--,64,160
12097,note_on,0,53,--,64,0
12098,note_off,0,53,--,64,160
12099,note_on,0,47,--,64,0
12100,pitchwheel,0,--,3276,--,0
12101,note_off,0,47,--,64,320
12102,note_on,0,50,--,64,0
12103,pitchwheel,0,--,2457,--,0
12104,note_off,0,50,--,64,320
12105,note_on,0,50,--,64,0
12106,pitchwheel,0,--,3685,--,0
12107,note_off,0,50,--,64,320
12108,note_on,0,47,--,64,0
12109,pitchwheel,0,--,3276,--,0
12110,note_off,0,47,--,64,320
12111,note_on,0,45,--,64,0
12112,pitchwheel,0,--,2047,--,0
12113,note_off,0,45,--,64,320
12114,note_on,0,48,--,64,0
12115,pitchwheel,0,--,3276,--,0
12116,note_off,0,48,--,64,160
12117,note_on,0,52,--,64,0
12118,pitchwheel,0,--,2457,--,0
12119,note_off,0,52,--,64,160
12120,note_on,0,50,--,64,0
12121,pitchwheel,0,--,2457,--,0
12122,note_off,0,50,--,64,320
12123,note_on,0,53,--,64,0
12124,pitchwheel,0,--,2457,--,0
12125,note_off,0,53,--,64,320
12126,note_on,0,55,--,64,0
12127,pitchwheel,0,--,409,--,0
12128,note_off,0,55,--,64,160
12129,note_on,0,52,--,64,0
12130,pitchwheel,0,--,2866,--,0
12131,note_off,0,52,--,64,160
12132,note_on,0,58,--,64,0
12133,pitchwheel,0,--,1638,--,0
12134,note_off,0,58,--,64,320
12135,note_on,0,53,--,64,0
12136,note_off,0,53,--,64,320
12137,note_on,0,48,--,64,0
12138,pitchwheel,0,--,819,--,0
12139,note_off,0,48,--,64,320
12140,note_on,0,48,--,64,0
12141,pitchwheel,0,--,2047,--,0
12142,note_off,0,48,--,64,480
12143,note_on,0,53,--,64,0
12144,note_off,0,53,--,64,480
12145,note_on,0,50,--,64,0
12146,pitchwheel,0,--,819,--,0
12147,note_off,0,50,--,64,320
12148,note_on,0,47,--,64,0
12149,pitchwheel,0,--,3685,--,0
12150,note_off,0,47,--,64,160
12151,note_on,0,45,--,64,0
12152,pitchwheel,0,--,1638,--,0
12153,note_off,0,45,--,64,160
12154,note_on,0,41,--,64,0
12155,note_off,0,41,--,64,320
12156,note_on,0,41,--,64,0
12157,pitchwheel,0,--,2457,--,0
12158,note_off,0,41,--,64,480
12159,note_on,0,44,--,64,0
12160,note_off,0,44,--,64,320
12161,note_on,0,40,--,64,0
12162,pitchwheel,0,--,2457,--,0
12163,note_off,0,40,--,64,320
12164,note_on,0,47,--,64,0
12165,pitchwheel,0,--,3685,--,0
12166,note_off,0,47,--,64,320
12167,note_on,0,47,--,64,0
12168,pitchwheel,0,--,3276,--,0
12169,note_off,0,47,--,64,320
12170,note_on,0,38,--,64,0
12171,note_off,0,38,--,64,320
12172,note_on,0,41,--,64,0
12173,pitchwheel,0,--,1228,--,0
12174,note_off,0,41,--,64,320
12175,note_on,0,41,--,64,0
12176,note_off,0,41,--,64,320
12177,note_on,0,45,--,64,0
12178,pitchwheel,0,--,1638,--,0
12179,note_off,0,45,--,64,320
12180,note_on,0,45,--,64,0
12181,pitchwheel,0,--,2047,--,0
12182,note_off,0,45,--,64,160
12183,note_on,0,43,--,64,0
12184,note_off,0,43,--,64,160
12185,note_on,0,45,--,64,0
12186,note_off,0,45,--,64,320
12187,note_on,0,43,--,64,0
12188,pitchwheel,0,--,409,--,0
12189,note_off,0,43,--,64,320
12190,note_on,0,45,--,64,0
12191,pitchwheel,0,--,1638,--,0
12192,note_off,0,45,--,64,160
12193,note_on,0,40,--,64,0
12194,pitchwheel,0,--,2866,--,0
12195,note_off,0,40,--,64,160
12196,note_on,0,46,--,64,0
12197,pitchwheel,0,--,1638,--,0
12198,note_off,0,46,--,64,320
12199,note_on,0,41,--,64,0
12200,note_off,0,41,--,64,320
12201,note_on,0,43,--,64,0
12202,pitchwheel,0,--,409,--,0
12203,note_off,0,43,--,64,160
12204,note_on,0,47,--,64,0
12205,pitchwheel,0,--,3276,--,0
12206,note_off,0,47,--,64,160
12207,note_on,0,43,--,64,0
12208,pitchwheel,0,--,1638,--,0
12209,note_off,0,43,--,64,320
12210,note_on,0,46,--,64,0
12211,pitchwheel,0,--,1638,--,0
12212,note_off,0,46,--,64,320
12213,note_on,0,48,--,64,0
12214,pitchwheel,0,--,2047,--,0
12215,note_off,0,48,--,64,160
12216,note_on,0,45,--,64,0
12217,note_off,0,45,--,64,160
12218,note_on,0,41,--,64,0
12219,note_off,0,41,--,64,320
12220,note_on,0,43,--,64,0
12221,note_off,0,43,--,64,320
12222,note_on,0,48,--,64,0
12223,pitchwheel,0,--,3276,--,0
12224,note_off,0,48,--,64,160
12225,note_on,0,52,--,64,0
12226,pitchwheel,0,--,2457,--,0
12227,note_off,0,52,--,64,160
12228,note_on,0,48,--,64,0
12229,pitchwheel,0,--,2047,--,0
12230,note_off,0,48,--,64,320
12231,note_on,0,48,--,64,0
12232,pitchwheel,0,--,819,--,0
12233,note_off,0,48,--,64,320
12234,note_on,0,53,--,64,0
12235,note_off,0,53,--,64,640
12236,note_on,0,50,--,64,0
12237,pitchwheel,0,--,3685,--,0
12238,note_off,0,50,--,64,320
12239,note_on,0,45,--,64,0
12240,pitchwheel,0,--,2047,--,0
12241,note_off,0,45,--,64,160
12242,note_on,0,46,--,64,0
12243,pitchwheel,0,--,409,--,0
12244,note_off,0,46,--,64,160
12245,note_on,0,40,--,64,0
12246,pitchwheel,0,--,2457,--,0
12247,note_off,0,40,--,64,320
12248,note_on,0,43,--,64,0
12249,pitchwheel,0,--,2866,--,0
12250,note_off,0,43,--,64,320
12251,note_on,0,46,--,64,0
12252,pitchwheel,0,--,409,--,0
12253,note_off,0,46,--,64,160
12254,note_on,0,52,--,64,0
12255,note_off,0,52,--,64,160
12256,note_on,0,57,--,64,0
12257,pitchwheel,0,--,3276,--,0
12258,note_off,0,57,--,64,320
12259,note_on,0,48,--,64,0
12260,pitchwheel,0,--,819,--,0
12261,note_off,0,48,--,64,320
12262,note_on,0,44,--,64,0
12263,pitchwheel,0,--,2047,--,0
12264,note_off,0,44,--,64,160
12265,note_on,0,50,--,64,0
12266,pitchwheel,0,--,819,--,0
12267,note_off,0,50,--,64,160
12268,note_on,0,53,--,64,0
12269,note_off,0,53,--,64,320
12270,note_on,0,52,--,64,0
12271,pitchwheel,0,--,1638,--,0
12272,note_off,0,52,--,64,320
12273,note_on,0,50,--,64,0
12274,pitchwheel,0,--,819,--,0
12275,note_off,0,50,--,64,160
12276,note_on,0,45,--,64,0
12277,pitchwheel,0,--,2047,--,0
12278,note_off,0,45,--,64,160
12279,note_on,0,44,--,64,0
12280,note_off,0,44,--,64,320
12281,note_on,0,40,--,64,0
12282,pitchwheel,0,--,1638,--,0
12283,note_off,0,40,--,64,320
12284,note_on,0,46,--,64,0
12285,note_off,0,46,--,64,160
12286,note_on,0,48,--,64,0
12287,pitchwheel,0,--,2047,--,0
12288,note_off,0,48,--,64,480
12289,note_on,0,44,--,64,0
12290,note_off,0,44,--,64,480
12291,note_on,0,38,--,64,0
12292,pitchwheel,0,--,2457,--,0
12293,note_off,0,38,--,64,160
12294,note_on,0,41,--,64,0
12295,note_off,0,41,--,64,320
12296,note_on,0,45,--,64,0
12297,note_off,0,45,--,64,320
12298,note_on,0,46,--,64,0
12299,pitchwheel,0,--,1638,--,0
12300,note_off,0,46,--,64,160
12301,note_on,0,47,--,64,0
12302,pitchwheel,0,--,3276,--,0
12303,note_off,0,47,--,64,160
12304,note_on,0,48,--,64,0
12305,pitchwheel,0,--,2047,--,0
12306,note_off,0,48,--,64,320
12307,note_on,0,48,--,64,0
12308,pitchwheel,0,--,819,--,0
12309,note_off,0,48,--,64,320
12310,note_on,0,45,--,64,0
12311,pitchwheel,0,--,1638,--,0
12312,note_off,0,45,--,64,160
12313,note_on,0,47,--,64,0
12314,pitchwheel,0,--,3685,--,0
12315,note_off,0,47,--,64,160
12316,note_on,0,44,--,64,0
12317,note_off,0,44,--,64,320
12318,note_on,0,45,--,64,0
12319,note_off,0,45,--,64,480
12320,note_on,0,45,--,64,0
12321,pitchwheel,0,--,1638,--,0
12322,note_off,0,45,--,64,320
12323,note_on,0,44,--,64,0
12324,note_off,0,44,--,64,480
12325,note_on,0,38,--,64,0
12326,pitchwheel,0,--,2457,--,0
12327,note_off,0,38,--,64,160
12328,note_on,0,43,--,64,0
12329,note_off,0,43,--,64,320
12330,note_on,0,46,--,64,0
12331,pitchwheel,0,--,409,--,0
12332,note_off,0,46,--,64,480
12333,note_on,0,47,--,64,0
12334,pitchwheel,0,--,3276,--,0
12335,note_off,0,47,--,64,160
12336,note_on,0,47,--,64,0
12337,pitchwheel,0,--,2047,--,0
12338,note_off,0,47,--,64,320
12339,note_on,0,53,--,64,0
12340,pitchwheel,0,--,1228,--,0
12341,note_off,0,53,--,64,320
12342,note_on,0,55,--,64,0
12343,note_off,0,55,--,64,160
12344,note_on,0,57,--,64,0
12345,note_off,0,57,--,64,160
12346,note_on,0,53,--,64,0
12347,note_off,0,53,--,64,320
12348,note_on,0,55,--,64,0
12349,pitchwheel,0,--,2866,--,0
12350,note_off,0,55,--,64,320
12351,note_on,0,58,--,64,0
12352,note_off,0,58,--,64,320
12353,note_on,0,48,--,64,0
12354,pitchwheel,0,--,2047,--,0
12355,note_off,0,48,--,64,320
12356,note_on,0,59,--,64,0
12357,pitchwheel,0,--,2457,--,0
12358,note_off,0,59,--,64,320
12359,note_on,0,50,--,64,0
12360,pitchwheel,0,--,2457,--,0
12361,note_off,0,50,--,64,320
12362,note_on,0,45,--,64,0
12363,note_off,0,45,--,64,320
12364,note_on,0,40,--,64,0
12365,pitchwheel,0,--,2457,--,0
12366,note_off,0,40,--,64,320
12367,note_on,0,41,--,64,0
12368,pitchwheel,0,--,2457,--,0
12369,note_off,0,41,--,64,160
12370,note_on,0,45,--,64,0
12371,pitchwheel,0,--,1638,--,0
12372,note_off,0,45,--,64,160
12373,note_on,0,41,--,64,0
12374,pitchwheel,0,--,1228,--,0
12375,note_off,0,41,--,64,320
12376,note_on,0,41,--,64,0
12377,note_off,0,41,--,64,480
12378,note_on,0,45,--,64,0
12379,pitchwheel,0,--,2047,--,0
12380,note_off,0,45,--,64,160
12381,note_on,0,41,--,64,0
12382,note_off,0,41,--,64,320
12383,note_on,0,38,--,64,0
12384,pitchwheel,0,--,2457,--,0
12385,note_off,0,38,--,64,480
12386,note_on,0,38,--,64,0
12387,pitchwheel,0,--,819,--,0
12388,note_off,0,38,--,64,160
12389,note_on,0,45,--,64,0
12390,pitchwheel,0,--,1638,--,0
12391,note_off,0,45,--,64,320
12392,note_on,0,47,--,64,0
12393,pitchwheel,0,--,2457,--,0
12394,note_off,0,47,--,64,480
12395,note_on,0,45,--,64,0
12396,note_off,0,45,--,64,160
12397,note_on,0,46,--,64,0
12398,note_off,0,46,--,64,320
12399,note_on,0,41,--,64,0
12400,note_off,0,41,--,64,320
12401,note_on,0,46,--,64,0
12402,pitchwheel,0,--,1638,--,0
12403,note_off,0,46,--,64,160
12404,note_on,0,43,--,64,0
12405,note_off,0,43,--,64,480
12406,note_on,0,44,--,64,0
12407,note_off,0,44,--,64,320
12408,note_on,0,47,--,64,0
12409,pitchwheel,0,--,3276,--,0
12410,note_off,0,47,--,64,320
12411,note_on,0,36,--,64,0
12412,pitchwheel,0,--,819,--,0
12413,note_off,0,36,--,64,320
12414,note_on,0,41,--,64,0
12415,note_off,0,41,--,64,320
12416,note_on,0,41,--,64,0
12417,pitchwheel,0,--,1228,--,0
12418,note_off,0,41,--,64,160
12419,note_on,0,45,--,64,0
12420,pitchwheel,0,--,2047,--,0
12421,note_off,0,45,--,64,160
12422,note_on,0,47,--,64,0
12423,pitchwheel,0,--,3276,--,0
12424,note_off,0,47,--,64,320
12425,note_on,0,47,--,64,0
12426,pitchwheel,0,--,3685,--,0
12427,note_off,0,47,--,64,320
12428,note_on,0,45,--,64,0
12429,note_off,0,45,--,64,160
12430,note_on,0,40,--,64,0
12431,note_off,0,40,--,64,160
12432,note_on,0,36,--,64,0
12433,pitchwheel,0,--,2047,--,0
12434,note_off,0,36,--,64,320
12435,note_on,0,38,--,64,0
12436,pitchwheel,0,--,819,--,0
12437,note_off,0,38,--,64,320
12438,note_on,0,36,--,64,0
12439,pitchwheel,0,--,3276,--,0
12440,note_off,0,36,--,64,160
12441,note_on,0,40,--,64,0
12442,pitchwheel,0,--,2457,--,0
12443,note_off,0,40,--,64,480
12444,note_on,0,46,--,64,0
12445,pitchwheel,0,--,1638,--,0
12446,note_off,0,46,--,64,320
12447,note_on,0,45,--,64,0
12448,pitchwheel,0,--,2047,--,0
12449,note_off,0,45,--,64,160
12450,note_on,0,50,--,64,0
12451,pitchwheel,0,--,1228,--,0
12452,note_off,0,50,--,64,480
12453,note_on,0,48,--,64,0
12454,pitchwheel,0,--,2047,--,0
12455,note_off,0,48,--,64,320
12456,note_on,0,50,--,64,0
12457,note_off,0,50,--,64,160
12458,note_on,0,55,--,64,0
12459,pitchwheel,0,--,409,--,0
12460,note_off,0,55,--,64,160
12461,note_on,0,52,--,64,0
12462,pitchwheel,0,--,2457,--,0
12463,note_off,0,52,--,64,320
12464,note_on,0,58,--,64,0
12465,pitchwheel,0,--,1638,--,0
12466,note_off,0,58,--,64,320
12467,note_on,0,57,--,64,0
12468,pitchwheel,0,--,3276,--,0
12469,note_off,0,57,--,64,160
12470,note_on,0,53,--,64,0
12471,note_off,0,53,--,64,480
12472,note_on,0,55,--,64,0
12473,pitchwheel,0,--,409,--,0
12474,note_off,0,55,--,64,320
12475,note_on,0,50,--,64,0
12476,pitchwheel,0,--,3685,--,0
12477,note_off,0,50,--,64,160
12478,note_on,0,47,--,64,0
12479,pitchwheel,0,--,2457,--,0
12480,note_off,0,47,--,64,160
12481,note_on,0,53,--,64,0
12482,note_off,0,53,--,64,320
12483,note_on,0,58,--,64,0
12484,pitchwheel,0,--,409,--,0
12485,note_off,0,58,--,64,320
12486,note_on,0,55,--,64,0
12487,note_off,0,55,--,64,160
12488,note_on,0,52,--,64,0
12489,pitchwheel,0,--,2866,--,0
12490,note_off,0,52,--,64,160
12491,note_on,0,56,--,64,0
12492,note_off,0,56,--,64,320
12493,note_on,0,48,--,64,0
12494,pitchwheel,0,--,819,--,0
12495,note_off,0,48,--,64,320
12496,note_on,0,48,--,64,0
12497,pitchwheel,0,--,2047,--,0
12498,note_off,0,48,--,64,320
12499,note_on,0,48,--,64,0
12500,pitchwheel,0,--,3276,--,0
12501,note_off,0,48,--,64,320
12502,note_on,0,52,--,64,0
12503,pitchwheel,0,--,1638,--,0
12504,note_off,0,52,--,64,320
12505,note_on,0,53,--,64,0
12506,note_off,0,53,--,64,640
12507,note_on,0,51,--,64,0
12508,pitchwheel,0,--,819,--,0
12509,note_off,0,51,--,64,160
12510,note_on,0,59,--,64,0
12511,pitchwheel,0,--,3276,--,0
12512,note_off,0,59,--,64,160
12513,note_on,0,57,--,64,0
12514,note_off,0,57,--,64,320
12515,note_on,0,58,--,64,0
12516,note_off,0,58,--,64,480
12517,note_on,0,52,--,64,0
12518,note_off,0,52,--,64,160
12519,note_on,0,57,--,64,0
12520,pitchwheel,0,--,2047,--,0
12521,note_off,0,57,--,64,320
12522,note_on,0,58,--,64,0
12523,note_off,0,58,--,64,320
12524,note_on,0,59,--,64,0
12525,pitchwheel,0,--,2047,--,0
12526,note_off,0,59,--,64,320
12527,note_on,0,55,--,64,0
12528,note_off,0,55,--,64,320
12529,note_on,0,58,--,64,0
12530,note_off,0,58,--,64,320
12531,note_on,0,57,--,64,0
12532,pitchwheel,0,--,3276,--,0
12533,note_off,0,57,--,64,320
12534,note_on,0,57,--,64,0
12535,pitchwheel,0,--,2047,--,0
12536,note_off,0,57,--,64,320
12537,note_on,0,50,--,64,0
12538,pitchwheel,0,--,819,--,0
12539,note_off,0,50,--,64,320
12540,note_on,0,55,--,64,0
12541,pitchwheel,0,--,1638,--,0
12542,note_off,0,55,--,64,160
12543,note_on,0,50,--,64,0
12544,pitchwheel,0,--,819,--,0
12545,note_off,0,50,--,64,160
12546,note_on,0,45,--,64,0
12547,note_off,0,45,--,64,320
12548,note_on,0,39,--,64,0
12549,pitchwheel,0,--,819,--,0
12550,note_off,0,39,--,64,320
12551,note_on,0,45,--,64,0
12552,pitchwheel,0,--,1638,--,0
12553,note_off,0,45,--,64,160
12554,note_on,0,40,--,64,0
12555,pitchwheel,0,--,2866,--,0
12556,note_off,0,40,--,64,160
12557,note_on,0,44,--,64,0
12558,note_off,0,44,--,64,320
12559,note_on,0,41,--,64,0
12560,note_off,0,41,--,64,320
12561,note_on,0,43,--,64,0
12562,pitchwheel,0,--,409,--,0
12563,note_off,0,43,--,64,160
12564,note_on,0,40,--,64,0
12565,pitchwheel,0,--,2457,--,0
12566,note_off,0,40,--,64,160
12567,note_on,0,45,--,64,0
12568,pitchwheel,0,--,2047,--,0
12569,note_off,0,45,--,64,320
12570,note_on,0,50,--,64,0
12571,pitchwheel,0,--,2457,--,0
12572,note_off,0,50,--,64,320
12573,note_on,0,56,--,64,0
12574,pitchwheel,0,--,2047,--,0
12575,note_off,0,56,--,64,160
12576,note_on,0,57,--,64,0
12577,note_off,0,57,--,64,160
12578,note_on,0,50,--,64,0
12579,pitchwheel,0,--,1228,--,0
12580,note_off,0,50,--,64,320
12581,note_on,0,59,--,64,0
12582,pitchwheel,0,--,3276,--,0
12583,note_off,0,59,--,64,320
12584,note_on,0,58,--,64,0
12585,pitchwheel,0,--,1638,--,0
12586,note_off,0,58,--,64,160
12587,note_on,0,52,--,64,0
12588,pitchwheel,0,--,2457,--,0
12589,note_off,0,52,--,64,160
12590,note_on,0,53,--,64,0
12591,note_off,0,53,--,64,320
12592,note_on,0,57,--,64,0
12593,pitchwheel,0,--,1638,--,0
12594,note_off,0,57,--,64,320
12595,note_on,0,59,--,64,0
12596,pitchwheel,0,--,3685,--,0
12597,note_off,0,59,--,64,320
12598,note_on,0,57,--,64,0
12599,pitchwheel,0,--,2047,--,0
12600,note_off,0,57,--,64,320
12601,note_on,0,50,--,64,0
12602,note_off,0,50,--,64,320
12603,note_on,0,57,--,64,0
12604,note_off,0,57,--,64,160
12605,note_on,0,57,--,64,0
12606,pitchwheel,0,--,2047,--,0
12607,note_off,0,57,--,64,480
12608,note_on,0,55,--,64,0
12609,pitchwheel,0,--,1638,--,0
12610,note_off,0,55,--,64,320
12611,note_on,0,50,--,64,0
12612,pitchwheel,0,--,2457,--,0
12613,note_off,0,50,--,64,160
12614,note_on,0,56,--,64,0
12615,pitchwheel,0,--,2047,--,0
12616,note_off,0,56,--,64,160
12617,note_on,0,50,--,64,0
12618,pitchwheel,0,--,1228,--,0
12619,note_off,0,50,--,64,320
12620,note_on,0,53,--,64,0
12621,note_off,0,53,--,64,320
12622,note_on,0,50,--,64,0
12623,pitchwheel,0,--,819,--,0
12624,note_off,0,50,--,64,160
12625,note_on,0,55,--,64,0
12626,note_off,0,55,--,64,160
12627,note_on,0,53,--,64,0
12628,note_off,0,53,--,64,320
12629,note_on,0,56,--,64,0
12630,note_off,0,56,--,64,320
12631,note_on,0,59,--,64,0
12632,pitchwheel,0,--,3276,--,0
12633,note_off,0,59,--,64,160
12634,note_on,0,57,--,64,0
12635,pitchwheel,0,--,2047,--,0
12636,note_off,0,57,--,64,160
12637,note_on,0,48,--,64,0
12638,pitchwheel,0,--,3276,--,0
12639,note_off,0,48,--,64,320
12640,note_on,0,50,--,64,0
12641,pitchwheel,0,--,819,--,0
12642,note_off,0,50,--,64,320
12643,note_on,0,58,--,64,0
12644,note_off,0,58,--,64,160
12645,note_on,0,59,--,64,0
12646,pitchwheel,0,--,3685,--,0
12647,note_off,0,59,--,64,480
12648,note_on,0,48,--,64,0
12649,pitchwheel,0,--,3276,--,0
12650,note_off,0,48,--,64,320
12651,note_on,0,50,--,64,0
12652,note_off,0,50,--,64,160
12653,note_on,0,56,--,64,0
12654,pitchwheel,0,--,2047,--,0
12655,note_off,0,56,--,64,320
12656,note_on,0,57,--,64,0
12657,note_off,0,57,--,64,320
12658,note_on,0,50,--,64,0
12659,pitchwheel,0,--,2457,--,0
12660,note_off,0,50,--,64,160
12661,note_on,0,57,--,64,0
12662,pitchwheel,0,--,1638,--,0
12663,note_off,0,57,--,64,160
12664,note_on,0,57,--,64,0
12665,pitchwheel,0,--,3276,--,0
12666,note_off,0,57,--,64,320
12667,note_on,0,58,--,64,0
12668,pitchwheel,0,--,409,--,0
12669,note_off,0,58,--,64,320
12670,note_on,0,52,--,64,0
12671,pitchwheel,0,--,2457,--,0
12672,note_off,0,52,--,64,160
12673,note_on,0,47,--,64,0
12674,pitchwheel,0,--,3685,--,0
12675,note_off,0,47,--,64,160
12676,note_on,0,48,--,64,0
12677,pitchwheel,0,--,2047,--,0
12678,note_off,0,48,--,64,320
12679,note_on,0,45,--,64,0
12680,note_off,0,45,--,64,320
12681,note_on,0,43,--,64,0
12682,pitchwheel,0,--,409,--,0
12683,note_off,0,43,--,64,320
12684,note_on,0,43,--,64,0
12685,note_off,0,43,--,64,320
12686,note_on,0,48,--,64,0
12687,pitchwheel,0,--,3276,--,0
12688,note_off,0,48,--,64,480
12689,note_on,0,53,--,64,0
12690,note_off,0,53,--,64,160
12691,note_on,0,48,--,64,0
12692,pitchwheel,0,--,2047,--,0
12693,note_off,0,48,--,64,320
12694,note_on,0,47,--,64,0
12695,pitchwheel,0,--,2457,--,0
12696,note_off,0,47,--,64,320
12697,note_on,0,48,--,64,0
12698,pitchwheel,0,--,819,--,0
12699,note_off,0,48,--,64,160
12700,note_on,0,45,--,64,0
12701,pitchwheel,0,--,1638,--,0
12702,note_off,0,45,--,64,160
12703,note_on,0,50,--,64,0
12704,pitchwheel,0,--,1228,--,0
12705,note_off,0,50,--,64,320
12706,note_on,0,50,--,64,0
12707,pitchwheel,0,--,2457,--,0
12708,note_off,0,50,--,64,320
12709,note_on,0,52,--,64,0
12710,pitchwheel,0,--,2457,--,0
12711,note_off,0,52,--,64,160
12712,note_on,0,50,--,64,0
12713,pitchwheel,0,--,2457,--,0
12714,note_off,0,50,--,64,160
12715,note_on,0,56,--,64,0
12716,note_off,0,56,--,64,320
12717,note_on,0,58,--,64,0
12718,pitchwheel,0,--,409,--,0
12719,note_off,0,58,--,64,320
12720,note_on,0,52,--,64,0
12721,pitchwheel,0,--,2457,--,0
12722,note_off,0,52,--,64,320
12723,note_on,0,50,--,64,0
12724,note_off,0,50,--,64,320
12725,note_on,0,52,--,64,0
12726,pitchwheel,0,--,2866,--,0
12727,note_off,0,52,--,64,320
12728,note_on,0,50,--,64,0
12729,pitchwheel,0,--,2457,--,0
12730,note_off,0,50,--,64,320
12731,note_on,0,45,--,64,0
12732,pitchwheel,0,--,2047,--,0
12733,note_off,0,45,--,64,320
12734,note_on,0,47,--,64,0
12735,pitchwheel,0,--,3685,--,0
12736,note_off,0,47,--,64,320
12737,note_on,0,46,--,64,0
12738,pitchwheel,0,--,1638,--,0
12739,note_off,0,46,--,64,160
12740,note_on,0,47,--,64,0
12741,pitchwheel,0,--,3276,--,0
12742,note_off,0,47,--,64,160
12743,note_on,0,53,--,64,0
12744,note_off,0,53,--,64,320
12745,note_on,0,53,--,64,0
12746,pitchwheel,0,--,1228,--,0
12747,note_off,0,53,--,64,480
12748,note_on,0,53,--,64,0
12749,note_off,0,53,--,64,160
12750,note_on,0,56,--,64,0
12751,note_off,0,56,--,64,320
12752,note_on,0,57,--,64,0
12753,pitchwheel,0,--,1638,--,0
12754,note_off,0,57,--,64,480
12755,note_on,0,55,--,64,0
12756,note_off,0,55,--,64,480
12757,note_on,0,56,--,64,0
12758,note_off,0,56,--,64,320
12759,note_on,0,50,--,64,0
12760,note_off,0,50,--,64,160
12761,note_on,0,45,--,64,0
12762,note_off,0,45,--,64,160
12763,note_on,0,46,--,64,0
12764,note_off,0,46,--,64,320
12765,note_on,0,48,--,64,0
12766,pitchwheel,0,--,819,--,0
12767,note_off,0,48,--,64,320
12768,note_on,0,43,--,64,0
12769,pitchwheel,0,--,409,--,0
12770,note_off,0,43,--,64,160
12771,note_on,0,38,--,64,0
12772,pitchwheel,0,--,819,--,0
12773,note_off,0,38,--,64,480
12774,note_on,0,39,--,64,0
12775,pitchwheel,0,--,819,--,0
12776,note_off,0,39,--,64,320
12777,note_on,0,45,--,64,0
12778,pitchwheel,0,--,1638,--,0
12779,note_off,0,45,--,64,320
12780,note_on,0,46,--,64,0
12781,note_off,0,46,--,64,320
12782,note_on,0,45,--,64,0
12783,pitchwheel,0,--,3276,--,0
12784,note_off,0,45,--,64,320
12785,note_on,0,46,--,64,0
12786,pitchwheel,0,--,409,--,0
12787,note_off,0,46,--,64,160
12788,note_on,0,47,--,64,0
12789,pitchwheel,0,--,2457,--,0
12790,note_off,0,47,--,64,160
12791,note_on,0,43,--,64,0
12792,note_off,0,43,--,64,320
12793,note_on,0,43,--,64,0
12794,pitchwheel,0,--,409,--,0
12795,note_off,0,43,--,64,320
12796,note_on,0,45,--,64,0
12797,note_off,0,45,--,64,160
12798,note_on,0,43,--,64,0
12799,note_off,0,43,--,64,480
12800,note_on,0,38,--,64,0
12801,pitchwheel,0,--,2457,--,0
12802,note_off,0,38,--,64,320
12803,note_on,0,46,--,64,0
12804,pitchwheel,0,--,1638,--,0
12805,note_off,0,46,--,64,160
12806,note_on,0,40,--,64,0
12807,pitchwheel,0,--,2457,--,0
12808,note_off,0,40,--,64,480
12809,note_on,0,36,--,64,0
12810,pitchwheel,0,--,3276,--,0
12811,note_off,0,36,--,64,320
12812,note_on,0,47,--,64,0
12813,pitchwheel,0,--,2457,--,0
12814,note_off,0,47,--,64,160
12815,note_on,0,36,--,64,0
12816,pitchwheel,0,--,819,--,0
12817,note_off,0,36,--,64,160
12818,note_on,0,47,--,64,0
12819,pitchwheel,0,--,3276,--,0
12820,note_off,0,47,--,64,640
12821,note_on,0,38,--,64,0
12822,pitchwheel,0,--,1228,--,0
12823,note_off,0,38,--,64,160
12824,note_on,0,38,--,64,0
12825,note_off,0,38,--,64,160
12826,note_on,0,38,--,64,0
12827,pitchwheel,0,--,819,--,0
12828,note_off,0,38,--,64,320
12829,note_on,0,38,--,64,0
12830,pitchwheel,0,--,2457,--,0
12831,note_off,0,38,--,64,640
12832,note_on,0,43,--,64,0
12833,note_off,0,43,--,64,320
12834,note_on,0,45,--,64,0
12835,pitchwheel,0,--,3276,--,0
12836,note_off,0,45,--,64,320
12837,note_on,0,48,--,64,0
12838,pitchwheel,0,--,3276,--,0
12839,note_off,0,48,--,64,160
12840,note_on,0,43,--,64,0
12841,note_off,0,43,--,64,160
12842,note_on,0,38,--,64,0
12843,pitchwheel,0,--,2457,--,0
12844,note_off,0,38,--,64,320
12845,note_on,0,45,--,64,0
12846,note_off,0,45,--,64,320
12847,note_on,0,40,--,64,0
12848,pitchwheel,0,--,2457,--,0
12849,note_off,0,40,--,64,160
12850,note_on,0,45,--,64,0
12851,pitchwheel,0,--,3276,--,0
12852,note_off,0,45,--,64,160
12853,note_on,0,46,--,64,0
12854,pitchwheel,0,--,1638,--,0
12855,note_off,0,46,--,64,320
12856,note_on,0,45,--,64,0
12857,pitchwheel,0,--,2047,--,0
12858,note_off,0,45,--,64,320
12859,note_on,0,41,--,64,0
12860,pitchwheel,0,--,1228,--,0
12861,note_off,0,41,--,64,320
12862,note_on,0,40,--,64,0
12863,note_off,0,40,--,64,320
12864,note_on,0,36,--,64,0
12865,pitchwheel,0,--,2047,--,0
12866,note_off,0,36,--,64,160
12867,note_on,0,41,--,64,0
12868,note_off,0,41,--,64,480
12869,note_on,0,43,--,64,0
12870,note_off,0,43,--,64,320
12871,note_on,0,44,--,64,0
12872,note_off,0,44,--,64,160
12873,note_on,0,45,--,64,0
12874,pitchwheel,0,--,1638,--,0
12875,note_off,0,45,--,64,160
12876,note_on,0,41,--,64,0
12877,note_off,0,41,--,64,320
12878,note_on,0,44,--,64,0
12879,note_off,0,44,--,64,480
12880,note_on,0,41,--,64,0
12881,note_off,0,41,--,64,160
12882,note_on,0,46,--,64,0
12883,note_off,0,46,--,64,640
12884,note_on,0,37,--,64,0
12885,note_off,0,37,--,64,320
12886,note_on,0,45,--,64,0
12887,pitchwheel,0,--,1638,--,0
12888,note_off,0,45,--,64,320
12889,note_on,0,46,--,64,0
12890,pitchwheel,0,--,1638,--,0
12891,note_off,0,46,--,64,320
12892,note_on,0,45,--,64,0
12893,pitchwheel,0,--,2047,--,0
12894,note_off,0,45,--,64,320
12895,note_on,0,45,--,64,0
12896,pitchwheel,0,--,3276,--,0
12897,note_off,0,45,--,64,320
12898,note_on,0,45,--,64,0
12899,pitchwheel,0,--,1638,--,0
12900,note_off,0,45,--,64,320
12901,note_on,0,45,--,64,0
12902,pitchwheel,0,--,2047,--,0
12903,note_off,0,45,--,64,160
12904,note_on,0,47,--,64,0
12905,pitchwheel,0,--,3276,--,0
12906,note_off,0,47,--,64,160
12907,note_on,0,45,--,64,0
12908,note_off,0,45,--,64,320
12909,note_on,0,46,--,64,0
12910,pitchwheel,0,--,1638,--,0
12911,note_off,0,46,--,64,320
12912,note_on,0,47,--,64,0
12913,pitchwheel,0,--,3276,--,0
12914,note_off,0,47,--,64,160
12915,note_on,0,41,--,64,0
12916,note_off,0,41,--,64,160
12917,note_on,0,36,--,64,0
12918,pitchwheel,0,--,3276,--,0
12919,note_off,0,36,--,64,320
12920,note_on,0,40,--,64,0
12921,pitchwheel,0,--,2866,--,0
12922,note_off,0,40,--,64,320
12923,note_on,0,36,--,64,0
12924,pitchwheel,0,--,819,--,0
12925,note_off,0,36,--,64,160
12926,note_on,0,38,--,64,0
12927,pitchwheel,0,--,819,--,0
12928,note_off,0,38,--,64,160
12929,note_on,0,43,--,64,0
12930,pitchwheel,0,--,1638,--,0
12931,note_off,0,43,--,64,320
12932,note_on,0,45,--,64,0
12933,pitchwheel,0,--,2047,--,0
12934,note_off,0,45,--,64,320
12935,note_on,0,47,--,64,0
12936,pitchwheel,0,--,2047,--,0
12937,note_off,0,47,--,64,160
12938,note_on,0,45,--,64,0
12939,note_off,0,45,--,64,160
12940,note_on,0,50,--,64,0
12941,pitchwheel,0,--,2457,--,0
12942,note_off,0,50,--,64,320
12943,note_on,0,50,--,64,0
12944,pitchwheel,0,--,819,--,0
12945,note_off,0,50,--,64,320
12946,note_on,0,51,--,64,0
12947,pitchwheel,0,--,819,--,0
12948,note_off,0,51,--,64,160
12949,note_on,0,50,--,64,0
12950,pitchwheel,0,--,819,--,0
12951,note_off,0,50,--,64,160
12952,note_on,0,50,--,64,0
12953,pitchwheel,0,--,1228,--,0
12954,note_off,0,50,--,64,320
12955,note_on,0,48,--,64,0
12956,pitchwheel,0,--,3276,--,0
12957,note_off,0,48,--,64,320
12958,note_on,0,53,--,64,0
12959,note_off,0,53,--,64,320
12960,note_on,0,48,--,64,0
12961,pitchwheel,0,--,3276,--,0
12962,note_off,0,48,--,64,320
12963,note_on,0,50,--,64,0
12964,pitchwheel,0,--,1228,--,0
12965,note_off,0,50,--,64,320
12966,note_on,0,45,--,64,0
12967,pitchwheel,0,--,2047,--,0
12968,note_off,0,45,--,64,160
12969,note_on,0,47,--,64,0
12970,pitchwheel,0,--,2457,--,0
12971,note_off,0,47,--,64,160
12972,note_on,0,52,--,64,0
12973,pitchwheel,0,--,2457,--,0
12974,note_off,0,52,--,64,320
12975,note_on,0,53,--,64,0
12976,pitchwheel,0,--,2457,--,0
12977,note_off,0,53,--,64,320
12978,note_on,0,52,--,64,0
12979,pitchwheel,0,--,2866,--,0
12980,note_off,0,52,--,64,160
12981,note_on,0,49,--,64,0
12982,note_off,0,49,--,64,160
12983,note_on,0,53,--,64,0
12984,note_off,0,53,--,64,320
12985,note_on,0,48,--,64,0
12986,pitchwheel,0,--,819,--,0
12987,note_off,0,48,--,64,320
12988,note_on,0,52,--,64,0
12989,note_off,0,52,--,64,160
12990,note_on,0,52,--,64,0
12991,pitchwheel,0,--,2457,--,0
12992,note_off,0,52,--,64,160
12993,note_on,0,53,--,64,0
12994,note_off,0,53,--,64,320
12995,note_on,0,51,--,64,0
12996,pitchwheel,0,--,819,--,0
12997,note_off,0,51,--,64,320
12998,note_on,0,45,--,64,0
12999,pitchwheel,0,--,1638,--,0
13000,note_off,0,45,--,64,160
13001,note_on,0,48,--,64,0
13002,pitchwheel,0,--,819,--,0
13003,note_off,0,48,--,64,160
13004,note_on,0,53,--,64,0
13005,pitchwheel,0,--,2457,--,0
13006,note_off,0,53,--,64,320
13007,note_on,0,47,--,64,0
13008,pitchwheel,0,--,3276,--,0
13009,note_off,0,47,--,64,320
13010,note_on,0,52,--,64,0
13011,pitchwheel,0,--,2457,--,0
13012,note_off,0,52,--,64,160
13013,note_on,0,50,--,64,0
13014,note_off,0,50,--,64,480
13015,note_on,0,50,--,64,0
13016,pitchwheel,0,--,819,--,0
13017,note_off,0,50,--,64,480
13018,note_on,0,50,--,64,0
13019,pitchwheel,0,--,2457,--,0
13020,note_off,0,50,--,64,160
13021,note_on,0,49,--,64,0
13022,note_off,0,49,--,64,320
13023,note_on,0,43,--,64,0
13024,note_off,0,43,--,64,320
13025,note_on,0,46,--,64,0
13026,note_off,0,46,--,64,160
13027,note_on,0,43,--,64,0
13028,note_off,0,43,--,64,160
13029,note_on,0,40,--,64,0
13030,pitchwheel,0,--,2866,--,0
13031,note_off,0,40,--,64,320
13032,note_on,0,41,--,64,0
13033,note_off,0,41,--,64,320
13034,note_on,0,47,--,64,0
13035,pitchwheel,0,--,3276,--,0
13036,note_off,0,47,--,64,160
13037,note_on,0,45,--,64,0
13038,pitchwheel,0,--,3276,--,0
13039,note_off,0,45,--,64,160
13040,note_on,0,47,--,64,0
13041,pitchwheel,0,--,3685,--,0
13042,note_off,0,47,--,64,320
13043,note_on,0,45,--,64,0
13044,pitchwheel,0,--,2047,--,0
13045,note_off,0,45,--,64,480
13046,note_on,0,40,--,64,0
13047,pitchwheel,0,--,2457,--,0
13048,note_off,0,40,--,64,320
13049,note_on,0,40,--,64,0
13050,pitchwheel,0,--,2866,--,0
13051,note_off,0,40,--,64,480
13052,note_on,0,36,--,64,0
13053,pitchwheel,0,--,2047,--,0
13054,note_off,0,36,--,64,160
13055,note_on,0,38,--,64,0
13056,pitchwheel,0,--,819,--,0
13057,note_off,0,38,--,64,320
13058,note_on,0,46,--,64,0
13059,pitchwheel,0,--,409,--,0
13060,note_off,0,46,--,64,320
13061,note_on,0,43,--,64,0
13062,pitchwheel,0,--,2866,--,0
13063,note_off,0,43,--,64,160
13064,note_on,0,38,--,64,0
13065,pitchwheel,0,--,819,--,0
13066,note_off,0,38,--,64,160
13067,note_on,0,40,--,64,0
13068,note_off,0,40,--,64,320
13069,note_on,0,41,--,64,0
13070,pitchwheel,0,--,2457,--,0
13071,note_off,0,41,--,64,320
13072,note_on,0,38,--,64,0
13073,pitchwheel,0,--,819,--,0
13074,note_off,0,38,--,64,320
13075,note_on,0,36,--,64,0
13076,pitchwheel,0,--,2047,--,0
13077,note_off,0,36,--,64,320
13078,note_on,0,45,--,64,0
13079,pitchwheel,0,--,2047,--,0
13080,note_off,0,45,--,64,320
13081,note_on,0,47,--,64,0
13082,pitchwheel,0,--,3685,--,0
13083,note_off,0,47,--,64,320
13084,note_on,0,36,--,64,0
13085,pitchwheel,0,--,2047,--,0
13086,note_off,0,36,--,64,320
13087,note_on,0,46,--,64,0
13088,pitchwheel,0,--,1638,--,0
13089,note_off,0,46,--,64,320
13090,note_on,0,38,--,64,0
13091,pitchwheel,0,--,2457,--,0
13092,note_off,0,38,--,64,320
13093,note_on,0,45,--,64,0
13094,note_off,0,45,--,64,320
13095,note_on,0,47,--,64,0
13096,pitchwheel,0,--,2047,--,0
13097,note_off,0,47,--,64,320
13098,note_on,0,44,--,64,0
13099,note_off,0,44,--,64,160
13100,note_on,0,40,--,64,0
13101,pitchwheel,0,--,2457,--,0
13102,note_off,0,40,--,64,160
13103,note_on,0,47,--,64,0
13104,pitchwheel,0,--,3685,--,0
13105,note_off,0,47,--,64,320
13106,note_on,0,47,--,64,0
13107,pitchwheel,0,--,3276,--,0
13108,note_off,0,47,--,64,480
13109,note_on,0,41,--,64,0
13110,note_off,0,41,--,64,160
13111,note_on,0,47,--,64,0
13112,pitchwheel,0,--,2047,--,0
13113,note_off,0,47,--,64,320
13114,note_on,0,41,--,64,0
13115,pitchwheel,0,--,1228,--,0
13116,note_off,0,41,--,64,480
13117,note_on,0,40,--,64,0
13118,pitchwheel,0,--,2457,--,0
13119,note_off,0,40,--,64,160
13120,note_on,0,47,--,64,0
13121,pitchwheel,0,--,3276,--,0
13122,note_off,0,47,--,64,320
13123,note_on,0,39,--,64,0
13124,pitchwheel,0,--,819,--,0
13125,note_off,0,39,--,64,320
13126,note_on,0,45,--,64,0
13127,note_off,0,45,--,64,320
13128,note_on,0,46,--,64,0
13129,note_off,0,46,--,64,320
13130,note_on,0,43,--,64,0
13131,pitchwheel,0,--,1638,--,0
13132,note_off,0,43,--,64,320
13133,note_on,0,47,--,64,0
13134,pitchwheel,0,--,2457,--,0
13135,note_off,0,47,--,64,160
13136,note_on,0,43,--,64,0
13137,note_off,0,43,--,64,480
13138,note_on,0,43,--,64,0
13139,pitchwheel,0,--,1638,--,0
13140,note_off,0,43,--,64,320
13141,note_on,0,45,--,64,0
13142,pitchwheel,0,--,1638,--,0
13143,note_off,0,45,--,64,320
13144,note_on,0,50,--,64,0
13145,pitchwheel,0,--,2457,--,0
13146,note_off,0,50,--,64,320
13147,note_on,0,45,--,64,0
13148,pitchwheel,0,--,2047,--,0
13149,note_off,0,45,--,64,320
13150,note_on,0,45,--,64,0
13151,pitchwheel,0,--,1638,--,0
13152,note_off,0,45,--,64,160
13153,note_on,0,43,--,64,0
13154,pitchwheel,0,--,1638,--,0
13155,note_off,0,43,--,64,160
13156,note_on,0,38,--,64,0
13157,pitchwheel,0,--,819,--,0
13158,note_off,0,38,--,64,320
13159,note_on,0,47,--,64,0
13160,pitchwheel,0,--,2457,--,0
13161,note_off,0,47,--,64,320
13162,note_on,0,45,--,64,0
13163,note_off,0,45,--,64,320
13164,note_on,0,41,--,64,0
13165,note_off,0,41,--,64,320
13166,note_on,0,43,--,64,0
13167,note_off,0,43,--,64,320
13168,note_on,0,44,--,64,0
13169,note_off,0,44,--,64,160
13170,note_on,0,45,--,64,0
13171,pitchwheel,0,--,1638,--,0
13172,note_off,0,45,--,64,480
13173,note_on,0,46,--,64,0
13174,pitchwheel,0,--,1638,--,0
13175,note_off,0,46,--,64,320
13176,note_on,0,45,--,64,0
13177,pitchwheel,0,--,2047,--,0
13178,note_off,0,45,--,64,160
13179,note_on,0,45,--,64,0
13180,pitchwheel,0,--,3276,--,0
13181,note_off,0,45,--,64,160
13182,note_on,0,44,--,64,0
13183,note_off,0,44,--,64,320
13184,note_on,0,40,--,64,0
13185,note_off,0,40,--,64,320
13186,note_on,0,38,--,64,0
13187,pitchwheel,0,--,3685,--,0
13188,note_off,0,38,--,64,160
13189,note_on,0,41,--,64,0
13190,note_off,0,41,--,64,160
13191,note_on,0,40,--,64,0
13192,pitchwheel,0,--,2457,--,0
13193,note_off,0,40,--,64,320
13194,note_on,0,46,--,64,0
13195,pitchwheel,0,--,1638,--,0
13196,note_off,0,46,--,64,320
13197,note_on,0,50,--,64,0
13198,pitchwheel,0,--,1228,--,0
13199,note_off,0,50,--,64,160
13200,note_on,0,50,--,64,0
13201,pitchwheel,0,--,3685,--,0
13202,note_off,0,50,--,64,160
13203,note_on,0,48,--,64,0
13204,pitchwheel,0,--,2047,--,0
13205,note_off,0,48,--,64,320
13206,note_on,0,53,--,64,0
13207,note_off,0,53,--,64,320
13208,note_on,0,58,--,64,0
13209,pitchwheel,0,--,1638,--,0
13210,note_off,0,58,--,64,160
13211,note_on,0,59,--,64,0
13212,pitchwheel,0,--,3276,--,0
13213,note_off,0,59,--,64,160
13214,note_on,0,53,--,64,0
13215,note_off,0,53,--,64,320
13216,note_on,0,55,--,64,0
13217,pitchwheel,0,--,1638,--,0
13218,note_off,0,55,--,64,320
13219,note_on,0,59,--,64,0
13220,pitchwheel,0,--,2457,--,0
13221,note_off,0,59,--,64,160
13222,note_on,0,48,--,64,0
13223,pitchwheel,0,--,819,--,0
13224,note_off,0,48,--,64,160
13225,note_on,0,48,--,64,0
13226,pitchwheel,0,--,3276,--,0
13227,note_off,0,48,--,64,320
13228,note_on,0,48,--,64,0
13229,pitchwheel,0,--,2047,--,0
13230,note_off,0,48,--,64,320
13231,note_on,0,53,--,64,0
13232,note_off,0,53,--,64,320
13233,note_on,0,52,--,64,0
13234,note_off,0,52,--,64,320
13235,note_on,0,52,--,64,0
13236,pitchwheel,0,--,1638,--,0
13237,note_off,0,52,--,64,160
13238,note_on,0,53,--,64,0
13239,note_off,0,53,--,64,480
13240,note_on,0,52,--,64,0
13241,pitchwheel,0,--,1638,--,0
13242,note_off,0,52,--,64,320
13243,note_on,0,48,--,64,0
13244,pitchwheel,0,--,2047,--,0
13245,note_off,0,48,--,64,160
13246,note_on,0,59,--,64,0
13247,pitchwheel,0,--,3276,--,0
13248,note_off,0,59,--,64,160
13249,note_on,0,52,--,64,0
13250,note_off,0,52,--,64,320
13251,note_on,0,51,--,64,0
13252,pitchwheel,0,--,819,--,0
13253,note_off,0,51,--,64,480
13254,note_on,0,57,--,64,0
13255,note_off,0,57,--,64,160
13256,note_on,0,56,--,64,0
13257,note_off,0,56,--,64,320
13258,note_on,0,58,--,64,0
13259,note_off,0,58,--,64,320
13260,note_on,0,52,--,64,0
13261,note_off,0,52,--,64,320
13262,note_on,0,50,--,64,0
13263,pitchwheel,0,--,819,--,0
13264,note_off,0,50,--,64,320
13265,note_on,0,51,--,64,0
13266,pitchwheel,0,--,819,--,0
13267,note_off,0,51,--,64,320
13268,note_on,0,52,--,64,0
13269,pitchwheel,0,--,2866,--,0
13270,note_off,0,52,--,64,320
13271,note_on,0,53,--,64,0
13272,note_off,0,53,--,64,320
13273,note_on,0,52,--,64,0
13274,pitchwheel,0,--,2457,--,0
13275,note_off,0,52,--,64,320
13276,note_on,0,51,--,64,0
13277,pitchwheel,0,--,819,--,0
13278,note_off,0,51,--,64,160
13279,note_on,0,50,--,64,0
13280,pitchwheel,0,--,819,--,0
13281,note_off,0,50,--,64,160
13282,note_on,0,45,--,64,0
13283,note_off,0,45,--,64,320
13284,note_on,0,41,--,64,0
13285,pitchwheel,0,--,2457,--,0
13286,note_off,0,41,--,64,320
13287,note_on,0,40,--,64,0
13288,pitchwheel,0,--,2457,--,0
13289,note_off,0,40,--,64,160
13290,note_on,0,45,--,64,0
13291,pitchwheel,0,--,3276,--,0
13292,note_off,0,45,--,64,160
13293,note_on,0,41,--,64,0
13294,pitchwheel,0,--,2457,--,0
13295,note_off,0,41,--,64,320
13296,note_on,0,45,--,64,0
13297,pitchwheel,0,--,2047,--,0
13298,note_off,0,45,--,64,320
13299,note_on,0,40,--,64,0
13300,pitchwheel,0,--,2457,--,0
13301,note_off,0,40,--,64,160
13302,note_on,0,43,--,64,0
13303,note_off,0,43,--,64,160
13304,note_on,0,45,--,64,0
13305,pitchwheel,0,--,2047,--,0
13306,note_off,0,45,--,64,320
13307,note_on,0,44,--,64,0
13308,note_off,0,44,--,64,320
13309,note_on,0,44,--,64,0
13310,pitchwheel,0,--,2047,--,0
13311,note_off,0,44,--,64,160
13312,note_on,0,45,--,64,0
13313,note_off,0,45,--,64,160
13314,note_on,0,41,--,64,0
13315,note_off,0,41,--,64,320
13316,note_on,0,43,--,64,0
13317,note_off,0,43,--,64,320
13318,note_on,0,44,--,64,0
13319,note_off,0,44,--,64,160
13320,note_on,0,40,--,64,0
13321,pitchwheel,0,--,2457,--,0
13322,note_off,0,40,--,64,160
13323,note_on,0,45,--,64,0
13324,pitchwheel,0,--,2047,--,0
13325,note_off,0,45,--,64,320
13326,note_on,0,49,--,64,0
13327,note_off,0,49,--,64,320
13328,note_on,0,47,--,64,0
13329,pitchwheel,0,--,3685,--,0
13330,note_off,0,47,--,64,640
13331,note_on,0,50,--,64,0
13332,note_off,0,50,--,64,320
13333,note_on,0,45,--,64,0
13334,note_off,0,45,--,64,160
13335,note_on,0,46,--,64,0
13336,pitchwheel,0,--,409,--,0
13337,note_off,0,46,--,64,160
13338,note_on,0,45,--,64,0
13339,pitchwheel,0,--,1638,--,0
13340,note_off,0,45,--,64,320
13341,note_on,0,46,--,64,0
13342,note_off,0,46,--,64,320
13343,note_on,0,47,--,64,0
13344,pitchwheel,0,--,3685,--,0
13345,note_off,0,47,--,64,160
13346,note_on,0,47,--,64,0
13347,pitchwheel,0,--,2047,--,0
13348,note_off,0,47,--,64,160
13349,note_on,0,48,--,64,0
13350,pitchwheel,0,--,819,--,0
13351,note_off,0,48,--,64,640
13352,note_on,0,48,--,64,0
13353,pitchwheel,0,--,3276,--,0
13354,note_off,0,48,--,64,160
13355,note_on,0,43,--,64,0
13356,note_off,0,43,--,64,160
13357,note_on,0,41,--,64,0
13358,note_off,0,41,--,64,320
13359,note_on,0,46,--,64,0
13360,pitchwheel,0,--,1638,--,0
13361,note_off,0,46,--,64,320
13362,note_on,0,45,--,64,0
13363,pitchwheel,0,--,1638,--,0
13364,note_off,0,45,--,64,160
13365,note_on,0,41,--,64,0
13366,note_off,0,41,--,64,160
13367,note_on,0,44,--,64,0
13368,note_off,0,44,--,64,320
13369,note_on,0,38,--,64,0
13370,pitchwheel,0,--,2457,--,0
13371,note_off,0,38,--,64,320
13372,note_on,0,46,--,64,0
13373,pitchwheel,0,--,409,--,0
13374,note_off,0,46,--,64,160
13375,note_on,0,36,--,64,0
13376,pitchwheel,0,--,2047,--,0
13377,note_off,0,36,--,64,480
13378,note_on,0,44,--,64,0
13379,note_off,0,44,--,64,480
13380,note_on,0,38,--,64,0
13381,pitchwheel,0,--,2457,--,0
13382,note_off,0,38,--,64,160
13383,note_on,0,40,--,64,0
13384,note_off,0,40,--,64,320
13385,note_on,0,45,--,64,0
13386,note_off,0,45,--,64,320
13387,note_on,0,45,--,64,0
13388,pitchwheel,0,--,3276,--,0
13389,note_off,0,45,--,64,160
13390,note_on,0,45,--,64,0
13391,pitchwheel,0,--,1638,--,0
13392,note_off,0,45,--,64,160
13393,note_on,0,41,--,64,0
13394,note_off,0,41,--,64,320
13395,note_on,0,36,--,64,0
13396,pitchwheel,0,--,3276,--,0
13397,note_off,0,36,--,64,320
13398,note_on,0,43,--,64,0
13399,note_off,0,43,--,64,160
13400,note_on,0,38,--,64,0
13401,pitchwheel,0,--,2457,--,0
13402,note_off,0,38,--,64,480
13403,note_on,0,38,--,64,0
13404,pitchwheel,0,--,1228,--,0
13405,note_off,0,38,--,64,320
13406,note_on,0,36,--,64,0
13407,pitchwheel,0,--,819,--,0
13408,note_off,0,36,--,64,320
13409,note_on,0,38,--,64,0
13410,pitchwheel,0,--,819,--,0
13411,note_off,0,38,--,64,320
13412,note_on,0,38,--,64,0
13413,pitchwheel,0,--,2457,--,0
13414,note_off,0,38,--,64,640
13415,note_on,0,38,--,64,0
13416,pitchwheel,0,--,1228,--,0
13417,note_off,0,38,--,64,320
13418,note_on,0,47,--,64,0
13419,pitchwheel,0,--,2457,--,0
13420,note_off,0,47,--,64,320
13421,note_on,0,45,--,64,0
13422,pitchwheel,0,--,2047,--,0
13423,note_off,0,45,--,64,160
13424,note_on,0,43,--,64,0
13425,note_off,0,43,--,64,480
13426,note_on,0,38,--,64,0
13427,pitchwheel,0,--,2457,--,0
13428,note_off,0,38,--,64,320
13429,note_on,0,40,--,64,0
13430,pitchwheel,0,--,2457,--,0
13431,note_off,0,40,--,64,160
13432,note_on,0,40,--,64,0
13433,note_off,0,40,--,64,160
13434,note_on,0,36,--,64,0
13435,pitchwheel,0,--,3276,--,0
13436,note_off,0,36,--,64,320
13437,note_on,0,36,--,64,0
13438,pitchwheel,0,--,819,--,0
13439,note_off,0,36,--,64,320
13440,note_on,0,47,--,64,0
13441,pitchwheel,0,--,3276,--,0
13442,note_off,0,47,--,64,320
13443,note_on,0,38,--,64,0
13444,note_off,0,38,--,64,320
13445,note_on,0,38,--,64,0
13446,pitchwheel,0,--,3685,--,0
13447,note_off,0,38,--,64,320
13448,note_on,0,38,--,64,0
13449,pitchwheel,0,--,2457,--,0
13450,note_off,0,38,--,64,320
13451,note_on,0,45,--,64,0
13452,pitchwheel,0,--,3276,--,0
13453,note_off,0,45,--,64,320
13454,note_on,0,43,--,64,0
13455,note_off,0,43,--,64,320
13456,note_on,0,45,--,64,0
13457,pitchwheel,0,--,2047,--,0
13458,note_off,0,45,--,64,160
13459,note_on,0,40,--,64,0
13460,pitchwheel,0,--,2457,--,0
13461,note_off,0,40,--,64,160
13462,note_on,0,45,--,64,0
13463,pitchwheel,0,--,3276,--,0
13464,note_off,0,45,--,64,320
13465,note_on,0,45,--,64,0
13466,pitchwheel,0,--,2047,--,0
13467,note_off,0,45,--,64,480
13468,note_on,0,41,--,64,0
13469,pitchwheel,0,--,1228,--,0
13470,note_off,0,41,--,64,160
13471,note_on,0,44,--,64,0
13472,pitchwheel,0,--,2047,--,0
13473,note_off,0,44,--,64,320
13474,note_on,0,41,--,64,0
13475,note_off,0,41,--,64,320
13476,note_on,0,38,--,64,0
13477,pitchwheel,0,--,2457,--,0
13478,note_off,0,38,--,64,160
13479,note_on,0,45,--,64,0
13480,pitchwheel,0,--,1638,--,0
13481,note_off,0,45,--,64,480
13482,note_on,0,44,--,64,0
13483,note_off,0,44,--,64,320
13484,note_on,0,41,--,64,0
13485,note_off,0,41,--,64,160
13486,note_on,0,45,--,64,0
13487,note_off,0,45,--,64,160
13488,note_on,0,46,--,64,0
13489,note_off,0,46,--,64,320
13490,note_on,0,41,--,64,0
13491,note_off,0,41,--,64,320
13492,note_on,0,44,--,64,0
13493,note_off,0,44,--,64,160
13494,note_on,0,38,--,64,0
13495,pitchwheel,0,--,819,--,0
13496,note_off,0,38,--,64,480
13497,note_on,0,40,--,64,0
13498,note_off,0,40,--,64,320
13499,note_on,0,47,--,64,0
13500,pitchwheel,0,--,3276,--,0
13501,note_off,0,47,--,64,320
13502,note_on,0,46,--,64,0
13503,pitchwheel,0,--,1638,--,0
13504,note_off,0,46,--,64,320
13505,note_on,0,38,--,64,0
13506,pitchwheel,0,--,2457,--,0
13507,note_off,0,38,--,64,320
13508,note_on,0,40,--,64,0
13509,pitchwheel,0,--,2866,--,0
13510,note_off,0,40,--,64,160
13511,note_on,0,45,--,64,0
13512,pitchwheel,0,--,2047,--,0
13513,note_off,0,45,--,64,160
13514,note_on,0,50,--,64,0
13515,pitchwheel,0,--,819,--,0
13516,note_off,0,50,--,64,320
13517,note_on,0,50,--,64,0
13518,note_off,0,50,--,64,320
13519,note_on,0,45,--,64,0
13520,note_off,0,45,--,64,160
13521,note_on,0,44,--,64,0
13522,pitchwheel,0,--,2047,--,0
13523,note_off,0,44,--,64,480
13524,note_on,0,50,--,64,0
13525,note_off,0,50,--,64,320
13526,note_on,0,48,--,64,0
13527,pitchwheel,0,--,3276,--,0
13528,note_off,0,48,--,64,160
13529,note_on,0,47,--,64,0
13530,pitchwheel,0,--,3276,--,0
13531,note_off,0,47,--,64,480
13532,note_on,0,45,--,64,0
13533,note_off,0,45,--,64,320
13534,note_on,0,47,--,64,0
13535,pitchwheel,0,--,2457,--,0
13536,note_off,0,47,--,64,160
13537,note_on,0,48,--,64,0
13538,pitchwheel,0,--,2047,--,0
13539,note_off,0,48,--,64,160
13540,note_on,0,46,--,64,0
13541,pitchwheel,0,--,1638,--,0
13542,note_off,0,46,--,64,320
13543,note_on,0,40,--,64,0
13544,pitchwheel,0,--,2457,--,0
13545,note_off,0,40,--,64,320
13546,note_on,0,36,--,64,0
13547,pitchwheel,0,--,819,--,0
13548,note_off,0,36,--,64,160
13549,note_on,0,43,--,64,0
13550,pitchwheel,0,--,409,--,0
13551,note_off,0,43,--,64,160
13552,note_on,0,40,--,64,0
13553,pitchwheel,0,--,2457,--,0
13554,note_off,0,40,--,64,320
13555,note_on,0,39,--,64,0
13556,pitchwheel,0,--,819,--,0
13557,note_off,0,39,--,64,320
13558,note_on,0,36,--,64,0
13559,pitchwheel,0,--,819,--,0
13560,note_off,0,36,--,64,160
13561,note_on,0,41,--,64,0
13562,note_off,0,41,--,64,160
13563,note_on,0,47,--,64,0
13564,pitchwheel,0,--,3276,--,0
13565,note_off,0,47,--,64,320
13566,note_on,0,43,--,64,0
13567,pitchwheel,0,--,1638,--,0
13568,note_off,0,43,--,64,320
13569,note_on,0,47,--,64,0
13570,pitchwheel,0,--,2457,--,0
13571,note_off,0,47,--,64,160
13572,note_on,0,45,--,64,0
13573,pitchwheel,0,--,1638,--,0
13574,note_off,0,45,--,64,160
13575,note_on,0,50,--,64,0
13576,pitchwheel,0,--,2457,--,0
13577,note_off,0,50,--,64,320
13578,note_on,0,45,--,64,0
13579,note_off,0,45,--,64,320
13580,note_on,0,43,--,64,0
13581,note_off,0,43,--,64,160
13582,note_on,0,46,--,64,0
13583,pitchwheel,0,--,409,--,0
13584,note_off,0,46,--,64,160
13585,note_on,0,41,--,64,0
13586,note_off,0,41,--,64,320
13587,note_on,0,45,--,64,0
13588,pitchwheel,0,--,3276,--,0
13589,note_off,0,45,--,64,320
13590,note_on,0,45,--,64,0
13591,pitchwheel,0,--,2047,--,0
13592,note_off,0,45,--,64,320
13593,note_on,0,45,--,64,0
13594,pitchwheel,0,--,1638,--,0
13595,note_off,0,45,--,64,320
13596,note_on,0,48,--,64,0
13597,pitchwheel,0,--,2047,--,0
13598,note_off,0,48,--,64,160
13599,note_on,0,52,--,64,0
13600,pitchwheel,0,--,1638,--,0
13601,note_off,0,52,--,64,480
13602,note_on,0,53,--,64,0
13603,note_off,0,53,--,64,320
13604,note_on,0,53,--,64,0
13605,pitchwheel,0,--,2457,--,0
13606,note_off,0,53,--,64,160
13607,note_on,0,57,--,64,0
13608,pitchwheel,0,--,1638,--,0
13609,note_off,0,57,--,64,480
13610,note_on,0,56,--,64,0
13611,note_off,0,56,--,64,480
13612,note_on,0,50,--,64,0
13613,pitchwheel,0,--,2457,--,0
13614,note_off,0,50,--,64,160
13615,note_on,0,46,--,64,0
13616,pitchwheel,0,--,1638,--,0
13617,note_off,0,46,--,64,320
13618,note_on,0,40,--,64,0
13619,pitchwheel,0,--,2457,--,0
13620,note_off,0,40,--,64,320
13621,note_on,0,47,--,64,0
13622,pitchwheel,0,--,2047,--,0
13623,note_off,0,47,--,64,320
13624,note_on,0,40,--,64,0
13625,pitchwheel,0,--,2457,--,0
13626,note_off,0,40,--,64,320
13627,note_on,0,39,--,64,0
13628,pitchwheel,0,--,819,--,0
13629,note_off,0,39,--,64,320
13630,note_on,0,41,--,64,0
13631,note_off,0,41,--,64,320
13632,note_on,0,41,--,64,0
13633,pitchwheel,0,--,1228,--,0
13634,note_off,0,41,--,64,320
13635,note_on,0,40,--,64,0
13636,pitchwheel,0,--,2457,--,0
13637,note_off,0,40,--,64,320
13638,note_on,0,39,--,64,0
13639,pitchwheel,0,--,819,--,0
13640,note_off,0,39,--,64,160
13641,note_on,0,43,--,64,0
13642,note_off,0,43,--,64,160
13643,note_on,0,45,--,64,0
13644,note_off,0,45,--,64,320
13645,note_on,0,46,--,64,0
13646,note_off,0,46,--,64,320
13647,note_on,0,43,--,64,0
13648,note_off,0,43,--,64,160
13649,note_on,0,48,--,64,0
13650,pitchwheel,0,--,2047,--,0
13651,note_off,0,48,--,64,160
13652,note_on,0,43,--,64,0
13653,pitchwheel,0,--,1638,--,0
13654,note_off,0,43,--,64,320
13655,note_on,0,48,--,64,0
13656,pitchwheel,0,--,819,--,0
13657,note_off,0,48,--,64,320
13658,note_on,0,43,--,64,0
13659,pitchwheel,0,--,409,--,0
13660,note_off,0,43,--,64,160
13661,note_on,0,47,--,64,0
13662,pitchwheel,0,--,3276,--,0
13663,note_off,0,47,--,64,160
13664,note_on,0,43,--,64,0
13665,pitchwheel,0,--,1638,--,0
13666,note_off,0,43,--,64,800
13667,note_on,0,45,--,64,0
13668,note_off,0,45,--,64,160
13669,note_on,0,41,--,64,0
13670,note_off,0,41,--,64,320
13671,note_on,0,45,--,64,0
13672,pitchwheel,0,--,1638,--,0
13673,note_off,0,45,--,64,320
13674,note_on,0,46,--,64,0
13675,pitchwheel,0,--,1638,--,0
13676,note_off,0,46,--,64,160
13677,note_on,0,40,--,64,0
13678,pitchwheel,0,--,2457,--,0
13679,note_off,0,40,--,64,160
13680,note_on,0,45,--,64,0
13681,pitchwheel,0,--,3276,--,0
13682,note_off,0,45,--,64,320
13683,note_on,0,47,--,64,0
13684,pitchwheel,0,--,3276,--,0
13685,note_off,0,47,--,64,320
13686,note_on,0,53,--,64,0
13687,note_off,0,53,--,64,320
13688,note_on,0,50,--,64,0
13689,pitchwheel,0,--,1228,--,0
13690,note_off,0,50,--,64,320
13691,note_on,0,50,--,64,0
13692,pitchwheel,0,--,819,--,0
13693,note_off,0,50,--,64,320
13694,note_on,0,53,--,64,0
13695,note_off,0,53,--,64,160
13696,note_on,0,57,--,64,0
13697,pitchwheel,0,--,2047,--,0
13698,note_off,0,57,--,64,160
13699,note_on,0,59,--,64,0
13700,pitchwheel,0,--,3276,--,0
13701,note_off,0,59,--,64,320
13702,note_on,0,56,--,64,0
13703,note_off,0,56,--,64,320
13704,note_on,0,48,--,64,0
13705,pitchwheel,0,--,819,--,0
13706,note_off,0,48,--,64,160
13707,note_on,0,53,--,64,0
13708,note_off,0,53,--,64,160
13709,note_on,0,48,--,64,0
13710,pitchwheel,0,--,2047,--,0
13711,note_off,0,48,--,64,320
13712,note_on,0,43,--,64,0
13713,pitchwheel,0,--,2866,--,0
13714,note_off,0,43,--,64,320
13715,note_on,0,47,--,64,0
13716,pitchwheel,0,--,2047,--,0
13717,note_off,0,47,--,64,160
13718,note_on,0,50,--,64,0
13719,pitchwheel,0,--,819,--,0
13720,note_off,0,50,--,64,160
13721,note_on,0,53,--,64,0
13722,note_off,0,53,--,64,320
13723,note_on,0,52,--,64,0
13724,pitchwheel,0,--,1638,--,0
13725,note_off,0,52,--,64,320
13726,note_on,0,47,--,64,0
13727,pitchwheel,0,--,3276,--,0
13728,note_off,0,47,--,64,160
13729,note_on,0,43,--,64,0
13730,pitchwheel,0,--,2866,--,0
13731,note_off,0,43,--,64,160
13732,note_on,0,39,--,64,0
13733,pitchwheel,0,--,819,--,0
13734,note_off,0,39,--,64,320
13735,note_on,0,45,--,64,0
13736,note_off,0,45,--,64,320
13737,note_on,0,46,--,64,0
13738,note_off,0,46,--,64,160
13739,note_on,0,47,--,64,0
13740,pitchwheel,0,--,3685,--,0
13741,note_off,0,47,--,64,480
13742,note_on,0,45,--,64,0
13743,pitchwheel,0,--,3276,--,0
13744,note_off,0,45,--,64,480
13745,note_on,0,50,--,64,0
13746,note_off,0,50,--,64,160
13747,note_on,0,44,--,64,0
13748,pitchwheel,0,--,2047,--,0
13749,note_off,0,44,--,64,320
13750,note_on,0,50,--,64,0
13751,pitchwheel,0,--,819,--,0
13752,note_off,0,50,--,64,320
13753,note_on,0,53,--,64,0
13754,pitchwheel,0,--,2457,--,0
13755,note_off,0,53,--,64,160
13756,note_on,0,47,--,64,0
13757,pitchwheel,0,--,3276,--,0
13758,note_off,0,47,--,64,160
13759,note_on,0,45,--,64,0
13760,pitchwheel,0,--,3276,--,0
13761,note_off,0,45,--,64,320
13762,note_on,0,45,--,64,0
13763,pitchwheel,0,--,2047,--,0
13764,note_off,0,45,--,64,320
13765,note_on,0,43,--,64,0
13766,note_off,0,43,--,64,160
13767,note_on,0,41,--,64,0
13768,pitchwheel,0,--,1228,--,0
13769,note_off,0,41,--,64,160
13770,note_on,0,44,--,64,0
13771,note_off,0,44,--,64,320
13772,note_on,0,45,--,64,0
13773,note_off,0,45,--,64,480
13774,note_on,0,40,--,64,0
13775,pitchwheel,0,--,2457,--,0
13776,note_off,0,40,--,64,320
13777,note_on,0,37,--,64,0
13778,note_off,0,37,--,64,480
13779,note_on,0,41,--,64,0
13780,note_off,0,41,--,64,160
13781,note_on,0,45,--,64,0
13782,pitchwheel,0,--,1638,--,0
13783,note_off,0,45,--,64,320
13784,note_on,0,46,--,64,0
13785,pitchwheel,0,--,409,--,0
13786,note_off,0,46,--,64,320
13787,note_on,0,46,--,64,0
13788,note_off,0,46,--,64,160
13789,note_on,0,45,--,64,0
13790,pitchwheel,0,--,1638,--,0
13791,note_off,0,45,--,64,160
13792,note_on,0,47,--,64,0
13793,pitchwheel,0,--,2047,--,0
13794,note_off,0,47,--,64,320
13795,note_on,0,48,--,64,0
13796,pitchwheel,0,--,819,--,0
13797,note_off,0,48,--,64,320
13798,note_on,0,43,--,64,0
13799,note_off,0,43,--,64,160
13800,note_on,0,48,--,64,0
13801,pitchwheel,0,--,2047,--,0
13802,note_off,0,48,--,64,160
13803,note_on,0,46,--,64,0
13804,pitchwheel,0,--,1638,--,0
13805,note_off,0,46,--,64,320
13806,note_on,0,47,--,64,0
13807,pitchwheel,0,--,2457,--,0
13808,note_off,0,47,--,64,320
13809,note_on,0,45,--,64,0
13810,pitchwheel,0,--,2047,--,0
13811,note_off,0,45,--,64,320
13812,note_on,0,48,--,64,0
13813,pitchwheel,0,--,2047,--,0
13814,note_off,0,48,--,64,320
13815,note_on,0,44,--,64,0
13816,note_off,0,44,--,64,320
13817,note_on,0,38,--,64,0
13818,pitchwheel,0,--,2457,--,0
13819,note_off,0,38,--,64,320
13820,note_on,0,45,--,64,0
13821,note_off,0,45,--,64,320
13822,note_on,0,45,--,64,0
13823,pitchwheel,0,--,1638,--,0
13824,note_off,0,45,--,64,320
13825,note_on,0,36,--,64,0
13826,pitchwheel,0,--,3276,--,0
13827,note_off,0,36,--,64,160
13828,note_on,0,43,--,64,0
13829,note_off,0,43,--,64,160
13830,note_on,0,38,--,64,0
13831,pitchwheel,0,--,2457,--,0
13832,note_off,0,38,--,64,320
13833,note_on,0,38,--,64,0
13834,pitchwheel,0,--,1228,--,0
13835,note_off,0,38,--,64,480
13836,note_on,0,36,--,64,0
13837,pitchwheel,0,--,2047,--,0
13838,note_off,0,36,--,64,160
13839,note_on,0,38,--,64,0
13840,pitchwheel,0,--,2457,--,0
13841,note_off,0,38,--,64,320
13842,note_on,0,36,--,64,0
13843,pitchwheel,0,--,819,--,0
13844,note_off,0,36,--,64,480
13845,note_on,0,47,--,64,0
13846,pitchwheel,0,--,3276,--,0
13847,note_off,0,47,--,64,160
13848,note_on,0,43,--,64,0
13849,note_off,0,43,--,64,320
13850,note_on,0,46,--,64,0
13851,pitchwheel,0,--,1638,--,0
13852,note_off,0,46,--,64,320
13853,note_on,0,40,--,64,0
13854,note_off,0,40,--,64,160
13855,note_on,0,45,--,64,0
13856,note_off,0,45,--,64,160
13857,note_on,0,45,--,64,0
13858,pitchwheel,0,--,2047,--,0
13859,note_off,0,45,--,64,320
13860,note_on,0,50,--,64,0
13861,pitchwheel,0,--,3685,--,0
13862,note_off,0,50,--,64,320
13863,note_on,0,46,--,64,0
13864,note_off,0,46,--,64,160
13865,note_on,0,40,--,64,0
13866,pitchwheel,0,--,2457,--,0
13867,note_off,0,40,--,64,480
13868,note_on,0,39,--,64,0
13869,pitchwheel,0,--,819,--,0
13870,note_off,0,39,--,64,320
13871,note_on,0,40,--,64,0
13872,pitchwheel,0,--,2457,--,0
13873,note_off,0,40,--,64,320
13874,note_on,0,39,--,64,0
13875,pitchwheel,0,--,819,--,0
13876,note_off,0,39,--,64,320
13877,note_on,0,41,--,64,0
13878,pitchwheel,0,--,1228,--,0
13879,note_off,0,41,--,64,320
13880,note_on,0,41,--,64,0
13881,note_off,0,41,--,64,160
13882,note_on,0,47,--,64,0
13883,pitchwheel,0,--,2457,--,0
13884,note_off,0,47,--,64,160
13885,note_on,0,45,--,64,0
13886,pitchwheel,0,--,1638,--,0
13887,note_off,0,45,--,64,320
13888,note_on,0,46,--,64,0
13889,pitchwheel,0,--,409,--,0
13890,note_off,0,46,--,64,320
13891,note_on,0,45,--,64,0
13892,note_off,0,45,--,64,160
13893,note_on,0,44,--,64,0
13894,pitchwheel,0,--,2047,--,0
13895,note_off,0,44,--,64,160
13896,note_on,0,41,--,64,0
13897,note_off,0,41,--,64,320
13898,note_on,0,38,--,64,0
13899,pitchwheel,0,--,819,--,0
13900,note_off,0,38,--,64,960
13901,note_on,0,39,--,64,0
13902,pitchwheel,0,--,819,--,0
13903,note_off,0,39,--,64,320
13904,note_on,0,45,--,64,0
13905,pitchwheel,0,--,2047,--,0
13906,note_off,0,45,--,64,160
13907,note_on,0,43,--,64,0
13908,pitchwheel,0,--,2866,--,0
13909,note_off,0,43,--,64,160
13910,note_on,0,44,--,64,0
13911,note_off,0,44,--,64,320
13912,note_on,0,44,--,64,0
13913,pitchwheel,0,--,2047,--,0
13914,note_off,0,44,--,64,320
13915,note_on,0,38,--,64,0
13916,note_off,0,38,--,64,320
13917,note_on,0,47,--,64,0
13918,pitchwheel,0,--,3276,--,0
13919,note_off,0,47,--,64,320
13920,note_on,0,45,--,64,0
13921,note_off,0,45,--,64,320
13922,note_on,0,36,--,64,0
13923,pitchwheel,0,--,2047,--,0
13924,note_off,0,36,--,64,160
13925,note_on,0,38,--,64,0
13926,pitchwheel,0,--,2457,--,0
13927,note_off,0,38,--,64,160
13928,note_on,0,40,--,64,0
13929,pitchwheel,0,--,2457,--,0
13930,note_off,0,40,--,64,320
13931,note_on,0,43,--,64,0
13932,pitchwheel,0,--,409,--,0
13933,note_off,0,43,--,64,320
13934,note_on,0,44,--,64,0
13935,note_off,0,44,--,64,160
13936,note_on,0,47,--,64,0
13937,pitchwheel,0,--,3276,--,0
13938,note_off,0,47,--,64,160
13939,note_on,0,53,--,64,0
13940,note_off,0,53,--,64,320
13941,note_on,0,55,--,64,0
13942,pitchwheel,0,--,1638,--,0
13943,note_off,0,55,--,64,320
13944,note_on,0,57,--,64,0
13945,pitchwheel,0,--,1638,--,0
13946,note_off,0,57,--,64,160
13947,note_on,0,53,--,64,0
13948,pitchwheel,0,--,1228,--,0
13949,note_off,0,53,--,64,160
13950,note_on,0,58,--,64,0
13951,pitchwheel,0,--,1638,--,0
13952,note_off,0,58,--,64,320
13953,note_on,0,58,--,64,0
13954,pitchwheel,0,--,409,--,0
13955,note_off,0,58,--,64,320
13956,note_on,0,57,--,64,0
13957,pitchwheel,0,--,3276,--,0
13958,note_off,0,57,--,64,320
13959,note_on,0,58,--,64,0
13960,pitchwheel,0,--,1638,--,0
13961,note_off,0,58,--,64,320
13962,note_on,0,52,--,64,0
13963,pitchwheel,0,--,1638,--,0
13964,note_off,0,52,--,64,160
13965,note_on,0,53,--,64,0
13966,note_off,0,53,--,64,480
13967,note_on,0,57,--,64,0
13968,pitchwheel,0,--,1638,--,0
13969,note_off,0,57,--,64,320
13970,note_on,0,56,--,64,0
13971,note_off,0,56,--,64,160
13972,note_on,0,50,--,64,0
13973,pitchwheel,0,--,819,--,0
13974,note_off,0,50,--,64,160
13975,note_on,0,50,--,64,0
13976,pitchwheel,0,--,2457,--,0
13977,note_off,0,50,--,64,320
13978,note_on,0,52,--,64,0
13979,pitchwheel,0,--,2457,--,0
13980,note_off,0,52,--,64,480
13981,note_on,0,51,--,64,0
13982,pitchwheel,0,--,819,--,0
13983,note_off,0,51,--,64,320
13984,note_on,0,52,--,64,0
13985,pitchwheel,0,--,2457,--,0
13986,note_off,0,52,--,64,320
13987,note_on,0,57,--,64,0
13988,note_off,0,57,--,64,320
13989,note_on,0,55,--,64,0
13990,note_off,0,55,--,64,320
13991,note_on,0,58,--,64,0
13992,note_off,0,58,--,64,320
13993,note_on,0,48,--,64,0
13994,pitchwheel,0,--,2047,--,0
13995,note_off,0,48,--,64,320
13996,note_on,0,48,--,64,0
13997,pitchwheel,0,--,819,--,0
13998,note_off,0,48,--,64,320
13999,note_on,0,56,--,64,0
14000,pitchwheel,0,--,2047,--,0
14001,note_off,0,56,--,64,320
14002,note_on,0,55,--,64,0
14003,pitchwheel,0,--,1638,--,0
14004,note_off,0,55,--,64,160
14005,note_on,0,59,--,64,0
14006,pitchwheel,0,--,3276,--,0
14007,note_off,0,59,--,64,160
14008,note_on,0,57,--,64,0
14009,note_off,0,57,--,64,320
14010,note_on,0,58,--,64,0
14011,note_off,0,58,--,64,320
14012,note_on,0,52,--,64,0
14013,pitchwheel,0,--,2457,--,0
14014,note_off,0,52,--,64,160
14015,note_on,0,48,--,64,0
14016,pitchwheel,0,--,2047,--,0
14017,note_off,0,48,--,64,160
14018,note_on,0,51,--,64,0
14019,pitchwheel,0,--,819,--,0
14020,note_off,0,51,--,64,320
14021,note_on,0,48,--,64,0
14022,pitchwheel,0,--,819,--,0
14023,note_off,0,48,--,64,320
14024,note_on,0,50,--,64,0
14025,pitchwheel,0,--,819,--,0
14026,note_off,0,50,--,64,320
14027,note_on,0,45,--,64,0
14028,pitchwheel,0,--,2047,--,0
14029,note_off,0,45,--,64,320
14030,note_on,0,48,--,64,0
14031,pitchwheel,0,--,819,--,0
14032,note_off,0,48,--,64,320
14033,note_on,0,53,--,64,0
14034,note_off,0,53,--,64,160
14035,note_on,0,57,--,64,0
14036,note_off,0,57,--,64,160
14037,note_on,0,55,--,64,0
14038,pitchwheel,0,--,2866,--,0
14039,note_off,0,55,--,64,320
14040,note_on,0,50,--,64,0
14041,pitchwheel,0,--,819,--,0
14042,note_off,0,50,--,64,320
14043,note_on,0,48,--,64,0
14044,pitchwheel,0,--,3276,--,0
14045,note_off,0,48,--,64,160
14046,note_on,0,45,--,64,0
14047,pitchwheel,0,--,1638,--,0
14048,note_off,0,45,--,64,160
14049,note_on,0,43,--,64,0
14050,pitchwheel,0,--,2866,--,0
14051,note_off,0,43,--,64,320
14052,note_on,0,43,--,64,0
14053,note_off,0,43,--,64,320
14054,note_on,0,47,--,64,0
14055,pitchwheel,0,--,3685,--,0
14056,note_off,0,47,--,64,320
14057,note_on,0,45,--,64,0
14058,pitchwheel,0,--,3276,--,0
14059,note_off,0,45,--,64,320
14060,note_on,0,43,--,64,0
14061,note_off,0,43,--,64,320
14062,note_on,0,45,--,64,0
14063,note_off,0,45,--,64,160
14064,note_on,0,47,--,64,0
14065,pitchwheel,0,--,2457,--,0
14066,note_off,0,47,--,64,160
14067,note_on,0,47,--,64,0
14068,pitchwheel,0,--,3276,--,0
14069,note_off,0,47,--,64,320
14070,note_on,0,46,--,64,0
14071,pitchwheel,0,--,1638,--,0
14072,note_off,0,46,--,64,320
14073,note_on,0,41,--,64,0
14074,pitchwheel,0,--,1228,--,0
14075,note_off,0,41,--,64,160
14076,note_on,0,45,--,64,0
14077,pitchwheel,0,--,3276,--,0
14078,note_off,0,45,--,64,160
14079,note_on,0,41,--,64,0
14080,note_off,0,41,--,64,320
14081,note_on,0,43,--,64,0
14082,pitchwheel,0,--,2866,--,0
14083,note_off,0,43,--,64,320
14084,note_on,0,40,--,64,0
14085,note_off,0,40,--,64,160
14086,note_on,0,43,--,64,0
14087,note_off,0,43,--,64,160
14088,note_on,0,41,--,64,0
14089,note_off,0,41,--,64,320
14090,note_on,0,43,--,64,0
14091,pitchwheel,0,--,1638,--,0
14092,note_off,0,43,--,64,320
14093,note_on,0,45,--,64,0
14094,pitchwheel,0,--,1638,--,0
14095,note_off,0,45,--,64,160
14096,note_on,0,43,--,64,0
14097,pitchwheel,0,--,2866,--,0
14098,note_off,0,43,--,64,160
14099,note_on,0,44,--,64,0
14100,note_off,0,44,--,64,320
14101,note_on,0,43,--,64,0
14102,note_off,0,43,--,64,320
14103,note_on,0,47,--,64,0
14104,pitchwheel,0,--,2457,--,0
14105,note_off,0,47,--,64,160
14106,note_on,0,50,--,64,0
14107,note_off,0,50,--,64,480
14108,note_on,0,55,--,64,0
14109,pitchwheel,0,--,1638,--,0
14110,note_off,0,55,--,64,320
14111,note_on,0,50,--,64,0
14112,pitchwheel,0,--,2457,--,0
14113,note_off,0,50,--,64,160
14114,note_on,0,56,--,64,0
14115,pitchwheel,0,--,2047,--,0
14116,note_off,0,56,--,64,320
14117,note_on,0,57,--,64,0
14118,note_off,0,57,--,64,320
14119,note_on,0,58,--,64,0
14120,pitchwheel,0,--,1638,--,0
14121,note_off,0,58,--,64,160
14122,note_on,0,52,--,64,0
14123,pitchwheel,0,--,2457,--,0
14124,note_off,0,52,--,64,160
14125,note_on,0,48,--,64,0
14126,pitchwheel,0,--,2047,--,0
14127,note_off,0,48,--,64,320
14128,note_on,0,48,--,64,0
14129,pitchwheel,0,--,819,--,0
14130,note_off,0,48,--,64,320
14131,note_on,0,47,--,64,0
14132,pitchwheel,0,--,3276,--,0
14133,note_off,0,47,--,64,160
14134,note_on,0,53,--,64,0
14135,pitchwheel,0,--,1228,--,0
14136,note_off,0,53,--,64,160
14137,note_on,0,58,--,64,0
14138,pitchwheel,0,--,1638,--,0
14139,note_off,0,58,--,64,320
14140,note_on,0,57,--,64,0
14141,note_off,0,57,--,64,320
14142,note_on,0,50,--,64,0
14143,pitchwheel,0,--,3685,--,0
14144,note_off,0,50,--,64,320
14145,note_on,0,52,--,64,0
14146,pitchwheel,0,--,2457,--,0
14147,note_off,0,52,--,64,320
14148,note_on,0,51,--,64,0
14149,pitchwheel,0,--,819,--,0
14150,note_off,0,51,--,64,480
14151,note_on,0,48,--,64,0
14152,pitchwheel,0,--,2047,--,0
14153,note_off,0,48,--,64,160
14154,note_on,0,50,--,64,0
14155,note_off,0,50,--,64,320
14156,note_on,0,47,--,64,0
14157,pitchwheel,0,--,2457,--,0
14158,note_off,0,47,--,64,320
14159,note_on,0,46,--,64,0
14160,pitchwheel,0,--,1638,--,0
14161,note_off,0,46,--,64,160
14162,note_on,0,43,--,64,0
14163,note_off,0,43,--,64,160
14164,note_on,0,44,--,64,0
14165,pitchwheel,0,--,2047,--,0
14166,note_off,0,44,--,64,320
14167,note_on,0,38,--,64,0
14168,pitchwheel,0,--,2457,--,0
14169,note_off,0,38,--,64,320
14170,note_on,0,38,--,64,0
14171,pitchwheel,0,--,819,--,0
14172,note_off,0,38,--,64,160
14173,note_on,0,45,--,64,0
14174,note_off,0,45,--,64,160
14175,note_on,0,39,--,64,0
14176,pitchwheel,0,--,819,--,0
14177,note_off,0,39,--,64,320
14178,note_on,0,43,--,64,0
14179,pitchwheel,0,--,2866,--,0
14180,note_off,0,43,--,64,320
14181,note_on,0,43,--,64,0
14182,note_off,0,43,--,64,320
14183,note_on,0,38,--,64,0
14184,note_off,0,38,--,64,320
14185,note_on,0,38,--,64,0
14186,pitchwheel,0,--,819,--,0
14187,note_off,0,38,--,64,320
14188,note_on,0,38,--,64,0
14189,pitchwheel,0,--,2457,--,0
14190,note_off,0,38,--,64,320
14191,note_on,0,36,--,64,0
14192,pitchwheel,0,--,2047,--,0
14193,note_off,0,36,--,64,320
14194,note_on,0,47,--,64,0
14195,pitchwheel,0,--,2047,--,0
14196,note_off,0,47,--,64,320
14197,note_on,0,36,--,64,0
14198,pitchwheel,0,--,819,--,0
14199,note_off,0,36,--,64,160
14200,note_on,0,40,--,64,0
14201,pitchwheel,0,--,2457,--,0
14202,note_off,0,40,--,64,160
14203,note_on,0,41,--,64,0
14204,pitchwheel,0,--,1228,--,0
14205,note_off,0,41,--,64,320
14206,note_on,0,41,--,64,0
14207,note_off,0,41,--,64,480
14208,note_on,0,36,--,64,0
14209,pitchwheel,0,--,819,--,0
14210,note_off,0,36,--,64,160
14211,note_on,0,40,--,64,0
14212,note_off,0,40,--,64,320
14213,note_on,0,41,--,64,0
14214,note_off,0,41,--,64,480
14215,note_on,0,40,--,64,0
14216,pitchwheel,0,--,2457,--,0
14217,note_off,0,40,--,64,160
14218,note_on,0,38,--,64,0
14219,pitchwheel,0,--,819,--,0
14220,note_off,0,38,--,64,320
14221,note_on,0,38,--,64,0
14222,pitchwheel,0,--,2457,--,0
14223,note_off,0,38,--,64,320
14224,note_on,0,45,--,64,0
14225,note_off,0,45,--,64,160
14226,note_on,0,40,--,64,0
14227,pitchwheel,0,--,2457,--,0
14228,note_off,0,40,--,64,320
14229,note_on,0,38,--,64,0
14230,pitchwheel,0,--,3685,--,0
14231,note_off,0,38,--,64,320
14232,note_on,0,36,--,64,0
14233,pitchwheel,0,--,3276,--,0
14234,note_off,0,36,--,64,160
14235,note_on,0,38,--,64,0
14236,pitchwheel,0,--,819,--,0
14237,note_off,0,38,--,64,480
14238,note_on,0,44,--,64,0
14239,pitchwheel,0,--,2047,--,0
14240,note_off,0,44,--,64,320
14241,note_on,0,47,--,64,0
14242,pitchwheel,0,--,3276,--,0
14243,note_off,0,47,--,64,320
14244,note_on,0,46,--,64,0
14245,note_off,0,46,--,64,320
14246,note_on,0,38,--,64,0
14247,note_off,0,38,--,64,320
14248,note_on,0,36,--,64,0
14249,pitchwheel,0,--,819,--,0
14250,note_off,0,36,--,64,160
14251,note_on,0,43,--,64,0
14252,pitchwheel,0,--,1638,--,0
14253,note_off,0,43,--,64,160
14254,note_on,0,38,--,64,0
14255,pitchwheel,0,--,819,--,0
14256,note_off,0,38,--,64,320
14257,note_on,0,36,--,64,0
14258,pitchwheel,0,--,819,--,0
14259,note_off,0,36,--,64,320
14260,note_on,0,45,--,64,0
14261,note_off,0,45,--,64,160
14262,note_on,0,37,--,64,0
14263,note_off,0,37,--,64,480
14264,note_on,0,38,--,64,0
14265,pitchwheel,0,--,2457,--,0
14266,note_off,0,38,--,64,320
14267,note_on,0,43,--,64,0
14268,note_off,0,43,--,64,160
14269,note_on,0,47,--,64,0
14270,pitchwheel,0,--,3276,--,0
14271,note_off,0,47,--,64,480
14272,note_on,0,46,--,64,0
14273,pitchwheel,0,--,1638,--,0
14274,note_off,0,46,--,64,320
14275,note_on,0,47,--,64,0
14276,pitchwheel,0,--,2457,--,0
14277,note_off,0,47,--,64,160
14278,note_on,0,43,--,64,0
14279,pitchwheel,0,--,1638,--,0
14280,note_off,0,43,--,64,160
14281,note_on,0,46,--,64,0
14282,note_off,0,46,--,64,320
14283,note_on,0,45,--,64,0
14284,pitchwheel,0,--,3276,--,0
14285,note_off,0,45,--,64,320
14286,note_on,0,43,--,64,0
14287,pitchwheel,0,--,2866,--,0
14288,note_off,0,43,--,64,160
14289,note_on,0,41,--,64,0
14290,note_off,0,41,--,64,160
14291,note_on,0,43,--,64,0
14292,note_off,0,43,--,64,320
14293,note_on,0,43,--,64,0
14294,pitchwheel,0,--,1638,--,0
14295,note_off,0,43,--,64,320
14296,note_on,0,43,--,64,0
14297,pitchwheel,0,--,2866,--,0
14298,note_off,0,43,--,64,160
14299,note_on,0,38,--,64,0
14300,pitchwheel,0,--,3685,--,0
14301,note_off,0,38,--,64,160
14302,note_on,0,43,--,64,0
14303,note_off,0,43,--,64,320
14304,note_on,0,38,--,64,0
14305,note_off,0,38,--,64,480
14306,note_on,0,45,--,64,0
14307,pitchwheel,0,--,1638,--,0
14308,note_off,0,45,--,64,160
14309,note_on,0,50,--,64,0
14310,pitchwheel,0,--,2457,--,0
14311,note_off,0,50,--,64,320
14312,note_on,0,45,--,64,0
14313,note_off,0,45,--,64,320
14314,note_on,0,40,--,64,0
14315,pitchwheel,0,--,2457,--,0
14316,note_off,0,40,--,64,160
14317,note_on,0,41,--,64,0
14318,note_off,0,41,--,64,160
14319,note_on,0,44,--,64,0
14320,note_off,0,44,--,64,320
14321,note_on,0,41,--,64,0
14322,pitchwheel,0,--,1228,--,0
14323,note_off,0,41,--,64,320
14324,note_on,0,41,--,64,0
14325,note_off,0,41,--,64,320
14326,note_on,0,43,--,64,0
14327,note_off,0,43,--,64,320
14328,note_on,0,48,--,64,0
14329,pitchwheel,0,--,2047,--,0
14330,note_off,0,48,--,64,160
14331,note_on,0,53,--,64,0
14332,note_off,0,53,--,64,480
14333,note_on,0,48,--,64,0
14334,pitchwheel,0,--,2047,--,0
14335,note_off,0,48,--,64,480
14336,note_on,0,52,--,64,0
14337,pitchwheel,0,--,2457,--,0
14338,note_off,0,52,--,64,160
14339,note_on,0,57,--,64,0
14340,note_off,0,57,--,64,320
14341,note_on,0,58,--,64,0
14342,note_off,0,58,--,64,480
14343,note_on,0,59,--,64,0
14344,pitchwheel,0,--,2047,--,0
14345,note_off,0,59,--,64,160
14346,note_on,0,59,--,64,0
14347,pitchwheel,0,--,3685,--,0
14348,note_off,0,59,--,64,320
14349,note_on,0,58,--,64,0
14350,note_off,0,58,--,64,320
14351,note_on,0,59,--,64,0
14352,pitchwheel,0,--,2047,--,0
14353,note_off,0,59,--,64,320
14354,note_on,0,52,--,64,0
14355,pitchwheel,0,--,2457,--,0
14356,note_off,0,52,--,64,320
14357,note_on,0,53,--,64,0
14358,pitchwheel,0,--,2457,--,0
14359,note_off,0,53,--,64,320
14360,note_on,0,48,--,64,0
14361,pitchwheel,0,--,819,--,0
14362,note_off,0,48,--,64,320
14363,note_on,0,59,--,64,0
14364,pitchwheel,0,--,3685,--,0
14365,note_off,0,59,--,64,320
14366,note_on,0,52,--,64,0
14367,pitchwheel,0,--,2457,--,0
14368,note_off,0,52,--,64,480
14369,note_on,0,50,--,64,0
14370,pitchwheel,0,--,819,--,0
14371,note_off,0,50,--,64,160
14372,note_on,0,57,--,64,0
14373,note_off,0,57,--,64,320
14374,note_on,0,51,--,64,0
14375,pitchwheel,0,--,819,--,0
14376,note_off,0,51,--,64,320
14377,note_on,0,50,--,64,0
14378,pitchwheel,0,--,819,--,0
14379,note_off,0,50,--,64,160
14380,note_on,0,48,--,64,0
14381,pitchwheel,0,--,819,--,0
14382,note_off,0,48,--,64,160
14383,note_on,0,47,--,64,0
14384,pitchwheel,0,--,3276,--,0
14385,note_off,0,47,--,64,320
14386,note_on,0,48,--,64,0
14387,pitchwheel,0,--,2047,--,0
14388,note_off,0,48,--,64,320
14389,note_on,0,50,--,64,0
14390,note_off,0,50,--,64,160
14391,note_on,0,55,--,64,0
14392,note_off,0,55,--,64,160
14393,note_on,0,55,--,64,0
14394,pitchwheel,0,--,1638,--,0
14395,note_off,0,55,--,64,320
14396,note_on,0,59,--,64,0
14397,pitchwheel,0,--,2457,--,0
14398,note_off,0,59,--,64,320
14399,note_on,0,49,--,64,0
14400,note_off,0,49,--,64,160
14401,note_on,0,57,--,64,0
14402,note_off,0,57,--,64,160
14403,note_on,0,50,--,64,0
14404,pitchwheel,0,--,2457,--,0
14405,note_off,0,50,--,64,320
14406,note_on,0,59,--,64,0
14407,pitchwheel,0,--,3276,--,0
14408,note_off,0,59,--,64,320
14409,note_on,0,58,--,64,0
14410,pitchwheel,0,--,1638,--,0
14411,note_off,0,58,--,64,160
14412,note_on,0,59,--,64,0
14413,pitchwheel,0,--,3276,--,0
14414,note_off,0,59,--,64,160
14415,note_on,0,55,--,64,0
14416,pitchwheel,0,--,1638,--,0
14417,note_off,0,55,--,64,320
14418,note_on,0,55,--,64,0
14419,pitchwheel,0,--,409,--,0
14420,note_off,0,55,--,64,320
14421,note_on,0,53,--,64,0
14422,note_off,0,53,--,64,320
14423,note_on,0,58,--,64,0
14424,pitchwheel,0,--,1638,--,0
14425,note_off,0,58,--,64,320
14426,note_on,0,50,--,64,0
14427,pitchwheel,0,--,3685,--,0
14428,note_off,0,50,--,64,320
14429,note_on,0,48,--,64,0
14430,pitchwheel,0,--,2047,--,0
14431,note_off,0,48,--,64,160
14432,note_on,0,58,--,64,0
14433,pitchwheel,0,--,409,--,0
14434,note_off,0,58,--,64,160
14435,note_on,0,57,--,64,0
14436,pitchwheel,0,--,1638,--,0
14437,note_off,0,57,--,64,320
14438,note_on,0,50,--,64,0
14439,note_off,0,50,--,64,320
14440,note_on,0,53,--,64,0
14441,note_off,0,53,--,64,160
14442,note_on,0,59,--,64,0
14443,pitchwheel,0,--,2047,--,0
14444,note_off,0,59,--,64,160
14445,note_on,0,52,--,64,0
14446,pitchwheel,0,--,2866,--,0
14447,note_off,0,52,--,64,320
14448,note_on,0,53,--,64,0
14449,pitchwheel,0,--,1228,--,0
14450,note_off,0,53,--,64,320
14451,note_on,0,51,--,64,0
14452,pitchwheel,0,--,819,--,0
14453,note_off,0,51,--,64,160
14454,note_on,0,57,--,64,0
14455,pitchwheel,0,--,1638,--,0
14456,note_off,0,57,--,64,160
14457,note_on,0,53,--,64,0
14458,note_off,0,53,--,64,320
14459,note_on,0,56,--,64,0
14460,note_off,0,56,--,64,320
14461,note_on,0,52,--,64,0
14462,pitchwheel,0,--,2457,--,0
14463,note_off,0,52,--,64,160
14464,note_on,0,53,--,64,0
14465,note_off,0,53,--,64,160
14466,note_on,0,48,--,64,0
14467,pitchwheel,0,--,3276,--,0
14468,note_off,0,48,--,64,320
14469,note_on,0,47,--,64,0
14470,pitchwheel,0,--,2047,--,0
14471,note_off,0,47,--,64,320
14472,note_on,0,46,--,64,0
14473,note_off,0,46,--,64,160
14474,note_on,0,48,--,64,0
14475,pitchwheel,0,--,2047,--,0
14476,note_off,0,48,--,64,480
14477,note_on,0,48,--,64,0
14478,pitchwheel,0,--,3276,--,0
14479,note_off,0,48,--,64,480
14480,note_on,0,50,--,64,0
14481,pitchwheel,0,--,2457,--,0
14482,note_off,0,50,--,64,160
14483,note_on,0,53,--,64,0
14484,note_off,0,53,--,64,320
14485,note_on,0,50,--,64,0
14486,pitchwheel,0,--,819,--,0
14487,note_off,0,50,--,64,320
14488,note_on,0,51,--,64,0
14489,pitchwheel,0,--,819,--,0
14490,note_off,0,51,--,64,160
14491,note_on,0,55,--,64,0
14492,note_off,0,55,--,64,160
14493,note_on,0,48,--,64,0
14494,pitchwheel,0,--,819,--,0
14495,note_off,0,48,--,64,320
14496,note_on,0,48,--,64,0
14497,pitchwheel,0,--,2047,--,0
14498,note_off,0,48,--,64,320
14499,note_on,0,55,--,64,0
14500,note_off,0,55,--,64,160
14501,note_on,0,55,--,64,0
14502,pitchwheel,0,--,1638,--,0
14503,note_off,0,55,--,64,160
14504,note_on,0,56,--,64,0
14505,note_off,0,56,--,64,320
14506,note_on,0,57,--,64,0
14507,note_off,0,57,--,64,480
14508,note_on,0,59,--,64,0
14509,pitchwheel,0,--,3276,--,0
14510,note_off,0,59,--,64,320
14511,note_on,0,59,--,64,0
14512,pitchwheel,0,--,3685,--,0
14513,note_off,0,59,--,64,480
14514,note_on,0,50,--,64,0
14515,pitchwheel,0,--,2457,--,0
14516,note_off,0,50,--,64,160
14517,note_on,0,59,--,64,0
14518,pitchwheel,0,--,3276,--,0
14519,note_off,0,59,--,64,320
14520,note_on,0,58,--,64,0
14521,pitchwheel,0,--,409,--,0
14522,note_off,0,58,--,64,320
14523,note_on,0,50,--,64,0
14524,note_off,0,50,--,64,160
14525,note_on,0,50,--,64,0
14526,pitchwheel,0,--,819,--,0
14527,note_off,0,50,--,64,160
14528,note_on,0,59,--,64,0
14529,pitchwheel,0,--,2047,--,0
14530,note_off,0,59,--,64,320
14531,note_on,0,50,--,64,0
14532,pitchwheel,0,--,2457,--,0
14533,note_off,0,50,--,64,320
14534,note_on,0,57,--,64,0
14535,pitchwheel,0,--,1638,--,0
14536,note_off,0,57,--,64,160
14537,note_on,0,50,--,64,0
14538,pitchwheel,0,--,3685,--,0
14539,note_off,0,50,--,64,160
14540,note_on,0,56,--,64,0
14541,note_off,0,56,--,64,320
14542,note_on,0,53,--,64,0
14543,note_off,0,53,--,64,320
14544,note_on,0,57,--,64,0
14545,pitchwheel,0,--,1638,--,0
14546,note_off,0,57,--,64,320
14547,note_on,0,48,--,64,0
14548,pitchwheel,0,--,2047,--,0
14549,note_off,0,48,--,64,320
14550,note_on,0,48,--,64,0
14551,pitchwheel,0,--,3276,--,0
14552,note_off,0,48,--,64,320
14553,note_on,0,50,--,64,0
14554,pitchwheel,0,--,2457,--,0
14555,note_off,0,50,--,64,320
14556,note_on,0,57,--,64,0
14557,note_off,0,57,--,64,320
14558,note_on,0,55,--,64,0
14559,note_off,0,55,--,64,320
14560,note_on,0,55,--,64,0
14561,pitchwheel,0,--,409,--,0
14562,note_off,0,55,--,64,160
14563,note_on,0,52,--,64,0
14564,pitchwheel,0,--,2457,--,0
14565,note_off,0,52,--,64,160
14566,note_on,0,55,--,64,0
14567,pitchwheel,0,--,1638,--,0
14568,note_off,0,55,--,64,320
14569,note_on,0,55,--,64,0
14570,pitchwheel,0,--,2866,--,0
14571,note_off,0,55,--,64,480
14572,note_on,0,48,--,64,0
14573,pitchwheel,0,--,819,--,0
14574,note_off,0,48,--,64,160
14575,note_on,0,55,--,64,0
14576,note_off,0,55,--,64,320
14577,note_on,0,50,--,64,0
14578,pitchwheel,0,--,2457,--,0
14579,note_off,0,50,--,64,480
14580,note_on,0,45,--,64,0
14581,pitchwheel,0,--,1638,--,0
14582,note_off,0,45,--,64,160
14583,note_on,0,50,--,64,0
14584,pitchwheel,0,--,819,--,0
14585,note_off,0,50,--,64,320
14586,note_on,0,50,--,64,0
14587,pitchwheel,0,--,2457,--,0
14588,note_off,0,50,--,64,320
14589,note_on,0,50,--,64,0
14590,pitchwheel,0,--,3685,--,0
14591,note_off,0,50,--,64,160
14592,note_on,0,45,--,64,0
14593,note_off,0,45,--,64,160
14594,note_on,0,46,--,64,0
14595,note_off,0,46,--,64,320
14596,note_on,0,48,--,64,0
14597,pitchwheel,0,--,2047,--,0
14598,note_off,0,48,--,64,320
14599,note_on,0,46,--,64,0
14600,pitchwheel,0,--,1638,--,0
14601,note_off,0,46,--,64,160
14602,note_on,0,43,--,64,0
14603,note_off,0,43,--,64,480
14604,note_on,0,47,--,64,0
14605,pitchwheel,0,--,3276,--,0
14606,note_off,0,47,--,64,320
14607,note_on,0,52,--,64,0
14608,pitchwheel,0,--,2457,--,0
14609,note_off,0,52,--,64,320
14610,note_on,0,53,--,64,0
14611,pitchwheel,0,--,2457,--,0
14612,note_off,0,53,--,64,320
14613,note_on,0,50,--,64,0
14614,pitchwheel,0,--,3685,--,0
14615,note_off,0,50,--,64,320
14616,note_on,0,48,--,64,0
14617,pitchwheel,0,--,2047,--,0
14618,note_off,0,48,--,64,160
14619,note_on,0,45,--,64,0
14620,pitchwheel,0,--,2047,--,0
14621,note_off,0,45,--,64,160
14622,note_on,0,45,--,64,0
14623,pitchwheel,0,--,1638,--,0
14624,note_off,0,45,--,64,320
14625,note_on,0,46,--,64,0
14626,pitchwheel,0,--,1638,--,0
14627,note_off,0,46,--,64,320
14628,note_on,0,45,--,64,0
14629,note_off,0,45,--,64,160
14630,note_on,0,44,--,64,0
14631,pitchwheel,0,--,2047,--,0
14632,note_off,0,44,--,64,160
14633,note_on,0,48,--,64,0
14634,pitchwheel,0,--,2047,--,0
14635,note_off,0,48,--,64,320
14636,note_on,0,43,--,64,0
14637,note_off,0,43,--,64,320
14638,note_on,0,47,--,64,0
14639,pitchwheel,0,--,3276,--,0
14640,note_off,0,47,--,64,160
14641,note_on,0,45,--,64,0
14642,pitchwheel,0,--,1638,--,0
14643,note_off,0,45,--,64,480
14644,note_on,0,45,--,64,0
14645,pitchwheel,0,--,2047,--,0
14646,note_off,0,45,--,64,480
14647,note_on,0,41,--,64,0
14648,note_off,0,41,--,64,160
14649,note_on,0,46,--,64,0
14650,pitchwheel,0,--,1638,--,0
14651,note_off,0,46,--,64,320
14652,note_on,0,44,--,64,0
14653,pitchwheel,0,--,2047,--,0
14654,note_off,0,44,--,64,320
14655,note_on,0,38,--,64,0
14656,pitchwheel,0,--,3685,--,0
14657,note_off,0,38,--,64,160
14658,note_on,0,43,--,64,0
14659,pitchwheel,0,--,409,--,0
14660,note_off,0,43,--,64,160
14661,note_on,0,45,--,64,0
14662,pitchwheel,0,--,1638,--,0
14663,note_off,0,45,--,64,320
14664,note_on,0,45,--,64,0
14665,pitchwheel,0,--,2047,--,0
14666,note_off,0,45,--,64,320
14667,note_on,0,41,--,64,0
14668,note_off,0,41,--,64,320
14669,note_on,0,38,--,64,0
14670,pitchwheel,0,--,1228,--,0
14671,note_off,0,38,--,64,320
14672,note_on,0,43,--,64,0
14673,pitchwheel,0,--,409,--,0
14674,note_off,0,43,--,64,320
14675,note_on,0,45,--,64,0
14676,pitchwheel,0,--,3276,--,0
14677,note_off,0,45,--,64,160
14678,note_on,0,47,--,64,0
14679,pitchwheel,0,--,3276,--,0
14680,note_off,0,47,--,64,160
14681,note_on,0,53,--,64,0
14682,note_off,0,53,--,64,320
14683,note_on,0,58,--,64,0
14684,pitchwheel,0,--,409,--,0
14685,note_off,0,58,--,64,320
14686,note_on,0,59,--,64,0
14687,pitchwheel,0,--,3276,--,0
14688,note_off,0,59,--,64,160
14689,note_on,0,55,--,64,0
14690,pitchwheel,0,--,1638,--,0
14691,note_off,0,55,--,64,160
14692,note_on,0,58,--,64,0
14693,pitchwheel,0,--,1638,--,0
14694,note_off,0,58,--,64,320
14695,note_on,0,55,--,64,0
14696,pitchwheel,0,--,2866,--,0
14697,note_off,0,55,--,64,320
