,Start,Message,Note,Pitch,Velocity,Time
0,0.000000,note_on,40,0,64,0
1,0.000000,note_off,40,0,64,320
2,0.666667,note_on,41,0,64,0
3,0.666667,note_off,41,0,64,640
4,2.000000,note_on,43,0,64,0
5,2.000000,note_off,43,0,64,320
6,2.666667,note_on,44,0,64,0
7,2.666667,note_off,44,0,64,160
8,3.000000,note_on,43,0,64,0
9,3.000000,note_off,43,0,64,160
10,3.333333,note_on,41,0,64,0
11,3.333333,note_off,41,0,64,320
12,4.000000,note_on,43,0,64,0
13,4.000000,note_off,43,0,64,480
14,5.000000,note_on,41,0,64,0
15,5.000000,note_off,41,0,64,160
16,5.333333,note_on,43,409,64,0
17,5.333333,pitchwheel,43,409,64,0
18,5.333333,note_off,43,409,64,320
19,6.000000,note_on,43,0,64,0
20,6.000000,note_off,43,0,64,640
21,7.333333,note_on,45,1638,64,0
22,7.333333,pitchwheel,45,1638,64,0
23,7.333333,note_off,45,1638,64,320
24,8.000000,note_on,46,0,64,0
25,8.000000,note_off,46,0,64,320
26,8.666667,note_on,41,0,64,0
27,8.666667,note_off,41,0,64,320
28,9.333333,note_on,41,1228,64,0
29,9.333333,pitchwheel,41,1228,64,0
30,9.333333,note_off,41,1228,64,320
31,10.000000,note_on,43,0,64,0
32,10.000000,note_off,43,0,64,320
33,10.666667,note_on,43,409,64,0
34,10.666667,pitchwheel,43,409,64,0
35,10.666667,note_off,43,409,64,160
36,11.000000,note_on,45,1638,64,0
37,11.000000,pitchwheel,45,1638,64,0
38,11.000000,note_off,45,1638,64,160
39,11.333333,note_on,45,0,64,0
40,11.333333,note_off,45,0,64,320
41,12.000000,note_on,46,0,64,0
42,12.000000,note_off,46,0,64,320
43,12.666667,note_on,47,3276,64,0
44,12.666667,pitchwheel,47,3276,64,0
45,12.666667,note_off,47,3276,64,160
46,13.000000,note_on,53,0,64,0
47,13.000000,note_off,53,0,64,160
48,13.333333,note_on,48,3276,64,0
49,13.333333,pitchwheel,48,3276,64,0
50,13.333333,note_off,48,3276,64,320
51,14.000000,note_on,53,1228,64,0
52,14.000000,pitchwheel,53,1228,64,0
53,14.000000,note_off,53,1228,64,320
54,14.666667,note_on,57,1638,64,0
55,14.666667,pitchwheel,57,1638,64,0
56,14.666667,note_off,57,1638,64,160
57,15.000000,note_on,55,0,64,0
58,15.000000,note_off,55,0,64,160
59,15.333333,note_on,59,2457,64,0
60,15.333333,pitchwheel,59,2457,64,0
61,15.333333,note_off,59,2457,64,320
62,16.000000,note_on,58,1638,64,0
63,16.000000,pitchwheel,58,1638,64,0
64,16.000000,note_off,58,1638,64,320
65,16.666667,note_on,59,2047,64,0
66,16.666667,pitchwheel,59,2047,64,0
67,16.666667,note_off,59,2047,64,160
68,17.000000,note_on,57,0,64,0
69,17.000000,note_off,57,0,64,160
70,17.333333,note_on,53,0,64,0
71,17.333333,note_off,53,0,64,320
72,18.000000,note_on,50,819,64,0
73,18.000000,pitchwheel,50,819,64,0
74,18.000000,note_off,50,819,64,320
75,18.666667,note_on,51,819,64,0
76,18.666667,pitchwheel,51,819,64,0
77,18.666667,note_off,51,819,64,160
78,19.000000,note_on,47,3276,64,0
79,19.000000,pitchwheel,47,3276,64,0
80,19.000000,note_off,47,3276,64,160
81,19.333333,note_on,45,3276,64,0
82,19.333333,pitchwheel,45,3276,64,0
83,19.333333,note_off,45,3276,64,320
84,20.000000,note_on,46,0,64,0
85,20.000000,note_off,46,0,64,320
86,20.666667,note_on,50,0,64,0
87,20.666667,note_off,50,0,64,320
88,21.333333,note_on,45,2047,64,0
89,21.333333,pitchwheel,45,2047,64,0
90,21.333333,note_off,45,2047,64,320
91,22.000000,note_on,45,1638,64,0
92,22.000000,pitchwheel,45,1638,64,0
93,22.000000,note_off,45,1638,64,320
94,22.666667,note_on,45,0,64,0
95,22.666667,note_off,45,0,64,160
96,23.000000,note_on,47,2457,64,0
97,23.000000,pitchwheel,47,2457,64,0
98,23.000000,note_off,47,2457,64,160
99,23.333333,note_on,52,2457,64,0
100,23.333333,pitchwheel,52,2457,64,0
101,23.333333,note_off,52,2457,64,320
102,24.000000,note_on,53,2457,64,0
103,24.000000,pitchwheel,53,2457,64,0
104,24.000000,note_off,53,2457,64,320
105,24.666667,note_on,48,819,64,0
106,24.666667,pitchwheel,48,819,64,0
107,24.666667,note_off,48,819,64,160
108,25.000000,note_on,47,2047,64,0
109,25.000000,pitchwheel,47,2047,64,0
110,25.000000,note_off,47,2047,64,160
111,25.333333,note_on,48,2047,64,0
112,25.333333,pitchwheel,48,2047,64,0
113,25.333333,note_off,48,2047,64,320
114,26.000000,note_on,53,0,64,0
115,26.000000,note_off,53,0,64,320
116,26.666667,note_on,48,3276,64,0
117,26.666667,pitchwheel,48,3276,64,0
118,26.666667,note_off,48,3276,64,160
119,27.000000,note_on,50,819,64,0
120,27.000000,pitchwheel,50,819,64,0
121,27.000000,note_off,50,819,64,160
122,27.333333,note_on,48,2047,64,0
123,27.333333,pitchwheel,48,2047,64,0
124,27.333333,note_off,48,2047,64,320
125,28.000000,note_on,51,819,64,0
126,28.000000,pitchwheel,51,819,64,0
127,28.000000,note_off,51,819,64,320
128,28.666667,note_on,45,1638,64,0
129,28.666667,pitchwheel,45,1638,64,0
130,28.666667,note_off,45,1638,64,160
131,29.000000,note_on,45,3276,64,0
132,29.000000,pitchwheel,45,3276,64,0
133,29.000000,note_off,45,3276,64,480
134,30.000000,note_on,46,0,64,0
135,30.000000,note_off,46,0,64,480
136,31.000000,note_on,50,0,64,0
137,31.000000,note_off,50,0,64,480
138,32.000000,note_on,46,0,64,0
139,32.000000,note_off,46,0,64,480
140,33.000000,note_on,50,2457,64,0
141,33.000000,pitchwheel,50,2457,64,0
142,33.000000,note_off,50,2457,64,160
143,33.333333,note_on,47,2047,64,0
144,33.333333,pitchwheel,47,2047,64,0
145,33.333333,note_off,47,2047,64,320
146,34.000000,note_on,45,0,64,0
147,34.000000,note_off,45,0,64,320
148,34.666667,note_on,41,0,64,0
149,34.666667,note_off,41,0,64,160
150,35.000000,note_on,40,2457,64,0
151,35.000000,pitchwheel,40,2457,64,0
152,35.000000,note_off,40,2457,64,160
153,35.333333,note_on,40,2866,64,0
154,35.333333,pitchwheel,40,2866,64,0
155,35.333333,note_off,40,2866,64,320
156,36.000000,note_on,41,2457,64,0
157,36.000000,pitchwheel,41,2457,64,0
158,36.000000,note_off,41,2457,64,320
159,36.666667,note_on,45,1638,64,0
160,36.666667,pitchwheel,45,1638,64,0
161,36.666667,note_off,45,1638,64,160
162,37.000000,note_on,48,819,64,0
163,37.000000,pitchwheel,48,819,64,0
164,37.000000,note_off,48,819,64,160
165,37.333333,note_on,45,2047,64,0
166,37.333333,pitchwheel,45,2047,64,0
167,37.333333,note_off,45,2047,64,320
168,38.000000,note_on,45,0,64,0
169,38.000000,note_off,45,0,64,320
170,38.666667,note_on,45,3276,64,0
171,38.666667,pitchwheel,45,3276,64,0
172,38.666667,note_off,45,3276,64,320
173,39.333333,note_on,40,2457,64,0
174,39.333333,pitchwheel,40,2457,64,0
175,39.333333,note_off,40,2457,64,320
176,40.000000,note_on,36,3276,64,0
177,40.000000,pitchwheel,36,3276,64,0
178,40.000000,note_off,36,3276,64,480
179,41.000000,note_on,36,2047,64,0
180,41.000000,pitchwheel,36,2047,64,0
181,41.000000,note_off,36,2047,64,160
182,41.333333,note_on,38,0,64,0
183,41.333333,note_off,38,0,64,320
184,42.000000,note_on,43,1638,64,0
185,42.000000,pitchwheel,43,1638,64,0
186,42.000000,note_off,43,1638,64,320
187,42.666667,note_on,43,409,64,0
188,42.666667,pitchwheel,43,409,64,0
189,42.666667,note_off,43,409,64,160
190,43.000000,note_on,45,1638,64,0
191,43.000000,pitchwheel,45,1638,64,0
192,43.000000,note_off,45,1638,64,160
193,43.333333,note_on,41,0,64,0
194,43.333333,note_off,41,0,64,320
195,44.000000,note_on,38,2457,64,0
196,44.000000,pitchwheel,38,2457,64,0
197,44.000000,note_off,38,2457,64,320
198,44.666667,note_on,38,819,64,0
199,44.666667,pitchwheel,38,819,64,0
200,44.666667,note_off,38,819,64,320
201,45.333333,note_on,46,1638,64,0
202,45.333333,pitchwheel,46,1638,64,0
203,45.333333,note_off,46,1638,64,320
204,46.000000,note_on,46,0,64,0
205,46.000000,note_off,46,0,64,320
206,46.666667,note_on,41,1228,64,0
207,46.666667,pitchwheel,41,1228,64,0
208,46.666667,note_off,41,1228,64,320
209,47.333333,note_on,41,0,64,0
210,47.333333,note_off,41,0,64,320
211,48.000000,note_on,41,2457,64,0
212,48.000000,pitchwheel,41,2457,64,0
213,48.000000,note_off,41,2457,64,320
214,48.666667,note_on,38,3685,64,0
215,48.666667,pitchwheel,38,3685,64,0
216,48.666667,note_off,38,3685,64,320
217,49.333333,note_on,36,819,64,0
218,49.333333,pitchwheel,36,819,64,0
219,49.333333,note_off,36,819,64,320
220,50.000000,note_on,47,2047,64,0
221,50.000000,pitchwheel,47,2047,64,0
222,50.000000,note_off,47,2047,64,480
223,51.000000,note_on,43,0,64,0
224,51.000000,note_off,43,0,64,160
225,51.333333,note_on,47,3685,64,0
226,51.333333,pitchwheel,47,3685,64,0
227,51.333333,note_off,47,3685,64,320
228,52.000000,note_on,41,0,64,0
229,52.000000,note_off,41,0,64,480
230,53.000000,note_on,40,2866,64,0
231,53.000000,pitchwheel,40,2866,64,0
232,53.000000,note_off,40,2866,64,160
233,53.333333,note_on,36,3276,64,0
234,53.333333,pitchwheel,36,3276,64,0
235,53.333333,note_off,36,3276,64,320
236,54.000000,note_on,38,819,64,0
237,54.000000,pitchwheel,38,819,64,0
238,54.000000,note_off,38,819,64,320
239,54.666667,note_on,36,2047,64,0
240,54.666667,pitchwheel,36,2047,64,0
241,54.666667,note_off,36,2047,64,160
242,55.000000,note_on,45,1638,64,0
243,55.000000,pitchwheel,45,1638,64,0
244,55.000000,note_off,45,1638,64,160
245,55.333333,note_on,47,3276,64,0
246,55.333333,pitchwheel,47,3276,64,0
247,55.333333,note_off,47,3276,64,320
248,56.000000,note_on,45,2047,64,0
249,56.000000,pitchwheel,45,2047,64,0
250,56.000000,note_off,45,2047,64,320
251,56.666667,note_on,45,0,64,0
252,56.666667,note_off,45,0,64,320
253,57.333333,note_on,45,1638,64,0
254,57.333333,pitchwheel,45,1638,64,0
255,57.333333,note_off,45,1638,64,320
256,58.000000,note_on,45,3276,64,0
257,58.000000,pitchwheel,45,3276,64,0
258,58.000000,note_off,45,3276,64,320
259,58.666667,note_on,45,1638,64,0
260,58.666667,pitchwheel,45,1638,64,0
261,58.666667,note_off,45,1638,64,160
262,59.000000,note_on,40,2457,64,0
263,59.000000,pitchwheel,40,2457,64,0
264,59.000000,note_off,40,2457,64,480
265,60.000000,note_on,40,0,64,0
266,60.000000,note_off,40,0,64,320
267,60.666667,note_on,45,1638,64,0
268,60.666667,pitchwheel,45,1638,64,0
269,60.666667,note_off,45,1638,64,320
270,61.333333,note_on,46,0,64,0
271,61.333333,note_off,46,0,64,320
272,62.000000,note_on,43,2866,64,0
273,62.000000,pitchwheel,43,2866,64,0
274,62.000000,note_off,43,2866,64,320
275,62.666667,note_on,43,1638,64,0
276,62.666667,pitchwheel,43,1638,64,0
277,62.666667,note_off,43,1638,64,320
278,63.333333,note_on,47,3276,64,0
279,63.333333,pitchwheel,47,3276,64,0
280,63.333333,note_off,47,3276,64,320
281,64.000000,note_on,47,3685,64,0
282,64.000000,pitchwheel,47,3685,64,0
283,64.000000,note_off,47,3685,64,320
284,64.666667,note_on,45,0,64,0
285,64.666667,note_off,45,0,64,160
286,65.000000,note_on,41,0,64,0
287,65.000000,note_off,41,0,64,480
288,66.000000,note_on,43,0,64,0
289,66.000000,note_off,43,0,64,480
290,67.000000,note_on,38,819,64,0
291,67.000000,pitchwheel,38,819,64,0
292,67.000000,note_off,38,819,64,480
293,68.000000,note_on,43,0,64,0
294,68.000000,note_off,43,0,64,320
295,68.666667,note_on,46,409,64,0
296,68.666667,pitchwheel,46,409,64,0
297,68.666667,note_off,46,409,64,160
298,69.000000,note_on,45,2047,64,0
299,69.000000,pitchwheel,45,2047,64,0
300,69.000000,note_off,45,2047,64,160
301,69.333333,note_on,41,0,64,0
302,69.333333,note_off,41,0,64,320
303,70.000000,note_on,41,1228,64,0
304,70.000000,pitchwheel,41,1228,64,0
305,70.000000,note_off,41,1228,64,320
306,70.666667,note_on,40,2866,64,0
307,70.666667,pitchwheel,40,2866,64,0
308,70.666667,note_off,40,2866,64,160
309,71.000000,note_on,41,0,64,0
310,71.000000,note_off,41,0,64,160
311,71.333333,note_on,40,2457,64,0
312,71.333333,pitchwheel,40,2457,64,0
313,71.333333,note_off,40,2457,64,320
314,72.000000,note_on,41,2457,64,0
315,72.000000,pitchwheel,41,2457,64,0
316,72.000000,note_off,41,2457,64,320
317,72.666667,note_on,38,3685,64,0
318,72.666667,pitchwheel,38,3685,64,0
319,72.666667,note_off,38,3685,64,320
320,73.333333,note_on,45,1638,64,0
321,73.333333,pitchwheel,45,1638,64,0
322,73.333333,note_off,45,1638,64,320
323,74.000000,note_on,36,2047,64,0
324,74.000000,pitchwheel,36,2047,64,0
325,74.000000,note_off,36,2047,64,320
326,74.666667,note_on,39,819,64,0
327,74.666667,pitchwheel,39,819,64,0
328,74.666667,note_off,39,819,64,160
329,75.000000,note_on,47,3276,64,0
330,75.000000,pitchwheel,47,3276,64,0
331,75.000000,note_off,47,3276,64,160
332,75.333333,note_on,38,2457,64,0
333,75.333333,pitchwheel,38,2457,64,0
334,75.333333,note_off,38,2457,64,320
335,76.000000,note_on,45,0,64,0
336,76.000000,note_off,45,0,64,320
337,76.666667,note_on,47,2457,64,0
338,76.666667,pitchwheel,47,2457,64,0
339,76.666667,note_off,47,2457,64,160
340,77.000000,note_on,47,3685,64,0
341,77.000000,pitchwheel,47,3685,64,0
342,77.000000,note_off,47,3685,64,160
343,77.333333,note_on,36,3276,64,0
344,77.333333,pitchwheel,36,3276,64,0
345,77.333333,note_off,36,3276,64,320
346,78.000000,note_on,36,2047,64,0
347,78.000000,pitchwheel,36,2047,64,0
348,78.000000,note_off,36,2047,64,320
349,78.666667,note_on,36,819,64,0
350,78.666667,pitchwheel,36,819,64,0
351,78.666667,note_off,36,819,64,320
352,80.000000,note_on,36,3276,64,0
353,80.000000,pitchwheel,36,3276,64,0
354,80.000000,note_off,36,3276,64,320
355,80.666667,note_on,38,2457,64,0
356,80.666667,pitchwheel,38,2457,64,0
357,80.666667,note_off,38,2457,64,160
358,81.000000,note_on,41,0,64,0
359,81.000000,note_off,41,0,64,480
360,82.000000,note_on,36,2047,64,0
361,82.000000,pitchwheel,36,2047,64,0
362,82.000000,note_off,36,2047,64,320
363,82.666667,note_on,36,3276,64,0
364,82.666667,pitchwheel,36,3276,64,0
365,82.666667,note_off,36,3276,64,160
366,83.000000,note_on,47,3276,64,0
367,83.000000,pitchwheel,47,3276,64,0
368,83.000000,note_off,47,3276,64,160
369,83.333333,note_on,47,2047,64,0
370,83.333333,pitchwheel,47,2047,64,0
371,83.333333,note_off,47,2047,64,320
372,84.000000,note_on,46,0,64,0
373,84.000000,note_off,46,0,64,480
374,85.000000,note_on,45,0,64,0
375,85.000000,note_off,45,0,64,160
376,85.333333,note_on,45,2047,64,0
377,85.333333,pitchwheel,45,2047,64,0
378,85.333333,note_off,45,2047,64,320
379,86.000000,note_on,45,1638,64,0
380,86.000000,pitchwheel,45,1638,64,0
381,86.000000,note_off,45,1638,64,320
382,86.666667,note_on,37,0,64,0
383,86.666667,note_off,37,0,64,320
384,87.333333,note_on,38,819,64,0
385,87.333333,pitchwheel,38,819,64,0
386,87.333333,note_off,38,819,64,320
387,88.000000,note_on,38,2457,64,0
388,88.000000,pitchwheel,38,2457,64,0
389,88.000000,note_off,38,2457,64,320
390,88.666667,note_on,43,2866,64,0
391,88.666667,pitchwheel,43,2866,64,0
392,88.666667,note_off,43,2866,64,320
393,89.333333,note_on,43,1638,64,0
394,89.333333,pitchwheel,43,1638,64,0
395,89.333333,note_off,43,1638,64,320
396,90.000000,note_on,40,0,64,0
397,90.000000,note_off,40,0,64,320
398,90.666667,note_on,47,2457,64,0
399,90.666667,pitchwheel,47,2457,64,0
400,90.666667,note_off,47,2457,64,160
401,91.000000,note_on,45,1638,64,0
402,91.000000,pitchwheel,45,1638,64,0
403,91.000000,note_off,45,1638,64,160
404,91.333333,note_on,45,0,64,0
405,91.333333,note_off,45,0,64,320
406,92.000000,note_on,45,2047,64,0
407,92.000000,pitchwheel,45,2047,64,0
408,92.000000,note_off,45,2047,64,320
409,92.666667,note_on,40,2457,64,0
410,92.666667,pitchwheel,40,2457,64,0
411,92.666667,note_off,40,2457,64,160
412,93.000000,note_on,43,2866,64,0
413,93.000000,pitchwheel,43,2866,64,0
414,93.000000,note_off,43,2866,64,480
415,94.000000,note_on,43,1638,64,0
416,94.000000,pitchwheel,43,1638,64,0
417,94.000000,note_off,43,1638,64,320
418,94.666667,note_on,41,0,64,0
419,94.666667,note_off,41,0,64,160
420,95.000000,note_on,47,3276,64,0
421,95.000000,pitchwheel,47,3276,64,0
422,95.000000,note_off,47,3276,64,160
423,95.333333,note_on,45,2047,64,0
424,95.333333,pitchwheel,45,2047,64,0
425,95.333333,note_off,45,2047,64,320
426,96.000000,note_on,47,3685,64,0
427,96.000000,pitchwheel,47,3685,64,0
428,96.000000,note_off,47,3685,64,320
429,96.666667,note_on,45,3276,64,0
430,96.666667,pitchwheel,45,3276,64,0
431,96.666667,note_off,45,3276,64,160
432,97.000000,note_on,45,0,64,0
433,97.000000,note_off,45,0,64,160
434,97.333333,note_on,38,3685,64,0
435,97.333333,pitchwheel,38,3685,64,0
436,97.333333,note_off,38,3685,64,320
437,98.000000,note_on,43,0,64,0
438,98.000000,note_off,43,0,64,320
439,98.666667,note_on,44,0,64,0
440,98.666667,note_off,44,0,64,160
441,99.000000,note_on,43,0,64,0
442,99.000000,note_off,43,0,64,160
443,99.333333,note_on,38,3685,64,0
444,99.333333,pitchwheel,38,3685,64,0
445,99.333333,note_off,38,3685,64,320
446,100.000000,note_on,47,3276,64,0
447,100.000000,pitchwheel,47,3276,64,0
448,100.000000,note_off,47,3276,64,320
449,100.666667,note_on,43,409,64,0
450,100.666667,pitchwheel,43,409,64,0
451,100.666667,note_off,43,409,64,320
452,101.333333,note_on,44,0,64,0
453,101.333333,note_off,44,0,64,320
454,102.000000,note_on,43,0,64,0
455,102.000000,note_off,43,0,64,320
456,102.666667,note_on,47,3685,64,0
457,102.666667,pitchwheel,47,3685,64,0
458,102.666667,note_off,47,3685,64,160
459,103.000000,note_on,46,409,64,0
460,103.000000,pitchwheel,46,409,64,0
461,103.000000,note_off,46,409,64,160
462,103.333333,note_on,38,0,64,0
463,103.333333,note_off,38,0,64,320
464,104.000000,note_on,36,819,64,0
465,104.000000,pitchwheel,36,819,64,0
466,104.000000,note_off,36,819,64,320
467,104.666667,note_on,36,2047,64,0
468,104.666667,pitchwheel,36,2047,64,0
469,104.666667,note_off,36,2047,64,160
470,105.000000,note_on,47,2047,64,0
471,105.000000,pitchwheel,47,2047,64,0
472,105.000000,note_off,47,2047,64,160
473,105.333333,note_on,36,819,64,0
474,105.333333,pitchwheel,36,819,64,0
475,105.333333,note_off,36,819,64,320
476,106.000000,note_on,40,2866,64,0
477,106.000000,pitchwheel,40,2866,64,0
478,106.000000,note_off,40,2866,64,320
479,106.666667,note_on,36,3276,64,0
480,106.666667,pitchwheel,36,3276,64,0
481,106.666667,note_off,36,3276,64,160
482,107.000000,note_on,40,2457,64,0
483,107.000000,pitchwheel,40,2457,64,0
484,107.000000,note_off,40,2457,64,160
485,107.333333,note_on,40,1638,64,0
486,107.333333,pitchwheel,40,1638,64,0
487,107.333333,note_off,40,1638,64,320
488,108.000000,note_on,41,0,64,0
489,108.000000,note_off,41,0,64,320
490,108.666667,note_on,45,1638,64,0
491,108.666667,pitchwheel,45,1638,64,0
492,108.666667,note_off,45,1638,64,160
493,109.000000,note_on,50,3685,64,0
494,109.000000,pitchwheel,50,3685,64,0
495,109.000000,note_off,50,3685,64,160
496,109.333333,note_on,56,0,64,0
497,109.333333,note_off,56,0,64,320
498,110.000000,note_on,57,1638,64,0
499,110.000000,pitchwheel,57,1638,64,0
500,110.000000,note_off,57,1638,64,320
501,110.666667,note_on,59,3276,64,0
502,110.666667,pitchwheel,59,3276,64,0
503,110.666667,note_off,59,3276,64,160
504,111.000000,note_on,48,2047,64,0
505,111.000000,pitchwheel,48,2047,64,0
506,111.000000,note_off,48,2047,64,480
507,112.000000,note_on,51,819,64,0
508,112.000000,pitchwheel,51,819,64,0
509,112.000000,note_off,51,819,64,480
510,113.000000,note_on,50,2457,64,0
511,113.000000,pitchwheel,50,2457,64,0
512,113.000000,note_off,50,2457,64,160
513,113.333333,note_on,47,2047,64,0
514,113.333333,pitchwheel,47,2047,64,0
515,113.333333,note_off,47,2047,64,320
516,114.000000,note_on,47,3276,64,0
517,114.000000,pitchwheel,47,3276,64,0
518,114.000000,note_off,47,3276,64,320
519,114.666667,note_on,46,0,64,0
520,114.666667,note_off,46,0,64,160
521,115.000000,note_on,47,2457,64,0
522,115.000000,pitchwheel,47,2457,64,0
523,115.000000,note_off,47,2457,64,160
524,115.333333,note_on,45,2047,64,0
525,115.333333,pitchwheel,45,2047,64,0
526,115.333333,note_off,45,2047,64,320
527,116.000000,note_on,45,3276,64,0
528,116.000000,pitchwheel,45,3276,64,0
529,116.000000,note_off,45,3276,64,320
530,116.666667,note_on,40,2457,64,0
531,116.666667,pitchwheel,40,2457,64,0
532,116.666667,note_off,40,2457,64,160
533,117.000000,note_on,36,2047,64,0
534,117.000000,pitchwheel,36,2047,64,0
535,117.000000,note_off,36,2047,64,160
536,117.333333,note_on,41,2457,64,0
537,117.333333,pitchwheel,41,2457,64,0
538,117.333333,note_off,41,2457,64,320
539,118.000000,note_on,45,0,64,0
540,118.000000,note_off,45,0,64,480
541,119.333333,note_on,50,819,64,0
542,119.333333,pitchwheel,50,819,64,0
543,119.333333,note_off,50,819,64,320
544,120.000000,note_on,51,819,64,0
545,120.000000,pitchwheel,51,819,64,0
546,120.000000,note_off,51,819,64,480
547,121.000000,note_on,50,2457,64,0
548,121.000000,pitchwheel,50,2457,64,0
549,121.000000,note_off,50,2457,64,160
550,121.333333,note_on,48,819,64,0
551,121.333333,pitchwheel,48,819,64,0
552,121.333333,note_off,48,819,64,320
553,122.000000,note_on,45,2047,64,0
554,122.000000,pitchwheel,45,2047,64,0
555,122.000000,note_off,45,2047,64,320
556,122.666667,note_on,46,0,64,0
557,122.666667,note_off,46,0,64,160
558,123.000000,note_on,47,3276,64,0
559,123.000000,pitchwheel,47,3276,64,0
560,123.000000,note_off,47,3276,64,160
561,123.333333,note_on,44,2047,64,0
562,123.333333,pitchwheel,44,2047,64,0
563,123.333333,note_off,44,2047,64,320
564,124.000000,note_on,43,2866,64,0
565,124.000000,pitchwheel,43,2866,64,0
566,124.000000,note_off,43,2866,64,320
567,124.666667,note_on,40,2457,64,0
568,124.666667,pitchwheel,40,2457,64,0
569,124.666667,note_off,40,2457,64,160
570,125.000000,note_on,47,2047,64,0
571,125.000000,pitchwheel,47,2047,64,0
572,125.000000,note_off,47,2047,64,160
573,125.333333,note_on,36,3276,64,0
574,125.333333,pitchwheel,36,3276,64,0
575,125.333333,note_off,36,3276,64,320
576,126.000000,note_on,38,1228,64,0
577,126.000000,pitchwheel,38,1228,64,0
578,126.000000,note_off,38,1228,64,320
579,126.666667,note_on,36,2047,64,0
580,126.666667,pitchwheel,36,2047,64,0
581,126.666667,note_off,36,2047,64,320
582,127.333333,note_on,47,3685,64,0
583,127.333333,pitchwheel,47,3685,64,0
584,127.333333,note_off,47,3685,64,320
585,128.000000,note_on,45,2047,64,0
586,128.000000,pitchwheel,45,2047,64,0
587,128.000000,note_off,45,2047,64,320
588,128.666667,note_on,38,0,64,0
589,128.666667,note_off,38,0,64,320
590,129.333333,note_on,45,0,64,0
591,129.333333,note_off,45,0,64,320
592,130.000000,note_on,43,0,64,0
593,130.000000,note_off,43,0,64,320
594,130.666667,note_on,46,1638,64,0
595,130.666667,pitchwheel,46,1638,64,0
596,130.666667,note_off,46,1638,64,160
597,131.000000,note_on,38,819,64,0
598,131.000000,pitchwheel,38,819,64,0
599,131.000000,note_off,38,819,64,160
600,131.333333,note_on,40,2866,64,0
601,131.333333,pitchwheel,40,2866,64,0
602,131.333333,note_off,40,2866,64,320
603,132.000000,note_on,38,2457,64,0
604,132.000000,pitchwheel,38,2457,64,0
605,132.000000,note_off,38,2457,64,480
606,133.000000,note_on,43,2866,64,0
607,133.000000,pitchwheel,43,2866,64,0
608,133.000000,note_off,43,2866,64,160
609,133.333333,note_on,43,0,64,0
610,133.333333,note_off,43,0,64,320
611,134.000000,note_on,43,1638,64,0
612,134.000000,pitchwheel,43,1638,64,0
613,134.000000,note_off,43,1638,64,480
614,135.000000,note_on,38,819,64,0
615,135.000000,pitchwheel,38,819,64,0
616,135.000000,note_off,38,819,64,160
617,135.333333,note_on,45,1638,64,0
618,135.333333,pitchwheel,45,1638,64,0
619,135.333333,note_off,45,1638,64,320
620,136.000000,note_on,44,0,64,0
621,136.000000,note_off,44,0,64,320
622,136.666667,note_on,36,2047,64,0
623,136.666667,pitchwheel,36,2047,64,0
624,136.666667,note_off,36,2047,64,160
625,137.000000,note_on,45,0,64,0
626,137.000000,note_off,45,0,64,160
627,137.333333,note_on,46,409,64,0
628,137.333333,pitchwheel,46,409,64,0
629,137.333333,note_off,46,409,64,320
630,138.000000,note_on,45,2047,64,0
631,138.000000,pitchwheel,45,2047,64,0
632,138.000000,note_off,45,2047,64,320
633,138.666667,note_on,43,409,64,0
634,138.666667,pitchwheel,43,409,64,0
635,138.666667,note_off,43,409,64,160
636,139.000000,note_on,40,2457,64,0
637,139.000000,pitchwheel,40,2457,64,0
638,139.000000,note_off,40,2457,64,480
639,140.000000,note_on,44,2047,64,0
640,140.000000,pitchwheel,44,2047,64,0
641,140.000000,note_off,44,2047,64,320
642,140.666667,note_on,47,3276,64,0
643,140.666667,pitchwheel,47,3276,64,0
644,140.666667,note_off,47,3276,64,320
645,141.333333,note_on,46,1638,64,0
646,141.333333,pitchwheel,46,1638,64,0
647,141.333333,note_off,46,1638,64,320
648,142.000000,note_on,36,819,64,0
649,142.000000,pitchwheel,36,819,64,0
650,142.000000,note_off,36,819,64,320
651,142.666667,note_on,47,3685,64,0
652,142.666667,pitchwheel,47,3685,64,0
653,142.666667,note_off,47,3685,64,160
654,143.000000,note_on,45,2047,64,0
655,143.000000,pitchwheel,45,2047,64,0
656,143.000000,note_off,45,2047,64,160
657,143.333333,note_on,45,1638,64,0
658,143.333333,pitchwheel,45,1638,64,0
659,143.333333,note_off,45,1638,64,320
660,144.000000,note_on,45,2047,64,0
661,144.000000,pitchwheel,45,2047,64,0
662,144.000000,note_off,45,2047,64,320
663,144.666667,note_on,45,0,64,0
664,144.666667,note_off,45,0,64,160
665,145.000000,note_on,45,3276,64,0
666,145.000000,pitchwheel,45,3276,64,0
667,145.000000,note_off,45,3276,64,160
668,145.333333,note_on,38,3685,64,0
669,145.333333,pitchwheel,38,3685,64,0
670,145.333333,note_off,38,3685,64,640
671,146.666667,note_on,36,3276,64,0
672,146.666667,pitchwheel,36,3276,64,0
673,146.666667,note_off,36,3276,64,160
674,147.000000,note_on,43,0,64,0
675,147.000000,note_off,43,0,64,480
676,148.000000,note_on,44,0,64,0
677,148.000000,note_off,44,0,64,320
678,148.666667,note_on,47,2457,64,0
679,148.666667,pitchwheel,47,2457,64,0
680,148.666667,note_off,47,2457,64,160
681,149.000000,note_on,50,3685,64,0
682,149.000000,pitchwheel,50,3685,64,0
683,149.000000,note_off,50,3685,64,160
684,149.333333,note_on,45,2047,64,0
685,149.333333,pitchwheel,45,2047,64,0
686,149.333333,note_off,45,2047,64,320
687,150.000000,note_on,47,3276,64,0
688,150.000000,pitchwheel,47,3276,64,0
689,150.000000,note_off,47,3276,64,320
690,150.666667,note_on,50,2457,64,0
691,150.666667,pitchwheel,50,2457,64,0
692,150.666667,note_off,50,2457,64,160
693,151.000000,note_on,55,409,64,0
694,151.000000,pitchwheel,55,409,64,0
695,151.000000,note_off,55,409,64,160
696,151.333333,note_on,52,2457,64,0
697,151.333333,pitchwheel,52,2457,64,0
698,151.333333,note_off,52,2457,64,320
699,152.000000,note_on,51,819,64,0
700,152.000000,pitchwheel,51,819,64,0
701,152.000000,note_off,51,819,64,320
702,152.666667,note_on,55,1638,64,0
703,152.666667,pitchwheel,55,1638,64,0
704,152.666667,note_off,55,1638,64,160
705,153.000000,note_on,53,0,64,0
706,153.000000,note_off,53,0,64,160
707,153.333333,note_on,58,0,64,0
708,153.333333,note_off,58,0,64,320
709,154.000000,note_on,59,3685,64,0
710,154.000000,pitchwheel,59,3685,64,0
711,154.000000,note_off,59,3685,64,320
712,154.666667,note_on,48,3276,64,0
713,154.666667,pitchwheel,48,3276,64,0
714,154.666667,note_off,48,3276,64,160
715,155.000000,note_on,50,0,64,0
716,155.000000,note_off,50,0,64,160
717,155.333333,note_on,50,2457,64,0
718,155.333333,pitchwheel,50,2457,64,0
719,155.333333,note_off,50,2457,64,320
720,156.000000,note_on,48,2047,64,0
721,156.000000,pitchwheel,48,2047,64,0
722,156.000000,note_off,48,2047,64,320
723,156.666667,note_on,43,0,64,0
724,156.666667,note_off,43,0,64,160
725,157.000000,note_on,48,2047,64,0
726,157.000000,pitchwheel,48,2047,64,0
727,157.000000,note_off,48,2047,64,160
728,157.333333,note_on,48,819,64,0
729,157.333333,pitchwheel,48,819,64,0
730,157.333333,note_off,48,819,64,320
731,158.000000,note_on,53,0,64,0
732,158.000000,note_off,53,0,64,320
733,158.666667,note_on,52,2866,64,0
734,158.666667,pitchwheel,52,2866,64,0
735,158.666667,note_off,52,2866,64,320
736,160.000000,note_on,49,0,64,0
737,160.000000,note_off,49,0,64,320
738,160.666667,note_on,53,0,64,0
739,160.666667,note_off,53,0,64,160
740,161.000000,note_on,52,1638,64,0
741,161.000000,pitchwheel,52,1638,64,0
742,161.000000,note_off,52,1638,64,160
743,161.333333,note_on,50,2457,64,0
744,161.333333,pitchwheel,50,2457,64,0
745,161.333333,note_off,50,2457,64,320
746,162.000000,note_on,50,819,64,0
747,162.000000,pitchwheel,50,819,64,0
748,162.000000,note_off,50,819,64,320
749,162.666667,note_on,53,2457,64,0
750,162.666667,pitchwheel,53,2457,64,0
751,162.666667,note_off,53,2457,64,160
752,163.000000,note_on,57,1638,64,0
753,163.000000,pitchwheel,57,1638,64,0
754,163.000000,note_off,57,1638,64,480
755,164.000000,note_on,56,0,64,0
756,164.000000,note_off,56,0,64,480
757,165.000000,note_on,50,2457,64,0
758,165.000000,pitchwheel,50,2457,64,0
759,165.000000,note_off,50,2457,64,160
760,165.333333,note_on,48,3276,64,0
761,165.333333,pitchwheel,48,3276,64,0
762,165.333333,note_off,48,3276,64,320
763,166.000000,note_on,47,3276,64,0
764,166.000000,pitchwheel,47,3276,64,0
765,166.000000,note_off,47,3276,64,320
766,166.666667,note_on,47,2047,64,0
767,166.666667,pitchwheel,47,2047,64,0
768,166.666667,note_off,47,2047,64,320
769,167.333333,note_on,52,2457,64,0
770,167.333333,pitchwheel,52,2457,64,0
771,167.333333,note_off,52,2457,64,320
772,168.000000,note_on,51,819,64,0
773,168.000000,pitchwheel,51,819,64,0
774,168.000000,note_off,51,819,64,320
775,168.666667,note_on,48,819,64,0
776,168.666667,pitchwheel,48,819,64,0
777,168.666667,note_off,48,819,64,320
778,169.333333,note_on,47,3685,64,0
779,169.333333,pitchwheel,47,3685,64,0
780,169.333333,note_off,47,3685,64,320
781,170.000000,note_on,47,2047,64,0
782,170.000000,pitchwheel,47,2047,64,0
783,170.000000,note_off,47,2047,64,320
784,170.666667,note_on,45,2047,64,0
785,170.666667,pitchwheel,45,2047,64,0
786,170.666667,note_off,45,2047,64,160
787,171.000000,note_on,47,3276,64,0
788,171.000000,pitchwheel,47,3276,64,0
789,171.000000,note_off,47,3276,64,160
790,171.333333,note_on,45,0,64,0
791,171.333333,note_off,45,0,64,320
792,172.000000,note_on,46,0,64,0
793,172.000000,note_off,46,0,64,320
794,172.666667,note_on,43,0,64,0
795,172.666667,note_off,43,0,64,160
796,173.000000,note_on,45,2047,64,0
797,173.000000,pitchwheel,45,2047,64,0
798,173.000000,note_off,45,2047,64,160
799,173.333333,note_on,41,0,64,0
800,173.333333,note_off,41,0,64,320
801,174.000000,note_on,45,3276,64,0
802,174.000000,pitchwheel,45,3276,64,0
803,174.000000,note_off,45,3276,64,320
804,174.666667,note_on,45,2047,64,0
805,174.666667,pitchwheel,45,2047,64,0
806,174.666667,note_off,45,2047,64,160
807,175.000000,note_on,40,2457,64,0
808,175.000000,pitchwheel,40,2457,64,0
809,175.000000,note_off,40,2457,64,160
810,175.333333,note_on,47,2457,64,0
811,175.333333,pitchwheel,47,2457,64,0
812,175.333333,note_off,47,2457,64,320
813,176.000000,note_on,38,2457,64,0
814,176.000000,pitchwheel,38,2457,64,0
815,176.000000,note_off,38,2457,64,320
816,176.666667,note_on,40,2866,64,0
817,176.666667,pitchwheel,40,2866,64,0
818,176.666667,note_off,40,2866,64,160
819,177.000000,note_on,45,0,64,0
820,177.000000,note_off,45,0,64,160
821,177.333333,note_on,43,2866,64,0
822,177.333333,pitchwheel,43,2866,64,0
823,177.333333,note_off,43,2866,64,320
824,178.000000,note_on,45,1638,64,0
825,178.000000,pitchwheel,45,1638,64,0
826,178.000000,note_off,45,1638,64,320
827,178.666667,note_on,46,1638,64,0
828,178.666667,pitchwheel,46,1638,64,0
829,178.666667,note_off,46,1638,64,160
830,179.000000,note_on,50,819,64,0
831,179.000000,pitchwheel,50,819,64,0
832,179.000000,note_off,50,819,64,160
833,179.333333,note_on,55,1638,64,0
834,179.333333,pitchwheel,55,1638,64,0
835,179.333333,note_off,55,1638,64,320
836,180.000000,note_on,53,0,64,0
837,180.000000,note_off,53,0,64,320
838,180.666667,note_on,50,0,64,0
839,180.666667,note_off,50,0,64,320
840,181.333333,note_on,47,2457,64,0
841,181.333333,pitchwheel,47,2457,64,0
842,181.333333,note_off,47,2457,64,320
843,182.000000,note_on,48,819,64,0
844,182.000000,pitchwheel,48,819,64,0
845,182.000000,note_off,48,819,64,320
846,182.666667,note_on,45,0,64,0
847,182.666667,note_off,45,0,64,160
848,183.000000,note_on,45,2047,64,0
849,183.000000,pitchwheel,45,2047,64,0
850,183.000000,note_off,45,2047,64,160
851,183.333333,note_on,47,3276,64,0
852,183.333333,pitchwheel,47,3276,64,0
853,183.333333,note_off,47,3276,64,320
854,184.000000,note_on,46,0,64,0
855,184.000000,note_off,46,0,64,320
856,184.666667,note_on,41,0,64,0
857,184.666667,note_off,41,0,64,160
858,185.000000,note_on,44,2047,64,0
859,185.000000,pitchwheel,44,2047,64,0
860,185.000000,note_off,44,2047,64,160
861,185.333333,note_on,40,2457,64,0
862,185.333333,pitchwheel,40,2457,64,0
863,185.333333,note_off,40,2457,64,320
864,186.000000,note_on,43,2866,64,0
865,186.000000,pitchwheel,43,2866,64,0
866,186.000000,note_off,43,2866,64,320
867,186.666667,note_on,40,2457,64,0
868,186.666667,pitchwheel,40,2457,64,0
869,186.666667,note_off,40,2457,64,320
870,187.333333,note_on,36,2047,64,0
871,187.333333,pitchwheel,36,2047,64,0
872,187.333333,note_off,36,2047,64,320
873,188.000000,note_on,36,3276,64,0
874,188.000000,pitchwheel,36,3276,64,0
875,188.000000,note_off,36,3276,64,320
876,188.666667,note_on,47,3276,64,0
877,188.666667,pitchwheel,47,3276,64,0
878,188.666667,note_off,47,3276,64,160
879,189.000000,note_on,38,1228,64,0
880,189.000000,pitchwheel,38,1228,64,0
881,189.000000,note_off,38,1228,64,160
882,189.333333,note_on,39,819,64,0
883,189.333333,pitchwheel,39,819,64,0
884,189.333333,note_off,39,819,64,320
885,190.000000,note_on,36,2047,64,0
886,190.000000,pitchwheel,36,2047,64,0
887,190.000000,note_off,36,2047,64,320
888,190.666667,note_on,45,2047,64,0
889,190.666667,pitchwheel,45,2047,64,0
890,190.666667,note_off,45,2047,64,160
891,191.000000,note_on,47,3685,64,0
892,191.000000,pitchwheel,47,3685,64,0
893,191.000000,note_off,47,3685,64,800
894,193.000000,note_on,38,0,64,0
895,193.000000,note_off,38,0,64,160
896,193.333333,note_on,45,3276,64,0
897,193.333333,pitchwheel,45,3276,64,0
898,193.333333,note_off,45,3276,64,320
899,194.000000,note_on,45,0,64,0
900,194.000000,note_off,45,0,64,320
901,194.666667,note_on,38,3685,64,0
902,194.666667,pitchwheel,38,3685,64,0
903,194.666667,note_off,38,3685,64,160
904,195.000000,note_on,43,0,64,0
905,195.000000,note_off,43,0,64,160
906,195.333333,note_on,45,3276,64,0
907,195.333333,pitchwheel,45,3276,64,0
908,195.333333,note_off,45,3276,64,320
909,196.000000,note_on,45,2047,64,0
910,196.000000,pitchwheel,45,2047,64,0
911,196.000000,note_off,45,2047,64,320
912,196.666667,note_on,40,2457,64,0
913,196.666667,pitchwheel,40,2457,64,0
914,196.666667,note_off,40,2457,64,160
915,197.000000,note_on,40,2866,64,0
916,197.000000,pitchwheel,40,2866,64,0
917,197.000000,note_off,40,2866,64,160
918,197.333333,note_on,36,819,64,0
919,197.333333,pitchwheel,36,819,64,0
920,197.333333,note_off,36,819,64,320
921,198.000000,note_on,43,0,64,0
922,198.000000,note_off,43,0,64,320
923,198.666667,note_on,38,3685,64,0
924,198.666667,pitchwheel,38,3685,64,0
925,198.666667,note_off,38,3685,64,320
926,199.333333,note_on,40,2457,64,0
927,199.333333,pitchwheel,40,2457,64,0
928,199.333333,note_off,40,2457,64,320
929,200.000000,note_on,43,0,64,0
930,200.000000,note_off,43,0,64,480
931,201.000000,note_on,41,0,64,0
932,201.000000,note_off,41,0,64,160
933,201.333333,note_on,43,409,64,0
934,201.333333,pitchwheel,43,409,64,0
935,201.333333,note_off,43,409,64,320
936,202.000000,note_on,43,1638,64,0
937,202.000000,pitchwheel,43,1638,64,0
938,202.000000,note_off,43,1638,64,320
939,202.666667,note_on,44,0,64,0
940,202.666667,note_off,44,0,64,160
941,203.000000,note_on,45,1638,64,0
942,203.000000,pitchwheel,45,1638,64,0
943,203.000000,note_off,45,1638,64,160
944,203.333333,note_on,47,2047,64,0
945,203.333333,pitchwheel,47,2047,64,0
946,203.333333,note_off,47,2047,64,320
947,204.000000,note_on,44,0,64,0
948,204.000000,note_off,44,0,64,320
949,204.666667,note_on,43,0,64,0
950,204.666667,note_off,43,0,64,160
951,205.000000,note_on,36,2047,64,0
952,205.000000,pitchwheel,36,2047,64,0
953,205.000000,note_off,36,2047,64,160
954,205.333333,note_on,46,1638,64,0
955,205.333333,pitchwheel,46,1638,64,0
956,205.333333,note_off,46,1638,64,320
957,206.000000,note_on,46,409,64,0
958,206.000000,pitchwheel,46,409,64,0
959,206.000000,note_off,46,409,64,320
960,206.666667,note_on,43,1638,64,0
961,206.666667,pitchwheel,43,1638,64,0
962,206.666667,note_off,43,1638,64,320
963,207.333333,note_on,41,0,64,0
964,207.333333,note_off,41,0,64,320
965,208.000000,note_on,43,409,64,0
966,208.000000,pitchwheel,43,409,64,0
967,208.000000,note_off,43,409,64,320
968,208.666667,note_on,38,3685,64,0
969,208.666667,pitchwheel,38,3685,64,0
970,208.666667,note_off,38,3685,64,320
971,209.333333,note_on,36,2047,64,0
972,209.333333,pitchwheel,36,2047,64,0
973,209.333333,note_off,36,2047,64,320
974,210.000000,note_on,45,1638,64,0
975,210.000000,pitchwheel,45,1638,64,0
976,210.000000,note_off,45,1638,64,320
977,210.666667,note_on,36,819,64,0
978,210.666667,pitchwheel,36,819,64,0
979,210.666667,note_off,36,819,64,160
980,211.000000,note_on,47,3276,64,0
981,211.000000,pitchwheel,47,3276,64,0
982,211.000000,note_off,47,3276,64,160
983,211.333333,note_on,38,2457,64,0
984,211.333333,pitchwheel,38,2457,64,0
985,211.333333,note_off,38,2457,64,320
986,212.000000,note_on,38,1228,64,0
987,212.000000,pitchwheel,38,1228,64,0
988,212.000000,note_off,38,1228,64,480
989,213.000000,note_on,36,819,64,0
990,213.000000,pitchwheel,36,819,64,0
991,213.000000,note_off,36,819,64,160
992,213.333333,note_on,45,2047,64,0
993,213.333333,pitchwheel,45,2047,64,0
994,213.333333,note_off,45,2047,64,320
995,214.000000,note_on,47,3685,64,0
996,214.000000,pitchwheel,47,3685,64,0
997,214.000000,note_off,47,3685,64,320
998,214.666667,note_on,40,1638,64,0
999,214.666667,pitchwheel,40,1638,64,0
1000,214.666667,note_off,40,1638,64,160
1001,215.000000,note_on,45,1638,64,0
1002,215.000000,pitchwheel,45,1638,64,0
1003,215.000000,note_off,45,1638,64,160
1004,215.333333,note_on,43,0,64,0
1005,215.333333,note_off,43,0,64,320
1006,216.000000,note_on,41,0,64,0
1007,216.000000,note_off,41,0,64,320
1008,216.666667,note_on,37,0,64,0
1009,216.666667,note_off,37,0,64,160
1010,217.000000,note_on,45,0,64,0
1011,217.000000,note_off,45,0,64,160
1012,217.333333,note_on,46,0,64,0
1013,217.333333,note_off,46,0,64,320
1014,218.000000,note_on,38,3685,64,0
1015,218.000000,pitchwheel,38,3685,64,0
1016,218.000000,note_off,38,3685,64,320
1017,218.666667,note_on,44,0,64,0
1018,218.666667,note_off,44,0,64,160
1019,219.000000,note_on,38,819,64,0
1020,219.000000,pitchwheel,38,819,64,0
1021,219.000000,note_off,38,819,64,480
1022,220.000000,note_on,36,3276,64,0
1023,220.000000,pitchwheel,36,3276,64,0
1024,220.000000,note_off,36,3276,64,320
1025,220.666667,note_on,40,2457,64,0
1026,220.666667,pitchwheel,40,2457,64,0
1027,220.666667,note_off,40,2457,64,320
1028,221.333333,note_on,39,819,64,0
1029,221.333333,pitchwheel,39,819,64,0
1030,221.333333,note_off,39,819,64,320
1031,222.000000,note_on,45,3276,64,0
1032,222.000000,pitchwheel,45,3276,64,0
1033,222.000000,note_off,45,3276,64,320
1034,222.666667,note_on,46,409,64,0
1035,222.666667,pitchwheel,46,409,64,0
1036,222.666667,note_off,46,409,64,160
1037,223.000000,note_on,47,2457,64,0
1038,223.000000,pitchwheel,47,2457,64,0
1039,223.000000,note_off,47,2457,64,160
1040,223.333333,note_on,38,819,64,0
1041,223.333333,pitchwheel,38,819,64,0
1042,223.333333,note_off,38,819,64,320
1043,224.000000,note_on,39,819,64,0
1044,224.000000,pitchwheel,39,819,64,0
1045,224.000000,note_off,39,819,64,320
1046,224.666667,note_on,45,0,64,0
1047,224.666667,note_off,45,0,64,160
1048,225.000000,note_on,40,0,64,0
1049,225.000000,note_off,40,0,64,480
1050,226.000000,note_on,38,2457,64,0
1051,226.000000,pitchwheel,38,2457,64,0
1052,226.000000,note_off,38,2457,64,320
1053,226.666667,note_on,47,2047,64,0
1054,226.666667,pitchwheel,47,2047,64,0
1055,226.666667,note_off,47,2047,64,160
1056,227.000000,note_on,40,2457,64,0
1057,227.000000,pitchwheel,40,2457,64,0
1058,227.000000,note_off,40,2457,64,480
1059,228.000000,note_on,39,819,64,0
1060,228.000000,pitchwheel,39,819,64,0
1061,228.000000,note_off,39,819,64,320
1062,228.666667,note_on,46,409,64,0
1063,228.666667,pitchwheel,46,409,64,0
1064,228.666667,note_off,46,409,64,160
1065,229.000000,note_on,43,1638,64,0
1066,229.000000,pitchwheel,43,1638,64,0
1067,229.000000,note_off,43,1638,64,160
1068,229.333333,note_on,46,0,64,0
1069,229.333333,note_off,46,0,64,800
1070,231.000000,note_on,38,0,64,0
1071,231.000000,note_off,38,0,64,160
1072,231.333333,note_on,47,3276,64,0
1073,231.333333,pitchwheel,47,3276,64,0
1074,231.333333,note_off,47,3276,64,320
1075,232.000000,note_on,36,3276,64,0
1076,232.000000,pitchwheel,36,3276,64,0
1077,232.000000,note_off,36,3276,64,320
1078,232.666667,note_on,38,2457,64,0
1079,232.666667,pitchwheel,38,2457,64,0
1080,232.666667,note_off,38,2457,64,320
1081,233.333333,note_on,40,2457,64,0
1082,233.333333,pitchwheel,40,2457,64,0
1083,233.333333,note_off,40,2457,64,320
1084,234.000000,note_on,36,2047,64,0
1085,234.000000,pitchwheel,36,2047,64,0
1086,234.000000,note_off,36,2047,64,320
1087,234.666667,note_on,41,2457,64,0
1088,234.666667,pitchwheel,41,2457,64,0
1089,234.666667,note_off,41,2457,64,160
1090,235.000000,note_on,43,0,64,0
1091,235.000000,note_off,43,0,64,160
1092,235.333333,note_on,38,2457,64,0
1093,235.333333,pitchwheel,38,2457,64,0
1094,235.333333,note_off,38,2457,64,320
1095,236.000000,note_on,36,819,64,0
1096,236.000000,pitchwheel,36,819,64,0
1097,236.000000,note_off,36,819,64,320
1098,236.666667,note_on,45,1638,64,0
1099,236.666667,pitchwheel,45,1638,64,0
1100,236.666667,note_off,45,1638,64,160
1101,237.000000,note_on,41,0,64,0
1102,237.000000,note_off,41,0,64,160
1103,237.333333,note_on,46,1638,64,0
1104,237.333333,pitchwheel,46,1638,64,0
1105,237.333333,note_off,46,1638,64,320
1106,238.000000,note_on,41,0,64,0
1107,238.000000,note_off,41,0,64,320
1108,238.666667,note_on,41,1228,64,0
1109,238.666667,pitchwheel,41,1228,64,0
1110,238.666667,note_off,41,1228,64,320
1111,240.000000,note_on,40,0,64,0
1112,240.000000,note_off,40,0,64,320
1113,240.666667,note_on,38,2457,64,0
1114,240.666667,pitchwheel,38,2457,64,0
1115,240.666667,note_off,38,2457,64,160
1116,241.000000,note_on,41,0,64,0
1117,241.000000,note_off,41,0,64,480
1118,242.000000,note_on,38,2457,64,0
1119,242.000000,pitchwheel,38,2457,64,0
1120,242.000000,note_off,38,2457,64,480
1121,243.000000,note_on,38,819,64,0
1122,243.000000,pitchwheel,38,819,64,0
1123,243.000000,note_off,38,819,64,160
1124,243.333333,note_on,38,3685,64,0
1125,243.333333,pitchwheel,38,3685,64,0
1126,243.333333,note_off,38,3685,64,320
1127,244.000000,note_on,46,0,64,0
1128,244.000000,note_off,46,0,64,480
1129,245.333333,note_on,46,0,64,0
1130,245.333333,note_off,46,0,64,320
1131,246.000000,note_on,47,3276,64,0
1132,246.000000,pitchwheel,47,3276,64,0
1133,246.000000,note_off,47,3276,64,320
1134,246.666667,note_on,44,2047,64,0
1135,246.666667,pitchwheel,44,2047,64,0
1136,246.666667,note_off,44,2047,64,320
1137,247.333333,note_on,43,0,64,0
1138,247.333333,note_off,43,0,64,320
1139,248.000000,note_on,43,2866,64,0
1140,248.000000,pitchwheel,43,2866,64,0
1141,248.000000,note_off,43,2866,64,320
1142,248.666667,note_on,38,1228,64,0
1143,248.666667,pitchwheel,38,1228,64,0
1144,248.666667,note_off,38,1228,64,320
1145,249.333333,note_on,38,2457,64,0
1146,249.333333,pitchwheel,38,2457,64,0
1147,249.333333,note_off,38,2457,64,320
1148,250.000000,note_on,47,2047,64,0
1149,250.000000,pitchwheel,47,2047,64,0
1150,250.000000,note_off,47,2047,64,320
1151,250.666667,note_on,47,2457,64,0
1152,250.666667,pitchwheel,47,2457,64,0
1153,250.666667,note_off,47,2457,64,160
1154,251.000000,note_on,40,2457,64,0
1155,251.000000,pitchwheel,40,2457,64,0
1156,251.000000,note_off,40,2457,64,160
1157,251.333333,note_on,45,0,64,0
1158,251.333333,note_off,45,0,64,320
1159,252.000000,note_on,39,819,64,0
1160,252.000000,pitchwheel,39,819,64,0
1161,252.000000,note_off,39,819,64,320
1162,252.666667,note_on,40,2457,64,0
1163,252.666667,pitchwheel,40,2457,64,0
1164,252.666667,note_off,40,2457,64,160
1165,253.000000,note_on,36,819,64,0
1166,253.000000,pitchwheel,36,819,64,0
1167,253.000000,note_off,36,819,64,160
1168,253.333333,note_on,39,819,64,0
1169,253.333333,pitchwheel,39,819,64,0
1170,253.333333,note_off,39,819,64,320
1171,254.000000,note_on,47,3685,64,0
1172,254.000000,pitchwheel,47,3685,64,0
1173,254.000000,note_off,47,3685,64,480
1174,255.000000,note_on,43,0,64,0
1175,255.000000,note_off,43,0,64,160
1176,255.333333,note_on,45,2047,64,0
1177,255.333333,pitchwheel,45,2047,64,0
1178,255.333333,note_off,45,2047,64,640
1179,256.666667,note_on,47,3685,64,0
1180,256.666667,pitchwheel,47,3685,64,0
1181,256.666667,note_off,47,3685,64,160
1182,257.000000,note_on,45,0,64,0
1183,257.000000,note_off,45,0,64,160
1184,257.333333,note_on,38,0,64,0
1185,257.333333,note_off,38,0,64,320
1186,258.000000,note_on,38,819,64,0
1187,258.000000,pitchwheel,38,819,64,0
1188,258.000000,note_off,38,819,64,320
1189,258.666667,note_on,36,3276,64,0
1190,258.666667,pitchwheel,36,3276,64,0
1191,258.666667,note_off,36,3276,64,160
1192,259.000000,note_on,43,0,64,0
1193,259.000000,note_off,43,0,64,160
1194,259.333333,note_on,43,409,64,0
1195,259.333333,pitchwheel,43,409,64,0
1196,259.333333,note_off,43,409,64,320
1197,260.000000,note_on,43,0,64,0
1198,260.000000,note_off,43,0,64,320
1199,260.666667,note_on,43,409,64,0
1200,260.666667,pitchwheel,43,409,64,0
1201,260.666667,note_off,43,409,64,320
1202,261.333333,note_on,46,1638,64,0
1203,261.333333,pitchwheel,46,1638,64,0
1204,261.333333,note_off,46,1638,64,320
1205,262.000000,note_on,45,2047,64,0
1206,262.000000,pitchwheel,45,2047,64,0
1207,262.000000,note_off,45,2047,64,320
1208,262.666667,note_on,40,2866,64,0
1209,262.666667,pitchwheel,40,2866,64,0
1210,262.666667,note_off,40,2866,64,160
1211,263.000000,note_on,47,2457,64,0
1212,263.000000,pitchwheel,47,2457,64,0
1213,263.000000,note_off,47,2457,64,160
1214,263.333333,note_on,47,3276,64,0
1215,263.333333,pitchwheel,47,3276,64,0
1216,263.333333,note_off,47,3276,64,320
1217,264.000000,note_on,46,1638,64,0
1218,264.000000,pitchwheel,46,1638,64,0
1219,264.000000,note_off,46,1638,64,320
1220,264.666667,note_on,45,2047,64,0
1221,264.666667,pitchwheel,45,2047,64,0
1222,264.666667,note_off,45,2047,64,160
1223,265.000000,note_on,40,2866,64,0
1224,265.000000,pitchwheel,40,2866,64,0
1225,265.000000,note_off,40,2866,64,160
1226,265.333333,note_on,45,3276,64,0
1227,265.333333,pitchwheel,45,3276,64,0
1228,265.333333,note_off,45,3276,64,320
1229,266.000000,note_on,43,2866,64,0
1230,266.000000,pitchwheel,43,2866,64,0
1231,266.000000,note_off,43,2866,64,320
1232,266.666667,note_on,44,2047,64,0
1233,266.666667,pitchwheel,44,2047,64,0
1234,266.666667,note_off,44,2047,64,160
1235,267.000000,note_on,45,1638,64,0
1236,267.000000,pitchwheel,45,1638,64,0
1237,267.000000,note_off,45,1638,64,160
1238,267.333333,note_on,40,1638,64,0
1239,267.333333,pitchwheel,40,1638,64,0
1240,267.333333,note_off,40,1638,64,320
1241,268.000000,note_on,41,0,64,0
1242,268.000000,note_off,41,0,64,320
1243,268.666667,note_on,45,1638,64,0
1244,268.666667,pitchwheel,45,1638,64,0
1245,268.666667,note_off,45,1638,64,160
1246,269.000000,note_on,43,1638,64,0
1247,269.000000,pitchwheel,43,1638,64,0
1248,269.000000,note_off,43,1638,64,160
1249,269.333333,note_on,44,0,64,0
1250,269.333333,note_off,44,0,64,320
1251,270.000000,note_on,41,0,64,0
1252,270.000000,note_off,41,0,64,320
1253,270.666667,note_on,45,1638,64,0
1254,270.666667,pitchwheel,45,1638,64,0
1255,270.666667,note_off,45,1638,64,160
1256,271.000000,note_on,50,0,64,0
1257,271.000000,note_off,50,0,64,480
1258,272.000000,note_on,47,2457,64,0
1259,272.000000,pitchwheel,47,2457,64,0
1260,272.000000,note_off,47,2457,64,480
1261,273.000000,note_on,50,2457,64,0
1262,273.000000,pitchwheel,50,2457,64,0
1263,273.000000,note_off,50,2457,64,160
1264,273.333333,note_on,52,0,64,0
1265,273.333333,note_off,52,0,64,320
1266,274.000000,note_on,55,0,64,0
1267,274.000000,note_off,55,0,64,320
1268,274.666667,note_on,58,0,64,0
1269,274.666667,note_off,58,0,64,160
1270,275.000000,note_on,59,3276,64,0
1271,275.000000,pitchwheel,59,3276,64,0
1272,275.000000,note_off,59,3276,64,160
1273,275.333333,note_on,53,1228,64,0
1274,275.333333,pitchwheel,53,1228,64,0
1275,275.333333,note_off,53,1228,64,320
1276,276.000000,note_on,53,0,64,0
1277,276.000000,note_off,53,0,64,320
1278,276.666667,note_on,47,3276,64,0
1279,276.666667,pitchwheel,47,3276,64,0
1280,276.666667,note_off,47,3276,64,160
1281,277.000000,note_on,53,0,64,0
1282,277.000000,note_off,53,0,64,160
1283,277.333333,note_on,51,819,64,0
1284,277.333333,pitchwheel,51,819,64,0
1285,277.333333,note_off,51,819,64,320
1286,278.000000,note_on,52,2457,64,0
1287,278.000000,pitchwheel,52,2457,64,0
1288,278.000000,note_off,52,2457,64,480
1289,279.333333,note_on,52,2457,64,0
1290,279.333333,pitchwheel,52,2457,64,0
1291,279.333333,note_off,52,2457,64,800
1292,281.000000,note_on,48,2047,64,0
1293,281.000000,pitchwheel,48,2047,64,0
1294,281.000000,note_off,48,2047,64,160
1295,281.333333,note_on,50,2457,64,0
1296,281.333333,pitchwheel,50,2457,64,0
1297,281.333333,note_off,50,2457,64,320
1298,282.000000,note_on,45,2047,64,0
1299,282.000000,pitchwheel,45,2047,64,0
1300,282.000000,note_off,45,2047,64,320
1301,282.666667,note_on,46,1638,64,0
1302,282.666667,pitchwheel,46,1638,64,0
1303,282.666667,note_off,46,1638,64,160
1304,283.000000,note_on,47,3276,64,0
1305,283.000000,pitchwheel,47,3276,64,0
1306,283.000000,note_off,47,3276,64,160
1307,283.333333,note_on,44,2047,64,0
1308,283.333333,pitchwheel,44,2047,64,0
1309,283.333333,note_off,44,2047,64,320
1310,284.000000,note_on,39,819,64,0
1311,284.000000,pitchwheel,39,819,64,0
1312,284.000000,note_off,39,819,64,320
1313,284.666667,note_on,38,819,64,0
1314,284.666667,pitchwheel,38,819,64,0
1315,284.666667,note_off,38,819,64,160
1316,285.000000,note_on,45,0,64,0
1317,285.000000,note_off,45,0,64,160
1318,285.333333,note_on,39,819,64,0
1319,285.333333,pitchwheel,39,819,64,0
1320,285.333333,note_off,39,819,64,320
1321,286.000000,note_on,36,2047,64,0
1322,286.000000,pitchwheel,36,2047,64,0
1323,286.000000,note_off,36,2047,64,320
1324,286.666667,note_on,46,0,64,0
1325,286.666667,note_off,46,0,64,320
1326,287.333333,note_on,47,3685,64,0
1327,287.333333,pitchwheel,47,3685,64,0
1328,287.333333,note_off,47,3685,64,640
1329,288.666667,note_on,38,0,64,0
1330,288.666667,note_off,38,0,64,320
1331,289.333333,note_on,45,0,64,0
1332,289.333333,note_off,45,0,64,320
1333,290.000000,note_on,45,3276,64,0
1334,290.000000,pitchwheel,45,3276,64,0
1335,290.000000,note_off,45,3276,64,320
1336,290.666667,note_on,38,3685,64,0
1337,290.666667,pitchwheel,38,3685,64,0
1338,290.666667,note_off,38,3685,64,160
1339,291.000000,note_on,38,819,64,0
1340,291.000000,pitchwheel,38,819,64,0
1341,291.000000,note_off,38,819,64,160
1342,291.333333,note_on,46,409,64,0
1343,291.333333,pitchwheel,46,409,64,0
1344,291.333333,note_off,46,409,64,320
1345,292.000000,note_on,45,3276,64,0
1346,292.000000,pitchwheel,45,3276,64,0
1347,292.000000,note_off,45,3276,64,640
1348,293.333333,note_on,45,1638,64,0
1349,293.333333,pitchwheel,45,1638,64,0
1350,293.333333,note_off,45,1638,64,320
1351,294.000000,note_on,45,2047,64,0
1352,294.000000,pitchwheel,45,2047,64,0
1353,294.000000,note_off,45,2047,64,480
1354,295.000000,note_on,40,2457,64,0
1355,295.000000,pitchwheel,40,2457,64,0
1356,295.000000,note_off,40,2457,64,160
1357,295.333333,note_on,38,819,64,0
1358,295.333333,pitchwheel,38,819,64,0
1359,295.333333,note_off,38,819,64,320
1360,296.000000,note_on,36,2047,64,0
1361,296.000000,pitchwheel,36,2047,64,0
1362,296.000000,note_off,36,2047,64,480
1363,297.000000,note_on,45,0,64,0
1364,297.000000,note_off,45,0,64,160
1365,297.333333,note_on,47,2457,64,0
1366,297.333333,pitchwheel,47,2457,64,0
1367,297.333333,note_off,47,2457,64,320
1368,298.000000,note_on,38,3685,64,0
1369,298.000000,pitchwheel,38,3685,64,0
1370,298.000000,note_off,38,3685,64,320
1371,298.666667,note_on,45,2047,64,0
1372,298.666667,pitchwheel,45,2047,64,0
1373,298.666667,note_off,45,2047,64,160
1374,299.000000,note_on,40,2457,64,0
1375,299.000000,pitchwheel,40,2457,64,0
1376,299.000000,note_off,40,2457,64,480
1377,300.000000,note_on,40,0,64,0
1378,300.000000,note_off,40,0,64,320
1379,300.666667,note_on,47,3276,64,0
1380,300.666667,pitchwheel,47,3276,64,0
1381,300.666667,note_off,47,3276,64,320
1382,301.333333,note_on,38,2457,64,0
1383,301.333333,pitchwheel,38,2457,64,0
1384,301.333333,note_off,38,2457,64,320
1385,302.000000,note_on,38,1228,64,0
1386,302.000000,pitchwheel,38,1228,64,0
1387,302.000000,note_off,38,1228,64,320
1388,302.666667,note_on,38,2457,64,0
1389,302.666667,pitchwheel,38,2457,64,0
1390,302.666667,note_off,38,2457,64,160
1391,303.000000,note_on,43,1638,64,0
1392,303.000000,pitchwheel,43,1638,64,0
1393,303.000000,note_off,43,1638,64,160
1394,303.333333,note_on,45,1638,64,0
1395,303.333333,pitchwheel,45,1638,64,0
1396,303.333333,note_off,45,1638,64,320
1397,304.000000,note_on,45,2047,64,0
1398,304.000000,pitchwheel,45,2047,64,0
1399,304.000000,note_off,45,2047,64,320
1400,304.666667,note_on,45,0,64,0
1401,304.666667,note_off,45,0,64,160
1402,305.000000,note_on,47,2047,64,0
1403,305.000000,pitchwheel,47,2047,64,0
1404,305.000000,note_off,47,2047,64,160
1405,305.333333,note_on,43,1638,64,0
1406,305.333333,pitchwheel,43,1638,64,0
1407,305.333333,note_off,43,1638,64,320
1408,306.000000,note_on,45,1638,64,0
1409,306.000000,pitchwheel,45,1638,64,0
1410,306.000000,note_off,45,1638,64,320
1411,306.666667,note_on,46,0,64,0
1412,306.666667,note_off,46,0,64,160
1413,307.000000,note_on,43,0,64,0
1414,307.000000,note_off,43,0,64,480
1415,308.000000,note_on,46,1638,64,0
1416,308.000000,pitchwheel,46,1638,64,0
1417,308.000000,note_off,46,1638,64,320
1418,308.666667,note_on,47,2457,64,0
1419,308.666667,pitchwheel,47,2457,64,0
1420,308.666667,note_off,47,2457,64,160
1421,309.000000,note_on,53,0,64,0
1422,309.000000,note_off,53,0,64,160
1423,309.333333,note_on,48,3276,64,0
1424,309.333333,pitchwheel,48,3276,64,0
1425,309.333333,note_off,48,3276,64,320
1426,310.000000,note_on,43,1638,64,0
1427,310.000000,pitchwheel,43,1638,64,0
1428,310.000000,note_off,43,1638,64,320
1429,310.666667,note_on,38,2457,64,0
1430,310.666667,pitchwheel,38,2457,64,0
1431,310.666667,note_off,38,2457,64,160
1432,311.000000,note_on,41,0,64,0
1433,311.000000,note_off,41,0,64,160
1434,311.333333,note_on,43,0,64,0
1435,311.333333,note_off,43,0,64,320
1436,312.000000,note_on,46,1638,64,0
1437,312.000000,pitchwheel,46,1638,64,0
1438,312.000000,note_off,46,1638,64,320
1439,312.666667,note_on,43,409,64,0
1440,312.666667,pitchwheel,43,409,64,0
1441,312.666667,note_off,43,409,64,160
1442,313.000000,note_on,38,3685,64,0
1443,313.000000,pitchwheel,38,3685,64,0
1444,313.000000,note_off,38,3685,64,160
1445,313.333333,note_on,43,0,64,0
1446,313.333333,note_off,43,0,64,320
1447,314.000000,note_on,38,0,64,0
1448,314.000000,note_off,38,0,64,320
1449,314.666667,note_on,36,819,64,0
1450,314.666667,pitchwheel,36,819,64,0
1451,314.666667,note_off,36,819,64,160
1452,315.000000,note_on,45,1638,64,0
1453,315.000000,pitchwheel,45,1638,64,0
1454,315.000000,note_off,45,1638,64,160
1455,315.333333,note_on,38,2457,64,0
1456,315.333333,pitchwheel,38,2457,64,0
1457,315.333333,note_off,38,2457,64,320
1458,316.000000,note_on,41,0,64,0
1459,316.000000,note_off,41,0,64,320
1460,316.666667,note_on,40,2457,64,0
1461,316.666667,pitchwheel,40,2457,64,0
1462,316.666667,note_off,40,2457,64,160
1463,317.000000,note_on,38,2457,64,0
1464,317.000000,pitchwheel,38,2457,64,0
1465,317.000000,note_off,38,2457,64,160
1466,317.333333,note_on,40,2866,64,0
1467,317.333333,pitchwheel,40,2866,64,0
1468,317.333333,note_off,40,2866,64,320
1469,318.000000,note_on,45,2047,64,0
1470,318.000000,pitchwheel,45,2047,64,0
1471,318.000000,note_off,45,2047,64,320
1472,318.666667,note_on,45,3276,64,0
1473,318.666667,pitchwheel,45,3276,64,0
1474,318.666667,note_off,45,3276,64,320
1475,320.000000,note_on,45,2047,64,0
1476,320.000000,pitchwheel,45,2047,64,0
1477,320.000000,note_off,45,2047,64,320
1478,320.666667,note_on,41,0,64,0
1479,320.666667,note_off,41,0,64,640
1480,322.000000,note_on,40,1638,64,0
1481,322.000000,pitchwheel,40,1638,64,0
1482,322.000000,note_off,40,1638,64,320
1483,322.666667,note_on,38,2457,64,0
1484,322.666667,pitchwheel,38,2457,64,0
1485,322.666667,note_off,38,2457,64,160
1486,323.000000,note_on,43,0,64,0
1487,323.000000,note_off,43,0,64,160
1488,323.333333,note_on,45,0,64,0
1489,323.333333,note_off,45,0,64,320
1490,324.000000,note_on,46,0,64,0
1491,324.000000,note_off,46,0,64,480
1492,325.000000,note_on,49,0,64,0
1493,325.000000,note_off,49,0,64,160
1494,325.333333,note_on,43,409,64,0
1495,325.333333,pitchwheel,43,409,64,0
1496,325.333333,note_off,43,409,64,320
1497,326.000000,note_on,46,0,64,0
1498,326.000000,note_off,46,0,64,320
1499,326.666667,note_on,40,0,64,0
1500,326.666667,note_off,40,0,64,320
1501,327.333333,note_on,40,2457,64,0
1502,327.333333,pitchwheel,40,2457,64,0
1503,327.333333,note_off,40,2457,64,320
1504,328.000000,note_on,41,2457,64,0
1505,328.000000,pitchwheel,41,2457,64,0
1506,328.000000,note_off,41,2457,64,320
1507,328.666667,note_on,38,1228,64,0
1508,328.666667,pitchwheel,38,1228,64,0
1509,328.666667,note_off,38,1228,64,320
1510,329.333333,note_on,38,2457,64,0
1511,329.333333,pitchwheel,38,2457,64,0
1512,329.333333,note_off,38,2457,64,320
1513,330.000000,note_on,37,0,64,0
1514,330.000000,note_off,37,0,64,320
1515,330.666667,note_on,43,409,64,0
1516,330.666667,pitchwheel,43,409,64,0
1517,330.666667,note_off,43,409,64,160
1518,331.000000,note_on,40,2457,64,0
1519,331.000000,pitchwheel,40,2457,64,0
1520,331.000000,note_off,40,2457,64,160
1521,331.333333,note_on,45,0,64,0
1522,331.333333,note_off,45,0,64,320
1523,332.000000,note_on,39,819,64,0
1524,332.000000,pitchwheel,39,819,64,0
1525,332.000000,note_off,39,819,64,320
1526,332.666667,note_on,38,819,64,0
1527,332.666667,pitchwheel,38,819,64,0
1528,332.666667,note_off,38,819,64,160
1529,333.000000,note_on,45,3276,64,0
1530,333.000000,pitchwheel,45,3276,64,0
1531,333.000000,note_off,45,3276,64,160
1532,333.333333,note_on,47,2047,64,0
1533,333.333333,pitchwheel,47,2047,64,0
1534,333.333333,note_off,47,2047,64,320
1535,334.000000,note_on,46,409,64,0
1536,334.000000,pitchwheel,46,409,64,0
1537,334.000000,note_off,46,409,64,320
1538,334.666667,note_on,40,2457,64,0
1539,334.666667,pitchwheel,40,2457,64,0
1540,334.666667,note_off,40,2457,64,160
1541,335.000000,note_on,38,819,64,0
1542,335.000000,pitchwheel,38,819,64,0
1543,335.000000,note_off,38,819,64,160
1544,335.333333,note_on,47,2457,64,0
1545,335.333333,pitchwheel,47,2457,64,0
1546,335.333333,note_off,47,2457,64,320
1547,336.000000,note_on,46,0,64,0
1548,336.000000,note_off,46,0,64,320
1549,336.666667,note_on,37,0,64,0
1550,336.666667,note_off,37,0,64,160
1551,337.000000,note_on,45,0,64,0
1552,337.000000,note_off,45,0,64,160
1553,337.333333,note_on,36,819,64,0
1554,337.333333,pitchwheel,36,819,64,0
1555,337.333333,note_off,36,819,64,320
1556,338.000000,note_on,47,3276,64,0
1557,338.000000,pitchwheel,47,3276,64,0
1558,338.000000,note_off,47,3276,64,320
1559,338.666667,note_on,47,3685,64,0
1560,338.666667,pitchwheel,47,3685,64,0
1561,338.666667,note_off,47,3685,64,160
1562,339.000000,note_on,38,819,64,0
1563,339.000000,pitchwheel,38,819,64,0
1564,339.000000,note_off,38,819,64,160
1565,339.333333,note_on,43,409,64,0
1566,339.333333,pitchwheel,43,409,64,0
1567,339.333333,note_off,43,409,64,320
1568,340.000000,note_on,43,0,64,0
1569,340.000000,note_off,43,0,64,320
1570,340.666667,note_on,38,0,64,0
1571,340.666667,note_off,38,0,64,640
1572,342.000000,note_on,38,2457,64,0
1573,342.000000,pitchwheel,38,2457,64,0
1574,342.000000,note_off,38,2457,64,320
1575,342.666667,note_on,45,0,64,0
1576,342.666667,note_off,45,0,64,160
1577,343.000000,note_on,46,409,64,0
1578,343.000000,pitchwheel,46,409,64,0
1579,343.000000,note_off,46,409,64,160
1580,343.333333,note_on,45,1638,64,0
1581,343.333333,pitchwheel,45,1638,64,0
1582,343.333333,note_off,45,1638,64,320
1583,344.000000,note_on,46,0,64,0
1584,344.000000,note_off,46,0,64,320
1585,344.666667,note_on,45,2047,64,0
1586,344.666667,pitchwheel,45,2047,64,0
1587,344.666667,note_off,45,2047,64,320
1588,345.333333,note_on,45,3276,64,0
1589,345.333333,pitchwheel,45,3276,64,0
1590,345.333333,note_off,45,3276,64,320
1591,346.666667,note_on,44,2047,64,0
1592,346.666667,pitchwheel,44,2047,64,0
1593,346.666667,note_off,44,2047,64,160
1594,347.000000,note_on,47,3276,64,0
1595,347.000000,pitchwheel,47,3276,64,0
1596,347.000000,note_off,47,3276,64,160
1597,347.333333,note_on,36,2047,64,0
1598,347.333333,pitchwheel,36,2047,64,0
1599,347.333333,note_off,36,2047,64,320
1600,348.000000,note_on,45,3276,64,0
1601,348.000000,pitchwheel,45,3276,64,0
1602,348.000000,note_off,45,3276,64,320
1603,348.666667,note_on,40,2457,64,0
1604,348.666667,pitchwheel,40,2457,64,0
1605,348.666667,note_off,40,2457,64,160
1606,349.000000,note_on,38,2457,64,0
1607,349.000000,pitchwheel,38,2457,64,0
1608,349.000000,note_off,38,2457,64,160
1609,349.333333,note_on,38,819,64,0
1610,349.333333,pitchwheel,38,819,64,0
1611,349.333333,note_off,38,819,64,320
1612,350.000000,note_on,47,2047,64,0
1613,350.000000,pitchwheel,47,2047,64,0
1614,350.000000,note_off,47,2047,64,320
1615,350.666667,note_on,47,2457,64,0
1616,350.666667,pitchwheel,47,2457,64,0
1617,350.666667,note_off,47,2457,64,160
1618,351.000000,note_on,36,2047,64,0
1619,351.000000,pitchwheel,36,2047,64,0
1620,351.000000,note_off,36,2047,64,480
1621,352.000000,note_on,47,3685,64,0
1622,352.000000,pitchwheel,47,3685,64,0
1623,352.000000,note_off,47,3685,64,480
1624,353.000000,note_on,38,2457,64,0
1625,353.000000,pitchwheel,38,2457,64,0
1626,353.000000,note_off,38,2457,64,160
1627,353.333333,note_on,47,2047,64,0
1628,353.333333,pitchwheel,47,2047,64,0
1629,353.333333,note_off,47,2047,64,320
1630,354.000000,note_on,45,0,64,0
1631,354.000000,note_off,45,0,64,320
1632,354.666667,note_on,39,819,64,0
1633,354.666667,pitchwheel,39,819,64,0
1634,354.666667,note_off,39,819,64,160
1635,355.000000,note_on,45,1638,64,0
1636,355.000000,pitchwheel,45,1638,64,0
1637,355.000000,note_off,45,1638,64,160
1638,355.333333,note_on,36,819,64,0
1639,355.333333,pitchwheel,36,819,64,0
1640,355.333333,note_off,36,819,64,320
1641,356.000000,note_on,36,2047,64,0
1642,356.000000,pitchwheel,36,2047,64,0
1643,356.000000,note_off,36,2047,64,320
1644,356.666667,note_on,40,2457,64,0
1645,356.666667,pitchwheel,40,2457,64,0
1646,356.666667,note_off,40,2457,64,160
1647,357.000000,note_on,41,0,64,0
1648,357.000000,note_off,41,0,64,160
1649,357.333333,note_on,38,819,64,0
1650,357.333333,pitchwheel,38,819,64,0
1651,357.333333,note_off,38,819,64,320
1652,358.000000,note_on,41,1228,64,0
1653,358.000000,pitchwheel,41,1228,64,0
1654,358.000000,note_off,41,1228,64,320
1655,358.666667,note_on,43,1638,64,0
1656,358.666667,pitchwheel,43,1638,64,0
1657,358.666667,note_off,43,1638,64,320
1658,359.333333,note_on,47,3276,64,0
1659,359.333333,pitchwheel,47,3276,64,0
1660,359.333333,note_off,47,3276,64,320
1661,360.000000,note_on,46,1638,64,0
1662,360.000000,pitchwheel,46,1638,64,0
1663,360.000000,note_off,46,1638,64,480
1664,361.000000,note_on,50,2457,64,0
1665,361.000000,pitchwheel,50,2457,64,0
1666,361.000000,note_off,50,2457,64,160
1667,361.333333,note_on,50,0,64,0
1668,361.333333,note_off,50,0,64,320
1669,362.000000,note_on,55,1638,64,0
1670,362.000000,pitchwheel,55,1638,64,0
1671,362.000000,note_off,55,1638,64,320
1672,362.666667,note_on,58,1638,64,0
1673,362.666667,pitchwheel,58,1638,64,0
1674,362.666667,note_off,58,1638,64,160
1675,363.000000,note_on,57,1638,64,0
1676,363.000000,pitchwheel,57,1638,64,0
1677,363.000000,note_off,57,1638,64,160
1678,363.333333,note_on,50,3685,64,0
1679,363.333333,pitchwheel,50,3685,64,0
1680,363.333333,note_off,50,3685,64,320
1681,364.000000,note_on,50,2457,64,0
1682,364.000000,pitchwheel,50,2457,64,0
1683,364.000000,note_off,50,2457,64,320
1684,364.666667,note_on,57,1638,64,0
1685,364.666667,pitchwheel,57,1638,64,0
1686,364.666667,note_off,57,1638,64,160
1687,365.000000,note_on,50,3685,64,0
1688,365.000000,pitchwheel,50,3685,64,0
1689,365.000000,note_off,50,3685,64,160
1690,365.333333,note_on,45,0,64,0
1691,365.333333,note_off,45,0,64,320
1692,366.000000,note_on,46,0,64,0
1693,366.000000,note_off,46,0,64,320
1694,366.666667,note_on,47,3276,64,0
1695,366.666667,pitchwheel,47,3276,64,0
1696,366.666667,note_off,47,3276,64,320
1697,367.333333,note_on,53,0,64,0
1698,367.333333,note_off,53,0,64,320
1699,368.000000,note_on,56,0,64,0
1700,368.000000,note_off,56,0,64,320
1701,368.666667,note_on,50,3685,64,0
1702,368.666667,pitchwheel,50,3685,64,0
1703,368.666667,note_off,50,3685,64,320
1704,369.333333,note_on,53,0,64,0
1705,369.333333,note_off,53,0,64,320
1706,370.000000,note_on,55,0,64,0
1707,370.000000,note_off,55,0,64,320
1708,370.666667,note_on,58,1638,64,0
1709,370.666667,pitchwheel,58,1638,64,0
1710,370.666667,note_off,58,1638,64,160
1711,371.000000,note_on,55,0,64,0
1712,371.000000,note_off,55,0,64,160
1713,371.333333,note_on,55,1638,64,0
1714,371.333333,pitchwheel,55,1638,64,0
1715,371.333333,note_off,55,1638,64,320
1716,372.000000,note_on,55,2866,64,0
1717,372.000000,pitchwheel,55,2866,64,0
1718,372.000000,note_off,55,2866,64,480
1719,373.000000,note_on,50,1228,64,0
1720,373.000000,pitchwheel,50,1228,64,0
1721,373.000000,note_off,50,1228,64,160
1722,373.333333,note_on,45,2047,64,0
1723,373.333333,pitchwheel,45,2047,64,0
1724,373.333333,note_off,45,2047,64,320
1725,374.000000,note_on,41,0,64,0
1726,374.000000,note_off,41,0,64,320
1727,374.666667,note_on,36,2047,64,0
1728,374.666667,pitchwheel,36,2047,64,0
1729,374.666667,note_off,36,2047,64,160
1730,375.000000,note_on,47,3276,64,0
1731,375.000000,pitchwheel,47,3276,64,0
1732,375.000000,note_off,47,3276,64,160
1733,375.333333,note_on,38,819,64,0
1734,375.333333,pitchwheel,38,819,64,0
1735,375.333333,note_off,38,819,64,320
1736,376.000000,note_on,44,0,64,0
1737,376.000000,note_off,44,0,64,320
1738,376.666667,note_on,38,2457,64,0
1739,376.666667,pitchwheel,38,2457,64,0
1740,376.666667,note_off,38,2457,64,160
1741,377.000000,note_on,45,0,64,0
1742,377.000000,note_off,45,0,64,160
1743,377.333333,note_on,47,3276,64,0
1744,377.333333,pitchwheel,47,3276,64,0
1745,377.333333,note_off,47,3276,64,320
1746,378.000000,note_on,38,1228,64,0
1747,378.000000,pitchwheel,38,1228,64,0
1748,378.000000,note_off,38,1228,64,320
1749,378.666667,note_on,39,819,64,0
1750,378.666667,pitchwheel,39,819,64,0
1751,378.666667,note_off,39,819,64,160
1752,379.000000,note_on,40,2457,64,0
1753,379.000000,pitchwheel,40,2457,64,0
1754,379.000000,note_off,40,2457,64,480
1755,380.000000,note_on,39,819,64,0
1756,380.000000,pitchwheel,39,819,64,0
1757,380.000000,note_off,39,819,64,320
1758,380.666667,note_on,40,2457,64,0
1759,380.666667,pitchwheel,40,2457,64,0
1760,380.666667,note_off,40,2457,64,320
1761,381.333333,note_on,41,2457,64,0
1762,381.333333,pitchwheel,41,2457,64,0
1763,381.333333,note_off,41,2457,64,320
1764,382.000000,note_on,41,0,64,0
1765,382.000000,note_off,41,0,64,320
1766,382.666667,note_on,40,2866,64,0
1767,382.666667,pitchwheel,40,2866,64,0
1768,382.666667,note_off,40,2866,64,160
1769,383.000000,note_on,45,2047,64,0
1770,383.000000,pitchwheel,45,2047,64,0
1771,383.000000,note_off,45,2047,64,160
1772,383.333333,note_on,50,819,64,0
1773,383.333333,pitchwheel,50,819,64,0
1774,383.333333,note_off,50,819,64,320
1775,384.000000,note_on,56,0,64,0
1776,384.000000,note_off,56,0,64,320
1777,384.666667,note_on,57,0,64,0
1778,384.666667,note_off,57,0,64,160
1779,385.000000,note_on,59,3685,64,0
1780,385.000000,pitchwheel,59,3685,64,0
1781,385.000000,note_off,59,3685,64,480
1782,386.000000,note_on,55,0,64,0
1783,386.000000,note_off,55,0,64,480
1784,387.000000,note_on,50,819,64,0
1785,387.000000,pitchwheel,50,819,64,0
1786,387.000000,note_off,50,819,64,800
1787,388.666667,note_on,46,409,64,0
1788,388.666667,pitchwheel,46,409,64,0
1789,388.666667,note_off,46,409,64,160
1790,389.000000,note_on,43,409,64,0
1791,389.000000,pitchwheel,43,409,64,0
1792,389.000000,note_off,43,409,64,160
1793,389.333333,note_on,38,3685,64,0
1794,389.333333,pitchwheel,38,3685,64,0
1795,389.333333,note_off,38,3685,64,320
1796,390.000000,note_on,36,2047,64,0
1797,390.000000,pitchwheel,36,2047,64,0
1798,390.000000,note_off,36,2047,64,320
1799,390.666667,note_on,45,3276,64,0
1800,390.666667,pitchwheel,45,3276,64,0
1801,390.666667,note_off,45,3276,64,160
1802,391.000000,note_on,43,409,64,0
1803,391.000000,pitchwheel,43,409,64,0
1804,391.000000,note_off,43,409,64,160
1805,391.333333,note_on,45,1638,64,0
1806,391.333333,pitchwheel,45,1638,64,0
1807,391.333333,note_off,45,1638,64,320
1808,392.000000,note_on,45,2047,64,0
1809,392.000000,pitchwheel,45,2047,64,0
1810,392.000000,note_off,45,2047,64,320
1811,392.666667,note_on,36,819,64,0
1812,392.666667,pitchwheel,36,819,64,0
1813,392.666667,note_off,36,819,64,160
1814,393.000000,note_on,41,0,64,0
1815,393.000000,note_off,41,0,64,480
1816,394.000000,note_on,40,2866,64,0
1817,394.000000,pitchwheel,40,2866,64,0
1818,394.000000,note_off,40,2866,64,320
1819,394.666667,note_on,45,2047,64,0
1820,394.666667,pitchwheel,45,2047,64,0
1821,394.666667,note_off,45,2047,64,160
1822,395.000000,note_on,47,3276,64,0
1823,395.000000,pitchwheel,47,3276,64,0
1824,395.000000,note_off,47,3276,64,160
1825,395.333333,note_on,50,2457,64,0
1826,395.333333,pitchwheel,50,2457,64,0
1827,395.333333,note_off,50,2457,64,320
1828,396.000000,note_on,45,0,64,0
1829,396.000000,note_off,45,0,64,320
1830,396.666667,note_on,47,3276,64,0
1831,396.666667,pitchwheel,47,3276,64,0
1832,396.666667,note_off,47,3276,64,160
1833,397.000000,note_on,45,2047,64,0
1834,397.000000,pitchwheel,45,2047,64,0
1835,397.000000,note_off,45,2047,64,160
1836,397.333333,note_on,46,1638,64,0
1837,397.333333,pitchwheel,46,1638,64,0
1838,397.333333,note_off,46,1638,64,320
1839,398.000000,note_on,45,3276,64,0
1840,398.000000,pitchwheel,45,3276,64,0
1841,398.000000,note_off,45,3276,64,320
1842,398.666667,note_on,45,2047,64,0
1843,398.666667,pitchwheel,45,2047,64,0
1844,398.666667,note_off,45,2047,64,320
1845,400.000000,note_on,44,2047,64,0
1846,400.000000,pitchwheel,44,2047,64,0
1847,400.000000,note_off,44,2047,64,320
1848,400.666667,note_on,38,2457,64,0
1849,400.666667,pitchwheel,38,2457,64,0
1850,400.666667,note_off,38,2457,64,160
1851,401.000000,note_on,40,1638,64,0
1852,401.000000,pitchwheel,40,1638,64,0
1853,401.000000,note_off,40,1638,64,480
1854,402.000000,note_on,41,0,64,0
1855,402.000000,note_off,41,0,64,320
1856,402.666667,note_on,44,0,64,0
1857,402.666667,note_off,44,0,64,160
1858,403.000000,note_on,45,1638,64,0
1859,403.000000,pitchwheel,45,1638,64,0
1860,403.000000,note_off,45,1638,64,160
1861,403.333333,note_on,50,2457,64,0
1862,403.333333,pitchwheel,50,2457,64,0
1863,403.333333,note_off,50,2457,64,320
1864,404.000000,note_on,56,0,64,0
1865,404.000000,note_off,56,0,64,480
1866,405.000000,note_on,53,0,64,0
1867,405.000000,note_off,53,0,64,160
1868,405.333333,note_on,56,0,64,0
1869,405.333333,note_off,56,0,64,320
1870,406.000000,note_on,57,1638,64,0
1871,406.000000,pitchwheel,57,1638,64,0
1872,406.000000,note_off,57,1638,64,320
1873,406.666667,note_on,59,2047,64,0
1874,406.666667,pitchwheel,59,2047,64,0
1875,406.666667,note_off,59,2047,64,320
1876,407.333333,note_on,52,2457,64,0
1877,407.333333,pitchwheel,52,2457,64,0
1878,407.333333,note_off,52,2457,64,320
1879,408.000000,note_on,56,0,64,0
1880,408.000000,note_off,56,0,64,320
1881,408.666667,note_on,48,819,64,0
1882,408.666667,pitchwheel,48,819,64,0
1883,408.666667,note_off,48,819,64,320
1884,409.333333,note_on,59,3685,64,0
1885,409.333333,pitchwheel,59,3685,64,0
1886,409.333333,note_off,59,3685,64,320
1887,410.000000,note_on,59,3276,64,0
1888,410.000000,pitchwheel,59,3276,64,0
1889,410.000000,note_off,59,3276,64,320
1890,410.666667,note_on,59,3685,64,0
1891,410.666667,pitchwheel,59,3685,64,0
1892,410.666667,note_off,59,3685,64,160
1893,411.000000,note_on,55,0,64,0
1894,411.000000,note_off,55,0,64,160
1895,411.333333,note_on,57,0,64,0
1896,411.333333,note_off,57,0,64,320
1897,412.000000,note_on,58,0,64,0
1898,412.000000,note_off,58,0,64,320
1899,412.666667,note_on,55,0,64,0
1900,412.666667,note_off,55,0,64,160
1901,413.000000,note_on,53,1228,64,0
1902,413.000000,pitchwheel,53,1228,64,0
1903,413.000000,note_off,53,1228,64,160
1904,413.333333,note_on,55,1638,64,0
1905,413.333333,pitchwheel,55,1638,64,0
1906,413.333333,note_off,55,1638,64,320
1907,414.000000,note_on,53,0,64,0
1908,414.000000,note_off,53,0,64,320
1909,414.666667,note_on,57,2047,64,0
1910,414.666667,pitchwheel,57,2047,64,0
1911,414.666667,note_off,57,2047,64,160
1912,415.000000,note_on,59,3276,64,0
1913,415.000000,pitchwheel,59,3276,64,0
1914,415.000000,note_off,59,3276,64,480
1915,416.000000,note_on,58,1638,64,0
1916,416.000000,pitchwheel,58,1638,64,0
1917,416.000000,note_off,58,1638,64,320
1918,416.666667,note_on,56,2047,64,0
1919,416.666667,pitchwheel,56,2047,64,0
1920,416.666667,note_off,56,2047,64,160
1921,417.000000,note_on,57,0,64,0
1922,417.000000,note_off,57,0,64,160
1923,417.333333,note_on,50,3685,64,0
1924,417.333333,pitchwheel,50,3685,64,0
1925,417.333333,note_off,50,3685,64,320
1926,418.000000,note_on,45,1638,64,0
1927,418.000000,pitchwheel,45,1638,64,0
1928,418.000000,note_off,45,1638,64,320
1929,418.666667,note_on,48,2047,64,0
1930,418.666667,pitchwheel,48,2047,64,0
1931,418.666667,note_off,48,2047,64,160
1932,419.000000,note_on,52,2457,64,0
1933,419.000000,pitchwheel,52,2457,64,0
1934,419.000000,note_off,52,2457,64,160
1935,419.333333,note_on,55,1638,64,0
1936,419.333333,pitchwheel,55,1638,64,0
1937,419.333333,note_off,55,1638,64,320
1938,420.000000,note_on,51,819,64,0
1939,420.000000,pitchwheel,51,819,64,0
1940,420.000000,note_off,51,819,64,320
1941,420.666667,note_on,55,409,64,0
1942,420.666667,pitchwheel,55,409,64,0
1943,420.666667,note_off,55,409,64,320
1944,421.333333,note_on,48,819,64,0
1945,421.333333,pitchwheel,48,819,64,0
1946,421.333333,note_off,48,819,64,320
1947,422.000000,note_on,50,2457,64,0
1948,422.000000,pitchwheel,50,2457,64,0
1949,422.000000,note_off,50,2457,64,480
1950,423.000000,note_on,45,2047,64,0
1951,423.000000,pitchwheel,45,2047,64,0
1952,423.000000,note_off,45,2047,64,160
1953,423.333333,note_on,47,3276,64,0
1954,423.333333,pitchwheel,47,3276,64,0
1955,423.333333,note_off,47,3276,64,320
1956,424.000000,note_on,46,1638,64,0
1957,424.000000,pitchwheel,46,1638,64,0
1958,424.000000,note_off,46,1638,64,320
1959,424.666667,note_on,41,0,64,0
1960,424.666667,note_off,41,0,64,160
1961,425.000000,note_on,44,2047,64,0
1962,425.000000,pitchwheel,44,2047,64,0
1963,425.000000,note_off,44,2047,64,160
1964,425.333333,note_on,40,2866,64,0
1965,425.333333,pitchwheel,40,2866,64,0
1966,425.333333,note_off,40,2866,64,320
1967,426.000000,note_on,36,819,64,0
1968,426.000000,pitchwheel,36,819,64,0
1969,426.000000,note_off,36,819,64,320
1970,426.666667,note_on,38,0,64,0
1971,426.666667,note_off,38,0,64,160
1972,427.000000,note_on,38,819,64,0
1973,427.000000,pitchwheel,38,819,64,0
1974,427.000000,note_off,38,819,64,160
1975,427.333333,note_on,40,1638,64,0
1976,427.333333,pitchwheel,40,1638,64,0
1977,427.333333,note_off,40,1638,64,320
1978,428.000000,note_on,41,0,64,0
1979,428.000000,note_off,41,0,64,320
1980,428.666667,note_on,43,0,64,0
1981,428.666667,note_off,43,0,64,160
1982,429.000000,note_on,48,2047,64,0
1983,429.000000,pitchwheel,48,2047,64,0
1984,429.000000,note_off,48,2047,64,160
1985,429.333333,note_on,52,1638,64,0
1986,429.333333,pitchwheel,52,1638,64,0
1987,429.333333,note_off,52,1638,64,320
1988,430.000000,note_on,58,0,64,0
1989,430.000000,note_off,58,0,64,480
1990,431.000000,note_on,59,3685,64,0
1991,431.000000,pitchwheel,59,3685,64,0
1992,431.000000,note_off,59,3685,64,480
1993,432.000000,note_on,48,3276,64,0
1994,432.000000,pitchwheel,48,3276,64,0
1995,432.000000,note_off,48,3276,64,480
1996,433.000000,note_on,50,0,64,0
1997,433.000000,note_off,50,0,64,160
1998,433.333333,note_on,49,0,64,0
1999,433.333333,note_off,49,0,64,320
2000,434.000000,note_on,45,1638,64,0
2001,434.000000,pitchwheel,45,1638,64,0
2002,434.000000,note_off,45,1638,64,480
2003,435.000000,note_on,47,3276,64,0
2004,435.000000,pitchwheel,47,3276,64,0
2005,435.000000,note_off,47,3276,64,160
2006,435.333333,note_on,48,819,64,0
2007,435.333333,pitchwheel,48,819,64,0
2008,435.333333,note_off,48,819,64,320
2009,436.000000,note_on,48,2047,64,0
2010,436.000000,pitchwheel,48,2047,64,0
2011,436.000000,note_off,48,2047,64,320
2012,436.666667,note_on,50,819,64,0
2013,436.666667,pitchwheel,50,819,64,0
2014,436.666667,note_off,50,819,64,160
2015,437.000000,note_on,46,409,64,0
2016,437.000000,pitchwheel,46,409,64,0
2017,437.000000,note_off,46,409,64,160
2018,437.333333,note_on,44,0,64,0
2019,437.333333,note_off,44,0,64,320
2020,438.000000,note_on,45,0,64,0
2021,438.000000,note_off,45,0,64,480
2022,439.333333,note_on,47,3276,64,0
2023,439.333333,pitchwheel,47,3276,64,0
2024,439.333333,note_off,47,3276,64,320
2025,440.000000,note_on,48,3276,64,0
2026,440.000000,pitchwheel,48,3276,64,0
2027,440.000000,note_off,48,3276,64,480
2028,441.000000,note_on,53,0,64,0
2029,441.000000,note_off,53,0,64,160
2030,441.333333,note_on,50,3685,64,0
2031,441.333333,pitchwheel,50,3685,64,0
2032,441.333333,note_off,50,3685,64,320
2033,442.000000,note_on,45,2047,64,0
2034,442.000000,pitchwheel,45,2047,64,0
2035,442.000000,note_off,45,2047,64,320
2036,442.666667,note_on,46,0,64,0
2037,442.666667,note_off,46,0,64,160
2038,443.000000,note_on,50,819,64,0
2039,443.000000,pitchwheel,50,819,64,0
2040,443.000000,note_off,50,819,64,160
2041,443.333333,note_on,55,2866,64,0
2042,443.333333,pitchwheel,55,2866,64,0
2043,443.333333,note_off,55,2866,64,320
2044,444.000000,note_on,57,3276,64,0
2045,444.000000,pitchwheel,57,3276,64,0
2046,444.000000,note_off,57,3276,64,320
2047,444.666667,note_on,50,819,64,0
2048,444.666667,pitchwheel,50,819,64,0
2049,444.666667,note_off,50,819,64,320
2050,445.333333,note_on,58,1638,64,0
2051,445.333333,pitchwheel,58,1638,64,0
2052,445.333333,note_off,58,1638,64,320
2053,446.000000,note_on,53,0,64,0
2054,446.000000,note_off,53,0,64,320
2055,446.666667,note_on,55,1638,64,0
2056,446.666667,pitchwheel,55,1638,64,0
2057,446.666667,note_off,55,1638,64,320
2058,447.333333,note_on,59,3685,64,0
2059,447.333333,pitchwheel,59,3685,64,0
2060,447.333333,note_off,59,3685,64,320
2061,448.000000,note_on,51,819,64,0
2062,448.000000,pitchwheel,51,819,64,0
2063,448.000000,note_off,51,819,64,320
2064,448.666667,note_on,50,0,64,0
2065,448.666667,note_off,50,0,64,320
2066,449.333333,note_on,57,0,64,0
2067,449.333333,note_off,57,0,64,320
2068,450.000000,note_on,52,2457,64,0
2069,450.000000,pitchwheel,52,2457,64,0
2070,450.000000,note_off,52,2457,64,320
2071,450.666667,note_on,56,0,64,0
2072,450.666667,note_off,56,0,64,160
2073,451.000000,note_on,59,3276,64,0
2074,451.000000,pitchwheel,59,3276,64,0
2075,451.000000,note_off,59,3276,64,160
2076,451.333333,note_on,55,1638,64,0
2077,451.333333,pitchwheel,55,1638,64,0
2078,451.333333,note_off,55,1638,64,320
2079,452.000000,note_on,55,2866,64,0
2080,452.000000,pitchwheel,55,2866,64,0
2081,452.000000,note_off,55,2866,64,480
2082,453.000000,note_on,50,1228,64,0
2083,453.000000,pitchwheel,50,1228,64,0
2084,453.000000,note_off,50,1228,64,160
2085,453.333333,note_on,45,0,64,0
2086,453.333333,note_off,45,0,64,320
2087,454.000000,note_on,41,0,64,0
2088,454.000000,note_off,41,0,64,480
2089,455.000000,note_on,45,1638,64,0
2090,455.000000,pitchwheel,45,1638,64,0
2091,455.000000,note_off,45,1638,64,160
2092,455.333333,note_on,40,2457,64,0
2093,455.333333,pitchwheel,40,2457,64,0
2094,455.333333,note_off,40,2457,64,320
2095,456.000000,note_on,39,819,64,0
2096,456.000000,pitchwheel,39,819,64,0
2097,456.000000,note_off,39,819,64,320
2098,456.666667,note_on,45,0,64,0
2099,456.666667,note_off,45,0,64,320
2100,457.333333,note_on,46,0,64,0
2101,457.333333,note_off,46,0,64,320
2102,458.000000,note_on,43,1638,64,0
2103,458.000000,pitchwheel,43,1638,64,0
2104,458.000000,note_off,43,1638,64,320
2105,458.666667,note_on,46,0,64,0
2106,458.666667,note_off,46,0,64,160
2107,459.000000,note_on,45,1638,64,0
2108,459.000000,pitchwheel,45,1638,64,0
2109,459.000000,note_off,45,1638,64,480
2110,460.000000,note_on,46,0,64,0
2111,460.000000,note_off,46,0,64,320
2112,460.666667,note_on,50,819,64,0
2113,460.666667,pitchwheel,50,819,64,0
2114,460.666667,note_off,50,819,64,320
2115,461.333333,note_on,53,2457,64,0
2116,461.333333,pitchwheel,53,2457,64,0
2117,461.333333,note_off,53,2457,64,320
2118,462.000000,note_on,55,2866,64,0
2119,462.000000,pitchwheel,55,2866,64,0
2120,462.000000,note_off,55,2866,64,320
2121,462.666667,note_on,55,1638,64,0
2122,462.666667,pitchwheel,55,1638,64,0
2123,462.666667,note_off,55,1638,64,160
2124,463.000000,note_on,59,2457,64,0
2125,463.000000,pitchwheel,59,2457,64,0
2126,463.000000,note_off,59,2457,64,160
2127,463.333333,note_on,52,2457,64,0
2128,463.333333,pitchwheel,52,2457,64,0
2129,463.333333,note_off,52,2457,64,320
2130,464.000000,note_on,57,3276,64,0
2131,464.000000,pitchwheel,57,3276,64,0
2132,464.000000,note_off,57,3276,64,320
2133,464.666667,note_on,57,0,64,0
2134,464.666667,note_off,57,0,64,160
2135,465.000000,note_on,55,2866,64,0
2136,465.000000,pitchwheel,55,2866,64,0
2137,465.000000,note_off,55,2866,64,160
2138,465.333333,note_on,50,2457,64,0
2139,465.333333,pitchwheel,50,2457,64,0
2140,465.333333,note_off,50,2457,64,320
2141,466.000000,note_on,47,3276,64,0
2142,466.000000,pitchwheel,47,3276,64,0
2143,466.000000,note_off,47,3276,64,320
2144,466.666667,note_on,44,0,64,0
2145,466.666667,note_off,44,0,64,160
2146,467.000000,note_on,43,0,64,0
2147,467.000000,note_off,43,0,64,480
2148,468.000000,note_on,46,1638,64,0
2149,468.000000,pitchwheel,46,1638,64,0
2150,468.000000,note_off,46,1638,64,320
2151,468.666667,note_on,47,2457,64,0
2152,468.666667,pitchwheel,47,2457,64,0
2153,468.666667,note_off,47,2457,64,160
2154,469.000000,note_on,43,409,64,0
2155,469.000000,pitchwheel,43,409,64,0
2156,469.000000,note_off,43,409,64,160
2157,469.333333,note_on,43,1638,64,0
2158,469.333333,pitchwheel,43,1638,64,0
2159,469.333333,note_off,43,1638,64,320
2160,470.000000,note_on,43,0,64,0
2161,470.000000,note_off,43,0,64,320
2162,470.666667,note_on,38,2457,64,0
2163,470.666667,pitchwheel,38,2457,64,0
2164,470.666667,note_off,38,2457,64,160
2165,471.000000,note_on,38,0,64,0
2166,471.000000,note_off,38,0,64,160
2167,471.333333,note_on,45,1638,64,0
2168,471.333333,pitchwheel,45,1638,64,0
2169,471.333333,note_off,45,1638,64,320
2170,472.000000,note_on,45,0,64,0
2171,472.000000,note_off,45,0,64,320
2172,472.666667,note_on,38,3685,64,0
2173,472.666667,pitchwheel,38,3685,64,0
2174,472.666667,note_off,38,3685,64,160
2175,473.000000,note_on,38,2457,64,0
2176,473.000000,pitchwheel,38,2457,64,0
2177,473.000000,note_off,38,2457,64,160
2178,473.333333,note_on,45,1638,64,0
2179,473.333333,pitchwheel,45,1638,64,0
2180,473.333333,note_off,45,1638,64,320
2181,474.000000,note_on,41,0,64,0
2182,474.000000,note_off,41,0,64,320
2183,474.666667,note_on,46,1638,64,0
2184,474.666667,pitchwheel,46,1638,64,0
2185,474.666667,note_off,46,1638,64,160
2186,475.000000,note_on,40,2457,64,0
2187,475.000000,pitchwheel,40,2457,64,0
2188,475.000000,note_off,40,2457,64,160
2189,475.333333,note_on,38,2457,64,0
2190,475.333333,pitchwheel,38,2457,64,0
2191,475.333333,note_off,38,2457,64,320
2192,476.000000,note_on,40,2866,64,0
2193,476.000000,pitchwheel,40,2866,64,0
2194,476.000000,note_off,40,2866,64,320
2195,476.666667,note_on,43,0,64,0
2196,476.666667,note_off,43,0,64,160
2197,477.000000,note_on,45,2047,64,0
2198,477.000000,pitchwheel,45,2047,64,0
2199,477.000000,note_off,45,2047,64,160
2200,477.333333,note_on,41,1228,64,0
2201,477.333333,pitchwheel,41,1228,64,0
2202,477.333333,note_off,41,1228,64,320
2203,478.000000,note_on,45,3276,64,0
2204,478.000000,pitchwheel,45,3276,64,0
2205,478.000000,note_off,45,3276,64,320
2206,478.666667,note_on,36,819,64,0
2207,478.666667,pitchwheel,36,819,64,0
2208,478.666667,note_off,36,819,64,320
2209,480.000000,note_on,46,1638,64,0
2210,480.000000,pitchwheel,46,1638,64,0
2211,480.000000,note_off,46,1638,64,320
2212,480.666667,note_on,41,0,64,0
2213,480.666667,note_off,41,0,64,320
2214,481.333333,note_on,38,2457,64,0
2215,481.333333,pitchwheel,38,2457,64,0
2216,481.333333,note_off,38,2457,64,320
2217,482.000000,note_on,40,2457,64,0
2218,482.000000,pitchwheel,40,2457,64,0
2219,482.000000,note_off,40,2457,64,320
2220,482.666667,note_on,36,3276,64,0
2221,482.666667,pitchwheel,36,3276,64,0
2222,482.666667,note_off,36,3276,64,160
2223,483.000000,note_on,43,0,64,0
2224,483.000000,note_off,43,0,64,160
2225,483.333333,note_on,44,2047,64,0
2226,483.333333,pitchwheel,44,2047,64,0
2227,483.333333,note_off,44,2047,64,320
2228,484.000000,note_on,45,1638,64,0
2229,484.000000,pitchwheel,45,1638,64,0
2230,484.000000,note_off,45,1638,64,480
2231,485.000000,note_on,45,0,64,0
2232,485.000000,note_off,45,0,64,160
2233,485.333333,note_on,45,1638,64,0
2234,485.333333,pitchwheel,45,1638,64,0
2235,485.333333,note_off,45,1638,64,320
2236,486.000000,note_on,46,0,64,0
2237,486.000000,note_off,46,0,64,320
2238,486.666667,note_on,43,0,64,0
2239,486.666667,note_off,43,0,64,640
2240,488.000000,note_on,43,409,64,0
2241,488.000000,pitchwheel,43,409,64,0
2242,488.000000,note_off,43,409,64,320
2243,488.666667,note_on,43,2866,64,0
2244,488.666667,pitchwheel,43,2866,64,0
2245,488.666667,note_off,43,2866,64,320
2246,489.333333,note_on,43,1638,64,0
2247,489.333333,pitchwheel,43,1638,64,0
2248,489.333333,note_off,43,1638,64,320
2249,490.000000,note_on,43,0,64,0
2250,490.000000,note_off,43,0,64,320
2251,490.666667,note_on,45,2047,64,0
2252,490.666667,pitchwheel,45,2047,64,0
2253,490.666667,note_off,45,2047,64,160
2254,491.000000,note_on,40,2457,64,0
2255,491.000000,pitchwheel,40,2457,64,0
2256,491.000000,note_off,40,2457,64,160
2257,491.333333,note_on,45,0,64,0
2258,491.333333,note_off,45,0,64,320
2259,492.000000,note_on,41,2457,64,0
2260,492.000000,pitchwheel,41,2457,64,0
2261,492.000000,note_off,41,2457,64,320
2262,492.666667,note_on,45,1638,64,0
2263,492.666667,pitchwheel,45,1638,64,0
2264,492.666667,note_off,45,1638,64,160
2265,493.000000,note_on,38,1228,64,0
2266,493.000000,pitchwheel,38,1228,64,0
2267,493.000000,note_off,38,1228,64,160
2268,493.333333,note_on,44,2047,64,0
2269,493.333333,pitchwheel,44,2047,64,0
2270,493.333333,note_off,44,2047,64,320
2271,494.000000,note_on,38,2457,64,0
2272,494.000000,pitchwheel,38,2457,64,0
2273,494.000000,note_off,38,2457,64,320
2274,494.666667,note_on,43,0,64,0
2275,494.666667,note_off,43,0,64,320
2276,495.333333,note_on,47,2457,64,0
2277,495.333333,pitchwheel,47,2457,64,0
2278,495.333333,note_off,47,2457,64,320
2279,496.000000,note_on,43,2866,64,0
2280,496.000000,pitchwheel,43,2866,64,0
2281,496.000000,note_off,43,2866,64,320
2282,496.666667,note_on,47,2047,64,0
2283,496.666667,pitchwheel,47,2047,64,0
2284,496.666667,note_off,47,2047,64,160
2285,497.000000,note_on,45,0,64,0
2286,497.000000,note_off,45,0,64,160
2287,497.333333,note_on,38,1228,64,0
2288,497.333333,pitchwheel,38,1228,64,0
2289,497.333333,note_off,38,1228,64,320
2290,498.000000,note_on,47,3276,64,0
2291,498.000000,pitchwheel,47,3276,64,0
2292,498.000000,note_off,47,3276,64,320
2293,498.666667,note_on,38,2457,64,0
2294,498.666667,pitchwheel,38,2457,64,0
2295,498.666667,note_off,38,2457,64,160
2296,499.000000,note_on,38,819,64,0
2297,499.000000,pitchwheel,38,819,64,0
2298,499.000000,note_off,38,819,64,160
2299,499.333333,note_on,38,3685,64,0
2300,499.333333,pitchwheel,38,3685,64,0
2301,499.333333,note_off,38,3685,64,320
2302,500.000000,note_on,47,2047,64,0
2303,500.000000,pitchwheel,47,2047,64,0
2304,500.000000,note_off,47,2047,64,320
2305,500.666667,note_on,38,0,64,0
2306,500.666667,note_off,38,0,64,320
2307,501.333333,note_on,36,3276,64,0
2308,501.333333,pitchwheel,36,3276,64,0
2309,501.333333,note_off,36,3276,64,320
2310,502.000000,note_on,38,2457,64,0
2311,502.000000,pitchwheel,38,2457,64,0
2312,502.000000,note_off,38,2457,64,320
2313,502.666667,note_on,45,0,64,0
2314,502.666667,note_off,45,0,64,160
2315,503.000000,note_on,47,2457,64,0
2316,503.000000,pitchwheel,47,2457,64,0
2317,503.000000,note_off,47,2457,64,160
2318,503.333333,note_on,43,409,64,0
2319,503.333333,pitchwheel,43,409,64,0
2320,503.333333,note_off,43,409,64,320
2321,504.000000,note_on,46,0,64,0
2322,504.000000,note_off,46,0,64,320
2323,504.666667,note_on,36,2047,64,0
2324,504.666667,pitchwheel,36,2047,64,0
2325,504.666667,note_off,36,2047,64,160
2326,505.000000,note_on,37,0,64,0
2327,505.000000,note_off,37,0,64,160
2328,505.333333,note_on,36,819,64,0
2329,505.333333,pitchwheel,36,819,64,0
2330,505.333333,note_off,36,819,64,640
2331,506.666667,note_on,36,2047,64,0
2332,506.666667,pitchwheel,36,2047,64,0
2333,506.666667,note_off,36,2047,64,160
2334,507.000000,note_on,47,3276,64,0
2335,507.000000,pitchwheel,47,3276,64,0
2336,507.000000,note_off,47,3276,64,480
2337,508.000000,note_on,47,3685,64,0
2338,508.000000,pitchwheel,47,3685,64,0
2339,508.000000,note_off,47,3685,64,320
2340,508.666667,note_on,38,819,64,0
2341,508.666667,pitchwheel,38,819,64,0
2342,508.666667,note_off,38,819,64,160
2343,509.000000,note_on,43,409,64,0
2344,509.000000,pitchwheel,43,409,64,0
2345,509.000000,note_off,43,409,64,160
2346,509.333333,note_on,47,3685,64,0
2347,509.333333,pitchwheel,47,3685,64,0
2348,509.333333,note_off,47,3685,64,320
2349,510.000000,note_on,43,0,64,0
2350,510.000000,note_off,43,0,64,320
2351,510.666667,note_on,45,2047,64,0
2352,510.666667,pitchwheel,45,2047,64,0
2353,510.666667,note_off,45,2047,64,160
2354,511.000000,note_on,50,0,64,0
2355,511.000000,note_off,50,0,64,480
2356,512.000000,note_on,44,0,64,0
2357,512.000000,note_off,44,0,64,320
2358,513.000000,note_on,38,2457,64,0
2359,513.000000,pitchwheel,38,2457,64,0
2360,513.000000,note_off,38,2457,64,160
2361,513.333333,note_on,47,3685,64,0
2362,513.333333,pitchwheel,47,3685,64,0
2363,513.333333,note_off,47,3685,64,320
2364,514.000000,note_on,47,3276,64,0
2365,514.000000,pitchwheel,47,3276,64,0
2366,514.000000,note_off,47,3276,64,320
2367,514.666667,note_on,38,0,64,0
2368,514.666667,note_off,38,0,64,160
2369,515.000000,note_on,45,1638,64,0
2370,515.000000,pitchwheel,45,1638,64,0
2371,515.000000,note_off,45,1638,64,160
2372,515.333333,note_on,41,1228,64,0
2373,515.333333,pitchwheel,41,1228,64,0
2374,515.333333,note_off,41,1228,64,320
2375,516.000000,note_on,41,0,64,0
2376,516.000000,note_off,41,0,64,320
2377,516.666667,note_on,45,1638,64,0
2378,516.666667,pitchwheel,45,1638,64,0
2379,516.666667,note_off,45,1638,64,160
2380,517.000000,note_on,45,2047,64,0
2381,517.000000,pitchwheel,45,2047,64,0
2382,517.000000,note_off,45,2047,64,480
2383,518.000000,note_on,45,0,64,0
2384,518.000000,note_off,45,0,64,320
2385,518.666667,note_on,43,409,64,0
2386,518.666667,pitchwheel,43,409,64,0
2387,518.666667,note_off,43,409,64,320
2388,519.333333,note_on,45,1638,64,0
2389,519.333333,pitchwheel,45,1638,64,0
2390,519.333333,note_off,45,1638,64,320
2391,520.000000,note_on,46,1638,64,0
2392,520.000000,pitchwheel,46,1638,64,0
2393,520.000000,note_off,46,1638,64,480
2394,521.000000,note_on,48,2047,64,0
2395,521.000000,pitchwheel,48,2047,64,0
2396,521.000000,note_off,48,2047,64,160
2397,521.333333,note_on,43,409,64,0
2398,521.333333,pitchwheel,43,409,64,0
2399,521.333333,note_off,43,409,64,320
2400,522.000000,note_on,43,1638,64,0
2401,522.000000,pitchwheel,43,1638,64,0
2402,522.000000,note_off,43,1638,64,320
2403,522.666667,note_on,46,1638,64,0
2404,522.666667,pitchwheel,46,1638,64,0
2405,522.666667,note_off,46,1638,64,160
2406,523.000000,note_on,40,2457,64,0
2407,523.000000,pitchwheel,40,2457,64,0
2408,523.000000,note_off,40,2457,64,160
2409,523.333333,note_on,36,2047,64,0
2410,523.333333,pitchwheel,36,2047,64,0
2411,523.333333,note_off,36,2047,64,320
2412,524.000000,note_on,41,0,64,0
2413,524.000000,note_off,41,0,64,320
2414,524.666667,note_on,43,0,64,0
2415,524.666667,note_off,43,0,64,160
2416,525.000000,note_on,47,2047,64,0
2417,525.000000,pitchwheel,47,2047,64,0
2418,525.000000,note_off,47,2047,64,160
2419,525.333333,note_on,48,3276,64,0
2420,525.333333,pitchwheel,48,3276,64,0
2421,525.333333,note_off,48,3276,64,320
2422,526.000000,note_on,48,2047,64,0
2423,526.000000,pitchwheel,48,2047,64,0
2424,526.000000,note_off,48,2047,64,320
2425,526.666667,note_on,48,819,64,0
2426,526.666667,pitchwheel,48,819,64,0
2427,526.666667,note_off,48,819,64,320
2428,527.333333,note_on,53,0,64,0
2429,527.333333,note_off,53,0,64,320
2430,528.000000,note_on,47,3685,64,0
2431,528.000000,pitchwheel,47,3685,64,0
2432,528.000000,note_off,47,3685,64,320
2433,528.666667,note_on,50,3685,64,0
2434,528.666667,pitchwheel,50,3685,64,0
2435,528.666667,note_off,50,3685,64,320
2436,529.333333,note_on,45,2047,64,0
2437,529.333333,pitchwheel,45,2047,64,0
2438,529.333333,note_off,45,2047,64,320
2439,530.000000,note_on,47,2047,64,0
2440,530.000000,pitchwheel,47,2047,64,0
2441,530.000000,note_off,47,2047,64,320
2442,530.666667,note_on,46,1638,64,0
2443,530.666667,pitchwheel,46,1638,64,0
2444,530.666667,note_off,46,1638,64,160
2445,531.000000,note_on,50,819,64,0
2446,531.000000,pitchwheel,50,819,64,0
2447,531.000000,note_off,50,819,64,160
2448,531.333333,note_on,46,409,64,0
2449,531.333333,pitchwheel,46,409,64,0
2450,531.333333,note_off,46,409,64,320
2451,532.000000,note_on,45,3276,64,0
2452,532.000000,pitchwheel,45,3276,64,0
2453,532.000000,note_off,45,3276,64,480
2454,533.000000,note_on,48,819,64,0
2455,533.000000,pitchwheel,48,819,64,0
2456,533.000000,note_off,48,819,64,160
2457,533.333333,note_on,44,2047,64,0
2458,533.333333,pitchwheel,44,2047,64,0
2459,533.333333,note_off,44,2047,64,320
2460,534.000000,note_on,41,0,64,0
2461,534.000000,note_off,41,0,64,320
2462,534.666667,note_on,40,1638,64,0
2463,534.666667,pitchwheel,40,1638,64,0
2464,534.666667,note_off,40,1638,64,160
2465,535.000000,note_on,40,2457,64,0
2466,535.000000,pitchwheel,40,2457,64,0
2467,535.000000,note_off,40,2457,64,160
2468,535.333333,note_on,38,819,64,0
2469,535.333333,pitchwheel,38,819,64,0
2470,535.333333,note_off,38,819,64,640
2471,536.666667,note_on,40,1638,64,0
2472,536.666667,pitchwheel,40,1638,64,0
2473,536.666667,note_off,40,1638,64,160
2474,537.000000,note_on,45,0,64,0
2475,537.000000,note_off,45,0,64,160
2476,537.333333,note_on,46,0,64,0
2477,537.333333,note_off,46,0,64,320
2478,538.000000,note_on,43,1638,64,0
2479,538.000000,pitchwheel,43,1638,64,0
2480,538.000000,note_off,43,1638,64,320
2481,538.666667,note_on,44,0,64,0
2482,538.666667,note_off,44,0,64,160
2483,539.000000,note_on,47,3276,64,0
2484,539.000000,pitchwheel,47,3276,64,0
2485,539.000000,note_off,47,3276,64,480
2486,540.000000,note_on,46,1638,64,0
2487,540.000000,pitchwheel,46,1638,64,0
2488,540.000000,note_off,46,1638,64,320
2489,540.666667,note_on,47,3276,64,0
2490,540.666667,pitchwheel,47,3276,64,0
2491,540.666667,note_off,47,3276,64,320
2492,541.333333,note_on,46,1638,64,0
2493,541.333333,pitchwheel,46,1638,64,0
2494,541.333333,note_off,46,1638,64,320
2495,542.000000,note_on,50,0,64,0
2496,542.000000,note_off,50,0,64,320
2497,542.666667,note_on,48,819,64,0
2498,542.666667,pitchwheel,48,819,64,0
2499,542.666667,note_off,48,819,64,160
2500,543.000000,note_on,43,1638,64,0
2501,543.000000,pitchwheel,43,1638,64,0
2502,543.000000,note_off,43,1638,64,160
2503,543.333333,note_on,45,1638,64,0
2504,543.333333,pitchwheel,45,1638,64,0
2505,543.333333,note_off,45,1638,64,320
2506,544.000000,note_on,46,1638,64,0
2507,544.000000,pitchwheel,46,1638,64,0
2508,544.000000,note_off,46,1638,64,320
2509,544.666667,note_on,45,0,64,0
2510,544.666667,note_off,45,0,64,160
2511,545.000000,note_on,50,3685,64,0
2512,545.000000,pitchwheel,50,3685,64,0
2513,545.000000,note_off,50,3685,64,480
2514,546.000000,note_on,50,2457,64,0
2515,546.000000,pitchwheel,50,2457,64,0
2516,546.000000,note_off,50,2457,64,320
2517,546.666667,note_on,56,0,64,0
2518,546.666667,note_off,56,0,64,160
2519,547.000000,note_on,57,1638,64,0
2520,547.000000,pitchwheel,57,1638,64,0
2521,547.000000,note_off,57,1638,64,480
2522,548.000000,note_on,57,0,64,0
2523,548.000000,note_off,57,0,64,320
2524,548.666667,note_on,58,409,64,0
2525,548.666667,pitchwheel,58,409,64,0
2526,548.666667,note_off,58,409,64,160
2527,549.000000,note_on,53,0,64,0
2528,549.000000,note_off,53,0,64,480
2529,550.000000,note_on,47,2047,64,0
2530,550.000000,pitchwheel,47,2047,64,0
2531,550.000000,note_off,47,2047,64,320
2532,550.666667,note_on,53,1228,64,0
2533,550.666667,pitchwheel,53,1228,64,0
2534,550.666667,note_off,53,1228,64,160
2535,551.000000,note_on,53,0,64,0
2536,551.000000,note_off,53,0,64,160
2537,551.333333,note_on,55,0,64,0
2538,551.333333,note_off,55,0,64,320
2539,552.000000,note_on,56,0,64,0
2540,552.000000,note_off,56,0,64,320
2541,552.666667,note_on,55,2866,64,0
2542,552.666667,pitchwheel,55,2866,64,0
2543,552.666667,note_off,55,2866,64,160
2544,553.000000,note_on,50,3685,64,0
2545,553.000000,pitchwheel,50,3685,64,0
2546,553.000000,note_off,50,3685,64,160
2547,553.333333,note_on,46,0,64,0
2548,553.333333,note_off,46,0,64,320
2549,554.000000,note_on,48,2047,64,0
2550,554.000000,pitchwheel,48,2047,64,0
2551,554.000000,note_off,48,2047,64,320
2552,554.666667,note_on,43,1638,64,0
2553,554.666667,pitchwheel,43,1638,64,0
2554,554.666667,note_off,43,1638,64,160
2555,555.000000,note_on,43,0,64,0
2556,555.000000,note_off,43,0,64,160
2557,555.333333,note_on,38,2457,64,0
2558,555.333333,pitchwheel,38,2457,64,0
2559,555.333333,note_off,38,2457,64,320
2560,556.000000,note_on,45,0,64,0
2561,556.000000,note_off,45,0,64,320
2562,556.666667,note_on,40,2457,64,0
2563,556.666667,pitchwheel,40,2457,64,0
2564,556.666667,note_off,40,2457,64,160
2565,557.000000,note_on,43,1638,64,0
2566,557.000000,pitchwheel,43,1638,64,0
2567,557.000000,note_off,43,1638,64,160
2568,557.333333,note_on,41,2457,64,0
2569,557.333333,pitchwheel,41,2457,64,0
2570,557.333333,note_off,41,2457,64,320
2571,558.000000,note_on,41,1228,64,0
2572,558.000000,pitchwheel,41,1228,64,0
2573,558.000000,note_off,41,1228,64,320
2574,558.666667,note_on,41,0,64,0
2575,558.666667,note_off,41,0,64,320
2576,560.000000,note_on,41,0,64,0
2577,560.000000,note_off,41,0,64,320
2578,560.666667,note_on,38,2457,64,0
2579,560.666667,pitchwheel,38,2457,64,0
2580,560.666667,note_off,38,2457,64,160
2581,561.000000,note_on,41,0,64,0
2582,561.000000,note_off,41,0,64,480
2583,562.000000,note_on,45,1638,64,0
2584,562.000000,pitchwheel,45,1638,64,0
2585,562.000000,note_off,45,1638,64,320
2586,562.666667,note_on,47,3276,64,0
2587,562.666667,pitchwheel,47,3276,64,0
2588,562.666667,note_off,47,3276,64,160
2589,563.000000,note_on,38,819,64,0
2590,563.000000,pitchwheel,38,819,64,0
2591,563.000000,note_off,38,819,64,480
2592,564.000000,note_on,44,0,64,0
2593,564.000000,note_off,44,0,64,480
2594,565.000000,note_on,38,2457,64,0
2595,565.000000,pitchwheel,38,2457,64,0
2596,565.000000,note_off,38,2457,64,160
2597,565.333333,note_on,46,1638,64,0
2598,565.333333,pitchwheel,46,1638,64,0
2599,565.333333,note_off,46,1638,64,320
2600,566.000000,note_on,47,3276,64,0
2601,566.000000,pitchwheel,47,3276,64,0
2602,566.000000,note_off,47,3276,64,320
2603,566.666667,note_on,47,2047,64,0
2604,566.666667,pitchwheel,47,2047,64,0
2605,566.666667,note_off,47,2047,64,320
2606,567.333333,note_on,47,3276,64,0
2607,567.333333,pitchwheel,47,3276,64,0
2608,567.333333,note_off,47,3276,64,320
2609,568.000000,note_on,39,819,64,0
2610,568.000000,pitchwheel,39,819,64,0
2611,568.000000,note_off,39,819,64,320
2612,568.666667,note_on,41,0,64,0
2613,568.666667,note_off,41,0,64,320
2614,569.333333,note_on,41,1228,64,0
2615,569.333333,pitchwheel,41,1228,64,0
2616,569.333333,note_off,41,1228,64,320
2617,570.000000,note_on,45,0,64,0
2618,570.000000,note_off,45,0,64,320
2619,570.666667,note_on,47,3685,64,0
2620,570.666667,pitchwheel,47,3685,64,0
2621,570.666667,note_off,47,3685,64,160
2622,571.000000,note_on,52,2457,64,0
2623,571.000000,pitchwheel,52,2457,64,0
2624,571.000000,note_off,52,2457,64,160
2625,571.333333,note_on,57,0,64,0
2626,571.333333,note_off,57,0,64,320
2627,572.000000,note_on,53,2457,64,0
2628,572.000000,pitchwheel,53,2457,64,0
2629,572.000000,note_off,53,2457,64,320
2630,572.666667,note_on,50,819,64,0
2631,572.666667,pitchwheel,50,819,64,0
2632,572.666667,note_off,50,819,64,160
2633,573.000000,note_on,53,0,64,0
2634,573.000000,note_off,53,0,64,160
2635,573.333333,note_on,48,3276,64,0
2636,573.333333,pitchwheel,48,3276,64,0
2637,573.333333,note_off,48,3276,64,320
2638,574.000000,note_on,52,2866,64,0
2639,574.000000,pitchwheel,52,2866,64,0
2640,574.000000,note_off,52,2866,64,320
2641,574.666667,note_on,47,3685,64,0
2642,574.666667,pitchwheel,47,3685,64,0
2643,574.666667,note_off,47,3685,64,160
2644,575.000000,note_on,50,819,64,0
2645,575.000000,pitchwheel,50,819,64,0
2646,575.000000,note_off,50,819,64,160
2647,575.333333,note_on,45,2047,64,0
2648,575.333333,pitchwheel,45,2047,64,0
2649,575.333333,note_off,45,2047,64,320
2650,576.000000,note_on,47,3685,64,0
2651,576.000000,pitchwheel,47,3685,64,0
2652,576.000000,note_off,47,3685,64,480
2653,577.000000,note_on,45,0,64,0
2654,577.000000,note_off,45,0,64,160
2655,577.333333,note_on,50,0,64,0
2656,577.333333,note_off,50,0,64,320
2657,578.000000,note_on,52,2457,64,0
2658,578.000000,pitchwheel,52,2457,64,0
2659,578.000000,note_off,52,2457,64,320
2660,578.666667,note_on,58,1638,64,0
2661,578.666667,pitchwheel,58,1638,64,0
2662,578.666667,note_off,58,1638,64,160
2663,579.000000,note_on,55,0,64,0
2664,579.000000,note_off,55,0,64,160
2665,579.333333,note_on,57,3276,64,0
2666,579.333333,pitchwheel,57,3276,64,0
2667,579.333333,note_off,57,3276,64,640
2668,580.666667,note_on,55,409,64,0
2669,580.666667,pitchwheel,55,409,64,0
2670,580.666667,note_off,55,409,64,320
2671,581.333333,note_on,50,3685,64,0
2672,581.333333,pitchwheel,50,3685,64,0
2673,581.333333,note_off,50,3685,64,320
2674,582.000000,note_on,50,819,64,0
2675,582.000000,pitchwheel,50,819,64,0
2676,582.000000,note_off,50,819,64,320
2677,582.666667,note_on,46,409,64,0
2678,582.666667,pitchwheel,46,409,64,0
2679,582.666667,note_off,46,409,64,320
2680,583.333333,note_on,43,0,64,0
2681,583.333333,note_off,43,0,64,320
2682,584.000000,note_on,44,0,64,0
2683,584.000000,note_off,44,0,64,320
2684,584.666667,note_on,48,819,64,0
2685,584.666667,pitchwheel,48,819,64,0
2686,584.666667,note_off,48,819,64,160
2687,585.000000,note_on,48,2047,64,0
2688,585.000000,pitchwheel,48,2047,64,0
2689,585.000000,note_off,48,2047,64,480
2690,586.000000,note_on,45,3276,64,0
2691,586.000000,pitchwheel,45,3276,64,0
2692,586.000000,note_off,45,3276,64,320
2693,586.666667,note_on,48,3276,64,0
2694,586.666667,pitchwheel,48,3276,64,0
2695,586.666667,note_off,48,3276,64,160
2696,587.000000,note_on,45,1638,64,0
2697,587.000000,pitchwheel,45,1638,64,0
2698,587.000000,note_off,45,1638,64,160
2699,587.333333,note_on,40,1638,64,0
2700,587.333333,pitchwheel,40,1638,64,0
2701,587.333333,note_off,40,1638,64,320
2702,588.000000,note_on,41,0,64,0
2703,588.000000,note_off,41,0,64,320
2704,588.666667,note_on,40,2457,64,0
2705,588.666667,pitchwheel,40,2457,64,0
2706,588.666667,note_off,40,2457,64,160
2707,589.000000,note_on,36,819,64,0
2708,589.000000,pitchwheel,36,819,64,0
2709,589.000000,note_off,36,819,64,160
2710,589.333333,note_on,39,819,64,0
2711,589.333333,pitchwheel,39,819,64,0
2712,589.333333,note_off,39,819,64,320
2713,590.000000,note_on,45,0,64,0
2714,590.000000,note_off,45,0,64,320
2715,590.666667,note_on,46,0,64,0
2716,590.666667,note_off,46,0,64,160
2717,591.000000,note_on,48,2047,64,0
2718,591.000000,pitchwheel,48,2047,64,0
2719,591.000000,note_off,48,2047,64,480
2720,592.000000,note_on,45,2047,64,0
2721,592.000000,pitchwheel,45,2047,64,0
2722,592.000000,note_off,45,2047,64,480
2723,593.000000,note_on,50,2457,64,0
2724,593.000000,pitchwheel,50,2457,64,0
2725,593.000000,note_off,50,2457,64,160
2726,593.333333,note_on,47,2047,64,0
2727,593.333333,pitchwheel,47,2047,64,0
2728,593.333333,note_off,47,2047,64,320
2729,594.000000,note_on,43,0,64,0
2730,594.000000,note_off,43,0,64,320
2731,594.666667,note_on,46,0,64,0
2732,594.666667,note_off,46,0,64,160
2733,595.000000,note_on,47,3276,64,0
2734,595.000000,pitchwheel,47,3276,64,0
2735,595.000000,note_off,47,3276,64,160
2736,595.333333,note_on,45,3276,64,0
2737,595.333333,pitchwheel,45,3276,64,0
2738,595.333333,note_off,45,3276,64,320
2739,596.000000,note_on,45,2047,64,0
2740,596.000000,pitchwheel,45,2047,64,0
2741,596.000000,note_off,45,2047,64,320
2742,596.666667,note_on,50,819,64,0
2743,596.666667,pitchwheel,50,819,64,0
2744,596.666667,note_off,50,819,64,160
2745,597.000000,note_on,45,3276,64,0
2746,597.000000,pitchwheel,45,3276,64,0
2747,597.000000,note_off,45,3276,64,160
2748,597.333333,note_on,43,1638,64,0
2749,597.333333,pitchwheel,43,1638,64,0
2750,597.333333,note_off,43,1638,64,320
2751,598.000000,note_on,45,0,64,0
2752,598.000000,note_off,45,0,64,480
2753,599.333333,note_on,45,1638,64,0
2754,599.333333,pitchwheel,45,1638,64,0
2755,599.333333,note_off,45,1638,64,320
2756,600.000000,note_on,44,0,64,0
2757,600.000000,note_off,44,0,64,480
2758,601.000000,note_on,38,2457,64,0
2759,601.000000,pitchwheel,38,2457,64,0
2760,601.000000,note_off,38,2457,64,160
2761,601.333333,note_on,43,409,64,0
2762,601.333333,pitchwheel,43,409,64,0
2763,601.333333,note_off,43,409,64,320
2764,602.000000,note_on,45,2047,64,0
2765,602.000000,pitchwheel,45,2047,64,0
2766,602.000000,note_off,45,2047,64,320
2767,602.666667,note_on,50,2457,64,0
2768,602.666667,pitchwheel,50,2457,64,0
2769,602.666667,note_off,50,2457,64,160
2770,603.000000,note_on,50,819,64,0
2771,603.000000,pitchwheel,50,819,64,0
2772,603.000000,note_off,50,819,64,160
2773,603.333333,note_on,44,2047,64,0
2774,603.333333,pitchwheel,44,2047,64,0
2775,603.333333,note_off,44,2047,64,320
2776,604.000000,note_on,50,1228,64,0
2777,604.000000,pitchwheel,50,1228,64,0
2778,604.000000,note_off,50,1228,64,320
2779,604.666667,note_on,47,3276,64,0
2780,604.666667,pitchwheel,47,3276,64,0
2781,604.666667,note_off,47,3276,64,160
2782,605.000000,note_on,50,2457,64,0
2783,605.000000,pitchwheel,50,2457,64,0
2784,605.000000,note_off,50,2457,64,160
2785,605.333333,note_on,46,1638,64,0
2786,605.333333,pitchwheel,46,1638,64,0
2787,605.333333,note_off,46,1638,64,320
2788,606.000000,note_on,41,0,64,0
2789,606.000000,note_off,41,0,64,320
2790,606.666667,note_on,45,1638,64,0
2791,606.666667,pitchwheel,45,1638,64,0
2792,606.666667,note_off,45,1638,64,320
2793,607.333333,note_on,47,3685,64,0
2794,607.333333,pitchwheel,47,3685,64,0
2795,607.333333,note_off,47,3685,64,320
2796,608.000000,note_on,45,2047,64,0
2797,608.000000,pitchwheel,45,2047,64,0
2798,608.000000,note_off,45,2047,64,320
2799,608.666667,note_on,50,0,64,0
2800,608.666667,note_off,50,0,64,320
2801,609.333333,note_on,45,0,64,0
2802,609.333333,note_off,45,0,64,320
2803,610.000000,note_on,45,2047,64,0
2804,610.000000,pitchwheel,45,2047,64,0
2805,610.000000,note_off,45,2047,64,320
2806,610.666667,note_on,43,1638,64,0
2807,610.666667,pitchwheel,43,1638,64,0
2808,610.666667,note_off,43,1638,64,160
2809,611.000000,note_on,40,2457,64,0
2810,611.000000,pitchwheel,40,2457,64,0
2811,611.000000,note_off,40,2457,64,160
2812,611.333333,note_on,38,2457,64,0
2813,611.333333,pitchwheel,38,2457,64,0
2814,611.333333,note_off,38,2457,64,320
2815,612.000000,note_on,38,1228,64,0
2816,612.000000,pitchwheel,38,1228,64,0
2817,612.000000,note_off,38,1228,64,480
2818,613.000000,note_on,36,819,64,0
2819,613.000000,pitchwheel,36,819,64,0
2820,613.000000,note_off,36,819,64,160
2821,613.333333,note_on,38,819,64,0
2822,613.333333,pitchwheel,38,819,64,0
2823,613.333333,note_off,38,819,64,320
2824,614.000000,note_on,47,3685,64,0
2825,614.000000,pitchwheel,47,3685,64,0
2826,614.000000,note_off,47,3685,64,480
2827,615.000000,note_on,47,3276,64,0
2828,615.000000,pitchwheel,47,3276,64,0
2829,615.000000,note_off,47,3276,64,480
2830,616.000000,note_on,47,3685,64,0
2831,616.000000,pitchwheel,47,3685,64,0
2832,616.000000,note_off,47,3685,64,320
2833,616.666667,note_on,44,2047,64,0
2834,616.666667,pitchwheel,44,2047,64,0
2835,616.666667,note_off,44,2047,64,160
2836,617.000000,note_on,45,0,64,0
2837,617.000000,note_off,45,0,64,160
2838,617.333333,note_on,46,0,64,0
2839,617.333333,note_off,46,0,64,320
2840,618.000000,note_on,41,0,64,0
2841,618.000000,note_off,41,0,64,320
2842,618.666667,note_on,36,3276,64,0
2843,618.666667,pitchwheel,36,3276,64,0
2844,618.666667,note_off,36,3276,64,160
2845,619.000000,note_on,43,0,64,0
2846,619.000000,note_off,43,0,64,480
2847,620.000000,note_on,43,1638,64,0
2848,620.000000,pitchwheel,43,1638,64,0
2849,620.000000,note_off,43,1638,64,320
2850,620.666667,note_on,45,1638,64,0
2851,620.666667,pitchwheel,45,1638,64,0
2852,620.666667,note_off,45,1638,64,320
2853,621.333333,note_on,38,2457,64,0
2854,621.333333,pitchwheel,38,2457,64,0
2855,621.333333,note_off,38,2457,64,320
2856,622.000000,note_on,45,3276,64,0
2857,622.000000,pitchwheel,45,3276,64,0
2858,622.000000,note_off,45,3276,64,320
2859,622.666667,note_on,46,409,64,0
2860,622.666667,pitchwheel,46,409,64,0
2861,622.666667,note_off,46,409,64,320
2862,623.333333,note_on,40,2457,64,0
2863,623.333333,pitchwheel,40,2457,64,0
2864,623.333333,note_off,40,2457,64,320
2865,624.000000,note_on,36,2047,64,0
2866,624.000000,pitchwheel,36,2047,64,0
2867,624.000000,note_off,36,2047,64,320
2868,624.666667,note_on,45,0,64,0
2869,624.666667,note_off,45,0,64,160
2870,625.000000,note_on,44,2047,64,0
2871,625.000000,pitchwheel,44,2047,64,0
2872,625.000000,note_off,44,2047,64,160
2873,625.333333,note_on,43,409,64,0
2874,625.333333,pitchwheel,43,409,64,0
2875,625.333333,note_off,43,409,64,320
2876,626.000000,note_on,43,0,64,0
2877,626.000000,note_off,43,0,64,480
2878,627.000000,note_on,45,1638,64,0
2879,627.000000,pitchwheel,45,1638,64,0
2880,627.000000,note_off,45,1638,64,480
2881,628.000000,note_on,36,2047,64,0
2882,628.000000,pitchwheel,36,2047,64,0
2883,628.000000,note_off,36,2047,64,320
2884,628.666667,note_on,47,2457,64,0
2885,628.666667,pitchwheel,47,2457,64,0
2886,628.666667,note_off,47,2457,64,160
2887,629.000000,note_on,43,1638,64,0
2888,629.000000,pitchwheel,43,1638,64,0
2889,629.000000,note_off,43,1638,64,160
2890,629.333333,note_on,36,819,64,0
2891,629.333333,pitchwheel,36,819,64,0
2892,629.333333,note_off,36,819,64,320
2893,630.000000,note_on,38,1228,64,0
2894,630.000000,pitchwheel,38,1228,64,0
2895,630.000000,note_off,38,1228,64,320
2896,630.666667,note_on,38,2457,64,0
2897,630.666667,pitchwheel,38,2457,64,0
2898,630.666667,note_off,38,2457,64,160
2899,631.000000,note_on,43,409,64,0
2900,631.000000,pitchwheel,43,409,64,0
2901,631.000000,note_off,43,409,64,160
2902,631.333333,note_on,40,2457,64,0
2903,631.333333,pitchwheel,40,2457,64,0
2904,631.333333,note_off,40,2457,64,320
2905,632.000000,note_on,44,0,64,0
2906,632.000000,note_off,44,0,64,320
2907,632.666667,note_on,38,2457,64,0
2908,632.666667,pitchwheel,38,2457,64,0
2909,632.666667,note_off,38,2457,64,160
2910,633.000000,note_on,41,0,64,0
2911,633.000000,note_off,41,0,64,160
2912,633.333333,note_on,40,2457,64,0
2913,633.333333,pitchwheel,40,2457,64,0
2914,633.333333,note_off,40,2457,64,320
2915,634.000000,note_on,38,2457,64,0
2916,634.000000,pitchwheel,38,2457,64,0
2917,634.000000,note_off,38,2457,64,320
2918,634.666667,note_on,40,2866,64,0
2919,634.666667,pitchwheel,40,2866,64,0
2920,634.666667,note_off,40,2866,64,160
2921,635.000000,note_on,47,3276,64,0
2922,635.000000,pitchwheel,47,3276,64,0
2923,635.000000,note_off,47,3276,64,160
2924,635.333333,note_on,38,2457,64,0
2925,635.333333,pitchwheel,38,2457,64,0
2926,635.333333,note_off,38,2457,64,320
2927,636.000000,note_on,38,1228,64,0
2928,636.000000,pitchwheel,38,1228,64,0
2929,636.000000,note_off,38,1228,64,320
2930,636.666667,note_on,47,3685,64,0
2931,636.666667,pitchwheel,47,3685,64,0
2932,636.666667,note_off,47,3685,64,160
2933,637.000000,note_on,41,0,64,0
2934,637.000000,note_off,41,0,64,160
2935,637.333333,note_on,46,1638,64,0
2936,637.333333,pitchwheel,46,1638,64,0
2937,637.333333,note_off,46,1638,64,320
2938,638.000000,note_on,41,0,64,0
2939,638.000000,note_off,41,0,64,320
2940,638.666667,note_on,41,1228,64,0
2941,638.666667,pitchwheel,41,1228,64,0
2942,638.666667,note_off,41,1228,64,320
2943,640.000000,note_on,44,0,64,0
2944,640.000000,note_off,44,0,64,320
2945,640.666667,note_on,41,0,64,0
2946,640.666667,note_off,41,0,64,160
2947,641.000000,note_on,40,1638,64,0
2948,641.000000,pitchwheel,40,1638,64,0
2949,641.000000,note_off,40,1638,64,480
2950,642.000000,note_on,41,0,64,0
2951,642.000000,note_off,41,0,64,320
2952,642.666667,note_on,44,0,64,0
2953,642.666667,note_off,44,0,64,160
2954,643.000000,note_on,43,0,64,0
2955,643.000000,note_off,43,0,64,160
2956,643.333333,note_on,38,0,64,0
2957,643.333333,note_off,38,0,64,320
2958,644.000000,note_on,40,1638,64,0
2959,644.000000,pitchwheel,40,1638,64,0
2960,644.000000,note_off,40,1638,64,480
2961,645.333333,note_on,43,409,64,0
2962,645.333333,pitchwheel,43,409,64,0
2963,645.333333,note_off,43,409,64,320
2964,646.000000,note_on,46,0,64,0
2965,646.000000,note_off,46,0,64,320
2966,646.666667,note_on,45,0,64,0
2967,646.666667,note_off,45,0,64,320
2968,647.333333,note_on,45,1638,64,0
2969,647.333333,pitchwheel,45,1638,64,0
2970,647.333333,note_off,45,1638,64,320
2971,648.000000,note_on,46,0,64,0
2972,648.000000,note_off,46,0,64,320
2973,648.666667,note_on,45,3276,64,0
2974,648.666667,pitchwheel,45,3276,64,0
2975,648.666667,note_off,45,3276,64,320
2976,649.333333,note_on,46,409,64,0
2977,649.333333,pitchwheel,46,409,64,0
2978,649.333333,note_off,46,409,64,320
2979,650.000000,note_on,49,0,64,0
2980,650.000000,note_off,49,0,64,320
2981,650.666667,note_on,43,409,64,0
2982,650.666667,pitchwheel,43,409,64,0
2983,650.666667,note_off,43,409,64,160
2984,651.000000,note_on,45,1638,64,0
2985,651.000000,pitchwheel,45,1638,64,0
2986,651.000000,note_off,45,1638,64,160
2987,651.333333,note_on,45,0,64,0
2988,651.333333,note_off,45,0,64,320
2989,652.666667,note_on,47,3276,64,0
2990,652.666667,pitchwheel,47,3276,64,0
2991,652.666667,note_off,47,3276,64,160
2992,653.000000,note_on,48,819,64,0
2993,653.000000,pitchwheel,48,819,64,0
2994,653.000000,note_off,48,819,64,160
2995,653.333333,note_on,46,1638,64,0
2996,653.333333,pitchwheel,46,1638,64,0
2997,653.333333,note_off,46,1638,64,320
2998,654.000000,note_on,48,2047,64,0
2999,654.000000,pitchwheel,48,2047,64,0
3000,654.000000,note_off,48,2047,64,480
3001,655.000000,note_on,50,819,64,0
3002,655.000000,pitchwheel,50,819,64,0
3003,655.000000,note_off,50,819,64,160
3004,655.333333,note_on,47,2457,64,0
3005,655.333333,pitchwheel,47,2457,64,0
3006,655.333333,note_off,47,2457,64,320
3007,656.000000,note_on,47,3276,64,0
3008,656.000000,pitchwheel,47,3276,64,0
3009,656.000000,note_off,47,3276,64,320
3010,656.666667,note_on,52,2866,64,0
3011,656.666667,pitchwheel,52,2866,64,0
3012,656.666667,note_off,52,2866,64,160
3013,657.000000,note_on,57,0,64,0
3014,657.000000,note_off,57,0,64,160
3015,657.333333,note_on,50,1228,64,0
3016,657.333333,pitchwheel,50,1228,64,0
3017,657.333333,note_off,50,1228,64,320
3018,658.000000,note_on,50,819,64,0
3019,658.000000,pitchwheel,50,819,64,0
3020,658.000000,note_off,50,819,64,320
3021,658.666667,note_on,50,2457,64,0
3022,658.666667,pitchwheel,50,2457,64,0
3023,658.666667,note_off,50,2457,64,160
3024,659.000000,note_on,47,3276,64,0
3025,659.000000,pitchwheel,47,3276,64,0
3026,659.000000,note_off,47,3276,64,480
3027,660.000000,note_on,48,3276,64,0
3028,660.000000,pitchwheel,48,3276,64,0
3029,660.000000,note_off,48,3276,64,320
3030,660.666667,note_on,50,0,64,0
3031,660.666667,note_off,50,0,64,320
3032,661.333333,note_on,48,3276,64,0
3033,661.333333,pitchwheel,48,3276,64,0
3034,661.333333,note_off,48,3276,64,320
3035,662.000000,note_on,50,2457,64,0
3036,662.000000,pitchwheel,50,2457,64,0
3037,662.000000,note_off,50,2457,64,320
3038,662.666667,note_on,45,0,64,0
3039,662.666667,note_off,45,0,64,160
3040,663.000000,note_on,45,2047,64,0
3041,663.000000,pitchwheel,45,2047,64,0
3042,663.000000,note_off,45,2047,64,160
3043,663.333333,note_on,40,2457,64,0
3044,663.333333,pitchwheel,40,2457,64,0
3045,663.333333,note_off,40,2457,64,320
3046,664.000000,note_on,46,1638,64,0
3047,664.000000,pitchwheel,46,1638,64,0
3048,664.000000,note_off,46,1638,64,320
3049,664.666667,note_on,41,0,64,0
3050,664.666667,note_off,41,0,64,160
3051,665.000000,note_on,43,2866,64,0
3052,665.000000,pitchwheel,43,2866,64,0
3053,665.000000,note_off,43,2866,64,160
3054,665.333333,note_on,41,1228,64,0
3055,665.333333,pitchwheel,41,1228,64,0
3056,665.333333,note_off,41,1228,64,320
3057,666.000000,note_on,45,3276,64,0
3058,666.000000,pitchwheel,45,3276,64,0
3059,666.000000,note_off,45,3276,64,320
3060,666.666667,note_on,40,0,64,0
3061,666.666667,note_off,40,0,64,160
3062,667.000000,note_on,38,819,64,0
3063,667.000000,pitchwheel,38,819,64,0
3064,667.000000,note_off,38,819,64,160
3065,667.333333,note_on,36,2047,64,0
3066,667.333333,pitchwheel,36,2047,64,0
3067,667.333333,note_off,36,2047,64,320
3068,668.000000,note_on,46,1638,64,0
3069,668.000000,pitchwheel,46,1638,64,0
3070,668.000000,note_off,46,1638,64,320
3071,668.666667,note_on,43,0,64,0
3072,668.666667,note_off,43,0,64,160
3073,669.000000,note_on,41,0,64,0
3074,669.000000,note_off,41,0,64,160
3075,669.333333,note_on,44,0,64,0
3076,669.333333,note_off,44,0,64,320
3077,670.000000,note_on,41,0,64,0
3078,670.000000,note_off,41,0,64,320
3079,670.666667,note_on,46,0,64,0
3080,670.666667,note_off,46,0,64,160
3081,671.000000,note_on,47,3685,64,0
3082,671.000000,pitchwheel,47,3685,64,0
3083,671.000000,note_off,47,3685,64,480
3084,672.000000,note_on,51,819,64,0
3085,672.000000,pitchwheel,51,819,64,0
3086,672.000000,note_off,51,819,64,480
3087,673.000000,note_on,50,0,64,0
3088,673.000000,note_off,50,0,64,160
3089,673.333333,note_on,49,0,64,0
3090,673.333333,note_off,49,0,64,320
3091,674.000000,note_on,45,1638,64,0
3092,674.000000,pitchwheel,45,1638,64,0
3093,674.000000,note_off,45,1638,64,320
3094,674.666667,note_on,46,1638,64,0
3095,674.666667,pitchwheel,46,1638,64,0
3096,674.666667,note_off,46,1638,64,160
3097,675.000000,note_on,40,2457,64,0
3098,675.000000,pitchwheel,40,2457,64,0
3099,675.000000,note_off,40,2457,64,160
3100,675.333333,note_on,45,2047,64,0
3101,675.333333,pitchwheel,45,2047,64,0
3102,675.333333,note_off,45,2047,64,320
3103,676.000000,note_on,45,3276,64,0
3104,676.000000,pitchwheel,45,3276,64,0
3105,676.000000,note_off,45,3276,64,320
3106,676.666667,note_on,45,1638,64,0
3107,676.666667,pitchwheel,45,1638,64,0
3108,676.666667,note_off,45,1638,64,160
3109,677.000000,note_on,43,1638,64,0
3110,677.000000,pitchwheel,43,1638,64,0
3111,677.000000,note_off,43,1638,64,160
3112,677.333333,note_on,45,2047,64,0
3113,677.333333,pitchwheel,45,2047,64,0
3114,677.333333,note_off,45,2047,64,320
3115,678.000000,note_on,45,0,64,0
3116,678.000000,note_off,45,0,64,320
3117,678.666667,note_on,43,409,64,0
3118,678.666667,pitchwheel,43,409,64,0
3119,678.666667,note_off,43,409,64,320
3120,679.333333,note_on,47,3276,64,0
3121,679.333333,pitchwheel,47,3276,64,0
3122,679.333333,note_off,47,3276,64,320
3123,680.000000,note_on,45,0,64,0
3124,680.000000,note_off,45,0,64,480
3125,681.000000,note_on,41,0,64,0
3126,681.000000,note_off,41,0,64,160
3127,681.333333,note_on,36,819,64,0
3128,681.333333,pitchwheel,36,819,64,0
3129,681.333333,note_off,36,819,64,320
3130,682.000000,note_on,43,1638,64,0
3131,682.000000,pitchwheel,43,1638,64,0
3132,682.000000,note_off,43,1638,64,320
3133,682.666667,note_on,45,2047,64,0
3134,682.666667,pitchwheel,45,2047,64,0
3135,682.666667,note_off,45,2047,64,160
3136,683.000000,note_on,40,2457,64,0
3137,683.000000,pitchwheel,40,2457,64,0
3138,683.000000,note_off,40,2457,64,160
3139,683.333333,note_on,47,2047,64,0
3140,683.333333,pitchwheel,47,2047,64,0
3141,683.333333,note_off,47,2047,64,320
3142,684.000000,note_on,39,819,64,0
3143,684.000000,pitchwheel,39,819,64,0
3144,684.000000,note_off,39,819,64,320
3145,684.666667,note_on,38,819,64,0
3146,684.666667,pitchwheel,38,819,64,0
3147,684.666667,note_off,38,819,64,160
3148,685.000000,note_on,45,0,64,0
3149,685.000000,note_off,45,0,64,160
3150,685.333333,note_on,39,819,64,0
3151,685.333333,pitchwheel,39,819,64,0
3152,685.333333,note_off,39,819,64,320
3153,686.000000,note_on,38,1228,64,0
3154,686.000000,pitchwheel,38,1228,64,0
3155,686.000000,note_off,38,1228,64,320
3156,686.666667,note_on,46,409,64,0
3157,686.666667,pitchwheel,46,409,64,0
3158,686.666667,note_off,46,409,64,320
3159,687.333333,note_on,41,0,64,0
3160,687.333333,note_off,41,0,64,320
3161,688.000000,note_on,36,3276,64,0
3162,688.000000,pitchwheel,36,3276,64,0
3163,688.000000,note_off,36,3276,64,320
3164,688.666667,note_on,38,3685,64,0
3165,688.666667,pitchwheel,38,3685,64,0
3166,688.666667,note_off,38,3685,64,320
3167,689.333333,note_on,45,2047,64,0
3168,689.333333,pitchwheel,45,2047,64,0
3169,689.333333,note_off,45,2047,64,320
3170,690.000000,note_on,40,2457,64,0
3171,690.000000,pitchwheel,40,2457,64,0
3172,690.000000,note_off,40,2457,64,320
3173,690.666667,note_on,41,2457,64,0
3174,690.666667,pitchwheel,41,2457,64,0
3175,690.666667,note_off,41,2457,64,160
3176,691.000000,note_on,38,819,64,0
3177,691.000000,pitchwheel,38,819,64,0
3178,691.000000,note_off,38,819,64,160
3179,691.333333,note_on,40,2866,64,0
3180,691.333333,pitchwheel,40,2866,64,0
3181,691.333333,note_off,40,2866,64,320
3182,692.000000,note_on,41,0,64,0
3183,692.000000,note_off,41,0,64,480
3184,693.000000,note_on,43,2866,64,0
3185,693.000000,pitchwheel,43,2866,64,0
3186,693.000000,note_off,43,2866,64,160
3187,693.333333,note_on,40,0,64,0
3188,693.333333,note_off,40,0,64,320
3189,694.000000,note_on,41,0,64,0
3190,694.000000,note_off,41,0,64,320
3191,694.666667,note_on,36,2047,64,0
3192,694.666667,pitchwheel,36,2047,64,0
3193,694.666667,note_off,36,2047,64,160
3194,695.000000,note_on,40,2457,64,0
3195,695.000000,pitchwheel,40,2457,64,0
3196,695.000000,note_off,40,2457,64,160
3197,695.333333,note_on,45,1638,64,0
3198,695.333333,pitchwheel,45,1638,64,0
3199,695.333333,note_off,45,1638,64,320
3200,696.000000,note_on,41,2457,64,0
3201,696.000000,pitchwheel,41,2457,64,0
3202,696.000000,note_off,41,2457,64,480
3203,697.000000,note_on,45,0,64,0
3204,697.000000,note_off,45,0,64,160
3205,697.333333,note_on,40,2457,64,0
3206,697.333333,pitchwheel,40,2457,64,0
3207,697.333333,note_off,40,2457,64,320
3208,698.000000,note_on,38,2457,64,0
3209,698.000000,pitchwheel,38,2457,64,0
3210,698.000000,note_off,38,2457,64,320
3211,698.666667,note_on,38,819,64,0
3212,698.666667,pitchwheel,38,819,64,0
3213,698.666667,note_off,38,819,64,160
3214,699.000000,note_on,47,3276,64,0
3215,699.000000,pitchwheel,47,3276,64,0
3216,699.000000,note_off,47,3276,64,480
3217,700.000000,note_on,44,0,64,0
3218,700.000000,note_off,44,0,64,320
3219,700.666667,note_on,43,0,64,0
3220,700.666667,note_off,43,0,64,320
3221,701.333333,note_on,46,0,64,0
3222,701.333333,note_off,46,0,64,320
3223,702.000000,note_on,40,2866,64,0
3224,702.000000,pitchwheel,40,2866,64,0
3225,702.000000,note_off,40,2866,64,320
3226,702.666667,note_on,41,0,64,0
3227,702.666667,note_off,41,0,64,160
3228,703.000000,note_on,47,2457,64,0
3229,703.000000,pitchwheel,47,2457,64,0
3230,703.000000,note_off,47,2457,64,160
3231,703.333333,note_on,47,3276,64,0
3232,703.333333,pitchwheel,47,3276,64,0
3233,703.333333,note_off,47,3276,64,320
3234,704.000000,note_on,47,3685,64,0
3235,704.000000,pitchwheel,47,3685,64,0
3236,704.000000,note_off,47,3685,64,320
3237,704.666667,note_on,45,0,64,0
3238,704.666667,note_off,45,0,64,160
3239,705.000000,note_on,44,2047,64,0
3240,705.000000,pitchwheel,44,2047,64,0
3241,705.000000,note_off,44,2047,64,480
3242,706.000000,note_on,40,2457,64,0
3243,706.000000,pitchwheel,40,2457,64,0
3244,706.000000,note_off,40,2457,64,320
3245,706.666667,note_on,40,2866,64,0
3246,706.666667,pitchwheel,40,2866,64,0
3247,706.666667,note_off,40,2866,64,160
3248,707.000000,note_on,45,1638,64,0
3249,707.000000,pitchwheel,45,1638,64,0
3250,707.000000,note_off,45,1638,64,480
3251,708.000000,note_on,45,0,64,0
3252,708.000000,note_off,45,0,64,320
3253,708.666667,note_on,46,409,64,0
3254,708.666667,pitchwheel,46,409,64,0
3255,708.666667,note_off,46,409,64,160
3256,709.000000,note_on,38,3685,64,0
3257,709.000000,pitchwheel,38,3685,64,0
3258,709.000000,note_off,38,3685,64,160
3259,709.333333,note_on,43,2866,64,0
3260,709.333333,pitchwheel,43,2866,64,0
3261,709.333333,note_off,43,2866,64,320
3262,710.000000,note_on,45,1638,64,0
3263,710.000000,pitchwheel,45,1638,64,0
3264,710.000000,note_off,45,1638,64,320
3265,710.666667,note_on,48,819,64,0
3266,710.666667,pitchwheel,48,819,64,0
3267,710.666667,note_off,48,819,64,160
3268,711.000000,note_on,50,0,64,0
3269,711.000000,note_off,50,0,64,160
3270,711.333333,note_on,50,819,64,0
3271,711.333333,pitchwheel,50,819,64,0
3272,711.333333,note_off,50,819,64,320
3273,712.000000,note_on,48,2047,64,0
3274,712.000000,pitchwheel,48,2047,64,0
3275,712.000000,note_off,48,2047,64,320
3276,712.666667,note_on,45,2047,64,0
3277,712.666667,pitchwheel,45,2047,64,0
3278,712.666667,note_off,45,2047,64,160
3279,713.000000,note_on,50,2457,64,0
3280,713.000000,pitchwheel,50,2457,64,0
3281,713.000000,note_off,50,2457,64,160
3282,713.333333,note_on,47,3685,64,0
3283,713.333333,pitchwheel,47,3685,64,0
3284,713.333333,note_off,47,3685,64,320
3285,714.000000,note_on,53,0,64,0
3286,714.000000,note_off,53,0,64,320
3287,714.666667,note_on,58,1638,64,0
3288,714.666667,pitchwheel,58,1638,64,0
3289,714.666667,note_off,58,1638,64,160
3290,715.000000,note_on,55,0,64,0
3291,715.000000,note_off,55,0,64,160
3292,715.333333,note_on,50,2457,64,0
3293,715.333333,pitchwheel,50,2457,64,0
3294,715.333333,note_off,50,2457,64,320
3295,716.000000,note_on,53,1228,64,0
3296,716.000000,pitchwheel,53,1228,64,0
3297,716.000000,note_off,53,1228,64,320
3298,716.666667,note_on,47,3276,64,0
3299,716.666667,pitchwheel,47,3276,64,0
3300,716.666667,note_off,47,3276,64,160
3301,717.000000,note_on,48,2047,64,0
3302,717.000000,pitchwheel,48,2047,64,0
3303,717.000000,note_off,48,2047,64,160
3304,717.333333,note_on,44,0,64,0
3305,717.333333,note_off,44,0,64,320
3306,718.000000,note_on,47,3685,64,0
3307,718.000000,pitchwheel,47,3685,64,0
3308,718.000000,note_off,47,3685,64,320
3309,718.666667,note_on,47,3276,64,0
3310,718.666667,pitchwheel,47,3276,64,0
3311,718.666667,note_off,47,3276,64,320
3312,720.000000,note_on,47,2047,64,0
3313,720.000000,pitchwheel,47,2047,64,0
3314,720.000000,note_off,47,2047,64,320
3315,720.666667,note_on,50,2457,64,0
3316,720.666667,pitchwheel,50,2457,64,0
3317,720.666667,note_off,50,2457,64,160
3318,721.000000,note_on,53,0,64,0
3319,721.000000,note_off,53,0,64,480
3320,722.000000,note_on,50,2457,64,0
3321,722.000000,pitchwheel,50,2457,64,0
3322,722.000000,note_off,50,2457,64,320
3323,722.666667,note_on,50,0,64,0
3324,722.666667,note_off,50,0,64,160
3325,723.000000,note_on,52,2457,64,0
3326,723.000000,pitchwheel,52,2457,64,0
3327,723.000000,note_off,52,2457,64,160
3328,723.333333,note_on,57,0,64,0
3329,723.333333,note_off,57,0,64,320
3330,724.000000,note_on,58,0,64,0
3331,724.000000,note_off,58,0,64,480
3332,725.000000,note_on,56,2047,64,0
3333,725.000000,pitchwheel,56,2047,64,0
3334,725.000000,note_off,56,2047,64,160
3335,725.333333,note_on,59,2457,64,0
3336,725.333333,pitchwheel,59,2457,64,0
3337,725.333333,note_off,59,2457,64,320
3338,726.000000,note_on,57,1638,64,0
3339,726.000000,pitchwheel,57,1638,64,0
3340,726.000000,note_off,57,1638,64,320
3341,726.666667,note_on,50,3685,64,0
3342,726.666667,pitchwheel,50,3685,64,0
3343,726.666667,note_off,50,3685,64,320
3344,727.333333,note_on,45,1638,64,0
3345,727.333333,pitchwheel,45,1638,64,0
3346,727.333333,note_off,45,1638,64,640
3347,728.666667,note_on,45,2047,64,0
3348,728.666667,pitchwheel,45,2047,64,0
3349,728.666667,note_off,45,2047,64,320
3350,729.333333,note_on,45,1638,64,0
3351,729.333333,pitchwheel,45,1638,64,0
3352,729.333333,note_off,45,1638,64,320
3353,730.000000,note_on,43,0,64,0
3354,730.000000,note_off,43,0,64,320
3355,730.666667,note_on,47,2457,64,0
3356,730.666667,pitchwheel,47,2457,64,0
3357,730.666667,note_off,47,2457,64,320
3358,731.333333,note_on,45,0,64,0
3359,731.333333,note_off,45,0,64,320
3360,732.000000,note_on,45,2047,64,0
3361,732.000000,pitchwheel,45,2047,64,0
3362,732.000000,note_off,45,2047,64,320
3363,732.666667,note_on,43,0,64,0
3364,732.666667,note_off,43,0,64,160
3365,733.000000,note_on,43,2866,64,0
3366,733.000000,pitchwheel,43,2866,64,0
3367,733.000000,note_off,43,2866,64,160
3368,733.333333,note_on,44,0,64,0
3369,733.333333,note_off,44,0,64,320
3370,734.000000,note_on,43,1638,64,0
3371,734.000000,pitchwheel,43,1638,64,0
3372,734.000000,note_off,43,1638,64,320
3373,734.666667,note_on,41,0,64,0
3374,734.666667,note_off,41,0,64,160
3375,735.000000,note_on,43,0,64,0
3376,735.000000,note_off,43,0,64,160
3377,735.333333,note_on,45,2047,64,0
3378,735.333333,pitchwheel,45,2047,64,0
3379,735.333333,note_off,45,2047,64,640
3380,736.666667,note_on,40,0,64,0
3381,736.666667,note_off,40,0,64,160
3382,737.000000,note_on,45,0,64,0
3383,737.000000,note_off,45,0,64,160
3384,737.333333,note_on,50,3685,64,0
3385,737.333333,pitchwheel,50,3685,64,0
3386,737.333333,note_off,50,3685,64,320
3387,738.000000,note_on,52,2457,64,0
3388,738.000000,pitchwheel,52,2457,64,0
3389,738.000000,note_off,52,2457,64,320
3390,738.666667,note_on,58,1638,64,0
3391,738.666667,pitchwheel,58,1638,64,0
3392,738.666667,note_off,58,1638,64,160
3393,739.000000,note_on,57,1638,64,0
3394,739.000000,pitchwheel,57,1638,64,0
3395,739.000000,note_off,57,1638,64,160
3396,739.333333,note_on,50,1228,64,0
3397,739.333333,pitchwheel,50,1228,64,0
3398,739.333333,note_off,50,1228,64,320
3399,740.000000,note_on,48,2047,64,0
3400,740.000000,pitchwheel,48,2047,64,0
3401,740.000000,note_off,48,2047,64,320
3402,740.666667,note_on,55,409,64,0
3403,740.666667,pitchwheel,55,409,64,0
3404,740.666667,note_off,55,409,64,320
3405,741.333333,note_on,58,1638,64,0
3406,741.333333,pitchwheel,58,1638,64,0
3407,741.333333,note_off,58,1638,64,320
3408,742.000000,note_on,55,0,64,0
3409,742.000000,note_off,55,0,64,320
3410,742.666667,note_on,55,1638,64,0
3411,742.666667,pitchwheel,55,1638,64,0
3412,742.666667,note_off,55,1638,64,160
3413,743.000000,note_on,59,2457,64,0
3414,743.000000,pitchwheel,59,2457,64,0
3415,743.000000,note_off,59,2457,64,480
3416,744.000000,note_on,48,3276,64,0
3417,744.000000,pitchwheel,48,3276,64,0
3418,744.000000,note_off,48,3276,64,320
3419,744.666667,note_on,52,2866,64,0
3420,744.666667,pitchwheel,52,2866,64,0
3421,744.666667,note_off,52,2866,64,160
3422,745.000000,note_on,59,2047,64,0
3423,745.000000,pitchwheel,59,2047,64,0
3424,745.000000,note_off,59,2047,64,160
3425,745.333333,note_on,53,0,64,0
3426,745.333333,note_off,53,0,64,320
3427,746.000000,note_on,50,1228,64,0
3428,746.000000,pitchwheel,50,1228,64,0
3429,746.000000,note_off,50,1228,64,320
3430,746.666667,note_on,52,0,64,0
3431,746.666667,note_off,52,0,64,160
3432,747.000000,note_on,47,3276,64,0
3433,747.000000,pitchwheel,47,3276,64,0
3434,747.000000,note_off,47,3276,64,160
3435,747.333333,note_on,52,1638,64,0
3436,747.333333,pitchwheel,52,1638,64,0
3437,747.333333,note_off,52,1638,64,320
3438,748.000000,note_on,53,0,64,0
3439,748.000000,note_off,53,0,64,320
3440,748.666667,note_on,47,3276,64,0
3441,748.666667,pitchwheel,47,3276,64,0
3442,748.666667,note_off,47,3276,64,160
3443,749.000000,note_on,50,3685,64,0
3444,749.000000,pitchwheel,50,3685,64,0
3445,749.000000,note_off,50,3685,64,160
3446,749.333333,note_on,48,2047,64,0
3447,749.333333,pitchwheel,48,2047,64,0
3448,749.333333,note_off,48,2047,64,320
3449,750.000000,note_on,47,3276,64,0
3450,750.000000,pitchwheel,47,3276,64,0
3451,750.000000,note_off,47,3276,64,320
3452,750.666667,note_on,46,0,64,0
3453,750.666667,note_off,46,0,64,160
3454,751.000000,note_on,50,0,64,0
3455,751.000000,note_off,50,0,64,480
3456,752.000000,note_on,48,3276,64,0
3457,752.000000,pitchwheel,48,3276,64,0
3458,752.000000,note_off,48,3276,64,480
3459,753.000000,note_on,50,2457,64,0
3460,753.000000,pitchwheel,50,2457,64,0
3461,753.000000,note_off,50,2457,64,160
3462,753.333333,note_on,52,0,64,0
3463,753.333333,note_off,52,0,64,320
3464,754.000000,note_on,50,819,64,0
3465,754.000000,pitchwheel,50,819,64,0
3466,754.000000,note_off,50,819,64,320
3467,754.666667,note_on,51,819,64,0
3468,754.666667,pitchwheel,51,819,64,0
3469,754.666667,note_off,51,819,64,160
3470,755.000000,note_on,55,409,64,0
3471,755.000000,pitchwheel,55,409,64,0
3472,755.000000,note_off,55,409,64,160
3473,755.333333,note_on,52,2866,64,0
3474,755.333333,pitchwheel,52,2866,64,0
3475,755.333333,note_off,52,2866,64,320
3476,756.000000,note_on,53,0,64,0
3477,756.000000,note_off,53,0,64,320
3478,756.666667,note_on,52,2457,64,0
3479,756.666667,pitchwheel,52,2457,64,0
3480,756.666667,note_off,52,2457,64,160
3481,757.000000,note_on,48,2047,64,0
3482,757.000000,pitchwheel,48,2047,64,0
3483,757.000000,note_off,48,2047,64,160
3484,757.333333,note_on,51,819,64,0
3485,757.333333,pitchwheel,51,819,64,0
3486,757.333333,note_off,51,819,64,320
3487,758.000000,note_on,48,819,64,0
3488,758.000000,pitchwheel,48,819,64,0
3489,758.000000,note_off,48,819,64,480
3490,759.333333,note_on,52,2457,64,0
3491,759.333333,pitchwheel,52,2457,64,0
3492,759.333333,note_off,52,2457,64,320
3493,760.000000,note_on,53,2457,64,0
3494,760.000000,pitchwheel,53,2457,64,0
3495,760.000000,note_off,53,2457,64,640
3496,761.333333,note_on,52,2457,64,0
3497,761.333333,pitchwheel,52,2457,64,0
3498,761.333333,note_off,52,2457,64,320
3499,762.000000,note_on,57,2047,64,0
3500,762.000000,pitchwheel,57,2047,64,0
3501,762.000000,note_off,57,2047,64,480
3502,763.000000,note_on,50,819,64,0
3503,763.000000,pitchwheel,50,819,64,0
3504,763.000000,note_off,50,819,64,160
3505,763.333333,note_on,44,2047,64,0
3506,763.333333,pitchwheel,44,2047,64,0
3507,763.333333,note_off,44,2047,64,320
3508,764.000000,note_on,47,3685,64,0
3509,764.000000,pitchwheel,47,3685,64,0
3510,764.000000,note_off,47,3685,64,320
3511,764.666667,note_on,43,0,64,0
3512,764.666667,note_off,43,0,64,160
3513,765.000000,note_on,41,0,64,0
3514,765.000000,note_off,41,0,64,160
3515,765.333333,note_on,44,0,64,0
3516,765.333333,note_off,44,0,64,320
3517,766.000000,note_on,45,2047,64,0
3518,766.000000,pitchwheel,45,2047,64,0
3519,766.000000,note_off,45,2047,64,320
3520,766.666667,note_on,50,819,64,0
3521,766.666667,pitchwheel,50,819,64,0
3522,766.666667,note_off,50,819,64,320
3523,767.333333,note_on,47,3685,64,0
3524,767.333333,pitchwheel,47,3685,64,0
3525,767.333333,note_off,47,3685,64,320
3526,768.000000,note_on,44,0,64,0
3527,768.000000,note_off,44,0,64,320
3528,768.666667,note_on,50,0,64,0
3529,768.666667,note_off,50,0,64,320
3530,769.333333,note_on,45,0,64,0
3531,769.333333,note_off,45,0,64,320
3532,770.000000,note_on,45,1638,64,0
3533,770.000000,pitchwheel,45,1638,64,0
3534,770.000000,note_off,45,1638,64,320
3535,770.666667,note_on,46,1638,64,0
3536,770.666667,pitchwheel,46,1638,64,0
3537,770.666667,note_off,46,1638,64,160
3538,771.000000,note_on,47,3276,64,0
3539,771.000000,pitchwheel,47,3276,64,0
3540,771.000000,note_off,47,3276,64,160
3541,771.333333,note_on,47,3685,64,0
3542,771.333333,pitchwheel,47,3685,64,0
3543,771.333333,note_off,47,3685,64,320
3544,772.000000,note_on,48,819,64,0
3545,772.000000,pitchwheel,48,819,64,0
3546,772.000000,note_off,48,819,64,480
3547,773.000000,note_on,53,1228,64,0
3548,773.000000,pitchwheel,53,1228,64,0
3549,773.000000,note_off,53,1228,64,160
3550,773.333333,note_on,48,3276,64,0
3551,773.333333,pitchwheel,48,3276,64,0
3552,773.333333,note_off,48,3276,64,320
3553,774.000000,note_on,53,0,64,0
3554,774.000000,note_off,53,0,64,480
3555,775.000000,note_on,57,1638,64,0
3556,775.000000,pitchwheel,57,1638,64,0
3557,775.000000,note_off,57,1638,64,480
3558,776.000000,note_on,57,2047,64,0
3559,776.000000,pitchwheel,57,2047,64,0
3560,776.000000,note_off,57,2047,64,320
3561,776.666667,note_on,50,2457,64,0
3562,776.666667,pitchwheel,50,2457,64,0
3563,776.666667,note_off,50,2457,64,160
3564,777.000000,note_on,57,0,64,0
3565,777.000000,note_off,57,0,64,160
3566,777.333333,note_on,58,409,64,0
3567,777.333333,pitchwheel,58,409,64,0
3568,777.333333,note_off,58,409,64,320
3569,778.000000,note_on,55,409,64,0
3570,778.000000,pitchwheel,55,409,64,0
3571,778.000000,note_off,55,409,64,480
3572,779.000000,note_on,57,1638,64,0
3573,779.000000,pitchwheel,57,1638,64,0
3574,779.000000,note_off,57,1638,64,480
3575,780.000000,note_on,58,1638,64,0
3576,780.000000,pitchwheel,58,1638,64,0
3577,780.000000,note_off,58,1638,64,320
3578,780.666667,note_on,59,3276,64,0
3579,780.666667,pitchwheel,59,3276,64,0
3580,780.666667,note_off,59,3276,64,320
3581,781.333333,note_on,57,3276,64,0
3582,781.333333,pitchwheel,57,3276,64,0
3583,781.333333,note_off,57,3276,64,320
3584,782.000000,note_on,53,0,64,0
3585,782.000000,note_off,53,0,64,320
3586,782.666667,note_on,57,1638,64,0
3587,782.666667,pitchwheel,57,1638,64,0
3588,782.666667,note_off,57,1638,64,160
3589,783.000000,note_on,55,1638,64,0
3590,783.000000,pitchwheel,55,1638,64,0
3591,783.000000,note_off,55,1638,64,160
3592,783.333333,note_on,55,0,64,0
3593,783.333333,note_off,55,0,64,320
3594,784.000000,note_on,58,1638,64,0
3595,784.000000,pitchwheel,58,1638,64,0
3596,784.000000,note_off,58,1638,64,320
3597,784.666667,note_on,57,0,64,0
3598,784.666667,note_off,57,0,64,160
3599,785.000000,note_on,48,2047,64,0
3600,785.000000,pitchwheel,48,2047,64,0
3601,785.000000,note_off,48,2047,64,160
3602,785.333333,note_on,48,819,64,0
3603,785.333333,pitchwheel,48,819,64,0
3604,785.333333,note_off,48,819,64,320
3605,786.000000,note_on,50,819,64,0
3606,786.000000,pitchwheel,50,819,64,0
3607,786.000000,note_off,50,819,64,320
3608,786.666667,note_on,51,819,64,0
3609,786.666667,pitchwheel,51,819,64,0
3610,786.666667,note_off,51,819,64,160
3611,787.000000,note_on,55,0,64,0
3612,787.000000,note_off,55,0,64,480
3613,788.000000,note_on,48,3276,64,0
3614,788.000000,pitchwheel,48,3276,64,0
3615,788.000000,note_off,48,3276,64,320
3616,788.666667,note_on,59,2457,64,0
3617,788.666667,pitchwheel,59,2457,64,0
3618,788.666667,note_off,59,2457,64,160
3619,789.000000,note_on,48,2047,64,0
3620,789.000000,pitchwheel,48,2047,64,0
3621,789.000000,note_off,48,2047,64,160
3622,789.333333,note_on,57,2047,64,0
3623,789.333333,pitchwheel,57,2047,64,0
3624,789.333333,note_off,57,2047,64,320
3625,790.000000,note_on,55,0,64,0
3626,790.000000,note_off,55,0,64,320
3627,790.666667,note_on,50,2457,64,0
3628,790.666667,pitchwheel,50,2457,64,0
3629,790.666667,note_off,50,2457,64,160
3630,791.000000,note_on,53,0,64,0
3631,791.000000,note_off,53,0,64,160
3632,791.333333,note_on,52,2457,64,0
3633,791.333333,pitchwheel,52,2457,64,0
3634,791.333333,note_off,52,2457,64,320
3635,792.000000,note_on,48,3276,64,0
3636,792.000000,pitchwheel,48,3276,64,0
3637,792.000000,note_off,48,3276,64,320
3638,792.666667,note_on,48,819,64,0
3639,792.666667,pitchwheel,48,819,64,0
3640,792.666667,note_off,48,819,64,160
3641,793.000000,note_on,50,3685,64,0
3642,793.000000,pitchwheel,50,3685,64,0
3643,793.000000,note_off,50,3685,64,160
3644,793.333333,note_on,47,3276,64,0
3645,793.333333,pitchwheel,47,3276,64,0
3646,793.333333,note_off,47,3276,64,320
3647,794.000000,note_on,45,2047,64,0
3648,794.000000,pitchwheel,45,2047,64,0
3649,794.000000,note_off,45,2047,64,320
3650,794.666667,note_on,50,3685,64,0
3651,794.666667,pitchwheel,50,3685,64,0
3652,794.666667,note_off,50,3685,64,160
3653,795.000000,note_on,52,2457,64,0
3654,795.000000,pitchwheel,52,2457,64,0
3655,795.000000,note_off,52,2457,64,160
3656,795.333333,note_on,50,2457,64,0
3657,795.333333,pitchwheel,50,2457,64,0
3658,795.333333,note_off,50,2457,64,320
3659,796.000000,note_on,45,3276,64,0
3660,796.000000,pitchwheel,45,3276,64,0
3661,796.000000,note_off,45,3276,64,320
3662,796.666667,note_on,43,0,64,0
3663,796.666667,note_off,43,0,64,160
3664,797.000000,note_on,46,409,64,0
3665,797.000000,pitchwheel,46,409,64,0
3666,797.000000,note_off,46,409,64,160
3667,797.333333,note_on,45,2047,64,0
3668,797.333333,pitchwheel,45,2047,64,0
3669,797.333333,note_off,45,2047,64,320
3670,798.000000,note_on,45,3276,64,0
3671,798.000000,pitchwheel,45,3276,64,0
3672,798.000000,note_off,45,3276,64,320
3673,798.666667,note_on,45,2047,64,0
3674,798.666667,pitchwheel,45,2047,64,0
3675,798.666667,note_off,45,2047,64,320
3676,800.000000,note_on,44,2047,64,0
3677,800.000000,pitchwheel,44,2047,64,0
3678,800.000000,note_off,44,2047,64,320
3679,800.666667,note_on,41,0,64,0
3680,800.666667,note_off,41,0,64,320
3681,801.333333,note_on,38,2457,64,0
3682,801.333333,pitchwheel,38,2457,64,0
3683,801.333333,note_off,38,2457,64,320
3684,802.000000,note_on,40,1638,64,0
3685,802.000000,pitchwheel,40,1638,64,0
3686,802.000000,note_off,40,1638,64,320
3687,802.666667,note_on,44,0,64,0
3688,802.666667,note_off,44,0,64,160
3689,803.000000,note_on,38,819,64,0
3690,803.000000,pitchwheel,38,819,64,0
3691,803.000000,note_off,38,819,64,160
3692,803.333333,note_on,41,0,64,0
3693,803.333333,note_off,41,0,64,320
3694,804.000000,note_on,44,0,64,0
3695,804.000000,note_off,44,0,64,480
3696,805.000000,note_on,40,1638,64,0
3697,805.000000,pitchwheel,40,1638,64,0
3698,805.000000,note_off,40,1638,64,160
3699,805.333333,note_on,44,0,64,0
3700,805.333333,note_off,44,0,64,320
3701,806.000000,note_on,46,0,64,0
3702,806.000000,note_off,46,0,64,320
3703,806.666667,note_on,40,0,64,0
3704,806.666667,note_off,40,0,64,320
3705,807.333333,note_on,47,3276,64,0
3706,807.333333,pitchwheel,47,3276,64,0
3707,807.333333,note_off,47,3276,64,320
3708,808.000000,note_on,46,1638,64,0
3709,808.000000,pitchwheel,46,1638,64,0
3710,808.000000,note_off,46,1638,64,320
3711,808.666667,note_on,41,0,64,0
3712,808.666667,note_off,41,0,64,320
3713,809.333333,note_on,40,2866,64,0
3714,809.333333,pitchwheel,40,2866,64,0
3715,809.333333,note_off,40,2866,64,320
3716,810.000000,note_on,41,0,64,0
3717,810.000000,note_off,41,0,64,320
3718,810.666667,note_on,38,0,64,0
3719,810.666667,note_off,38,0,64,160
3720,811.000000,note_on,47,3276,64,0
3721,811.000000,pitchwheel,47,3276,64,0
3722,811.000000,note_off,47,3276,64,160
3723,811.333333,note_on,45,0,64,0
3724,811.333333,note_off,45,0,64,320
3725,812.000000,note_on,46,1638,64,0
3726,812.000000,pitchwheel,46,1638,64,0
3727,812.000000,note_off,46,1638,64,320
3728,812.666667,note_on,38,819,64,0
3729,812.666667,pitchwheel,38,819,64,0
3730,812.666667,note_off,38,819,64,160
3731,813.000000,note_on,36,2047,64,0
3732,813.000000,pitchwheel,36,2047,64,0
3733,813.000000,note_off,36,2047,64,160
3734,813.333333,note_on,36,3276,64,0
3735,813.333333,pitchwheel,36,3276,64,0
3736,813.333333,note_off,36,3276,64,320
3737,814.000000,note_on,36,819,64,0
3738,814.000000,pitchwheel,36,819,64,0
3739,814.000000,note_off,36,819,64,320
3740,814.666667,note_on,38,1228,64,0
3741,814.666667,pitchwheel,38,1228,64,0
3742,814.666667,note_off,38,1228,64,160
3743,815.000000,note_on,45,1638,64,0
3744,815.000000,pitchwheel,45,1638,64,0
3745,815.000000,note_off,45,1638,64,160
3746,815.333333,note_on,47,2457,64,0
3747,815.333333,pitchwheel,47,2457,64,0
3748,815.333333,note_off,47,2457,64,320
3749,816.000000,note_on,46,1638,64,0
3750,816.000000,pitchwheel,46,1638,64,0
3751,816.000000,note_off,46,1638,64,320
3752,816.666667,note_on,37,0,64,0
3753,816.666667,note_off,37,0,64,160
3754,817.000000,note_on,45,0,64,0
3755,817.000000,note_off,45,0,64,160
3756,817.333333,note_on,36,819,64,0
3757,817.333333,pitchwheel,36,819,64,0
3758,817.333333,note_off,36,819,64,320
3759,818.000000,note_on,40,2457,64,0
3760,818.000000,pitchwheel,40,2457,64,0
3761,818.000000,note_off,40,2457,64,320
3762,818.666667,note_on,39,819,64,0
3763,818.666667,pitchwheel,39,819,64,0
3764,818.666667,note_off,39,819,64,160
3765,819.000000,note_on,45,1638,64,0
3766,819.000000,pitchwheel,45,1638,64,0
3767,819.000000,note_off,45,1638,64,160
3768,819.333333,note_on,36,819,64,0
3769,819.333333,pitchwheel,36,819,64,0
3770,819.333333,note_off,36,819,64,320
3771,820.000000,note_on,44,0,64,0
3772,820.000000,note_off,44,0,64,320
3773,820.666667,note_on,38,0,64,0
3774,820.666667,note_off,38,0,64,320
3775,821.333333,note_on,47,2457,64,0
3776,821.333333,pitchwheel,47,2457,64,0
3777,821.333333,note_off,47,2457,64,320
3778,822.000000,note_on,43,0,64,0
3779,822.000000,note_off,43,0,64,320
3780,822.666667,note_on,45,0,64,0
3781,822.666667,note_off,45,0,64,160
3782,823.000000,note_on,46,409,64,0
3783,823.000000,pitchwheel,46,409,64,0
3784,823.000000,note_off,46,409,64,160
3785,823.333333,note_on,43,0,64,0
3786,823.333333,note_off,43,0,64,320
3787,824.000000,note_on,41,0,64,0
3788,824.000000,note_off,41,0,64,320
3789,824.666667,note_on,45,3276,64,0
3790,824.666667,pitchwheel,45,3276,64,0
3791,824.666667,note_off,45,3276,64,160
3792,825.000000,note_on,47,2047,64,0
3793,825.000000,pitchwheel,47,2047,64,0
3794,825.000000,note_off,47,2047,64,160
3795,825.333333,note_on,45,2047,64,0
3796,825.333333,pitchwheel,45,2047,64,0
3797,825.333333,note_off,45,2047,64,320
3798,826.000000,note_on,41,1228,64,0
3799,826.000000,pitchwheel,41,1228,64,0
3800,826.000000,note_off,41,1228,64,320
3801,826.666667,note_on,45,1638,64,0
3802,826.666667,pitchwheel,45,1638,64,0
3803,826.666667,note_off,45,1638,64,160
3804,827.000000,note_on,43,0,64,0
3805,827.000000,note_off,43,0,64,160
3806,827.333333,note_on,36,2047,64,0
3807,827.333333,pitchwheel,36,2047,64,0
3808,827.333333,note_off,36,2047,64,320
3809,828.000000,note_on,41,0,64,0
3810,828.000000,note_off,41,0,64,320
3811,828.666667,note_on,38,819,64,0
3812,828.666667,pitchwheel,38,819,64,0
3813,828.666667,note_off,38,819,64,160
3814,829.000000,note_on,43,2866,64,0
3815,829.000000,pitchwheel,43,2866,64,0
3816,829.000000,note_off,43,2866,64,160
3817,829.333333,note_on,41,2457,64,0
3818,829.333333,pitchwheel,41,2457,64,0
3819,829.333333,note_off,41,2457,64,320
3820,830.000000,note_on,46,0,64,0
3821,830.000000,note_off,46,0,64,480
3822,831.000000,note_on,48,2047,64,0
3823,831.000000,pitchwheel,48,2047,64,0
3824,831.000000,note_off,48,2047,64,480
3825,832.000000,note_on,46,1638,64,0
3826,832.000000,pitchwheel,46,1638,64,0
3827,832.000000,note_off,46,1638,64,480
3828,833.000000,note_on,50,2457,64,0
3829,833.000000,pitchwheel,50,2457,64,0
3830,833.000000,note_off,50,2457,64,160
3831,833.333333,note_on,47,2047,64,0
3832,833.333333,pitchwheel,47,2047,64,0
3833,833.333333,note_off,47,2047,64,320
3834,834.000000,note_on,45,0,64,0
3835,834.000000,note_off,45,0,64,320
3836,834.666667,note_on,39,819,64,0
3837,834.666667,pitchwheel,39,819,64,0
3838,834.666667,note_off,39,819,64,160
3839,835.000000,note_on,40,2457,64,0
3840,835.000000,pitchwheel,40,2457,64,0
3841,835.000000,note_off,40,2457,64,160
3842,835.333333,note_on,41,0,64,0
3843,835.333333,note_off,41,0,64,320
3844,836.000000,note_on,41,1228,64,0
3845,836.000000,pitchwheel,41,1228,64,0
3846,836.000000,note_off,41,1228,64,320
3847,836.666667,note_on,40,2457,64,0
3848,836.666667,pitchwheel,40,2457,64,0
3849,836.666667,note_off,40,2457,64,160
3850,837.000000,note_on,41,1228,64,0
3851,837.000000,pitchwheel,41,1228,64,0
3852,837.000000,note_off,41,1228,64,160
3853,837.333333,note_on,39,819,64,0
3854,837.333333,pitchwheel,39,819,64,0
3855,837.333333,note_off,39,819,64,320
3856,838.000000,note_on,45,0,64,0
3857,838.000000,note_off,45,0,64,320
3858,838.666667,note_on,43,1638,64,0
3859,838.666667,pitchwheel,43,1638,64,0
3860,838.666667,note_off,43,1638,64,320
3861,839.333333,note_on,43,0,64,0
3862,839.333333,note_off,43,0,64,320
3863,840.000000,note_on,43,1638,64,0
3864,840.000000,pitchwheel,43,1638,64,0
3865,840.000000,note_off,43,1638,64,480
3866,841.000000,note_on,38,2457,64,0
3867,841.000000,pitchwheel,38,2457,64,0
3868,841.000000,note_off,38,2457,64,160
3869,841.333333,note_on,43,409,64,0
3870,841.333333,pitchwheel,43,409,64,0
3871,841.333333,note_off,43,409,64,320
3872,842.000000,note_on,43,1638,64,0
3873,842.000000,pitchwheel,43,1638,64,0
3874,842.000000,note_off,43,1638,64,320
3875,842.666667,note_on,48,819,64,0
3876,842.666667,pitchwheel,48,819,64,0
3877,842.666667,note_off,48,819,64,160
3878,843.000000,note_on,45,1638,64,0
3879,843.000000,pitchwheel,45,1638,64,0
3880,843.000000,note_off,45,1638,64,480
3881,844.000000,note_on,47,3276,64,0
3882,844.000000,pitchwheel,47,3276,64,0
3883,844.000000,note_off,47,3276,64,320
3884,844.666667,note_on,45,1638,64,0
3885,844.666667,pitchwheel,45,1638,64,0
3886,844.666667,note_off,45,1638,64,320
3887,845.333333,note_on,46,1638,64,0
3888,845.333333,pitchwheel,46,1638,64,0
3889,845.333333,note_off,46,1638,64,320
3890,846.000000,note_on,45,3276,64,0
3891,846.000000,pitchwheel,45,3276,64,0
3892,846.000000,note_off,45,3276,64,320
3893,846.666667,note_on,47,3276,64,0
3894,846.666667,pitchwheel,47,3276,64,0
3895,846.666667,note_off,47,3276,64,320
3896,847.333333,note_on,53,0,64,0
3897,847.333333,note_off,53,0,64,320
3898,848.000000,note_on,50,1228,64,0
3899,848.000000,pitchwheel,50,1228,64,0
3900,848.000000,note_off,50,1228,64,320
3901,848.666667,note_on,50,3685,64,0
3902,848.666667,pitchwheel,50,3685,64,0
3903,848.666667,note_off,50,3685,64,320
3904,849.333333,note_on,53,0,64,0
3905,849.333333,note_off,53,0,64,320
3906,850.000000,note_on,47,3276,64,0
3907,850.000000,pitchwheel,47,3276,64,0
3908,850.000000,note_off,47,3276,64,320
3909,850.666667,note_on,44,0,64,0
3910,850.666667,note_off,44,0,64,160
3911,851.000000,note_on,47,3276,64,0
3912,851.000000,pitchwheel,47,3276,64,0
3913,851.000000,note_off,47,3276,64,160
3914,851.333333,note_on,48,819,64,0
3915,851.333333,pitchwheel,48,819,64,0
3916,851.333333,note_off,48,819,64,320
3917,852.000000,note_on,48,2047,64,0
3918,852.000000,pitchwheel,48,2047,64,0
3919,852.000000,note_off,48,2047,64,480
3920,853.000000,note_on,53,0,64,0
3921,853.000000,note_off,53,0,64,160
3922,853.333333,note_on,47,2047,64,0
3923,853.333333,pitchwheel,47,2047,64,0
3924,853.333333,note_off,47,2047,64,320
3925,854.000000,note_on,53,0,64,0
3926,854.000000,note_off,53,0,64,320
3927,854.666667,note_on,52,1638,64,0
3928,854.666667,pitchwheel,52,1638,64,0
3929,854.666667,note_off,52,1638,64,160
3930,855.000000,note_on,47,3276,64,0
3931,855.000000,pitchwheel,47,3276,64,0
3932,855.000000,note_off,47,3276,64,480
3933,856.000000,note_on,47,3685,64,0
3934,856.000000,pitchwheel,47,3685,64,0
3935,856.000000,note_off,47,3685,64,320
3936,856.666667,note_on,45,0,64,0
3937,856.666667,note_off,45,0,64,320
3938,857.333333,note_on,46,0,64,0
3939,857.333333,note_off,46,0,64,320
3940,858.000000,note_on,48,2047,64,0
3941,858.000000,pitchwheel,48,2047,64,0
3942,858.000000,note_off,48,2047,64,320
3943,858.666667,note_on,53,2457,64,0
3944,858.666667,pitchwheel,53,2457,64,0
3945,858.666667,note_off,53,2457,64,160
3946,859.000000,note_on,50,819,64,0
3947,859.000000,pitchwheel,50,819,64,0
3948,859.000000,note_off,50,819,64,480
3949,860.000000,note_on,48,3276,64,0
3950,860.000000,pitchwheel,48,3276,64,0
3951,860.000000,note_off,48,3276,64,320
3952,860.666667,note_on,50,819,64,0
3953,860.666667,pitchwheel,50,819,64,0
3954,860.666667,note_off,50,819,64,320
3955,861.333333,note_on,53,2457,64,0
3956,861.333333,pitchwheel,53,2457,64,0
3957,861.333333,note_off,53,2457,64,320
3958,862.000000,note_on,57,3276,64,0
3959,862.000000,pitchwheel,57,3276,64,0
3960,862.000000,note_off,57,3276,64,320
3961,862.666667,note_on,57,2047,64,0
3962,862.666667,pitchwheel,57,2047,64,0
3963,862.666667,note_off,57,2047,64,320
3964,863.333333,note_on,55,0,64,0
3965,863.333333,note_off,55,0,64,320
3966,864.000000,note_on,56,0,64,0
3967,864.000000,note_off,56,0,64,320
3968,864.666667,note_on,57,0,64,0
3969,864.666667,note_off,57,0,64,320
3970,866.000000,note_on,52,2457,64,0
3971,866.000000,pitchwheel,52,2457,64,0
3972,866.000000,note_off,52,2457,64,320
3973,866.666667,note_on,49,0,64,0
3974,866.666667,note_off,49,0,64,160
3975,867.000000,note_on,52,2457,64,0
3976,867.000000,pitchwheel,52,2457,64,0
3977,867.000000,note_off,52,2457,64,480
3978,868.000000,note_on,57,1638,64,0
3979,868.000000,pitchwheel,57,1638,64,0
3980,868.000000,note_off,57,1638,64,320
3981,868.666667,note_on,58,409,64,0
3982,868.666667,pitchwheel,58,409,64,0
3983,868.666667,note_off,58,409,64,160
3984,869.000000,note_on,57,3276,64,0
3985,869.000000,pitchwheel,57,3276,64,0
3986,869.000000,note_off,57,3276,64,160
3987,869.333333,note_on,58,0,64,0
3988,869.333333,note_off,58,0,64,320
3989,870.000000,note_on,59,2047,64,0
3990,870.000000,pitchwheel,59,2047,64,0
3991,870.000000,note_off,59,2047,64,320
3992,870.666667,note_on,48,819,64,0
3993,870.666667,pitchwheel,48,819,64,0
3994,870.666667,note_off,48,819,64,160
3995,871.000000,note_on,55,409,64,0
3996,871.000000,pitchwheel,55,409,64,0
3997,871.000000,note_off,55,409,64,160
3998,871.333333,note_on,55,0,64,0
3999,871.333333,note_off,55,0,64,320
4000,872.000000,note_on,58,1638,64,0
4001,872.000000,pitchwheel,58,1638,64,0
4002,872.000000,note_off,58,1638,64,320
4003,872.666667,note_on,53,0,64,0
4004,872.666667,note_off,53,0,64,320
4005,873.333333,note_on,57,2047,64,0
4006,873.333333,pitchwheel,57,2047,64,0
4007,873.333333,note_off,57,2047,64,320
4008,874.000000,note_on,58,409,64,0
4009,874.000000,pitchwheel,58,409,64,0
4010,874.000000,note_off,58,409,64,320
4011,874.666667,note_on,56,0,64,0
4012,874.666667,note_off,56,0,64,160
4013,875.000000,note_on,55,0,64,0
4014,875.000000,note_off,55,0,64,160
4015,875.333333,note_on,50,2457,64,0
4016,875.333333,pitchwheel,50,2457,64,0
4017,875.333333,note_off,50,2457,64,320
4018,876.000000,note_on,56,0,64,0
4019,876.000000,note_off,56,0,64,320
4020,876.666667,note_on,57,1638,64,0
4021,876.666667,pitchwheel,57,1638,64,0
4022,876.666667,note_off,57,1638,64,160
4023,877.000000,note_on,48,819,64,0
4024,877.000000,pitchwheel,48,819,64,0
4025,877.000000,note_off,48,819,64,160
4026,877.333333,note_on,48,3276,64,0
4027,877.333333,pitchwheel,48,3276,64,0
4028,877.333333,note_off,48,3276,64,320
4029,878.000000,note_on,50,2457,64,0
4030,878.000000,pitchwheel,50,2457,64,0
4031,878.000000,note_off,50,2457,64,320
4032,878.666667,note_on,50,1228,64,0
4033,878.666667,pitchwheel,50,1228,64,0
4034,878.666667,note_off,50,1228,64,320
4035,880.000000,note_on,50,2457,64,0
4036,880.000000,pitchwheel,50,2457,64,0
4037,880.000000,note_off,50,2457,64,480
4038,881.000000,note_on,52,1638,64,0
4039,881.000000,pitchwheel,52,1638,64,0
4040,881.000000,note_off,52,1638,64,480
4041,882.000000,note_on,53,0,64,0
4042,882.000000,note_off,53,0,64,320
4043,882.666667,note_on,48,3276,64,0
4044,882.666667,pitchwheel,48,3276,64,0
4045,882.666667,note_off,48,3276,64,160
4046,883.000000,note_on,52,2457,64,0
4047,883.000000,pitchwheel,52,2457,64,0
4048,883.000000,note_off,52,2457,64,160
4049,883.333333,note_on,52,0,64,0
4050,883.333333,note_off,52,0,64,320
4051,884.000000,note_on,51,819,64,0
4052,884.000000,pitchwheel,51,819,64,0
4053,884.000000,note_off,51,819,64,480
4054,885.000000,note_on,57,0,64,0
4055,885.000000,note_off,57,0,64,160
4056,885.333333,note_on,58,0,64,0
4057,885.333333,note_off,58,0,64,640
4058,886.666667,note_on,59,2047,64,0
4059,886.666667,pitchwheel,59,2047,64,0
4060,886.666667,note_off,59,2047,64,320
4061,887.333333,note_on,52,2457,64,0
4062,887.333333,pitchwheel,52,2457,64,0
4063,887.333333,note_off,52,2457,64,320
4064,888.000000,note_on,51,819,64,0
4065,888.000000,pitchwheel,51,819,64,0
4066,888.000000,note_off,51,819,64,320
4067,888.666667,note_on,53,1228,64,0
4068,888.666667,pitchwheel,53,1228,64,0
4069,888.666667,note_off,53,1228,64,320
4070,889.333333,note_on,53,0,64,0
4071,889.333333,note_off,53,0,64,320
4072,890.000000,note_on,57,1638,64,0
4073,890.000000,pitchwheel,57,1638,64,0
4074,890.000000,note_off,57,1638,64,320
4075,890.666667,note_on,58,409,64,0
4076,890.666667,pitchwheel,58,409,64,0
4077,890.666667,note_off,58,409,64,160
4078,891.000000,note_on,55,0,64,0
4079,891.000000,note_off,55,0,64,160
4080,891.333333,note_on,57,0,64,0
4081,891.333333,note_off,57,0,64,320
4082,892.000000,note_on,58,0,64,0
4083,892.000000,note_off,58,0,64,320
4084,892.666667,note_on,50,819,64,0
4085,892.666667,pitchwheel,50,819,64,0
4086,892.666667,note_off,50,819,64,160
4087,893.000000,note_on,57,3276,64,0
4088,893.000000,pitchwheel,57,3276,64,0
4089,893.000000,note_off,57,3276,64,480
4090,894.000000,note_on,57,2047,64,0
4091,894.000000,pitchwheel,57,2047,64,0
4092,894.000000,note_off,57,2047,64,320
4093,894.666667,note_on,50,2457,64,0
4094,894.666667,pitchwheel,50,2457,64,0
4095,894.666667,note_off,50,2457,64,160
4096,895.000000,note_on,50,819,64,0
4097,895.000000,pitchwheel,50,819,64,0
4098,895.000000,note_off,50,819,64,160
4099,895.333333,note_on,57,2047,64,0
4100,895.333333,pitchwheel,57,2047,64,0
4101,895.333333,note_off,57,2047,64,320
4102,896.000000,note_on,56,0,64,0
4103,896.000000,note_off,56,0,64,320
4104,896.666667,note_on,56,2047,64,0
4105,896.666667,pitchwheel,56,2047,64,0
4106,896.666667,note_off,56,2047,64,160
4107,897.000000,note_on,57,0,64,0
4108,897.000000,note_off,57,0,64,160
4109,897.333333,note_on,50,0,64,0
4110,897.333333,note_off,50,0,64,320
4111,898.000000,note_on,59,3276,64,0
4112,898.000000,pitchwheel,59,3276,64,0
4113,898.000000,note_off,59,3276,64,320
4114,898.666667,note_on,57,0,64,0
4115,898.666667,note_off,57,0,64,160
4116,899.000000,note_on,57,1638,64,0
4117,899.000000,pitchwheel,57,1638,64,0
4118,899.000000,note_off,57,1638,64,160
4119,899.333333,note_on,48,2047,64,0
4120,899.333333,pitchwheel,48,2047,64,0
4121,899.333333,note_off,48,2047,64,320
4122,900.000000,note_on,52,2457,64,0
4123,900.000000,pitchwheel,52,2457,64,0
4124,900.000000,note_off,52,2457,64,320
4125,900.666667,note_on,55,409,64,0
4126,900.666667,pitchwheel,55,409,64,0
4127,900.666667,note_off,55,409,64,320
4128,901.333333,note_on,56,0,64,0
4129,901.333333,note_off,56,0,64,320
4130,902.000000,note_on,55,409,64,0
4131,902.000000,pitchwheel,55,409,64,0
4132,902.000000,note_off,55,409,64,320
4133,902.666667,note_on,55,1638,64,0
4134,902.666667,pitchwheel,55,1638,64,0
4135,902.666667,note_off,55,1638,64,160
4136,903.000000,note_on,57,2047,64,0
4137,903.000000,pitchwheel,57,2047,64,0
4138,903.000000,note_off,57,2047,64,160
4139,903.333333,note_on,57,1638,64,0
4140,903.333333,pitchwheel,57,1638,64,0
4141,903.333333,note_off,57,1638,64,320
4142,904.000000,note_on,58,1638,64,0
4143,904.000000,pitchwheel,58,1638,64,0
4144,904.000000,note_off,58,1638,64,320
4145,904.666667,note_on,58,409,64,0
4146,904.666667,pitchwheel,58,409,64,0
4147,904.666667,note_off,58,409,64,160
4148,905.000000,note_on,56,2047,64,0
4149,905.000000,pitchwheel,56,2047,64,0
4150,905.000000,note_off,56,2047,64,160
4151,905.333333,note_on,57,3276,64,0
4152,905.333333,pitchwheel,57,3276,64,0
4153,905.333333,note_off,57,3276,64,320
4154,906.000000,note_on,50,1228,64,0
4155,906.000000,pitchwheel,50,1228,64,0
4156,906.000000,note_off,50,1228,64,320
4157,906.666667,note_on,58,1638,64,0
4158,906.666667,pitchwheel,58,1638,64,0
4159,906.666667,note_off,58,1638,64,160
4160,907.000000,note_on,59,3276,64,0
4161,907.000000,pitchwheel,59,3276,64,0
4162,907.000000,note_off,59,3276,64,160
4163,907.333333,note_on,52,1638,64,0
4164,907.333333,pitchwheel,52,1638,64,0
4165,907.333333,note_off,52,1638,64,320
4166,908.000000,note_on,53,0,64,0
4167,908.000000,note_off,53,0,64,320
4168,908.666667,note_on,57,1638,64,0
4169,908.666667,pitchwheel,57,1638,64,0
4170,908.666667,note_off,57,1638,64,160
4171,909.000000,note_on,53,0,64,0
4172,909.000000,note_off,53,0,64,160
4173,909.333333,note_on,56,0,64,0
4174,909.333333,note_off,56,0,64,320
4175,910.000000,note_on,57,1638,64,0
4176,910.000000,pitchwheel,57,1638,64,0
4177,910.000000,note_off,57,1638,64,320
4178,910.666667,note_on,52,2457,64,0
4179,910.666667,pitchwheel,52,2457,64,0
4180,910.666667,note_off,52,2457,64,160
4181,911.000000,note_on,59,3685,64,0
4182,911.000000,pitchwheel,59,3685,64,0
4183,911.000000,note_off,59,3685,64,480
4184,912.000000,note_on,57,2047,64,0
4185,912.000000,pitchwheel,57,2047,64,0
4186,912.000000,note_off,57,2047,64,480
4187,913.000000,note_on,50,0,64,0
4188,913.000000,note_off,50,0,64,160
4189,913.333333,note_on,57,0,64,0
4190,913.333333,note_off,57,0,64,640
4191,914.666667,note_on,58,0,64,0
4192,914.666667,note_off,58,0,64,160
4193,915.000000,note_on,57,2047,64,0
4194,915.000000,pitchwheel,57,2047,64,0
4195,915.000000,note_off,57,2047,64,160
4196,915.333333,note_on,48,2047,64,0
4197,915.333333,pitchwheel,48,2047,64,0
4198,915.333333,note_off,48,2047,64,320
4199,916.000000,note_on,48,819,64,0
4200,916.000000,pitchwheel,48,819,64,0
4201,916.000000,note_off,48,819,64,320
4202,916.666667,note_on,59,3276,64,0
4203,916.666667,pitchwheel,59,3276,64,0
4204,916.666667,note_off,59,3276,64,160
4205,917.000000,note_on,50,2457,64,0
4206,917.000000,pitchwheel,50,2457,64,0
4207,917.000000,note_off,50,2457,64,160
4208,917.333333,note_on,55,1638,64,0
4209,917.333333,pitchwheel,55,1638,64,0
4210,917.333333,note_off,55,1638,64,320
4211,918.000000,note_on,57,0,64,0
4212,918.000000,note_off,57,0,64,480
4213,919.333333,note_on,52,2457,64,0
4214,919.333333,pitchwheel,52,2457,64,0
4215,919.333333,note_off,52,2457,64,320
4216,920.000000,note_on,51,819,64,0
4217,920.000000,pitchwheel,51,819,64,0
4218,920.000000,note_off,51,819,64,480
4219,921.000000,note_on,53,0,64,0
4220,921.000000,note_off,53,0,64,160
4221,921.333333,note_on,50,819,64,0
4222,921.333333,pitchwheel,50,819,64,0
4223,921.333333,note_off,50,819,64,320
4224,922.000000,note_on,57,2047,64,0
4225,922.000000,pitchwheel,57,2047,64,0
4226,922.000000,note_off,57,2047,64,480
4227,923.000000,note_on,59,3276,64,0
4228,923.000000,pitchwheel,59,3276,64,0
4229,923.000000,note_off,59,3276,64,160
4230,923.333333,note_on,53,0,64,0
4231,923.333333,note_off,53,0,64,320
4232,924.000000,note_on,55,2866,64,0
4233,924.000000,pitchwheel,55,2866,64,0
4234,924.000000,note_off,55,2866,64,320
4235,924.666667,note_on,50,819,64,0
4236,924.666667,pitchwheel,50,819,64,0
4237,924.666667,note_off,50,819,64,160
4238,925.000000,note_on,44,2047,64,0
4239,925.000000,pitchwheel,44,2047,64,0
4240,925.000000,note_off,44,2047,64,160
4241,925.333333,note_on,48,3276,64,0
4242,925.333333,pitchwheel,48,3276,64,0
4243,925.333333,note_off,48,3276,64,320
4244,926.000000,note_on,43,2866,64,0
4245,926.000000,pitchwheel,43,2866,64,0
4246,926.000000,note_off,43,2866,64,320
4247,926.666667,note_on,40,2457,64,0
4248,926.666667,pitchwheel,40,2457,64,0
4249,926.666667,note_off,40,2457,64,320
4250,927.333333,note_on,47,3685,64,0
4251,927.333333,pitchwheel,47,3685,64,0
4252,927.333333,note_off,47,3685,64,320
4253,928.000000,note_on,36,3276,64,0
4254,928.000000,pitchwheel,36,3276,64,0
4255,928.000000,note_off,36,3276,64,320
4256,928.666667,note_on,38,0,64,0
4257,928.666667,note_off,38,0,64,320
4258,929.333333,note_on,45,0,64,0
4259,929.333333,note_off,45,0,64,320
4260,930.000000,note_on,44,2047,64,0
4261,930.000000,pitchwheel,44,2047,64,0
4262,930.000000,note_off,44,2047,64,320
4263,930.666667,note_on,46,1638,64,0
4264,930.666667,pitchwheel,46,1638,64,0
4265,930.666667,note_off,46,1638,64,160
4266,931.000000,note_on,45,1638,64,0
4267,931.000000,pitchwheel,45,1638,64,0
4268,931.000000,note_off,45,1638,64,160
4269,931.333333,note_on,41,1228,64,0
4270,931.333333,pitchwheel,41,1228,64,0
4271,931.333333,note_off,41,1228,64,320
4272,932.000000,note_on,41,0,64,0
4273,932.000000,note_off,41,0,64,480
4274,933.000000,note_on,45,3276,64,0
4275,933.000000,pitchwheel,45,3276,64,0
4276,933.000000,note_off,45,3276,64,160
4277,933.333333,note_on,40,0,64,0
4278,933.333333,note_off,40,0,64,320
4279,934.000000,note_on,41,0,64,0
4280,934.000000,note_off,41,0,64,480
4281,935.000000,note_on,40,2457,64,0
4282,935.000000,pitchwheel,40,2457,64,0
4283,935.000000,note_off,40,2457,64,160
4284,935.333333,note_on,45,1638,64,0
4285,935.333333,pitchwheel,45,1638,64,0
4286,935.333333,note_off,45,1638,64,320
4287,936.000000,note_on,44,0,64,0
4288,936.000000,note_off,44,0,64,320
4289,936.666667,note_on,36,2047,64,0
4290,936.666667,pitchwheel,36,2047,64,0
4291,936.666667,note_off,36,2047,64,160
4292,937.000000,note_on,45,0,64,0
4293,937.000000,note_off,45,0,64,160
4294,937.333333,note_on,47,2457,64,0
4295,937.333333,pitchwheel,47,2457,64,0
4296,937.333333,note_off,47,2457,64,320
4297,938.000000,note_on,43,409,64,0
4298,938.000000,pitchwheel,43,409,64,0
4299,938.000000,note_off,43,409,64,320
4300,938.666667,note_on,43,1638,64,0
4301,938.666667,pitchwheel,43,1638,64,0
4302,938.666667,note_off,43,1638,64,160
4303,939.000000,note_on,43,0,64,0
4304,939.000000,note_off,43,0,64,480
4305,940.000000,note_on,44,2047,64,0
4306,940.000000,pitchwheel,44,2047,64,0
4307,940.000000,note_off,44,2047,64,320
4308,940.666667,note_on,43,0,64,0
4309,940.666667,note_off,43,0,64,320
4310,941.333333,note_on,46,1638,64,0
4311,941.333333,pitchwheel,46,1638,64,0
4312,941.333333,note_off,46,1638,64,320
4313,942.000000,note_on,36,2047,64,0
4314,942.000000,pitchwheel,36,2047,64,0
4315,942.000000,note_off,36,2047,64,320
4316,942.666667,note_on,36,819,64,0
4317,942.666667,pitchwheel,36,819,64,0
4318,942.666667,note_off,36,819,64,160
4319,943.000000,note_on,47,2457,64,0
4320,943.000000,pitchwheel,47,2457,64,0
4321,943.000000,note_off,47,2457,64,160
4322,943.333333,note_on,47,3276,64,0
4323,943.333333,pitchwheel,47,3276,64,0
4324,943.333333,note_off,47,3276,64,320
4325,944.000000,note_on,46,1638,64,0
4326,944.000000,pitchwheel,46,1638,64,0
4327,944.000000,note_off,46,1638,64,320
4328,944.666667,note_on,45,0,64,0
4329,944.666667,note_off,45,0,64,160
4330,945.000000,note_on,38,1228,64,0
4331,945.000000,pitchwheel,38,1228,64,0
4332,945.000000,note_off,38,1228,64,160
4333,945.333333,note_on,38,3685,64,0
4334,945.333333,pitchwheel,38,3685,64,0
4335,945.333333,note_off,38,3685,64,320
4336,946.000000,note_on,38,2457,64,0
4337,946.000000,pitchwheel,38,2457,64,0
4338,946.000000,note_off,38,2457,64,320
4339,946.666667,note_on,39,819,64,0
4340,946.666667,pitchwheel,39,819,64,0
4341,946.666667,note_off,39,819,64,160
4342,947.000000,note_on,40,2457,64,0
4343,947.000000,pitchwheel,40,2457,64,0
4344,947.000000,note_off,40,2457,64,480
4345,948.000000,note_on,38,0,64,0
4346,948.000000,note_off,38,0,64,320
4347,948.666667,note_on,47,2457,64,0
4348,948.666667,pitchwheel,47,2457,64,0
4349,948.666667,note_off,47,2457,64,160
4350,949.000000,note_on,38,2457,64,0
4351,949.000000,pitchwheel,38,2457,64,0
4352,949.000000,note_off,38,2457,64,160
4353,949.333333,note_on,46,1638,64,0
4354,949.333333,pitchwheel,46,1638,64,0
4355,949.333333,note_off,46,1638,64,320
4356,950.000000,note_on,44,2047,64,0
4357,950.000000,pitchwheel,44,2047,64,0
4358,950.000000,note_off,44,2047,64,320
4359,950.666667,note_on,38,2457,64,0
4360,950.666667,pitchwheel,38,2457,64,0
4361,950.666667,note_off,38,2457,64,160
4362,951.000000,note_on,38,0,64,0
4363,951.000000,note_off,38,0,64,160
4364,951.333333,note_on,38,819,64,0
4365,951.333333,pitchwheel,38,819,64,0
4366,951.333333,note_off,38,819,64,320
4367,952.000000,note_on,39,819,64,0
4368,952.000000,pitchwheel,39,819,64,0
4369,952.000000,note_off,39,819,64,320
4370,952.666667,note_on,43,2866,64,0
4371,952.666667,pitchwheel,43,2866,64,0
4372,952.666667,note_off,43,2866,64,160
4373,953.000000,note_on,38,2457,64,0
4374,953.000000,pitchwheel,38,2457,64,0
4375,953.000000,note_off,38,2457,64,160
4376,953.333333,note_on,43,0,64,0
4377,953.333333,note_off,43,0,64,320
4378,954.000000,note_on,45,2047,64,0
4379,954.000000,pitchwheel,45,2047,64,0
4380,954.000000,note_off,45,2047,64,320
4381,954.666667,note_on,38,819,64,0
4382,954.666667,pitchwheel,38,819,64,0
4383,954.666667,note_off,38,819,64,160
4384,955.000000,note_on,47,3685,64,0
4385,955.000000,pitchwheel,47,3685,64,0
4386,955.000000,note_off,47,3685,64,160
4387,955.333333,note_on,38,2457,64,0
4388,955.333333,pitchwheel,38,2457,64,0
4389,955.333333,note_off,38,2457,64,320
4390,956.000000,note_on,36,2047,64,0
4391,956.000000,pitchwheel,36,2047,64,0
4392,956.000000,note_off,36,2047,64,320
4393,956.666667,note_on,47,3276,64,0
4394,956.666667,pitchwheel,47,3276,64,0
4395,956.666667,note_off,47,3276,64,160
4396,957.000000,note_on,41,0,64,0
4397,957.000000,note_off,41,0,64,160
4398,957.333333,note_on,36,819,64,0
4399,957.333333,pitchwheel,36,819,64,0
4400,957.333333,note_off,36,819,64,320
4401,958.000000,note_on,41,1228,64,0
4402,958.000000,pitchwheel,41,1228,64,0
4403,958.000000,note_off,41,1228,64,320
4404,958.666667,note_on,41,0,64,0
4405,958.666667,note_off,41,0,64,320
4406,960.000000,note_on,40,0,64,0
4407,960.000000,note_off,40,0,64,320
4408,960.666667,note_on,41,0,64,0
4409,960.666667,note_off,41,0,64,640
4410,962.000000,note_on,38,819,64,0
4411,962.000000,pitchwheel,38,819,64,0
4412,962.000000,note_off,38,819,64,320
4413,962.666667,note_on,38,2457,64,0
4414,962.666667,pitchwheel,38,2457,64,0
4415,962.666667,note_off,38,2457,64,160
4416,963.000000,note_on,43,0,64,0
4417,963.000000,note_off,43,0,64,480
4418,964.000000,note_on,44,0,64,0
4419,964.000000,note_off,44,0,64,480
4420,965.000000,note_on,38,0,64,0
4421,965.000000,note_off,38,0,64,160
4422,965.333333,note_on,36,3276,64,0
4423,965.333333,pitchwheel,36,3276,64,0
4424,965.333333,note_off,36,3276,64,320
4425,966.000000,note_on,46,0,64,0
4426,966.000000,note_off,46,0,64,320
4427,966.666667,note_on,44,2047,64,0
4428,966.666667,pitchwheel,44,2047,64,0
4429,966.666667,note_off,44,2047,64,320
4430,967.333333,note_on,47,3276,64,0
4431,967.333333,pitchwheel,47,3276,64,0
4432,967.333333,note_off,47,3276,64,320
4433,968.000000,note_on,46,0,64,0
4434,968.000000,note_off,46,0,64,320
4435,968.666667,note_on,36,2047,64,0
4436,968.666667,pitchwheel,36,2047,64,0
4437,968.666667,note_off,36,2047,64,320
4438,969.333333,note_on,36,819,64,0
4439,969.333333,pitchwheel,36,819,64,0
4440,969.333333,note_off,36,819,64,320
4441,970.000000,note_on,38,819,64,0
4442,970.000000,pitchwheel,38,819,64,0
4443,970.000000,note_off,38,819,64,320
4444,970.666667,note_on,36,819,64,0
4445,970.666667,pitchwheel,36,819,64,0
4446,970.666667,note_off,36,819,64,160
4447,971.000000,note_on,45,1638,64,0
4448,971.000000,pitchwheel,45,1638,64,0
4449,971.000000,note_off,45,1638,64,160
4450,971.333333,note_on,45,0,64,0
4451,971.333333,note_off,45,0,64,320
4452,972.000000,note_on,46,0,64,0
4453,972.000000,note_off,46,0,64,320
4454,972.666667,note_on,45,1638,64,0
4455,972.666667,pitchwheel,45,1638,64,0
4456,972.666667,note_off,45,1638,64,160
4457,973.000000,note_on,45,3276,64,0
4458,973.000000,pitchwheel,45,3276,64,0
4459,973.000000,note_off,45,3276,64,160
4460,973.333333,note_on,43,0,64,0
4461,973.333333,note_off,43,0,64,320
4462,974.000000,note_on,46,409,64,0
4463,974.000000,pitchwheel,46,409,64,0
4464,974.000000,note_off,46,409,64,320
4465,974.666667,note_on,43,0,64,0
4466,974.666667,note_off,43,0,64,320
4467,975.333333,note_on,47,2457,64,0
4468,975.333333,pitchwheel,47,2457,64,0
4469,975.333333,note_off,47,2457,64,320
4470,976.000000,note_on,46,0,64,0
4471,976.000000,note_off,46,0,64,320
4472,976.666667,note_on,45,3276,64,0
4473,976.666667,pitchwheel,45,3276,64,0
4474,976.666667,note_off,45,3276,64,160
4475,977.000000,note_on,45,0,64,0
4476,977.000000,note_off,45,0,64,160
4477,977.333333,note_on,43,2866,64,0
4478,977.333333,pitchwheel,43,2866,64,0
4479,977.333333,note_off,43,2866,64,320
4480,978.000000,note_on,43,0,64,0
4481,978.000000,note_off,43,0,64,320
4482,978.666667,note_on,43,1638,64,0
4483,978.666667,pitchwheel,43,1638,64,0
4484,978.666667,note_off,43,1638,64,160
4485,979.000000,note_on,47,3276,64,0
4486,979.000000,pitchwheel,47,3276,64,0
4487,979.000000,note_off,47,3276,64,160
4488,979.333333,note_on,43,2866,64,0
4489,979.333333,pitchwheel,43,2866,64,0
4490,979.333333,note_off,43,2866,64,320
4491,980.000000,note_on,43,0,64,0
4492,980.000000,note_off,43,0,64,320
4493,980.666667,note_on,38,0,64,0
4494,980.666667,note_off,38,0,64,640
4495,982.000000,note_on,38,2457,64,0
4496,982.000000,pitchwheel,38,2457,64,0
4497,982.000000,note_off,38,2457,64,320
4498,982.666667,note_on,45,0,64,0
4499,982.666667,note_off,45,0,64,160
4500,983.000000,note_on,47,2457,64,0
4501,983.000000,pitchwheel,47,2457,64,0
4502,983.000000,note_off,47,2457,64,160
4503,983.333333,note_on,40,2457,64,0
4504,983.333333,pitchwheel,40,2457,64,0
4505,983.333333,note_off,40,2457,64,320
4506,984.000000,note_on,44,0,64,0
4507,984.000000,note_off,44,0,64,320
4508,984.666667,note_on,41,1228,64,0
4509,984.666667,pitchwheel,41,1228,64,0
4510,984.666667,note_off,41,1228,64,160
4511,985.000000,note_on,40,2866,64,0
4512,985.000000,pitchwheel,40,2866,64,0
4513,985.000000,note_off,40,2866,64,160
4514,985.333333,note_on,41,0,64,0
4515,985.333333,note_off,41,0,64,320
4516,986.000000,note_on,38,1228,64,0
4517,986.000000,pitchwheel,38,1228,64,0
4518,986.000000,note_off,38,1228,64,320
4519,986.666667,note_on,43,0,64,0
4520,986.666667,note_off,43,0,64,160
4521,987.000000,note_on,38,819,64,0
4522,987.000000,pitchwheel,38,819,64,0
4523,987.000000,note_off,38,819,64,160
4524,987.333333,note_on,36,2047,64,0
4525,987.333333,pitchwheel,36,2047,64,0
4526,987.333333,note_off,36,2047,64,320
4527,988.000000,note_on,38,2457,64,0
4528,988.000000,pitchwheel,38,2457,64,0
4529,988.000000,note_off,38,2457,64,320
4530,988.666667,note_on,43,0,64,0
4531,988.666667,note_off,43,0,64,960
4532,990.666667,note_on,46,0,64,0
4533,990.666667,note_off,46,0,64,160
4534,991.000000,note_on,50,0,64,0
4535,991.000000,note_off,50,0,64,480
4536,992.000000,note_on,48,3276,64,0
4537,992.000000,pitchwheel,48,3276,64,0
4538,992.000000,note_off,48,3276,64,480
4539,993.000000,note_on,50,2457,64,0
4540,993.000000,pitchwheel,50,2457,64,0
4541,993.000000,note_off,50,2457,64,160
4542,993.333333,note_on,47,2047,64,0
4543,993.333333,pitchwheel,47,2047,64,0
4544,993.333333,note_off,47,2047,64,320
4545,994.000000,note_on,45,0,64,0
4546,994.000000,note_off,45,0,64,320
4547,994.666667,note_on,41,2457,64,0
4548,994.666667,pitchwheel,41,2457,64,0
4549,994.666667,note_off,41,2457,64,160
4550,995.000000,note_on,40,2457,64,0
4551,995.000000,pitchwheel,40,2457,64,0
4552,995.000000,note_off,40,2457,64,160
4553,995.333333,note_on,36,819,64,0
4554,995.333333,pitchwheel,36,819,64,0
4555,995.333333,note_off,36,819,64,320
4556,996.000000,note_on,47,3685,64,0
4557,996.000000,pitchwheel,47,3685,64,0
4558,996.000000,note_off,47,3685,64,320
4559,996.666667,note_on,40,2457,64,0
4560,996.666667,pitchwheel,40,2457,64,0
4561,996.666667,note_off,40,2457,64,160
4562,997.000000,note_on,41,0,64,0
4563,997.000000,note_off,41,0,64,480
4564,998.000000,note_on,41,1228,64,0
4565,998.000000,pitchwheel,41,1228,64,0
4566,998.000000,note_off,41,1228,64,320
4567,998.666667,note_on,38,3685,64,0
4568,998.666667,pitchwheel,38,3685,64,0
4569,998.666667,note_off,38,3685,64,320
4570,999.333333,note_on,38,819,64,0
4571,999.333333,pitchwheel,38,819,64,0
4572,999.333333,note_off,38,819,64,320
4573,1000.000000,note_on,47,3276,64,0
4574,1000.000000,pitchwheel,47,3276,64,0
4575,1000.000000,note_off,47,3276,64,480
4576,1001.000000,note_on,48,2047,64,0
4577,1001.000000,pitchwheel,48,2047,64,0
4578,1001.000000,note_off,48,2047,64,160
4579,1001.333333,note_on,50,0,64,0
4580,1001.333333,note_off,50,0,64,320
4581,1002.000000,note_on,55,1638,64,0
4582,1002.000000,pitchwheel,55,1638,64,0
4583,1002.000000,note_off,55,1638,64,320
4584,1002.666667,note_on,59,2457,64,0
4585,1002.666667,pitchwheel,59,2457,64,0
4586,1002.666667,note_off,59,2457,64,160
4587,1003.000000,note_on,55,0,64,0
4588,1003.000000,note_off,55,0,64,160
4589,1003.333333,note_on,49,0,64,0
4590,1003.333333,note_off,49,0,64,320
4591,1004.000000,note_on,50,2457,64,0
4592,1004.000000,pitchwheel,50,2457,64,0
4593,1004.000000,note_off,50,2457,64,320
4594,1004.666667,note_on,47,3276,64,0
4595,1004.666667,pitchwheel,47,3276,64,0
4596,1004.666667,note_off,47,3276,64,160
4597,1005.000000,note_on,53,0,64,0
4598,1005.000000,note_off,53,0,64,160
4599,1005.333333,note_on,58,1638,64,0
4600,1005.333333,pitchwheel,58,1638,64,0
4601,1005.333333,note_off,58,1638,64,320
4602,1006.000000,note_on,55,1638,64,0
4603,1006.000000,pitchwheel,55,1638,64,0
4604,1006.000000,note_off,55,1638,64,320
4605,1006.666667,note_on,55,409,64,0
4606,1006.666667,pitchwheel,55,409,64,0
4607,1006.666667,note_off,55,409,64,320
4608,1007.333333,note_on,53,0,64,0
4609,1007.333333,note_off,53,0,64,320
4610,1008.000000,note_on,58,1638,64,0
4611,1008.000000,pitchwheel,58,1638,64,0
4612,1008.000000,note_off,58,1638,64,320
4613,1008.666667,note_on,50,3685,64,0
4614,1008.666667,pitchwheel,50,3685,64,0
4615,1008.666667,note_off,50,3685,64,320
4616,1009.333333,note_on,48,2047,64,0
4617,1009.333333,pitchwheel,48,2047,64,0
4618,1009.333333,note_off,48,2047,64,320
4619,1010.000000,note_on,57,1638,64,0
4620,1010.000000,pitchwheel,57,1638,64,0
4621,1010.000000,note_off,57,1638,64,320
4622,1010.666667,note_on,48,819,64,0
4623,1010.666667,pitchwheel,48,819,64,0
4624,1010.666667,note_off,48,819,64,160
4625,1011.000000,note_on,57,1638,64,0
4626,1011.000000,pitchwheel,57,1638,64,0
4627,1011.000000,note_off,57,1638,64,160
4628,1011.333333,note_on,53,0,64,0
4629,1011.333333,note_off,53,0,64,320
4630,1012.000000,note_on,52,2866,64,0
4631,1012.000000,pitchwheel,52,2866,64,0
4632,1012.000000,note_off,52,2866,64,480
4633,1013.000000,note_on,57,2047,64,0
4634,1013.000000,pitchwheel,57,2047,64,0
4635,1013.000000,note_off,57,2047,64,160
4636,1013.333333,note_on,51,819,64,0
4637,1013.333333,pitchwheel,51,819,64,0
4638,1013.333333,note_off,51,819,64,320
4639,1014.000000,note_on,53,0,64,0
4640,1014.000000,note_off,53,0,64,320
4641,1014.666667,note_on,48,2047,64,0
4642,1014.666667,pitchwheel,48,2047,64,0
4643,1014.666667,note_off,48,2047,64,160
4644,1015.000000,note_on,57,1638,64,0
4645,1015.000000,pitchwheel,57,1638,64,0
4646,1015.000000,note_off,57,1638,64,160
4647,1015.333333,note_on,52,2457,64,0
4648,1015.333333,pitchwheel,52,2457,64,0
4649,1015.333333,note_off,52,2457,64,320
4650,1016.000000,note_on,48,3276,64,0
4651,1016.000000,pitchwheel,48,3276,64,0
4652,1016.000000,note_off,48,3276,64,320
4653,1016.666667,note_on,47,2047,64,0
4654,1016.666667,pitchwheel,47,2047,64,0
4655,1016.666667,note_off,47,2047,64,160
4656,1017.000000,note_on,45,0,64,0
4657,1017.000000,note_off,45,0,64,160
4658,1017.333333,note_on,46,0,64,0
4659,1017.333333,note_off,46,0,64,320
4660,1018.000000,note_on,43,409,64,0
4661,1018.000000,pitchwheel,43,409,64,0
4662,1018.000000,note_off,43,409,64,320
4663,1018.666667,note_on,47,3685,64,0
4664,1018.666667,pitchwheel,47,3685,64,0
4665,1018.666667,note_off,47,3685,64,160
4666,1019.000000,note_on,47,3276,64,0
4667,1019.000000,pitchwheel,47,3276,64,0
4668,1019.000000,note_off,47,3276,64,480
4669,1020.000000,note_on,53,0,64,0
4670,1020.000000,note_off,53,0,64,320
4671,1020.666667,note_on,50,819,64,0
4672,1020.666667,pitchwheel,50,819,64,0
4673,1020.666667,note_off,50,819,64,320
4674,1021.333333,note_on,51,819,64,0
4675,1021.333333,pitchwheel,51,819,64,0
4676,1021.333333,note_off,51,819,64,320
4677,1022.000000,note_on,48,819,64,0
4678,1022.000000,pitchwheel,48,819,64,0
4679,1022.000000,note_off,48,819,64,320
4680,1022.666667,note_on,48,2047,64,0
4681,1022.666667,pitchwheel,48,2047,64,0
4682,1022.666667,note_off,48,2047,64,160
4683,1023.000000,note_on,43,1638,64,0
4684,1023.000000,pitchwheel,43,1638,64,0
4685,1023.000000,note_off,43,1638,64,160
4686,1023.333333,note_on,43,0,64,0
4687,1023.333333,note_off,43,0,64,320
4688,1024.000000,note_on,44,0,64,0
4689,1024.000000,note_off,44,0,64,320
4690,1024.666667,note_on,45,0,64,0
4691,1024.666667,note_off,45,0,64,160
4692,1025.000000,note_on,47,2047,64,0
4693,1025.000000,pitchwheel,47,2047,64,0
4694,1025.000000,note_off,47,2047,64,480
4695,1026.000000,note_on,47,3276,64,0
4696,1026.000000,pitchwheel,47,3276,64,0
4697,1026.000000,note_off,47,3276,64,320
4698,1026.666667,note_on,47,3685,64,0
4699,1026.666667,pitchwheel,47,3685,64,0
4700,1026.666667,note_off,47,3685,64,160
4701,1027.000000,note_on,50,819,64,0
4702,1027.000000,pitchwheel,50,819,64,0
4703,1027.000000,note_off,50,819,64,480
4704,1028.000000,note_on,51,819,64,0
4705,1028.000000,pitchwheel,51,819,64,0
4706,1028.000000,note_off,51,819,64,320
4707,1028.666667,note_on,46,409,64,0
4708,1028.666667,pitchwheel,46,409,64,0
4709,1028.666667,note_off,46,409,64,160
4710,1029.000000,note_on,50,1228,64,0
4711,1029.000000,pitchwheel,50,1228,64,0
4712,1029.000000,note_off,50,1228,64,160
4713,1029.333333,note_on,50,0,64,0
4714,1029.333333,note_off,50,0,64,320
4715,1030.000000,note_on,47,2047,64,0
4716,1030.000000,pitchwheel,47,2047,64,0
4717,1030.000000,note_off,47,2047,64,320
4718,1030.666667,note_on,53,1228,64,0
4719,1030.666667,pitchwheel,53,1228,64,0
4720,1030.666667,note_off,53,1228,64,160
4721,1031.000000,note_on,53,0,64,0
4722,1031.000000,note_off,53,0,64,160
4723,1031.333333,note_on,57,1638,64,0
4724,1031.333333,pitchwheel,57,1638,64,0
4725,1031.333333,note_off,57,1638,64,320
4726,1032.000000,note_on,56,0,64,0
4727,1032.000000,note_off,56,0,64,320
4728,1032.666667,note_on,53,0,64,0
4729,1032.666667,note_off,53,0,64,160
4730,1033.000000,note_on,50,3685,64,0
4731,1033.000000,pitchwheel,50,3685,64,0
4732,1033.000000,note_off,50,3685,64,160
4733,1033.333333,note_on,45,1638,64,0
4734,1033.333333,pitchwheel,45,1638,64,0
4735,1033.333333,note_off,45,1638,64,320
4736,1034.000000,note_on,48,2047,64,0
4737,1034.000000,pitchwheel,48,2047,64,0
4738,1034.000000,note_off,48,2047,64,320
4739,1034.666667,note_on,48,3276,64,0
4740,1034.666667,pitchwheel,48,3276,64,0
4741,1034.666667,note_off,48,3276,64,160
4742,1035.000000,note_on,52,2457,64,0
4743,1035.000000,pitchwheel,52,2457,64,0
4744,1035.000000,note_off,52,2457,64,160
4745,1035.333333,note_on,50,2457,64,0
4746,1035.333333,pitchwheel,50,2457,64,0
4747,1035.333333,note_off,50,2457,64,320
4748,1036.000000,note_on,45,0,64,0
4749,1036.000000,note_off,45,0,64,320
4750,1036.666667,note_on,43,0,64,0
4751,1036.666667,note_off,43,0,64,160
4752,1037.000000,note_on,40,2866,64,0
4753,1037.000000,pitchwheel,40,2866,64,0
4754,1037.000000,note_off,40,2866,64,160
4755,1037.333333,note_on,43,409,64,0
4756,1037.333333,pitchwheel,43,409,64,0
4757,1037.333333,note_off,43,409,64,320
4758,1038.000000,note_on,43,1638,64,0
4759,1038.000000,pitchwheel,43,1638,64,0
4760,1038.000000,note_off,43,1638,64,320
4761,1038.666667,note_on,43,2866,64,0
4762,1038.666667,pitchwheel,43,2866,64,0
4763,1038.666667,note_off,43,2866,64,320
4764,1040.000000,note_on,43,0,64,0
4765,1040.000000,note_off,43,0,64,320
4766,1040.666667,note_on,38,2457,64,0
4767,1040.666667,pitchwheel,38,2457,64,0
4768,1040.666667,note_off,38,2457,64,160
4769,1041.000000,note_on,41,0,64,0
4770,1041.000000,note_off,41,0,64,480
4771,1042.000000,note_on,36,2047,64,0
4772,1042.000000,pitchwheel,36,2047,64,0
4773,1042.000000,note_off,36,2047,64,320
4774,1042.666667,note_on,38,2457,64,0
4775,1042.666667,pitchwheel,38,2457,64,0
4776,1042.666667,note_off,38,2457,64,160
4777,1043.000000,note_on,45,1638,64,0
4778,1043.000000,pitchwheel,45,1638,64,0
4779,1043.000000,note_off,45,1638,64,160
4780,1043.333333,note_on,38,3685,64,0
4781,1043.333333,pitchwheel,38,3685,64,0
4782,1043.333333,note_off,38,3685,64,320
4783,1044.000000,note_on,46,0,64,0
4784,1044.000000,note_off,46,0,64,480
4785,1045.333333,note_on,46,1638,64,0
4786,1045.333333,pitchwheel,46,1638,64,0
4787,1045.333333,note_off,46,1638,64,320
4788,1046.000000,note_on,40,2457,64,0
4789,1046.000000,pitchwheel,40,2457,64,0
4790,1046.000000,note_off,40,2457,64,320
4791,1046.666667,note_on,36,2047,64,0
4792,1046.666667,pitchwheel,36,2047,64,0
4793,1046.666667,note_off,36,2047,64,320
4794,1047.333333,note_on,40,2457,64,0
4795,1047.333333,pitchwheel,40,2457,64,0
4796,1047.333333,note_off,40,2457,64,320
4797,1048.000000,note_on,41,2457,64,0
4798,1048.000000,pitchwheel,41,2457,64,0
4799,1048.000000,note_off,41,2457,64,320
4800,1048.666667,note_on,36,819,64,0
4801,1048.666667,pitchwheel,36,819,64,0
4802,1048.666667,note_off,36,819,64,320
4803,1049.333333,note_on,36,2047,64,0
4804,1049.333333,pitchwheel,36,2047,64,0
4805,1049.333333,note_off,36,2047,64,320
4806,1050.000000,note_on,45,1638,64,0
4807,1050.000000,pitchwheel,45,1638,64,0
4808,1050.000000,note_off,45,1638,64,320
4809,1050.666667,note_on,47,2457,64,0
4810,1050.666667,pitchwheel,47,2457,64,0
4811,1050.666667,note_off,47,2457,64,160
4812,1051.000000,note_on,43,0,64,0
4813,1051.000000,note_off,43,0,64,160
4814,1051.333333,note_on,45,0,64,0
4815,1051.333333,note_off,45,0,64,320
4816,1052.000000,note_on,46,0,64,0
4817,1052.000000,note_off,46,0,64,320
4818,1052.666667,note_on,43,0,64,0
4819,1052.666667,note_off,43,0,64,160
4820,1053.000000,note_on,40,2866,64,0
4821,1053.000000,pitchwheel,40,2866,64,0
4822,1053.000000,note_off,40,2866,64,160
4823,1053.333333,note_on,47,3276,64,0
4824,1053.333333,pitchwheel,47,3276,64,0
4825,1053.333333,note_off,47,3276,64,320
4826,1054.000000,note_on,41,0,64,0
4827,1054.000000,note_off,41,0,64,320
4828,1054.666667,note_on,38,3685,64,0
4829,1054.666667,pitchwheel,38,3685,64,0
4830,1054.666667,note_off,38,3685,64,160
4831,1055.000000,note_on,47,3276,64,0
4832,1055.000000,pitchwheel,47,3276,64,0
4833,1055.000000,note_off,47,3276,64,160
4834,1055.333333,note_on,45,2047,64,0
4835,1055.333333,pitchwheel,45,2047,64,0
4836,1055.333333,note_off,45,2047,64,320
4837,1056.000000,note_on,46,1638,64,0
4838,1056.000000,pitchwheel,46,1638,64,0
4839,1056.000000,note_off,46,1638,64,320
4840,1056.666667,note_on,44,2047,64,0
4841,1056.666667,pitchwheel,44,2047,64,0
4842,1056.666667,note_off,44,2047,64,160
4843,1057.000000,note_on,45,0,64,0
4844,1057.000000,note_off,45,0,64,160
4845,1057.333333,note_on,38,3685,64,0
4846,1057.333333,pitchwheel,38,3685,64,0
4847,1057.333333,note_off,38,3685,64,320
4848,1058.000000,note_on,45,1638,64,0
4849,1058.000000,pitchwheel,45,1638,64,0
4850,1058.000000,note_off,45,1638,64,320
4851,1058.666667,note_on,45,2047,64,0
4852,1058.666667,pitchwheel,45,2047,64,0
4853,1058.666667,note_off,45,2047,64,160
4854,1059.000000,note_on,40,2457,64,0
4855,1059.000000,pitchwheel,40,2457,64,0
4856,1059.000000,note_off,40,2457,64,160
4857,1059.333333,note_on,41,0,64,0
4858,1059.333333,note_off,41,0,64,320
4859,1060.000000,note_on,40,2866,64,0
4860,1060.000000,pitchwheel,40,2866,64,0
4861,1060.000000,note_off,40,2866,64,320
4862,1060.666667,note_on,43,409,64,0
4863,1060.666667,pitchwheel,43,409,64,0
4864,1060.666667,note_off,43,409,64,320
4865,1061.333333,note_on,45,3276,64,0
4866,1061.333333,pitchwheel,45,3276,64,0
4867,1061.333333,note_off,45,3276,64,320
4868,1062.000000,note_on,41,0,64,0
4869,1062.000000,note_off,41,0,64,320
4870,1062.666667,note_on,46,409,64,0
4871,1062.666667,pitchwheel,46,409,64,0
4872,1062.666667,note_off,46,409,64,320
4873,1063.333333,note_on,47,3276,64,0
4874,1063.333333,pitchwheel,47,3276,64,0
4875,1063.333333,note_off,47,3276,64,320
4876,1064.000000,note_on,46,1638,64,0
4877,1064.000000,pitchwheel,46,1638,64,0
4878,1064.000000,note_off,46,1638,64,320
4879,1064.666667,note_on,43,1638,64,0
4880,1064.666667,pitchwheel,43,1638,64,0
4881,1064.666667,note_off,43,1638,64,160
4882,1065.000000,note_on,40,0,64,0
4883,1065.000000,note_off,40,0,64,160
4884,1065.333333,note_on,43,2866,64,0
4885,1065.333333,pitchwheel,43,2866,64,0
4886,1065.333333,note_off,43,2866,64,320
4887,1066.000000,note_on,36,819,64,0
4888,1066.000000,pitchwheel,36,819,64,0
4889,1066.000000,note_off,36,819,64,320
4890,1066.666667,note_on,40,0,64,0
4891,1066.666667,note_off,40,0,64,160
4892,1067.000000,note_on,38,819,64,0
4893,1067.000000,pitchwheel,38,819,64,0
4894,1067.000000,note_off,38,819,64,160
4895,1067.333334,note_on,41,0,64,0
4896,1067.333334,note_off,41,0,64,320
4897,1068.000000,note_on,36,2047,64,0
4898,1068.000000,pitchwheel,36,2047,64,0
4899,1068.000000,note_off,36,2047,64,320
4900,1068.666667,note_on,43,0,64,0
4901,1068.666667,note_off,43,0,64,160
4902,1069.000000,note_on,45,2047,64,0
4903,1069.000000,pitchwheel,45,2047,64,0
4904,1069.000000,note_off,45,2047,64,160
4905,1069.333334,note_on,44,0,64,0
4906,1069.333334,note_off,44,0,64,320
4907,1070.000000,note_on,41,0,64,0
4908,1070.000000,note_off,41,0,64,320
4909,1070.666667,note_on,43,0,64,0
4910,1070.666667,note_off,43,0,64,160
4911,1071.000000,note_on,36,2047,64,0
4912,1071.000000,pitchwheel,36,2047,64,0
4913,1071.000000,note_off,36,2047,64,480
4914,1072.000000,note_on,43,409,64,0
4915,1072.000000,pitchwheel,43,409,64,0
4916,1072.000000,note_off,43,409,64,480
4917,1073.000000,note_on,38,2457,64,0
4918,1073.000000,pitchwheel,38,2457,64,0
4919,1073.000000,note_off,38,2457,64,160
4920,1073.333334,note_on,43,0,64,0
4921,1073.333334,note_off,43,0,64,320
4922,1074.000000,note_on,45,0,64,0
4923,1074.000000,note_off,45,0,64,320
4924,1074.666667,note_on,46,0,64,0
4925,1074.666667,note_off,46,0,64,160
4926,1075.000000,note_on,47,3276,64,0
4927,1075.000000,pitchwheel,47,3276,64,0
4928,1075.000000,note_off,47,3276,64,160
4929,1075.333334,note_on,41,0,64,0
4930,1075.333334,note_off,41,0,64,320
4931,1076.000000,note_on,41,1228,64,0
4932,1076.000000,pitchwheel,41,1228,64,0
4933,1076.000000,note_off,41,1228,64,320
4934,1076.666667,note_on,43,0,64,0
4935,1076.666667,note_off,43,0,64,160
4936,1077.000000,note_on,47,3685,64,0
4937,1077.000000,pitchwheel,47,3685,64,0
4938,1077.000000,note_off,47,3685,64,160
4939,1077.333334,note_on,43,409,64,0
4940,1077.333334,pitchwheel,43,409,64,0
4941,1077.333334,note_off,43,409,64,320
4942,1078.000000,note_on,45,0,64,0
4943,1078.000000,note_off,45,0,64,480
4944,1079.333334,note_on,47,3276,64,0
4945,1079.333334,pitchwheel,47,3276,64,0
4946,1079.333334,note_off,47,3276,64,320
4947,1080.000000,note_on,47,2047,64,0
4948,1080.000000,pitchwheel,47,2047,64,0
4949,1080.000000,note_off,47,2047,64,480
4950,1081.000000,note_on,50,2457,64,0
4951,1081.000000,pitchwheel,50,2457,64,0
4952,1081.000000,note_off,50,2457,64,160
4953,1081.333334,note_on,45,1638,64,0
4954,1081.333334,pitchwheel,45,1638,64,0
4955,1081.333334,note_off,45,1638,64,320
4956,1082.000000,note_on,47,2457,64,0
4957,1082.000000,pitchwheel,47,2457,64,0
4958,1082.000000,note_off,47,2457,64,320
4959,1082.666667,note_on,46,1638,64,0
4960,1082.666667,pitchwheel,46,1638,64,0
4961,1082.666667,note_off,46,1638,64,160
4962,1083.000000,note_on,47,3276,64,0
4963,1083.000000,pitchwheel,47,3276,64,0
4964,1083.000000,note_off,47,3276,64,160
4965,1083.333334,note_on,47,2047,64,0
4966,1083.333334,pitchwheel,47,2047,64,0
4967,1083.333334,note_off,47,2047,64,320
4968,1084.000000,note_on,53,0,64,0
4969,1084.000000,note_off,53,0,64,320
4970,1084.666667,note_on,50,819,64,0
4971,1084.666667,pitchwheel,50,819,64,0
4972,1084.666667,note_off,50,819,64,160
4973,1085.000000,note_on,45,0,64,0
4974,1085.000000,note_off,45,0,64,160
4975,1085.333334,note_on,39,819,64,0
4976,1085.333334,pitchwheel,39,819,64,0
4977,1085.333334,note_off,39,819,64,320
4978,1086.000000,note_on,46,0,64,0
4979,1086.000000,note_off,46,0,64,640
4980,1087.333334,note_on,38,0,64,0
4981,1087.333334,note_off,38,0,64,320
4982,1088.000000,note_on,47,2457,64,0
4983,1088.000000,pitchwheel,47,2457,64,0
4984,1088.000000,note_off,47,2457,64,320
4985,1088.666667,note_on,38,2457,64,0
4986,1088.666667,pitchwheel,38,2457,64,0
4987,1088.666667,note_off,38,2457,64,320
4988,1089.333334,note_on,45,0,64,0
4989,1089.333334,note_off,45,0,64,320
4990,1090.000000,note_on,40,2457,64,0
4991,1090.000000,pitchwheel,40,2457,64,0
4992,1090.000000,note_off,40,2457,64,320
4993,1090.666667,note_on,41,2457,64,0
4994,1090.666667,pitchwheel,41,2457,64,0
4995,1090.666667,note_off,41,2457,64,160
4996,1091.000000,note_on,45,1638,64,0
4997,1091.000000,pitchwheel,45,1638,64,0
4998,1091.000000,note_off,45,1638,64,160
4999,1091.333334,note_on,36,819,64,0
5000,1091.333334,pitchwheel,36,819,64,0
5001,1091.333334,note_off,36,819,64,320
5002,1092.000000,note_on,36,2047,64,0
5003,1092.000000,pitchwheel,36,2047,64,0
5004,1092.000000,note_off,36,2047,64,480
5005,1093.000000,note_on,45,2047,64,0
5006,1093.000000,pitchwheel,45,2047,64,0
5007,1093.000000,note_off,45,2047,64,160
5008,1093.333334,note_on,36,3276,64,0
5009,1093.333334,pitchwheel,36,3276,64,0
5010,1093.333334,note_off,36,3276,64,320
5011,1094.000000,note_on,36,2047,64,0
5012,1094.000000,pitchwheel,36,2047,64,0
5013,1094.000000,note_off,36,2047,64,480
5014,1095.000000,note_on,38,819,64,0
5015,1095.000000,pitchwheel,38,819,64,0
5016,1095.000000,note_off,38,819,64,160
5017,1095.333334,note_on,45,1638,64,0
5018,1095.333334,pitchwheel,45,1638,64,0
5019,1095.333334,note_off,45,1638,64,320
5020,1096.000000,note_on,47,2457,64,0
5021,1096.000000,pitchwheel,47,2457,64,0
5022,1096.000000,note_off,47,2457,64,480
5023,1097.000000,note_on,45,0,64,0
5024,1097.000000,note_off,45,0,64,160
5025,1097.333334,note_on,46,0,64,0
5026,1097.333334,note_off,46,0,64,320
5027,1098.000000,note_on,41,0,64,0
5028,1098.000000,note_off,41,0,64,320
5029,1098.666667,note_on,46,0,64,0
5030,1098.666667,note_off,46,0,64,160
5031,1099.000000,note_on,43,0,64,0
5032,1099.000000,note_off,43,0,64,480
5033,1100.000000,note_on,44,0,64,0
5034,1100.000000,note_off,44,0,64,320
5035,1100.666667,note_on,43,0,64,0
5036,1100.666667,note_off,43,0,64,320
5037,1101.333334,note_on,41,0,64,0
5038,1101.333334,note_off,41,0,64,640
5039,1102.666667,note_on,38,819,64,0
5040,1102.666667,pitchwheel,38,819,64,0
5041,1102.666667,note_off,38,819,64,160
5042,1103.000000,note_on,45,2047,64,0
5043,1103.000000,pitchwheel,45,2047,64,0
5044,1103.000000,note_off,45,2047,64,160
5045,1103.333334,note_on,45,1638,64,0
5046,1103.333334,pitchwheel,45,1638,64,0
5047,1103.333334,note_off,45,1638,64,320
5048,1104.000000,note_on,45,2047,64,0
5049,1104.000000,pitchwheel,45,2047,64,0
5050,1104.000000,note_off,45,2047,64,320
5051,1104.666667,note_on,45,0,64,0
5052,1104.666667,note_off,45,0,64,160
5053,1105.000000,note_on,40,0,64,0
5054,1105.000000,note_off,40,0,64,160
5055,1105.333334,note_on,45,3276,64,0
5056,1105.333334,pitchwheel,45,3276,64,0
5057,1105.333334,note_off,45,3276,64,320
5058,1106.000000,note_on,40,2457,64,0
5059,1106.000000,pitchwheel,40,2457,64,0
5060,1106.000000,note_off,40,2457,64,320
5061,1106.666667,note_on,36,3276,64,0
5062,1106.666667,pitchwheel,36,3276,64,0
5063,1106.666667,note_off,36,3276,64,160
5064,1107.000000,note_on,40,2457,64,0
5065,1107.000000,pitchwheel,40,2457,64,0
5066,1107.000000,note_off,40,2457,64,480
5067,1108.000000,note_on,38,0,64,0
5068,1108.000000,note_off,38,0,64,320
5069,1108.666667,note_on,43,1638,64,0
5070,1108.666667,pitchwheel,43,1638,64,0
5071,1108.666667,note_off,43,1638,64,160
5072,1109.000000,note_on,38,1228,64,0
5073,1109.000000,pitchwheel,38,1228,64,0
5074,1109.000000,note_off,38,1228,64,160
5075,1109.333334,note_on,43,409,64,0
5076,1109.333334,pitchwheel,43,409,64,0
5077,1109.333334,note_off,43,409,64,320
5078,1110.000000,note_on,41,0,64,0
5079,1110.000000,note_off,41,0,64,320
5080,1110.666667,note_on,38,2457,64,0
5081,1110.666667,pitchwheel,38,2457,64,0
5082,1110.666667,note_off,38,2457,64,160
5083,1111.000000,note_on,43,409,64,0
5084,1111.000000,pitchwheel,43,409,64,0
5085,1111.000000,note_off,43,409,64,160
5086,1111.333334,note_on,38,819,64,0
5087,1111.333334,pitchwheel,38,819,64,0
5088,1111.333334,note_off,38,819,64,320
5089,1112.000000,note_on,46,1638,64,0
5090,1112.000000,pitchwheel,46,1638,64,0
5091,1112.000000,note_off,46,1638,64,320
5092,1112.666667,note_on,45,2047,64,0
5093,1112.666667,pitchwheel,45,2047,64,0
5094,1112.666667,note_off,45,2047,64,160
5095,1113.000000,note_on,41,0,64,0
5096,1113.000000,note_off,41,0,64,160
5097,1113.333334,note_on,41,1228,64,0
5098,1113.333334,pitchwheel,41,1228,64,0
5099,1113.333334,note_off,41,1228,64,320
5100,1114.000000,note_on,41,0,64,0
5101,1114.000000,note_off,41,0,64,320
5102,1114.666667,note_on,41,2457,64,0
5103,1114.666667,pitchwheel,41,2457,64,0
5104,1114.666667,note_off,41,2457,64,160
5105,1115.000000,note_on,47,2457,64,0
5106,1115.000000,pitchwheel,47,2457,64,0
5107,1115.000000,note_off,47,2457,64,160
5108,1115.333334,note_on,38,3685,64,0
5109,1115.333334,pitchwheel,38,3685,64,0
5110,1115.333334,note_off,38,3685,64,320
5111,1116.000000,note_on,36,819,64,0
5112,1116.000000,pitchwheel,36,819,64,0
5113,1116.000000,note_off,36,819,64,320
5114,1116.666667,note_on,47,3276,64,0
5115,1116.666667,pitchwheel,47,3276,64,0
5116,1116.666667,note_off,47,3276,64,160
5117,1117.000000,note_on,40,2866,64,0
5118,1117.000000,pitchwheel,40,2866,64,0
5119,1117.000000,note_off,40,2866,64,480
5120,1118.000000,note_on,41,0,64,0
5121,1118.000000,note_off,41,0,64,320
5122,1118.666667,note_on,36,819,64,0
5123,1118.666667,pitchwheel,36,819,64,0
5124,1118.666667,note_off,36,819,64,320
5125,1120.000000,note_on,36,3276,64,0
5126,1120.000000,pitchwheel,36,3276,64,0
5127,1120.000000,note_off,36,3276,64,320
5128,1120.666667,note_on,41,0,64,0
5129,1120.666667,note_off,41,0,64,160
5130,1121.000000,note_on,40,1638,64,0
5131,1121.000000,pitchwheel,40,1638,64,0
5132,1121.000000,note_off,40,1638,64,160
5133,1121.333334,note_on,36,2047,64,0
5134,1121.333334,pitchwheel,36,2047,64,0
5135,1121.333334,note_off,36,2047,64,320
5136,1122.000000,note_on,47,3276,64,0
5137,1122.000000,pitchwheel,47,3276,64,0
5138,1122.000000,note_off,47,3276,64,320
5139,1122.666667,note_on,39,819,64,0
5140,1122.666667,pitchwheel,39,819,64,0
5141,1122.666667,note_off,39,819,64,160
5142,1123.000000,note_on,47,3276,64,0
5143,1123.000000,pitchwheel,47,3276,64,0
5144,1123.000000,note_off,47,3276,64,160
5145,1123.333334,note_on,45,0,64,0
5146,1123.333334,note_off,45,0,64,320
5147,1124.000000,note_on,45,1638,64,0
5148,1124.000000,pitchwheel,45,1638,64,0
5149,1124.000000,note_off,45,1638,64,480
5150,1125.000000,note_on,40,0,64,0
5151,1125.000000,note_off,40,0,64,160
5152,1125.333334,note_on,45,1638,64,0
5153,1125.333334,pitchwheel,45,1638,64,0
5154,1125.333334,note_off,45,1638,64,320
5155,1126.000000,note_on,46,0,64,0
5156,1126.000000,note_off,46,0,64,320
5157,1126.666667,note_on,40,0,64,0
5158,1126.666667,note_off,40,0,64,320
5159,1127.333334,note_on,45,1638,64,0
5160,1127.333334,pitchwheel,45,1638,64,0
5161,1127.333334,note_off,45,1638,64,320
5162,1128.000000,note_on,46,0,64,0
5163,1128.000000,note_off,46,0,64,320
5164,1128.666667,note_on,43,2866,64,0
5165,1128.666667,pitchwheel,43,2866,64,0
5166,1128.666667,note_off,43,2866,64,320
5167,1129.333334,note_on,43,1638,64,0
5168,1129.333334,pitchwheel,43,1638,64,0
5169,1129.333334,note_off,43,1638,64,320
5170,1130.000000,note_on,40,0,64,0
5171,1130.000000,note_off,40,0,64,320
5172,1130.666667,note_on,47,3685,64,0
5173,1130.666667,pitchwheel,47,3685,64,0
5174,1130.666667,note_off,47,3685,64,160
5175,1131.000000,note_on,38,819,64,0
5176,1131.000000,pitchwheel,38,819,64,0
5177,1131.000000,note_off,38,819,64,160
5178,1131.333334,note_on,45,0,64,0
5179,1131.333334,note_off,45,0,64,320
5180,1132.000000,note_on,39,819,64,0
5181,1132.000000,pitchwheel,39,819,64,0
5182,1132.000000,note_off,39,819,64,320
5183,1132.666667,note_on,43,0,64,0
5184,1132.666667,note_off,43,0,64,160
5185,1133.000000,note_on,40,2866,64,0
5186,1133.000000,pitchwheel,40,2866,64,0
5187,1133.000000,note_off,40,2866,64,480
5188,1134.000000,note_on,41,0,64,0
5189,1134.000000,note_off,41,0,64,320
5190,1134.666667,note_on,43,0,64,0
5191,1134.666667,note_off,43,0,64,160
5192,1135.000000,note_on,40,2457,64,0
5193,1135.000000,pitchwheel,40,2457,64,0
5194,1135.000000,note_off,40,2457,64,160
5195,1135.333334,note_on,46,409,64,0
5196,1135.333334,pitchwheel,46,409,64,0
5197,1135.333334,note_off,46,409,64,320
5198,1136.000000,note_on,41,0,64,0
5199,1136.000000,note_off,41,0,64,320
5200,1136.666667,note_on,47,2047,64,0
5201,1136.666667,pitchwheel,47,2047,64,0
5202,1136.666667,note_off,47,2047,64,160
5203,1137.000000,note_on,45,0,64,0
5204,1137.000000,note_off,45,0,64,160
5205,1137.333334,note_on,40,2866,64,0
5206,1137.333334,pitchwheel,40,2866,64,0
5207,1137.333334,note_off,40,2866,64,320
5208,1138.000000,note_on,40,2457,64,0
5209,1138.000000,pitchwheel,40,2457,64,0
5210,1138.000000,note_off,40,2457,64,320
5211,1138.666667,note_on,38,819,64,0
5212,1138.666667,pitchwheel,38,819,64,0
5213,1138.666667,note_off,38,819,64,160
5214,1139.000000,note_on,40,2457,64,0
5215,1139.000000,pitchwheel,40,2457,64,0
5216,1139.000000,note_off,40,2457,64,160
5217,1139.333334,note_on,38,3685,64,0
5218,1139.333334,pitchwheel,38,3685,64,0
5219,1139.333334,note_off,38,3685,64,320
5220,1140.000000,note_on,41,2457,64,0
5221,1140.000000,pitchwheel,41,2457,64,0
5222,1140.000000,note_off,41,2457,64,320
5223,1140.666667,note_on,36,2047,64,0
5224,1140.666667,pitchwheel,36,2047,64,0
5225,1140.666667,note_off,36,2047,64,320
5226,1141.333334,note_on,39,819,64,0
5227,1141.333334,pitchwheel,39,819,64,0
5228,1141.333334,note_off,39,819,64,320
5229,1142.000000,note_on,38,2457,64,0
5230,1142.000000,pitchwheel,38,2457,64,0
5231,1142.000000,note_off,38,2457,64,320
5232,1142.666667,note_on,45,0,64,0
5233,1142.666667,note_off,45,0,64,160
5234,1143.000000,note_on,45,2047,64,0
5235,1143.000000,pitchwheel,45,2047,64,0
5236,1143.000000,note_off,45,2047,64,160
5237,1143.333334,note_on,47,2457,64,0
5238,1143.333334,pitchwheel,47,2457,64,0
5239,1143.333334,note_off,47,2457,64,320
5240,1144.000000,note_on,36,3276,64,0
5241,1144.000000,pitchwheel,36,3276,64,0
5242,1144.000000,note_off,36,3276,64,320
5243,1144.666667,note_on,36,2047,64,0
5244,1144.666667,pitchwheel,36,2047,64,0
5245,1144.666667,note_off,36,2047,64,160
5246,1145.000000,note_on,44,2047,64,0
5247,1145.000000,pitchwheel,44,2047,64,0
5248,1145.000000,note_off,44,2047,64,160
5249,1145.333334,note_on,36,819,64,0
5250,1145.333334,pitchwheel,36,819,64,0
5251,1145.333334,note_off,36,819,64,320
5252,1146.000000,note_on,41,0,64,0
5253,1146.000000,note_off,41,0,64,320
5254,1146.666667,note_on,36,3276,64,0
5255,1146.666667,pitchwheel,36,3276,64,0
5256,1146.666667,note_off,36,3276,64,160
5257,1147.000000,note_on,43,0,64,0
5258,1147.000000,note_off,43,0,64,160
5259,1147.333334,note_on,38,2457,64,0
5260,1147.333334,pitchwheel,38,2457,64,0
5261,1147.333334,note_off,38,2457,64,320
5262,1148.000000,note_on,44,0,64,0
5263,1148.000000,note_off,44,0,64,320
5264,1148.666667,note_on,47,3276,64,0
5265,1148.666667,pitchwheel,47,3276,64,0
5266,1148.666667,note_off,47,3276,64,160
5267,1149.000000,note_on,45,2047,64,0
5268,1149.000000,pitchwheel,45,2047,64,0
5269,1149.000000,note_off,45,2047,64,160
5270,1149.333334,note_on,36,3276,64,0
5271,1149.333334,pitchwheel,36,3276,64,0
5272,1149.333334,note_off,36,3276,64,320
5273,1150.000000,note_on,47,2047,64,0
5274,1150.000000,pitchwheel,47,2047,64,0
5275,1150.000000,note_off,47,2047,64,320
5276,1150.666667,note_on,46,0,64,0
5277,1150.666667,note_off,46,0,64,160
5278,1151.000000,note_on,47,3685,64,0
5279,1151.000000,pitchwheel,47,3685,64,0
5280,1151.000000,note_off,47,3685,64,480
5281,1152.000000,note_on,45,2047,64,0
5282,1152.000000,pitchwheel,45,2047,64,0
5283,1152.000000,note_off,45,2047,64,320
5284,1153.000000,note_on,38,0,64,0
5285,1153.000000,note_off,38,0,64,160
5286,1153.333334,note_on,37,0,64,0
5287,1153.333334,note_off,37,0,64,320
5288,1154.000000,note_on,38,819,64,0
5289,1154.000000,pitchwheel,38,819,64,0
5290,1154.000000,note_off,38,819,64,320
5291,1154.666667,note_on,38,2457,64,0
5292,1154.666667,pitchwheel,38,2457,64,0
5293,1154.666667,note_off,38,2457,64,160
5294,1155.000000,note_on,45,1638,64,0
5295,1155.000000,pitchwheel,45,1638,64,0
5296,1155.000000,note_off,45,1638,64,160
5297,1155.333334,note_on,43,2866,64,0
5298,1155.333334,pitchwheel,43,2866,64,0
5299,1155.333334,note_off,43,2866,64,320
5300,1156.000000,note_on,43,1638,64,0
5301,1156.000000,pitchwheel,43,1638,64,0
5302,1156.000000,note_off,43,1638,64,320
5303,1156.666667,note_on,38,819,64,0
5304,1156.666667,pitchwheel,38,819,64,0
5305,1156.666667,note_off,38,819,64,160
5306,1157.000000,note_on,47,3685,64,0
5307,1157.000000,pitchwheel,47,3685,64,0
5308,1157.000000,note_off,47,3685,64,160
5309,1157.333334,note_on,47,2457,64,0
5310,1157.333334,pitchwheel,47,2457,64,0
5311,1157.333334,note_off,47,2457,64,320
5312,1158.000000,note_on,36,819,64,0
5313,1158.000000,pitchwheel,36,819,64,0
5314,1158.000000,note_off,36,819,64,320
5315,1158.666667,note_on,45,2047,64,0
5316,1158.666667,pitchwheel,45,2047,64,0
5317,1158.666667,note_off,45,2047,64,320
5318,1159.333334,note_on,40,2457,64,0
5319,1159.333334,pitchwheel,40,2457,64,0
5320,1159.333334,note_off,40,2457,64,320
5321,1160.000000,note_on,36,3276,64,0
5322,1160.000000,pitchwheel,36,3276,64,0
5323,1160.000000,note_off,36,3276,64,480
5324,1161.000000,note_on,41,0,64,0
5325,1161.000000,note_off,41,0,64,480
5326,1162.000000,note_on,45,2047,64,0
5327,1162.000000,pitchwheel,45,2047,64,0
5328,1162.000000,note_off,45,2047,64,320
5329,1162.666667,note_on,41,2457,64,0
5330,1162.666667,pitchwheel,41,2457,64,0
5331,1162.666667,note_off,41,2457,64,160
5332,1163.000000,note_on,45,1638,64,0
5333,1163.000000,pitchwheel,45,1638,64,0
5334,1163.000000,note_off,45,1638,64,160
5335,1163.333334,note_on,45,3276,64,0
5336,1163.333334,pitchwheel,45,3276,64,0
5337,1163.333334,note_off,45,3276,64,320
5338,1164.000000,note_on,50,3685,64,0
5339,1164.000000,pitchwheel,50,3685,64,0
5340,1164.000000,note_off,50,3685,64,320
5341,1164.666667,note_on,55,0,64,0
5342,1164.666667,note_off,55,0,64,160
5343,1165.000000,note_on,50,2457,64,0
5344,1165.000000,pitchwheel,50,2457,64,0
5345,1165.000000,note_off,50,2457,64,160
5346,1165.333334,note_on,56,0,64,0
5347,1165.333334,note_off,56,0,64,320
5348,1166.000000,note_on,50,3685,64,0
5349,1166.000000,pitchwheel,50,3685,64,0
5350,1166.000000,note_off,50,3685,64,320
5351,1166.666667,note_on,47,3276,64,0
5352,1166.666667,pitchwheel,47,3276,64,0
5353,1166.666667,note_off,47,3276,64,320
5354,1167.333334,note_on,43,409,64,0
5355,1167.333334,pitchwheel,43,409,64,0
5356,1167.333334,note_off,43,409,64,640
5357,1168.666667,note_on,41,0,64,0
5358,1168.666667,note_off,41,0,64,320
5359,1169.333334,note_on,47,3685,64,0
5360,1169.333334,pitchwheel,47,3685,64,0
5361,1169.333334,note_off,47,3685,64,320
5362,1170.000000,note_on,40,0,64,0
5363,1170.000000,note_off,40,0,64,320
5364,1170.666667,note_on,36,819,64,0
5365,1170.666667,pitchwheel,36,819,64,0
5366,1170.666667,note_off,36,819,64,160
5367,1171.000000,note_on,47,3276,64,0
5368,1171.000000,pitchwheel,47,3276,64,0
5369,1171.000000,note_off,47,3276,64,160
5370,1171.333334,note_on,36,2047,64,0
5371,1171.333334,pitchwheel,36,2047,64,0
5372,1171.333334,note_off,36,2047,64,320
5373,1172.000000,note_on,36,819,64,0
5374,1172.000000,pitchwheel,36,819,64,0
5375,1172.000000,note_off,36,819,64,480
5376,1173.000000,note_on,41,0,64,0
5377,1173.000000,note_off,41,0,64,160
5378,1173.333334,note_on,36,3276,64,0
5379,1173.333334,pitchwheel,36,3276,64,0
5380,1173.333334,note_off,36,3276,64,320
5381,1174.000000,note_on,40,1638,64,0
5382,1174.000000,pitchwheel,40,1638,64,0
5383,1174.000000,note_off,40,1638,64,320
5384,1174.666667,note_on,41,0,64,0
5385,1174.666667,note_off,41,0,64,160
5386,1175.000000,note_on,43,0,64,0
5387,1175.000000,note_off,43,0,64,160
5388,1175.333334,note_on,45,1638,64,0
5389,1175.333334,pitchwheel,45,1638,64,0
5390,1175.333334,note_off,45,1638,64,320
5391,1176.000000,note_on,44,0,64,0
5392,1176.000000,note_off,44,0,64,320
5393,1176.666667,note_on,38,2457,64,0
5394,1176.666667,pitchwheel,38,2457,64,0
5395,1176.666667,note_off,38,2457,64,160
5396,1177.000000,note_on,45,0,64,0
5397,1177.000000,note_off,45,0,64,160
5398,1177.333334,note_on,47,3276,64,0
5399,1177.333334,pitchwheel,47,3276,64,0
5400,1177.333334,note_off,47,3276,64,320
5401,1178.000000,note_on,36,819,64,0
5402,1178.000000,pitchwheel,36,819,64,0
5403,1178.000000,note_off,36,819,64,320
5404,1178.666667,note_on,39,819,64,0
5405,1178.666667,pitchwheel,39,819,64,0
5406,1178.666667,note_off,39,819,64,160
5407,1179.000000,note_on,38,819,64,0
5408,1179.000000,pitchwheel,38,819,64,0
5409,1179.000000,note_off,38,819,64,480
5410,1180.000000,note_on,39,819,64,0
5411,1180.000000,pitchwheel,39,819,64,0
5412,1180.000000,note_off,39,819,64,320
5413,1180.666667,note_on,47,3276,64,0
5414,1180.666667,pitchwheel,47,3276,64,0
5415,1180.666667,note_off,47,3276,64,320
5416,1181.333334,note_on,46,0,64,0
5417,1181.333334,note_off,46,0,64,320
5418,1182.000000,note_on,45,2047,64,0
5419,1182.000000,pitchwheel,45,2047,64,0
5420,1182.000000,note_off,45,2047,64,320
5421,1182.666667,note_on,45,3276,64,0
5422,1182.666667,pitchwheel,45,3276,64,0
5423,1182.666667,note_off,45,3276,64,160
5424,1183.000000,note_on,47,2457,64,0
5425,1183.000000,pitchwheel,47,2457,64,0
5426,1183.000000,note_off,47,2457,64,160
5427,1183.333334,note_on,40,2457,64,0
5428,1183.333334,pitchwheel,40,2457,64,0
5429,1183.333334,note_off,40,2457,64,320
5430,1184.000000,note_on,41,2457,64,0
5431,1184.000000,pitchwheel,41,2457,64,0
5432,1184.000000,note_off,41,2457,64,320
5433,1184.666667,note_on,45,0,64,0
5434,1184.666667,note_off,45,0,64,160
5435,1185.000000,note_on,43,0,64,0
5436,1185.000000,note_off,43,0,64,480
5437,1186.000000,note_on,38,2457,64,0
5438,1186.000000,pitchwheel,38,2457,64,0
5439,1186.000000,note_off,38,2457,64,320
5440,1186.666667,note_on,39,819,64,0
5441,1186.666667,pitchwheel,39,819,64,0
5442,1186.666667,note_off,39,819,64,160
5443,1187.000000,note_on,40,2457,64,0
5444,1187.000000,pitchwheel,40,2457,64,0
5445,1187.000000,note_off,40,2457,64,480
5446,1188.000000,note_on,36,3276,64,0
5447,1188.000000,pitchwheel,36,3276,64,0
5448,1188.000000,note_off,36,3276,64,320
5449,1188.666667,note_on,45,2047,64,0
5450,1188.666667,pitchwheel,45,2047,64,0
5451,1188.666667,note_off,45,2047,64,160
5452,1189.000000,note_on,36,819,64,0
5453,1189.000000,pitchwheel,36,819,64,0
5454,1189.000000,note_off,36,819,64,160
5455,1189.333334,note_on,46,0,64,0
5456,1189.333334,note_off,46,0,64,320
5457,1190.000000,note_on,44,2047,64,0
5458,1190.000000,pitchwheel,44,2047,64,0
5459,1190.000000,note_off,44,2047,64,320
5460,1190.666667,note_on,43,2866,64,0
5461,1190.666667,pitchwheel,43,2866,64,0
5462,1190.666667,note_off,43,2866,64,160
5463,1191.000000,note_on,38,0,64,0
5464,1191.000000,note_off,38,0,64,160
5465,1191.333334,note_on,40,2457,64,0
5466,1191.333334,pitchwheel,40,2457,64,0
5467,1191.333334,note_off,40,2457,64,320
5468,1192.000000,note_on,38,3685,64,0
5469,1192.000000,pitchwheel,38,3685,64,0
5470,1192.000000,note_off,38,3685,64,320
5471,1192.666667,note_on,38,1228,64,0
5472,1192.666667,pitchwheel,38,1228,64,0
5473,1192.666667,note_off,38,1228,64,160
5474,1193.000000,note_on,38,2457,64,0
5475,1193.000000,pitchwheel,38,2457,64,0
5476,1193.000000,note_off,38,2457,64,160
5477,1193.333334,note_on,36,2047,64,0
5478,1193.333334,pitchwheel,36,2047,64,0
5479,1193.333334,note_off,36,2047,64,320
5480,1194.000000,note_on,45,3276,64,0
5481,1194.000000,pitchwheel,45,3276,64,0
5482,1194.000000,note_off,45,3276,64,480
5483,1195.000000,note_on,43,0,64,0
5484,1195.000000,note_off,43,0,64,160
5485,1195.333334,note_on,38,0,64,0
5486,1195.333334,note_off,38,0,64,320
5487,1196.000000,note_on,45,0,64,0
5488,1196.000000,note_off,45,0,64,320
5489,1196.666667,note_on,43,0,64,0
5490,1196.666667,note_off,43,0,64,160
5491,1197.000000,note_on,45,3276,64,0
5492,1197.000000,pitchwheel,45,3276,64,0
5493,1197.000000,note_off,45,3276,64,160
5494,1197.333334,note_on,46,1638,64,0
5495,1197.333334,pitchwheel,46,1638,64,0
5496,1197.333334,note_off,46,1638,64,320
5497,1198.000000,note_on,45,2047,64,0
5498,1198.000000,pitchwheel,45,2047,64,0
5499,1198.000000,note_off,45,2047,64,320
5500,1198.666667,note_on,43,0,64,0
5501,1198.666667,note_off,43,0,64,320
5502,1200.000000,note_on,43,0,64,0
5503,1200.000000,note_off,43,0,64,320
5504,1200.666667,note_on,41,0,64,0
5505,1200.666667,note_off,41,0,64,640
5506,1202.000000,note_on,38,2457,64,0
5507,1202.000000,pitchwheel,38,2457,64,0
5508,1202.000000,note_off,38,2457,64,320
5509,1202.666667,note_on,44,0,64,0
5510,1202.666667,note_off,44,0,64,160
5511,1203.000000,note_on,45,1638,64,0
5512,1203.000000,pitchwheel,45,1638,64,0
5513,1203.000000,note_off,45,1638,64,160
5514,1203.333334,note_on,36,2047,64,0
5515,1203.333334,pitchwheel,36,2047,64,0
5516,1203.333334,note_off,36,2047,64,320
5517,1204.000000,note_on,46,409,64,0
5518,1204.000000,pitchwheel,46,409,64,0
5519,1204.000000,note_off,46,409,64,480
5520,1205.000000,note_on,41,0,64,0
5521,1205.000000,note_off,41,0,64,160
5522,1205.333334,note_on,43,409,64,0
5523,1205.333334,pitchwheel,43,409,64,0
5524,1205.333334,note_off,43,409,64,320
5525,1206.000000,note_on,46,0,64,0
5526,1206.000000,note_off,46,0,64,320
5527,1206.666667,note_on,44,2047,64,0
5528,1206.666667,pitchwheel,44,2047,64,0
5529,1206.666667,note_off,44,2047,64,320
5530,1207.333334,note_on,47,3276,64,0
5531,1207.333334,pitchwheel,47,3276,64,0
5532,1207.333334,note_off,47,3276,64,320
5533,1208.000000,note_on,46,1638,64,0
5534,1208.000000,pitchwheel,46,1638,64,0
5535,1208.000000,note_off,46,1638,64,320
5536,1208.666667,note_on,36,819,64,0
5537,1208.666667,pitchwheel,36,819,64,0
5538,1208.666667,note_off,36,819,64,320
5539,1209.333334,note_on,47,3685,64,0
5540,1209.333334,pitchwheel,47,3685,64,0
5541,1209.333334,note_off,47,3685,64,320
5542,1210.000000,note_on,45,1638,64,0
5543,1210.000000,pitchwheel,45,1638,64,0
5544,1210.000000,note_off,45,1638,64,320
5545,1210.666667,note_on,45,2047,64,0
5546,1210.666667,pitchwheel,45,2047,64,0
5547,1210.666667,note_off,45,2047,64,160
5548,1211.000000,note_on,47,3276,64,0
5549,1211.000000,pitchwheel,47,3276,64,0
5550,1211.000000,note_off,47,3276,64,160
5551,1211.333334,note_on,45,0,64,0
5552,1211.333334,note_off,45,0,64,320
5553,1212.000000,note_on,46,1638,64,0
5554,1212.000000,pitchwheel,46,1638,64,0
5555,1212.000000,note_off,46,1638,64,320
5556,1212.666667,note_on,38,819,64,0
5557,1212.666667,pitchwheel,38,819,64,0
5558,1212.666667,note_off,38,819,64,160
5559,1213.000000,note_on,41,0,64,0
5560,1213.000000,note_off,41,0,64,160
5561,1213.333334,note_on,36,3276,64,0
5562,1213.333334,pitchwheel,36,3276,64,0
5563,1213.333334,note_off,36,3276,64,320
5564,1214.000000,note_on,40,2866,64,0
5565,1214.000000,pitchwheel,40,2866,64,0
5566,1214.000000,note_off,40,2866,64,320
5567,1214.666667,note_on,36,2047,64,0
5568,1214.666667,pitchwheel,36,2047,64,0
5569,1214.666667,note_off,36,2047,64,160
5570,1215.000000,note_on,38,819,64,0
5571,1215.000000,pitchwheel,38,819,64,0
5572,1215.000000,note_off,38,819,64,160
5573,1215.333334,note_on,47,2457,64,0
5574,1215.333334,pitchwheel,47,2457,64,0
5575,1215.333334,note_off,47,2457,64,320
5576,1216.000000,note_on,45,2047,64,0
5577,1216.000000,pitchwheel,45,2047,64,0
5578,1216.000000,note_off,45,2047,64,320
5579,1216.666667,note_on,40,0,64,0
5580,1216.666667,note_off,40,0,64,160
5581,1217.000000,note_on,45,0,64,0
5582,1217.000000,note_off,45,0,64,160
5583,1217.333334,note_on,38,2457,64,0
5584,1217.333334,pitchwheel,38,2457,64,0
5585,1217.333334,note_off,38,2457,64,320
5586,1218.000000,note_on,40,2457,64,0
5587,1218.000000,pitchwheel,40,2457,64,0
5588,1218.000000,note_off,40,2457,64,320
5589,1218.666667,note_on,39,819,64,0
5590,1218.666667,pitchwheel,39,819,64,0
5591,1218.666667,note_off,39,819,64,160
5592,1219.000000,note_on,38,819,64,0
5593,1219.000000,pitchwheel,38,819,64,0
5594,1219.000000,note_off,38,819,64,160
5595,1219.333334,note_on,43,1638,64,0
5596,1219.333334,pitchwheel,43,1638,64,0
5597,1219.333334,note_off,43,1638,64,320
5598,1220.000000,note_on,46,0,64,0
5599,1220.000000,note_off,46,0,64,320
5600,1220.666667,note_on,50,0,64,0
5601,1220.666667,note_off,50,0,64,320
5602,1221.333334,note_on,48,3276,64,0
5603,1221.333334,pitchwheel,48,3276,64,0
5604,1221.333334,note_off,48,3276,64,320
5605,1222.000000,note_on,50,2457,64,0
5606,1222.000000,pitchwheel,50,2457,64,0
5607,1222.000000,note_off,50,2457,64,320
5608,1222.666667,note_on,48,2047,64,0
5609,1222.666667,pitchwheel,48,2047,64,0
5610,1222.666667,note_off,48,2047,64,160
5611,1223.000000,note_on,47,2457,64,0
5612,1223.000000,pitchwheel,47,2457,64,0
5613,1223.000000,note_off,47,2457,64,160
5614,1223.333334,note_on,43,0,64,0
5615,1223.333334,note_off,43,0,64,320
5616,1224.000000,note_on,46,1638,64,0
5617,1224.000000,pitchwheel,46,1638,64,0
5618,1224.000000,note_off,46,1638,64,320
5619,1224.666667,note_on,41,0,64,0
5620,1224.666667,note_off,41,0,64,160
5621,1225.000000,note_on,37,0,64,0
5622,1225.000000,note_off,37,0,64,160
5623,1225.333334,note_on,40,2866,64,0
5624,1225.333334,pitchwheel,40,2866,64,0
5625,1225.333334,note_off,40,2866,64,320
5626,1226.000000,note_on,36,819,64,0
5627,1226.000000,pitchwheel,36,819,64,0
5628,1226.000000,note_off,36,819,64,320
5629,1226.666667,note_on,37,0,64,0
5630,1226.666667,note_off,37,0,64,160
5631,1227.000000,note_on,40,2457,64,0
5632,1227.000000,pitchwheel,40,2457,64,0
5633,1227.000000,note_off,40,2457,64,160
5634,1227.333334,note_on,41,0,64,0
5635,1227.333334,note_off,41,0,64,320
5636,1228.000000,note_on,38,2457,64,0
5637,1228.000000,pitchwheel,38,2457,64,0
5638,1228.000000,note_off,38,2457,64,320
5639,1228.666667,note_on,38,819,64,0
5640,1228.666667,pitchwheel,38,819,64,0
5641,1228.666667,note_off,38,819,64,160
5642,1229.000000,note_on,36,819,64,0
5643,1229.000000,pitchwheel,36,819,64,0
5644,1229.000000,note_off,36,819,64,160
5645,1229.333334,note_on,41,2457,64,0
5646,1229.333334,pitchwheel,41,2457,64,0
5647,1229.333334,note_off,41,2457,64,320
5648,1230.000000,note_on,47,3276,64,0
5649,1230.000000,pitchwheel,47,3276,64,0
5650,1230.000000,note_off,47,3276,64,480
5651,1231.000000,note_on,38,0,64,0
5652,1231.000000,note_off,38,0,64,480
5653,1232.000000,note_on,47,2457,64,0
5654,1232.000000,pitchwheel,47,2457,64,0
5655,1232.000000,note_off,47,2457,64,480
5656,1233.000000,note_on,38,2457,64,0
5657,1233.000000,pitchwheel,38,2457,64,0
5658,1233.000000,note_off,38,2457,64,160
5659,1233.333334,note_on,47,2047,64,0
5660,1233.333334,pitchwheel,47,2047,64,0
5661,1233.333334,note_off,47,2047,64,320
5662,1234.000000,note_on,45,0,64,0
5663,1234.000000,note_off,45,0,64,320
5664,1234.666667,note_on,39,819,64,0
5665,1234.666667,pitchwheel,39,819,64,0
5666,1234.666667,note_off,39,819,64,160
5667,1235.000000,note_on,43,0,64,0
5668,1235.000000,note_off,43,0,64,160
5669,1235.333334,note_on,48,819,64,0
5670,1235.333334,pitchwheel,48,819,64,0
5671,1235.333334,note_off,48,819,64,320
5672,1236.000000,note_on,47,3685,64,0
5673,1236.000000,pitchwheel,47,3685,64,0
5674,1236.000000,note_off,47,3685,64,320
5675,1236.666667,note_on,43,0,64,0
5676,1236.666667,note_off,43,0,64,160
5677,1237.000000,note_on,45,3276,64,0
5678,1237.000000,pitchwheel,45,3276,64,0
5679,1237.000000,note_off,45,3276,64,160
5680,1237.333334,note_on,45,2047,64,0
5681,1237.333334,pitchwheel,45,2047,64,0
5682,1237.333334,note_off,45,2047,64,800
5683,1239.333334,note_on,43,0,64,0
5684,1239.333334,note_off,43,0,64,320
5685,1240.000000,note_on,41,0,64,0
5686,1240.000000,note_off,41,0,64,480
5687,1241.000000,note_on,36,2047,64,0
5688,1241.000000,pitchwheel,36,2047,64,0
5689,1241.000000,note_off,36,2047,64,160
5690,1241.333334,note_on,45,2047,64,0
5691,1241.333334,pitchwheel,45,2047,64,0
5692,1241.333334,note_off,45,2047,64,320
5693,1242.000000,note_on,47,2457,64,0
5694,1242.000000,pitchwheel,47,2457,64,0
5695,1242.000000,note_off,47,2457,64,320
5696,1242.666667,note_on,38,2457,64,0
5697,1242.666667,pitchwheel,38,2457,64,0
5698,1242.666667,note_off,38,2457,64,160
5699,1243.000000,note_on,38,819,64,0
5700,1243.000000,pitchwheel,38,819,64,0
5701,1243.000000,note_off,38,819,64,160
5702,1243.333334,note_on,40,2866,64,0
5703,1243.333334,pitchwheel,40,2866,64,0
5704,1243.333334,note_off,40,2866,64,320
5705,1244.000000,note_on,43,2866,64,0
5706,1244.000000,pitchwheel,43,2866,64,0
5707,1244.000000,note_off,43,2866,64,320
5708,1244.666667,note_on,45,1638,64,0
5709,1244.666667,pitchwheel,45,1638,64,0
5710,1244.666667,note_off,45,1638,64,320
5711,1245.333334,note_on,46,1638,64,0
5712,1245.333334,pitchwheel,46,1638,64,0
5713,1245.333334,note_off,46,1638,64,320
5714,1246.000000,note_on,43,1638,64,0
5715,1246.000000,pitchwheel,43,1638,64,0
5716,1246.000000,note_off,43,1638,64,320
5717,1246.666667,note_on,41,0,64,0
5718,1246.666667,note_off,41,0,64,320
5719,1247.333334,note_on,38,0,64,0
5720,1247.333334,note_off,38,0,64,320
5721,1248.000000,note_on,47,2457,64,0
5722,1248.000000,pitchwheel,47,2457,64,0
5723,1248.000000,note_off,47,2457,64,320
5724,1248.666667,note_on,38,2457,64,0
5725,1248.666667,pitchwheel,38,2457,64,0
5726,1248.666667,note_off,38,2457,64,320
5727,1249.333334,note_on,45,0,64,0
5728,1249.333334,note_off,45,0,64,320
5729,1250.000000,note_on,47,2047,64,0
5730,1250.000000,pitchwheel,47,2047,64,0
5731,1250.000000,note_off,47,2047,64,320
5732,1250.666667,note_on,45,2047,64,0
5733,1250.666667,pitchwheel,45,2047,64,0
5734,1250.666667,note_off,45,2047,64,160
5735,1251.000000,note_on,40,2457,64,0
5736,1251.000000,pitchwheel,40,2457,64,0
5737,1251.000000,note_off,40,2457,64,160
5738,1251.333334,note_on,41,0,64,0
5739,1251.333334,note_off,41,0,64,320
5740,1252.000000,note_on,40,2457,64,0
5741,1252.000000,pitchwheel,40,2457,64,0
5742,1252.000000,note_off,40,2457,64,480
5743,1253.000000,note_on,41,0,64,0
5744,1253.000000,note_off,41,0,64,160
5745,1253.333334,note_on,40,2457,64,0
5746,1253.333334,pitchwheel,40,2457,64,0
5747,1253.333334,note_off,40,2457,64,320
5748,1254.000000,note_on,36,2047,64,0
5749,1254.000000,pitchwheel,36,2047,64,0
5750,1254.000000,note_off,36,2047,64,480
5751,1255.000000,note_on,40,2457,64,0
5752,1255.000000,pitchwheel,40,2457,64,0
5753,1255.000000,note_off,40,2457,64,160
5754,1255.333334,note_on,47,3276,64,0
5755,1255.333334,pitchwheel,47,3276,64,0
5756,1255.333334,note_off,47,3276,64,320
5757,1256.000000,note_on,39,819,64,0
5758,1256.000000,pitchwheel,39,819,64,0
5759,1256.000000,note_off,39,819,64,320
5760,1256.666667,note_on,45,0,64,0
5761,1256.666667,note_off,45,0,64,320
5762,1257.333334,note_on,45,2047,64,0
5763,1257.333334,pitchwheel,45,2047,64,0
5764,1257.333334,note_off,45,2047,64,320
5765,1258.000000,note_on,43,1638,64,0
5766,1258.000000,pitchwheel,43,1638,64,0
5767,1258.000000,note_off,43,1638,64,320
5768,1258.666667,note_on,47,3685,64,0
5769,1258.666667,pitchwheel,47,3685,64,0
5770,1258.666667,note_off,47,3685,64,160
5771,1259.000000,note_on,43,0,64,0
5772,1259.000000,note_off,43,0,64,480
5773,1260.000000,note_on,43,1638,64,0
5774,1260.000000,pitchwheel,43,1638,64,0
5775,1260.000000,note_off,43,1638,64,320
5776,1260.666667,note_on,38,819,64,0
5777,1260.666667,pitchwheel,38,819,64,0
5778,1260.666667,note_off,38,819,64,320
5779,1261.333334,note_on,38,3685,64,0
5780,1261.333334,pitchwheel,38,3685,64,0
5781,1261.333334,note_off,38,3685,64,320
5782,1262.000000,note_on,43,409,64,0
5783,1262.000000,pitchwheel,43,409,64,0
5784,1262.000000,note_off,43,409,64,320
5785,1262.666667,note_on,45,2047,64,0
5786,1262.666667,pitchwheel,45,2047,64,0
5787,1262.666667,note_off,45,2047,64,160
5788,1263.000000,note_on,43,1638,64,0
5789,1263.000000,pitchwheel,43,1638,64,0
5790,1263.000000,note_off,43,1638,64,160
5791,1263.333334,note_on,40,2457,64,0
5792,1263.333334,pitchwheel,40,2457,64,0
5793,1263.333334,note_off,40,2457,64,320
5794,1264.000000,note_on,36,819,64,0
5795,1264.000000,pitchwheel,36,819,64,0
5796,1264.000000,note_off,36,819,64,320
5797,1264.666667,note_on,45,0,64,0
5798,1264.666667,note_off,45,0,64,320
5799,1265.333334,note_on,38,3685,64,0
5800,1265.333334,pitchwheel,38,3685,64,0
5801,1265.333334,note_off,38,3685,64,320
5802,1266.000000,note_on,40,2457,64,0
5803,1266.000000,pitchwheel,40,2457,64,0
5804,1266.000000,note_off,40,2457,64,320
5805,1266.666667,note_on,36,3276,64,0
5806,1266.666667,pitchwheel,36,3276,64,0
5807,1266.666667,note_off,36,3276,64,160
5808,1267.000000,note_on,45,1638,64,0
5809,1267.000000,pitchwheel,45,1638,64,0
5810,1267.000000,note_off,45,1638,64,480
5811,1268.000000,note_on,46,1638,64,0
5812,1268.000000,pitchwheel,46,1638,64,0
5813,1268.000000,note_off,46,1638,64,320
5814,1268.666667,note_on,43,1638,64,0
5815,1268.666667,pitchwheel,43,1638,64,0
5816,1268.666667,note_off,43,1638,64,160
5817,1269.000000,note_on,45,3276,64,0
5818,1269.000000,pitchwheel,45,3276,64,0
5819,1269.000000,note_off,45,3276,64,160
5820,1269.333334,note_on,44,0,64,0
5821,1269.333334,note_off,44,0,64,320
5822,1270.000000,note_on,47,2047,64,0
5823,1270.000000,pitchwheel,47,2047,64,0
5824,1270.000000,note_off,47,2047,64,320
5825,1270.666667,note_on,53,0,64,0
5826,1270.666667,note_off,53,0,64,320
5827,1271.333334,note_on,55,0,64,0
5828,1271.333334,note_off,55,0,64,320
5829,1272.000000,note_on,58,1638,64,0
5830,1272.000000,pitchwheel,58,1638,64,0
5831,1272.000000,note_off,58,1638,64,320
5832,1272.666667,note_on,53,0,64,0
5833,1272.666667,note_off,53,0,64,160
5834,1273.000000,note_on,50,3685,64,0
5835,1273.000000,pitchwheel,50,3685,64,0
5836,1273.000000,note_off,50,3685,64,160
5837,1273.333334,note_on,55,1638,64,0
5838,1273.333334,pitchwheel,55,1638,64,0
5839,1273.333334,note_off,55,1638,64,320
5840,1274.000000,note_on,53,0,64,0
5841,1274.000000,note_off,53,0,64,320
5842,1274.666667,note_on,58,1638,64,0
5843,1274.666667,pitchwheel,58,1638,64,0
5844,1274.666667,note_off,58,1638,64,160
5845,1275.000000,note_on,59,3276,64,0
5846,1275.000000,pitchwheel,59,3276,64,0
5847,1275.000000,note_off,59,3276,64,160
5848,1275.333334,note_on,50,3685,64,0
5849,1275.333334,pitchwheel,50,3685,64,0
5850,1275.333334,note_off,50,3685,64,320
5851,1276.000000,note_on,48,2047,64,0
5852,1276.000000,pitchwheel,48,2047,64,0
5853,1276.000000,note_off,48,2047,64,320
5854,1276.666667,note_on,57,1638,64,0
5855,1276.666667,pitchwheel,57,1638,64,0
5856,1276.666667,note_off,57,1638,64,160
5857,1277.000000,note_on,48,819,64,0
5858,1277.000000,pitchwheel,48,819,64,0
5859,1277.000000,note_off,48,819,64,480
5860,1278.000000,note_on,48,2047,64,0
5861,1278.000000,pitchwheel,48,2047,64,0
5862,1278.000000,note_off,48,2047,64,320
5863,1278.666667,note_on,50,1228,64,0
5864,1278.666667,pitchwheel,50,1228,64,0
5865,1278.666667,note_off,50,1228,64,320
5866,1280.000000,note_on,59,2047,64,0
5867,1280.000000,pitchwheel,59,2047,64,0
5868,1280.000000,note_off,59,2047,64,320
5869,1280.666667,note_on,53,0,64,0
5870,1280.666667,note_off,53,0,64,320
5871,1281.333334,note_on,52,1638,64,0
5872,1281.333334,pitchwheel,52,1638,64,0
5873,1281.333334,note_off,52,1638,64,320
5874,1282.000000,note_on,55,0,64,0
5875,1282.000000,note_off,55,0,64,320
5876,1282.666667,note_on,53,0,64,0
5877,1282.666667,note_off,53,0,64,160
5878,1283.000000,note_on,47,3276,64,0
5879,1283.000000,pitchwheel,47,3276,64,0
5880,1283.000000,note_off,47,3276,64,160
5881,1283.333334,note_on,49,0,64,0
5882,1283.333334,note_off,49,0,64,320
5883,1284.000000,note_on,46,0,64,0
5884,1284.000000,note_off,46,0,64,480
5885,1285.000000,note_on,45,0,64,0
5886,1285.000000,note_off,45,0,64,160
5887,1285.333334,note_on,44,0,64,0
5888,1285.333334,note_off,44,0,64,320
5889,1286.000000,note_on,46,0,64,0
5890,1286.000000,note_off,46,0,64,320
5891,1286.666667,note_on,49,0,64,0
5892,1286.666667,note_off,49,0,64,320
5893,1287.333334,note_on,52,2457,64,0
5894,1287.333334,pitchwheel,52,2457,64,0
5895,1287.333334,note_off,52,2457,64,320
5896,1288.000000,note_on,51,819,64,0
5897,1288.000000,pitchwheel,51,819,64,0
5898,1288.000000,note_off,51,819,64,320
5899,1288.666667,note_on,45,3276,64,0
5900,1288.666667,pitchwheel,45,3276,64,0
5901,1288.666667,note_off,45,3276,64,320
5902,1289.333334,note_on,46,409,64,0
5903,1289.333334,pitchwheel,46,409,64,0
5904,1289.333334,note_off,46,409,64,320
5905,1290.000000,note_on,50,819,64,0
5906,1290.000000,pitchwheel,50,819,64,0
5907,1290.000000,note_off,50,819,64,320
5908,1290.666667,note_on,51,819,64,0
5909,1290.666667,pitchwheel,51,819,64,0
5910,1290.666667,note_off,51,819,64,160
5911,1291.000000,note_on,50,819,64,0
5912,1291.000000,pitchwheel,50,819,64,0
5913,1291.000000,note_off,50,819,64,160
5914,1291.333334,note_on,45,0,64,0
5915,1291.333334,note_off,45,0,64,320
5916,1292.000000,note_on,41,2457,64,0
5917,1292.000000,pitchwheel,41,2457,64,0
5918,1292.000000,note_off,41,2457,64,320
5919,1292.666667,note_on,38,819,64,0
5920,1292.666667,pitchwheel,38,819,64,0
5921,1292.666667,note_off,38,819,64,160
5922,1293.000000,note_on,45,3276,64,0
5923,1293.000000,pitchwheel,45,3276,64,0
5924,1293.000000,note_off,45,3276,64,160
5925,1293.333334,note_on,47,2047,64,0
5926,1293.333334,pitchwheel,47,2047,64,0
5927,1293.333334,note_off,47,2047,64,320
5928,1294.000000,note_on,45,2047,64,0
5929,1294.000000,pitchwheel,45,2047,64,0
5930,1294.000000,note_off,45,2047,64,320
5931,1294.666667,note_on,47,3276,64,0
5932,1294.666667,pitchwheel,47,3276,64,0
5933,1294.666667,note_off,47,3276,64,160
5934,1295.000000,note_on,43,0,64,0
5935,1295.000000,note_off,43,0,64,160
5936,1295.333334,note_on,46,409,64,0
5937,1295.333334,pitchwheel,46,409,64,0
5938,1295.333334,note_off,46,409,64,320
5939,1296.000000,note_on,46,0,64,0
5940,1296.000000,note_off,46,0,64,320
5941,1296.666667,note_on,45,2047,64,0
5942,1296.666667,pitchwheel,45,2047,64,0
5943,1296.666667,note_off,45,2047,64,160
5944,1297.000000,note_on,45,0,64,0
5945,1297.000000,note_off,45,0,64,480
5946,1298.000000,note_on,47,3276,64,0
5947,1298.000000,pitchwheel,47,3276,64,0
5948,1298.000000,note_off,47,3276,64,320
5949,1298.666667,note_on,45,3276,64,0
5950,1298.666667,pitchwheel,45,3276,64,0
5951,1298.666667,note_off,45,3276,64,160
5952,1299.000000,note_on,40,2457,64,0
5953,1299.000000,pitchwheel,40,2457,64,0
5954,1299.000000,note_off,40,2457,64,160
5955,1299.333334,note_on,38,2457,64,0
5956,1299.333334,pitchwheel,38,2457,64,0
5957,1299.333334,note_off,38,2457,64,320
5958,1300.000000,note_on,37,0,64,0
5959,1300.000000,note_off,37,0,64,320
5960,1300.666667,note_on,36,2047,64,0
5961,1300.666667,pitchwheel,36,2047,64,0
5962,1300.666667,note_off,36,2047,64,320
5963,1301.333334,note_on,41,2457,64,0
5964,1301.333334,pitchwheel,41,2457,64,0
5965,1301.333334,note_off,41,2457,64,320
5966,1302.000000,note_on,38,2457,64,0
5967,1302.000000,pitchwheel,38,2457,64,0
5968,1302.000000,note_off,38,2457,64,320
5969,1302.666667,note_on,45,0,64,0
5970,1302.666667,note_off,45,0,64,160
5971,1303.000000,note_on,46,409,64,0
5972,1303.000000,pitchwheel,46,409,64,0
5973,1303.000000,note_off,46,409,64,160
5974,1303.333334,note_on,45,1638,64,0
5975,1303.333334,pitchwheel,45,1638,64,0
5976,1303.333334,note_off,45,1638,64,320
5977,1304.000000,note_on,46,0,64,0
5978,1304.000000,note_off,46,0,64,320
5979,1304.666667,note_on,41,0,64,0
5980,1304.666667,note_off,41,0,64,160
5981,1305.000000,note_on,47,2047,64,0
5982,1305.000000,pitchwheel,47,2047,64,0
5983,1305.000000,note_off,47,2047,64,160
5984,1305.333334,note_on,41,1228,64,0
5985,1305.333334,pitchwheel,41,1228,64,0
5986,1305.333334,note_off,41,1228,64,320
5987,1306.000000,note_on,36,819,64,0
5988,1306.000000,pitchwheel,36,819,64,0
5989,1306.000000,note_off,36,819,64,320
5990,1306.666667,note_on,40,0,64,0
5991,1306.666667,note_off,40,0,64,160
5992,1307.000000,note_on,43,0,64,0
5993,1307.000000,note_off,43,0,64,160
5994,1307.333334,note_on,38,2457,64,0
5995,1307.333334,pitchwheel,38,2457,64,0
5996,1307.333334,note_off,38,2457,64,320
5997,1308.000000,note_on,46,1638,64,0
5998,1308.000000,pitchwheel,46,1638,64,0
5999,1308.000000,note_off,46,1638,64,320
6000,1308.666667,note_on,45,1638,64,0
6001,1308.666667,pitchwheel,45,1638,64,0
6002,1308.666667,note_off,45,1638,64,160
6003,1309.000000,note_on,41,0,64,0
6004,1309.000000,note_off,41,0,64,480
6005,1310.000000,note_on,38,3685,64,0
6006,1310.000000,pitchwheel,38,3685,64,0
6007,1310.000000,note_off,38,3685,64,320
6008,1310.666667,note_on,46,0,64,0
6009,1310.666667,note_off,46,0,64,160
6010,1311.000000,note_on,36,2047,64,0
6011,1311.000000,pitchwheel,36,2047,64,0
6012,1311.000000,note_off,36,2047,64,480
6013,1312.000000,note_on,46,0,64,0
6014,1312.000000,note_off,46,0,64,480
6015,1313.000000,note_on,38,2457,64,0
6016,1313.000000,pitchwheel,38,2457,64,0
6017,1313.000000,note_off,38,2457,64,160
6018,1313.333334,note_on,44,2047,64,0
6019,1313.333334,pitchwheel,44,2047,64,0
6020,1313.333334,note_off,44,2047,64,320
6021,1314.000000,note_on,45,0,64,0
6022,1314.000000,note_off,45,0,64,320
6023,1314.666667,note_on,43,2866,64,0
6024,1314.666667,pitchwheel,43,2866,64,0
6025,1314.666667,note_off,43,2866,64,160
6026,1315.000000,note_on,45,1638,64,0
6027,1315.000000,pitchwheel,45,1638,64,0
6028,1315.000000,note_off,45,1638,64,160
6029,1315.333334,note_on,50,1228,64,0
6030,1315.333334,pitchwheel,50,1228,64,0
6031,1315.333334,note_off,50,1228,64,320
6032,1316.000000,note_on,50,2457,64,0
6033,1316.000000,pitchwheel,50,2457,64,0
6034,1316.000000,note_off,50,2457,64,320
6035,1316.666667,note_on,47,3276,64,0
6036,1316.666667,pitchwheel,47,3276,64,0
6037,1316.666667,note_off,47,3276,64,160
6038,1317.000000,note_on,50,2457,64,0
6039,1317.000000,pitchwheel,50,2457,64,0
6040,1317.000000,note_off,50,2457,64,160
6041,1317.333334,note_on,47,2457,64,0
6042,1317.333334,pitchwheel,47,2457,64,0
6043,1317.333334,note_off,47,2457,64,320
6044,1318.000000,note_on,45,0,64,0
6045,1318.000000,note_off,45,0,64,320
6046,1318.666667,note_on,50,1228,64,0
6047,1318.666667,pitchwheel,50,1228,64,0
6048,1318.666667,note_off,50,1228,64,320
6049,1319.333334,note_on,52,2457,64,0
6050,1319.333334,pitchwheel,52,2457,64,0
6051,1319.333334,note_off,52,2457,64,320
6052,1320.000000,note_on,51,819,64,0
6053,1320.000000,pitchwheel,51,819,64,0
6054,1320.000000,note_off,51,819,64,640
6055,1321.333334,note_on,47,3685,64,0
6056,1321.333334,pitchwheel,47,3685,64,0
6057,1321.333334,note_off,47,3685,64,320
6058,1322.000000,note_on,45,2047,64,0
6059,1322.000000,pitchwheel,45,2047,64,0
6060,1322.000000,note_off,45,2047,64,320
6061,1322.666667,note_on,44,0,64,0
6062,1322.666667,note_off,44,0,64,160
6063,1323.000000,note_on,43,0,64,0
6064,1323.000000,note_off,43,0,64,160
6065,1323.333334,note_on,47,3685,64,0
6066,1323.333334,pitchwheel,47,3685,64,0
6067,1323.333334,note_off,47,3685,64,320
6068,1324.000000,note_on,48,3276,64,0
6069,1324.000000,pitchwheel,48,3276,64,0
6070,1324.000000,note_off,48,3276,64,320
6071,1324.666667,note_on,50,819,64,0
6072,1324.666667,pitchwheel,50,819,64,0
6073,1324.666667,note_off,50,819,64,160
6074,1325.000000,note_on,52,0,64,0
6075,1325.000000,note_off,52,0,64,160
6076,1325.333334,note_on,48,3276,64,0
6077,1325.333334,pitchwheel,48,3276,64,0
6078,1325.333334,note_off,48,3276,64,320
6079,1326.000000,note_on,43,409,64,0
6080,1326.000000,pitchwheel,43,409,64,0
6081,1326.000000,note_off,43,409,64,320
6082,1326.666667,note_on,43,0,64,0
6083,1326.666667,note_off,43,0,64,320
6084,1327.333334,note_on,43,409,64,0
6085,1327.333334,pitchwheel,43,409,64,0
6086,1327.333334,note_off,43,409,64,320
6087,1328.000000,note_on,46,1638,64,0
6088,1328.000000,pitchwheel,46,1638,64,0
6089,1328.000000,note_off,46,1638,64,320
6090,1328.666667,note_on,41,0,64,0
6091,1328.666667,note_off,41,0,64,320
6092,1329.333334,note_on,40,2866,64,0
6093,1329.333334,pitchwheel,40,2866,64,0
6094,1329.333334,note_off,40,2866,64,320
6095,1330.000000,note_on,47,3276,64,0
6096,1330.000000,pitchwheel,47,3276,64,0
6097,1330.000000,note_off,47,3276,64,320
6098,1330.666667,note_on,46,1638,64,0
6099,1330.666667,pitchwheel,46,1638,64,0
6100,1330.666667,note_off,46,1638,64,160
6101,1331.000000,note_on,40,2457,64,0
6102,1331.000000,pitchwheel,40,2457,64,0
6103,1331.000000,note_off,40,2457,64,160
6104,1331.333334,note_on,45,2047,64,0
6105,1331.333334,pitchwheel,45,2047,64,0
6106,1331.333334,note_off,45,2047,64,320
6107,1332.000000,note_on,45,3276,64,0
6108,1332.000000,pitchwheel,45,3276,64,0
6109,1332.000000,note_off,45,3276,64,480
6110,1333.000000,note_on,41,1228,64,0
6111,1333.000000,pitchwheel,41,1228,64,0
6112,1333.000000,note_off,41,1228,64,160
6113,1333.333334,note_on,44,2047,64,0
6114,1333.333334,pitchwheel,44,2047,64,0
6115,1333.333334,note_off,44,2047,64,320
6116,1334.000000,note_on,40,1638,64,0
6117,1334.000000,pitchwheel,40,1638,64,0
6118,1334.000000,note_off,40,1638,64,320
6119,1334.666667,note_on,41,0,64,0
6120,1334.666667,note_off,41,0,64,160
6121,1335.000000,note_on,45,1638,64,0
6122,1335.000000,pitchwheel,45,1638,64,0
6123,1335.000000,note_off,45,1638,64,480
6124,1336.000000,note_on,44,0,64,0
6125,1336.000000,note_off,44,0,64,320
6126,1336.666667,note_on,41,0,64,0
6127,1336.666667,note_off,41,0,64,160
6128,1337.000000,note_on,45,0,64,0
6129,1337.000000,note_off,45,0,64,160
6130,1337.333334,note_on,45,1638,64,0
6131,1337.333334,pitchwheel,45,1638,64,0
6132,1337.333334,note_off,45,1638,64,320
6133,1338.000000,note_on,41,0,64,0
6134,1338.000000,note_off,41,0,64,320
6135,1338.666667,note_on,44,0,64,0
6136,1338.666667,note_off,44,0,64,160
6137,1339.000000,note_on,38,819,64,0
6138,1339.000000,pitchwheel,38,819,64,0
6139,1339.000000,note_off,38,819,64,480
6140,1340.000000,note_on,40,0,64,0
6141,1340.000000,note_off,40,0,64,320
6142,1340.666667,note_on,43,0,64,0
6143,1340.666667,note_off,43,0,64,320
6144,1341.333334,note_on,46,0,64,0
6145,1341.333334,note_off,46,0,64,320
6146,1342.000000,note_on,50,2457,64,0
6147,1342.000000,pitchwheel,50,2457,64,0
6148,1342.000000,note_off,50,2457,64,320
6149,1342.666667,note_on,53,0,64,0
6150,1342.666667,note_off,53,0,64,160
6151,1343.000000,note_on,57,2047,64,0
6152,1343.000000,pitchwheel,57,2047,64,0
6153,1343.000000,note_off,57,2047,64,160
6154,1343.333334,note_on,59,3276,64,0
6155,1343.333334,pitchwheel,59,3276,64,0
6156,1343.333334,note_off,59,3276,64,320
6157,1344.000000,note_on,56,0,64,0
6158,1344.000000,note_off,56,0,64,320
6159,1344.666667,note_on,57,0,64,0
6160,1344.666667,note_off,57,0,64,160
6161,1345.000000,note_on,56,2047,64,0
6162,1345.000000,pitchwheel,56,2047,64,0
6163,1345.000000,note_off,56,2047,64,480
6164,1346.000000,note_on,52,2457,64,0
6165,1346.000000,pitchwheel,52,2457,64,0
6166,1346.000000,note_off,52,2457,64,320
6167,1346.666667,note_on,51,819,64,0
6168,1346.666667,pitchwheel,51,819,64,0
6169,1346.666667,note_off,51,819,64,160
6170,1347.000000,note_on,47,3276,64,0
6171,1347.000000,pitchwheel,47,3276,64,0
6172,1347.000000,note_off,47,3276,64,480
6173,1348.000000,note_on,45,0,64,0
6174,1348.000000,note_off,45,0,64,320
6175,1348.666667,note_on,45,2047,64,0
6176,1348.666667,pitchwheel,45,2047,64,0
6177,1348.666667,note_off,45,2047,64,160
6178,1349.000000,note_on,48,2047,64,0
6179,1349.000000,pitchwheel,48,2047,64,0
6180,1349.000000,note_off,48,2047,64,160
6181,1349.333334,note_on,46,1638,64,0
6182,1349.333334,pitchwheel,46,1638,64,0
6183,1349.333334,note_off,46,1638,64,320
6184,1350.000000,note_on,44,2047,64,0
6185,1350.000000,pitchwheel,44,2047,64,0
6186,1350.000000,note_off,44,2047,64,320
6187,1350.666667,note_on,48,819,64,0
6188,1350.666667,pitchwheel,48,819,64,0
6189,1350.666667,note_off,48,819,64,160
6190,1351.000000,note_on,43,409,64,0
6191,1351.000000,pitchwheel,43,409,64,0
6192,1351.000000,note_off,43,409,64,160
6193,1351.333334,note_on,38,819,64,0
6194,1351.333334,pitchwheel,38,819,64,0
6195,1351.333334,note_off,38,819,64,320
6196,1352.000000,note_on,39,819,64,0
6197,1352.000000,pitchwheel,39,819,64,0
6198,1352.000000,note_off,39,819,64,320
6199,1352.666667,note_on,36,2047,64,0
6200,1352.666667,pitchwheel,36,2047,64,0
6201,1352.666667,note_off,36,2047,64,160
6202,1353.000000,note_on,41,0,64,0
6203,1353.000000,note_off,41,0,64,160
6204,1353.333334,note_on,46,0,64,0
6205,1353.333334,note_off,46,0,64,320
6206,1354.000000,note_on,47,3685,64,0
6207,1354.000000,pitchwheel,47,3685,64,0
6208,1354.000000,note_off,47,3685,64,320
6209,1354.666667,note_on,46,1638,64,0
6210,1354.666667,pitchwheel,46,1638,64,0
6211,1354.666667,note_off,46,1638,64,160
6212,1355.000000,note_on,45,1638,64,0
6213,1355.000000,pitchwheel,45,1638,64,0
6214,1355.000000,note_off,45,1638,64,160
6215,1355.333334,note_on,50,0,64,0
6216,1355.333334,note_off,50,0,64,320
6217,1356.000000,note_on,45,0,64,0
6218,1356.000000,note_off,45,0,64,320
6219,1356.666667,note_on,47,3276,64,0
6220,1356.666667,pitchwheel,47,3276,64,0
6221,1356.666667,note_off,47,3276,64,160
6222,1357.000000,note_on,46,409,64,0
6223,1357.000000,pitchwheel,46,409,64,0
6224,1357.000000,note_off,46,409,64,160
6225,1357.333334,note_on,50,3685,64,0
6226,1357.333334,pitchwheel,50,3685,64,0
6227,1357.333334,note_off,50,3685,64,320
6228,1358.000000,note_on,46,409,64,0
6229,1358.000000,pitchwheel,46,409,64,0
6230,1358.000000,note_off,46,409,64,320
6231,1358.666667,note_on,45,3276,64,0
6232,1358.666667,pitchwheel,45,3276,64,0
6233,1358.666667,note_off,45,3276,64,320
6234,1360.000000,note_on,45,1638,64,0
6235,1360.000000,pitchwheel,45,1638,64,0
6236,1360.000000,note_off,45,1638,64,320
6237,1360.666667,note_on,41,0,64,0
6238,1360.666667,note_off,41,0,64,160
6239,1361.000000,note_on,40,1638,64,0
6240,1361.000000,pitchwheel,40,1638,64,0
6241,1361.000000,note_off,40,1638,64,480
6242,1362.000000,note_on,41,0,64,0
6243,1362.000000,note_off,41,0,64,320
6244,1362.666667,note_on,36,2047,64,0
6245,1362.666667,pitchwheel,36,2047,64,0
6246,1362.666667,note_off,36,2047,64,160
6247,1363.000000,note_on,45,1638,64,0
6248,1363.000000,pitchwheel,45,1638,64,0
6249,1363.000000,note_off,45,1638,64,480
6250,1364.000000,note_on,44,0,64,0
6251,1364.000000,note_off,44,0,64,480
6252,1365.000000,note_on,38,2457,64,0
6253,1365.000000,pitchwheel,38,2457,64,0
6254,1365.000000,note_off,38,2457,64,160
6255,1365.333334,note_on,45,2047,64,0
6256,1365.333334,pitchwheel,45,2047,64,0
6257,1365.333334,note_off,45,2047,64,320
6258,1366.000000,note_on,40,2457,64,0
6259,1366.000000,pitchwheel,40,2457,64,0
6260,1366.000000,note_off,40,2457,64,320
6261,1366.666667,note_on,40,0,64,0
6262,1366.666667,note_off,40,0,64,320
6263,1367.333334,note_on,47,3276,64,0
6264,1367.333334,pitchwheel,47,3276,64,0
6265,1367.333334,note_off,47,3276,64,320
6266,1368.000000,note_on,39,819,64,0
6267,1368.000000,pitchwheel,39,819,64,0
6268,1368.000000,note_off,39,819,64,320
6269,1368.666667,note_on,38,1228,64,0
6270,1368.666667,pitchwheel,38,1228,64,0
6271,1368.666667,note_off,38,1228,64,320
6272,1369.333334,note_on,38,2457,64,0
6273,1369.333334,pitchwheel,38,2457,64,0
6274,1369.333334,note_off,38,2457,64,320
6275,1370.000000,note_on,45,1638,64,0
6276,1370.000000,pitchwheel,45,1638,64,0
6277,1370.000000,note_off,45,1638,64,320
6278,1370.666667,note_on,45,2047,64,0
6279,1370.666667,pitchwheel,45,2047,64,0
6280,1370.666667,note_off,45,2047,64,160
6281,1371.000000,note_on,43,0,64,0
6282,1371.000000,note_off,43,0,64,160
6283,1371.333334,note_on,45,0,64,0
6284,1371.333334,note_off,45,0,64,320
6285,1372.000000,note_on,43,1638,64,0
6286,1372.000000,pitchwheel,43,1638,64,0
6287,1372.000000,note_off,43,1638,64,320
6288,1372.666667,note_on,45,1638,64,0
6289,1372.666667,pitchwheel,45,1638,64,0
6290,1372.666667,note_off,45,1638,64,160
6291,1373.000000,note_on,48,2047,64,0
6292,1373.000000,pitchwheel,48,2047,64,0
6293,1373.000000,note_off,48,2047,64,160
6294,1373.333334,note_on,46,0,64,0
6295,1373.333334,note_off,46,0,64,320
6296,1374.000000,note_on,48,819,64,0
6297,1374.000000,pitchwheel,48,819,64,0
6298,1374.000000,note_off,48,819,64,320
6299,1374.666667,note_on,50,0,64,0
6300,1374.666667,note_off,50,0,64,160
6301,1375.000000,note_on,47,3276,64,0
6302,1375.000000,pitchwheel,47,3276,64,0
6303,1375.000000,note_off,47,3276,64,160
6304,1375.333334,note_on,47,2457,64,0
6305,1375.333334,pitchwheel,47,2457,64,0
6306,1375.333334,note_off,47,2457,64,320
6307,1376.000000,note_on,43,1638,64,0
6308,1376.000000,pitchwheel,43,1638,64,0
6309,1376.000000,note_off,43,1638,64,320
6310,1376.666667,note_on,43,2866,64,0
6311,1376.666667,pitchwheel,43,2866,64,0
6312,1376.666667,note_off,43,2866,64,160
6313,1377.000000,note_on,45,0,64,0
6314,1377.000000,note_off,45,0,64,160
6315,1377.333334,note_on,50,2457,64,0
6316,1377.333334,pitchwheel,50,2457,64,0
6317,1377.333334,note_off,50,2457,64,320
6318,1378.000000,note_on,55,0,64,0
6319,1378.000000,note_off,55,0,64,320
6320,1378.666667,note_on,58,1638,64,0
6321,1378.666667,pitchwheel,58,1638,64,0
6322,1378.666667,note_off,58,1638,64,160
6323,1379.000000,note_on,52,2457,64,0
6324,1379.000000,pitchwheel,52,2457,64,0
6325,1379.000000,note_off,52,2457,64,160
6326,1379.333334,note_on,55,409,64,0
6327,1379.333334,pitchwheel,55,409,64,0
6328,1379.333334,note_off,55,409,64,320
6329,1380.000000,note_on,55,0,64,0
6330,1380.000000,note_off,55,0,64,320
6331,1380.666667,note_on,50,0,64,0
6332,1380.666667,note_off,50,0,64,320
6333,1381.333334,note_on,48,819,64,0
6334,1381.333334,pitchwheel,48,819,64,0
6335,1381.333334,note_off,48,819,64,320
6336,1382.000000,note_on,50,2457,64,0
6337,1382.000000,pitchwheel,50,2457,64,0
6338,1382.000000,note_off,50,2457,64,320
6339,1382.666667,note_on,53,0,64,0
6340,1382.666667,note_off,53,0,64,160
6341,1383.000000,note_on,57,2047,64,0
6342,1383.000000,pitchwheel,57,2047,64,0
6343,1383.000000,note_off,57,2047,64,160
6344,1383.333334,note_on,52,2457,64,0
6345,1383.333334,pitchwheel,52,2457,64,0
6346,1383.333334,note_off,52,2457,64,320
6347,1384.000000,note_on,52,2866,64,0
6348,1384.000000,pitchwheel,52,2866,64,0
6349,1384.000000,note_off,52,2866,64,320
6350,1384.666667,note_on,57,2047,64,0
6351,1384.666667,pitchwheel,57,2047,64,0
6352,1384.666667,note_off,57,2047,64,160
6353,1385.000000,note_on,53,0,64,0
6354,1385.000000,note_off,53,0,64,160
6355,1385.333334,note_on,57,3276,64,0
6356,1385.333334,pitchwheel,57,3276,64,0
6357,1385.333334,note_off,57,3276,64,320
6358,1386.000000,note_on,55,2866,64,0
6359,1386.000000,pitchwheel,55,2866,64,0
6360,1386.000000,note_off,55,2866,64,320
6361,1386.666667,note_on,58,1638,64,0
6362,1386.666667,pitchwheel,58,1638,64,0
6363,1386.666667,note_off,58,1638,64,160
6364,1387.000000,note_on,50,819,64,0
6365,1387.000000,pitchwheel,50,819,64,0
6366,1387.000000,note_off,50,819,64,160
6367,1387.333334,note_on,53,0,64,0
6368,1387.333334,note_off,53,0,64,320
6369,1388.000000,note_on,48,3276,64,0
6370,1388.000000,pitchwheel,48,3276,64,0
6371,1388.000000,note_off,48,3276,64,320
6372,1388.666667,note_on,43,0,64,0
6373,1388.666667,note_off,43,0,64,160
6374,1389.000000,note_on,43,2866,64,0
6375,1389.000000,pitchwheel,43,2866,64,0
6376,1389.000000,note_off,43,2866,64,160
6377,1389.333334,note_on,38,2457,64,0
6378,1389.333334,pitchwheel,38,2457,64,0
6379,1389.333334,note_off,38,2457,64,320
6380,1390.000000,note_on,40,2457,64,0
6381,1390.000000,pitchwheel,40,2457,64,0
6382,1390.000000,note_off,40,2457,64,320
6383,1390.666667,note_on,46,0,64,0
6384,1390.666667,note_off,46,0,64,160
6385,1391.000000,note_on,47,3685,64,0
6386,1391.000000,pitchwheel,47,3685,64,0
6387,1391.000000,note_off,47,3685,64,480
6388,1392.000000,note_on,45,3276,64,0
6389,1392.000000,pitchwheel,45,3276,64,0
6390,1392.000000,note_off,45,3276,64,480
6391,1393.000000,note_on,50,0,64,0
6392,1393.000000,note_off,50,0,64,160
6393,1393.333334,note_on,52,0,64,0
6394,1393.333334,note_off,52,0,64,320
6395,1394.000000,note_on,52,2457,64,0
6396,1394.000000,pitchwheel,52,2457,64,0
6397,1394.000000,note_off,52,2457,64,320
6398,1394.666667,note_on,53,2457,64,0
6399,1394.666667,pitchwheel,53,2457,64,0
6400,1394.666667,note_off,53,2457,64,160
6401,1395.000000,note_on,47,3276,64,0
6402,1395.000000,pitchwheel,47,3276,64,0
6403,1395.000000,note_off,47,3276,64,160
6404,1395.333334,note_on,50,1228,64,0
6405,1395.333334,pitchwheel,50,1228,64,0
6406,1395.333334,note_off,50,1228,64,320
6407,1396.000000,note_on,50,2457,64,0
6408,1396.000000,pitchwheel,50,2457,64,0
6409,1396.000000,note_off,50,2457,64,320
6410,1396.666667,note_on,55,0,64,0
6411,1396.666667,note_off,55,0,64,160
6412,1397.000000,note_on,53,1228,64,0
6413,1397.000000,pitchwheel,53,1228,64,0
6414,1397.000000,note_off,53,1228,64,160
6415,1397.333334,note_on,55,409,64,0
6416,1397.333334,pitchwheel,55,409,64,0
6417,1397.333334,note_off,55,409,64,320
6418,1398.000000,note_on,57,0,64,0
6419,1398.000000,note_off,57,0,64,480
6420,1399.333334,note_on,50,819,64,0
6421,1399.333334,pitchwheel,50,819,64,0
6422,1399.333334,note_off,50,819,64,320
6423,1400.000000,note_on,59,2047,64,0
6424,1400.000000,pitchwheel,59,2047,64,0
6425,1400.000000,note_off,59,2047,64,480
6426,1401.000000,note_on,53,0,64,0
6427,1401.000000,note_off,53,0,64,160
6428,1401.333334,note_on,52,2457,64,0
6429,1401.333334,pitchwheel,52,2457,64,0
6430,1401.333334,note_off,52,2457,64,320
6431,1402.000000,note_on,47,2457,64,0
6432,1402.000000,pitchwheel,47,2457,64,0
6433,1402.000000,note_off,47,2457,64,320
6434,1402.666667,note_on,46,0,64,0
6435,1402.666667,note_off,46,0,64,160
6436,1403.000000,note_on,45,1638,64,0
6437,1403.000000,pitchwheel,45,1638,64,0
6438,1403.000000,note_off,45,1638,64,160
6439,1403.333334,note_on,49,0,64,0
6440,1403.333334,note_off,49,0,64,320
6441,1404.000000,note_on,48,819,64,0
6442,1404.000000,pitchwheel,48,819,64,0
6443,1404.000000,note_off,48,819,64,320
6444,1404.666667,note_on,47,3276,64,0
6445,1404.666667,pitchwheel,47,3276,64,0
6446,1404.666667,note_off,47,3276,64,160
6447,1405.000000,note_on,48,2047,64,0
6448,1405.000000,pitchwheel,48,2047,64,0
6449,1405.000000,note_off,48,2047,64,160
6450,1405.333334,note_on,47,3685,64,0
6451,1405.333334,pitchwheel,47,3685,64,0
6452,1405.333334,note_off,47,3685,64,320
6453,1406.000000,note_on,47,2457,64,0
6454,1406.000000,pitchwheel,47,2457,64,0
6455,1406.000000,note_off,47,2457,64,320
6456,1406.666667,note_on,43,0,64,0
6457,1406.666667,note_off,43,0,64,320
6458,1407.333334,note_on,38,0,64,0
6459,1407.333334,note_off,38,0,64,320
6460,1408.000000,note_on,43,1638,64,0
6461,1408.000000,pitchwheel,43,1638,64,0
6462,1408.000000,note_off,43,1638,64,320
6463,1408.666667,note_on,38,2457,64,0
6464,1408.666667,pitchwheel,38,2457,64,0
6465,1408.666667,note_off,38,2457,64,320
6466,1409.333334,note_on,45,0,64,0
6467,1409.333334,note_off,45,0,64,320
6468,1410.000000,note_on,45,1638,64,0
6469,1410.000000,pitchwheel,45,1638,64,0
6470,1410.000000,note_off,45,1638,64,320
6471,1410.666667,note_on,36,3276,64,0
6472,1410.666667,pitchwheel,36,3276,64,0
6473,1410.666667,note_off,36,3276,64,160
6474,1411.000000,note_on,43,0,64,0
6475,1411.000000,note_off,43,0,64,160
6476,1411.333334,note_on,45,2047,64,0
6477,1411.333334,pitchwheel,45,2047,64,0
6478,1411.333334,note_off,45,2047,64,320
6479,1412.000000,note_on,45,3276,64,0
6480,1412.000000,pitchwheel,45,3276,64,0
6481,1412.000000,note_off,45,3276,64,480
6482,1413.000000,note_on,36,2047,64,0
6483,1413.000000,pitchwheel,36,2047,64,0
6484,1413.000000,note_off,36,2047,64,160
6485,1413.333334,note_on,44,2047,64,0
6486,1413.333334,pitchwheel,44,2047,64,0
6487,1413.333334,note_off,44,2047,64,320
6488,1414.000000,note_on,36,2047,64,0
6489,1414.000000,pitchwheel,36,2047,64,0
6490,1414.000000,note_off,36,2047,64,480
6491,1415.000000,note_on,47,3276,64,0
6492,1415.000000,pitchwheel,47,3276,64,0
6493,1415.000000,note_off,47,3276,64,160
6494,1415.333334,note_on,40,2457,64,0
6495,1415.333334,pitchwheel,40,2457,64,0
6496,1415.333334,note_off,40,2457,64,320
6497,1416.000000,note_on,38,819,64,0
6498,1416.000000,pitchwheel,38,819,64,0
6499,1416.000000,note_off,38,819,64,320
6500,1416.666667,note_on,47,2047,64,0
6501,1416.666667,pitchwheel,47,2047,64,0
6502,1416.666667,note_off,47,2047,64,160
6503,1417.000000,note_on,45,0,64,0
6504,1417.000000,note_off,45,0,64,160
6505,1417.333334,note_on,47,2457,64,0
6506,1417.333334,pitchwheel,47,2457,64,0
6507,1417.333334,note_off,47,2457,64,320
6508,1418.000000,note_on,38,3685,64,0
6509,1418.000000,pitchwheel,38,3685,64,0
6510,1418.000000,note_off,38,3685,64,320
6511,1418.666667,note_on,47,3685,64,0
6512,1418.666667,pitchwheel,47,3685,64,0
6513,1418.666667,note_off,47,3685,64,160
6514,1419.000000,note_on,40,2457,64,0
6515,1419.000000,pitchwheel,40,2457,64,0
6516,1419.000000,note_off,40,2457,64,480
6517,1420.000000,note_on,39,819,64,0
6518,1420.000000,pitchwheel,39,819,64,0
6519,1420.000000,note_off,39,819,64,320
6520,1420.666667,note_on,38,819,64,0
6521,1420.666667,pitchwheel,38,819,64,0
6522,1420.666667,note_off,38,819,64,320
6523,1421.333334,note_on,39,819,64,0
6524,1421.333334,pitchwheel,39,819,64,0
6525,1421.333334,note_off,39,819,64,320
6526,1422.000000,note_on,38,0,64,0
6527,1422.000000,note_off,38,0,64,320
6528,1422.666667,note_on,36,2047,64,0
6529,1422.666667,pitchwheel,36,2047,64,0
6530,1422.666667,note_off,36,2047,64,160
6531,1423.000000,note_on,47,2457,64,0
6532,1423.000000,pitchwheel,47,2457,64,0
6533,1423.000000,note_off,47,2457,64,160
6534,1423.333334,note_on,40,2457,64,0
6535,1423.333334,pitchwheel,40,2457,64,0
6536,1423.333334,note_off,40,2457,64,320
6537,1424.000000,note_on,38,819,64,0
6538,1424.000000,pitchwheel,38,819,64,0
6539,1424.000000,note_off,38,819,64,320
6540,1424.666667,note_on,45,0,64,0
6541,1424.666667,note_off,45,0,64,160
6542,1425.000000,note_on,44,2047,64,0
6543,1425.000000,pitchwheel,44,2047,64,0
6544,1425.000000,note_off,44,2047,64,160
6545,1425.333334,note_on,43,1638,64,0
6546,1425.333334,pitchwheel,43,1638,64,0
6547,1425.333334,note_off,43,1638,64,320
6548,1426.000000,note_on,47,3276,64,0
6549,1426.000000,pitchwheel,47,3276,64,0
6550,1426.000000,note_off,47,3276,64,320
6551,1426.666667,note_on,46,1638,64,0
6552,1426.666667,pitchwheel,46,1638,64,0
6553,1426.666667,note_off,46,1638,64,160
6554,1427.000000,note_on,38,819,64,0
6555,1427.000000,pitchwheel,38,819,64,0
6556,1427.000000,note_off,38,819,64,480
6557,1428.000000,note_on,38,0,64,0
6558,1428.000000,note_off,38,0,64,320
6559,1428.666667,note_on,43,1638,64,0
6560,1428.666667,pitchwheel,43,1638,64,0
6561,1428.666667,note_off,43,1638,64,160
6562,1429.000000,note_on,43,2866,64,0
6563,1429.000000,pitchwheel,43,2866,64,0
6564,1429.000000,note_off,43,2866,64,160
6565,1429.333334,note_on,46,1638,64,0
6566,1429.333334,pitchwheel,46,1638,64,0
6567,1429.333334,note_off,46,1638,64,320
6568,1430.000000,note_on,43,0,64,0
6569,1430.000000,note_off,43,0,64,320
6570,1430.666667,note_on,38,2457,64,0
6571,1430.666667,pitchwheel,38,2457,64,0
6572,1430.666667,note_off,38,2457,64,160
6573,1431.000000,note_on,38,0,64,0
6574,1431.000000,note_off,38,0,64,160
6575,1431.333334,note_on,45,1638,64,0
6576,1431.333334,pitchwheel,45,1638,64,0
6577,1431.333334,note_off,45,1638,64,320
6578,1432.000000,note_on,45,0,64,0
6579,1432.000000,note_off,45,0,64,320
6580,1432.666667,note_on,41,0,64,0
6581,1432.666667,note_off,41,0,64,160
6582,1433.000000,note_on,38,2457,64,0
6583,1433.000000,pitchwheel,38,2457,64,0
6584,1433.000000,note_off,38,2457,64,160
6585,1433.333334,note_on,47,3276,64,0
6586,1433.333334,pitchwheel,47,3276,64,0
6587,1433.333334,note_off,47,3276,64,320
6588,1434.000000,note_on,41,0,64,0
6589,1434.000000,note_off,41,0,64,320
6590,1434.666667,note_on,44,0,64,0
6591,1434.666667,note_off,44,0,64,160
6592,1435.000000,note_on,47,3276,64,0
6593,1435.000000,pitchwheel,47,3276,64,0
6594,1435.000000,note_off,47,3276,64,160
6595,1435.333334,note_on,50,3685,64,0
6596,1435.333334,pitchwheel,50,3685,64,0
6597,1435.333334,note_off,50,3685,64,320
6598,1436.000000,note_on,53,0,64,0
6599,1436.000000,note_off,53,0,64,320
6600,1436.666667,note_on,55,0,64,0
6601,1436.666667,note_off,55,0,64,160
6602,1437.000000,note_on,53,1228,64,0
6603,1437.000000,pitchwheel,53,1228,64,0
6604,1437.000000,note_off,53,1228,64,160
6605,1437.333334,note_on,58,1638,64,0
6606,1437.333334,pitchwheel,58,1638,64,0
6607,1437.333334,note_off,58,1638,64,320
6608,1438.000000,note_on,55,1638,64,0
6609,1438.000000,pitchwheel,55,1638,64,0
6610,1438.000000,note_off,55,1638,64,320
6611,1438.666667,note_on,55,2866,64,0
6612,1438.666667,pitchwheel,55,2866,64,0
6613,1438.666667,note_off,55,2866,64,320
6614,1440.000000,note_on,57,2047,64,0
6615,1440.000000,pitchwheel,57,2047,64,0
6616,1440.000000,note_off,57,2047,64,320
6617,1440.666667,note_on,53,0,64,0
6618,1440.666667,note_off,53,0,64,320
6619,1441.333334,note_on,48,2047,64,0
6620,1441.333334,pitchwheel,48,2047,64,0
6621,1441.333334,note_off,48,2047,64,320
6622,1442.000000,note_on,50,819,64,0
6623,1442.000000,pitchwheel,50,819,64,0
6624,1442.000000,note_off,50,819,64,320
6625,1442.666667,note_on,56,0,64,0
6626,1442.666667,note_off,56,0,64,160
6627,1443.000000,note_on,50,819,64,0
6628,1443.000000,pitchwheel,50,819,64,0
6629,1443.000000,note_off,50,819,64,160
6630,1443.333334,note_on,50,2457,64,0
6631,1443.333334,pitchwheel,50,2457,64,0
6632,1443.333334,note_off,50,2457,64,800
6633,1445.333334,note_on,51,819,64,0
6634,1445.333334,pitchwheel,51,819,64,0
6635,1445.333334,note_off,51,819,64,320
6636,1446.000000,note_on,52,2457,64,0
6637,1446.000000,pitchwheel,52,2457,64,0
6638,1446.000000,note_off,52,2457,64,320
6639,1446.666667,note_on,57,0,64,0
6640,1446.666667,note_off,57,0,64,320
6641,1447.333334,note_on,52,2457,64,0
6642,1447.333334,pitchwheel,52,2457,64,0
6643,1447.333334,note_off,52,2457,64,320
6644,1448.000000,note_on,53,2457,64,0
6645,1448.000000,pitchwheel,53,2457,64,0
6646,1448.000000,note_off,53,2457,64,320
6647,1448.666667,note_on,53,0,64,0
6648,1448.666667,note_off,53,0,64,320
6649,1449.333334,note_on,52,2866,64,0
6650,1449.333334,pitchwheel,52,2866,64,0
6651,1449.333334,note_off,52,2866,64,320
6652,1450.000000,note_on,50,819,64,0
6653,1450.000000,pitchwheel,50,819,64,0
6654,1450.000000,note_off,50,819,64,320
6655,1450.666667,note_on,47,3685,64,0
6656,1450.666667,pitchwheel,47,3685,64,0
6657,1450.666667,note_off,47,3685,64,160
6658,1451.000000,note_on,47,3276,64,0
6659,1451.000000,pitchwheel,47,3276,64,0
6660,1451.000000,note_off,47,3276,64,160
6661,1451.333334,note_on,45,0,64,0
6662,1451.333334,note_off,45,0,64,320
6663,1452.000000,note_on,46,0,64,0
6664,1452.000000,note_off,46,0,64,320
6665,1452.666667,note_on,43,0,64,0
6666,1452.666667,note_off,43,0,64,160
6667,1453.000000,note_on,48,2047,64,0
6668,1453.000000,pitchwheel,48,2047,64,0
6669,1453.000000,note_off,48,2047,64,480
6670,1454.000000,note_on,48,819,64,0
6671,1454.000000,pitchwheel,48,819,64,0
6672,1454.000000,note_off,48,819,64,320
6673,1454.666667,note_on,50,819,64,0
6674,1454.666667,pitchwheel,50,819,64,0
6675,1454.666667,note_off,50,819,64,320
6676,1455.333334,note_on,46,409,64,0
6677,1455.333334,pitchwheel,46,409,64,0
6678,1455.333334,note_off,46,409,64,320
6679,1456.000000,note_on,50,3685,64,0
6680,1456.000000,pitchwheel,50,3685,64,0
6681,1456.000000,note_off,50,3685,64,320
6682,1456.666667,note_on,48,2047,64,0
6683,1456.666667,pitchwheel,48,2047,64,0
6684,1456.666667,note_off,48,2047,64,160
6685,1457.000000,note_on,45,0,64,0
6686,1457.000000,note_off,45,0,64,160
6687,1457.333334,note_on,45,3276,64,0
6688,1457.333334,pitchwheel,45,3276,64,0
6689,1457.333334,note_off,45,3276,64,320
6690,1458.000000,note_on,45,1638,64,0
6691,1458.000000,pitchwheel,45,1638,64,0
6692,1458.000000,note_off,45,1638,64,320
6693,1458.666667,note_on,45,2047,64,0
6694,1458.666667,pitchwheel,45,2047,64,0
6695,1458.666667,note_off,45,2047,64,160
6696,1459.000000,note_on,45,1638,64,0
6697,1459.000000,pitchwheel,45,1638,64,0
6698,1459.000000,note_off,45,1638,64,160
6699,1459.333334,note_on,48,819,64,0
6700,1459.333334,pitchwheel,48,819,64,0
6701,1459.333334,note_off,48,819,64,320
6702,1460.000000,note_on,43,0,64,0
6703,1460.000000,note_off,43,0,64,320
6704,1460.666667,note_on,48,2047,64,0
6705,1460.666667,pitchwheel,48,2047,64,0
6706,1460.666667,note_off,48,2047,64,320
6707,1461.333334,note_on,45,2047,64,0
6708,1461.333334,pitchwheel,45,2047,64,0
6709,1461.333334,note_off,45,2047,64,320
6710,1462.000000,note_on,43,0,64,0
6711,1462.000000,note_off,43,0,64,320
6712,1462.666667,note_on,45,0,64,0
6713,1462.666667,note_off,45,0,64,160
6714,1463.000000,note_on,47,2457,64,0
6715,1463.000000,pitchwheel,47,2457,64,0
6716,1463.000000,note_off,47,2457,64,160
6717,1463.333334,note_on,47,3276,64,0
6718,1463.333334,pitchwheel,47,3276,64,0
6719,1463.333334,note_off,47,3276,64,320
6720,1464.000000,note_on,46,1638,64,0
6721,1464.000000,pitchwheel,46,1638,64,0
6722,1464.000000,note_off,46,1638,64,320
6723,1464.666667,note_on,45,3276,64,0
6724,1464.666667,pitchwheel,45,3276,64,0
6725,1464.666667,note_off,45,3276,64,320
6726,1465.333334,note_on,45,2047,64,0
6727,1465.333334,pitchwheel,45,2047,64,0
6728,1465.333334,note_off,45,2047,64,320
6729,1466.000000,note_on,43,2866,64,0
6730,1466.000000,pitchwheel,43,2866,64,0
6731,1466.000000,note_off,43,2866,64,320
6732,1466.666667,note_on,44,0,64,0
6733,1466.666667,note_off,44,0,64,160
6734,1467.000000,note_on,43,0,64,0
6735,1467.000000,note_off,43,0,64,160
6736,1467.333334,note_on,38,2457,64,0
6737,1467.333334,pitchwheel,38,2457,64,0
6738,1467.333334,note_off,38,2457,64,320
6739,1468.000000,note_on,43,1638,64,0
6740,1468.000000,pitchwheel,43,1638,64,0
6741,1468.000000,note_off,43,1638,64,320
6742,1468.666667,note_on,38,819,64,0
6743,1468.666667,pitchwheel,38,819,64,0
6744,1468.666667,note_off,38,819,64,160
6745,1469.000000,note_on,43,2866,64,0
6746,1469.000000,pitchwheel,43,2866,64,0
6747,1469.000000,note_off,43,2866,64,160
6748,1469.333334,note_on,44,0,64,0
6749,1469.333334,note_off,44,0,64,320
6750,1470.000000,note_on,43,0,64,0
6751,1470.000000,note_off,43,0,64,320
6752,1470.666667,note_on,46,0,64,0
6753,1470.666667,note_off,46,0,64,160
6754,1471.000000,note_on,50,0,64,0
6755,1471.000000,note_off,50,0,64,480
6756,1472.000000,note_on,44,0,64,0
6757,1472.000000,note_off,44,0,64,320
6758,1473.000000,note_on,38,2457,64,0
6759,1473.000000,pitchwheel,38,2457,64,0
6760,1473.000000,note_off,38,2457,64,160
6761,1473.333334,note_on,47,2047,64,0
6762,1473.333334,pitchwheel,47,2047,64,0
6763,1473.333334,note_off,47,2047,64,320
6764,1474.000000,note_on,45,0,64,0
6765,1474.000000,note_off,45,0,64,320
6766,1474.666667,note_on,46,1638,64,0
6767,1474.666667,pitchwheel,46,1638,64,0
6768,1474.666667,note_off,46,1638,64,160
6769,1475.000000,note_on,40,2457,64,0
6770,1475.000000,pitchwheel,40,2457,64,0
6771,1475.000000,note_off,40,2457,64,160
6772,1475.333334,note_on,36,819,64,0
6773,1475.333334,pitchwheel,36,819,64,0
6774,1475.333334,note_off,36,819,64,320
6775,1476.000000,note_on,47,3685,64,0
6776,1476.000000,pitchwheel,47,3685,64,0
6777,1476.000000,note_off,47,3685,64,320
6778,1476.666667,note_on,47,3276,64,0
6779,1476.666667,pitchwheel,47,3276,64,0
6780,1476.666667,note_off,47,3276,64,160
6781,1477.000000,note_on,41,1228,64,0
6782,1477.000000,pitchwheel,41,1228,64,0
6783,1477.000000,note_off,41,1228,64,160
6784,1477.333334,note_on,47,3685,64,0
6785,1477.333334,pitchwheel,47,3685,64,0
6786,1477.333334,note_off,47,3685,64,320
6787,1478.000000,note_on,45,0,64,0
6788,1478.000000,note_off,45,0,64,320
6789,1478.666667,note_on,41,0,64,0
6790,1478.666667,note_off,41,0,64,320
6791,1479.333334,note_on,43,0,64,0
6792,1479.333334,note_off,43,0,64,800
6793,1481.000000,note_on,36,2047,64,0
6794,1481.000000,pitchwheel,36,2047,64,0
6795,1481.000000,note_off,36,2047,64,160
6796,1481.333334,note_on,45,2047,64,0
6797,1481.333334,pitchwheel,45,2047,64,0
6798,1481.333334,note_off,45,2047,64,640
6799,1482.666667,note_on,46,1638,64,0
6800,1482.666667,pitchwheel,46,1638,64,0
6801,1482.666667,note_off,46,1638,64,160
6802,1483.000000,note_on,43,0,64,0
6803,1483.000000,note_off,43,0,64,160
6804,1483.333334,note_on,44,2047,64,0
6805,1483.333334,pitchwheel,44,2047,64,0
6806,1483.333334,note_off,44,2047,64,320
6807,1484.000000,note_on,38,3685,64,0
6808,1484.000000,pitchwheel,38,3685,64,0
6809,1484.000000,note_off,38,3685,64,320
6810,1484.666667,note_on,45,1638,64,0
6811,1484.666667,pitchwheel,45,1638,64,0
6812,1484.666667,note_off,45,1638,64,160
6813,1485.000000,note_on,45,0,64,0
6814,1485.000000,note_off,45,0,64,160
6815,1485.333334,note_on,36,2047,64,0
6816,1485.333334,pitchwheel,36,2047,64,0
6817,1485.333334,note_off,36,2047,64,320
6818,1486.000000,note_on,43,1638,64,0
6819,1486.000000,pitchwheel,43,1638,64,0
6820,1486.000000,note_off,43,1638,64,640
6821,1487.333334,note_on,43,409,64,0
6822,1487.333334,pitchwheel,43,409,64,0
6823,1487.333334,note_off,43,409,64,320
6824,1488.000000,note_on,47,3685,64,0
6825,1488.000000,pitchwheel,47,3685,64,0
6826,1488.000000,note_off,47,3685,64,320
6827,1488.666667,note_on,41,0,64,0
6828,1488.666667,note_off,41,0,64,320
6829,1489.333334,note_on,38,2457,64,0
6830,1489.333334,pitchwheel,38,2457,64,0
6831,1489.333334,note_off,38,2457,64,320
6832,1490.000000,note_on,47,2047,64,0
6833,1490.000000,pitchwheel,47,2047,64,0
6834,1490.000000,note_off,47,2047,64,320
6835,1490.666667,note_on,38,1228,64,0
6836,1490.666667,pitchwheel,38,1228,64,0
6837,1490.666667,note_off,38,1228,64,160
6838,1491.000000,note_on,40,2457,64,0
6839,1491.000000,pitchwheel,40,2457,64,0
6840,1491.000000,note_off,40,2457,64,160
6841,1491.333334,note_on,41,0,64,0
6842,1491.333334,note_off,41,0,64,320
6843,1492.000000,note_on,40,2866,64,0
6844,1492.000000,pitchwheel,40,2866,64,0
6845,1492.000000,note_off,40,2866,64,480
6846,1493.000000,note_on,36,819,64,0
6847,1493.000000,pitchwheel,36,819,64,0
6848,1493.000000,note_off,36,819,64,160
6849,1493.333334,note_on,38,0,64,0
6850,1493.333334,note_off,38,0,64,320
6851,1494.000000,note_on,40,1638,64,0
6852,1494.000000,pitchwheel,40,1638,64,0
6853,1494.000000,note_off,40,1638,64,320
6854,1494.666667,note_on,41,0,64,0
6855,1494.666667,note_off,41,0,64,160
6856,1495.000000,note_on,40,2457,64,0
6857,1495.000000,pitchwheel,40,2457,64,0
6858,1495.000000,note_off,40,2457,64,160
6859,1495.333334,note_on,43,0,64,0
6860,1495.333334,note_off,43,0,64,320
6861,1496.000000,note_on,40,1638,64,0
6862,1496.000000,pitchwheel,40,1638,64,0
6863,1496.000000,note_off,40,1638,64,320
6864,1497.000000,note_on,45,0,64,0
6865,1497.000000,note_off,45,0,64,160
6866,1497.333334,note_on,46,0,64,0
6867,1497.333334,note_off,46,0,64,320
6868,1498.000000,note_on,50,3685,64,0
6869,1498.000000,pitchwheel,50,3685,64,0
6870,1498.000000,note_off,50,3685,64,320
6871,1498.666667,note_on,48,3276,64,0
6872,1498.666667,pitchwheel,48,3276,64,0
6873,1498.666667,note_off,48,3276,64,160
6874,1499.000000,note_on,50,819,64,0
6875,1499.000000,pitchwheel,50,819,64,0
6876,1499.000000,note_off,50,819,64,480
6877,1500.000000,note_on,49,0,64,0
6878,1500.000000,note_off,49,0,64,320
6879,1500.666667,note_on,45,1638,64,0
6880,1500.666667,pitchwheel,45,1638,64,0
6881,1500.666667,note_off,45,1638,64,640
6882,1502.000000,note_on,48,819,64,0
6883,1502.000000,pitchwheel,48,819,64,0
6884,1502.000000,note_off,48,819,64,320
6885,1502.666667,note_on,48,2047,64,0
6886,1502.666667,pitchwheel,48,2047,64,0
6887,1502.666667,note_off,48,2047,64,160
6888,1503.000000,note_on,43,1638,64,0
6889,1503.000000,pitchwheel,43,1638,64,0
6890,1503.000000,note_off,43,1638,64,160
6891,1503.333334,note_on,38,819,64,0
6892,1503.333334,pitchwheel,38,819,64,0
6893,1503.333334,note_off,38,819,64,320
6894,1504.000000,note_on,44,0,64,0
6895,1504.000000,note_off,44,0,64,320
6896,1504.666667,note_on,45,0,64,0
6897,1504.666667,note_off,45,0,64,160
6898,1505.000000,note_on,49,0,64,0
6899,1505.000000,note_off,49,0,64,480
6900,1506.000000,note_on,50,2457,64,0
6901,1506.000000,pitchwheel,50,2457,64,0
6902,1506.000000,note_off,50,2457,64,320
6903,1506.666667,note_on,48,3276,64,0
6904,1506.666667,pitchwheel,48,3276,64,0
6905,1506.666667,note_off,48,3276,64,160
6906,1507.000000,note_on,47,3276,64,0
6907,1507.000000,pitchwheel,47,3276,64,0
6908,1507.000000,note_off,47,3276,64,480
6909,1508.000000,note_on,46,1638,64,0
6910,1508.000000,pitchwheel,46,1638,64,0
6911,1508.000000,note_off,46,1638,64,320
6912,1508.666667,note_on,45,2047,64,0
6913,1508.666667,pitchwheel,45,2047,64,0
6914,1508.666667,note_off,45,2047,64,160
6915,1509.000000,note_on,43,1638,64,0
6916,1509.000000,pitchwheel,43,1638,64,0
6917,1509.000000,note_off,43,1638,64,160
6918,1509.333334,note_on,46,0,64,0
6919,1509.333334,note_off,46,0,64,320
6920,1510.000000,note_on,43,2866,64,0
6921,1510.000000,pitchwheel,43,2866,64,0
6922,1510.000000,note_off,43,2866,64,320
6923,1510.666667,note_on,45,3276,64,0
6924,1510.666667,pitchwheel,45,3276,64,0
6925,1510.666667,note_off,45,3276,64,160
6926,1511.000000,note_on,41,0,64,0
6927,1511.000000,note_off,41,0,64,160
6928,1511.333334,note_on,38,819,64,0
6929,1511.333334,pitchwheel,38,819,64,0
6930,1511.333334,note_off,38,819,64,320
6931,1512.000000,note_on,46,1638,64,0
6932,1512.000000,pitchwheel,46,1638,64,0
6933,1512.000000,note_off,46,1638,64,320
6934,1512.666667,note_on,41,0,64,0
6935,1512.666667,note_off,41,0,64,160
6936,1513.000000,note_on,38,3685,64,0
6937,1513.000000,pitchwheel,38,3685,64,0
6938,1513.000000,note_off,38,3685,64,160
6939,1513.333334,note_on,43,1638,64,0
6940,1513.333334,pitchwheel,43,1638,64,0
6941,1513.333334,note_off,43,1638,64,320
6942,1514.000000,note_on,47,3685,64,0
6943,1514.000000,pitchwheel,47,3685,64,0
6944,1514.000000,note_off,47,3685,64,320
6945,1514.666667,note_on,51,819,64,0
6946,1514.666667,pitchwheel,51,819,64,0
6947,1514.666667,note_off,51,819,64,160
6948,1515.000000,note_on,45,1638,64,0
6949,1515.000000,pitchwheel,45,1638,64,0
6950,1515.000000,note_off,45,1638,64,160
6951,1515.333334,note_on,50,0,64,0
6952,1515.333334,note_off,50,0,64,320
6953,1516.000000,note_on,48,819,64,0
6954,1516.000000,pitchwheel,48,819,64,0
6955,1516.000000,note_off,48,819,64,320
6956,1516.666667,note_on,52,2457,64,0
6957,1516.666667,pitchwheel,52,2457,64,0
6958,1516.666667,note_off,52,2457,64,160
6959,1517.000000,note_on,53,0,64,0
6960,1517.000000,note_off,53,0,64,160
6961,1517.333334,note_on,56,0,64,0
6962,1517.333334,note_off,56,0,64,320
6963,1518.000000,note_on,55,1638,64,0
6964,1518.000000,pitchwheel,55,1638,64,0
6965,1518.000000,note_off,55,1638,64,320
6966,1518.666667,note_on,55,2866,64,0
6967,1518.666667,pitchwheel,55,2866,64,0
6968,1518.666667,note_off,55,2866,64,320
6969,1520.000000,note_on,57,0,64,0
6970,1520.000000,note_off,57,0,64,320
6971,1520.666667,note_on,53,0,64,0
6972,1520.666667,note_off,53,0,64,640
6973,1522.000000,note_on,52,2457,64,0
6974,1522.000000,pitchwheel,52,2457,64,0
6975,1522.000000,note_off,52,2457,64,320
6976,1522.666667,note_on,51,819,64,0
6977,1522.666667,pitchwheel,51,819,64,0
6978,1522.666667,note_off,51,819,64,160
6979,1523.000000,note_on,52,2457,64,0
6980,1523.000000,pitchwheel,52,2457,64,0
6981,1523.000000,note_off,52,2457,64,160
6982,1523.333334,note_on,57,0,64,0
6983,1523.333334,note_off,57,0,64,320
6984,1524.000000,note_on,58,0,64,0
6985,1524.000000,note_off,58,0,64,480
6986,1525.000000,note_on,59,2047,64,0
6987,1525.000000,pitchwheel,59,2047,64,0
6988,1525.000000,note_off,59,2047,64,160
6989,1525.333334,note_on,58,0,64,0
6990,1525.333334,note_off,58,0,64,640
6991,1526.666667,note_on,57,2047,64,0
6992,1526.666667,pitchwheel,57,2047,64,0
6993,1526.666667,note_off,57,2047,64,320
6994,1527.333334,note_on,50,819,64,0
6995,1527.333334,pitchwheel,50,819,64,0
6996,1527.333334,note_off,50,819,64,320
6997,1528.000000,note_on,59,3685,64,0
6998,1528.000000,pitchwheel,59,3685,64,0
6999,1528.000000,note_off,59,3685,64,320
7000,1528.666667,note_on,55,2866,64,0
7001,1528.666667,pitchwheel,55,2866,64,0
7002,1528.666667,note_off,55,2866,64,320
7003,1529.333334,note_on,55,1638,64,0
7004,1529.333334,pitchwheel,55,1638,64,0
7005,1529.333334,note_off,55,1638,64,320
7006,1530.000000,note_on,53,0,64,0
7007,1530.000000,note_off,53,0,64,320
7008,1530.666667,note_on,57,3276,64,0
7009,1530.666667,pitchwheel,57,3276,64,0
7010,1530.666667,note_off,57,3276,64,160
7011,1531.000000,note_on,50,819,64,0
7012,1531.000000,pitchwheel,50,819,64,0
7013,1531.000000,note_off,50,819,64,160
7014,1531.333334,note_on,57,0,64,0
7015,1531.333334,note_off,57,0,64,320
7016,1532.000000,note_on,51,819,64,0
7017,1532.000000,pitchwheel,51,819,64,0
7018,1532.000000,note_off,51,819,64,320
7019,1532.666667,note_on,47,3276,64,0
7020,1532.666667,pitchwheel,47,3276,64,0
7021,1532.666667,note_off,47,3276,64,160
7022,1533.000000,note_on,48,819,64,0
7023,1533.000000,pitchwheel,48,819,64,0
7024,1533.000000,note_off,48,819,64,160
7025,1533.333334,note_on,44,0,64,0
7026,1533.333334,note_off,44,0,64,320
7027,1534.000000,note_on,48,2047,64,0
7028,1534.000000,pitchwheel,48,2047,64,0
7029,1534.000000,note_off,48,2047,64,320
7030,1534.666667,note_on,53,0,64,0
7031,1534.666667,note_off,53,0,64,160
7032,1535.000000,note_on,55,0,64,0
7033,1535.000000,note_off,55,0,64,160
7034,1535.333334,note_on,59,2457,64,0
7035,1535.333334,pitchwheel,59,2457,64,0
7036,1535.333334,note_off,59,2457,64,320
7037,1536.000000,note_on,56,0,64,0
7038,1536.000000,note_off,56,0,64,320
7039,1536.666667,note_on,56,2047,64,0
7040,1536.666667,pitchwheel,56,2047,64,0
7041,1536.666667,note_off,56,2047,64,160
7042,1537.000000,note_on,57,0,64,0
7043,1537.000000,note_off,57,0,64,160
7044,1537.333334,note_on,50,2457,64,0
7045,1537.333334,pitchwheel,50,2457,64,0
7046,1537.333334,note_off,50,2457,64,320
7047,1538.000000,note_on,45,1638,64,0
7048,1538.000000,pitchwheel,45,1638,64,0
7049,1538.000000,note_off,45,1638,64,320
7050,1538.666667,note_on,45,0,64,0
7051,1538.666667,note_off,45,0,64,160
7052,1539.000000,note_on,47,3276,64,0
7053,1539.000000,pitchwheel,47,3276,64,0
7054,1539.000000,note_off,47,3276,64,160
7055,1539.333334,note_on,50,3685,64,0
7056,1539.333334,pitchwheel,50,3685,64,0
7057,1539.333334,note_off,50,3685,64,320
7058,1540.000000,note_on,45,1638,64,0
7059,1540.000000,pitchwheel,45,1638,64,0
7060,1540.000000,note_off,45,1638,64,320
7061,1540.666667,note_on,50,0,64,0
7062,1540.666667,note_off,50,0,64,320
7063,1541.333334,note_on,46,1638,64,0
7064,1541.333334,pitchwheel,46,1638,64,0
7065,1541.333334,note_off,46,1638,64,320
7066,1542.000000,note_on,47,3276,64,0
7067,1542.000000,pitchwheel,47,3276,64,0
7068,1542.000000,note_off,47,3276,64,320
7069,1542.666667,note_on,53,0,64,0
7070,1542.666667,note_off,53,0,64,160
7071,1543.000000,note_on,58,409,64,0
7072,1543.000000,pitchwheel,58,409,64,0
7073,1543.000000,note_off,58,409,64,160
7074,1543.333334,note_on,55,0,64,0
7075,1543.333334,note_off,55,0,64,320
7076,1544.000000,note_on,53,1228,64,0
7077,1544.000000,pitchwheel,53,1228,64,0
7078,1544.000000,note_off,53,1228,64,320
7079,1544.666667,note_on,48,2047,64,0
7080,1544.666667,pitchwheel,48,2047,64,0
7081,1544.666667,note_off,48,2047,64,160
7082,1545.000000,note_on,47,2047,64,0
7083,1545.000000,pitchwheel,47,2047,64,0
7084,1545.000000,note_off,47,2047,64,160
7085,1545.333334,note_on,48,819,64,0
7086,1545.333334,pitchwheel,48,819,64,0
7087,1545.333334,note_off,48,819,64,320
7088,1546.000000,note_on,53,1228,64,0
7089,1546.000000,pitchwheel,53,1228,64,0
7090,1546.000000,note_off,53,1228,64,320
7091,1546.666667,note_on,47,2047,64,0
7092,1546.666667,pitchwheel,47,2047,64,0
7093,1546.666667,note_off,47,2047,64,160
7094,1547.000000,note_on,45,1638,64,0
7095,1547.000000,pitchwheel,45,1638,64,0
7096,1547.000000,note_off,45,1638,64,160
7097,1547.333334,note_on,41,0,64,0
7098,1547.333334,note_off,41,0,64,320
7099,1548.000000,note_on,38,2457,64,0
7100,1548.000000,pitchwheel,38,2457,64,0
7101,1548.000000,note_off,38,2457,64,320
7102,1548.666667,note_on,40,2457,64,0
7103,1548.666667,pitchwheel,40,2457,64,0
7104,1548.666667,note_off,40,2457,64,160
7105,1549.000000,note_on,41,0,64,0
7106,1549.000000,note_off,41,0,64,160
7107,1549.333334,note_on,36,3276,64,0
7108,1549.333334,pitchwheel,36,3276,64,0
7109,1549.333334,note_off,36,3276,64,320
7110,1550.000000,note_on,44,2047,64,0
7111,1550.000000,pitchwheel,44,2047,64,0
7112,1550.000000,note_off,44,2047,64,320
7113,1550.666667,note_on,45,1638,64,0
7114,1550.666667,pitchwheel,45,1638,64,0
7115,1550.666667,note_off,45,1638,64,160
7116,1551.000000,note_on,36,2047,64,0
7117,1551.000000,pitchwheel,36,2047,64,0
7118,1551.000000,note_off,36,2047,64,480
7119,1552.000000,note_on,36,3276,64,0
7120,1552.000000,pitchwheel,36,3276,64,0
7121,1552.000000,note_off,36,3276,64,480
7122,1553.000000,note_on,38,2457,64,0
7123,1553.000000,pitchwheel,38,2457,64,0
7124,1553.000000,note_off,38,2457,64,160
7125,1553.333334,note_on,43,0,64,0
7126,1553.333334,note_off,43,0,64,320
7127,1554.000000,note_on,45,0,64,0
7128,1554.000000,note_off,45,0,64,320
7129,1554.666667,note_on,45,2047,64,0
7130,1554.666667,pitchwheel,45,2047,64,0
7131,1554.666667,note_off,45,2047,64,160
7132,1555.000000,note_on,43,0,64,0
7133,1555.000000,note_off,43,0,64,160
7134,1555.333334,note_on,43,2866,64,0
7135,1555.333334,pitchwheel,43,2866,64,0
7136,1555.333334,note_off,43,2866,64,320
7137,1556.000000,note_on,43,1638,64,0
7138,1556.000000,pitchwheel,43,1638,64,0
7139,1556.000000,note_off,43,1638,64,320
7140,1556.666667,note_on,43,0,64,0
7141,1556.666667,note_off,43,0,64,160
7142,1557.000000,note_on,43,1638,64,0
7143,1557.000000,pitchwheel,43,1638,64,0
7144,1557.000000,note_off,43,1638,64,160
7145,1557.333334,note_on,45,2047,64,0
7146,1557.333334,pitchwheel,45,2047,64,0
7147,1557.333334,note_off,45,2047,64,320
7148,1558.000000,note_on,45,0,64,0
7149,1558.000000,note_off,45,0,64,480
7150,1559.333334,note_on,45,1638,64,0
7151,1559.333334,pitchwheel,45,1638,64,0
7152,1559.333334,note_off,45,1638,64,320
7153,1560.000000,note_on,44,2047,64,0
7154,1560.000000,pitchwheel,44,2047,64,0
7155,1560.000000,note_off,44,2047,64,480
7156,1561.000000,note_on,38,2457,64,0
7157,1561.000000,pitchwheel,38,2457,64,0
7158,1561.000000,note_off,38,2457,64,160
7159,1561.333334,note_on,43,0,64,0
7160,1561.333334,note_off,43,0,64,320
7161,1562.000000,note_on,47,2457,64,0
7162,1562.000000,pitchwheel,47,2457,64,0
7163,1562.000000,note_off,47,2457,64,320
7164,1562.666667,note_on,43,2866,64,0
7165,1562.666667,pitchwheel,43,2866,64,0
7166,1562.666667,note_off,43,2866,64,160
7167,1563.000000,note_on,38,819,64,0
7168,1563.000000,pitchwheel,38,819,64,0
7169,1563.000000,note_off,38,819,64,160
7170,1563.333334,note_on,47,2047,64,0
7171,1563.333334,pitchwheel,47,2047,64,0
7172,1563.333334,note_off,47,2047,64,320
7173,1564.000000,note_on,38,2457,64,0
7174,1564.000000,pitchwheel,38,2457,64,0
7175,1564.000000,note_off,38,2457,64,320
7176,1564.666667,note_on,47,3276,64,0
7177,1564.666667,pitchwheel,47,3276,64,0
7178,1564.666667,note_off,47,3276,64,160
7179,1565.000000,note_on,38,3685,64,0
7180,1565.000000,pitchwheel,38,3685,64,0
7181,1565.000000,note_off,38,3685,64,160
7182,1565.333334,note_on,38,2457,64,0
7183,1565.333334,pitchwheel,38,2457,64,0
7184,1565.333334,note_off,38,2457,64,320
7185,1566.000000,note_on,38,3685,64,0
7186,1566.000000,pitchwheel,38,3685,64,0
7187,1566.000000,note_off,38,3685,64,320
7188,1566.666667,note_on,47,3276,64,0
7189,1566.666667,pitchwheel,47,3276,64,0
7190,1566.666667,note_off,47,3276,64,320
7191,1567.333334,note_on,38,0,64,0
7192,1567.333334,note_off,38,0,64,320
7193,1568.000000,note_on,36,3276,64,0
7194,1568.000000,pitchwheel,36,3276,64,0
7195,1568.000000,note_off,36,3276,64,320
7196,1568.666667,note_on,38,2457,64,0
7197,1568.666667,pitchwheel,38,2457,64,0
7198,1568.666667,note_off,38,2457,64,320
7199,1569.333334,note_on,45,0,64,0
7200,1569.333334,note_off,45,0,64,320
7201,1570.000000,note_on,43,409,64,0
7202,1570.000000,pitchwheel,43,409,64,0
7203,1570.000000,note_off,43,409,64,320
7204,1570.666667,note_on,46,1638,64,0
7205,1570.666667,pitchwheel,46,1638,64,0
7206,1570.666667,note_off,46,1638,64,160
7207,1571.000000,note_on,40,2457,64,0
7208,1571.000000,pitchwheel,40,2457,64,0
7209,1571.000000,note_off,40,2457,64,160
7210,1571.333334,note_on,36,2047,64,0
7211,1571.333334,pitchwheel,36,2047,64,0
7212,1571.333334,note_off,36,2047,64,320
7213,1572.000000,note_on,36,819,64,0
7214,1572.000000,pitchwheel,36,819,64,0
7215,1572.000000,note_off,36,819,64,640
7216,1573.333334,note_on,36,2047,64,0
7217,1573.333334,pitchwheel,36,2047,64,0
7218,1573.333334,note_off,36,2047,64,800
7219,1575.000000,note_on,45,1638,64,0
7220,1575.000000,pitchwheel,45,1638,64,0
7221,1575.000000,note_off,45,1638,64,160
7222,1575.333334,note_on,38,819,64,0
7223,1575.333334,pitchwheel,38,819,64,0
7224,1575.333334,note_off,38,819,64,320
7225,1576.000000,note_on,47,2457,64,0
7226,1576.000000,pitchwheel,47,2457,64,0
7227,1576.000000,note_off,47,2457,64,320
7228,1576.666667,note_on,41,0,64,0
7229,1576.666667,note_off,41,0,64,160
7230,1577.000000,note_on,45,0,64,0
7231,1577.000000,note_off,45,0,64,160
7232,1577.333334,note_on,45,2047,64,0
7233,1577.333334,pitchwheel,45,2047,64,0
7234,1577.333334,note_off,45,2047,64,320
7235,1578.000000,note_on,48,2047,64,0
7236,1578.000000,pitchwheel,48,2047,64,0
7237,1578.000000,note_off,48,2047,64,320
7238,1578.666667,note_on,44,0,64,0
7239,1578.666667,note_off,44,0,64,160
7240,1579.000000,note_on,43,0,64,0
7241,1579.000000,note_off,43,0,64,480
7242,1580.000000,note_on,47,3276,64,0
7243,1580.000000,pitchwheel,47,3276,64,0
7244,1580.000000,note_off,47,3276,64,640
7245,1581.333334,note_on,50,0,64,0
7246,1581.333334,note_off,50,0,64,320
7247,1582.000000,note_on,50,3685,64,0
7248,1582.000000,pitchwheel,50,3685,64,0
7249,1582.000000,note_off,50,3685,64,320
7250,1582.666667,note_on,53,0,64,0
7251,1582.666667,note_off,53,0,64,160
7252,1583.000000,note_on,57,2047,64,0
7253,1583.000000,pitchwheel,57,2047,64,0
7254,1583.000000,note_off,57,2047,64,160
7255,1583.333334,note_on,57,1638,64,0
7256,1583.333334,pitchwheel,57,1638,64,0
7257,1583.333334,note_off,57,1638,64,320
7258,1584.000000,note_on,57,2047,64,0
7259,1584.000000,pitchwheel,57,2047,64,0
7260,1584.000000,note_off,57,2047,64,320
7261,1584.666667,note_on,57,0,64,0
7262,1584.666667,note_off,57,0,64,160
7263,1585.000000,note_on,56,2047,64,0
7264,1585.000000,pitchwheel,56,2047,64,0
7265,1585.000000,note_off,56,2047,64,160
7266,1585.333334,note_on,55,409,64,0
7267,1585.333334,pitchwheel,55,409,64,0
7268,1585.333334,note_off,55,409,64,320
7269,1586.000000,note_on,57,1638,64,0
7270,1586.000000,pitchwheel,57,1638,64,0
7271,1586.000000,note_off,57,1638,64,320
7272,1586.666667,note_on,58,1638,64,0
7273,1586.666667,pitchwheel,58,1638,64,0
7274,1586.666667,note_off,58,1638,64,160
7275,1587.000000,note_on,57,1638,64,0
7276,1587.000000,pitchwheel,57,1638,64,0
7277,1587.000000,note_off,57,1638,64,480
7278,1588.000000,note_on,57,2047,64,0
7279,1588.000000,pitchwheel,57,2047,64,0
7280,1588.000000,note_off,57,2047,64,320
7281,1588.666667,note_on,55,1638,64,0
7282,1588.666667,pitchwheel,55,1638,64,0
7283,1588.666667,note_off,55,1638,64,160
7284,1589.000000,note_on,53,0,64,0
7285,1589.000000,note_off,53,0,64,160
7286,1589.333334,note_on,58,1638,64,0
7287,1589.333334,pitchwheel,58,1638,64,0
7288,1589.333334,note_off,58,1638,64,320
7289,1590.000000,note_on,48,2047,64,0
7290,1590.000000,pitchwheel,48,2047,64,0
7291,1590.000000,note_off,48,2047,64,320
7292,1590.666667,note_on,53,0,64,0
7293,1590.666667,note_off,53,0,64,160
7294,1591.000000,note_on,55,409,64,0
7295,1591.000000,pitchwheel,55,409,64,0
7296,1591.000000,note_off,55,409,64,160
7297,1591.333334,note_on,55,0,64,0
7298,1591.333334,note_off,55,0,64,320
7299,1592.000000,note_on,48,3276,64,0
7300,1592.000000,pitchwheel,48,3276,64,0
7301,1592.000000,note_off,48,3276,64,320
7302,1592.666667,note_on,48,2047,64,0
7303,1592.666667,pitchwheel,48,2047,64,0
7304,1592.666667,note_off,48,2047,64,160
7305,1593.000000,note_on,53,0,64,0
7306,1593.000000,note_off,53,0,64,160
7307,1593.333334,note_on,48,819,64,0
7308,1593.333334,pitchwheel,48,819,64,0
7309,1593.333334,note_off,48,819,64,320
7310,1594.000000,note_on,46,409,64,0
7311,1594.000000,pitchwheel,46,409,64,0
7312,1594.000000,note_off,46,409,64,480
7313,1595.000000,note_on,47,3276,64,0
7314,1595.000000,pitchwheel,47,3276,64,0
7315,1595.000000,note_off,47,3276,64,160
7316,1595.333334,note_on,50,3685,64,0
7317,1595.333334,pitchwheel,50,3685,64,0
7318,1595.333334,note_off,50,3685,64,320
7319,1596.000000,note_on,46,1638,64,0
7320,1596.000000,pitchwheel,46,1638,64,0
7321,1596.000000,note_off,46,1638,64,320
7322,1596.666667,note_on,40,2457,64,0
7323,1596.666667,pitchwheel,40,2457,64,0
7324,1596.666667,note_off,40,2457,64,160
7325,1597.000000,note_on,43,1638,64,0
7326,1597.000000,pitchwheel,43,1638,64,0
7327,1597.000000,note_off,43,1638,64,160
7328,1597.333334,note_on,46,1638,64,0
7329,1597.333334,pitchwheel,46,1638,64,0
7330,1597.333334,note_off,46,1638,64,320
7331,1598.000000,note_on,46,409,64,0
7332,1598.000000,pitchwheel,46,409,64,0
7333,1598.000000,note_off,46,409,64,320
7334,1598.666667,note_on,45,3276,64,0
7335,1598.666667,pitchwheel,45,3276,64,0
7336,1598.666667,note_off,45,3276,64,320
7337,1600.000000,note_on,44,2047,64,0
7338,1600.000000,pitchwheel,44,2047,64,0
7339,1600.000000,note_off,44,2047,64,320
7340,1600.666667,note_on,41,0,64,0
7341,1600.666667,note_off,41,0,64,320
7342,1601.333334,note_on,40,1638,64,0
7343,1601.333334,pitchwheel,40,1638,64,0
7344,1601.333334,note_off,40,1638,64,320
7345,1602.000000,note_on,38,819,64,0
7346,1602.000000,pitchwheel,38,819,64,0
7347,1602.000000,note_off,38,819,64,320
7348,1602.666667,note_on,44,0,64,0
7349,1602.666667,note_off,44,0,64,160
7350,1603.000000,note_on,43,0,64,0
7351,1603.000000,note_off,43,0,64,160
7352,1603.333334,note_on,40,1638,64,0
7353,1603.333334,pitchwheel,40,1638,64,0
7354,1603.333334,note_off,40,1638,64,320
7355,1604.000000,note_on,44,0,64,0
7356,1604.000000,note_off,44,0,64,480
7357,1605.000000,note_on,41,0,64,0
7358,1605.000000,note_off,41,0,64,160
7359,1605.333334,note_on,44,0,64,0
7360,1605.333334,note_off,44,0,64,320
7361,1606.000000,note_on,43,0,64,0
7362,1606.000000,note_off,43,0,64,320
7363,1606.666667,note_on,41,0,64,0
7364,1606.666667,note_off,41,0,64,320
7365,1607.333334,note_on,47,3276,64,0
7366,1607.333334,pitchwheel,47,3276,64,0
7367,1607.333334,note_off,47,3276,64,320
7368,1608.000000,note_on,46,1638,64,0
7369,1608.000000,pitchwheel,46,1638,64,0
7370,1608.000000,note_off,46,1638,64,320
7371,1608.666667,note_on,36,2047,64,0
7372,1608.666667,pitchwheel,36,2047,64,0
7373,1608.666667,note_off,36,2047,64,320
7374,1609.333334,note_on,36,819,64,0
7375,1609.333334,pitchwheel,36,819,64,0
7376,1609.333334,note_off,36,819,64,320
7377,1610.000000,note_on,43,0,64,0
7378,1610.000000,note_off,43,0,64,320
7379,1610.666667,note_on,44,0,64,0
7380,1610.666667,note_off,44,0,64,160
7381,1611.000000,note_on,45,1638,64,0
7382,1611.000000,pitchwheel,45,1638,64,0
7383,1611.000000,note_off,45,1638,64,160
7384,1611.333334,note_on,45,0,64,0
7385,1611.333334,note_off,45,0,64,320
7386,1612.000000,note_on,46,0,64,0
7387,1612.000000,note_off,46,0,64,320
7388,1612.666667,note_on,45,1638,64,0
7389,1612.666667,pitchwheel,45,1638,64,0
7390,1612.666667,note_off,45,1638,64,160
7391,1613.000000,note_on,41,0,64,0
7392,1613.000000,note_off,41,0,64,160
7393,1613.333334,note_on,44,0,64,0
7394,1613.333334,note_off,44,0,64,320
7395,1614.000000,note_on,41,1228,64,0
7396,1614.000000,pitchwheel,41,1228,64,0
7397,1614.000000,note_off,41,1228,64,320
7398,1614.666667,note_on,43,0,64,0
7399,1614.666667,note_off,43,0,64,320
7400,1615.333334,note_on,46,409,64,0
7401,1615.333334,pitchwheel,46,409,64,0
7402,1615.333334,note_off,46,409,64,320
7403,1616.000000,note_on,43,409,64,0
7404,1616.000000,pitchwheel,43,409,64,0
7405,1616.000000,note_off,43,409,64,320
7406,1616.666667,note_on,47,2047,64,0
7407,1616.666667,pitchwheel,47,2047,64,0
7408,1616.666667,note_off,47,2047,64,160
7409,1617.000000,note_on,45,0,64,0
7410,1617.000000,note_off,45,0,64,160
7411,1617.333334,note_on,41,1228,64,0
7412,1617.333334,pitchwheel,41,1228,64,0
7413,1617.333334,note_off,41,1228,64,320
7414,1618.000000,note_on,43,0,64,0
7415,1618.000000,note_off,43,0,64,320
7416,1618.666667,note_on,41,0,64,0
7417,1618.666667,note_off,41,0,64,160
7418,1619.000000,note_on,47,3276,64,0
7419,1619.000000,pitchwheel,47,3276,64,0
7420,1619.000000,note_off,47,3276,64,160
7421,1619.333334,note_on,43,2866,64,0
7422,1619.333334,pitchwheel,43,2866,64,0
7423,1619.333334,note_off,43,2866,64,320
7424,1620.000000,note_on,46,0,64,0
7425,1620.000000,note_off,46,0,64,320
7426,1620.666667,note_on,36,2047,64,0
7427,1620.666667,pitchwheel,36,2047,64,0
7428,1620.666667,note_off,36,2047,64,320
7429,1621.333334,note_on,43,1638,64,0
7430,1621.333334,pitchwheel,43,1638,64,0
7431,1621.333334,note_off,43,1638,64,320
7432,1622.000000,note_on,45,1638,64,0
7433,1622.000000,pitchwheel,45,1638,64,0
7434,1622.000000,note_off,45,1638,64,320
7435,1622.666667,note_on,45,0,64,0
7436,1622.666667,note_off,45,0,64,160
7437,1623.000000,note_on,47,2457,64,0
7438,1623.000000,pitchwheel,47,2457,64,0
7439,1623.000000,note_off,47,2457,64,160
7440,1623.333334,note_on,40,2457,64,0
7441,1623.333334,pitchwheel,40,2457,64,0
7442,1623.333334,note_off,40,2457,64,320
7443,1624.000000,note_on,41,2457,64,0
7444,1624.000000,pitchwheel,41,2457,64,0
7445,1624.000000,note_off,41,2457,64,320
7446,1624.666667,note_on,41,1228,64,0
7447,1624.666667,pitchwheel,41,1228,64,0
7448,1624.666667,note_off,41,1228,64,160
7449,1625.000000,note_on,47,2047,64,0
7450,1625.000000,pitchwheel,47,2047,64,0
7451,1625.000000,note_off,47,2047,64,160
7452,1625.333334,note_on,41,0,64,0
7453,1625.333334,note_off,41,0,64,800
7454,1627.000000,note_on,38,819,64,0
7455,1627.000000,pitchwheel,38,819,64,0
7456,1627.000000,note_off,38,819,64,160
7457,1627.333334,note_on,38,2457,64,0
7458,1627.333334,pitchwheel,38,2457,64,0
7459,1627.333334,note_off,38,2457,64,320
7460,1628.000000,note_on,39,819,64,0
7461,1628.000000,pitchwheel,39,819,64,0
7462,1628.000000,note_off,39,819,64,320
7463,1628.666667,note_on,45,1638,64,0
7464,1628.666667,pitchwheel,45,1638,64,0
7465,1628.666667,note_off,45,1638,64,160
7466,1629.000000,note_on,45,3276,64,0
7467,1629.000000,pitchwheel,45,3276,64,0
7468,1629.000000,note_off,45,3276,64,160
7469,1629.333334,note_on,47,3276,64,0
7470,1629.333334,pitchwheel,47,3276,64,0
7471,1629.333334,note_off,47,3276,64,320
7472,1630.000000,note_on,46,0,64,0
7473,1630.000000,note_off,46,0,64,480
7474,1631.000000,note_on,38,0,64,0
7475,1631.000000,note_off,38,0,64,480
7476,1632.000000,note_on,46,1638,64,0
7477,1632.000000,pitchwheel,46,1638,64,0
7478,1632.000000,note_off,46,1638,64,480
7479,1633.000000,note_on,38,2457,64,0
7480,1633.000000,pitchwheel,38,2457,64,0
7481,1633.000000,note_off,38,2457,64,160
7482,1633.333334,note_on,47,2047,64,0
7483,1633.333334,pitchwheel,47,2047,64,0
7484,1633.333334,note_off,47,2047,64,320
7485,1634.000000,note_on,47,3276,64,0
7486,1634.000000,pitchwheel,47,3276,64,0
7487,1634.000000,note_off,47,3276,64,320
7488,1634.666667,note_on,36,819,64,0
7489,1634.666667,pitchwheel,36,819,64,0
7490,1634.666667,note_off,36,819,64,160
7491,1635.000000,note_on,40,2457,64,0
7492,1635.000000,pitchwheel,40,2457,64,0
7493,1635.000000,note_off,40,2457,64,160
7494,1635.333334,note_on,41,0,64,0
7495,1635.333334,note_off,41,0,64,320
7496,1636.000000,note_on,41,1228,64,0
7497,1636.000000,pitchwheel,41,1228,64,0
7498,1636.000000,note_off,41,1228,64,320
7499,1636.666667,note_on,47,3276,64,0
7500,1636.666667,pitchwheel,47,3276,64,0
7501,1636.666667,note_off,47,3276,64,160
7502,1637.000000,note_on,36,819,64,0
7503,1637.000000,pitchwheel,36,819,64,0
7504,1637.000000,note_off,36,819,64,160
7505,1637.333334,note_on,47,3685,64,0
7506,1637.333334,pitchwheel,47,3685,64,0
7507,1637.333334,note_off,47,3685,64,320
7508,1638.000000,note_on,45,0,64,0
7509,1638.000000,note_off,45,0,64,320
7510,1638.666667,note_on,36,2047,64,0
7511,1638.666667,pitchwheel,36,2047,64,0
7512,1638.666667,note_off,36,2047,64,320
7513,1639.333334,note_on,38,819,64,0
7514,1639.333334,pitchwheel,38,819,64,0
7515,1639.333334,note_off,38,819,64,320
7516,1640.000000,note_on,36,3276,64,0
7517,1640.000000,pitchwheel,36,3276,64,0
7518,1640.000000,note_off,36,3276,64,480
7519,1641.000000,note_on,36,2047,64,0
7520,1641.000000,pitchwheel,36,2047,64,0
7521,1641.000000,note_off,36,2047,64,160
7522,1641.333334,note_on,47,3685,64,0
7523,1641.333334,pitchwheel,47,3685,64,0
7524,1641.333334,note_off,47,3685,64,320
7525,1642.000000,note_on,45,2047,64,0
7526,1642.000000,pitchwheel,45,2047,64,0
7527,1642.000000,note_off,45,2047,64,480
7528,1643.000000,note_on,45,1638,64,0
7529,1643.000000,pitchwheel,45,1638,64,0
7530,1643.000000,note_off,45,1638,64,480
7531,1644.000000,note_on,38,0,64,0
7532,1644.000000,note_off,38,0,64,320
7533,1644.666667,note_on,40,2457,64,0
7534,1644.666667,pitchwheel,40,2457,64,0
7535,1644.666667,note_off,40,2457,64,320
7536,1645.333334,note_on,46,1638,64,0
7537,1645.333334,pitchwheel,46,1638,64,0
7538,1645.333334,note_off,46,1638,64,320
7539,1646.000000,note_on,46,0,64,0
7540,1646.000000,note_off,46,0,64,640
7541,1647.333334,note_on,43,409,64,0
7542,1647.333334,pitchwheel,43,409,64,0
7543,1647.333334,note_off,43,409,64,320
7544,1648.000000,note_on,46,0,64,0
7545,1648.000000,note_off,46,0,64,320
7546,1648.666667,note_on,41,0,64,0
7547,1648.666667,note_off,41,0,64,320
7548,1649.333334,note_on,46,409,64,0
7549,1649.333334,pitchwheel,46,409,64,0
7550,1649.333334,note_off,46,409,64,320
7551,1650.000000,note_on,47,2047,64,0
7552,1650.000000,pitchwheel,47,2047,64,0
7553,1650.000000,note_off,47,2047,64,320
7554,1650.666667,note_on,44,0,64,0
7555,1650.666667,note_off,44,0,64,160
7556,1651.000000,note_on,43,0,64,0
7557,1651.000000,note_off,43,0,64,160
7558,1651.333334,note_on,48,819,64,0
7559,1651.333334,pitchwheel,48,819,64,0
7560,1651.333334,note_off,48,819,64,320
7561,1652.000000,note_on,48,2047,64,0
7562,1652.000000,pitchwheel,48,2047,64,0
7563,1652.000000,note_off,48,2047,64,480
7564,1653.000000,note_on,52,2866,64,0
7565,1653.000000,pitchwheel,52,2866,64,0
7566,1653.000000,note_off,52,2866,64,160
7567,1653.333334,note_on,48,3276,64,0
7568,1653.333334,pitchwheel,48,3276,64,0
7569,1653.333334,note_off,48,3276,64,320
7570,1654.000000,note_on,52,1638,64,0
7571,1654.000000,pitchwheel,52,1638,64,0
7572,1654.000000,note_off,52,1638,64,320
7573,1654.666667,note_on,53,0,64,0
7574,1654.666667,note_off,53,0,64,160
7575,1655.000000,note_on,57,1638,64,0
7576,1655.000000,pitchwheel,57,1638,64,0
7577,1655.000000,note_off,57,1638,64,160
7578,1655.333334,note_on,52,2457,64,0
7579,1655.333334,pitchwheel,52,2457,64,0
7580,1655.333334,note_off,52,2457,64,320
7581,1656.000000,note_on,51,819,64,0
7582,1656.000000,pitchwheel,51,819,64,0
7583,1656.000000,note_off,51,819,64,320
7584,1656.666667,note_on,57,0,64,0
7585,1656.666667,note_off,57,0,64,320
7586,1657.333334,note_on,58,0,64,0
7587,1657.333334,note_off,58,0,64,320
7588,1658.000000,note_on,57,3276,64,0
7589,1658.000000,pitchwheel,57,3276,64,0
7590,1658.000000,note_off,57,3276,64,320
7591,1658.666667,note_on,57,2047,64,0
7592,1658.666667,pitchwheel,57,2047,64,0
7593,1658.666667,note_off,57,2047,64,160
7594,1659.000000,note_on,52,2457,64,0
7595,1659.000000,pitchwheel,52,2457,64,0
7596,1659.000000,note_off,52,2457,64,480
7597,1660.000000,note_on,48,3276,64,0
7598,1660.000000,pitchwheel,48,3276,64,0
7599,1660.000000,note_off,48,3276,64,320
7600,1660.666667,note_on,43,0,64,0
7601,1660.666667,note_off,43,0,64,320
7602,1661.333334,note_on,46,0,64,0
7603,1661.333334,note_off,46,0,64,320
7604,1662.000000,note_on,45,3276,64,0
7605,1662.000000,pitchwheel,45,3276,64,0
7606,1662.000000,note_off,45,3276,64,320
7607,1662.666667,note_on,45,2047,64,0
7608,1662.666667,pitchwheel,45,2047,64,0
7609,1662.666667,note_off,45,2047,64,160
7610,1663.000000,note_on,43,1638,64,0
7611,1663.000000,pitchwheel,43,1638,64,0
7612,1663.000000,note_off,43,1638,64,160
7613,1663.333334,note_on,38,819,64,0
7614,1663.333334,pitchwheel,38,819,64,0
7615,1663.333334,note_off,38,819,64,320
7616,1664.000000,note_on,43,1638,64,0
7617,1664.000000,pitchwheel,43,1638,64,0
7618,1664.000000,note_off,43,1638,64,320
7619,1664.666667,note_on,45,0,64,0
7620,1664.666667,note_off,45,0,64,160
7621,1665.000000,note_on,41,0,64,0
7622,1665.000000,note_off,41,0,64,480
7623,1666.000000,note_on,38,2457,64,0
7624,1666.000000,pitchwheel,38,2457,64,0
7625,1666.000000,note_off,38,2457,64,320
7626,1666.666667,note_on,44,0,64,0
7627,1666.666667,note_off,44,0,64,160
7628,1667.000000,note_on,38,819,64,0
7629,1667.000000,pitchwheel,38,819,64,0
7630,1667.000000,note_off,38,819,64,480
7631,1668.000000,note_on,46,1638,64,0
7632,1668.000000,pitchwheel,46,1638,64,0
7633,1668.000000,note_off,46,1638,64,320
7634,1668.666667,note_on,45,2047,64,0
7635,1668.666667,pitchwheel,45,2047,64,0
7636,1668.666667,note_off,45,2047,64,320
7637,1669.333334,note_on,50,2457,64,0
7638,1669.333334,pitchwheel,50,2457,64,0
7639,1669.333334,note_off,50,2457,64,320
7640,1670.000000,note_on,56,2047,64,0
7641,1670.000000,pitchwheel,56,2047,64,0
7642,1670.000000,note_off,56,2047,64,320
7643,1670.666667,note_on,50,1228,64,0
7644,1670.666667,pitchwheel,50,1228,64,0
7645,1670.666667,note_off,50,1228,64,160
7646,1671.000000,note_on,53,0,64,0
7647,1671.000000,note_off,53,0,64,160
7648,1671.333334,note_on,47,3276,64,0
7649,1671.333334,pitchwheel,47,3276,64,0
7650,1671.333334,note_off,47,3276,64,320
7651,1672.000000,note_on,46,1638,64,0
7652,1672.000000,pitchwheel,46,1638,64,0
7653,1672.000000,note_off,46,1638,64,320
7654,1672.666667,note_on,41,0,64,0
7655,1672.666667,note_off,41,0,64,160
7656,1673.000000,note_on,38,3685,64,0
7657,1673.000000,pitchwheel,38,3685,64,0
7658,1673.000000,note_off,38,3685,64,160
7659,1673.333334,note_on,45,1638,64,0
7660,1673.333334,pitchwheel,45,1638,64,0
7661,1673.333334,note_off,45,1638,64,320
7662,1674.000000,note_on,47,3685,64,0
7663,1674.000000,pitchwheel,47,3685,64,0
7664,1674.000000,note_off,47,3685,64,320
7665,1674.666667,note_on,45,2047,64,0
7666,1674.666667,pitchwheel,45,2047,64,0
7667,1674.666667,note_off,45,2047,64,160
7668,1675.000000,note_on,47,3276,64,0
7669,1675.000000,pitchwheel,47,3276,64,0
7670,1675.000000,note_off,47,3276,64,160
7671,1675.333334,note_on,50,0,64,0
7672,1675.333334,note_off,50,0,64,320
7673,1676.000000,note_on,45,0,64,0
7674,1676.000000,note_off,45,0,64,320
7675,1676.666667,note_on,45,2047,64,0
7676,1676.666667,pitchwheel,45,2047,64,0
7677,1676.666667,note_off,45,2047,64,160
7678,1677.000000,note_on,47,3685,64,0
7679,1677.000000,pitchwheel,47,3685,64,0
7680,1677.000000,note_off,47,3685,64,160
7681,1677.333334,note_on,43,1638,64,0
7682,1677.333334,pitchwheel,43,1638,64,0
7683,1677.333334,note_off,43,1638,64,320
7684,1678.000000,note_on,38,2457,64,0
7685,1678.000000,pitchwheel,38,2457,64,0
7686,1678.000000,note_off,38,2457,64,320
7687,1678.666667,note_on,38,1228,64,0
7688,1678.666667,pitchwheel,38,1228,64,0
7689,1678.666667,note_off,38,1228,64,320
7690,1680.000000,note_on,38,819,64,0
7691,1680.000000,pitchwheel,38,819,64,0
7692,1680.000000,note_off,38,819,64,320
7693,1680.666667,note_on,41,0,64,0
7694,1680.666667,note_off,41,0,64,640
7695,1682.000000,note_on,36,2047,64,0
7696,1682.000000,pitchwheel,36,2047,64,0
7697,1682.000000,note_off,36,2047,64,320
7698,1682.666667,note_on,36,3276,64,0
7699,1682.666667,pitchwheel,36,3276,64,0
7700,1682.666667,note_off,36,3276,64,160
7701,1683.000000,note_on,47,3276,64,0
7702,1683.000000,pitchwheel,47,3276,64,0
7703,1683.000000,note_off,47,3276,64,160
7704,1683.333334,note_on,44,2047,64,0
7705,1683.333334,pitchwheel,44,2047,64,0
7706,1683.333334,note_off,44,2047,64,320
7707,1684.000000,note_on,46,0,64,0
7708,1684.000000,note_off,46,0,64,480
7709,1685.000000,note_on,45,0,64,0
7710,1685.000000,note_off,45,0,64,160
7711,1685.333334,note_on,36,3276,64,0
7712,1685.333334,pitchwheel,36,3276,64,0
7713,1685.333334,note_off,36,3276,64,320
7714,1686.000000,note_on,45,1638,64,0
7715,1686.000000,pitchwheel,45,1638,64,0
7716,1686.000000,note_off,45,1638,64,320
7717,1686.666667,note_on,44,2047,64,0
7718,1686.666667,pitchwheel,44,2047,64,0
7719,1686.666667,note_off,44,2047,64,320
7720,1687.333334,note_on,45,1638,64,0
7721,1687.333334,pitchwheel,45,1638,64,0
7722,1687.333334,note_off,45,1638,64,640
7723,1688.666667,note_on,45,3276,64,0
7724,1688.666667,pitchwheel,45,3276,64,0
7725,1688.666667,note_off,45,3276,64,320
7726,1689.333334,note_on,46,409,64,0
7727,1689.333334,pitchwheel,46,409,64,0
7728,1689.333334,note_off,46,409,64,320
7729,1690.000000,note_on,40,2457,64,0
7730,1690.000000,pitchwheel,40,2457,64,0
7731,1690.000000,note_off,40,2457,64,320
7732,1690.666667,note_on,36,2047,64,0
7733,1690.666667,pitchwheel,36,2047,64,0
7734,1690.666667,note_off,36,2047,64,160
7735,1691.000000,note_on,45,1638,64,0
7736,1691.000000,pitchwheel,45,1638,64,0
7737,1691.000000,note_off,45,1638,64,160
7738,1691.333334,note_on,45,0,64,0
7739,1691.333334,note_off,45,0,64,320
7740,1692.000000,note_on,46,0,64,0
7741,1692.000000,note_off,46,0,64,320
7742,1692.666667,note_on,43,0,64,0
7743,1692.666667,note_off,43,0,64,160
7744,1693.000000,note_on,43,2866,64,0
7745,1693.000000,pitchwheel,43,2866,64,0
7746,1693.000000,note_off,43,2866,64,480
7747,1694.000000,note_on,43,1638,64,0
7748,1694.000000,pitchwheel,43,1638,64,0
7749,1694.000000,note_off,43,1638,64,320
7750,1694.666667,note_on,36,2047,64,0
7751,1694.666667,pitchwheel,36,2047,64,0
7752,1694.666667,note_off,36,2047,64,160
7753,1695.000000,note_on,47,3276,64,0
7754,1695.000000,pitchwheel,47,3276,64,0
7755,1695.000000,note_off,47,3276,64,160
7756,1695.333334,note_on,47,2457,64,0
7757,1695.333334,pitchwheel,47,2457,64,0
7758,1695.333334,note_off,47,2457,64,320
7759,1696.000000,note_on,47,3685,64,0
7760,1696.000000,pitchwheel,47,3685,64,0
7761,1696.000000,note_off,47,3685,64,320
7762,1696.666667,note_on,38,1228,64,0
7763,1696.666667,pitchwheel,38,1228,64,0
7764,1696.666667,note_off,38,1228,64,160
7765,1697.000000,note_on,45,0,64,0
7766,1697.000000,note_off,45,0,64,160
7767,1697.333334,note_on,38,2457,64,0
7768,1697.333334,pitchwheel,38,2457,64,0
7769,1697.333334,note_off,38,2457,64,320
7770,1698.000000,note_on,40,2457,64,0
7771,1698.000000,pitchwheel,40,2457,64,0
7772,1698.000000,note_off,40,2457,64,320
7773,1698.666667,note_on,44,0,64,0
7774,1698.666667,note_off,44,0,64,160
7775,1699.000000,note_on,43,0,64,0
7776,1699.000000,note_off,43,0,64,160
7777,1699.333334,note_on,38,2457,64,0
7778,1699.333334,pitchwheel,38,2457,64,0
7779,1699.333334,note_off,38,2457,64,320
7780,1700.000000,note_on,40,2457,64,0
7781,1700.000000,pitchwheel,40,2457,64,0
7782,1700.000000,note_off,40,2457,64,320
7783,1700.666667,note_on,38,0,64,0
7784,1700.666667,note_off,38,0,64,320
7785,1701.333334,note_on,40,2866,64,0
7786,1701.333334,pitchwheel,40,2866,64,0
7787,1701.333334,note_off,40,2866,64,320
7788,1702.000000,note_on,38,2457,64,0
7789,1702.000000,pitchwheel,38,2457,64,0
7790,1702.000000,note_off,38,2457,64,320
7791,1702.666667,note_on,45,2047,64,0
7792,1702.666667,pitchwheel,45,2047,64,0
7793,1702.666667,note_off,45,2047,64,160
7794,1703.000000,note_on,46,409,64,0
7795,1703.000000,pitchwheel,46,409,64,0
7796,1703.000000,note_off,46,409,64,160
7797,1703.333334,note_on,47,3685,64,0
7798,1703.333334,pitchwheel,47,3685,64,0
7799,1703.333334,note_off,47,3685,64,320
7800,1704.000000,note_on,46,1638,64,0
7801,1704.000000,pitchwheel,46,1638,64,0
7802,1704.000000,note_off,46,1638,64,320
7803,1704.666667,note_on,41,0,64,0
7804,1704.666667,note_off,41,0,64,160
7805,1705.000000,note_on,47,2047,64,0
7806,1705.000000,pitchwheel,47,2047,64,0
7807,1705.000000,note_off,47,2047,64,160
7808,1705.333334,note_on,41,1228,64,0
7809,1705.333334,pitchwheel,41,1228,64,0
7810,1705.333334,note_off,41,1228,64,320
7811,1706.000000,note_on,40,2866,64,0
7812,1706.000000,pitchwheel,40,2866,64,0
7813,1706.000000,note_off,40,2866,64,320
7814,1706.666667,note_on,44,0,64,0
7815,1706.666667,note_off,44,0,64,160
7816,1707.000000,note_on,40,2457,64,0
7817,1707.000000,pitchwheel,40,2457,64,0
7818,1707.000000,note_off,40,2457,64,160
7819,1707.333334,note_on,41,0,64,0
7820,1707.333334,note_off,41,0,64,320
7821,1708.000000,note_on,38,819,64,0
7822,1708.000000,pitchwheel,38,819,64,0
7823,1708.000000,note_off,38,819,64,320
7824,1708.666667,note_on,43,0,64,0
7825,1708.666667,note_off,43,0,64,160
7826,1709.000000,note_on,38,3685,64,0
7827,1709.000000,pitchwheel,38,3685,64,0
7828,1709.000000,note_off,38,3685,64,160
7829,1709.333334,note_on,44,0,64,0
7830,1709.333334,note_off,44,0,64,320
7831,1710.000000,note_on,45,1638,64,0
7832,1710.000000,pitchwheel,45,1638,64,0
7833,1710.000000,note_off,45,1638,64,320
7834,1710.666667,note_on,46,0,64,0
7835,1710.666667,note_off,46,0,64,160
7836,1711.000000,note_on,48,2047,64,0
7837,1711.000000,pitchwheel,48,2047,64,0
7838,1711.000000,note_off,48,2047,64,480
7839,1712.000000,note_on,51,819,64,0
7840,1712.000000,pitchwheel,51,819,64,0
7841,1712.000000,note_off,51,819,64,480
7842,1713.000000,note_on,50,2457,64,0
7843,1713.000000,pitchwheel,50,2457,64,0
7844,1713.000000,note_off,50,2457,64,160
7845,1713.333334,note_on,45,0,64,0
7846,1713.333334,note_off,45,0,64,640
7847,1714.666667,note_on,46,0,64,0
7848,1714.666667,note_off,46,0,64,160
7849,1715.000000,note_on,47,2457,64,0
7850,1715.000000,pitchwheel,47,2457,64,0
7851,1715.000000,note_off,47,2457,64,160
7852,1715.333334,note_on,45,3276,64,0
7853,1715.333334,pitchwheel,45,3276,64,0
7854,1715.333334,note_off,45,3276,64,320
7855,1716.000000,note_on,46,409,64,0
7856,1716.000000,pitchwheel,46,409,64,0
7857,1716.000000,note_off,46,409,64,320
7858,1716.666667,note_on,43,0,64,0
7859,1716.666667,note_off,43,0,64,160
7860,1717.000000,note_on,48,2047,64,0
7861,1717.000000,pitchwheel,48,2047,64,0
7862,1717.000000,note_off,48,2047,64,160
7863,1717.333334,note_on,43,409,64,0
7864,1717.333334,pitchwheel,43,409,64,0
7865,1717.333334,note_off,43,409,64,320
7866,1718.000000,note_on,45,0,64,0
7867,1718.000000,note_off,45,0,64,480
7868,1719.333334,note_on,47,3276,64,0
7869,1719.333334,pitchwheel,47,3276,64,0
7870,1719.333334,note_off,47,3276,64,320
7871,1720.000000,note_on,46,1638,64,0
7872,1720.000000,pitchwheel,46,1638,64,0
7873,1720.000000,note_off,46,1638,64,480
7874,1721.000000,note_on,50,2457,64,0
7875,1721.000000,pitchwheel,50,2457,64,0
7876,1721.000000,note_off,50,2457,64,160
7877,1721.333334,note_on,48,2047,64,0
7878,1721.333334,pitchwheel,48,2047,64,0
7879,1721.333334,note_off,48,2047,64,320
7880,1722.000000,note_on,47,2457,64,0
7881,1722.000000,pitchwheel,47,2457,64,0
7882,1722.000000,note_off,47,2457,64,320
7883,1722.666667,note_on,47,3276,64,0
7884,1722.666667,pitchwheel,47,3276,64,0
7885,1722.666667,note_off,47,3276,64,320
7886,1723.333334,note_on,52,2866,64,0
7887,1723.333334,pitchwheel,52,2866,64,0
7888,1723.333334,note_off,52,2866,64,320
7889,1724.000000,note_on,50,1228,64,0
7890,1724.000000,pitchwheel,50,1228,64,0
7891,1724.000000,note_off,50,1228,64,320
7892,1724.666667,note_on,50,819,64,0
7893,1724.666667,pitchwheel,50,819,64,0
7894,1724.666667,note_off,50,819,64,160
7895,1725.000000,note_on,47,2047,64,0
7896,1725.000000,pitchwheel,47,2047,64,0
7897,1725.000000,note_off,47,2047,64,160
7898,1725.333334,note_on,50,2457,64,0
7899,1725.333334,pitchwheel,50,2457,64,0
7900,1725.333334,note_off,50,2457,64,320
7901,1726.000000,note_on,46,0,64,0
7902,1726.000000,note_off,46,0,64,320
7903,1726.666667,note_on,43,0,64,0
7904,1726.666667,note_off,43,0,64,320
7905,1727.333334,note_on,38,0,64,0
7906,1727.333334,note_off,38,0,64,320
7907,1728.000000,note_on,36,3276,64,0
7908,1728.000000,pitchwheel,36,3276,64,0
7909,1728.000000,note_off,36,3276,64,320
7910,1728.666667,note_on,38,2457,64,0
7911,1728.666667,pitchwheel,38,2457,64,0
7912,1728.666667,note_off,38,2457,64,320
7913,1729.333334,note_on,45,0,64,0
7914,1729.333334,note_off,45,0,64,320
7915,1730.000000,note_on,40,2457,64,0
7916,1730.000000,pitchwheel,40,2457,64,0
7917,1730.000000,note_off,40,2457,64,320
7918,1730.666667,note_on,46,1638,64,0
7919,1730.666667,pitchwheel,46,1638,64,0
7920,1730.666667,note_off,46,1638,64,160
7921,1731.000000,note_on,38,819,64,0
7922,1731.000000,pitchwheel,38,819,64,0
7923,1731.000000,note_off,38,819,64,160
7924,1731.333334,note_on,41,0,64,0
7925,1731.333334,note_off,41,0,64,320
7926,1732.000000,note_on,41,1228,64,0
7927,1732.000000,pitchwheel,41,1228,64,0
7928,1732.000000,note_off,41,1228,64,480
7929,1733.000000,note_on,43,2866,64,0
7930,1733.000000,pitchwheel,43,2866,64,0
7931,1733.000000,note_off,43,2866,64,160
7932,1733.333334,note_on,40,0,64,0
7933,1733.333334,note_off,40,0,64,320
7934,1734.000000,note_on,43,1638,64,0
7935,1734.000000,pitchwheel,43,1638,64,0
7936,1734.000000,note_off,43,1638,64,480
7937,1735.000000,note_on,38,819,64,0
7938,1735.000000,pitchwheel,38,819,64,0
7939,1735.000000,note_off,38,819,64,160
7940,1735.333334,note_on,43,0,64,0
7941,1735.333334,note_off,43,0,64,320
7942,1736.000000,note_on,44,0,64,0
7943,1736.000000,note_off,44,0,64,320
7944,1736.666667,note_on,41,0,64,0
7945,1736.666667,note_off,41,0,64,160
7946,1737.000000,note_on,45,0,64,0
7947,1737.000000,note_off,45,0,64,160
7948,1737.333334,note_on,46,0,64,0
7949,1737.333334,note_off,46,0,64,320
7950,1738.000000,note_on,45,2047,64,0
7951,1738.000000,pitchwheel,45,2047,64,0
7952,1738.000000,note_off,45,2047,64,320
7953,1738.666667,note_on,46,0,64,0
7954,1738.666667,note_off,46,0,64,160
7955,1739.000000,note_on,40,2457,64,0
7956,1739.000000,pitchwheel,40,2457,64,0
7957,1739.000000,note_off,40,2457,64,480
7958,1740.000000,note_on,37,0,64,0
7959,1740.000000,note_off,37,0,64,320
7960,1740.666667,note_on,45,1638,64,0
7961,1740.666667,pitchwheel,45,1638,64,0
7962,1740.666667,note_off,45,1638,64,320
7963,1741.333334,note_on,46,1638,64,0
7964,1741.333334,pitchwheel,46,1638,64,0
7965,1741.333334,note_off,46,1638,64,320
7966,1742.000000,note_on,45,2047,64,0
7967,1742.000000,pitchwheel,45,2047,64,0
7968,1742.000000,note_off,45,2047,64,320
7969,1742.666667,note_on,45,3276,64,0
7970,1742.666667,pitchwheel,45,3276,64,0
7971,1742.666667,note_off,45,3276,64,160
7972,1743.000000,note_on,45,2047,64,0
7973,1743.000000,pitchwheel,45,2047,64,0
7974,1743.000000,note_off,45,2047,64,160
7975,1743.333334,note_on,45,1638,64,0
7976,1743.333334,pitchwheel,45,1638,64,0
7977,1743.333334,note_off,45,1638,64,320
7978,1744.000000,note_on,45,2047,64,0
7979,1744.000000,pitchwheel,45,2047,64,0
7980,1744.000000,note_off,45,2047,64,320
7981,1744.666667,note_on,45,0,64,0
7982,1744.666667,note_off,45,0,64,160
7983,1745.000000,note_on,45,3276,64,0
7984,1745.000000,pitchwheel,45,3276,64,0
7985,1745.000000,note_off,45,3276,64,160
7986,1745.333334,note_on,43,409,64,0
7987,1745.333334,pitchwheel,43,409,64,0
7988,1745.333334,note_off,43,409,64,320
7989,1746.000000,note_on,47,3276,64,0
7990,1746.000000,pitchwheel,47,3276,64,0
7991,1746.000000,note_off,47,3276,64,320
7992,1746.666667,note_on,36,3276,64,0
7993,1746.666667,pitchwheel,36,3276,64,0
7994,1746.666667,note_off,36,3276,64,160
7995,1747.000000,note_on,43,0,64,0
7996,1747.000000,note_off,43,0,64,480
7997,1748.000000,note_on,44,0,64,0
7998,1748.000000,note_off,44,0,64,320
7999,1748.666667,note_on,43,1638,64,0
8000,1748.666667,pitchwheel,43,1638,64,0
8001,1748.666667,note_off,43,1638,64,160
8002,1749.000000,note_on,38,3685,64,0
8003,1749.000000,pitchwheel,38,3685,64,0
8004,1749.000000,note_off,38,3685,64,160
8005,1749.333334,note_on,45,2047,64,0
8006,1749.333334,pitchwheel,45,2047,64,0
8007,1749.333334,note_off,45,2047,64,320
8008,1750.000000,note_on,47,2047,64,0
8009,1750.000000,pitchwheel,47,2047,64,0
8010,1750.000000,note_off,47,2047,64,320
8011,1750.666667,note_on,38,2457,64,0
8012,1750.666667,pitchwheel,38,2457,64,0
8013,1750.666667,note_off,38,2457,64,160
8014,1751.000000,note_on,43,409,64,0
8015,1751.000000,pitchwheel,43,409,64,0
8016,1751.000000,note_off,43,409,64,160
8017,1751.333334,note_on,38,819,64,0
8018,1751.333334,pitchwheel,38,819,64,0
8019,1751.333334,note_off,38,819,64,320
8020,1752.000000,note_on,39,819,64,0
8021,1752.000000,pitchwheel,39,819,64,0
8022,1752.000000,note_off,39,819,64,320
8023,1752.666667,note_on,38,1228,64,0
8024,1752.666667,pitchwheel,38,1228,64,0
8025,1752.666667,note_off,38,1228,64,160
8026,1753.000000,note_on,41,0,64,0
8027,1753.000000,note_off,41,0,64,160
8028,1753.333334,note_on,46,409,64,0
8029,1753.333334,pitchwheel,46,409,64,0
8030,1753.333334,note_off,46,409,64,320
8031,1754.000000,note_on,47,3685,64,0
8032,1754.000000,pitchwheel,47,3685,64,0
8033,1754.000000,note_off,47,3685,64,320
8034,1754.666667,note_on,48,3276,64,0
8035,1754.666667,pitchwheel,48,3276,64,0
8036,1754.666667,note_off,48,3276,64,160
8037,1755.000000,note_on,50,0,64,0
8038,1755.000000,note_off,50,0,64,160
8039,1755.333334,note_on,50,3685,64,0
8040,1755.333334,pitchwheel,50,3685,64,0
8041,1755.333334,note_off,50,3685,64,320
8042,1756.000000,note_on,48,819,64,0
8043,1756.000000,pitchwheel,48,819,64,0
8044,1756.000000,note_off,48,819,64,320
8045,1756.666667,note_on,52,2457,64,0
8046,1756.666667,pitchwheel,52,2457,64,0
8047,1756.666667,note_off,52,2457,64,160
8048,1757.000000,note_on,48,2047,64,0
8049,1757.000000,pitchwheel,48,2047,64,0
8050,1757.000000,note_off,48,2047,64,160
8051,1757.333334,note_on,53,2457,64,0
8052,1757.333334,pitchwheel,53,2457,64,0
8053,1757.333334,note_off,53,2457,64,320
8054,1758.000000,note_on,52,2866,64,0
8055,1758.000000,pitchwheel,52,2866,64,0
8056,1758.000000,note_off,52,2866,64,320
8057,1758.666667,note_on,53,0,64,0
8058,1758.666667,note_off,53,0,64,320
8059,1760.000000,note_on,52,0,64,0
8060,1760.000000,note_off,52,0,64,320
8061,1760.666667,note_on,53,0,64,0
8062,1760.666667,note_off,53,0,64,160
8063,1761.000000,note_on,52,1638,64,0
8064,1761.000000,pitchwheel,52,1638,64,0
8065,1761.000000,note_off,52,1638,64,160
8066,1761.333334,note_on,48,2047,64,0
8067,1761.333334,pitchwheel,48,2047,64,0
8068,1761.333334,note_off,48,2047,64,320
8069,1762.000000,note_on,53,0,64,0
8070,1762.000000,note_off,53,0,64,320
8071,1762.666667,note_on,53,2457,64,0
8072,1762.666667,pitchwheel,53,2457,64,0
8073,1762.666667,note_off,53,2457,64,160
8074,1763.000000,note_on,57,1638,64,0
8075,1763.000000,pitchwheel,57,1638,64,0
8076,1763.000000,note_off,57,1638,64,480
8077,1764.000000,note_on,56,0,64,0
8078,1764.000000,note_off,56,0,64,480
8079,1765.000000,note_on,50,2457,64,0
8080,1765.000000,pitchwheel,50,2457,64,0
8081,1765.000000,note_off,50,2457,64,160
8082,1765.333334,note_on,50,819,64,0
8083,1765.333334,pitchwheel,50,819,64,0
8084,1765.333334,note_off,50,819,64,320
8085,1766.000000,note_on,47,3276,64,0
8086,1766.000000,pitchwheel,47,3276,64,0
8087,1766.000000,note_off,47,3276,64,320
8088,1766.666667,note_on,49,0,64,0
8089,1766.666667,note_off,49,0,64,320
8090,1767.333334,note_on,43,0,64,0
8091,1767.333334,note_off,43,0,64,320
8092,1768.000000,note_on,46,0,64,0
8093,1768.000000,note_off,46,0,64,320
8094,1768.666667,note_on,40,2866,64,0
8095,1768.666667,pitchwheel,40,2866,64,0
8096,1768.666667,note_off,40,2866,64,320
8097,1769.333334,note_on,41,0,64,0
8098,1769.333334,note_off,41,0,64,320
8099,1770.000000,note_on,47,2047,64,0
8100,1770.000000,pitchwheel,47,2047,64,0
8101,1770.000000,note_off,47,2047,64,320
8102,1770.666667,note_on,47,3685,64,0
8103,1770.666667,pitchwheel,47,3685,64,0
8104,1770.666667,note_off,47,3685,64,160
8105,1771.000000,note_on,47,3276,64,0
8106,1771.000000,pitchwheel,47,3276,64,0
8107,1771.000000,note_off,47,3276,64,160
8108,1771.333334,note_on,45,0,64,0
8109,1771.333334,note_off,45,0,64,320
8110,1772.000000,note_on,46,0,64,0
8111,1772.000000,note_off,46,0,64,320
8112,1772.666667,note_on,40,2457,64,0
8113,1772.666667,pitchwheel,40,2457,64,0
8114,1772.666667,note_off,40,2457,64,160
8115,1773.000000,note_on,45,2047,64,0
8116,1773.000000,pitchwheel,45,2047,64,0
8117,1773.000000,note_off,45,2047,64,160
8118,1773.333334,note_on,40,2866,64,0
8119,1773.333334,pitchwheel,40,2866,64,0
8120,1773.333334,note_off,40,2866,64,320
8121,1774.000000,note_on,45,3276,64,0
8122,1774.000000,pitchwheel,45,3276,64,0
8123,1774.000000,note_off,45,3276,64,320
8124,1774.666667,note_on,38,819,64,0
8125,1774.666667,pitchwheel,38,819,64,0
8126,1774.666667,note_off,38,819,64,160
8127,1775.000000,note_on,40,2457,64,0
8128,1775.000000,pitchwheel,40,2457,64,0
8129,1775.000000,note_off,40,2457,64,160
8130,1775.333334,note_on,46,409,64,0
8131,1775.333334,pitchwheel,46,409,64,0
8132,1775.333334,note_off,46,409,64,320
8133,1776.000000,note_on,43,2866,64,0
8134,1776.000000,pitchwheel,43,2866,64,0
8135,1776.000000,note_off,43,2866,64,320
8136,1776.666667,note_on,40,0,64,0
8137,1776.666667,note_off,40,0,64,160
8138,1777.000000,note_on,45,0,64,0
8139,1777.000000,note_off,45,0,64,160
8140,1777.333334,note_on,48,819,64,0
8141,1777.333334,pitchwheel,48,819,64,0
8142,1777.333334,note_off,48,819,64,320
8143,1778.000000,note_on,50,819,64,0
8144,1778.000000,pitchwheel,50,819,64,0
8145,1778.000000,note_off,50,819,64,320
8146,1778.666667,note_on,48,2047,64,0
8147,1778.666667,pitchwheel,48,2047,64,0
8148,1778.666667,note_off,48,2047,64,160
8149,1779.000000,note_on,50,819,64,0
8150,1779.000000,pitchwheel,50,819,64,0
8151,1779.000000,note_off,50,819,64,160
8152,1779.333334,note_on,45,2047,64,0
8153,1779.333334,pitchwheel,45,2047,64,0
8154,1779.333334,note_off,45,2047,64,320
8155,1780.000000,note_on,47,3685,64,0
8156,1780.000000,pitchwheel,47,3685,64,0
8157,1780.000000,note_off,47,3685,64,320
8158,1780.666667,note_on,48,2047,64,0
8159,1780.666667,pitchwheel,48,2047,64,0
8160,1780.666667,note_off,48,2047,64,320
8161,1781.333334,note_on,46,1638,64,0
8162,1781.333334,pitchwheel,46,1638,64,0
8163,1781.333334,note_off,46,1638,64,320
8164,1782.000000,note_on,48,819,64,0
8165,1782.000000,pitchwheel,48,819,64,0
8166,1782.000000,note_off,48,819,64,320
8167,1782.666667,note_on,45,0,64,0
8168,1782.666667,note_off,45,0,64,160
8169,1783.000000,note_on,45,2047,64,0
8170,1783.000000,pitchwheel,45,2047,64,0
8171,1783.000000,note_off,45,2047,64,160
8172,1783.333334,note_on,47,3276,64,0
8173,1783.333334,pitchwheel,47,3276,64,0
8174,1783.333334,note_off,47,3276,64,320
8175,1784.000000,note_on,46,0,64,0
8176,1784.000000,note_off,46,0,64,320
8177,1784.666667,note_on,47,3685,64,0
8178,1784.666667,pitchwheel,47,3685,64,0
8179,1784.666667,note_off,47,3685,64,160
8180,1785.000000,note_on,44,2047,64,0
8181,1785.000000,pitchwheel,44,2047,64,0
8182,1785.000000,note_off,44,2047,64,160
8183,1785.333334,note_on,47,3276,64,0
8184,1785.333334,pitchwheel,47,3276,64,0
8185,1785.333334,note_off,47,3276,64,320
8186,1786.000000,note_on,43,2866,64,0
8187,1786.000000,pitchwheel,43,2866,64,0
8188,1786.000000,note_off,43,2866,64,320
8189,1786.666667,note_on,47,2047,64,0
8190,1786.666667,pitchwheel,47,2047,64,0
8191,1786.666667,note_off,47,2047,64,160
8192,1787.000000,note_on,52,2457,64,0
8193,1787.000000,pitchwheel,52,2457,64,0
8194,1787.000000,note_off,52,2457,64,160
8195,1787.333334,note_on,50,2457,64,0
8196,1787.333334,pitchwheel,50,2457,64,0
8197,1787.333334,note_off,50,2457,64,320
8198,1788.000000,note_on,48,3276,64,0
8199,1788.000000,pitchwheel,48,3276,64,0
8200,1788.000000,note_off,48,3276,64,320
8201,1788.666667,note_on,47,3276,64,0
8202,1788.666667,pitchwheel,47,3276,64,0
8203,1788.666667,note_off,47,3276,64,160
8204,1789.000000,note_on,50,1228,64,0
8205,1789.000000,pitchwheel,50,1228,64,0
8206,1789.000000,note_off,50,1228,64,160
8207,1789.333334,note_on,50,0,64,0
8208,1789.333334,note_off,50,0,64,320
8209,1790.000000,note_on,48,2047,64,0
8210,1790.000000,pitchwheel,48,2047,64,0
8211,1790.000000,note_off,48,2047,64,320
8212,1790.666667,note_on,46,0,64,0
8213,1790.666667,note_off,46,0,64,160
8214,1791.000000,note_on,47,3685,64,0
8215,1791.000000,pitchwheel,47,3685,64,0
8216,1791.000000,note_off,47,3685,64,480
8217,1792.000000,note_on,47,2457,64,0
8218,1792.000000,pitchwheel,47,2457,64,0
8219,1792.000000,note_off,47,2457,64,320
8220,1793.000000,note_on,50,0,64,0
8221,1793.000000,note_off,50,0,64,160
8222,1793.333334,note_on,50,3685,64,0
8223,1793.333334,pitchwheel,50,3685,64,0
8224,1793.333334,note_off,50,3685,64,320
8225,1794.000000,note_on,45,0,64,0
8226,1794.000000,note_off,45,0,64,320
8227,1794.666667,note_on,50,2457,64,0
8228,1794.666667,pitchwheel,50,2457,64,0
8229,1794.666667,note_off,50,2457,64,160
8230,1795.000000,note_on,55,0,64,0
8231,1795.000000,note_off,55,0,64,160
8232,1795.333334,note_on,57,2047,64,0
8233,1795.333334,pitchwheel,57,2047,64,0
8234,1795.333334,note_off,57,2047,64,320
8235,1796.000000,note_on,57,1638,64,0
8236,1796.000000,pitchwheel,57,1638,64,0
8237,1796.000000,note_off,57,1638,64,320
8238,1796.666667,note_on,50,819,64,0
8239,1796.666667,pitchwheel,50,819,64,0
8240,1796.666667,note_off,50,819,64,160
8241,1797.000000,note_on,52,2866,64,0
8242,1797.000000,pitchwheel,52,2866,64,0
8243,1797.000000,note_off,52,2866,64,160
8244,1797.333334,note_on,47,2457,64,0
8245,1797.333334,pitchwheel,47,2457,64,0
8246,1797.333334,note_off,47,2457,64,320
8247,1798.000000,note_on,45,0,64,0
8248,1798.000000,note_off,45,0,64,320
8249,1798.666667,note_on,41,0,64,0
8250,1798.666667,note_off,41,0,64,320
8251,1799.333334,note_on,43,0,64,0
8252,1799.333334,note_off,43,0,64,800
8253,1801.000000,note_on,41,0,64,0
8254,1801.000000,note_off,41,0,64,480
8255,1802.000000,note_on,45,2047,64,0
8256,1802.000000,pitchwheel,45,2047,64,0
8257,1802.000000,note_off,45,2047,64,320
8258,1802.666667,note_on,44,0,64,0
8259,1802.666667,note_off,44,0,64,160
8260,1803.000000,note_on,45,1638,64,0
8261,1803.000000,pitchwheel,45,1638,64,0
8262,1803.000000,note_off,45,1638,64,160
8263,1803.333334,note_on,40,0,64,0
8264,1803.333334,note_off,40,0,64,320
8265,1804.000000,note_on,38,3685,64,0
8266,1804.000000,pitchwheel,38,3685,64,0
8267,1804.000000,note_off,38,3685,64,320
8268,1804.666667,note_on,40,2457,64,0
8269,1804.666667,pitchwheel,40,2457,64,0
8270,1804.666667,note_off,40,2457,64,160
8271,1805.000000,note_on,36,2047,64,0
8272,1805.000000,pitchwheel,36,2047,64,0
8273,1805.000000,note_off,36,2047,64,160
8274,1805.333334,note_on,46,1638,64,0
8275,1805.333334,pitchwheel,46,1638,64,0
8276,1805.333334,note_off,46,1638,64,320
8277,1806.000000,note_on,46,409,64,0
8278,1806.000000,pitchwheel,46,409,64,0
8279,1806.000000,note_off,46,409,64,320
8280,1806.666667,note_on,36,2047,64,0
8281,1806.666667,pitchwheel,36,2047,64,0
8282,1806.666667,note_off,36,2047,64,320
8283,1807.333334,note_on,43,409,64,0
8284,1807.333334,pitchwheel,43,409,64,0
8285,1807.333334,note_off,43,409,64,640
8286,1808.666667,note_on,41,0,64,0
8287,1808.666667,note_off,41,0,64,320
8288,1809.333334,note_on,43,1638,64,0
8289,1809.333334,pitchwheel,43,1638,64,0
8290,1809.333334,note_off,43,1638,64,320
8291,1810.000000,note_on,44,2047,64,0
8292,1810.000000,pitchwheel,44,2047,64,0
8293,1810.000000,note_off,44,2047,64,320
8294,1810.666667,note_on,36,3276,64,0
8295,1810.666667,pitchwheel,36,3276,64,0
8296,1810.666667,note_off,36,3276,64,160
8297,1811.000000,note_on,47,3276,64,0
8298,1811.000000,pitchwheel,47,3276,64,0
8299,1811.000000,note_off,47,3276,64,160
8300,1811.333334,note_on,40,2866,64,0
8301,1811.333334,pitchwheel,40,2866,64,0
8302,1811.333334,note_off,40,2866,64,320
8303,1812.000000,note_on,41,0,64,0
8304,1812.000000,note_off,41,0,64,480
8305,1813.000000,note_on,36,819,64,0
8306,1813.000000,pitchwheel,36,819,64,0
8307,1813.000000,note_off,36,819,64,160
8308,1813.333334,note_on,40,0,64,0
8309,1813.333334,note_off,40,0,64,320
8310,1814.000000,note_on,40,1638,64,0
8311,1814.000000,pitchwheel,40,1638,64,0
8312,1814.000000,note_off,40,1638,64,320
8313,1814.666667,note_on,41,0,64,0
8314,1814.666667,note_off,41,0,64,160
8315,1815.000000,note_on,45,1638,64,0
8316,1815.000000,pitchwheel,45,1638,64,0
8317,1815.000000,note_off,45,1638,64,160
8318,1815.333334,note_on,47,3276,64,0
8319,1815.333334,pitchwheel,47,3276,64,0
8320,1815.333334,note_off,47,3276,64,320
8321,1816.000000,note_on,48,2047,64,0
8322,1816.000000,pitchwheel,48,2047,64,0
8323,1816.000000,note_off,48,2047,64,320
8324,1816.666667,note_on,52,0,64,0
8325,1816.666667,note_off,52,0,64,160
8326,1817.000000,note_on,57,0,64,0
8327,1817.000000,note_off,57,0,64,160
8328,1817.333334,note_on,58,0,64,0
8329,1817.333334,note_off,58,0,64,320
8330,1818.000000,note_on,50,3685,64,0
8331,1818.000000,pitchwheel,50,3685,64,0
8332,1818.000000,note_off,50,3685,64,320
8333,1818.666667,note_on,56,0,64,0
8334,1818.666667,note_off,56,0,64,160
8335,1819.000000,note_on,50,819,64,0
8336,1819.000000,pitchwheel,50,819,64,0
8337,1819.000000,note_off,50,819,64,480
8338,1820.000000,note_on,48,3276,64,0
8339,1820.000000,pitchwheel,48,3276,64,0
8340,1820.000000,note_off,48,3276,64,320
8341,1820.666667,note_on,50,819,64,0
8342,1820.666667,pitchwheel,50,819,64,0
8343,1820.666667,note_off,50,819,64,320
8344,1821.333334,note_on,51,819,64,0
8345,1821.333334,pitchwheel,51,819,64,0
8346,1821.333334,note_off,51,819,64,320
8347,1822.000000,note_on,52,2866,64,0
8348,1822.000000,pitchwheel,52,2866,64,0
8349,1822.000000,note_off,52,2866,64,320
8350,1822.666667,note_on,53,0,64,0
8351,1822.666667,note_off,53,0,64,160
8352,1823.000000,note_on,47,2457,64,0
8353,1823.000000,pitchwheel,47,2457,64,0
8354,1823.000000,note_off,47,2457,64,160
8355,1823.333334,note_on,52,2457,64,0
8356,1823.333334,pitchwheel,52,2457,64,0
8357,1823.333334,note_off,52,2457,64,320
8358,1824.000000,note_on,51,819,64,0
8359,1824.000000,pitchwheel,51,819,64,0
8360,1824.000000,note_off,51,819,64,320
8361,1824.666667,note_on,57,0,64,0
8362,1824.666667,note_off,57,0,64,160
8363,1825.000000,note_on,52,0,64,0
8364,1825.000000,note_off,52,0,64,480
8365,1826.000000,note_on,52,2457,64,0
8366,1826.000000,pitchwheel,52,2457,64,0
8367,1826.000000,note_off,52,2457,64,320
8368,1826.666667,note_on,53,2457,64,0
8369,1826.666667,pitchwheel,53,2457,64,0
8370,1826.666667,note_off,53,2457,64,160
8371,1827.000000,note_on,52,2457,64,0
8372,1827.000000,pitchwheel,52,2457,64,0
8373,1827.000000,note_off,52,2457,64,800
8374,1828.666667,note_on,57,2047,64,0
8375,1828.666667,pitchwheel,57,2047,64,0
8376,1828.666667,note_off,57,2047,64,160
8377,1829.000000,note_on,55,1638,64,0
8378,1829.000000,pitchwheel,55,1638,64,0
8379,1829.000000,note_off,55,1638,64,480
8380,1830.000000,note_on,56,2047,64,0
8381,1830.000000,pitchwheel,56,2047,64,0
8382,1830.000000,note_off,56,2047,64,320
8383,1830.666667,note_on,53,0,64,0
8384,1830.666667,note_off,53,0,64,160
8385,1831.000000,note_on,50,0,64,0
8386,1831.000000,note_off,50,0,64,160
8387,1831.333334,note_on,55,0,64,0
8388,1831.333334,note_off,55,0,64,320
8389,1832.000000,note_on,56,0,64,0
8390,1832.000000,note_off,56,0,64,320
8391,1832.666667,note_on,57,2047,64,0
8392,1832.666667,pitchwheel,57,2047,64,0
8393,1832.666667,note_off,57,2047,64,160
8394,1833.000000,note_on,50,2457,64,0
8395,1833.000000,pitchwheel,50,2457,64,0
8396,1833.000000,note_off,50,2457,64,160
8397,1833.333334,note_on,50,819,64,0
8398,1833.333334,pitchwheel,50,819,64,0
8399,1833.333334,note_off,50,819,64,320
8400,1834.000000,note_on,48,2047,64,0
8401,1834.000000,pitchwheel,48,2047,64,0
8402,1834.000000,note_off,48,2047,64,480
8403,1835.000000,note_on,55,0,64,0
8404,1835.000000,note_off,55,0,64,160
8405,1835.333334,note_on,50,0,64,0
8406,1835.333334,note_off,50,0,64,320
8407,1836.000000,note_on,48,819,64,0
8408,1836.000000,pitchwheel,48,819,64,0
8409,1836.000000,note_off,48,819,64,320
8410,1836.666667,note_on,45,1638,64,0
8411,1836.666667,pitchwheel,45,1638,64,0
8412,1836.666667,note_off,45,1638,64,160
8413,1837.000000,note_on,41,0,64,0
8414,1837.000000,note_off,41,0,64,160
8415,1837.333334,note_on,46,1638,64,0
8416,1837.333334,pitchwheel,46,1638,64,0
8417,1837.333334,note_off,46,1638,64,320
8418,1838.000000,note_on,47,3685,64,0
8419,1838.000000,pitchwheel,47,3685,64,0
8420,1838.000000,note_off,47,3685,64,320
8421,1838.666667,note_on,48,819,64,0
8422,1838.666667,pitchwheel,48,819,64,0
8423,1838.666667,note_off,48,819,64,320
8424,1840.000000,note_on,48,3276,64,0
8425,1840.000000,pitchwheel,48,3276,64,0
8426,1840.000000,note_off,48,3276,64,320
8427,1840.666667,note_on,53,0,64,0
8428,1840.666667,note_off,53,0,64,640
8429,1842.000000,note_on,50,2457,64,0
8430,1842.000000,pitchwheel,50,2457,64,0
8431,1842.000000,note_off,50,2457,64,320
8432,1842.666667,note_on,56,0,64,0
8433,1842.666667,note_off,56,0,64,160
8434,1843.000000,note_on,50,819,64,0
8435,1843.000000,pitchwheel,50,819,64,0
8436,1843.000000,note_off,50,819,64,160
8437,1843.333334,note_on,50,2457,64,0
8438,1843.333334,pitchwheel,50,2457,64,0
8439,1843.333334,note_off,50,2457,64,320
8440,1844.000000,note_on,53,2457,64,0
8441,1844.000000,pitchwheel,53,2457,64,0
8442,1844.000000,note_off,53,2457,64,480
8443,1845.333334,note_on,55,409,64,0
8444,1845.333334,pitchwheel,55,409,64,0
8445,1845.333334,note_off,55,409,64,320
8446,1846.000000,note_on,59,3276,64,0
8447,1846.000000,pitchwheel,59,3276,64,0
8448,1846.000000,note_off,59,3276,64,320
8449,1846.666667,note_on,52,0,64,0
8450,1846.666667,note_off,52,0,64,320
8451,1847.333334,note_on,47,3276,64,0
8452,1847.333334,pitchwheel,47,3276,64,0
8453,1847.333334,note_off,47,3276,64,320
8454,1848.000000,note_on,48,3276,64,0
8455,1848.000000,pitchwheel,48,3276,64,0
8456,1848.000000,note_off,48,3276,64,320
8457,1848.666667,note_on,53,0,64,0
8458,1848.666667,note_off,53,0,64,320
8459,1849.333334,note_on,57,1638,64,0
8460,1849.333334,pitchwheel,57,1638,64,0
8461,1849.333334,note_off,57,1638,64,320
8462,1850.000000,note_on,59,2047,64,0
8463,1850.000000,pitchwheel,59,2047,64,0
8464,1850.000000,note_off,59,2047,64,480
8465,1851.000000,note_on,52,2457,64,0
8466,1851.000000,pitchwheel,52,2457,64,0
8467,1851.000000,note_off,52,2457,64,160
8468,1851.333334,note_on,57,0,64,0
8469,1851.333334,note_off,57,0,64,320
8470,1852.000000,note_on,51,819,64,0
8471,1852.000000,pitchwheel,51,819,64,0
8472,1852.000000,note_off,51,819,64,320
8473,1852.666667,note_on,50,819,64,0
8474,1852.666667,pitchwheel,50,819,64,0
8475,1852.666667,note_off,50,819,64,160
8476,1853.000000,note_on,48,819,64,0
8477,1853.000000,pitchwheel,48,819,64,0
8478,1853.000000,note_off,48,819,64,160
8479,1853.333334,note_on,51,819,64,0
8480,1853.333334,pitchwheel,51,819,64,0
8481,1853.333334,note_off,51,819,64,320
8482,1854.000000,note_on,47,3685,64,0
8483,1854.000000,pitchwheel,47,3685,64,0
8484,1854.000000,note_off,47,3685,64,320
8485,1854.666667,note_on,50,1228,64,0
8486,1854.666667,pitchwheel,50,1228,64,0
8487,1854.666667,note_off,50,1228,64,160
8488,1855.000000,note_on,55,0,64,0
8489,1855.000000,note_off,55,0,64,160
8490,1855.333334,note_on,59,2457,64,0
8491,1855.333334,pitchwheel,59,2457,64,0
8492,1855.333334,note_off,59,2457,64,320
8493,1856.000000,note_on,57,2047,64,0
8494,1856.000000,pitchwheel,57,2047,64,0
8495,1856.000000,note_off,57,2047,64,320
8496,1856.666667,note_on,55,0,64,0
8497,1856.666667,note_off,55,0,64,160
8498,1857.000000,note_on,57,0,64,0
8499,1857.000000,note_off,57,0,64,160
8500,1857.333334,note_on,50,2457,64,0
8501,1857.333334,pitchwheel,50,2457,64,0
8502,1857.333334,note_off,50,2457,64,320
8503,1858.000000,note_on,52,2457,64,0
8504,1858.000000,pitchwheel,52,2457,64,0
8505,1858.000000,note_off,52,2457,64,320
8506,1858.666667,note_on,48,3276,64,0
8507,1858.666667,pitchwheel,48,3276,64,0
8508,1858.666667,note_off,48,3276,64,160
8509,1859.000000,note_on,43,0,64,0
8510,1859.000000,note_off,43,0,64,160
8511,1859.333334,note_on,48,819,64,0
8512,1859.333334,pitchwheel,48,819,64,0
8513,1859.333334,note_off,48,819,64,320
8514,1860.000000,note_on,53,0,64,0
8515,1860.000000,note_off,53,0,64,320
8516,1860.666667,note_on,50,0,64,0
8517,1860.666667,note_off,50,0,64,320
8518,1861.333334,note_on,50,3685,64,0
8519,1861.333334,pitchwheel,50,3685,64,0
8520,1861.333334,note_off,50,3685,64,320
8521,1862.000000,note_on,50,2457,64,0
8522,1862.000000,pitchwheel,50,2457,64,0
8523,1862.000000,note_off,50,2457,64,320
8524,1862.666667,note_on,45,3276,64,0
8525,1862.666667,pitchwheel,45,3276,64,0
8526,1862.666667,note_off,45,3276,64,160
8527,1863.000000,note_on,47,2457,64,0
8528,1863.000000,pitchwheel,47,2457,64,0
8529,1863.000000,note_off,47,2457,64,160
8530,1863.333334,note_on,43,0,64,0
8531,1863.333334,note_off,43,0,64,320
8532,1864.000000,note_on,45,2047,64,0
8533,1864.000000,pitchwheel,45,2047,64,0
8534,1864.000000,note_off,45,2047,64,320
8535,1864.666667,note_on,45,3276,64,0
8536,1864.666667,pitchwheel,45,3276,64,0
8537,1864.666667,note_off,45,3276,64,160
8538,1865.000000,note_on,40,2866,64,0
8539,1865.000000,pitchwheel,40,2866,64,0
8540,1865.000000,note_off,40,2866,64,160
8541,1865.333334,note_on,45,2047,64,0
8542,1865.333334,pitchwheel,45,2047,64,0
8543,1865.333334,note_off,45,2047,64,320
8544,1866.000000,note_on,43,2866,64,0
8545,1866.000000,pitchwheel,43,2866,64,0
8546,1866.000000,note_off,43,2866,64,320
8547,1866.666667,note_on,44,2047,64,0
8548,1866.666667,pitchwheel,44,2047,64,0
8549,1866.666667,note_off,44,2047,64,160
8550,1867.000000,note_on,45,1638,64,0
8551,1867.000000,pitchwheel,45,1638,64,0
8552,1867.000000,note_off,45,1638,64,160
8553,1867.333334,note_on,41,0,64,0
8554,1867.333334,note_off,41,0,64,320
8555,1868.000000,note_on,38,2457,64,0
8556,1868.000000,pitchwheel,38,2457,64,0
8557,1868.000000,note_off,38,2457,64,320
8558,1868.666667,note_on,45,1638,64,0
8559,1868.666667,pitchwheel,45,1638,64,0
8560,1868.666667,note_off,45,1638,64,160
8561,1869.000000,note_on,43,1638,64,0
8562,1869.000000,pitchwheel,43,1638,64,0
8563,1869.000000,note_off,43,1638,64,160
8564,1869.333334,note_on,44,0,64,0
8565,1869.333334,note_off,44,0,64,320
8566,1870.000000,note_on,41,0,64,0
8567,1870.000000,note_off,41,0,64,320
8568,1870.666667,note_on,46,0,64,0
8569,1870.666667,note_off,46,0,64,160
8570,1871.000000,note_on,50,0,64,0
8571,1871.000000,note_off,50,0,64,480
8572,1872.000000,note_on,47,2457,64,0
8573,1872.000000,pitchwheel,47,2457,64,0
8574,1872.000000,note_off,47,2457,64,480
8575,1873.000000,note_on,50,2457,64,0
8576,1873.000000,pitchwheel,50,2457,64,0
8577,1873.000000,note_off,50,2457,64,160
8578,1873.333334,note_on,52,0,64,0
8579,1873.333334,note_off,52,0,64,320
8580,1874.000000,note_on,57,0,64,0
8581,1874.000000,note_off,57,0,64,320
8582,1874.666667,note_on,58,1638,64,0
8583,1874.666667,pitchwheel,58,1638,64,0
8584,1874.666667,note_off,58,1638,64,160
8585,1875.000000,note_on,59,3276,64,0
8586,1875.000000,pitchwheel,59,3276,64,0
8587,1875.000000,note_off,59,3276,64,160
8588,1875.333334,note_on,53,0,64,0
8589,1875.333334,note_off,53,0,64,320
8590,1876.000000,note_on,52,2866,64,0
8591,1876.000000,pitchwheel,52,2866,64,0
8592,1876.000000,note_off,52,2866,64,320
8593,1876.666667,note_on,50,819,64,0
8594,1876.666667,pitchwheel,50,819,64,0
8595,1876.666667,note_off,50,819,64,160
8596,1877.000000,note_on,53,0,64,0
8597,1877.000000,note_off,53,0,64,160
8598,1877.333334,note_on,50,0,64,0
8599,1877.333334,note_off,50,0,64,320
8600,1878.000000,note_on,52,2457,64,0
8601,1878.000000,pitchwheel,52,2457,64,0
8602,1878.000000,note_off,52,2457,64,480
8603,1879.333334,note_on,50,819,64,0
8604,1879.333334,pitchwheel,50,819,64,0
8605,1879.333334,note_off,50,819,64,320
8606,1880.000000,note_on,48,3276,64,0
8607,1880.000000,pitchwheel,48,3276,64,0
8608,1880.000000,note_off,48,3276,64,480
8609,1881.000000,note_on,48,2047,64,0
8610,1881.000000,pitchwheel,48,2047,64,0
8611,1881.000000,note_off,48,2047,64,160
8612,1881.333334,note_on,50,1228,64,0
8613,1881.333334,pitchwheel,50,1228,64,0
8614,1881.333334,note_off,50,1228,64,320
8615,1882.000000,note_on,47,2457,64,0
8616,1882.000000,pitchwheel,47,2457,64,0
8617,1882.000000,note_off,47,2457,64,320
8618,1882.666667,note_on,46,1638,64,0
8619,1882.666667,pitchwheel,46,1638,64,0
8620,1882.666667,note_off,46,1638,64,160
8621,1883.000000,note_on,47,3276,64,0
8622,1883.000000,pitchwheel,47,3276,64,0
8623,1883.000000,note_off,47,3276,64,160
8624,1883.333334,note_on,49,0,64,0
8625,1883.333334,note_off,49,0,64,320
8626,1884.000000,note_on,48,819,64,0
8627,1884.000000,pitchwheel,48,819,64,0
8628,1884.000000,note_off,48,819,64,320
8629,1884.666667,note_on,52,2457,64,0
8630,1884.666667,pitchwheel,52,2457,64,0
8631,1884.666667,note_off,52,2457,64,160
8632,1885.000000,note_on,57,0,64,0
8633,1885.000000,note_off,57,0,64,160
8634,1885.333334,note_on,51,819,64,0
8635,1885.333334,pitchwheel,51,819,64,0
8636,1885.333334,note_off,51,819,64,320
8637,1886.000000,note_on,48,819,64,0
8638,1886.000000,pitchwheel,48,819,64,0
8639,1886.000000,note_off,48,819,64,320
8640,1886.666667,note_on,47,3276,64,0
8641,1886.666667,pitchwheel,47,3276,64,0
8642,1886.666667,note_off,47,3276,64,320
8643,1887.333334,note_on,50,0,64,0
8644,1887.333334,note_off,50,0,64,320
8645,1888.000000,note_on,47,2457,64,0
8646,1888.000000,pitchwheel,47,2457,64,0
8647,1888.000000,note_off,47,2457,64,320
8648,1888.666667,note_on,50,2457,64,0
8649,1888.666667,pitchwheel,50,2457,64,0
8650,1888.666667,note_off,50,2457,64,320
8651,1889.333334,note_on,45,0,64,0
8652,1889.333334,note_off,45,0,64,320
8653,1890.000000,note_on,45,3276,64,0
8654,1890.000000,pitchwheel,45,3276,64,0
8655,1890.000000,note_off,45,3276,64,320
8656,1890.666667,note_on,41,0,64,0
8657,1890.666667,note_off,41,0,64,160
8658,1891.000000,note_on,38,819,64,0
8659,1891.000000,pitchwheel,38,819,64,0
8660,1891.000000,note_off,38,819,64,160
8661,1891.333334,note_on,45,3276,64,0
8662,1891.333334,pitchwheel,45,3276,64,0
8663,1891.333334,note_off,45,3276,64,320
8664,1892.000000,note_on,45,2047,64,0
8665,1892.000000,pitchwheel,45,2047,64,0
8666,1892.000000,note_off,45,2047,64,480
8667,1893.000000,note_on,45,3276,64,0
8668,1893.000000,pitchwheel,45,3276,64,0
8669,1893.000000,note_off,45,3276,64,160
8670,1893.333334,note_on,45,1638,64,0
8671,1893.333334,pitchwheel,45,1638,64,0
8672,1893.333334,note_off,45,1638,64,320
8673,1894.000000,note_on,45,2047,64,0
8674,1894.000000,pitchwheel,45,2047,64,0
8675,1894.000000,note_off,45,2047,64,480
8676,1895.000000,note_on,40,2457,64,0
8677,1895.000000,pitchwheel,40,2457,64,0
8678,1895.000000,note_off,40,2457,64,160
8679,1895.333334,note_on,38,819,64,0
8680,1895.333334,pitchwheel,38,819,64,0
8681,1895.333334,note_off,38,819,64,320
8682,1896.000000,note_on,36,819,64,0
8683,1896.000000,pitchwheel,36,819,64,0
8684,1896.000000,note_off,36,819,64,480
8685,1897.000000,note_on,45,0,64,0
8686,1897.000000,note_off,45,0,64,160
8687,1897.333334,note_on,46,0,64,0
8688,1897.333334,note_off,46,0,64,320
8689,1898.000000,note_on,38,3685,64,0
8690,1898.000000,pitchwheel,38,3685,64,0
8691,1898.000000,note_off,38,3685,64,320
8692,1898.666667,note_on,46,1638,64,0
8693,1898.666667,pitchwheel,46,1638,64,0
8694,1898.666667,note_off,46,1638,64,160
8695,1899.000000,note_on,40,2457,64,0
8696,1899.000000,pitchwheel,40,2457,64,0
8697,1899.000000,note_off,40,2457,64,480
8698,1900.000000,note_on,36,3276,64,0
8699,1900.000000,pitchwheel,36,3276,64,0
8700,1900.000000,note_off,36,3276,64,320
8701,1900.666667,note_on,40,2457,64,0
8702,1900.666667,pitchwheel,40,2457,64,0
8703,1900.666667,note_off,40,2457,64,320
8704,1901.333334,note_on,39,819,64,0
8705,1901.333334,pitchwheel,39,819,64,0
8706,1901.333334,note_off,39,819,64,320
8707,1902.000000,note_on,41,0,64,0
8708,1902.000000,note_off,41,0,64,320
8709,1902.666667,note_on,41,1228,64,0
8710,1902.666667,pitchwheel,41,1228,64,0
8711,1902.666667,note_off,41,1228,64,160
8712,1903.000000,note_on,43,1638,64,0
8713,1903.000000,pitchwheel,43,1638,64,0
8714,1903.000000,note_off,43,1638,64,160
8715,1903.333334,note_on,40,2457,64,0
8716,1903.333334,pitchwheel,40,2457,64,0
8717,1903.333334,note_off,40,2457,64,320
8718,1904.000000,note_on,39,819,64,0
8719,1904.000000,pitchwheel,39,819,64,0
8720,1904.000000,note_off,39,819,64,320
8721,1904.666667,note_on,45,0,64,0
8722,1904.666667,note_off,45,0,64,160
8723,1905.000000,note_on,47,2047,64,0
8724,1905.000000,pitchwheel,47,2047,64,0
8725,1905.000000,note_off,47,2047,64,160
8726,1905.333334,note_on,43,1638,64,0
8727,1905.333334,pitchwheel,43,1638,64,0
8728,1905.333334,note_off,43,1638,64,320
8729,1906.000000,note_on,43,0,64,0
8730,1906.000000,note_off,43,0,64,320
8731,1906.666667,note_on,43,1638,64,0
8732,1906.666667,pitchwheel,43,1638,64,0
8733,1906.666667,note_off,43,1638,64,160
8734,1907.000000,note_on,43,0,64,0
8735,1907.000000,note_off,43,0,64,480
8736,1908.000000,note_on,46,1638,64,0
8737,1908.000000,pitchwheel,46,1638,64,0
8738,1908.000000,note_off,46,1638,64,320
8739,1908.666667,note_on,43,1638,64,0
8740,1908.666667,pitchwheel,43,1638,64,0
8741,1908.666667,note_off,43,1638,64,160
8742,1909.000000,note_on,41,0,64,0
8743,1909.000000,note_off,41,0,64,160
8744,1909.333334,note_on,36,819,64,0
8745,1909.333334,pitchwheel,36,819,64,0
8746,1909.333334,note_off,36,819,64,320
8747,1910.000000,note_on,43,1638,64,0
8748,1910.000000,pitchwheel,43,1638,64,0
8749,1910.000000,note_off,43,1638,64,320
8750,1910.666667,note_on,41,0,64,0
8751,1910.666667,note_off,41,0,64,320
8752,1911.333334,note_on,45,1638,64,0
8753,1911.333334,pitchwheel,45,1638,64,0
8754,1911.333334,note_off,45,1638,64,320
8755,1912.000000,note_on,46,1638,64,0
8756,1912.000000,pitchwheel,46,1638,64,0
8757,1912.000000,note_off,46,1638,64,320
8758,1912.666667,note_on,45,3276,64,0
8759,1912.666667,pitchwheel,45,3276,64,0
8760,1912.666667,note_off,45,3276,64,160
8761,1913.000000,note_on,50,3685,64,0
8762,1913.000000,pitchwheel,50,3685,64,0
8763,1913.000000,note_off,50,3685,64,160
8764,1913.333334,note_on,47,3276,64,0
8765,1913.333334,pitchwheel,47,3276,64,0
8766,1913.333334,note_off,47,3276,64,320
8767,1914.000000,note_on,53,0,64,0
8768,1914.000000,note_off,53,0,64,320
8769,1914.666667,note_on,50,1228,64,0
8770,1914.666667,pitchwheel,50,1228,64,0
8771,1914.666667,note_off,50,1228,64,160
8772,1915.000000,note_on,45,1638,64,0
8773,1915.000000,pitchwheel,45,1638,64,0
8774,1915.000000,note_off,45,1638,64,160
8775,1915.333334,note_on,50,3685,64,0
8776,1915.333334,pitchwheel,50,3685,64,0
8777,1915.333334,note_off,50,3685,64,320
8778,1916.000000,note_on,53,0,64,0
8779,1916.000000,note_off,53,0,64,320
8780,1916.666667,note_on,47,3276,64,0
8781,1916.666667,pitchwheel,47,3276,64,0
8782,1916.666667,note_off,47,3276,64,160
8783,1917.000000,note_on,50,2457,64,0
8784,1917.000000,pitchwheel,50,2457,64,0
8785,1917.000000,note_off,50,2457,64,160
8786,1917.333334,note_on,56,0,64,0
8787,1917.333334,note_off,56,0,64,320
8788,1918.000000,note_on,48,819,64,0
8789,1918.000000,pitchwheel,48,819,64,0
8790,1918.000000,note_off,48,819,64,320
8791,1918.666667,note_on,48,2047,64,0
8792,1918.666667,pitchwheel,48,2047,64,0
8793,1918.666667,note_off,48,2047,64,320
8794,1920.000000,note_on,59,2047,64,0
8795,1920.000000,pitchwheel,59,2047,64,0
8796,1920.000000,note_off,59,2047,64,320
8797,1920.666667,note_on,53,0,64,0
8798,1920.666667,note_off,53,0,64,160
8799,1921.000000,note_on,53,0,64,0
8800,1921.000000,note_off,53,0,64,160
8801,1921.333334,note_on,52,1638,64,0
8802,1921.333334,pitchwheel,52,1638,64,0
8803,1921.333334,note_off,52,1638,64,320
8804,1922.000000,note_on,47,3276,64,0
8805,1922.000000,pitchwheel,47,3276,64,0
8806,1922.000000,note_off,47,3276,64,320
8807,1922.666667,note_on,51,819,64,0
8808,1922.666667,pitchwheel,51,819,64,0
8809,1922.666667,note_off,51,819,64,160
8810,1923.000000,note_on,55,0,64,0
8811,1923.000000,note_off,55,0,64,160
8812,1923.333334,note_on,57,0,64,0
8813,1923.333334,note_off,57,0,64,320
8814,1924.000000,note_on,58,0,64,0
8815,1924.000000,note_off,58,0,64,480
8816,1925.000000,note_on,49,0,64,0
8817,1925.000000,note_off,49,0,64,160
8818,1925.333334,note_on,53,2457,64,0
8819,1925.333334,pitchwheel,53,2457,64,0
8820,1925.333334,note_off,53,2457,64,320
8821,1926.000000,note_on,58,0,64,0
8822,1926.000000,note_off,58,0,64,320
8823,1926.666667,note_on,56,2047,64,0
8824,1926.666667,pitchwheel,56,2047,64,0
8825,1926.666667,note_off,56,2047,64,320
8826,1927.333334,note_on,50,819,64,0
8827,1927.333334,pitchwheel,50,819,64,0
8828,1927.333334,note_off,50,819,64,320
8829,1928.000000,note_on,53,2457,64,0
8830,1928.000000,pitchwheel,53,2457,64,0
8831,1928.000000,note_off,53,2457,64,320
8832,1928.666667,note_on,57,3276,64,0
8833,1928.666667,pitchwheel,57,3276,64,0
8834,1928.666667,note_off,57,3276,64,320
8835,1929.333334,note_on,57,2047,64,0
8836,1929.333334,pitchwheel,57,2047,64,0
8837,1929.333334,note_off,57,2047,64,320
8838,1930.000000,note_on,55,0,64,0
8839,1930.000000,note_off,55,0,64,320
8840,1930.666667,note_on,56,0,64,0
8841,1930.666667,note_off,56,0,64,160
8842,1931.000000,note_on,52,2457,64,0
8843,1931.000000,pitchwheel,52,2457,64,0
8844,1931.000000,note_off,52,2457,64,160
8845,1931.333334,note_on,57,0,64,0
8846,1931.333334,note_off,57,0,64,320
8847,1932.000000,note_on,51,819,64,0
8848,1932.000000,pitchwheel,51,819,64,0
8849,1932.000000,note_off,51,819,64,320
8850,1932.666667,note_on,52,2457,64,0
8851,1932.666667,pitchwheel,52,2457,64,0
8852,1932.666667,note_off,52,2457,64,160
8853,1933.000000,note_on,57,3276,64,0
8854,1933.000000,pitchwheel,57,3276,64,0
8855,1933.000000,note_off,57,3276,64,160
8856,1933.333334,note_on,49,0,64,0
8857,1933.333334,note_off,49,0,64,320
8858,1934.000000,note_on,58,409,64,0
8859,1934.000000,pitchwheel,58,409,64,0
8860,1934.000000,note_off,58,409,64,320
8861,1934.666667,note_on,57,1638,64,0
8862,1934.666667,pitchwheel,57,1638,64,0
8863,1934.666667,note_off,57,1638,64,160
8864,1935.000000,note_on,50,819,64,0
8865,1935.000000,pitchwheel,50,819,64,0
8866,1935.000000,note_off,50,819,64,160
8867,1935.333334,note_on,46,409,64,0
8868,1935.333334,pitchwheel,46,409,64,0
8869,1935.333334,note_off,46,409,64,320
8870,1936.000000,note_on,46,0,64,0
8871,1936.000000,note_off,46,0,64,320
8872,1936.666667,note_on,47,2047,64,0
8873,1936.666667,pitchwheel,47,2047,64,0
8874,1936.666667,note_off,47,2047,64,160
8875,1937.000000,note_on,45,0,64,0
8876,1937.000000,note_off,45,0,64,160
8877,1937.333334,note_on,48,819,64,0
8878,1937.333334,pitchwheel,48,819,64,0
8879,1937.333334,note_off,48,819,64,320
8880,1938.000000,note_on,43,0,64,0
8881,1938.000000,note_off,43,0,64,320
8882,1938.666667,note_on,46,1638,64,0
8883,1938.666667,pitchwheel,46,1638,64,0
8884,1938.666667,note_off,46,1638,64,160
8885,1939.000000,note_on,50,819,64,0
8886,1939.000000,pitchwheel,50,819,64,0
8887,1939.000000,note_off,50,819,64,160
8888,1939.333334,note_on,53,0,64,0
8889,1939.333334,note_off,53,0,64,320
8890,1940.000000,note_on,57,2047,64,0
8891,1940.000000,pitchwheel,57,2047,64,0
8892,1940.000000,note_off,57,2047,64,320
8893,1940.666667,note_on,48,2047,64,0
8894,1940.666667,pitchwheel,48,2047,64,0
8895,1940.666667,note_off,48,2047,64,320
8896,1941.333334,note_on,56,0,64,0
8897,1941.333334,note_off,56,0,64,320
8898,1942.000000,note_on,59,3276,64,0
8899,1942.000000,pitchwheel,59,3276,64,0
8900,1942.000000,note_off,59,3276,64,320
8901,1942.666667,note_on,57,0,64,0
8902,1942.666667,note_off,57,0,64,160
8903,1943.000000,note_on,58,409,64,0
8904,1943.000000,pitchwheel,58,409,64,0
8905,1943.000000,note_off,58,409,64,160
8906,1943.333334,note_on,57,1638,64,0
8907,1943.333334,pitchwheel,57,1638,64,0
8908,1943.333334,note_off,57,1638,64,320
8909,1944.000000,note_on,58,0,64,0
8910,1944.000000,note_off,58,0,64,320
8911,1944.666667,note_on,50,2457,64,0
8912,1944.666667,pitchwheel,50,2457,64,0
8913,1944.666667,note_off,50,2457,64,160
8914,1945.000000,note_on,45,2047,64,0
8915,1945.000000,pitchwheel,45,2047,64,0
8916,1945.000000,note_off,45,2047,64,160
8917,1945.333334,note_on,50,1228,64,0
8918,1945.333334,pitchwheel,50,1228,64,0
8919,1945.333334,note_off,50,1228,64,320
8920,1946.666667,note_on,50,2457,64,0
8921,1946.666667,pitchwheel,50,2457,64,0
8922,1946.666667,note_off,50,2457,64,160
8923,1947.000000,note_on,47,3276,64,0
8924,1947.000000,pitchwheel,47,3276,64,0
8925,1947.000000,note_off,47,3276,64,480
8926,1948.000000,note_on,45,3276,64,0
8927,1948.000000,pitchwheel,45,3276,64,0
8928,1948.000000,note_off,45,3276,64,320
8929,1948.666667,note_on,43,0,64,0
8930,1948.666667,note_off,43,0,64,160
8931,1949.000000,note_on,38,2457,64,0
8932,1949.000000,pitchwheel,38,2457,64,0
8933,1949.000000,note_off,38,2457,64,160
8934,1949.333334,note_on,36,3276,64,0
8935,1949.333334,pitchwheel,36,3276,64,0
8936,1949.333334,note_off,36,3276,64,320
8937,1950.000000,note_on,40,0,64,0
8938,1950.000000,note_off,40,0,64,320
8939,1950.666667,note_on,45,2047,64,0
8940,1950.666667,pitchwheel,45,2047,64,0
8941,1950.666667,note_off,45,2047,64,160
8942,1951.000000,note_on,48,2047,64,0
8943,1951.000000,pitchwheel,48,2047,64,0
8944,1951.000000,note_off,48,2047,64,480
8945,1952.000000,note_on,53,2457,64,0
8946,1952.000000,pitchwheel,53,2457,64,0
8947,1952.000000,note_off,53,2457,64,480
8948,1953.000000,note_on,50,2457,64,0
8949,1953.000000,pitchwheel,50,2457,64,0
8950,1953.000000,note_off,50,2457,64,160
8951,1953.333334,note_on,47,2047,64,0
8952,1953.333334,pitchwheel,47,2047,64,0
8953,1953.333334,note_off,47,2047,64,320
8954,1954.000000,note_on,52,2457,64,0
8955,1954.000000,pitchwheel,52,2457,64,0
8956,1954.000000,note_off,52,2457,64,320
8957,1954.666667,note_on,51,819,64,0
8958,1954.666667,pitchwheel,51,819,64,0
8959,1954.666667,note_off,51,819,64,160
8960,1955.000000,note_on,45,1638,64,0
8961,1955.000000,pitchwheel,45,1638,64,0
8962,1955.000000,note_off,45,1638,64,160
8963,1955.333334,note_on,41,1228,64,0
8964,1955.333334,pitchwheel,41,1228,64,0
8965,1955.333334,note_off,41,1228,64,320
8966,1956.000000,note_on,41,0,64,0
8967,1956.000000,note_off,41,0,64,320
8968,1956.666667,note_on,45,1638,64,0
8969,1956.666667,pitchwheel,45,1638,64,0
8970,1956.666667,note_off,45,1638,64,160
8971,1957.000000,note_on,41,0,64,0
8972,1957.000000,note_off,41,0,64,160
8973,1957.333334,note_on,46,409,64,0
8974,1957.333334,pitchwheel,46,409,64,0
8975,1957.333334,note_off,46,409,64,320
8976,1958.000000,note_on,45,0,64,0
8977,1958.000000,note_off,45,0,64,320
8978,1958.666667,note_on,41,0,64,0
8979,1958.666667,note_off,41,0,64,320
8980,1959.333334,note_on,38,819,64,0
8981,1959.333334,pitchwheel,38,819,64,0
8982,1959.333334,note_off,38,819,64,320
8983,1960.000000,note_on,40,0,64,0
8984,1960.000000,note_off,40,0,64,480
8985,1961.000000,note_on,38,2457,64,0
8986,1961.000000,pitchwheel,38,2457,64,0
8987,1961.000000,note_off,38,2457,64,480
8988,1962.000000,note_on,45,2047,64,0
8989,1962.000000,pitchwheel,45,2047,64,0
8990,1962.000000,note_off,45,2047,64,320
8991,1962.666667,note_on,44,0,64,0
8992,1962.666667,note_off,44,0,64,160
8993,1963.000000,note_on,45,1638,64,0
8994,1963.000000,pitchwheel,45,1638,64,0
8995,1963.000000,note_off,45,1638,64,160
8996,1963.333334,note_on,44,2047,64,0
8997,1963.333334,pitchwheel,44,2047,64,0
8998,1963.333334,note_off,44,2047,64,320
8999,1964.000000,note_on,38,0,64,0
9000,1964.000000,note_off,38,0,64,320
9001,1964.666667,note_on,47,3276,64,0
9002,1964.666667,pitchwheel,47,3276,64,0
9003,1964.666667,note_off,47,3276,64,160
9004,1965.000000,note_on,38,3685,64,0
9005,1965.000000,pitchwheel,38,3685,64,0
9006,1965.000000,note_off,38,3685,64,160
9007,1965.333334,note_on,45,0,64,0
9008,1965.333334,note_off,45,0,64,320
9009,1966.000000,note_on,46,0,64,0
9010,1966.000000,note_off,46,0,64,320
9011,1966.666667,note_on,40,2457,64,0
9012,1966.666667,pitchwheel,40,2457,64,0
9013,1966.666667,note_off,40,2457,64,320
9014,1967.333334,note_on,43,409,64,0
9015,1967.333334,pitchwheel,43,409,64,0
9016,1967.333334,note_off,43,409,64,320
9017,1968.000000,note_on,44,0,64,0
9018,1968.000000,note_off,44,0,64,320
9019,1968.666667,note_on,41,0,64,0
9020,1968.666667,note_off,41,0,64,320
9021,1969.333334,note_on,43,1638,64,0
9022,1969.333334,pitchwheel,43,1638,64,0
9023,1969.333334,note_off,43,1638,64,320
9024,1970.000000,note_on,45,1638,64,0
9025,1970.000000,pitchwheel,45,1638,64,0
9026,1970.000000,note_off,45,1638,64,320
9027,1970.666667,note_on,46,1638,64,0
9028,1970.666667,pitchwheel,46,1638,64,0
9029,1970.666667,note_off,46,1638,64,160
9030,1971.000000,note_on,43,0,64,0
9031,1971.000000,note_off,43,0,64,160
9032,1971.333334,note_on,46,409,64,0
9033,1971.333334,pitchwheel,46,409,64,0
9034,1971.333334,note_off,46,409,64,320
9035,1972.000000,note_on,45,3276,64,0
9036,1972.000000,pitchwheel,45,3276,64,0
9037,1972.000000,note_off,45,3276,64,480
9038,1973.000000,note_on,50,1228,64,0
9039,1973.000000,pitchwheel,50,1228,64,0
9040,1973.000000,note_off,50,1228,64,160
9041,1973.333334,note_on,46,1638,64,0
9042,1973.333334,pitchwheel,46,1638,64,0
9043,1973.333334,note_off,46,1638,64,320
9044,1974.000000,note_on,52,1638,64,0
9045,1974.000000,pitchwheel,52,1638,64,0
9046,1974.000000,note_off,52,1638,64,320
9047,1974.666667,note_on,53,0,64,0
9048,1974.666667,note_off,53,0,64,160
9049,1975.000000,note_on,47,3276,64,0
9050,1975.000000,pitchwheel,47,3276,64,0
9051,1975.000000,note_off,47,3276,64,160
9052,1975.333334,note_on,45,1638,64,0
9053,1975.333334,pitchwheel,45,1638,64,0
9054,1975.333334,note_off,45,1638,64,320
9055,1976.000000,note_on,44,0,64,0
9056,1976.000000,note_off,44,0,64,320
9057,1976.666667,note_on,38,2457,64,0
9058,1976.666667,pitchwheel,38,2457,64,0
9059,1976.666667,note_off,38,2457,64,160
9060,1977.000000,note_on,45,0,64,0
9061,1977.000000,note_off,45,0,64,160
9062,1977.333334,note_on,40,2457,64,0
9063,1977.333334,pitchwheel,40,2457,64,0
9064,1977.333334,note_off,40,2457,64,320
9065,1978.000000,note_on,38,1228,64,0
9066,1978.000000,pitchwheel,38,1228,64,0
9067,1978.000000,note_off,38,1228,64,320
9068,1978.666667,note_on,39,819,64,0
9069,1978.666667,pitchwheel,39,819,64,0
9070,1978.666667,note_off,39,819,64,160
9071,1979.000000,note_on,40,2457,64,0
9072,1979.000000,pitchwheel,40,2457,64,0
9073,1979.000000,note_off,40,2457,64,480
9074,1980.000000,note_on,39,819,64,0
9075,1980.000000,pitchwheel,39,819,64,0
9076,1980.000000,note_off,39,819,64,320
9077,1980.666667,note_on,43,0,64,0
9078,1980.666667,note_off,43,0,64,320
9079,1981.333334,note_on,46,0,64,0
9080,1981.333334,note_off,46,0,64,320
9081,1982.000000,note_on,48,2047,64,0
9082,1982.000000,pitchwheel,48,2047,64,0
9083,1982.000000,note_off,48,2047,64,320
9084,1982.666667,note_on,48,819,64,0
9085,1982.666667,pitchwheel,48,819,64,0
9086,1982.666667,note_off,48,819,64,160
9087,1983.000000,note_on,45,2047,64,0
9088,1983.000000,pitchwheel,45,2047,64,0
9089,1983.000000,note_off,45,2047,64,160
9090,1983.333334,note_on,47,3276,64,0
9091,1983.333334,pitchwheel,47,3276,64,0
9092,1983.333334,note_off,47,3276,64,320
9093,1984.000000,note_on,43,1638,64,0
9094,1984.000000,pitchwheel,43,1638,64,0
9095,1984.000000,note_off,43,1638,64,320
9096,1984.666667,note_on,45,0,64,0
9097,1984.666667,note_off,45,0,64,160
9098,1985.000000,note_on,47,3685,64,0
9099,1985.000000,pitchwheel,47,3685,64,0
9100,1985.000000,note_off,47,3685,64,480
9101,1986.000000,note_on,52,2457,64,0
9102,1986.000000,pitchwheel,52,2457,64,0
9103,1986.000000,note_off,52,2457,64,320
9104,1986.666667,note_on,51,819,64,0
9105,1986.666667,pitchwheel,51,819,64,0
9106,1986.666667,note_off,51,819,64,160
9107,1987.000000,note_on,50,819,64,0
9108,1987.000000,pitchwheel,50,819,64,0
9109,1987.000000,note_off,50,819,64,480
9110,1988.000000,note_on,48,3276,64,0
9111,1988.000000,pitchwheel,48,3276,64,0
9112,1988.000000,note_off,48,3276,64,320
9113,1988.666667,note_on,45,2047,64,0
9114,1988.666667,pitchwheel,45,2047,64,0
9115,1988.666667,note_off,45,2047,64,160
9116,1989.000000,note_on,43,409,64,0
9117,1989.000000,pitchwheel,43,409,64,0
9118,1989.000000,note_off,43,409,64,480
9119,1990.000000,note_on,43,0,64,0
9120,1990.000000,note_off,43,0,64,320
9121,1990.666667,note_on,43,2866,64,0
9122,1990.666667,pitchwheel,43,2866,64,0
9123,1990.666667,note_off,43,2866,64,160
9124,1991.000000,note_on,43,409,64,0
9125,1991.000000,pitchwheel,43,409,64,0
9126,1991.000000,note_off,43,409,64,160
9127,1991.333334,note_on,38,819,64,0
9128,1991.333334,pitchwheel,38,819,64,0
9129,1991.333334,note_off,38,819,64,320
9130,1992.000000,note_on,36,3276,64,0
9131,1992.000000,pitchwheel,36,3276,64,0
9132,1992.000000,note_off,36,3276,64,320
9133,1992.666667,note_on,43,2866,64,0
9134,1992.666667,pitchwheel,43,2866,64,0
9135,1992.666667,note_off,43,2866,64,160
9136,1993.000000,note_on,41,0,64,0
9137,1993.000000,note_off,41,0,64,160
9138,1993.333334,note_on,40,2457,64,0
9139,1993.333334,pitchwheel,40,2457,64,0
9140,1993.333334,note_off,40,2457,64,320
9141,1994.000000,note_on,40,2866,64,0
9142,1994.000000,pitchwheel,40,2866,64,0
9143,1994.000000,note_off,40,2866,64,320
9144,1994.666667,note_on,45,3276,64,0
9145,1994.666667,pitchwheel,45,3276,64,0
9146,1994.666667,note_off,45,3276,64,160
9147,1995.000000,note_on,47,3276,64,0
9148,1995.000000,pitchwheel,47,3276,64,0
9149,1995.000000,note_off,47,3276,64,160
9150,1995.333334,note_on,38,0,64,0
9151,1995.333334,note_off,38,0,64,320
9152,1996.000000,note_on,45,0,64,0
9153,1996.000000,note_off,45,0,64,320
9154,1996.666667,note_on,47,3276,64,0
9155,1996.666667,pitchwheel,47,3276,64,0
9156,1996.666667,note_off,47,3276,64,160
9157,1997.000000,note_on,45,2047,64,0
9158,1997.000000,pitchwheel,45,2047,64,0
9159,1997.000000,note_off,45,2047,64,160
9160,1997.333334,note_on,46,1638,64,0
9161,1997.333334,pitchwheel,46,1638,64,0
9162,1997.333334,note_off,46,1638,64,320
9163,1998.000000,note_on,45,3276,64,0
9164,1998.000000,pitchwheel,45,3276,64,0
9165,1998.000000,note_off,45,3276,64,320
9166,1998.666667,note_on,41,0,64,0
9167,1998.666667,note_off,41,0,64,320
9168,2000.000000,note_on,40,0,64,0
9169,2000.000000,note_off,40,0,64,320
9170,2000.666667,note_on,41,0,64,0
9171,2000.666667,note_off,41,0,64,160
9172,2001.000000,note_on,40,1638,64,0
9173,2001.000000,pitchwheel,40,1638,64,0
9174,2001.000000,note_off,40,1638,64,480
9175,2002.000000,note_on,41,0,64,0
9176,2002.000000,note_off,41,0,64,320
9177,2002.666667,note_on,44,0,64,0
9178,2002.666667,note_off,44,0,64,160
9179,2003.000000,note_on,45,1638,64,0
9180,2003.000000,pitchwheel,45,1638,64,0
9181,2003.000000,note_off,45,1638,64,160
9182,2003.333334,note_on,36,2047,64,0
9183,2003.333334,pitchwheel,36,2047,64,0
9184,2003.333334,note_off,36,2047,64,320
9185,2004.000000,note_on,44,0,64,0
9186,2004.000000,note_off,44,0,64,480
9187,2005.000000,note_on,41,0,64,0
9188,2005.000000,note_off,41,0,64,160
9189,2005.333334,note_on,43,1638,64,0
9190,2005.333334,pitchwheel,43,1638,64,0
9191,2005.333334,note_off,43,1638,64,320
9192,2006.000000,note_on,45,1638,64,0
9193,2006.000000,pitchwheel,45,1638,64,0
9194,2006.000000,note_off,45,1638,64,320
9195,2006.666667,note_on,44,2047,64,0
9196,2006.666667,pitchwheel,44,2047,64,0
9197,2006.666667,note_off,44,2047,64,320
9198,2007.333334,note_on,43,0,64,0
9199,2007.333334,note_off,43,0,64,320
9200,2008.000000,note_on,44,0,64,0
9201,2008.000000,note_off,44,0,64,320
9202,2008.666667,note_on,36,2047,64,0
9203,2008.666667,pitchwheel,36,2047,64,0
9204,2008.666667,note_off,36,2047,64,320
9205,2009.333334,note_on,36,819,64,0
9206,2009.333334,pitchwheel,36,819,64,0
9207,2009.333334,note_off,36,819,64,320
9208,2010.000000,note_on,40,0,64,0
9209,2010.000000,note_off,40,0,64,320
9210,2010.666667,note_on,46,1638,64,0
9211,2010.666667,pitchwheel,46,1638,64,0
9212,2010.666667,note_off,46,1638,64,160
9213,2011.000000,note_on,43,0,64,0
9214,2011.000000,note_off,43,0,64,160
9215,2011.333334,note_on,45,0,64,0
9216,2011.333334,note_off,45,0,64,320
9217,2012.000000,note_on,46,0,64,0
9218,2012.000000,note_off,46,0,64,320
9219,2012.666667,note_on,40,2457,64,0
9220,2012.666667,pitchwheel,40,2457,64,0
9221,2012.666667,note_off,40,2457,64,160
9222,2013.000000,note_on,41,1228,64,0
9223,2013.000000,pitchwheel,41,1228,64,0
9224,2013.000000,note_off,41,1228,64,160
9225,2013.333334,note_on,39,819,64,0
9226,2013.333334,pitchwheel,39,819,64,0
9227,2013.333334,note_off,39,819,64,320
9228,2014.000000,note_on,41,0,64,0
9229,2014.000000,note_off,41,0,64,320
9230,2014.666667,note_on,38,0,64,0
9231,2014.666667,note_off,38,0,64,160
9232,2015.000000,note_on,47,3276,64,0
9233,2015.000000,pitchwheel,47,3276,64,0
9234,2015.000000,note_off,47,3276,64,160
9235,2015.333334,note_on,47,2457,64,0
9236,2015.333334,pitchwheel,47,2457,64,0
9237,2015.333334,note_off,47,2457,64,320
9238,2016.000000,note_on,46,1638,64,0
9239,2016.000000,pitchwheel,46,1638,64,0
9240,2016.000000,note_off,46,1638,64,320
9241,2016.666667,note_on,44,2047,64,0
9242,2016.666667,pitchwheel,44,2047,64,0
9243,2016.666667,note_off,44,2047,64,160
9244,2017.000000,note_on,45,0,64,0
9245,2017.000000,note_off,45,0,64,160
9246,2017.333334,note_on,38,2457,64,0
9247,2017.333334,pitchwheel,38,2457,64,0
9248,2017.333334,note_off,38,2457,64,320
9249,2018.000000,note_on,38,819,64,0
9250,2018.000000,pitchwheel,38,819,64,0
9251,2018.000000,note_off,38,819,64,320
9252,2018.666667,note_on,39,819,64,0
9253,2018.666667,pitchwheel,39,819,64,0
9254,2018.666667,note_off,39,819,64,160
9255,2019.000000,note_on,40,2457,64,0
9256,2019.000000,pitchwheel,40,2457,64,0
9257,2019.000000,note_off,40,2457,64,160
9258,2019.333334,note_on,43,2866,64,0
9259,2019.333334,pitchwheel,43,2866,64,0
9260,2019.333334,note_off,43,2866,64,320
9261,2020.000000,note_on,43,0,64,0
9262,2020.000000,note_off,43,0,64,320
9263,2020.666667,note_on,38,0,64,0
9264,2020.666667,note_off,38,0,64,320
9265,2021.333334,note_on,38,819,64,0
9266,2021.333334,pitchwheel,38,819,64,0
9267,2021.333334,note_off,38,819,64,320
9268,2022.000000,note_on,38,2457,64,0
9269,2022.000000,pitchwheel,38,2457,64,0
9270,2022.000000,note_off,38,2457,64,320
9271,2022.666667,note_on,36,2047,64,0
9272,2022.666667,pitchwheel,36,2047,64,0
9273,2022.666667,note_off,36,2047,64,160
9274,2023.000000,note_on,45,2047,64,0
9275,2023.000000,pitchwheel,45,2047,64,0
9276,2023.000000,note_off,45,2047,64,160
9277,2023.333334,note_on,47,3276,64,0
9278,2023.333334,pitchwheel,47,3276,64,0
9279,2023.333334,note_off,47,3276,64,320
9280,2024.000000,note_on,46,1638,64,0
9281,2024.000000,pitchwheel,46,1638,64,0
9282,2024.000000,note_off,46,1638,64,320
9283,2024.666667,note_on,41,1228,64,0
9284,2024.666667,pitchwheel,41,1228,64,0
9285,2024.666667,note_off,41,1228,64,160
9286,2025.000000,note_on,44,2047,64,0
9287,2025.000000,pitchwheel,44,2047,64,0
9288,2025.000000,note_off,44,2047,64,160
9289,2025.333334,note_on,41,0,64,0
9290,2025.333334,note_off,41,0,64,320
9291,2026.000000,note_on,36,819,64,0
9292,2026.000000,pitchwheel,36,819,64,0
9293,2026.000000,note_off,36,819,64,320
9294,2026.666667,note_on,40,0,64,0
9295,2026.666667,note_off,40,0,64,160
9296,2027.000000,note_on,38,819,64,0
9297,2027.000000,pitchwheel,38,819,64,0
9298,2027.000000,note_off,38,819,64,160
9299,2027.333334,note_on,41,0,64,0
9300,2027.333334,note_off,41,0,64,320
9301,2028.000000,note_on,39,819,64,0
9302,2028.000000,pitchwheel,39,819,64,0
9303,2028.000000,note_off,39,819,64,320
9304,2028.666667,note_on,38,819,64,0
9305,2028.666667,pitchwheel,38,819,64,0
9306,2028.666667,note_off,38,819,64,160
9307,2029.000000,note_on,36,2047,64,0
9308,2029.000000,pitchwheel,36,2047,64,0
9309,2029.000000,note_off,36,2047,64,160
9310,2029.333334,note_on,38,2457,64,0
9311,2029.333334,pitchwheel,38,2457,64,0
9312,2029.333334,note_off,38,2457,64,320
9313,2030.000000,note_on,46,0,64,0
9314,2030.000000,note_off,46,0,64,320
9315,2030.666667,note_on,40,2457,64,0
9316,2030.666667,pitchwheel,40,2457,64,0
9317,2030.666667,note_off,40,2457,64,160
9318,2031.000000,note_on,47,3685,64,0
9319,2031.000000,pitchwheel,47,3685,64,0
9320,2031.000000,note_off,47,3685,64,480
9321,2032.000000,note_on,46,1638,64,0
9322,2032.000000,pitchwheel,46,1638,64,0
9323,2032.000000,note_off,46,1638,64,480
9324,2033.000000,note_on,38,0,64,0
9325,2033.000000,note_off,38,0,64,160
9326,2033.333334,note_on,44,2047,64,0
9327,2033.333334,pitchwheel,44,2047,64,0
9328,2033.333334,note_off,44,2047,64,320
9329,2034.000000,note_on,45,0,64,0
9330,2034.000000,note_off,45,0,64,320
9331,2034.666667,note_on,46,0,64,0
9332,2034.666667,note_off,46,0,64,160
9333,2035.000000,note_on,47,3276,64,0
9334,2035.000000,pitchwheel,47,3276,64,0
9335,2035.000000,note_off,47,3276,64,160
9336,2035.333334,note_on,36,2047,64,0
9337,2035.333334,pitchwheel,36,2047,64,0
9338,2035.333334,note_off,36,2047,64,320
9339,2036.000000,note_on,36,819,64,0
9340,2036.000000,pitchwheel,36,819,64,0
9341,2036.000000,note_off,36,819,64,320
9342,2036.666667,note_on,38,819,64,0
9343,2036.666667,pitchwheel,38,819,64,0
9344,2036.666667,note_off,38,819,64,160
9345,2037.000000,note_on,46,409,64,0
9346,2037.000000,pitchwheel,46,409,64,0
9347,2037.000000,note_off,46,409,64,160
9348,2037.333334,note_on,36,819,64,0
9349,2037.333334,pitchwheel,36,819,64,0
9350,2037.333334,note_off,36,819,64,320
9351,2038.000000,note_on,45,0,64,0
9352,2038.000000,note_off,45,0,64,480
9353,2039.333334,note_on,45,1638,64,0
9354,2039.333334,pitchwheel,45,1638,64,0
9355,2039.333334,note_off,45,1638,64,800
9356,2041.000000,note_on,41,0,64,0
9357,2041.000000,note_off,41,0,64,160
9358,2041.333334,note_on,43,0,64,0
9359,2041.333334,note_off,43,0,64,320
9360,2042.000000,note_on,47,2457,64,0
9361,2042.000000,pitchwheel,47,2457,64,0
9362,2042.000000,note_off,47,2457,64,320
9363,2042.666667,note_on,46,0,64,0
9364,2042.666667,note_off,46,0,64,160
9365,2043.000000,note_on,38,819,64,0
9366,2043.000000,pitchwheel,38,819,64,0
9367,2043.000000,note_off,38,819,64,160
9368,2043.333334,note_on,45,3276,64,0
9369,2043.333334,pitchwheel,45,3276,64,0
9370,2043.333334,note_off,45,3276,64,320
9371,2044.000000,note_on,43,2866,64,0
9372,2044.000000,pitchwheel,43,2866,64,0
9373,2044.000000,note_off,43,2866,64,320
9374,2044.666667,note_on,43,0,64,0
9375,2044.666667,note_off,43,0,64,320
9376,2045.333334,note_on,43,1638,64,0
9377,2045.333334,pitchwheel,43,1638,64,0
9378,2045.333334,note_off,43,1638,64,320
9379,2046.000000,note_on,43,2866,64,0
9380,2046.000000,pitchwheel,43,2866,64,0
9381,2046.000000,note_off,43,2866,64,320
9382,2046.666667,note_on,43,0,64,0
9383,2046.666667,note_off,43,0,64,320
9384,2047.333334,note_on,38,0,64,0
9385,2047.333334,note_off,38,0,64,320
9386,2048.000000,note_on,45,2047,64,0
9387,2048.000000,pitchwheel,45,2047,64,0
9388,2048.000000,note_off,45,2047,64,320
9389,2048.666667,note_on,38,2457,64,0
9390,2048.666667,pitchwheel,38,2457,64,0
9391,2048.666667,note_off,38,2457,64,320
9392,2049.333334,note_on,45,0,64,0
9393,2049.333334,note_off,45,0,64,320
9394,2050.000000,note_on,40,2457,64,0
9395,2050.000000,pitchwheel,40,2457,64,0
9396,2050.000000,note_off,40,2457,64,320
9397,2050.666667,note_on,44,0,64,0
9398,2050.666667,note_off,44,0,64,160
9399,2051.000000,note_on,47,3276,64,0
9400,2051.000000,pitchwheel,47,3276,64,0
9401,2051.000000,note_off,47,3276,64,160
9402,2051.333334,note_on,41,1228,64,0
9403,2051.333334,pitchwheel,41,1228,64,0
9404,2051.333334,note_off,41,1228,64,320
9405,2052.000000,note_on,41,0,64,0
9406,2052.000000,note_off,41,0,64,480
9407,2053.000000,note_on,38,1228,64,0
9408,2053.000000,pitchwheel,38,1228,64,0
9409,2053.000000,note_off,38,1228,64,160
9410,2053.333334,note_on,43,0,64,0
9411,2053.333334,note_off,43,0,64,320
9412,2054.000000,note_on,38,2457,64,0
9413,2054.000000,pitchwheel,38,2457,64,0
9414,2054.000000,note_off,38,2457,64,480
9415,2055.000000,note_on,45,1638,64,0
9416,2055.000000,pitchwheel,45,1638,64,0
9417,2055.000000,note_off,45,1638,64,160
9418,2055.333334,note_on,43,0,64,0
9419,2055.333334,note_off,43,0,64,320
9420,2056.000000,note_on,45,2047,64,0
9421,2056.000000,pitchwheel,45,2047,64,0
9422,2056.000000,note_off,45,2047,64,320
9423,2056.666667,note_on,45,0,64,0
9424,2056.666667,note_off,45,0,64,320
9425,2057.333334,note_on,46,0,64,0
9426,2057.333334,note_off,46,0,64,320
9427,2058.000000,note_on,43,1638,64,0
9428,2058.000000,pitchwheel,43,1638,64,0
9429,2058.000000,note_off,43,1638,64,320
9430,2058.666667,note_on,47,3685,64,0
9431,2058.666667,pitchwheel,47,3685,64,0
9432,2058.666667,note_off,47,3685,64,160
9433,2059.000000,note_on,45,1638,64,0
9434,2059.000000,pitchwheel,45,1638,64,0
9435,2059.000000,note_off,45,1638,64,480
9436,2060.000000,note_on,46,0,64,0
9437,2060.000000,note_off,46,0,64,320
9438,2060.666667,note_on,40,2457,64,0
9439,2060.666667,pitchwheel,40,2457,64,0
9440,2060.666667,note_off,40,2457,64,320
9441,2061.333334,note_on,41,2457,64,0
9442,2061.333334,pitchwheel,41,2457,64,0
9443,2061.333334,note_off,41,2457,64,320
9444,2062.000000,note_on,36,819,64,0
9445,2062.000000,pitchwheel,36,819,64,0
9446,2062.000000,note_off,36,819,64,320
9447,2062.666667,note_on,47,3685,64,0
9448,2062.666667,pitchwheel,47,3685,64,0
9449,2062.666667,note_off,47,3685,64,160
9450,2063.000000,note_on,47,2457,64,0
9451,2063.000000,pitchwheel,47,2457,64,0
9452,2063.000000,note_off,47,2457,64,160
9453,2063.333334,note_on,40,2457,64,0
9454,2063.333334,pitchwheel,40,2457,64,0
9455,2063.333334,note_off,40,2457,64,320
9456,2064.000000,note_on,36,3276,64,0
9457,2064.000000,pitchwheel,36,3276,64,0
9458,2064.000000,note_off,36,3276,64,320
9459,2064.666667,note_on,45,0,64,0
9460,2064.666667,note_off,45,0,64,160
9461,2065.000000,note_on,43,2866,64,0
9462,2065.000000,pitchwheel,43,2866,64,0
9463,2065.000000,note_off,43,2866,64,160
9464,2065.333334,note_on,38,3685,64,0
9465,2065.333334,pitchwheel,38,3685,64,0
9466,2065.333334,note_off,38,3685,64,320
9467,2066.000000,note_on,38,819,64,0
9468,2066.000000,pitchwheel,38,819,64,0
9469,2066.000000,note_off,38,819,64,320
9470,2066.666667,note_on,47,3276,64,0
9471,2066.666667,pitchwheel,47,3276,64,0
9472,2066.666667,note_off,47,3276,64,160
9473,2067.000000,note_on,43,0,64,0
9474,2067.000000,note_off,43,0,64,480
9475,2068.000000,note_on,46,1638,64,0
9476,2068.000000,pitchwheel,46,1638,64,0
9477,2068.000000,note_off,46,1638,64,320
9478,2068.666667,note_on,43,1638,64,0
9479,2068.666667,pitchwheel,43,1638,64,0
9480,2068.666667,note_off,43,1638,64,160
9481,2069.000000,note_on,43,409,64,0
9482,2069.000000,pitchwheel,43,409,64,0
9483,2069.000000,note_off,43,409,64,160
9484,2069.333334,note_on,47,2457,64,0
9485,2069.333334,pitchwheel,47,2457,64,0
9486,2069.333334,note_off,47,2457,64,320
9487,2070.000000,note_on,49,0,64,0
9488,2070.000000,note_off,49,0,64,320
9489,2070.666667,note_on,50,2457,64,0
9490,2070.666667,pitchwheel,50,2457,64,0
9491,2070.666667,note_off,50,2457,64,160
9492,2071.000000,note_on,50,0,64,0
9493,2071.000000,note_off,50,0,64,160
9494,2071.333334,note_on,47,3276,64,0
9495,2071.333334,pitchwheel,47,3276,64,0
9496,2071.333334,note_off,47,3276,64,320
9497,2072.000000,note_on,46,1638,64,0
9498,2072.000000,pitchwheel,46,1638,64,0
9499,2072.000000,note_off,46,1638,64,320
9500,2072.666667,note_on,43,1638,64,0
9501,2072.666667,pitchwheel,43,1638,64,0
9502,2072.666667,note_off,43,1638,64,160
9503,2073.000000,note_on,38,2457,64,0
9504,2073.000000,pitchwheel,38,2457,64,0
9505,2073.000000,note_off,38,2457,64,160
9506,2073.333334,note_on,43,409,64,0
9507,2073.333334,pitchwheel,43,409,64,0
9508,2073.333334,note_off,43,409,64,320
9509,2074.000000,note_on,41,0,64,0
9510,2074.000000,note_off,41,0,64,320
9511,2074.666667,note_on,46,1638,64,0
9512,2074.666667,pitchwheel,46,1638,64,0
9513,2074.666667,note_off,46,1638,64,160
9514,2075.000000,note_on,40,2457,64,0
9515,2075.000000,pitchwheel,40,2457,64,0
9516,2075.000000,note_off,40,2457,64,160
9517,2075.333334,note_on,38,3685,64,0
9518,2075.333334,pitchwheel,38,3685,64,0
9519,2075.333334,note_off,38,3685,64,320
9520,2076.000000,note_on,36,2047,64,0
9521,2076.000000,pitchwheel,36,2047,64,0
9522,2076.000000,note_off,36,2047,64,320
9523,2076.666667,note_on,45,1638,64,0
9524,2076.666667,pitchwheel,45,1638,64,0
9525,2076.666667,note_off,45,1638,64,160
9526,2077.000000,note_on,45,2047,64,0
9527,2077.000000,pitchwheel,45,2047,64,0
9528,2077.000000,note_off,45,2047,64,160
9529,2077.333334,note_on,48,819,64,0
9530,2077.333334,pitchwheel,48,819,64,0
9531,2077.333334,note_off,48,819,64,320
9532,2078.000000,note_on,45,3276,64,0
9533,2078.000000,pitchwheel,45,3276,64,0
9534,2078.000000,note_off,45,3276,64,320
9535,2078.666667,note_on,40,2866,64,0
9536,2078.666667,pitchwheel,40,2866,64,0
9537,2078.666667,note_off,40,2866,64,320
9538,2080.000000,note_on,39,819,64,0
9539,2080.000000,pitchwheel,39,819,64,0
9540,2080.000000,note_off,39,819,64,320
9541,2080.666667,note_on,41,0,64,0
9542,2080.666667,note_off,41,0,64,320
9543,2081.333334,note_on,36,2047,64,0
9544,2081.333334,pitchwheel,36,2047,64,0
9545,2081.333334,note_off,36,2047,64,320
9546,2082.000000,note_on,40,2457,64,0
9547,2082.000000,pitchwheel,40,2457,64,0
9548,2082.000000,note_off,40,2457,64,320
9549,2082.666667,note_on,36,3276,64,0
9550,2082.666667,pitchwheel,36,3276,64,0
9551,2082.666667,note_off,36,3276,64,160
9552,2083.000000,note_on,43,0,64,0
9553,2083.000000,note_off,43,0,64,160
9554,2083.333334,note_on,47,2047,64,0
9555,2083.333334,pitchwheel,47,2047,64,0
9556,2083.333334,note_off,47,2047,64,320
9557,2084.000000,note_on,46,0,64,0
9558,2084.000000,note_off,46,0,64,480
9559,2085.000000,note_on,45,0,64,0
9560,2085.000000,note_off,45,0,64,160
9561,2085.333334,note_on,47,3685,64,0
9562,2085.333334,pitchwheel,47,3685,64,0
9563,2085.333334,note_off,47,3685,64,320
9564,2086.000000,note_on,46,0,64,0
9565,2086.000000,note_off,46,0,64,320
9566,2086.666667,note_on,41,0,64,0
9567,2086.666667,note_off,41,0,64,320
9568,2087.333334,note_on,38,819,64,0
9569,2087.333334,pitchwheel,38,819,64,0
9570,2087.333334,note_off,38,819,64,320
9571,2088.000000,note_on,39,819,64,0
9572,2088.000000,pitchwheel,39,819,64,0
9573,2088.000000,note_off,39,819,64,320
9574,2088.666667,note_on,36,819,64,0
9575,2088.666667,pitchwheel,36,819,64,0
9576,2088.666667,note_off,36,819,64,320
9577,2089.333334,note_on,36,2047,64,0
9578,2089.333334,pitchwheel,36,2047,64,0
9579,2089.333334,note_off,36,2047,64,320
9580,2090.000000,note_on,43,0,64,0
9581,2090.000000,note_off,43,0,64,320
9582,2090.666667,note_on,44,0,64,0
9583,2090.666667,note_off,44,0,64,160
9584,2091.000000,note_on,40,2457,64,0
9585,2091.000000,pitchwheel,40,2457,64,0
9586,2091.000000,note_off,40,2457,64,160
9587,2091.333334,note_on,45,0,64,0
9588,2091.333334,note_off,45,0,64,320
9589,2092.000000,note_on,41,2457,64,0
9590,2092.000000,pitchwheel,41,2457,64,0
9591,2092.000000,note_off,41,2457,64,320
9592,2092.666667,note_on,47,3276,64,0
9593,2092.666667,pitchwheel,47,3276,64,0
9594,2092.666667,note_off,47,3276,64,160
9595,2093.000000,note_on,38,1228,64,0
9596,2093.000000,pitchwheel,38,1228,64,0
9597,2093.000000,note_off,38,1228,64,160
9598,2093.333334,note_on,47,3685,64,0
9599,2093.333334,pitchwheel,47,3685,64,0
9600,2093.333334,note_off,47,3685,64,320
9601,2094.000000,note_on,38,2457,64,0
9602,2094.000000,pitchwheel,38,2457,64,0
9603,2094.000000,note_off,38,2457,64,320
9604,2094.666667,note_on,47,3276,64,0
9605,2094.666667,pitchwheel,47,3276,64,0
9606,2094.666667,note_off,47,3276,64,160
9607,2095.000000,note_on,43,0,64,0
9608,2095.000000,note_off,43,0,64,160
9609,2095.333334,note_on,46,409,64,0
9610,2095.333334,pitchwheel,46,409,64,0
9611,2095.333334,note_off,46,409,64,320
9612,2096.000000,note_on,43,409,64,0
9613,2096.000000,pitchwheel,43,409,64,0
9614,2096.000000,note_off,43,409,64,320
9615,2096.666667,note_on,47,2047,64,0
9616,2096.666667,pitchwheel,47,2047,64,0
9617,2096.666667,note_off,47,2047,64,160
9618,2097.000000,note_on,45,0,64,0
9619,2097.000000,note_off,45,0,64,160
9620,2097.333334,note_on,41,1228,64,0
9621,2097.333334,pitchwheel,41,1228,64,0
9622,2097.333334,note_off,41,1228,64,320
9623,2098.000000,note_on,45,1638,64,0
9624,2098.000000,pitchwheel,45,1638,64,0
9625,2098.000000,note_off,45,1638,64,320
9626,2098.666667,note_on,44,0,64,0
9627,2098.666667,note_off,44,0,64,160
9628,2099.000000,note_on,38,819,64,0
9629,2099.000000,pitchwheel,38,819,64,0
9630,2099.000000,note_off,38,819,64,160
9631,2099.333334,note_on,41,0,64,0
9632,2099.333334,note_off,41,0,64,320
9633,2100.000000,note_on,45,1638,64,0
9634,2100.000000,pitchwheel,45,1638,64,0
9635,2100.000000,note_off,45,1638,64,320
9636,2100.666667,note_on,48,2047,64,0
9637,2100.666667,pitchwheel,48,2047,64,0
9638,2100.666667,note_off,48,2047,64,320
9639,2101.333334,note_on,48,3276,64,0
9640,2101.333334,pitchwheel,48,3276,64,0
9641,2101.333334,note_off,48,3276,64,320
9642,2102.000000,note_on,50,2457,64,0
9643,2102.000000,pitchwheel,50,2457,64,0
9644,2102.000000,note_off,50,2457,64,320
9645,2102.666667,note_on,45,0,64,0
9646,2102.666667,note_off,45,0,64,160
9647,2103.000000,note_on,47,2457,64,0
9648,2103.000000,pitchwheel,47,2457,64,0
9649,2103.000000,note_off,47,2457,64,160
9650,2103.333334,note_on,43,0,64,0
9651,2103.333334,note_off,43,0,64,320
9652,2104.000000,note_on,43,409,64,0
9653,2104.000000,pitchwheel,43,409,64,0
9654,2104.000000,note_off,43,409,64,320
9655,2104.666667,note_on,43,1638,64,0
9656,2104.666667,pitchwheel,43,1638,64,0
9657,2104.666667,note_off,43,1638,64,160
9658,2105.000000,note_on,49,0,64,0
9659,2105.000000,note_off,49,0,64,160
9660,2105.333334,note_on,43,2866,64,0
9661,2105.333334,pitchwheel,43,2866,64,0
9662,2105.333334,note_off,43,2866,64,320
9663,2106.000000,note_on,48,819,64,0
9664,2106.000000,pitchwheel,48,819,64,0
9665,2106.000000,note_off,48,819,64,320
9666,2106.666667,note_on,43,0,64,0
9667,2106.666667,note_off,43,0,64,160
9668,2107.000000,note_on,47,3276,64,0
9669,2107.000000,pitchwheel,47,3276,64,0
9670,2107.000000,note_off,47,3276,64,160
9671,2107.333334,note_on,50,2457,64,0
9672,2107.333334,pitchwheel,50,2457,64,0
9673,2107.333334,note_off,50,2457,64,320
9674,2108.000000,note_on,47,3685,64,0
9675,2108.000000,pitchwheel,47,3685,64,0
9676,2108.000000,note_off,47,3685,64,320
9677,2108.666667,note_on,50,819,64,0
9678,2108.666667,pitchwheel,50,819,64,0
9679,2108.666667,note_off,50,819,64,160
9680,2109.000000,note_on,55,409,64,0
9681,2109.000000,pitchwheel,55,409,64,0
9682,2109.000000,note_off,55,409,64,160
9683,2109.333334,note_on,50,2457,64,0
9684,2109.333334,pitchwheel,50,2457,64,0
9685,2109.333334,note_off,50,2457,64,320
9686,2110.000000,note_on,50,3685,64,0
9687,2110.000000,pitchwheel,50,3685,64,0
9688,2110.000000,note_off,50,3685,64,320
9689,2110.666667,note_on,46,0,64,0
9690,2110.666667,note_off,46,0,64,160
9691,2111.000000,note_on,50,0,64,0
9692,2111.000000,note_off,50,0,64,480
9693,2112.000000,note_on,46,1638,64,0
9694,2112.000000,pitchwheel,46,1638,64,0
9695,2112.000000,note_off,46,1638,64,320
9696,2113.000000,note_on,50,2457,64,0
9697,2113.000000,pitchwheel,50,2457,64,0
9698,2113.000000,note_off,50,2457,64,160
9699,2113.333334,note_on,48,2047,64,0
9700,2113.333334,pitchwheel,48,2047,64,0
9701,2113.333334,note_off,48,2047,64,320
9702,2114.000000,note_on,45,0,64,0
9703,2114.000000,note_off,45,0,64,320
9704,2114.666667,note_on,41,2457,64,0
9705,2114.666667,pitchwheel,41,2457,64,0
9706,2114.666667,note_off,41,2457,64,160
9707,2115.000000,note_on,45,1638,64,0
9708,2115.000000,pitchwheel,45,1638,64,0
9709,2115.000000,note_off,45,1638,64,160
9710,2115.333334,note_on,48,819,64,0
9711,2115.333334,pitchwheel,48,819,64,0
9712,2115.333334,note_off,48,819,64,320
9713,2116.000000,note_on,48,2047,64,0
9714,2116.000000,pitchwheel,48,2047,64,0
9715,2116.000000,note_off,48,2047,64,320
9716,2116.666667,note_on,45,1638,64,0
9717,2116.666667,pitchwheel,45,1638,64,0
9718,2116.666667,note_off,45,1638,64,160
9719,2117.000000,note_on,45,2047,64,0
9720,2117.000000,pitchwheel,45,2047,64,0
9721,2117.000000,note_off,45,2047,64,160
9722,2117.333334,note_on,47,2457,64,0
9723,2117.333334,pitchwheel,47,2457,64,0
9724,2117.333334,note_off,47,2457,64,320
9725,2118.000000,note_on,45,3276,64,0
9726,2118.000000,pitchwheel,45,3276,64,0
9727,2118.000000,note_off,45,3276,64,320
9728,2118.666667,note_on,48,2047,64,0
9729,2118.666667,pitchwheel,48,2047,64,0
9730,2118.666667,note_off,48,2047,64,320
9731,2119.333334,note_on,43,0,64,0
9732,2119.333334,note_off,43,0,64,320
9733,2120.000000,note_on,44,2047,64,0
9734,2120.000000,pitchwheel,44,2047,64,0
9735,2120.000000,note_off,44,2047,64,480
9736,2121.000000,note_on,48,2047,64,0
9737,2121.000000,pitchwheel,48,2047,64,0
9738,2121.000000,note_off,48,2047,64,160
9739,2121.333334,note_on,50,3685,64,0
9740,2121.333334,pitchwheel,50,3685,64,0
9741,2121.333334,note_off,50,3685,64,320
9742,2122.000000,note_on,45,2047,64,0
9743,2122.000000,pitchwheel,45,2047,64,0
9744,2122.000000,note_off,45,2047,64,320
9745,2122.666667,note_on,46,1638,64,0
9746,2122.666667,pitchwheel,46,1638,64,0
9747,2122.666667,note_off,46,1638,64,160
9748,2123.000000,note_on,40,2457,64,0
9749,2123.000000,pitchwheel,40,2457,64,0
9750,2123.000000,note_off,40,2457,64,160
9751,2123.333334,note_on,44,2047,64,0
9752,2123.333334,pitchwheel,44,2047,64,0
9753,2123.333334,note_off,44,2047,64,320
9754,2124.000000,note_on,38,3685,64,0
9755,2124.000000,pitchwheel,38,3685,64,0
9756,2124.000000,note_off,38,3685,64,320
9757,2124.666667,note_on,45,1638,64,0
9758,2124.666667,pitchwheel,45,1638,64,0
9759,2124.666667,note_off,45,1638,64,160
9760,2125.000000,note_on,47,2047,64,0
9761,2125.000000,pitchwheel,47,2047,64,0
9762,2125.000000,note_off,47,2047,64,160
9763,2125.333334,note_on,45,2047,64,0
9764,2125.333334,pitchwheel,45,2047,64,0
9765,2125.333334,note_off,45,2047,64,320
9766,2126.000000,note_on,47,2457,64,0
9767,2126.000000,pitchwheel,47,2457,64,0
9768,2126.000000,note_off,47,2457,64,320
9769,2126.666667,note_on,38,1228,64,0
9770,2126.666667,pitchwheel,38,1228,64,0
9771,2126.666667,note_off,38,1228,64,320
9772,2127.333334,note_on,43,409,64,0
9773,2127.333334,pitchwheel,43,409,64,0
9774,2127.333334,note_off,43,409,64,320
9775,2128.000000,note_on,45,3276,64,0
9776,2128.000000,pitchwheel,45,3276,64,0
9777,2128.000000,note_off,45,3276,64,320
9778,2128.666667,note_on,41,0,64,0
9779,2128.666667,note_off,41,0,64,320
9780,2129.333334,note_on,46,409,64,0
9781,2129.333334,pitchwheel,46,409,64,0
9782,2129.333334,note_off,46,409,64,320
9783,2130.000000,note_on,47,2047,64,0
9784,2130.000000,pitchwheel,47,2047,64,0
9785,2130.000000,note_off,47,2047,64,320
9786,2130.666667,note_on,46,1638,64,0
9787,2130.666667,pitchwheel,46,1638,64,0
9788,2130.666667,note_off,46,1638,64,160
9789,2131.000000,note_on,50,819,64,0
9790,2131.000000,pitchwheel,50,819,64,0
9791,2131.000000,note_off,50,819,64,160
9792,2131.333334,note_on,55,1638,64,0
9793,2131.333334,pitchwheel,55,1638,64,0
9794,2131.333334,note_off,55,1638,64,320
9795,2132.000000,note_on,55,2866,64,0
9796,2132.000000,pitchwheel,55,2866,64,0
9797,2132.000000,note_off,55,2866,64,480
9798,2133.000000,note_on,48,819,64,0
9799,2133.000000,pitchwheel,48,819,64,0
9800,2133.000000,note_off,48,819,64,160
9801,2133.333333,note_on,52,0,64,0
9802,2133.333333,note_off,52,0,64,320
9803,2134.000000,note_on,53,0,64,0
9804,2134.000000,note_off,53,0,64,480
9805,2135.000000,note_on,52,2457,64,0
9806,2135.000000,pitchwheel,52,2457,64,0
9807,2135.000000,note_off,52,2457,64,160
9808,2135.333333,note_on,55,0,64,0
9809,2135.333333,note_off,55,0,64,320
9810,2136.000000,note_on,56,0,64,0
9811,2136.000000,note_off,56,0,64,320
9812,2136.666666,note_on,53,0,64,0
9813,2136.666666,note_off,53,0,64,160
9814,2137.000000,note_on,57,0,64,0
9815,2137.000000,note_off,57,0,64,160
9816,2137.333333,note_on,55,0,64,0
9817,2137.333333,note_off,55,0,64,320
9818,2138.000000,note_on,55,1638,64,0
9819,2138.000000,pitchwheel,55,1638,64,0
9820,2138.000000,note_off,55,1638,64,320
9821,2138.666666,note_on,55,409,64,0
9822,2138.666666,pitchwheel,55,409,64,0
9823,2138.666666,note_off,55,409,64,160
9824,2139.000000,note_on,59,3276,64,0
9825,2139.000000,pitchwheel,59,3276,64,0
9826,2139.000000,note_off,59,3276,64,480
9827,2140.000000,note_on,58,1638,64,0
9828,2140.000000,pitchwheel,58,1638,64,0
9829,2140.000000,note_off,58,1638,64,320
9830,2140.666666,note_on,57,1638,64,0
9831,2140.666666,pitchwheel,57,1638,64,0
9832,2140.666666,note_off,57,1638,64,320
9833,2141.333333,note_on,58,0,64,0
9834,2141.333333,note_off,58,0,64,320
9835,2142.000000,note_on,53,0,64,0
9836,2142.000000,note_off,53,0,64,320
9837,2142.666666,note_on,53,1228,64,0
9838,2142.666666,pitchwheel,53,1228,64,0
9839,2142.666666,note_off,53,1228,64,160
9840,2143.000000,note_on,55,1638,64,0
9841,2143.000000,pitchwheel,55,1638,64,0
9842,2143.000000,note_off,55,1638,64,160
9843,2143.333333,note_on,55,0,64,0
9844,2143.333333,note_off,55,0,64,320
9845,2144.000000,note_on,55,409,64,0
9846,2144.000000,pitchwheel,55,409,64,0
9847,2144.000000,note_off,55,409,64,320
9848,2144.666666,note_on,57,0,64,0
9849,2144.666666,note_off,57,0,64,160
9850,2145.000000,note_on,50,3685,64,0
9851,2145.000000,pitchwheel,50,3685,64,0
9852,2145.000000,note_off,50,3685,64,480
9853,2146.000000,note_on,50,2457,64,0
9854,2146.000000,pitchwheel,50,2457,64,0
9855,2146.000000,note_off,50,2457,64,320
9856,2146.666666,note_on,48,3276,64,0
9857,2146.666666,pitchwheel,48,3276,64,0
9858,2146.666666,note_off,48,3276,64,160
9859,2147.000000,note_on,57,1638,64,0
9860,2147.000000,pitchwheel,57,1638,64,0
9861,2147.000000,note_off,57,1638,64,800
9862,2148.666666,note_on,59,2457,64,0
9863,2148.666666,pitchwheel,59,2457,64,0
9864,2148.666666,note_off,59,2457,64,160
9865,2149.000000,note_on,53,0,64,0
9866,2149.000000,note_off,53,0,64,160
9867,2149.333333,note_on,58,1638,64,0
9868,2149.333333,pitchwheel,58,1638,64,0
9869,2149.333333,note_off,58,1638,64,320
9870,2150.000000,note_on,59,2047,64,0
9871,2150.000000,pitchwheel,59,2047,64,0
9872,2150.000000,note_off,59,2047,64,320
9873,2150.666666,note_on,53,0,64,0
9874,2150.666666,note_off,53,0,64,160
9875,2151.000000,note_on,53,0,64,0
9876,2151.000000,note_off,53,0,64,160
9877,2151.333333,note_on,50,819,64,0
9878,2151.333333,pitchwheel,50,819,64,0
9879,2151.333333,note_off,50,819,64,320
9880,2152.000000,note_on,51,819,64,0
9881,2152.000000,pitchwheel,51,819,64,0
9882,2152.000000,note_off,51,819,64,320
9883,2152.666666,note_on,45,3276,64,0
9884,2152.666666,pitchwheel,45,3276,64,0
9885,2152.666666,note_off,45,3276,64,160
9886,2153.000000,note_on,50,3685,64,0
9887,2153.000000,pitchwheel,50,3685,64,0
9888,2153.000000,note_off,50,3685,64,160
9889,2153.333333,note_on,46,0,64,0
9890,2153.333333,note_off,46,0,64,320
9891,2154.000000,note_on,50,0,64,0
9892,2154.000000,note_off,50,0,64,320
9893,2154.666666,note_on,45,2047,64,0
9894,2154.666666,pitchwheel,45,2047,64,0
9895,2154.666666,note_off,45,2047,64,160
9896,2155.000000,note_on,43,0,64,0
9897,2155.000000,note_off,43,0,64,160
9898,2155.333333,note_on,38,2457,64,0
9899,2155.333333,pitchwheel,38,2457,64,0
9900,2155.333333,note_off,38,2457,64,320
9901,2156.000000,note_on,46,1638,64,0
9902,2156.000000,pitchwheel,46,1638,64,0
9903,2156.000000,note_off,46,1638,64,320
9904,2156.666666,note_on,40,2457,64,0
9905,2156.666666,pitchwheel,40,2457,64,0
9906,2156.666666,note_off,40,2457,64,160
9907,2157.000000,note_on,43,1638,64,0
9908,2157.000000,pitchwheel,43,1638,64,0
9909,2157.000000,note_off,43,1638,64,160
9910,2157.333333,note_on,41,2457,64,0
9911,2157.333333,pitchwheel,41,2457,64,0
9912,2157.333333,note_off,41,2457,64,320
9913,2158.000000,note_on,43,2866,64,0
9914,2158.000000,pitchwheel,43,2866,64,0
9915,2158.000000,note_off,43,2866,64,320
9916,2158.666666,note_on,36,2047,64,0
9917,2158.666666,pitchwheel,36,2047,64,0
9918,2158.666666,note_off,36,2047,64,320
9919,2160.000000,note_on,36,3276,64,0
9920,2160.000000,pitchwheel,36,3276,64,0
9921,2160.000000,note_off,36,3276,64,320
9922,2160.666666,note_on,36,2047,64,0
9923,2160.666666,pitchwheel,36,2047,64,0
9924,2160.666666,note_off,36,2047,64,160
9925,2161.000000,note_on,41,0,64,0
9926,2161.000000,note_off,41,0,64,480
9927,2162.000000,note_on,45,1638,64,0
9928,2162.000000,pitchwheel,45,1638,64,0
9929,2162.000000,note_off,45,1638,64,480
9930,2163.000000,note_on,50,819,64,0
9931,2163.000000,pitchwheel,50,819,64,0
9932,2163.000000,note_off,50,819,64,480
9933,2164.000000,note_on,56,0,64,0
9934,2164.000000,note_off,56,0,64,480
9935,2165.000000,note_on,50,2457,64,0
9936,2165.000000,pitchwheel,50,2457,64,0
9937,2165.000000,note_off,50,2457,64,160
9938,2165.333333,note_on,46,0,64,0
9939,2165.333333,note_off,46,0,64,320
9940,2166.000000,note_on,47,3276,64,0
9941,2166.000000,pitchwheel,47,3276,64,0
9942,2166.000000,note_off,47,3276,64,320
9943,2166.666666,note_on,47,2047,64,0
9944,2166.666666,pitchwheel,47,2047,64,0
9945,2166.666666,note_off,47,2047,64,320
9946,2167.333333,note_on,43,0,64,0
9947,2167.333333,note_off,43,0,64,320
9948,2168.000000,note_on,41,0,64,0
9949,2168.000000,note_off,41,0,64,320
9950,2168.666666,note_on,40,2866,64,0
9951,2168.666666,pitchwheel,40,2866,64,0
9952,2168.666666,note_off,40,2866,64,320
9953,2169.333333,note_on,38,819,64,0
9954,2169.333333,pitchwheel,38,819,64,0
9955,2169.333333,note_off,38,819,64,320
9956,2170.000000,note_on,45,0,64,0
9957,2170.000000,note_off,45,0,64,320
9958,2170.666666,note_on,45,2047,64,0
9959,2170.666666,pitchwheel,45,2047,64,0
9960,2170.666666,note_off,45,2047,64,160
9961,2171.000000,note_on,40,2457,64,0
9962,2171.000000,pitchwheel,40,2457,64,0
9963,2171.000000,note_off,40,2457,64,160
9964,2171.333333,note_on,45,0,64,0
9965,2171.333333,note_off,45,0,64,320
9966,2172.000000,note_on,45,3276,64,0
9967,2172.000000,pitchwheel,45,3276,64,0
9968,2172.000000,note_off,45,3276,64,320
9969,2172.666666,note_on,40,2457,64,0
9970,2172.666666,pitchwheel,40,2457,64,0
9971,2172.666666,note_off,40,2457,64,160
9972,2173.000000,note_on,41,0,64,0
9973,2173.000000,note_off,41,0,64,160
9974,2173.333333,note_on,36,3276,64,0
9975,2173.333333,pitchwheel,36,3276,64,0
9976,2173.333333,note_off,36,3276,64,320
9977,2174.000000,note_on,40,2866,64,0
9978,2174.000000,pitchwheel,40,2866,64,0
9979,2174.000000,note_off,40,2866,64,320
9980,2174.666666,note_on,38,0,64,0
9981,2174.666666,note_off,38,0,64,160
9982,2175.000000,note_on,38,819,64,0
9983,2175.000000,pitchwheel,38,819,64,0
9984,2175.000000,note_off,38,819,64,160
9985,2175.333333,note_on,43,1638,64,0
9986,2175.333333,pitchwheel,43,1638,64,0
9987,2175.333333,note_off,43,1638,64,320
9988,2176.000000,note_on,43,409,64,0
9989,2176.000000,pitchwheel,43,409,64,0
9990,2176.000000,note_off,43,409,64,320
9991,2176.666666,note_on,41,0,64,0
9992,2176.666666,note_off,41,0,64,160
9993,2177.000000,note_on,45,0,64,0
9994,2177.000000,note_off,45,0,64,160
9995,2177.333333,note_on,38,2457,64,0
9996,2177.333333,pitchwheel,38,2457,64,0
9997,2177.333333,note_off,38,2457,64,320
9998,2178.000000,note_on,38,819,64,0
9999,2178.000000,pitchwheel,38,819,64,0
10000,2178.000000,note_off,38,819,64,320
10001,2178.666666,note_on,46,1638,64,0
10002,2178.666666,pitchwheel,46,1638,64,0
10003,2178.666666,note_off,46,1638,64,160
10004,2179.000000,note_on,43,0,64,0
10005,2179.000000,note_off,43,0,64,160
10006,2179.333333,note_on,45,2047,64,0
10007,2179.333333,pitchwheel,45,2047,64,0
10008,2179.333333,note_off,45,2047,64,320
10009,2180.000000,note_on,41,1228,64,0
10010,2180.000000,pitchwheel,41,1228,64,0
10011,2180.000000,note_off,41,1228,64,320
10012,2180.666666,note_on,41,0,64,0
10013,2180.666666,note_off,41,0,64,320
10014,2181.333333,note_on,41,2457,64,0
10015,2181.333333,pitchwheel,41,2457,64,0
10016,2181.333333,note_off,41,2457,64,320
10017,2182.000000,note_on,38,3685,64,0
10018,2182.000000,pitchwheel,38,3685,64,0
10019,2182.000000,note_off,38,3685,64,320
10020,2182.666666,note_on,36,819,64,0
10021,2182.666666,pitchwheel,36,819,64,0
10022,2182.666666,note_off,36,819,64,160
10023,2183.000000,note_on,46,409,64,0
10024,2183.000000,pitchwheel,46,409,64,0
10025,2183.000000,note_off,46,409,64,160
10026,2183.333333,note_on,47,3276,64,0
10027,2183.333333,pitchwheel,47,3276,64,0
10028,2183.333333,note_off,47,3276,64,320
10029,2184.000000,note_on,38,3685,64,0
10030,2184.000000,pitchwheel,38,3685,64,0
10031,2184.000000,note_off,38,3685,64,320
10032,2184.666666,note_on,47,3685,64,0
10033,2184.666666,pitchwheel,47,3685,64,0
10034,2184.666666,note_off,47,3685,64,160
10035,2185.000000,note_on,36,2047,64,0
10036,2185.000000,pitchwheel,36,2047,64,0
10037,2185.000000,note_off,36,2047,64,160
10038,2185.333333,note_on,36,819,64,0
10039,2185.333333,pitchwheel,36,819,64,0
10040,2185.333333,note_off,36,819,64,320
10041,2186.000000,note_on,45,3276,64,0
10042,2186.000000,pitchwheel,45,3276,64,0
10043,2186.000000,note_off,45,3276,64,320
10044,2186.666666,note_on,36,3276,64,0
10045,2186.666666,pitchwheel,36,3276,64,0
10046,2186.666666,note_off,36,3276,64,160
10047,2187.000000,note_on,45,1638,64,0
10048,2187.000000,pitchwheel,45,1638,64,0
10049,2187.000000,note_off,45,1638,64,160
10050,2187.333333,note_on,41,0,64,0
10051,2187.333333,note_off,41,0,64,320
10052,2188.000000,note_on,36,2047,64,0
10053,2188.000000,pitchwheel,36,2047,64,0
10054,2188.000000,note_off,36,2047,64,320
10055,2188.666666,note_on,47,3276,64,0
10056,2188.666666,pitchwheel,47,3276,64,0
10057,2188.666666,note_off,47,3276,64,160
10058,2189.000000,note_on,36,819,64,0
10059,2189.000000,pitchwheel,36,819,64,0
10060,2189.000000,note_off,36,819,64,160
10061,2189.333333,note_on,39,819,64,0
10062,2189.333333,pitchwheel,39,819,64,0
10063,2189.333333,note_off,39,819,64,320
10064,2190.000000,note_on,45,0,64,0
10065,2190.000000,note_off,45,0,64,320
10066,2190.666666,note_on,45,1638,64,0
10067,2190.666666,pitchwheel,45,1638,64,0
10068,2190.666666,note_off,45,1638,64,160
10069,2191.000000,note_on,48,2047,64,0
10070,2191.000000,pitchwheel,48,2047,64,0
10071,2191.000000,note_off,48,2047,64,480
10072,2192.000000,note_on,45,1638,64,0
10073,2192.000000,pitchwheel,45,1638,64,0
10074,2192.000000,note_off,45,1638,64,480
10075,2193.000000,note_on,50,2457,64,0
10076,2193.000000,pitchwheel,50,2457,64,0
10077,2193.000000,note_off,50,2457,64,160
10078,2193.333333,note_on,52,0,64,0
10079,2193.333333,note_off,52,0,64,320
10080,2194.000000,note_on,57,0,64,0
10081,2194.000000,note_off,57,0,64,320
10082,2194.666666,note_on,58,0,64,0
10083,2194.666666,note_off,58,0,64,160
10084,2195.000000,note_on,59,3276,64,0
10085,2195.000000,pitchwheel,59,3276,64,0
10086,2195.000000,note_off,59,3276,64,160
10087,2195.333333,note_on,55,2866,64,0
10088,2195.333333,pitchwheel,55,2866,64,0
10089,2195.333333,note_off,55,2866,64,320
10090,2196.000000,note_on,55,1638,64,0
10091,2196.000000,pitchwheel,55,1638,64,0
10092,2196.000000,note_off,55,1638,64,320
10093,2196.666666,note_on,59,3276,64,0
10094,2196.666666,pitchwheel,59,3276,64,0
10095,2196.666666,note_off,59,3276,64,160
10096,2197.000000,note_on,57,3276,64,0
10097,2197.000000,pitchwheel,57,3276,64,0
10098,2197.000000,note_off,57,3276,64,160
10099,2197.333333,note_on,59,3685,64,0
10100,2197.333333,pitchwheel,59,3685,64,0
10101,2197.333333,note_off,59,3685,64,320
10102,2198.000000,note_on,57,2047,64,0
10103,2198.000000,pitchwheel,57,2047,64,0
10104,2198.000000,note_off,57,2047,64,480
10105,2199.333333,note_on,55,0,64,0
10106,2199.333333,note_off,55,0,64,320
10107,2200.000000,note_on,56,0,64,0
10108,2200.000000,note_off,56,0,64,480
10109,2201.000000,note_on,50,2457,64,0
10110,2201.000000,pitchwheel,50,2457,64,0
10111,2201.000000,note_off,50,2457,64,160
10112,2201.333333,note_on,55,0,64,0
10113,2201.333333,note_off,55,0,64,320
10114,2202.000000,note_on,58,409,64,0
10115,2202.000000,pitchwheel,58,409,64,0
10116,2202.000000,note_off,58,409,64,320
10117,2202.666666,note_on,53,0,64,0
10118,2202.666666,note_off,53,0,64,160
10119,2203.000000,note_on,50,819,64,0
10120,2203.000000,pitchwheel,50,819,64,0
10121,2203.000000,note_off,50,819,64,160
10122,2203.333333,note_on,47,2047,64,0
10123,2203.333333,pitchwheel,47,2047,64,0
10124,2203.333333,note_off,47,2047,64,320
10125,2204.000000,note_on,44,0,64,0
10126,2204.000000,note_off,44,0,64,320
10127,2204.666666,note_on,40,2457,64,0
10128,2204.666666,pitchwheel,40,2457,64,0
10129,2204.666666,note_off,40,2457,64,160
10130,2205.000000,note_on,38,2457,64,0
10131,2205.000000,pitchwheel,38,2457,64,0
10132,2205.000000,note_off,38,2457,64,160
10133,2205.333333,note_on,38,819,64,0
10134,2205.333333,pitchwheel,38,819,64,0
10135,2205.333333,note_off,38,819,64,320
10136,2206.000000,note_on,38,3685,64,0
10137,2206.000000,pitchwheel,38,3685,64,0
10138,2206.000000,note_off,38,3685,64,320
10139,2206.666666,note_on,45,1638,64,0
10140,2206.666666,pitchwheel,45,1638,64,0
10141,2206.666666,note_off,45,1638,64,320
10142,2207.333333,note_on,36,2047,64,0
10143,2207.333333,pitchwheel,36,2047,64,0
10144,2207.333333,note_off,36,2047,64,320
10145,2208.000000,note_on,39,819,64,0
10146,2208.000000,pitchwheel,39,819,64,0
10147,2208.000000,note_off,39,819,64,320
10148,2208.666666,note_on,38,2457,64,0
10149,2208.666666,pitchwheel,38,2457,64,0
10150,2208.666666,note_off,38,2457,64,320
10151,2209.333333,note_on,45,0,64,0
10152,2209.333333,note_off,45,0,64,320
10153,2210.000000,note_on,47,2047,64,0
10154,2210.000000,pitchwheel,47,2047,64,0
10155,2210.000000,note_off,47,2047,64,320
10156,2210.666666,note_on,36,3276,64,0
10157,2210.666666,pitchwheel,36,3276,64,0
10158,2210.666666,note_off,36,3276,64,160
10159,2211.000000,note_on,40,2457,64,0
10160,2211.000000,pitchwheel,40,2457,64,0
10161,2211.000000,note_off,40,2457,64,160
10162,2211.333333,note_on,36,2047,64,0
10163,2211.333333,pitchwheel,36,2047,64,0
10164,2211.333333,note_off,36,2047,64,320
10165,2212.000000,note_on,36,819,64,0
10166,2212.000000,pitchwheel,36,819,64,0
10167,2212.000000,note_off,36,819,64,640
10168,2213.333333,note_on,36,3276,64,0
10169,2213.333333,pitchwheel,36,3276,64,0
10170,2213.333333,note_off,36,3276,64,320
10171,2214.000000,note_on,38,2457,64,0
10172,2214.000000,pitchwheel,38,2457,64,0
10173,2214.000000,note_off,38,2457,64,480
10174,2215.000000,note_on,47,3276,64,0
10175,2215.000000,pitchwheel,47,3276,64,0
10176,2215.000000,note_off,47,3276,64,480
10177,2216.000000,note_on,47,3685,64,0
10178,2216.000000,pitchwheel,47,3685,64,0
10179,2216.000000,note_off,47,3685,64,320
10180,2216.666666,note_on,47,2047,64,0
10181,2216.666666,pitchwheel,47,2047,64,0
10182,2216.666666,note_off,47,2047,64,160
10183,2217.000000,note_on,45,0,64,0
10184,2217.000000,note_off,45,0,64,160
10185,2217.333333,note_on,46,0,64,0
10186,2217.333333,note_off,46,0,64,320
10187,2218.000000,note_on,41,0,64,0
10188,2218.000000,note_off,41,0,64,320
10189,2218.666666,note_on,45,2047,64,0
10190,2218.666666,pitchwheel,45,2047,64,0
10191,2218.666666,note_off,45,2047,64,160
10192,2219.000000,note_on,43,0,64,0
10193,2219.000000,note_off,43,0,64,480
10194,2220.000000,note_on,43,1638,64,0
10195,2220.000000,pitchwheel,43,1638,64,0
10196,2220.000000,note_off,43,1638,64,320
10197,2220.666666,note_on,38,819,64,0
10198,2220.666666,pitchwheel,38,819,64,0
10199,2220.666666,note_off,38,819,64,320
10200,2221.333333,note_on,38,2457,64,0
10201,2221.333333,pitchwheel,38,2457,64,0
10202,2221.333333,note_off,38,2457,64,320
10203,2222.000000,note_on,43,2866,64,0
10204,2222.000000,pitchwheel,43,2866,64,0
10205,2222.000000,note_off,43,2866,64,320
10206,2222.666666,note_on,43,1638,64,0
10207,2222.666666,pitchwheel,43,1638,64,0
10208,2222.666666,note_off,43,1638,64,320
10209,2223.333333,note_on,38,819,64,0
10210,2223.333333,pitchwheel,38,819,64,0
10211,2223.333333,note_off,38,819,64,320
10212,2224.000000,note_on,46,1638,64,0
10213,2224.000000,pitchwheel,46,1638,64,0
10214,2224.000000,note_off,46,1638,64,320
10215,2224.666666,note_on,45,0,64,0
10216,2224.666666,note_off,45,0,64,160
10217,2225.000000,note_on,44,2047,64,0
10218,2225.000000,pitchwheel,44,2047,64,0
10219,2225.000000,note_off,44,2047,64,160
10220,2225.333333,note_on,45,2047,64,0
10221,2225.333333,pitchwheel,45,2047,64,0
10222,2225.333333,note_off,45,2047,64,320
10223,2226.000000,note_on,40,2457,64,0
10224,2226.000000,pitchwheel,40,2457,64,0
10225,2226.000000,note_off,40,2457,64,480
10226,2227.000000,note_on,45,1638,64,0
10227,2227.000000,pitchwheel,45,1638,64,0
10228,2227.000000,note_off,45,1638,64,480
10229,2228.000000,note_on,41,0,64,0
10230,2228.000000,note_off,41,0,64,320
10231,2228.666666,note_on,45,2047,64,0
10232,2228.666666,pitchwheel,45,2047,64,0
10233,2228.666666,note_off,45,2047,64,160
10234,2229.000000,note_on,43,1638,64,0
10235,2229.000000,pitchwheel,43,1638,64,0
10236,2229.000000,note_off,43,1638,64,160
10237,2229.333333,note_on,41,2457,64,0
10238,2229.333333,pitchwheel,41,2457,64,0
10239,2229.333333,note_off,41,2457,64,320
10240,2230.000000,note_on,45,3276,64,0
10241,2230.000000,pitchwheel,45,3276,64,0
10242,2230.000000,note_off,45,3276,64,320
10243,2230.666666,note_on,38,3685,64,0
10244,2230.666666,pitchwheel,38,3685,64,0
10245,2230.666666,note_off,38,3685,64,160
10246,2231.000000,note_on,43,409,64,0
10247,2231.000000,pitchwheel,43,409,64,0
10248,2231.000000,note_off,43,409,64,160
10249,2231.333333,note_on,43,0,64,0
10250,2231.333333,note_off,43,0,64,320
10251,2232.000000,note_on,44,0,64,0
10252,2232.000000,note_off,44,0,64,320
10253,2232.666666,note_on,38,3685,64,0
10254,2232.666666,pitchwheel,38,3685,64,0
10255,2232.666666,note_off,38,3685,64,160
10256,2233.000000,note_on,41,0,64,0
10257,2233.000000,note_off,41,0,64,160
10258,2233.333333,note_on,47,3276,64,0
10259,2233.333333,pitchwheel,47,3276,64,0
10260,2233.333333,note_off,47,3276,64,320
10261,2234.000000,note_on,43,409,64,0
10262,2234.000000,pitchwheel,43,409,64,0
10263,2234.000000,note_off,43,409,64,320
10264,2234.666666,note_on,44,0,64,0
10265,2234.666666,note_off,44,0,64,160
10266,2235.000000,note_on,47,3276,64,0
10267,2235.000000,pitchwheel,47,3276,64,0
10268,2235.000000,note_off,47,3276,64,160
10269,2235.333333,note_on,41,0,64,0
10270,2235.333333,note_off,41,0,64,320
10271,2236.000000,note_on,38,1228,64,0
10272,2236.000000,pitchwheel,38,1228,64,0
10273,2236.000000,note_off,38,1228,64,320
10274,2236.666666,note_on,38,0,64,0
10275,2236.666666,note_off,38,0,64,160
10276,2237.000000,note_on,41,0,64,0
10277,2237.000000,note_off,41,0,64,160
10278,2237.333333,note_on,36,819,64,0
10279,2237.333333,pitchwheel,36,819,64,0
10280,2237.333333,note_off,36,819,64,320
10281,2238.000000,note_on,36,2047,64,0
10282,2238.000000,pitchwheel,36,2047,64,0
10283,2238.000000,note_off,36,2047,64,320
10284,2238.666666,note_on,36,819,64,0
10285,2238.666666,pitchwheel,36,819,64,0
10286,2238.666666,note_off,36,819,64,320
10287,2240.000000,note_on,36,3276,64,0
10288,2240.000000,pitchwheel,36,3276,64,0
10289,2240.000000,note_off,36,3276,64,320
10290,2240.666666,note_on,40,1638,64,0
10291,2240.666666,pitchwheel,40,1638,64,0
10292,2240.666666,note_off,40,1638,64,320
10293,2241.333333,note_on,41,0,64,0
10294,2241.333333,note_off,41,0,64,640
10295,2242.666666,note_on,44,0,64,0
10296,2242.666666,note_off,44,0,64,160
10297,2243.000000,note_on,43,0,64,0
10298,2243.000000,note_off,43,0,64,160
10299,2243.333333,note_on,38,2457,64,0
10300,2243.333333,pitchwheel,38,2457,64,0
10301,2243.333333,note_off,38,2457,64,320
10302,2244.000000,note_on,40,1638,64,0
10303,2244.000000,pitchwheel,40,1638,64,0
10304,2244.000000,note_off,40,1638,64,480
10305,2245.333333,note_on,39,819,64,0
10306,2245.333333,pitchwheel,39,819,64,0
10307,2245.333333,note_off,39,819,64,320
10308,2246.000000,note_on,46,0,64,0
10309,2246.000000,note_off,46,0,64,320
10310,2246.666666,note_on,47,2047,64,0
10311,2246.666666,pitchwheel,47,2047,64,0
10312,2246.666666,note_off,47,2047,64,320
10313,2247.333333,note_on,47,3276,64,0
10314,2247.333333,pitchwheel,47,3276,64,0
10315,2247.333333,note_off,47,3276,64,320
10316,2248.000000,note_on,36,3276,64,0
10317,2248.000000,pitchwheel,36,3276,64,0
10318,2248.000000,note_off,36,3276,64,320
10319,2248.666666,note_on,45,2047,64,0
10320,2248.666666,pitchwheel,45,2047,64,0
10321,2248.666666,note_off,45,2047,64,320
10322,2249.333333,note_on,45,3276,64,0
10323,2249.333333,pitchwheel,45,3276,64,0
10324,2249.333333,note_off,45,3276,64,320
10325,2250.000000,note_on,37,0,64,0
10326,2250.000000,note_off,37,0,64,320
10327,2250.666666,note_on,41,2457,64,0
10328,2250.666666,pitchwheel,41,2457,64,0
10329,2250.666666,note_off,41,2457,64,160
10330,2251.000000,note_on,45,1638,64,0
10331,2251.000000,pitchwheel,45,1638,64,0
10332,2251.000000,note_off,45,1638,64,160
10333,2251.333333,note_on,45,0,64,0
10334,2251.333333,note_off,45,0,64,320
10335,2252.666666,note_on,50,819,64,0
10336,2252.666666,pitchwheel,50,819,64,0
10337,2252.666666,note_off,50,819,64,160
10338,2253.000000,note_on,48,819,64,0
10339,2253.000000,pitchwheel,48,819,64,0
10340,2253.000000,note_off,48,819,64,160
10341,2253.333333,note_on,51,819,64,0
10342,2253.333333,pitchwheel,51,819,64,0
10343,2253.333333,note_off,51,819,64,320
10344,2254.000000,note_on,48,2047,64,0
10345,2254.000000,pitchwheel,48,2047,64,0
10346,2254.000000,note_off,48,2047,64,320
10347,2254.666666,note_on,48,819,64,0
10348,2254.666666,pitchwheel,48,819,64,0
10349,2254.666666,note_off,48,819,64,160
10350,2255.000000,note_on,50,819,64,0
10351,2255.000000,pitchwheel,50,819,64,0
10352,2255.000000,note_off,50,819,64,160
10353,2255.333333,note_on,45,2047,64,0
10354,2255.333333,pitchwheel,45,2047,64,0
10355,2255.333333,note_off,45,2047,64,320
10356,2256.000000,note_on,46,0,64,0
10357,2256.000000,note_off,46,0,64,320
10358,2256.666666,note_on,44,2047,64,0
10359,2256.666666,pitchwheel,44,2047,64,0
10360,2256.666666,note_off,44,2047,64,160
10361,2257.000000,note_on,45,0,64,0
10362,2257.000000,note_off,45,0,64,160
10363,2257.333333,note_on,43,2866,64,0
10364,2257.333333,pitchwheel,43,2866,64,0
10365,2257.333333,note_off,43,2866,64,320
10366,2258.000000,note_on,40,2457,64,0
10367,2258.000000,pitchwheel,40,2457,64,0
10368,2258.000000,note_off,40,2457,64,320
10369,2258.666666,note_on,36,3276,64,0
10370,2258.666666,pitchwheel,36,3276,64,0
10371,2258.666666,note_off,36,3276,64,160
10372,2259.000000,note_on,47,3276,64,0
10373,2259.000000,pitchwheel,47,3276,64,0
10374,2259.000000,note_off,47,3276,64,160
10375,2259.333333,note_on,50,1228,64,0
10376,2259.333333,pitchwheel,50,1228,64,0
10377,2259.333333,note_off,50,1228,64,320
10378,2260.000000,note_on,48,2047,64,0
10379,2260.000000,pitchwheel,48,2047,64,0
10380,2260.000000,note_off,48,2047,64,320
10381,2260.666666,note_on,47,3685,64,0
10382,2260.666666,pitchwheel,47,3685,64,0
10383,2260.666666,note_off,47,3685,64,640
10384,2262.000000,note_on,50,3685,64,0
10385,2262.000000,pitchwheel,50,3685,64,0
10386,2262.000000,note_off,50,3685,64,320
10387,2262.666666,note_on,45,0,64,0
10388,2262.666666,note_off,45,0,64,160
10389,2263.000000,note_on,45,2047,64,0
10390,2263.000000,pitchwheel,45,2047,64,0
10391,2263.000000,note_off,45,2047,64,160
10392,2263.333333,note_on,43,0,64,0
10393,2263.333333,note_off,43,0,64,320
10394,2264.000000,note_on,46,1638,64,0
10395,2264.000000,pitchwheel,46,1638,64,0
10396,2264.000000,note_off,46,1638,64,320
10397,2264.666666,note_on,40,2866,64,0
10398,2264.666666,pitchwheel,40,2866,64,0
10399,2264.666666,note_off,40,2866,64,160
10400,2265.000000,note_on,43,2866,64,0
10401,2265.000000,pitchwheel,43,2866,64,0
10402,2265.000000,note_off,43,2866,64,160
10403,2265.333333,note_on,43,0,64,0
10404,2265.333333,note_off,43,0,64,320
10405,2266.000000,note_on,45,3276,64,0
10406,2266.000000,pitchwheel,45,3276,64,0
10407,2266.000000,note_off,45,3276,64,320
10408,2266.666666,note_on,43,0,64,0
10409,2266.666666,note_off,43,0,64,160
10410,2267.000000,note_on,38,819,64,0
10411,2267.000000,pitchwheel,38,819,64,0
10412,2267.000000,note_off,38,819,64,160
10413,2267.333333,note_on,41,0,64,0
10414,2267.333333,note_off,41,0,64,320
10415,2268.000000,note_on,46,1638,64,0
10416,2268.000000,pitchwheel,46,1638,64,0
10417,2268.000000,note_off,46,1638,64,320
10418,2268.666666,note_on,45,1638,64,0
10419,2268.666666,pitchwheel,45,1638,64,0
10420,2268.666666,note_off,45,1638,64,160
10421,2269.000000,note_on,41,0,64,0
10422,2269.000000,note_off,41,0,64,160
10423,2269.333333,note_on,44,0,64,0
10424,2269.333333,note_off,44,0,64,320
10425,2270.000000,note_on,48,2047,64,0
10426,2270.000000,pitchwheel,48,2047,64,0
10427,2270.000000,note_off,48,2047,64,320
10428,2270.666666,note_on,46,409,64,0
10429,2270.666666,pitchwheel,46,409,64,0
10430,2270.666666,note_off,46,409,64,160
10431,2271.000000,note_on,47,3685,64,0
10432,2271.000000,pitchwheel,47,3685,64,0
10433,2271.000000,note_off,47,3685,64,480
10434,2272.000000,note_on,51,819,64,0
10435,2272.000000,pitchwheel,51,819,64,0
10436,2272.000000,note_off,51,819,64,480
10437,2273.000000,note_on,50,0,64,0
10438,2273.000000,note_off,50,0,64,160
10439,2273.333333,note_on,44,2047,64,0
10440,2273.333333,pitchwheel,44,2047,64,0
10441,2273.333333,note_off,44,2047,64,320
10442,2274.000000,note_on,47,3276,64,0
10443,2274.000000,pitchwheel,47,3276,64,0
10444,2274.000000,note_off,47,3276,64,320
10445,2274.666666,note_on,46,1638,64,0
10446,2274.666666,pitchwheel,46,1638,64,0
10447,2274.666666,note_off,46,1638,64,160
10448,2275.000000,note_on,40,2457,64,0
10449,2275.000000,pitchwheel,40,2457,64,0
10450,2275.000000,note_off,40,2457,64,160
10451,2275.333333,note_on,36,819,64,0
10452,2275.333333,pitchwheel,36,819,64,0
10453,2275.333333,note_off,36,819,64,320
10454,2276.000000,note_on,47,3685,64,0
10455,2276.000000,pitchwheel,47,3685,64,0
10456,2276.000000,note_off,47,3685,64,320
10457,2276.666666,note_on,45,1638,64,0
10458,2276.666666,pitchwheel,45,1638,64,0
10459,2276.666666,note_off,45,1638,64,160
10460,2277.000000,note_on,43,1638,64,0
10461,2277.000000,pitchwheel,43,1638,64,0
10462,2277.000000,note_off,43,1638,64,160
10463,2277.333333,note_on,45,2047,64,0
10464,2277.333333,pitchwheel,45,2047,64,0
10465,2277.333333,note_off,45,2047,64,320
10466,2278.000000,note_on,45,0,64,0
10467,2278.000000,note_off,45,0,64,320
10468,2278.666666,note_on,50,3685,64,0
10469,2278.666666,pitchwheel,50,3685,64,0
10470,2278.666666,note_off,50,3685,64,320
10471,2279.333333,note_on,50,819,64,0
10472,2279.333333,pitchwheel,50,819,64,0
10473,2279.333333,note_off,50,819,64,320
10474,2280.000000,note_on,48,3276,64,0
10475,2280.000000,pitchwheel,48,3276,64,0
10476,2280.000000,note_off,48,3276,64,480
10477,2281.000000,note_on,53,0,64,0
10478,2281.000000,note_off,53,0,64,160
10479,2281.333333,note_on,48,2047,64,0
10480,2281.333333,pitchwheel,48,2047,64,0
10481,2281.333333,note_off,48,2047,64,320
10482,2282.000000,note_on,47,2457,64,0
10483,2282.000000,pitchwheel,47,2457,64,0
10484,2282.000000,note_off,47,2457,64,320
10485,2282.666666,note_on,45,2047,64,0
10486,2282.666666,pitchwheel,45,2047,64,0
10487,2282.666666,note_off,45,2047,64,160
10488,2283.000000,note_on,40,2457,64,0
10489,2283.000000,pitchwheel,40,2457,64,0
10490,2283.000000,note_off,40,2457,64,160
10491,2283.333333,note_on,40,0,64,0
10492,2283.333333,note_off,40,0,64,320
10493,2284.000000,note_on,38,2457,64,0
10494,2284.000000,pitchwheel,38,2457,64,0
10495,2284.000000,note_off,38,2457,64,320
10496,2284.666666,note_on,40,2457,64,0
10497,2284.666666,pitchwheel,40,2457,64,0
10498,2284.666666,note_off,40,2457,64,160
10499,2285.000000,note_on,45,0,64,0
10500,2285.000000,note_off,45,0,64,160
10501,2285.333333,note_on,39,819,64,0
10502,2285.333333,pitchwheel,39,819,64,0
10503,2285.333333,note_off,39,819,64,320
10504,2286.000000,note_on,43,1638,64,0
10505,2286.000000,pitchwheel,43,1638,64,0
10506,2286.000000,note_off,43,1638,64,320
10507,2286.666666,note_on,46,0,64,0
10508,2286.666666,note_off,46,0,64,320
10509,2287.333333,note_on,50,0,64,0
10510,2287.333333,note_off,50,0,64,320
10511,2288.000000,note_on,48,3276,64,0
10512,2288.000000,pitchwheel,48,3276,64,0
10513,2288.000000,note_off,48,3276,64,320
10514,2288.666666,note_on,50,2457,64,0
10515,2288.666666,pitchwheel,50,2457,64,0
10516,2288.666666,note_off,50,2457,64,320
10517,2289.333333,note_on,48,2047,64,0
10518,2289.333333,pitchwheel,48,2047,64,0
10519,2289.333333,note_off,48,2047,64,320
10520,2290.000000,note_on,43,0,64,0
10521,2290.000000,note_off,43,0,64,320
10522,2290.666666,note_on,48,819,64,0
10523,2290.666666,pitchwheel,48,819,64,0
10524,2290.666666,note_off,48,819,64,160
10525,2291.000000,note_on,50,819,64,0
10526,2291.000000,pitchwheel,50,819,64,0
10527,2291.000000,note_off,50,819,64,160
10528,2291.333333,note_on,53,0,64,0
10529,2291.333333,note_off,53,0,64,320
10530,2292.000000,note_on,52,2866,64,0
10531,2292.000000,pitchwheel,52,2866,64,0
10532,2292.000000,note_off,52,2866,64,480
10533,2293.000000,note_on,55,2866,64,0
10534,2293.000000,pitchwheel,55,2866,64,0
10535,2293.000000,note_off,55,2866,64,160
10536,2293.333333,note_on,49,0,64,0
10537,2293.333333,note_off,49,0,64,320
10538,2294.000000,note_on,53,0,64,0
10539,2294.000000,note_off,53,0,64,320
10540,2294.666666,note_on,50,2457,64,0
10541,2294.666666,pitchwheel,50,2457,64,0
10542,2294.666666,note_off,50,2457,64,160
10543,2295.000000,note_on,52,2457,64,0
10544,2295.000000,pitchwheel,52,2457,64,0
10545,2295.000000,note_off,52,2457,64,160
10546,2295.333333,note_on,50,819,64,0
10547,2295.333333,pitchwheel,50,819,64,0
10548,2295.333333,note_off,50,819,64,320
10549,2296.000000,note_on,53,2457,64,0
10550,2296.000000,pitchwheel,53,2457,64,0
10551,2296.000000,note_off,53,2457,64,480
10552,2297.000000,note_on,57,0,64,0
10553,2297.000000,note_off,57,0,64,160
10554,2297.333333,note_on,59,3276,64,0
10555,2297.333333,pitchwheel,59,3276,64,0
10556,2297.333333,note_off,59,3276,64,320
10557,2298.000000,note_on,50,2457,64,0
10558,2298.000000,pitchwheel,50,2457,64,0
10559,2298.000000,note_off,50,2457,64,320
10560,2298.666666,note_on,48,3276,64,0
10561,2298.666666,pitchwheel,48,3276,64,0
10562,2298.666666,note_off,48,3276,64,160
10563,2299.000000,note_on,59,3276,64,0
10564,2299.000000,pitchwheel,59,3276,64,0
10565,2299.000000,note_off,59,3276,64,480
10566,2300.000000,note_on,56,0,64,0
10567,2300.000000,note_off,56,0,64,320
10568,2300.666666,note_on,52,2457,64,0
10569,2300.666666,pitchwheel,52,2457,64,0
10570,2300.666666,note_off,52,2457,64,320
10571,2301.333333,note_on,51,819,64,0
10572,2301.333333,pitchwheel,51,819,64,0
10573,2301.333333,note_off,51,819,64,320
10574,2302.000000,note_on,53,0,64,0
10575,2302.000000,note_off,53,0,64,320
10576,2302.666666,note_on,47,3685,64,0
10577,2302.666666,pitchwheel,47,3685,64,0
10578,2302.666666,note_off,47,3685,64,160
10579,2303.000000,note_on,47,2457,64,0
10580,2303.000000,pitchwheel,47,2457,64,0
10581,2303.000000,note_off,47,2457,64,160
10582,2303.333333,note_on,43,0,64,0
10583,2303.333333,note_off,43,0,64,320
10584,2304.000000,note_on,43,1638,64,0
10585,2304.000000,pitchwheel,43,1638,64,0
10586,2304.000000,note_off,43,1638,64,320
10587,2304.666666,note_on,45,0,64,0
10588,2304.666666,note_off,45,0,64,160
10589,2305.000000,note_on,44,2047,64,0
10590,2305.000000,pitchwheel,44,2047,64,0
10591,2305.000000,note_off,44,2047,64,480
10592,2306.000000,note_on,43,0,64,0
10593,2306.000000,note_off,43,0,64,320
10594,2306.666666,note_on,41,0,64,0
10595,2306.666666,note_off,41,0,64,160
10596,2307.000000,note_on,45,1638,64,0
10597,2307.000000,pitchwheel,45,1638,64,0
10598,2307.000000,note_off,45,1638,64,480
10599,2308.000000,note_on,45,2047,64,0
10600,2308.000000,pitchwheel,45,2047,64,0
10601,2308.000000,note_off,45,2047,64,320
10602,2308.666666,note_on,47,2457,64,0
10603,2308.666666,pitchwheel,47,2457,64,0
10604,2308.666666,note_off,47,2457,64,160
10605,2309.000000,note_on,50,3685,64,0
10606,2309.000000,pitchwheel,50,3685,64,0
10607,2309.000000,note_off,50,3685,64,160
10608,2309.333333,note_on,50,2457,64,0
10609,2309.333333,pitchwheel,50,2457,64,0
10610,2309.333333,note_off,50,2457,64,320
10611,2310.000000,note_on,52,2866,64,0
10612,2310.000000,pitchwheel,52,2866,64,0
10613,2310.000000,note_off,52,2866,64,320
10614,2310.666666,note_on,55,2866,64,0
10615,2310.666666,pitchwheel,55,2866,64,0
10616,2310.666666,note_off,55,2866,64,160
10617,2311.000000,note_on,50,0,64,0
10618,2311.000000,note_off,50,0,64,160
10619,2311.333333,note_on,45,1638,64,0
10620,2311.333333,pitchwheel,45,1638,64,0
10621,2311.333333,note_off,45,1638,64,320
10622,2312.000000,note_on,46,1638,64,0
10623,2312.000000,pitchwheel,46,1638,64,0
10624,2312.000000,note_off,46,1638,64,320
10625,2312.666666,note_on,43,1638,64,0
10626,2312.666666,pitchwheel,43,1638,64,0
10627,2312.666666,note_off,43,1638,64,160
10628,2313.000000,note_on,38,2457,64,0
10629,2313.000000,pitchwheel,38,2457,64,0
10630,2313.000000,note_off,38,2457,64,160
10631,2313.333333,note_on,41,0,64,0
10632,2313.333333,note_off,41,0,64,320
10633,2314.000000,note_on,38,0,64,0
10634,2314.000000,note_off,38,0,64,320
10635,2314.666666,note_on,47,2457,64,0
10636,2314.666666,pitchwheel,47,2457,64,0
10637,2314.666666,note_off,47,2457,64,160
10638,2315.000000,note_on,43,0,64,0
10639,2315.000000,note_off,43,0,64,160
10640,2315.333333,note_on,38,2457,64,0
10641,2315.333333,pitchwheel,38,2457,64,0
10642,2315.333333,note_off,38,2457,64,320
10643,2316.000000,note_on,45,0,64,0
10644,2316.000000,note_off,45,0,64,320
10645,2316.666666,note_on,47,3276,64,0
10646,2316.666666,pitchwheel,47,3276,64,0
10647,2316.666666,note_off,47,3276,64,160
10648,2317.000000,note_on,36,2047,64,0
10649,2317.000000,pitchwheel,36,2047,64,0
10650,2317.000000,note_off,36,2047,64,160
10651,2317.333333,note_on,45,2047,64,0
10652,2317.333333,pitchwheel,45,2047,64,0
10653,2317.333333,note_off,45,2047,64,320
10654,2318.000000,note_on,41,0,64,0
10655,2318.000000,note_off,41,0,64,320
10656,2318.666666,note_on,40,2457,64,0
10657,2318.666666,pitchwheel,40,2457,64,0
10658,2318.666666,note_off,40,2457,64,320
10659,2320.000000,note_on,40,2457,64,0
10660,2320.000000,pitchwheel,40,2457,64,0
10661,2320.000000,note_off,40,2457,64,320
10662,2320.666666,note_on,36,2047,64,0
10663,2320.666666,pitchwheel,36,2047,64,0
10664,2320.666666,note_off,36,2047,64,160
10665,2321.000000,note_on,41,0,64,0
10666,2321.000000,note_off,41,0,64,480
10667,2322.000000,note_on,38,2457,64,0
10668,2322.000000,pitchwheel,38,2457,64,0
10669,2322.000000,note_off,38,2457,64,320
10670,2322.666666,note_on,39,819,64,0
10671,2322.666666,pitchwheel,39,819,64,0
10672,2322.666666,note_off,39,819,64,160
10673,2323.000000,note_on,40,2457,64,0
10674,2323.000000,pitchwheel,40,2457,64,0
10675,2323.000000,note_off,40,2457,64,160
10676,2323.333333,note_on,45,0,64,0
10677,2323.333333,note_off,45,0,64,320
10678,2324.000000,note_on,45,2047,64,0
10679,2324.000000,pitchwheel,45,2047,64,0
10680,2324.000000,note_off,45,2047,64,480
10681,2325.000000,note_on,44,2047,64,0
10682,2325.000000,pitchwheel,44,2047,64,0
10683,2325.000000,note_off,44,2047,64,160
10684,2325.333333,note_on,47,3685,64,0
10685,2325.333333,pitchwheel,47,3685,64,0
10686,2325.333333,note_off,47,3685,64,320
10687,2326.000000,note_on,45,1638,64,0
10688,2326.000000,pitchwheel,45,1638,64,0
10689,2326.000000,note_off,45,1638,64,320
10690,2326.666666,note_on,45,3276,64,0
10691,2326.666666,pitchwheel,45,3276,64,0
10692,2326.666666,note_off,45,3276,64,320
10693,2327.333333,note_on,38,819,64,0
10694,2327.333333,pitchwheel,38,819,64,0
10695,2327.333333,note_off,38,819,64,320
10696,2328.000000,note_on,38,3685,64,0
10697,2328.000000,pitchwheel,38,3685,64,0
10698,2328.000000,note_off,38,3685,64,320
10699,2328.666666,note_on,45,3276,64,0
10700,2328.666666,pitchwheel,45,3276,64,0
10701,2328.666666,note_off,45,3276,64,320
10702,2329.333333,note_on,45,2047,64,0
10703,2329.333333,pitchwheel,45,2047,64,0
10704,2329.333333,note_off,45,2047,64,320
10705,2330.000000,note_on,43,0,64,0
10706,2330.000000,note_off,43,0,64,320
10707,2330.666666,note_on,36,819,64,0
10708,2330.666666,pitchwheel,36,819,64,0
10709,2330.666666,note_off,36,819,64,320
10710,2331.333333,note_on,45,0,64,0
10711,2331.333333,note_off,45,0,64,320
10712,2332.000000,note_on,45,2047,64,0
10713,2332.000000,pitchwheel,45,2047,64,0
10714,2332.000000,note_off,45,2047,64,320
10715,2332.666666,note_on,40,2457,64,0
10716,2332.666666,pitchwheel,40,2457,64,0
10717,2332.666666,note_off,40,2457,64,160
10718,2333.000000,note_on,43,2866,64,0
10719,2333.000000,pitchwheel,43,2866,64,0
10720,2333.000000,note_off,43,2866,64,160
10721,2333.333333,note_on,36,3276,64,0
10722,2333.333333,pitchwheel,36,3276,64,0
10723,2333.333333,note_off,36,3276,64,320
10724,2334.000000,note_on,43,1638,64,0
10725,2334.000000,pitchwheel,43,1638,64,0
10726,2334.000000,note_off,43,1638,64,320
10727,2334.666666,note_on,43,409,64,0
10728,2334.666666,pitchwheel,43,409,64,0
10729,2334.666666,note_off,43,409,64,160
10730,2335.000000,note_on,43,0,64,0
10731,2335.000000,note_off,43,0,64,160
10732,2335.333333,note_on,43,1638,64,0
10733,2335.333333,pitchwheel,43,1638,64,0
10734,2335.333333,note_off,43,1638,64,320
10735,2336.000000,note_on,44,0,64,0
10736,2336.000000,note_off,44,0,64,320
10737,2336.666666,note_on,47,2047,64,0
10738,2336.666666,pitchwheel,47,2047,64,0
10739,2336.666666,note_off,47,2047,64,160
10740,2337.000000,note_on,45,0,64,0
10741,2337.000000,note_off,45,0,64,160
10742,2337.333333,note_on,41,0,64,0
10743,2337.333333,note_off,41,0,64,320
10744,2338.000000,note_on,43,0,64,0
10745,2338.000000,note_off,43,0,64,320
10746,2338.666666,note_on,46,1638,64,0
10747,2338.666666,pitchwheel,46,1638,64,0
10748,2338.666666,note_off,46,1638,64,160
10749,2339.000000,note_on,45,1638,64,0
10750,2339.000000,pitchwheel,45,1638,64,0
10751,2339.000000,note_off,45,1638,64,160
10752,2339.333333,note_on,41,0,64,0
10753,2339.333333,note_off,41,0,64,320
10754,2340.000000,note_on,43,1638,64,0
10755,2340.000000,pitchwheel,43,1638,64,0
10756,2340.000000,note_off,43,1638,64,320
10757,2340.666666,note_on,41,0,64,0
10758,2340.666666,note_off,41,0,64,320
10759,2341.333333,note_on,46,1638,64,0
10760,2341.333333,pitchwheel,46,1638,64,0
10761,2341.333333,note_off,46,1638,64,320
10762,2342.000000,note_on,43,0,64,0
10763,2342.000000,note_off,43,0,64,320
10764,2342.666666,note_on,36,2047,64,0
10765,2342.666666,pitchwheel,36,2047,64,0
10766,2342.666666,note_off,36,2047,64,160
10767,2343.000000,note_on,47,2457,64,0
10768,2343.000000,pitchwheel,47,2457,64,0
10769,2343.000000,note_off,47,2457,64,160
10770,2343.333333,note_on,45,1638,64,0
10771,2343.333333,pitchwheel,45,1638,64,0
10772,2343.333333,note_off,45,1638,64,320
10773,2344.000000,note_on,43,2866,64,0
10774,2344.000000,pitchwheel,43,2866,64,0
10775,2344.000000,note_off,43,2866,64,320
10776,2344.666666,note_on,38,2457,64,0
10777,2344.666666,pitchwheel,38,2457,64,0
10778,2344.666666,note_off,38,2457,64,160
10779,2345.000000,note_on,47,2047,64,0
10780,2345.000000,pitchwheel,47,2047,64,0
10781,2345.000000,note_off,47,2047,64,160
10782,2345.333333,note_on,38,1228,64,0
10783,2345.333333,pitchwheel,38,1228,64,0
10784,2345.333333,note_off,38,1228,64,640
10785,2346.666666,note_on,45,2047,64,0
10786,2346.666666,pitchwheel,45,2047,64,0
10787,2346.666666,note_off,45,2047,64,160
10788,2347.000000,note_on,47,3276,64,0
10789,2347.000000,pitchwheel,47,3276,64,0
10790,2347.000000,note_off,47,3276,64,160
10791,2347.333333,note_on,41,0,64,0
10792,2347.333333,note_off,41,0,64,320
10793,2348.000000,note_on,40,1638,64,0
10794,2348.000000,pitchwheel,40,1638,64,0
10795,2348.000000,note_off,40,1638,64,320
10796,2348.666666,note_on,43,0,64,0
10797,2348.666666,note_off,43,0,64,160
10798,2349.000000,note_on,38,3685,64,0
10799,2349.000000,pitchwheel,38,3685,64,0
10800,2349.000000,note_off,38,3685,64,160
10801,2349.333333,note_on,41,0,64,0
10802,2349.333333,note_off,41,0,64,320
10803,2350.000000,note_on,37,0,64,0
10804,2350.000000,note_off,37,0,64,320
10805,2350.666666,note_on,46,0,64,0
10806,2350.666666,note_off,46,0,64,160
10807,2351.000000,note_on,38,0,64,0
10808,2351.000000,note_off,38,0,64,480
10809,2352.000000,note_on,36,3276,64,0
10810,2352.000000,pitchwheel,36,3276,64,0
10811,2352.000000,note_off,36,3276,64,480
10812,2353.000000,note_on,38,2457,64,0
10813,2353.000000,pitchwheel,38,2457,64,0
10814,2353.000000,note_off,38,2457,64,160
10815,2353.333333,note_on,37,0,64,0
10816,2353.333333,note_off,37,0,64,320
10817,2354.000000,note_on,40,2457,64,0
10818,2354.000000,pitchwheel,40,2457,64,0
10819,2354.000000,note_off,40,2457,64,320
10820,2354.666666,note_on,39,819,64,0
10821,2354.666666,pitchwheel,39,819,64,0
10822,2354.666666,note_off,39,819,64,160
10823,2355.000000,note_on,43,409,64,0
10824,2355.000000,pitchwheel,43,409,64,0
10825,2355.000000,note_off,43,409,64,160
10826,2355.333333,note_on,45,3276,64,0
10827,2355.333333,pitchwheel,45,3276,64,0
10828,2355.333333,note_off,45,3276,64,320
10829,2356.000000,note_on,46,409,64,0
10830,2356.000000,pitchwheel,46,409,64,0
10831,2356.000000,note_off,46,409,64,320
10832,2356.666666,note_on,50,819,64,0
10833,2356.666666,pitchwheel,50,819,64,0
10834,2356.666666,note_off,50,819,64,160
10835,2357.000000,note_on,48,2047,64,0
10836,2357.000000,pitchwheel,48,2047,64,0
10837,2357.000000,note_off,48,2047,64,160
10838,2357.333333,note_on,51,819,64,0
10839,2357.333333,pitchwheel,51,819,64,0
10840,2357.333333,note_off,51,819,64,320
10841,2358.000000,note_on,48,819,64,0
10842,2358.000000,pitchwheel,48,819,64,0
10843,2358.000000,note_off,48,819,64,480
10844,2359.333333,note_on,50,819,64,0
10845,2359.333333,pitchwheel,50,819,64,0
10846,2359.333333,note_off,50,819,64,320
10847,2360.000000,note_on,47,2047,64,0
10848,2360.000000,pitchwheel,47,2047,64,0
10849,2360.000000,note_off,47,2047,64,640
10850,2361.333333,note_on,47,3276,64,0
10851,2361.333333,pitchwheel,47,3276,64,0
10852,2361.333333,note_off,47,3276,64,320
10853,2362.000000,note_on,46,409,64,0
10854,2362.000000,pitchwheel,46,409,64,0
10855,2362.000000,note_off,46,409,64,320
10856,2362.666666,note_on,46,0,64,0
10857,2362.666666,note_off,46,0,64,160
10858,2363.000000,note_on,50,819,64,0
10859,2363.000000,pitchwheel,50,819,64,0
10860,2363.000000,note_off,50,819,64,160
10861,2363.333333,note_on,45,2047,64,0
10862,2363.333333,pitchwheel,45,2047,64,0
10863,2363.333333,note_off,45,2047,64,320
10864,2364.000000,note_on,47,3685,64,0
10865,2364.000000,pitchwheel,47,3685,64,0
10866,2364.000000,note_off,47,3685,64,320
10867,2364.666666,note_on,47,3276,64,0
10868,2364.666666,pitchwheel,47,3276,64,0
10869,2364.666666,note_off,47,3276,64,160
10870,2365.000000,note_on,53,0,64,0
10871,2365.000000,note_off,53,0,64,160
10872,2365.333333,note_on,57,3276,64,0
10873,2365.333333,pitchwheel,57,3276,64,0
10874,2365.333333,note_off,57,3276,64,320
10875,2366.000000,note_on,57,2047,64,0
10876,2366.000000,pitchwheel,57,2047,64,0
10877,2366.000000,note_off,57,2047,64,320
10878,2366.666666,note_on,52,2457,64,0
10879,2366.666666,pitchwheel,52,2457,64,0
10880,2366.666666,note_off,52,2457,64,320
10881,2367.333333,note_on,48,2047,64,0
10882,2367.333333,pitchwheel,48,2047,64,0
10883,2367.333333,note_off,48,2047,64,320
10884,2368.000000,note_on,44,0,64,0
10885,2368.000000,note_off,44,0,64,320
10886,2368.666666,note_on,38,2457,64,0
10887,2368.666666,pitchwheel,38,2457,64,0
10888,2368.666666,note_off,38,2457,64,320
10889,2369.333333,note_on,45,0,64,0
10890,2369.333333,note_off,45,0,64,320
10891,2370.000000,note_on,45,1638,64,0
10892,2370.000000,pitchwheel,45,1638,64,0
10893,2370.000000,note_off,45,1638,64,320
10894,2370.666666,note_on,46,1638,64,0
10895,2370.666666,pitchwheel,46,1638,64,0
10896,2370.666666,note_off,46,1638,64,160
10897,2371.000000,note_on,47,3276,64,0
10898,2371.000000,pitchwheel,47,3276,64,0
10899,2371.000000,note_off,47,3276,64,160
10900,2371.333333,note_on,41,0,64,0
10901,2371.333333,note_off,41,0,64,320
10902,2372.000000,note_on,41,1228,64,0
10903,2372.000000,pitchwheel,41,1228,64,0
10904,2372.000000,note_off,41,1228,64,640
10905,2373.333333,note_on,40,0,64,0
10906,2373.333333,note_off,40,0,64,320
10907,2374.000000,note_on,38,2457,64,0
10908,2374.000000,pitchwheel,38,2457,64,0
10909,2374.000000,note_off,38,2457,64,480
10910,2375.000000,note_on,45,1638,64,0
10911,2375.000000,pitchwheel,45,1638,64,0
10912,2375.000000,note_off,45,1638,64,480
10913,2376.000000,note_on,45,2047,64,0
10914,2376.000000,pitchwheel,45,2047,64,0
10915,2376.000000,note_off,45,2047,64,320
10916,2376.666666,note_on,50,3685,64,0
10917,2376.666666,pitchwheel,50,3685,64,0
10918,2376.666666,note_off,50,3685,64,160
10919,2377.000000,note_on,45,0,64,0
10920,2377.000000,note_off,45,0,64,160
10921,2377.333333,note_on,46,0,64,0
10922,2377.333333,note_off,46,0,64,320
10923,2378.000000,note_on,43,409,64,0
10924,2378.000000,pitchwheel,43,409,64,0
10925,2378.000000,note_off,43,409,64,320
10926,2378.666666,note_on,46,0,64,0
10927,2378.666666,note_off,46,0,64,160
10928,2379.000000,note_on,45,1638,64,0
10929,2379.000000,pitchwheel,45,1638,64,0
10930,2379.000000,note_off,45,1638,64,480
10931,2380.000000,note_on,46,1638,64,0
10932,2380.000000,pitchwheel,46,1638,64,0
10933,2380.000000,note_off,46,1638,64,320
10934,2380.666666,note_on,43,0,64,0
10935,2380.666666,note_off,43,0,64,320
10936,2381.333333,note_on,43,2866,64,0
10937,2381.333333,pitchwheel,43,2866,64,0
10938,2381.333333,note_off,43,2866,64,320
10939,2382.000000,note_on,38,1228,64,0
10940,2382.000000,pitchwheel,38,1228,64,0
10941,2382.000000,note_off,38,1228,64,320
10942,2382.666666,note_on,38,2457,64,0
10943,2382.666666,pitchwheel,38,2457,64,0
10944,2382.666666,note_off,38,2457,64,160
10945,2383.000000,note_on,43,1638,64,0
10946,2383.000000,pitchwheel,43,1638,64,0
10947,2383.000000,note_off,43,1638,64,160
10948,2383.333333,note_on,47,3276,64,0
10949,2383.333333,pitchwheel,47,3276,64,0
10950,2383.333333,note_off,47,3276,64,320
10951,2384.000000,note_on,47,2457,64,0
10952,2384.000000,pitchwheel,47,2457,64,0
10953,2384.000000,note_off,47,2457,64,320
10954,2384.666666,note_on,45,0,64,0
10955,2384.666666,note_off,45,0,64,160
10956,2385.000000,note_on,48,2047,64,0
10957,2385.000000,pitchwheel,48,2047,64,0
10958,2385.000000,note_off,48,2047,64,160
10959,2385.333333,note_on,50,1228,64,0
10960,2385.333333,pitchwheel,50,1228,64,0
10961,2385.333333,note_off,50,1228,64,320
10962,2386.000000,note_on,52,2457,64,0
10963,2386.000000,pitchwheel,52,2457,64,0
10964,2386.000000,note_off,52,2457,64,320
10965,2386.666666,note_on,51,819,64,0
10966,2386.666666,pitchwheel,51,819,64,0
10967,2386.666666,note_off,51,819,64,160
10968,2387.000000,note_on,55,0,64,0
10969,2387.000000,note_off,55,0,64,480
10970,2388.000000,note_on,48,3276,64,0
10971,2388.000000,pitchwheel,48,3276,64,0
10972,2388.000000,note_off,48,3276,64,320
10973,2388.666666,note_on,57,2047,64,0
10974,2388.666666,pitchwheel,57,2047,64,0
10975,2388.666666,note_off,57,2047,64,160
10976,2389.000000,note_on,48,2047,64,0
10977,2389.000000,pitchwheel,48,2047,64,0
10978,2389.000000,note_off,48,2047,64,160
10979,2389.333333,note_on,56,0,64,0
10980,2389.333333,note_off,56,0,64,320
10981,2390.000000,note_on,59,3685,64,0
10982,2390.000000,pitchwheel,59,3685,64,0
10983,2390.000000,note_off,59,3685,64,320
10984,2390.666666,note_on,50,0,64,0
10985,2390.666666,note_off,50,0,64,160
10986,2391.000000,note_on,53,0,64,0
10987,2391.000000,note_off,53,0,64,160
10988,2391.333333,note_on,50,819,64,0
10989,2391.333333,pitchwheel,50,819,64,0
10990,2391.333333,note_off,50,819,64,320
10991,2392.000000,note_on,48,3276,64,0
10992,2392.000000,pitchwheel,48,3276,64,0
10993,2392.000000,note_off,48,3276,64,320
10994,2392.666666,note_on,43,409,64,0
10995,2392.666666,pitchwheel,43,409,64,0
10996,2392.666666,note_off,43,409,64,160
10997,2393.000000,note_on,38,3685,64,0
10998,2393.000000,pitchwheel,38,3685,64,0
10999,2393.000000,note_off,38,3685,64,160
11000,2393.333333,note_on,43,0,64,0
11001,2393.333333,note_off,43,0,64,320
11002,2394.000000,note_on,43,409,64,0
11003,2394.000000,pitchwheel,43,409,64,0
11004,2394.000000,note_off,43,409,64,320
11005,2394.666666,note_on,46,1638,64,0
11006,2394.666666,pitchwheel,46,1638,64,0
11007,2394.666666,note_off,46,1638,64,160
11008,2395.000000,note_on,40,2457,64,0
11009,2395.000000,pitchwheel,40,2457,64,0
11010,2395.000000,note_off,40,2457,64,160
11011,2395.333333,note_on,41,0,64,0
11012,2395.333333,note_off,41,0,64,320
11013,2396.000000,note_on,40,2866,64,0
11014,2396.000000,pitchwheel,40,2866,64,0
11015,2396.000000,note_off,40,2866,64,320
11016,2396.666666,note_on,47,3276,64,0
11017,2396.666666,pitchwheel,47,3276,64,0
11018,2396.666666,note_off,47,3276,64,160
11019,2397.000000,note_on,46,409,64,0
11020,2397.000000,pitchwheel,46,409,64,0
11021,2397.000000,note_off,46,409,64,160
11022,2397.333333,note_on,46,1638,64,0
11023,2397.333333,pitchwheel,46,1638,64,0
11024,2397.333333,note_off,46,1638,64,320
11025,2398.000000,note_on,45,3276,64,0
11026,2398.000000,pitchwheel,45,3276,64,0
11027,2398.000000,note_off,45,3276,64,640
11028,2400.000000,note_on,44,2047,64,0
11029,2400.000000,pitchwheel,44,2047,64,0
11030,2400.000000,note_off,44,2047,64,320
11031,2400.666666,note_on,40,1638,64,0
11032,2400.666666,pitchwheel,40,1638,64,0
11033,2400.666666,note_off,40,1638,64,160
11034,2401.000000,note_on,41,0,64,0
11035,2401.000000,note_off,41,0,64,480
11036,2402.000000,note_on,40,1638,64,0
11037,2402.000000,pitchwheel,40,1638,64,0
11038,2402.000000,note_off,40,1638,64,320
11039,2402.666666,note_on,44,0,64,0
11040,2402.666666,note_off,44,0,64,160
11041,2403.000000,note_on,38,819,64,0
11042,2403.000000,pitchwheel,38,819,64,0
11043,2403.000000,note_off,38,819,64,160
11044,2403.333333,note_on,41,0,64,0
11045,2403.333333,note_off,41,0,64,320
11046,2404.000000,note_on,44,0,64,0
11047,2404.000000,note_off,44,0,64,480
11048,2405.000000,note_on,40,1638,64,0
11049,2405.000000,pitchwheel,40,1638,64,0
11050,2405.000000,note_off,40,1638,64,160
11051,2405.333333,note_on,44,0,64,0
11052,2405.333333,note_off,44,0,64,320
11053,2406.000000,note_on,46,0,64,0
11054,2406.000000,note_off,46,0,64,320
11055,2406.666666,note_on,40,0,64,0
11056,2406.666666,note_off,40,0,64,320
11057,2407.333333,note_on,43,0,64,0
11058,2407.333333,note_off,43,0,64,320
11059,2408.000000,note_on,44,0,64,0
11060,2408.000000,note_off,44,0,64,320
11061,2408.666666,note_on,41,1228,64,0
11062,2408.666666,pitchwheel,41,1228,64,0
11063,2408.666666,note_off,41,1228,64,320
11064,2409.333333,note_on,41,0,64,0
11065,2409.333333,note_off,41,0,64,640
11066,2410.666666,note_on,39,819,64,0
11067,2410.666666,pitchwheel,39,819,64,0
11068,2410.666666,note_off,39,819,64,160
11069,2411.000000,note_on,47,3276,64,0
11070,2411.000000,pitchwheel,47,3276,64,0
11071,2411.000000,note_off,47,3276,64,160
11072,2411.333333,note_on,45,0,64,0
11073,2411.333333,note_off,45,0,64,320
11074,2412.000000,note_on,46,1638,64,0
11075,2412.000000,pitchwheel,46,1638,64,0
11076,2412.000000,note_off,46,1638,64,320
11077,2412.666666,note_on,40,2457,64,0
11078,2412.666666,pitchwheel,40,2457,64,0
11079,2412.666666,note_off,40,2457,64,160
11080,2413.000000,note_on,36,2047,64,0
11081,2413.000000,pitchwheel,36,2047,64,0
11082,2413.000000,note_off,36,2047,64,160
11083,2413.333333,note_on,39,819,64,0
11084,2413.333333,pitchwheel,39,819,64,0
11085,2413.333333,note_off,39,819,64,320
11086,2414.000000,note_on,36,819,64,0
11087,2414.000000,pitchwheel,36,819,64,0
11088,2414.000000,note_off,36,819,64,320
11089,2414.666666,note_on,38,2457,64,0
11090,2414.666666,pitchwheel,38,2457,64,0
11091,2414.666666,note_off,38,2457,64,160
11092,2415.000000,note_on,45,1638,64,0
11093,2415.000000,pitchwheel,45,1638,64,0
11094,2415.000000,note_off,45,1638,64,160
11095,2415.333333,note_on,45,2047,64,0
11096,2415.333333,pitchwheel,45,2047,64,0
11097,2415.333333,note_off,45,2047,64,320
11098,2416.000000,note_on,46,1638,64,0
11099,2416.000000,pitchwheel,46,1638,64,0
11100,2416.000000,note_off,46,1638,64,320
11101,2416.666666,note_on,44,2047,64,0
11102,2416.666666,pitchwheel,44,2047,64,0
11103,2416.666666,note_off,44,2047,64,160
11104,2417.000000,note_on,45,0,64,0
11105,2417.000000,note_off,45,0,64,160
11106,2417.333333,note_on,36,819,64,0
11107,2417.333333,pitchwheel,36,819,64,0
11108,2417.333333,note_off,36,819,64,320
11109,2418.000000,note_on,38,819,64,0
11110,2418.000000,pitchwheel,38,819,64,0
11111,2418.000000,note_off,38,819,64,320
11112,2418.666666,note_on,39,819,64,0
11113,2418.666666,pitchwheel,39,819,64,0
11114,2418.666666,note_off,39,819,64,160
11115,2419.000000,note_on,45,1638,64,0
11116,2419.000000,pitchwheel,45,1638,64,0
11117,2419.000000,note_off,45,1638,64,160
11118,2419.333333,note_on,36,2047,64,0
11119,2419.333333,pitchwheel,36,2047,64,0
11120,2419.333333,note_off,36,2047,64,320
11121,2420.000000,note_on,44,0,64,0
11122,2420.000000,note_off,44,0,64,320
11123,2420.666666,note_on,47,3685,64,0
11124,2420.666666,pitchwheel,47,3685,64,0
11125,2420.666666,note_off,47,3685,64,320
11126,2421.333333,note_on,46,1638,64,0
11127,2421.333333,pitchwheel,46,1638,64,0
11128,2421.333333,note_off,46,1638,64,320
11129,2422.000000,note_on,43,0,64,0
11130,2422.000000,note_off,43,0,64,320
11131,2422.666666,note_on,45,0,64,0
11132,2422.666666,note_off,45,0,64,160
11133,2423.000000,note_on,46,409,64,0
11134,2423.000000,pitchwheel,46,409,64,0
11135,2423.000000,note_off,46,409,64,160
11136,2423.333333,note_on,47,3276,64,0
11137,2423.333333,pitchwheel,47,3276,64,0
11138,2423.333333,note_off,47,3276,64,320
11139,2424.000000,note_on,38,3685,64,0
11140,2424.000000,pitchwheel,38,3685,64,0
11141,2424.000000,note_off,38,3685,64,320
11142,2424.666666,note_on,46,409,64,0
11143,2424.666666,pitchwheel,46,409,64,0
11144,2424.666666,note_off,46,409,64,160
11145,2425.000000,note_on,47,2047,64,0
11146,2425.000000,pitchwheel,47,2047,64,0
11147,2425.000000,note_off,47,2047,64,160
11148,2425.333333,note_on,45,3276,64,0
11149,2425.333333,pitchwheel,45,3276,64,0
11150,2425.333333,note_off,45,3276,64,320
11151,2426.000000,note_on,41,1228,64,0
11152,2426.000000,pitchwheel,41,1228,64,0
11153,2426.000000,note_off,41,1228,64,320
11154,2426.666666,note_on,45,1638,64,0
11155,2426.666666,pitchwheel,45,1638,64,0
11156,2426.666666,note_off,45,1638,64,160
11157,2427.000000,note_on,43,0,64,0
11158,2427.000000,note_off,43,0,64,160
11159,2427.333333,note_on,41,0,64,0
11160,2427.333333,note_off,41,0,64,640
11161,2428.666666,note_on,38,819,64,0
11162,2428.666666,pitchwheel,38,819,64,0
11163,2428.666666,note_off,38,819,64,160
11164,2429.000000,note_on,43,2866,64,0
11165,2429.000000,pitchwheel,43,2866,64,0
11166,2429.000000,note_off,43,2866,64,160
11167,2429.333333,note_on,36,2047,64,0
11168,2429.333333,pitchwheel,36,2047,64,0
11169,2429.333333,note_off,36,2047,64,320
11170,2430.000000,note_on,46,0,64,0
11171,2430.000000,note_off,46,0,64,320
11172,2430.666666,note_on,47,2457,64,0
11173,2430.666666,pitchwheel,47,2457,64,0
11174,2430.666666,note_off,47,2457,64,160
11175,2431.000000,note_on,36,2047,64,0
11176,2431.000000,pitchwheel,36,2047,64,0
11177,2431.000000,note_off,36,2047,64,480
11178,2432.000000,note_on,45,2047,64,0
11179,2432.000000,pitchwheel,45,2047,64,0
11180,2432.000000,note_off,45,2047,64,480
11181,2433.000000,note_on,38,2457,64,0
11182,2433.000000,pitchwheel,38,2457,64,0
11183,2433.000000,note_off,38,2457,64,160
11184,2433.333333,note_on,40,0,64,0
11185,2433.333333,note_off,40,0,64,320
11186,2434.000000,note_on,45,0,64,0
11187,2434.000000,note_off,45,0,64,320
11188,2434.666666,note_on,50,2457,64,0
11189,2434.666666,pitchwheel,50,2457,64,0
11190,2434.666666,note_off,50,2457,64,160
11191,2435.000000,note_on,52,2457,64,0
11192,2435.000000,pitchwheel,52,2457,64,0
11193,2435.000000,note_off,52,2457,64,160
11194,2435.333333,note_on,50,1228,64,0
11195,2435.333333,pitchwheel,50,1228,64,0
11196,2435.333333,note_off,50,1228,64,320
11197,2436.000000,note_on,50,2457,64,0
11198,2436.000000,pitchwheel,50,2457,64,0
11199,2436.000000,note_off,50,2457,64,320
11200,2436.666666,note_on,45,1638,64,0
11201,2436.666666,pitchwheel,45,1638,64,0
11202,2436.666666,note_off,45,1638,64,160
11203,2437.000000,note_on,41,1228,64,0
11204,2437.000000,pitchwheel,41,1228,64,0
11205,2437.000000,note_off,41,1228,64,160
11206,2437.333333,note_on,45,2047,64,0
11207,2437.333333,pitchwheel,45,2047,64,0
11208,2437.333333,note_off,45,2047,64,320
11209,2438.000000,note_on,45,0,64,0
11210,2438.000000,note_off,45,0,64,320
11211,2438.666666,note_on,43,1638,64,0
11212,2438.666666,pitchwheel,43,1638,64,0
11213,2438.666666,note_off,43,1638,64,320
11214,2439.333333,note_on,45,1638,64,0
11215,2439.333333,pitchwheel,45,1638,64,0
11216,2439.333333,note_off,45,1638,64,320
11217,2440.000000,note_on,46,0,64,0
11218,2440.000000,note_off,46,0,64,480
11219,2441.000000,note_on,50,2457,64,0
11220,2441.000000,pitchwheel,50,2457,64,0
11221,2441.000000,note_off,50,2457,64,160
11222,2441.333333,note_on,50,0,64,0
11223,2441.333333,note_off,50,0,64,320
11224,2442.000000,note_on,47,2457,64,0
11225,2442.000000,pitchwheel,47,2457,64,0
11226,2442.000000,note_off,47,2457,64,320
11227,2442.666666,note_on,48,3276,64,0
11228,2442.666666,pitchwheel,48,3276,64,0
11229,2442.666666,note_off,48,3276,64,160
11230,2443.000000,note_on,45,1638,64,0
11231,2443.000000,pitchwheel,45,1638,64,0
11232,2443.000000,note_off,45,1638,64,160
11233,2443.333333,note_on,43,2866,64,0
11234,2443.333333,pitchwheel,43,2866,64,0
11235,2443.333333,note_off,43,2866,64,320
11236,2444.000000,note_on,47,3276,64,0
11237,2444.000000,pitchwheel,47,3276,64,0
11238,2444.000000,note_off,47,3276,64,320
11239,2444.666666,note_on,43,0,64,0
11240,2444.666666,note_off,43,0,64,320
11241,2445.333333,note_on,46,1638,64,0
11242,2445.333333,pitchwheel,46,1638,64,0
11243,2445.333333,note_off,46,1638,64,320
11244,2446.000000,note_on,46,0,64,0
11245,2446.000000,note_off,46,0,64,320
11246,2446.666666,note_on,43,0,64,0
11247,2446.666666,note_off,43,0,64,320
11248,2447.333333,note_on,38,0,64,0
11249,2447.333333,note_off,38,0,64,320
11250,2448.000000,note_on,36,819,64,0
11251,2448.000000,pitchwheel,36,819,64,0
11252,2448.000000,note_off,36,819,64,320
11253,2448.666666,note_on,38,2457,64,0
11254,2448.666666,pitchwheel,38,2457,64,0
11255,2448.666666,note_off,38,2457,64,320
11256,2449.333333,note_on,41,0,64,0
11257,2449.333333,note_off,41,0,64,320
11258,2450.000000,note_on,40,2457,64,0
11259,2450.000000,pitchwheel,40,2457,64,0
11260,2450.000000,note_off,40,2457,64,320
11261,2450.666666,note_on,40,2866,64,0
11262,2450.666666,pitchwheel,40,2866,64,0
11263,2450.666666,note_off,40,2866,64,160
11264,2451.000000,note_on,47,3276,64,0
11265,2451.000000,pitchwheel,47,3276,64,0
11266,2451.000000,note_off,47,3276,64,160
11267,2451.333333,note_on,45,2047,64,0
11268,2451.333333,pitchwheel,45,2047,64,0
11269,2451.333333,note_off,45,2047,64,320
11270,2452.000000,note_on,45,3276,64,0
11271,2452.000000,pitchwheel,45,3276,64,0
11272,2452.000000,note_off,45,3276,64,480
11273,2453.000000,note_on,41,0,64,0
11274,2453.000000,note_off,41,0,64,160
11275,2453.333333,note_on,46,1638,64,0
11276,2453.333333,pitchwheel,46,1638,64,0
11277,2453.333333,note_off,46,1638,64,320
11278,2454.000000,note_on,41,1228,64,0
11279,2454.000000,pitchwheel,41,1228,64,0
11280,2454.000000,note_off,41,1228,64,480
11281,2455.000000,note_on,47,3276,64,0
11282,2455.000000,pitchwheel,47,3276,64,0
11283,2455.000000,note_off,47,3276,64,160
11284,2455.333333,note_on,43,0,64,0
11285,2455.333333,note_off,43,0,64,320
11286,2456.000000,note_on,38,2457,64,0
11287,2456.000000,pitchwheel,38,2457,64,0
11288,2456.000000,note_off,38,2457,64,320
11289,2456.666666,note_on,45,0,64,0
11290,2456.666666,note_off,45,0,64,320
11291,2457.333333,note_on,46,0,64,0
11292,2457.333333,note_off,46,0,64,320
11293,2458.000000,note_on,36,2047,64,0
11294,2458.000000,pitchwheel,36,2047,64,0
11295,2458.000000,note_off,36,2047,64,320
11296,2458.666666,note_on,43,409,64,0
11297,2458.666666,pitchwheel,43,409,64,0
11298,2458.666666,note_off,43,409,64,160
11299,2459.000000,note_on,38,819,64,0
11300,2459.000000,pitchwheel,38,819,64,0
11301,2459.000000,note_off,38,819,64,480
11302,2460.000000,note_on,36,3276,64,0
11303,2460.000000,pitchwheel,36,3276,64,0
11304,2460.000000,note_off,36,3276,64,320
11305,2460.666666,note_on,40,2457,64,0
11306,2460.666666,pitchwheel,40,2457,64,0
11307,2460.666666,note_off,40,2457,64,320
11308,2461.333333,note_on,41,2457,64,0
11309,2461.333333,pitchwheel,41,2457,64,0
11310,2461.333333,note_off,41,2457,64,320
11311,2462.000000,note_on,38,1228,64,0
11312,2462.000000,pitchwheel,38,1228,64,0
11313,2462.000000,note_off,38,1228,64,320
11314,2462.666666,note_on,38,2457,64,0
11315,2462.666666,pitchwheel,38,2457,64,0
11316,2462.666666,note_off,38,2457,64,160
11317,2463.000000,note_on,45,2047,64,0
11318,2463.000000,pitchwheel,45,2047,64,0
11319,2463.000000,note_off,45,2047,64,160
11320,2463.333333,note_on,43,0,64,0
11321,2463.333333,note_off,43,0,64,320
11322,2464.000000,note_on,43,409,64,0
11323,2464.000000,pitchwheel,43,409,64,0
11324,2464.000000,note_off,43,409,64,320
11325,2464.666666,note_on,45,0,64,0
11326,2464.666666,note_off,45,0,64,320
11327,2466.000000,note_on,38,819,64,0
11328,2466.000000,pitchwheel,38,819,64,0
11329,2466.000000,note_off,38,819,64,320
11330,2466.666666,note_on,47,2047,64,0
11331,2466.666666,pitchwheel,47,2047,64,0
11332,2466.666666,note_off,47,2047,64,160
11333,2467.000000,note_on,40,2457,64,0
11334,2467.000000,pitchwheel,40,2457,64,0
11335,2467.000000,note_off,40,2457,64,480
11336,2468.000000,note_on,46,1638,64,0
11337,2468.000000,pitchwheel,46,1638,64,0
11338,2468.000000,note_off,46,1638,64,320
11339,2468.666666,note_on,47,2457,64,0
11340,2468.666666,pitchwheel,47,2457,64,0
11341,2468.666666,note_off,47,2457,64,160
11342,2469.000000,note_on,45,3276,64,0
11343,2469.000000,pitchwheel,45,3276,64,0
11344,2469.000000,note_off,45,3276,64,160
11345,2469.333333,note_on,46,0,64,0
11346,2469.333333,note_off,46,0,64,320
11347,2470.000000,note_on,49,0,64,0
11348,2470.000000,note_off,49,0,64,320
11349,2470.666666,note_on,48,819,64,0
11350,2470.666666,pitchwheel,48,819,64,0
11351,2470.666666,note_off,48,819,64,160
11352,2471.000000,note_on,43,409,64,0
11353,2471.000000,pitchwheel,43,409,64,0
11354,2471.000000,note_off,43,409,64,160
11355,2471.333333,note_on,47,3276,64,0
11356,2471.333333,pitchwheel,47,3276,64,0
11357,2471.333333,note_off,47,3276,64,320
11358,2472.000000,note_on,47,3685,64,0
11359,2472.000000,pitchwheel,47,3685,64,0
11360,2472.000000,note_off,47,3685,64,320
11361,2472.666666,note_on,43,409,64,0
11362,2472.666666,pitchwheel,43,409,64,0
11363,2472.666666,note_off,43,409,64,160
11364,2473.000000,note_on,41,0,64,0
11365,2473.000000,note_off,41,0,64,160
11366,2473.333333,note_on,43,0,64,0
11367,2473.333333,note_off,43,0,64,320
11368,2474.000000,note_on,46,409,64,0
11369,2474.000000,pitchwheel,46,409,64,0
11370,2474.000000,note_off,46,409,64,480
11371,2475.000000,note_on,43,0,64,0
11372,2475.000000,note_off,43,0,64,160
11373,2475.333333,note_on,38,2457,64,0
11374,2475.333333,pitchwheel,38,2457,64,0
11375,2475.333333,note_off,38,2457,64,320
11376,2476.000000,note_on,44,0,64,0
11377,2476.000000,note_off,44,0,64,320
11378,2476.666666,note_on,45,1638,64,0
11379,2476.666666,pitchwheel,45,1638,64,0
11380,2476.666666,note_off,45,1638,64,160
11381,2477.000000,note_on,48,819,64,0
11382,2477.000000,pitchwheel,48,819,64,0
11383,2477.000000,note_off,48,819,64,160
11384,2477.333333,note_on,48,3276,64,0
11385,2477.333333,pitchwheel,48,3276,64,0
11386,2477.333333,note_off,48,3276,64,320
11387,2478.000000,note_on,45,2047,64,0
11388,2478.000000,pitchwheel,45,2047,64,0
11389,2478.000000,note_off,45,2047,64,320
11390,2478.666666,note_on,45,3276,64,0
11391,2478.666666,pitchwheel,45,3276,64,0
11392,2478.666666,note_off,45,3276,64,320
11393,2480.000000,note_on,44,2047,64,0
11394,2480.000000,pitchwheel,44,2047,64,0
11395,2480.000000,note_off,44,2047,64,320
11396,2480.666666,note_on,48,2047,64,0
11397,2480.666666,pitchwheel,48,2047,64,0
11398,2480.666666,note_off,48,2047,64,160
11399,2481.000000,note_on,52,1638,64,0
11400,2481.000000,pitchwheel,52,1638,64,0
11401,2481.000000,note_off,52,1638,64,480
11402,2482.000000,note_on,53,0,64,0
11403,2482.000000,note_off,53,0,64,320
11404,2482.666666,note_on,50,819,64,0
11405,2482.666666,pitchwheel,50,819,64,0
11406,2482.666666,note_off,50,819,64,160
11407,2483.000000,note_on,52,2457,64,0
11408,2483.000000,pitchwheel,52,2457,64,0
11409,2483.000000,note_off,52,2457,64,160
11410,2483.333333,note_on,47,2047,64,0
11411,2483.333333,pitchwheel,47,2047,64,0
11412,2483.333333,note_off,47,2047,64,320
11413,2484.000000,note_on,47,2457,64,0
11414,2484.000000,pitchwheel,47,2457,64,0
11415,2484.000000,note_off,47,2457,64,480
11416,2485.000000,note_on,45,0,64,0
11417,2485.000000,note_off,45,0,64,160
11418,2485.333333,note_on,47,3685,64,0
11419,2485.333333,pitchwheel,47,3685,64,0
11420,2485.333333,note_off,47,3685,64,320
11421,2486.000000,note_on,46,0,64,0
11422,2486.000000,note_off,46,0,64,320
11423,2486.666666,note_on,47,2047,64,0
11424,2486.666666,pitchwheel,47,2047,64,0
11425,2486.666666,note_off,47,2047,64,320
11426,2487.333333,note_on,50,819,64,0
11427,2487.333333,pitchwheel,50,819,64,0
11428,2487.333333,note_off,50,819,64,320
11429,2488.000000,note_on,51,819,64,0
11430,2488.000000,pitchwheel,51,819,64,0
11431,2488.000000,note_off,51,819,64,320
11432,2488.666666,note_on,48,819,64,0
11433,2488.666666,pitchwheel,48,819,64,0
11434,2488.666666,note_off,48,819,64,320
11435,2489.333333,note_on,48,2047,64,0
11436,2489.333333,pitchwheel,48,2047,64,0
11437,2489.333333,note_off,48,2047,64,320
11438,2490.000000,note_on,52,2457,64,0
11439,2490.000000,pitchwheel,52,2457,64,0
11440,2490.000000,note_off,52,2457,64,320
11441,2490.666666,note_on,50,819,64,0
11442,2490.666666,pitchwheel,50,819,64,0
11443,2490.666666,note_off,50,819,64,160
11444,2491.000000,note_on,55,0,64,0
11445,2491.000000,note_off,55,0,64,160
11446,2491.333333,note_on,57,0,64,0
11447,2491.333333,note_off,57,0,64,320
11448,2492.000000,note_on,55,1638,64,0
11449,2492.000000,pitchwheel,55,1638,64,0
11450,2492.000000,note_off,55,1638,64,320
11451,2492.666666,note_on,59,3276,64,0
11452,2492.666666,pitchwheel,59,3276,64,0
11453,2492.666666,note_off,59,3276,64,160
11454,2493.000000,note_on,57,3276,64,0
11455,2493.000000,pitchwheel,57,3276,64,0
11456,2493.000000,note_off,57,3276,64,160
11457,2493.333333,note_on,58,1638,64,0
11458,2493.333333,pitchwheel,58,1638,64,0
11459,2493.333333,note_off,58,1638,64,320
11460,2494.000000,note_on,57,2047,64,0
11461,2494.000000,pitchwheel,57,2047,64,0
11462,2494.000000,note_off,57,2047,64,320
11463,2494.666666,note_on,50,0,64,0
11464,2494.666666,note_off,50,0,64,160
11465,2495.000000,note_on,50,819,64,0
11466,2495.000000,pitchwheel,50,819,64,0
11467,2495.000000,note_off,50,819,64,160
11468,2495.333333,note_on,55,1638,64,0
11469,2495.333333,pitchwheel,55,1638,64,0
11470,2495.333333,note_off,55,1638,64,320
11471,2496.000000,note_on,58,1638,64,0
11472,2496.000000,pitchwheel,58,1638,64,0
11473,2496.000000,note_off,58,1638,64,320
11474,2496.666666,note_on,50,3685,64,0
11475,2496.666666,pitchwheel,50,3685,64,0
11476,2496.666666,note_off,50,3685,64,160
11477,2497.000000,note_on,57,0,64,0
11478,2497.000000,note_off,57,0,64,160
11479,2497.333333,note_on,50,2457,64,0
11480,2497.333333,pitchwheel,50,2457,64,0
11481,2497.333333,note_off,50,2457,64,320
11482,2498.000000,note_on,57,1638,64,0
11483,2498.000000,pitchwheel,57,1638,64,0
11484,2498.000000,note_off,57,1638,64,320
11485,2498.666666,note_on,57,0,64,0
11486,2498.666666,note_off,57,0,64,160
11487,2499.000000,note_on,57,1638,64,0
11488,2499.000000,pitchwheel,57,1638,64,0
11489,2499.000000,note_off,57,1638,64,160
11490,2499.333333,note_on,53,0,64,0
11491,2499.333333,note_off,53,0,64,320
11492,2500.000000,note_on,47,3276,64,0
11493,2500.000000,pitchwheel,47,3276,64,0
11494,2500.000000,note_off,47,3276,64,320
11495,2500.666666,note_on,53,0,64,0
11496,2500.666666,note_off,53,0,64,320
11497,2501.333333,note_on,56,0,64,0
11498,2501.333333,note_off,56,0,64,320
11499,2502.000000,note_on,50,3685,64,0
11500,2502.000000,pitchwheel,50,3685,64,0
11501,2502.000000,note_off,50,3685,64,320
11502,2502.666666,note_on,53,0,64,0
11503,2502.666666,note_off,53,0,64,160
11504,2503.000000,note_on,57,2047,64,0
11505,2503.000000,pitchwheel,57,2047,64,0
11506,2503.000000,note_off,57,2047,64,160
11507,2503.333333,note_on,55,0,64,0
11508,2503.333333,note_off,55,0,64,320
11509,2504.000000,note_on,58,1638,64,0
11510,2504.000000,pitchwheel,58,1638,64,0
11511,2504.000000,note_off,58,1638,64,320
11512,2504.666666,note_on,55,1638,64,0
11513,2504.666666,pitchwheel,55,1638,64,0
11514,2504.666666,note_off,55,1638,64,160
11515,2505.000000,note_on,56,2047,64,0
11516,2505.000000,pitchwheel,56,2047,64,0
11517,2505.000000,note_off,56,2047,64,160
11518,2505.333333,note_on,55,2866,64,0
11519,2505.333333,pitchwheel,55,2866,64,0
11520,2505.333333,note_off,55,2866,64,320
11521,2506.000000,note_on,50,1228,64,0
11522,2506.000000,pitchwheel,50,1228,64,0
11523,2506.000000,note_off,50,1228,64,320
11524,2506.666666,note_on,45,2047,64,0
11525,2506.666666,pitchwheel,45,2047,64,0
11526,2506.666666,note_off,45,2047,64,160
11527,2507.000000,note_on,47,3276,64,0
11528,2507.000000,pitchwheel,47,3276,64,0
11529,2507.000000,note_off,47,3276,64,160
11530,2507.333333,note_on,53,0,64,0
11531,2507.333333,note_off,53,0,64,320
11532,2508.000000,note_on,48,2047,64,0
11533,2508.000000,pitchwheel,48,2047,64,0
11534,2508.000000,note_off,48,2047,64,320
11535,2508.666666,note_on,50,819,64,0
11536,2508.666666,pitchwheel,50,819,64,0
11537,2508.666666,note_off,50,819,64,160
11538,2509.000000,note_on,53,0,64,0
11539,2509.000000,note_off,53,0,64,160
11540,2509.333333,note_on,56,0,64,0
11541,2509.333333,note_off,56,0,64,320
11542,2510.000000,note_on,50,2457,64,0
11543,2510.000000,pitchwheel,50,2457,64,0
11544,2510.000000,note_off,50,2457,64,320
11545,2510.666666,note_on,47,3276,64,0
11546,2510.666666,pitchwheel,47,3276,64,0
11547,2510.666666,note_off,47,3276,64,160
11548,2511.000000,note_on,47,3685,64,0
11549,2511.000000,pitchwheel,47,3685,64,0
11550,2511.000000,note_off,47,3685,64,480
11551,2512.000000,note_on,45,2047,64,0
11552,2512.000000,pitchwheel,45,2047,64,0
11553,2512.000000,note_off,45,2047,64,480
11554,2513.000000,note_on,50,0,64,0
11555,2513.000000,note_off,50,0,64,160
11556,2513.333333,note_on,45,0,64,0
11557,2513.333333,note_off,45,0,64,320
11558,2514.000000,note_on,40,2457,64,0
11559,2514.000000,pitchwheel,40,2457,64,0
11560,2514.000000,note_off,40,2457,64,320
11561,2514.666666,note_on,41,2457,64,0
11562,2514.666666,pitchwheel,41,2457,64,0
11563,2514.666666,note_off,41,2457,64,160
11564,2515.000000,note_on,45,2047,64,0
11565,2515.000000,pitchwheel,45,2047,64,0
11566,2515.000000,note_off,45,2047,64,160
11567,2515.333333,note_on,41,0,64,0
11568,2515.333333,note_off,41,0,64,320
11569,2516.000000,note_on,40,2866,64,0
11570,2516.000000,pitchwheel,40,2866,64,0
11571,2516.000000,note_off,40,2866,64,320
11572,2516.666666,note_on,38,819,64,0
11573,2516.666666,pitchwheel,38,819,64,0
11574,2516.666666,note_off,38,819,64,160
11575,2517.000000,note_on,38,2457,64,0
11576,2517.000000,pitchwheel,38,2457,64,0
11577,2517.000000,note_off,38,2457,64,160
11578,2517.333333,note_on,47,3685,64,0
11579,2517.333333,pitchwheel,47,3685,64,0
11580,2517.333333,note_off,47,3685,64,320
11581,2518.000000,note_on,38,1228,64,0
11582,2518.000000,pitchwheel,38,1228,64,0
11583,2518.000000,note_off,38,1228,64,480
11584,2519.333333,note_on,43,0,64,0
11585,2519.333333,note_off,43,0,64,320
11586,2520.000000,note_on,38,819,64,0
11587,2520.000000,pitchwheel,38,819,64,0
11588,2520.000000,note_off,38,819,64,480
11589,2521.000000,note_on,41,0,64,0
11590,2521.000000,note_off,41,0,64,160
11591,2521.333333,note_on,38,819,64,0
11592,2521.333333,pitchwheel,38,819,64,0
11593,2521.333333,note_off,38,819,64,320
11594,2522.000000,note_on,46,409,64,0
11595,2522.000000,pitchwheel,46,409,64,0
11596,2522.000000,note_off,46,409,64,320
11597,2522.666666,note_on,38,3685,64,0
11598,2522.666666,pitchwheel,38,3685,64,0
11599,2522.666666,note_off,38,3685,64,160
11600,2523.000000,note_on,47,3276,64,0
11601,2523.000000,pitchwheel,47,3276,64,0
11602,2523.000000,note_off,47,3276,64,160
11603,2523.333333,note_on,36,2047,64,0
11604,2523.333333,pitchwheel,36,2047,64,0
11605,2523.333333,note_off,36,2047,64,320
11606,2524.000000,note_on,45,3276,64,0
11607,2524.000000,pitchwheel,45,3276,64,0
11608,2524.000000,note_off,45,3276,64,320
11609,2524.666666,note_on,45,1638,64,0
11610,2524.666666,pitchwheel,45,1638,64,0
11611,2524.666666,note_off,45,1638,64,160
11612,2525.000000,note_on,44,2047,64,0
11613,2525.000000,pitchwheel,44,2047,64,0
11614,2525.000000,note_off,44,2047,64,160
11615,2525.333333,note_on,45,2047,64,0
11616,2525.333333,pitchwheel,45,2047,64,0
11617,2525.333333,note_off,45,2047,64,320
11618,2526.000000,note_on,46,0,64,0
11619,2526.000000,note_off,46,0,64,640
11620,2527.333333,note_on,36,2047,64,0
11621,2527.333333,pitchwheel,36,2047,64,0
11622,2527.333333,note_off,36,2047,64,320
11623,2528.000000,note_on,45,2047,64,0
11624,2528.000000,pitchwheel,45,2047,64,0
11625,2528.000000,note_off,45,2047,64,320
11626,2528.666666,note_on,38,2457,64,0
11627,2528.666666,pitchwheel,38,2457,64,0
11628,2528.666666,note_off,38,2457,64,320
11629,2529.333333,note_on,45,0,64,0
11630,2529.333333,note_off,45,0,64,320
11631,2530.000000,note_on,44,2047,64,0
11632,2530.000000,pitchwheel,44,2047,64,0
11633,2530.000000,note_off,44,2047,64,320
11634,2530.666666,note_on,46,1638,64,0
11635,2530.666666,pitchwheel,46,1638,64,0
11636,2530.666666,note_off,46,1638,64,160
11637,2531.000000,note_on,45,1638,64,0
11638,2531.000000,pitchwheel,45,1638,64,0
11639,2531.000000,note_off,45,1638,64,160
11640,2531.333333,note_on,45,3276,64,0
11641,2531.333333,pitchwheel,45,3276,64,0
11642,2531.333333,note_off,45,3276,64,320
11643,2532.000000,note_on,45,2047,64,0
11644,2532.000000,pitchwheel,45,2047,64,0
11645,2532.000000,note_off,45,2047,64,480
11646,2533.000000,note_on,45,3276,64,0
11647,2533.000000,pitchwheel,45,3276,64,0
11648,2533.000000,note_off,45,3276,64,160
11649,2533.333333,note_on,44,0,64,0
11650,2533.333333,note_off,44,0,64,320
11651,2534.000000,note_on,46,409,64,0
11652,2534.000000,pitchwheel,46,409,64,0
11653,2534.000000,note_off,46,409,64,480
11654,2535.000000,note_on,40,2457,64,0
11655,2535.000000,pitchwheel,40,2457,64,0
11656,2535.000000,note_off,40,2457,64,160
11657,2535.333333,note_on,38,819,64,0
11658,2535.333333,pitchwheel,38,819,64,0
11659,2535.333333,note_off,38,819,64,320
11660,2536.000000,note_on,36,2047,64,0
11661,2536.000000,pitchwheel,36,2047,64,0
11662,2536.000000,note_off,36,2047,64,320
11663,2536.666666,note_on,38,2457,64,0
11664,2536.666666,pitchwheel,38,2457,64,0
11665,2536.666666,note_off,38,2457,64,160
11666,2537.000000,note_on,45,0,64,0
11667,2537.000000,note_off,45,0,64,160
11668,2537.333333,note_on,46,0,64,0
11669,2537.333333,note_off,46,0,64,320
11670,2538.000000,note_on,43,409,64,0
11671,2538.000000,pitchwheel,43,409,64,0
11672,2538.000000,note_off,43,409,64,320
11673,2538.666666,note_on,44,0,64,0
11674,2538.666666,note_off,44,0,64,160
11675,2539.000000,note_on,43,0,64,0
11676,2539.000000,note_off,43,0,64,480
11677,2540.000000,note_on,47,2047,64,0
11678,2540.000000,pitchwheel,47,2047,64,0
11679,2540.000000,note_off,47,2047,64,320
11680,2540.666666,note_on,40,2457,64,0
11681,2540.666666,pitchwheel,40,2457,64,0
11682,2540.666666,note_off,40,2457,64,320
11683,2541.333333,note_on,46,1638,64,0
11684,2541.333333,pitchwheel,46,1638,64,0
11685,2541.333333,note_off,46,1638,64,320
11686,2542.000000,note_on,48,819,64,0
11687,2542.000000,pitchwheel,48,819,64,0
11688,2542.000000,note_off,48,819,64,320
11689,2542.666666,note_on,47,3685,64,0
11690,2542.666666,pitchwheel,47,3685,64,0
11691,2542.666666,note_off,47,3685,64,160
11692,2543.000000,note_on,47,2457,64,0
11693,2543.000000,pitchwheel,47,2457,64,0
11694,2543.000000,note_off,47,2457,64,160
11695,2543.333333,note_on,47,3276,64,0
11696,2543.333333,pitchwheel,47,3276,64,0
11697,2543.333333,note_off,47,3276,64,320
11698,2544.000000,note_on,47,3685,64,0
11699,2544.000000,pitchwheel,47,3685,64,0
11700,2544.000000,note_off,47,3685,64,320
11701,2544.666666,note_on,45,0,64,0
11702,2544.666666,note_off,45,0,64,160
11703,2545.000000,note_on,50,1228,64,0
11704,2545.000000,pitchwheel,50,1228,64,0
11705,2545.000000,note_off,50,1228,64,160
11706,2545.333333,note_on,53,0,64,0
11707,2545.333333,note_off,53,0,64,320
11708,2546.000000,note_on,55,0,64,0
11709,2546.000000,note_off,55,0,64,320
11710,2546.666666,note_on,55,1638,64,0
11711,2546.666666,pitchwheel,55,1638,64,0
11712,2546.666666,note_off,55,1638,64,160
11713,2547.000000,note_on,52,2457,64,0
11714,2547.000000,pitchwheel,52,2457,64,0
11715,2547.000000,note_off,52,2457,64,480
11716,2548.000000,note_on,56,0,64,0
11717,2548.000000,note_off,56,0,64,480
11718,2549.000000,note_on,50,2457,64,0
11719,2549.000000,pitchwheel,50,2457,64,0
11720,2549.000000,note_off,50,2457,64,160
11721,2549.333333,note_on,46,1638,64,0
11722,2549.333333,pitchwheel,46,1638,64,0
11723,2549.333333,note_off,46,1638,64,320
11724,2550.000000,note_on,44,2047,64,0
11725,2550.000000,pitchwheel,44,2047,64,0
11726,2550.000000,note_off,44,2047,64,320
11727,2550.666666,note_on,38,3685,64,0
11728,2550.666666,pitchwheel,38,3685,64,0
11729,2550.666666,note_off,38,3685,64,160
11730,2551.000000,note_on,38,0,64,0
11731,2551.000000,note_off,38,0,64,160
11732,2551.333333,note_on,45,1638,64,0
11733,2551.333333,pitchwheel,45,1638,64,0
11734,2551.333333,note_off,45,1638,64,320
11735,2552.000000,note_on,40,2866,64,0
11736,2552.000000,pitchwheel,40,2866,64,0
11737,2552.000000,note_off,40,2866,64,320
11738,2552.666666,note_on,43,1638,64,0
11739,2552.666666,pitchwheel,43,1638,64,0
11740,2552.666666,note_off,43,1638,64,160
11741,2553.000000,note_on,38,2457,64,0
11742,2553.000000,pitchwheel,38,2457,64,0
11743,2553.000000,note_off,38,2457,64,480
11744,2554.000000,note_on,43,409,64,0
11745,2554.000000,pitchwheel,43,409,64,0
11746,2554.000000,note_off,43,409,64,320
11747,2554.666666,note_on,36,819,64,0
11748,2554.666666,pitchwheel,36,819,64,0
11749,2554.666666,note_off,36,819,64,160
11750,2555.000000,note_on,47,3685,64,0
11751,2555.000000,pitchwheel,47,3685,64,0
11752,2555.000000,note_off,47,3685,64,160
11753,2555.333333,note_on,41,0,64,0
11754,2555.333333,note_off,41,0,64,320
11755,2556.000000,note_on,38,2457,64,0
11756,2556.000000,pitchwheel,38,2457,64,0
11757,2556.000000,note_off,38,2457,64,320
11758,2556.666666,note_on,47,3276,64,0
11759,2556.666666,pitchwheel,47,3276,64,0
11760,2556.666666,note_off,47,3276,64,160
11761,2557.000000,note_on,41,0,64,0
11762,2557.000000,note_off,41,0,64,160
11763,2557.333333,note_on,38,1228,64,0
11764,2557.333333,pitchwheel,38,1228,64,0
11765,2557.333333,note_off,38,1228,64,320
11766,2558.000000,note_on,41,0,64,0
11767,2558.000000,note_off,41,0,64,320
11768,2558.666666,note_on,40,2866,64,0
11769,2558.666666,pitchwheel,40,2866,64,0
11770,2558.666666,note_off,40,2866,64,320
11771,2560.000000,note_on,38,0,64,0
11772,2560.000000,note_off,38,0,64,320
11773,2560.666666,note_on,40,1638,64,0
11774,2560.666666,pitchwheel,40,1638,64,0
11775,2560.666666,note_off,40,1638,64,160
11776,2561.000000,note_on,41,0,64,0
11777,2561.000000,note_off,41,0,64,480
11778,2562.000000,note_on,43,0,64,0
11779,2562.000000,note_off,43,0,64,320
11780,2562.666666,note_on,40,1638,64,0
11781,2562.666666,pitchwheel,40,1638,64,0
11782,2562.666666,note_off,40,1638,64,160
11783,2563.000000,note_on,43,0,64,0
11784,2563.000000,note_off,43,0,64,480
11785,2564.000000,note_on,44,0,64,0
11786,2564.000000,note_off,44,0,64,480
11787,2565.000000,note_on,38,0,64,0
11788,2565.000000,note_off,38,0,64,160
11789,2565.333333,note_on,36,3276,64,0
11790,2565.333333,pitchwheel,36,3276,64,0
11791,2565.333333,note_off,36,3276,64,320
11792,2566.000000,note_on,46,0,64,0
11793,2566.000000,note_off,46,0,64,320
11794,2566.666666,note_on,37,0,64,0
11795,2566.666666,note_off,37,0,64,320
11796,2567.333333,note_on,45,1638,64,0
11797,2567.333333,pitchwheel,45,1638,64,0
11798,2567.333333,note_off,45,1638,64,320
11799,2568.000000,note_on,43,409,64,0
11800,2568.000000,pitchwheel,43,409,64,0
11801,2568.000000,note_off,43,409,64,320
11802,2568.666666,note_on,36,819,64,0
11803,2568.666666,pitchwheel,36,819,64,0
11804,2568.666666,note_off,36,819,64,320
11805,2569.333333,note_on,36,2047,64,0
11806,2569.333333,pitchwheel,36,2047,64,0
11807,2569.333333,note_off,36,2047,64,320
11808,2570.000000,note_on,38,819,64,0
11809,2570.000000,pitchwheel,38,819,64,0
11810,2570.000000,note_off,38,819,64,320
11811,2570.666666,note_on,44,0,64,0
11812,2570.666666,note_off,44,0,64,160
11813,2571.000000,note_on,45,1638,64,0
11814,2571.000000,pitchwheel,45,1638,64,0
11815,2571.000000,note_off,45,1638,64,160
11816,2571.333333,note_on,45,0,64,0
11817,2571.333333,note_off,45,0,64,320
11818,2572.000000,note_on,46,0,64,0
11819,2572.000000,note_off,46,0,64,320
11820,2572.666666,note_on,47,3276,64,0
11821,2572.666666,pitchwheel,47,3276,64,0
11822,2572.666666,note_off,47,3276,64,160
11823,2573.000000,note_on,45,3276,64,0
11824,2573.000000,pitchwheel,45,3276,64,0
11825,2573.000000,note_off,45,3276,64,160
11826,2573.333333,note_on,48,3276,64,0
11827,2573.333333,pitchwheel,48,3276,64,0
11828,2573.333333,note_off,48,3276,64,320
11829,2574.000000,note_on,46,409,64,0
11830,2574.000000,pitchwheel,46,409,64,0
11831,2574.000000,note_off,46,409,64,320
11832,2574.666666,note_on,50,3685,64,0
11833,2574.666666,pitchwheel,50,3685,64,0
11834,2574.666666,note_off,50,3685,64,160
11835,2575.000000,note_on,55,0,64,0
11836,2575.000000,note_off,55,0,64,160
11837,2575.333333,note_on,57,2047,64,0
11838,2575.333333,pitchwheel,57,2047,64,0
11839,2575.333333,note_off,57,2047,64,320
11840,2576.000000,note_on,58,0,64,0
11841,2576.000000,note_off,58,0,64,320
11842,2576.666666,note_on,55,2866,64,0
11843,2576.666666,pitchwheel,55,2866,64,0
11844,2576.666666,note_off,55,2866,64,160
11845,2577.000000,note_on,57,0,64,0
11846,2577.000000,note_off,57,0,64,160
11847,2577.333333,note_on,57,3276,64,0
11848,2577.333333,pitchwheel,57,3276,64,0
11849,2577.333333,note_off,57,3276,64,320
11850,2578.000000,note_on,50,819,64,0
11851,2578.000000,pitchwheel,50,819,64,0
11852,2578.000000,note_off,50,819,64,320
11853,2578.666666,note_on,58,1638,64,0
11854,2578.666666,pitchwheel,58,1638,64,0
11855,2578.666666,note_off,58,1638,64,160
11856,2579.000000,note_on,59,3276,64,0
11857,2579.000000,pitchwheel,59,3276,64,0
11858,2579.000000,note_off,59,3276,64,160
11859,2579.333333,note_on,53,0,64,0
11860,2579.333333,note_off,53,0,64,320
11861,2580.000000,note_on,55,1638,64,0
11862,2580.000000,pitchwheel,55,1638,64,0
11863,2580.000000,note_off,55,1638,64,320
11864,2580.666666,note_on,59,3685,64,0
11865,2580.666666,pitchwheel,59,3685,64,0
11866,2580.666666,note_off,59,3685,64,320
11867,2581.333333,note_on,51,819,64,0
11868,2581.333333,pitchwheel,51,819,64,0
11869,2581.333333,note_off,51,819,64,320
11870,2582.000000,note_on,50,0,64,0
11871,2582.000000,note_off,50,0,64,320
11872,2582.666666,note_on,57,0,64,0
11873,2582.666666,note_off,57,0,64,160
11874,2583.000000,note_on,59,2457,64,0
11875,2583.000000,pitchwheel,59,2457,64,0
11876,2583.000000,note_off,59,2457,64,160
11877,2583.333333,note_on,52,2457,64,0
11878,2583.333333,pitchwheel,52,2457,64,0
11879,2583.333333,note_off,52,2457,64,320
11880,2584.000000,note_on,56,0,64,0
11881,2584.000000,note_off,56,0,64,320
11882,2584.666666,note_on,55,1638,64,0
11883,2584.666666,pitchwheel,55,1638,64,0
11884,2584.666666,note_off,55,1638,64,160
11885,2585.000000,note_on,52,2866,64,0
11886,2585.000000,pitchwheel,52,2866,64,0
11887,2585.000000,note_off,52,2866,64,160
11888,2585.333333,note_on,55,2866,64,0
11889,2585.333333,pitchwheel,55,2866,64,0
11890,2585.333333,note_off,55,2866,64,320
11891,2586.000000,note_on,50,1228,64,0
11892,2586.000000,pitchwheel,50,1228,64,0
11893,2586.000000,note_off,50,1228,64,320
11894,2586.666666,note_on,45,0,64,0
11895,2586.666666,note_off,45,0,64,160
11896,2587.000000,note_on,50,819,64,0
11897,2587.000000,pitchwheel,50,819,64,0
11898,2587.000000,note_off,50,819,64,160
11899,2587.333333,note_on,53,0,64,0
11900,2587.333333,note_off,53,0,64,320
11901,2588.000000,note_on,50,2457,64,0
11902,2588.000000,pitchwheel,50,2457,64,0
11903,2588.000000,note_off,50,2457,64,320
11904,2588.666666,note_on,52,2457,64,0
11905,2588.666666,pitchwheel,52,2457,64,0
11906,2588.666666,note_off,52,2457,64,320
11907,2589.333333,note_on,51,819,64,0
11908,2589.333333,pitchwheel,51,819,64,0
11909,2589.333333,note_off,51,819,64,320
11910,2590.000000,note_on,57,0,64,0
11911,2590.000000,note_off,57,0,64,320
11912,2590.666666,note_on,58,0,64,0
11913,2590.666666,note_off,58,0,64,160
11914,2591.000000,note_on,50,0,64,0
11915,2591.000000,note_off,50,0,64,480
11916,2592.000000,note_on,48,3276,64,0
11917,2592.000000,pitchwheel,48,3276,64,0
11918,2592.000000,note_off,48,3276,64,480
11919,2593.000000,note_on,50,2457,64,0
11920,2593.000000,pitchwheel,50,2457,64,0
11921,2593.000000,note_off,50,2457,64,160
11922,2593.333333,note_on,45,2047,64,0
11923,2593.333333,pitchwheel,45,2047,64,0
11924,2593.333333,note_off,45,2047,64,320
11925,2594.000000,note_on,50,819,64,0
11926,2594.000000,pitchwheel,50,819,64,0
11927,2594.000000,note_off,50,819,64,320
11928,2594.666666,note_on,53,2457,64,0
11929,2594.666666,pitchwheel,53,2457,64,0
11930,2594.666666,note_off,53,2457,64,160
11931,2595.000000,note_on,52,2457,64,0
11932,2595.000000,pitchwheel,52,2457,64,0
11933,2595.000000,note_off,52,2457,64,160
11934,2595.333333,note_on,55,2866,64,0
11935,2595.333333,pitchwheel,55,2866,64,0
11936,2595.333333,note_off,55,2866,64,320
11937,2596.000000,note_on,55,1638,64,0
11938,2596.000000,pitchwheel,55,1638,64,0
11939,2596.000000,note_off,55,1638,64,320
11940,2596.666666,note_on,52,2457,64,0
11941,2596.666666,pitchwheel,52,2457,64,0
11942,2596.666666,note_off,52,2457,64,160
11943,2597.000000,note_on,53,0,64,0
11944,2597.000000,note_off,53,0,64,160
11945,2597.333333,note_on,57,3276,64,0
11946,2597.333333,pitchwheel,57,3276,64,0
11947,2597.333333,note_off,57,3276,64,320
11948,2598.000000,note_on,57,0,64,0
11949,2598.000000,note_off,57,0,64,320
11950,2598.666666,note_on,50,2457,64,0
11951,2598.666666,pitchwheel,50,2457,64,0
11952,2598.666666,note_off,50,2457,64,320
11953,2599.333333,note_on,59,3276,64,0
11954,2599.333333,pitchwheel,59,3276,64,0
11955,2599.333333,note_off,59,3276,64,320
11956,2600.000000,note_on,56,0,64,0
11957,2600.000000,note_off,56,0,64,480
11958,2601.000000,note_on,48,2047,64,0
11959,2601.000000,pitchwheel,48,2047,64,0
11960,2601.000000,note_off,48,2047,64,160
11961,2601.333333,note_on,53,0,64,0
11962,2601.333333,note_off,53,0,64,320
11963,2602.000000,note_on,47,2457,64,0
11964,2602.000000,pitchwheel,47,2457,64,0
11965,2602.000000,note_off,47,2457,64,320
11966,2602.666666,note_on,43,1638,64,0
11967,2602.666666,pitchwheel,43,1638,64,0
11968,2602.666666,note_off,43,1638,64,160
11969,2603.000000,note_on,43,0,64,0
11970,2603.000000,note_off,43,0,64,160
11971,2603.333333,note_on,44,2047,64,0
11972,2603.333333,pitchwheel,44,2047,64,0
11973,2603.333333,note_off,44,2047,64,320
11974,2604.000000,note_on,44,0,64,0
11975,2604.000000,note_off,44,0,64,320
11976,2604.666666,note_on,45,1638,64,0
11977,2604.666666,pitchwheel,45,1638,64,0
11978,2604.666666,note_off,45,1638,64,160
11979,2605.000000,note_on,41,0,64,0
11980,2605.000000,note_off,41,0,64,160
11981,2605.333333,note_on,45,0,64,0
11982,2605.333333,note_off,45,0,64,320
11983,2606.000000,note_on,46,0,64,0
11984,2606.000000,note_off,46,0,64,320
11985,2606.666666,note_on,45,1638,64,0
11986,2606.666666,pitchwheel,45,1638,64,0
11987,2606.666666,note_off,45,1638,64,320
11988,2607.333333,note_on,50,0,64,0
11989,2607.333333,note_off,50,0,64,320
11990,2608.000000,note_on,46,0,64,0
11991,2608.000000,note_off,46,0,64,320
11992,2608.666666,note_on,50,2457,64,0
11993,2608.666666,pitchwheel,50,2457,64,0
11994,2608.666666,note_off,50,2457,64,320
11995,2609.333333,note_on,53,0,64,0
11996,2609.333333,note_off,53,0,64,320
11997,2610.000000,note_on,55,0,64,0
11998,2610.000000,note_off,55,0,64,320
11999,2610.666666,note_on,53,1228,64,0
12000,2610.666666,pitchwheel,53,1228,64,0
12001,2610.666666,note_off,53,1228,64,160
12002,2611.000000,note_on,57,1638,64,0
12003,2611.000000,pitchwheel,57,1638,64,0
12004,2611.000000,note_off,57,1638,64,160
12005,2611.333333,note_on,48,2047,64,0
12006,2611.333333,pitchwheel,48,2047,64,0
12007,2611.333333,note_off,48,2047,64,320
12008,2612.000000,note_on,48,819,64,0
12009,2612.000000,pitchwheel,48,819,64,0
12010,2612.000000,note_off,48,819,64,480
12011,2613.000000,note_on,45,2047,64,0
12012,2613.000000,pitchwheel,45,2047,64,0
12013,2613.000000,note_off,45,2047,64,160
12014,2613.333333,note_on,47,2047,64,0
12015,2613.333333,pitchwheel,47,2047,64,0
12016,2613.333333,note_off,47,2047,64,320
12017,2614.000000,note_on,45,3276,64,0
12018,2614.000000,pitchwheel,45,3276,64,0
12019,2614.000000,note_off,45,3276,64,320
12020,2614.666666,note_on,50,2457,64,0
12021,2614.666666,pitchwheel,50,2457,64,0
12022,2614.666666,note_off,50,2457,64,160
12023,2615.000000,note_on,45,1638,64,0
12024,2615.000000,pitchwheel,45,1638,64,0
12025,2615.000000,note_off,45,1638,64,160
12026,2615.333333,note_on,40,2457,64,0
12027,2615.333333,pitchwheel,40,2457,64,0
12028,2615.333333,note_off,40,2457,64,320
12029,2616.000000,note_on,36,3276,64,0
12030,2616.000000,pitchwheel,36,3276,64,0
12031,2616.000000,note_off,36,3276,64,320
12032,2616.666666,note_on,44,2047,64,0
12033,2616.666666,pitchwheel,44,2047,64,0
12034,2616.666666,note_off,44,2047,64,160
12035,2617.000000,note_on,45,0,64,0
12036,2617.000000,note_off,45,0,64,160
12037,2617.333333,note_on,45,1638,64,0
12038,2617.333333,pitchwheel,45,1638,64,0
12039,2617.333333,note_off,45,1638,64,320
12040,2618.000000,note_on,43,409,64,0
12041,2618.000000,pitchwheel,43,409,64,0
12042,2618.000000,note_off,43,409,64,320
12043,2618.666666,note_on,45,1638,64,0
12044,2618.666666,pitchwheel,45,1638,64,0
12045,2618.666666,note_off,45,1638,64,160
12046,2619.000000,note_on,47,3276,64,0
12047,2619.000000,pitchwheel,47,3276,64,0
12048,2619.000000,note_off,47,3276,64,480
12049,2620.000000,note_on,43,0,64,0
12050,2620.000000,note_off,43,0,64,640
12051,2621.333333,note_on,45,2047,64,0
12052,2621.333333,pitchwheel,45,2047,64,0
12053,2621.333333,note_off,45,2047,64,320
12054,2622.000000,note_on,43,2866,64,0
12055,2622.000000,pitchwheel,43,2866,64,0
12056,2622.000000,note_off,43,2866,64,320
12057,2622.666666,note_on,43,1638,64,0
12058,2622.666666,pitchwheel,43,1638,64,0
12059,2622.666666,note_off,43,1638,64,320
12060,2623.333333,note_on,43,0,64,0
12061,2623.333333,note_off,43,0,64,320
12062,2624.000000,note_on,45,2047,64,0
12063,2624.000000,pitchwheel,45,2047,64,0
12064,2624.000000,note_off,45,2047,64,320
12065,2624.666666,note_on,45,0,64,0
12066,2624.666666,note_off,45,0,64,160
12067,2625.000000,note_on,47,2047,64,0
12068,2625.000000,pitchwheel,47,2047,64,0
12069,2625.000000,note_off,47,2047,64,480
12070,2626.000000,note_on,45,1638,64,0
12071,2626.000000,pitchwheel,45,1638,64,0
12072,2626.000000,note_off,45,1638,64,320
12073,2626.666666,note_on,44,2047,64,0
12074,2626.666666,pitchwheel,44,2047,64,0
12075,2626.666666,note_off,44,2047,64,160
12076,2627.000000,note_on,38,819,64,0
12077,2627.000000,pitchwheel,38,819,64,0
12078,2627.000000,note_off,38,819,64,480
12079,2628.000000,note_on,39,819,64,0
12080,2628.000000,pitchwheel,39,819,64,0
12081,2628.000000,note_off,39,819,64,320
12082,2628.666666,note_on,47,2457,64,0
12083,2628.666666,pitchwheel,47,2457,64,0
12084,2628.666666,note_off,47,2457,64,160
12085,2629.000000,note_on,38,1228,64,0
12086,2629.000000,pitchwheel,38,1228,64,0
12087,2629.000000,note_off,38,1228,64,160
12088,2629.333333,note_on,43,2866,64,0
12089,2629.333333,pitchwheel,43,2866,64,0
12090,2629.333333,note_off,43,2866,64,320
12091,2630.000000,note_on,46,409,64,0
12092,2630.000000,pitchwheel,46,409,64,0
12093,2630.000000,note_off,46,409,64,320
12094,2630.666666,note_on,50,1228,64,0
12095,2630.666666,pitchwheel,50,1228,64,0
12096,2630.666666,note_off,50,1228,64,160
12097,2631.000000,note_on,53,0,64,0
12098,2631.000000,note_off,53,0,64,160
12099,2631.333333,note_on,47,3276,64,0
12100,2631.333333,pitchwheel,47,3276,64,0
12101,2631.333333,note_off,47,3276,64,320
12102,2632.000000,note_on,50,2457,64,0
12103,2632.000000,pitchwheel,50,2457,64,0
12104,2632.000000,note_off,50,2457,64,320
12105,2632.666666,note_on,50,3685,64,0
12106,2632.666666,pitchwheel,50,3685,64,0
12107,2632.666666,note_off,50,3685,64,320
12108,2633.333333,note_on,47,3276,64,0
12109,2633.333333,pitchwheel,47,3276,64,0
12110,2633.333333,note_off,47,3276,64,320
12111,2634.000000,note_on,45,2047,64,0
12112,2634.000000,pitchwheel,45,2047,64,0
12113,2634.000000,note_off,45,2047,64,320
12114,2634.666666,note_on,48,3276,64,0
12115,2634.666666,pitchwheel,48,3276,64,0
12116,2634.666666,note_off,48,3276,64,160
12117,2635.000000,note_on,52,2457,64,0
12118,2635.000000,pitchwheel,52,2457,64,0
12119,2635.000000,note_off,52,2457,64,160
12120,2635.333333,note_on,50,2457,64,0
12121,2635.333333,pitchwheel,50,2457,64,0
12122,2635.333333,note_off,50,2457,64,320
12123,2636.000000,note_on,53,2457,64,0
12124,2636.000000,pitchwheel,53,2457,64,0
12125,2636.000000,note_off,53,2457,64,320
12126,2636.666666,note_on,55,409,64,0
12127,2636.666666,pitchwheel,55,409,64,0
12128,2636.666666,note_off,55,409,64,160
12129,2637.000000,note_on,52,2866,64,0
12130,2637.000000,pitchwheel,52,2866,64,0
12131,2637.000000,note_off,52,2866,64,160
12132,2637.333333,note_on,58,1638,64,0
12133,2637.333333,pitchwheel,58,1638,64,0
12134,2637.333333,note_off,58,1638,64,320
12135,2638.000000,note_on,53,0,64,0
12136,2638.000000,note_off,53,0,64,320
12137,2638.666666,note_on,48,819,64,0
12138,2638.666666,pitchwheel,48,819,64,0
12139,2638.666666,note_off,48,819,64,320
12140,2640.000000,note_on,48,2047,64,0
12141,2640.000000,pitchwheel,48,2047,64,0
12142,2640.000000,note_off,48,2047,64,480
12143,2641.000000,note_on,53,0,64,0
12144,2641.000000,note_off,53,0,64,480
12145,2642.000000,note_on,50,819,64,0
12146,2642.000000,pitchwheel,50,819,64,0
12147,2642.000000,note_off,50,819,64,320
12148,2642.666666,note_on,47,3685,64,0
12149,2642.666666,pitchwheel,47,3685,64,0
12150,2642.666666,note_off,47,3685,64,160
12151,2643.000000,note_on,45,1638,64,0
12152,2643.000000,pitchwheel,45,1638,64,0
12153,2643.000000,note_off,45,1638,64,160
12154,2643.333333,note_on,41,0,64,0
12155,2643.333333,note_off,41,0,64,320
12156,2644.000000,note_on,41,2457,64,0
12157,2644.000000,pitchwheel,41,2457,64,0
12158,2644.000000,note_off,41,2457,64,480
12159,2645.333333,note_on,44,0,64,0
12160,2645.333333,note_off,44,0,64,320
12161,2646.000000,note_on,40,2457,64,0
12162,2646.000000,pitchwheel,40,2457,64,0
12163,2646.000000,note_off,40,2457,64,320
12164,2646.666666,note_on,47,3685,64,0
12165,2646.666666,pitchwheel,47,3685,64,0
12166,2646.666666,note_off,47,3685,64,320
12167,2647.333333,note_on,47,3276,64,0
12168,2647.333333,pitchwheel,47,3276,64,0
12169,2647.333333,note_off,47,3276,64,320
12170,2648.000000,note_on,38,0,64,0
12171,2648.000000,note_off,38,0,64,320
12172,2648.666666,note_on,41,1228,64,0
12173,2648.666666,pitchwheel,41,1228,64,0
12174,2648.666666,note_off,41,1228,64,320
12175,2649.333333,note_on,41,0,64,0
12176,2649.333333,note_off,41,0,64,320
12177,2650.000000,note_on,45,1638,64,0
12178,2650.000000,pitchwheel,45,1638,64,0
12179,2650.000000,note_off,45,1638,64,320
12180,2650.666666,note_on,45,2047,64,0
12181,2650.666666,pitchwheel,45,2047,64,0
12182,2650.666666,note_off,45,2047,64,160
12183,2651.000000,note_on,43,0,64,0
12184,2651.000000,note_off,43,0,64,160
12185,2651.333333,note_on,45,0,64,0
12186,2651.333333,note_off,45,0,64,320
12187,2652.000000,note_on,43,409,64,0
12188,2652.000000,pitchwheel,43,409,64,0
12189,2652.000000,note_off,43,409,64,320
12190,2652.666666,note_on,45,1638,64,0
12191,2652.666666,pitchwheel,45,1638,64,0
12192,2652.666666,note_off,45,1638,64,160
12193,2653.000000,note_on,40,2866,64,0
12194,2653.000000,pitchwheel,40,2866,64,0
12195,2653.000000,note_off,40,2866,64,160
12196,2653.333333,note_on,46,1638,64,0
12197,2653.333333,pitchwheel,46,1638,64,0
12198,2653.333333,note_off,46,1638,64,320
12199,2654.000000,note_on,41,0,64,0
12200,2654.000000,note_off,41,0,64,320
12201,2654.666666,note_on,43,409,64,0
12202,2654.666666,pitchwheel,43,409,64,0
12203,2654.666666,note_off,43,409,64,160
12204,2655.000000,note_on,47,3276,64,0
12205,2655.000000,pitchwheel,47,3276,64,0
12206,2655.000000,note_off,47,3276,64,160
12207,2655.333333,note_on,43,1638,64,0
12208,2655.333333,pitchwheel,43,1638,64,0
12209,2655.333333,note_off,43,1638,64,320
12210,2656.000000,note_on,46,1638,64,0
12211,2656.000000,pitchwheel,46,1638,64,0
12212,2656.000000,note_off,46,1638,64,320
12213,2656.666666,note_on,48,2047,64,0
12214,2656.666666,pitchwheel,48,2047,64,0
12215,2656.666666,note_off,48,2047,64,160
12216,2657.000000,note_on,45,0,64,0
12217,2657.000000,note_off,45,0,64,160
12218,2657.333333,note_on,41,0,64,0
12219,2657.333333,note_off,41,0,64,320
12220,2658.000000,note_on,43,0,64,0
12221,2658.000000,note_off,43,0,64,320
12222,2658.666666,note_on,48,3276,64,0
12223,2658.666666,pitchwheel,48,3276,64,0
12224,2658.666666,note_off,48,3276,64,160
12225,2659.000000,note_on,52,2457,64,0
12226,2659.000000,pitchwheel,52,2457,64,0
12227,2659.000000,note_off,52,2457,64,160
12228,2659.333333,note_on,48,2047,64,0
12229,2659.333333,pitchwheel,48,2047,64,0
12230,2659.333333,note_off,48,2047,64,320
12231,2660.000000,note_on,48,819,64,0
12232,2660.000000,pitchwheel,48,819,64,0
12233,2660.000000,note_off,48,819,64,320
12234,2660.666666,note_on,53,0,64,0
12235,2660.666666,note_off,53,0,64,640
12236,2662.000000,note_on,50,3685,64,0
12237,2662.000000,pitchwheel,50,3685,64,0
12238,2662.000000,note_off,50,3685,64,320
12239,2662.666666,note_on,45,2047,64,0
12240,2662.666666,pitchwheel,45,2047,64,0
12241,2662.666666,note_off,45,2047,64,160
12242,2663.000000,note_on,46,409,64,0
12243,2663.000000,pitchwheel,46,409,64,0
12244,2663.000000,note_off,46,409,64,160
12245,2663.333333,note_on,40,2457,64,0
12246,2663.333333,pitchwheel,40,2457,64,0
12247,2663.333333,note_off,40,2457,64,320
12248,2664.000000,note_on,43,2866,64,0
12249,2664.000000,pitchwheel,43,2866,64,0
12250,2664.000000,note_off,43,2866,64,320
12251,2664.666666,note_on,46,409,64,0
12252,2664.666666,pitchwheel,46,409,64,0
12253,2664.666666,note_off,46,409,64,160
12254,2665.000000,note_on,52,0,64,0
12255,2665.000000,note_off,52,0,64,160
12256,2665.333333,note_on,57,3276,64,0
12257,2665.333333,pitchwheel,57,3276,64,0
12258,2665.333333,note_off,57,3276,64,320
12259,2666.000000,note_on,48,819,64,0
12260,2666.000000,pitchwheel,48,819,64,0
12261,2666.000000,note_off,48,819,64,320
12262,2666.666666,note_on,44,2047,64,0
12263,2666.666666,pitchwheel,44,2047,64,0
12264,2666.666666,note_off,44,2047,64,160
12265,2667.000000,note_on,50,819,64,0
12266,2667.000000,pitchwheel,50,819,64,0
12267,2667.000000,note_off,50,819,64,160
12268,2667.333333,note_on,53,0,64,0
12269,2667.333333,note_off,53,0,64,320
12270,2668.000000,note_on,52,1638,64,0
12271,2668.000000,pitchwheel,52,1638,64,0
12272,2668.000000,note_off,52,1638,64,320
12273,2668.666666,note_on,50,819,64,0
12274,2668.666666,pitchwheel,50,819,64,0
12275,2668.666666,note_off,50,819,64,160
12276,2669.000000,note_on,45,2047,64,0
12277,2669.000000,pitchwheel,45,2047,64,0
12278,2669.000000,note_off,45,2047,64,160
12279,2669.333333,note_on,44,0,64,0
12280,2669.333333,note_off,44,0,64,320
12281,2670.000000,note_on,40,1638,64,0
12282,2670.000000,pitchwheel,40,1638,64,0
12283,2670.000000,note_off,40,1638,64,320
12284,2670.666666,note_on,46,0,64,0
12285,2670.666666,note_off,46,0,64,160
12286,2671.000000,note_on,48,2047,64,0
12287,2671.000000,pitchwheel,48,2047,64,0
12288,2671.000000,note_off,48,2047,64,480
12289,2672.000000,note_on,44,0,64,0
12290,2672.000000,note_off,44,0,64,480
12291,2673.000000,note_on,38,2457,64,0
12292,2673.000000,pitchwheel,38,2457,64,0
12293,2673.000000,note_off,38,2457,64,160
12294,2673.333333,note_on,41,0,64,0
12295,2673.333333,note_off,41,0,64,320
12296,2674.000000,note_on,45,0,64,0
12297,2674.000000,note_off,45,0,64,320
12298,2674.666666,note_on,46,1638,64,0
12299,2674.666666,pitchwheel,46,1638,64,0
12300,2674.666666,note_off,46,1638,64,160
12301,2675.000000,note_on,47,3276,64,0
12302,2675.000000,pitchwheel,47,3276,64,0
12303,2675.000000,note_off,47,3276,64,160
12304,2675.333333,note_on,48,2047,64,0
12305,2675.333333,pitchwheel,48,2047,64,0
12306,2675.333333,note_off,48,2047,64,320
12307,2676.000000,note_on,48,819,64,0
12308,2676.000000,pitchwheel,48,819,64,0
12309,2676.000000,note_off,48,819,64,320
12310,2676.666666,note_on,45,1638,64,0
12311,2676.666666,pitchwheel,45,1638,64,0
12312,2676.666666,note_off,45,1638,64,160
12313,2677.000000,note_on,47,3685,64,0
12314,2677.000000,pitchwheel,47,3685,64,0
12315,2677.000000,note_off,47,3685,64,160
12316,2677.333333,note_on,44,0,64,0
12317,2677.333333,note_off,44,0,64,320
12318,2678.000000,note_on,45,0,64,0
12319,2678.000000,note_off,45,0,64,480
12320,2679.333333,note_on,45,1638,64,0
12321,2679.333333,pitchwheel,45,1638,64,0
12322,2679.333333,note_off,45,1638,64,320
12323,2680.000000,note_on,44,0,64,0
12324,2680.000000,note_off,44,0,64,480
12325,2681.000000,note_on,38,2457,64,0
12326,2681.000000,pitchwheel,38,2457,64,0
12327,2681.000000,note_off,38,2457,64,160
12328,2681.333333,note_on,43,0,64,0
12329,2681.333333,note_off,43,0,64,320
12330,2682.000000,note_on,46,409,64,0
12331,2682.000000,pitchwheel,46,409,64,0
12332,2682.000000,note_off,46,409,64,480
12333,2683.000000,note_on,47,3276,64,0
12334,2683.000000,pitchwheel,47,3276,64,0
12335,2683.000000,note_off,47,3276,64,160
12336,2683.333333,note_on,47,2047,64,0
12337,2683.333333,pitchwheel,47,2047,64,0
12338,2683.333333,note_off,47,2047,64,320
12339,2684.000000,note_on,53,1228,64,0
12340,2684.000000,pitchwheel,53,1228,64,0
12341,2684.000000,note_off,53,1228,64,320
12342,2684.666666,note_on,55,0,64,0
12343,2684.666666,note_off,55,0,64,160
12344,2685.000000,note_on,57,0,64,0
12345,2685.000000,note_off,57,0,64,160
12346,2685.333333,note_on,53,0,64,0
12347,2685.333333,note_off,53,0,64,320
12348,2686.000000,note_on,55,2866,64,0
12349,2686.000000,pitchwheel,55,2866,64,0
12350,2686.000000,note_off,55,2866,64,320
12351,2686.666666,note_on,58,0,64,0
12352,2686.666666,note_off,58,0,64,320
12353,2687.333333,note_on,48,2047,64,0
12354,2687.333333,pitchwheel,48,2047,64,0
12355,2687.333333,note_off,48,2047,64,320
12356,2688.000000,note_on,59,2457,64,0
12357,2688.000000,pitchwheel,59,2457,64,0
12358,2688.000000,note_off,59,2457,64,320
12359,2688.666666,note_on,50,2457,64,0
12360,2688.666666,pitchwheel,50,2457,64,0
12361,2688.666666,note_off,50,2457,64,320
12362,2689.333333,note_on,45,0,64,0
12363,2689.333333,note_off,45,0,64,320
12364,2690.000000,note_on,40,2457,64,0
12365,2690.000000,pitchwheel,40,2457,64,0
12366,2690.000000,note_off,40,2457,64,320
12367,2690.666666,note_on,41,2457,64,0
12368,2690.666666,pitchwheel,41,2457,64,0
12369,2690.666666,note_off,41,2457,64,160
12370,2691.000000,note_on,45,1638,64,0
12371,2691.000000,pitchwheel,45,1638,64,0
12372,2691.000000,note_off,45,1638,64,160
12373,2691.333333,note_on,41,1228,64,0
12374,2691.333333,pitchwheel,41,1228,64,0
12375,2691.333333,note_off,41,1228,64,320
12376,2692.000000,note_on,41,0,64,0
12377,2692.000000,note_off,41,0,64,480
12378,2693.000000,note_on,45,2047,64,0
12379,2693.000000,pitchwheel,45,2047,64,0
12380,2693.000000,note_off,45,2047,64,160
12381,2693.333333,note_on,41,0,64,0
12382,2693.333333,note_off,41,0,64,320
12383,2694.000000,note_on,38,2457,64,0
12384,2694.000000,pitchwheel,38,2457,64,0
12385,2694.000000,note_off,38,2457,64,480
12386,2695.000000,note_on,38,819,64,0
12387,2695.000000,pitchwheel,38,819,64,0
12388,2695.000000,note_off,38,819,64,160
12389,2695.333333,note_on,45,1638,64,0
12390,2695.333333,pitchwheel,45,1638,64,0
12391,2695.333333,note_off,45,1638,64,320
12392,2696.000000,note_on,47,2457,64,0
12393,2696.000000,pitchwheel,47,2457,64,0
12394,2696.000000,note_off,47,2457,64,480
12395,2697.000000,note_on,45,0,64,0
12396,2697.000000,note_off,45,0,64,160
12397,2697.333333,note_on,46,0,64,0
12398,2697.333333,note_off,46,0,64,320
12399,2698.000000,note_on,41,0,64,0
12400,2698.000000,note_off,41,0,64,320
12401,2698.666666,note_on,46,1638,64,0
12402,2698.666666,pitchwheel,46,1638,64,0
12403,2698.666666,note_off,46,1638,64,160
12404,2699.000000,note_on,43,0,64,0
12405,2699.000000,note_off,43,0,64,480
12406,2700.000000,note_on,44,0,64,0
12407,2700.000000,note_off,44,0,64,320
12408,2700.666666,note_on,47,3276,64,0
12409,2700.666666,pitchwheel,47,3276,64,0
12410,2700.666666,note_off,47,3276,64,320
12411,2701.333333,note_on,36,819,64,0
12412,2701.333333,pitchwheel,36,819,64,0
12413,2701.333333,note_off,36,819,64,320
12414,2702.000000,note_on,41,0,64,0
12415,2702.000000,note_off,41,0,64,320
12416,2702.666666,note_on,41,1228,64,0
12417,2702.666666,pitchwheel,41,1228,64,0
12418,2702.666666,note_off,41,1228,64,160
12419,2703.000000,note_on,45,2047,64,0
12420,2703.000000,pitchwheel,45,2047,64,0
12421,2703.000000,note_off,45,2047,64,160
12422,2703.333333,note_on,47,3276,64,0
12423,2703.333333,pitchwheel,47,3276,64,0
12424,2703.333333,note_off,47,3276,64,320
12425,2704.000000,note_on,47,3685,64,0
12426,2704.000000,pitchwheel,47,3685,64,0
12427,2704.000000,note_off,47,3685,64,320
12428,2704.666666,note_on,45,0,64,0
12429,2704.666666,note_off,45,0,64,160
12430,2705.000000,note_on,40,0,64,0
12431,2705.000000,note_off,40,0,64,160
12432,2705.333333,note_on,36,2047,64,0
12433,2705.333333,pitchwheel,36,2047,64,0
12434,2705.333333,note_off,36,2047,64,320
12435,2706.000000,note_on,38,819,64,0
12436,2706.000000,pitchwheel,38,819,64,0
12437,2706.000000,note_off,38,819,64,320
12438,2706.666666,note_on,36,3276,64,0
12439,2706.666666,pitchwheel,36,3276,64,0
12440,2706.666666,note_off,36,3276,64,160
12441,2707.000000,note_on,40,2457,64,0
12442,2707.000000,pitchwheel,40,2457,64,0
12443,2707.000000,note_off,40,2457,64,480
12444,2708.000000,note_on,46,1638,64,0
12445,2708.000000,pitchwheel,46,1638,64,0
12446,2708.000000,note_off,46,1638,64,320
12447,2708.666666,note_on,45,2047,64,0
12448,2708.666666,pitchwheel,45,2047,64,0
12449,2708.666666,note_off,45,2047,64,160
12450,2709.000000,note_on,50,1228,64,0
12451,2709.000000,pitchwheel,50,1228,64,0
12452,2709.000000,note_off,50,1228,64,480
12453,2710.000000,note_on,48,2047,64,0
12454,2710.000000,pitchwheel,48,2047,64,0
12455,2710.000000,note_off,48,2047,64,320
12456,2710.666666,note_on,50,0,64,0
12457,2710.666666,note_off,50,0,64,160
12458,2711.000000,note_on,55,409,64,0
12459,2711.000000,pitchwheel,55,409,64,0
12460,2711.000000,note_off,55,409,64,160
12461,2711.333333,note_on,52,2457,64,0
12462,2711.333333,pitchwheel,52,2457,64,0
12463,2711.333333,note_off,52,2457,64,320
12464,2712.000000,note_on,58,1638,64,0
12465,2712.000000,pitchwheel,58,1638,64,0
12466,2712.000000,note_off,58,1638,64,320
12467,2712.666666,note_on,57,3276,64,0
12468,2712.666666,pitchwheel,57,3276,64,0
12469,2712.666666,note_off,57,3276,64,160
12470,2713.000000,note_on,53,0,64,0
12471,2713.000000,note_off,53,0,64,480
12472,2714.000000,note_on,55,409,64,0
12473,2714.000000,pitchwheel,55,409,64,0
12474,2714.000000,note_off,55,409,64,320
12475,2714.666666,note_on,50,3685,64,0
12476,2714.666666,pitchwheel,50,3685,64,0
12477,2714.666666,note_off,50,3685,64,160
12478,2715.000000,note_on,47,2457,64,0
12479,2715.000000,pitchwheel,47,2457,64,0
12480,2715.000000,note_off,47,2457,64,160
12481,2715.333333,note_on,53,0,64,0
12482,2715.333333,note_off,53,0,64,320
12483,2716.000000,note_on,58,409,64,0
12484,2716.000000,pitchwheel,58,409,64,0
12485,2716.000000,note_off,58,409,64,320
12486,2716.666666,note_on,55,0,64,0
12487,2716.666666,note_off,55,0,64,160
12488,2717.000000,note_on,52,2866,64,0
12489,2717.000000,pitchwheel,52,2866,64,0
12490,2717.000000,note_off,52,2866,64,160
12491,2717.333333,note_on,56,0,64,0
12492,2717.333333,note_off,56,0,64,320
12493,2718.000000,note_on,48,819,64,0
12494,2718.000000,pitchwheel,48,819,64,0
12495,2718.000000,note_off,48,819,64,320
12496,2718.666666,note_on,48,2047,64,0
12497,2718.666666,pitchwheel,48,2047,64,0
12498,2718.666666,note_off,48,2047,64,320
12499,2720.000000,note_on,48,3276,64,0
12500,2720.000000,pitchwheel,48,3276,64,0
12501,2720.000000,note_off,48,3276,64,320
12502,2720.666666,note_on,52,1638,64,0
12503,2720.666666,pitchwheel,52,1638,64,0
12504,2720.666666,note_off,52,1638,64,320
12505,2721.333333,note_on,53,0,64,0
12506,2721.333333,note_off,53,0,64,640
12507,2722.666666,note_on,51,819,64,0
12508,2722.666666,pitchwheel,51,819,64,0
12509,2722.666666,note_off,51,819,64,160
12510,2723.000000,note_on,59,3276,64,0
12511,2723.000000,pitchwheel,59,3276,64,0
12512,2723.000000,note_off,59,3276,64,160
12513,2723.333333,note_on,57,0,64,0
12514,2723.333333,note_off,57,0,64,320
12515,2724.000000,note_on,58,0,64,0
12516,2724.000000,note_off,58,0,64,480
12517,2725.000000,note_on,52,0,64,0
12518,2725.000000,note_off,52,0,64,160
12519,2725.333333,note_on,57,2047,64,0
12520,2725.333333,pitchwheel,57,2047,64,0
12521,2725.333333,note_off,57,2047,64,320
12522,2726.000000,note_on,58,0,64,0
12523,2726.000000,note_off,58,0,64,320
12524,2726.666666,note_on,59,2047,64,0
12525,2726.666666,pitchwheel,59,2047,64,0
12526,2726.666666,note_off,59,2047,64,320
12527,2727.333333,note_on,55,0,64,0
12528,2727.333333,note_off,55,0,64,320
12529,2728.000000,note_on,58,0,64,0
12530,2728.000000,note_off,58,0,64,320
12531,2728.666666,note_on,57,3276,64,0
12532,2728.666666,pitchwheel,57,3276,64,0
12533,2728.666666,note_off,57,3276,64,320
12534,2729.333333,note_on,57,2047,64,0
12535,2729.333333,pitchwheel,57,2047,64,0
12536,2729.333333,note_off,57,2047,64,320
12537,2730.000000,note_on,50,819,64,0
12538,2730.000000,pitchwheel,50,819,64,0
12539,2730.000000,note_off,50,819,64,320
12540,2730.666666,note_on,55,1638,64,0
12541,2730.666666,pitchwheel,55,1638,64,0
12542,2730.666666,note_off,55,1638,64,160
12543,2731.000000,note_on,50,819,64,0
12544,2731.000000,pitchwheel,50,819,64,0
12545,2731.000000,note_off,50,819,64,160
12546,2731.333333,note_on,45,0,64,0
12547,2731.333333,note_off,45,0,64,320
12548,2732.000000,note_on,39,819,64,0
12549,2732.000000,pitchwheel,39,819,64,0
12550,2732.000000,note_off,39,819,64,320
12551,2732.666666,note_on,45,1638,64,0
12552,2732.666666,pitchwheel,45,1638,64,0
12553,2732.666666,note_off,45,1638,64,160
12554,2733.000000,note_on,40,2866,64,0
12555,2733.000000,pitchwheel,40,2866,64,0
12556,2733.000000,note_off,40,2866,64,160
12557,2733.333333,note_on,44,0,64,0
12558,2733.333333,note_off,44,0,64,320
12559,2734.000000,note_on,41,0,64,0
12560,2734.000000,note_off,41,0,64,320
12561,2734.666666,note_on,43,409,64,0
12562,2734.666666,pitchwheel,43,409,64,0
12563,2734.666666,note_off,43,409,64,160
12564,2735.000000,note_on,40,2457,64,0
12565,2735.000000,pitchwheel,40,2457,64,0
12566,2735.000000,note_off,40,2457,64,160
12567,2735.333333,note_on,45,2047,64,0
12568,2735.333333,pitchwheel,45,2047,64,0
12569,2735.333333,note_off,45,2047,64,320
12570,2736.000000,note_on,50,2457,64,0
12571,2736.000000,pitchwheel,50,2457,64,0
12572,2736.000000,note_off,50,2457,64,320
12573,2736.666666,note_on,56,2047,64,0
12574,2736.666666,pitchwheel,56,2047,64,0
12575,2736.666666,note_off,56,2047,64,160
12576,2737.000000,note_on,57,0,64,0
12577,2737.000000,note_off,57,0,64,160
12578,2737.333333,note_on,50,1228,64,0
12579,2737.333333,pitchwheel,50,1228,64,0
12580,2737.333333,note_off,50,1228,64,320
12581,2738.000000,note_on,59,3276,64,0
12582,2738.000000,pitchwheel,59,3276,64,0
12583,2738.000000,note_off,59,3276,64,320
12584,2738.666666,note_on,58,1638,64,0
12585,2738.666666,pitchwheel,58,1638,64,0
12586,2738.666666,note_off,58,1638,64,160
12587,2739.000000,note_on,52,2457,64,0
12588,2739.000000,pitchwheel,52,2457,64,0
12589,2739.000000,note_off,52,2457,64,160
12590,2739.333333,note_on,53,0,64,0
12591,2739.333333,note_off,53,0,64,320
12592,2740.000000,note_on,57,1638,64,0
12593,2740.000000,pitchwheel,57,1638,64,0
12594,2740.000000,note_off,57,1638,64,320
12595,2740.666666,note_on,59,3685,64,0
12596,2740.666666,pitchwheel,59,3685,64,0
12597,2740.666666,note_off,59,3685,64,320
12598,2741.333333,note_on,57,2047,64,0
12599,2741.333333,pitchwheel,57,2047,64,0
12600,2741.333333,note_off,57,2047,64,320
12601,2742.000000,note_on,50,0,64,0
12602,2742.000000,note_off,50,0,64,320
12603,2742.666666,note_on,57,0,64,0
12604,2742.666666,note_off,57,0,64,160
12605,2743.000000,note_on,57,2047,64,0
12606,2743.000000,pitchwheel,57,2047,64,0
12607,2743.000000,note_off,57,2047,64,480
12608,2744.000000,note_on,55,1638,64,0
12609,2744.000000,pitchwheel,55,1638,64,0
12610,2744.000000,note_off,55,1638,64,320
12611,2744.666666,note_on,50,2457,64,0
12612,2744.666666,pitchwheel,50,2457,64,0
12613,2744.666666,note_off,50,2457,64,160
12614,2745.000000,note_on,56,2047,64,0
12615,2745.000000,pitchwheel,56,2047,64,0
12616,2745.000000,note_off,56,2047,64,160
12617,2745.333333,note_on,50,1228,64,0
12618,2745.333333,pitchwheel,50,1228,64,0
12619,2745.333333,note_off,50,1228,64,320
12620,2746.000000,note_on,53,0,64,0
12621,2746.000000,note_off,53,0,64,320
12622,2746.666666,note_on,50,819,64,0
12623,2746.666666,pitchwheel,50,819,64,0
12624,2746.666666,note_off,50,819,64,160
12625,2747.000000,note_on,55,0,64,0
12626,2747.000000,note_off,55,0,64,160
12627,2747.333333,note_on,53,0,64,0
12628,2747.333333,note_off,53,0,64,320
12629,2748.000000,note_on,56,0,64,0
12630,2748.000000,note_off,56,0,64,320
12631,2748.666666,note_on,59,3276,64,0
12632,2748.666666,pitchwheel,59,3276,64,0
12633,2748.666666,note_off,59,3276,64,160
12634,2749.000000,note_on,57,2047,64,0
12635,2749.000000,pitchwheel,57,2047,64,0
12636,2749.000000,note_off,57,2047,64,160
12637,2749.333333,note_on,48,3276,64,0
12638,2749.333333,pitchwheel,48,3276,64,0
12639,2749.333333,note_off,48,3276,64,320
12640,2750.000000,note_on,50,819,64,0
12641,2750.000000,pitchwheel,50,819,64,0
12642,2750.000000,note_off,50,819,64,320
12643,2750.666666,note_on,58,0,64,0
12644,2750.666666,note_off,58,0,64,160
12645,2751.000000,note_on,59,3685,64,0
12646,2751.000000,pitchwheel,59,3685,64,0
12647,2751.000000,note_off,59,3685,64,480
12648,2752.000000,note_on,48,3276,64,0
12649,2752.000000,pitchwheel,48,3276,64,0
12650,2752.000000,note_off,48,3276,64,320
12651,2753.000000,note_on,50,0,64,0
12652,2753.000000,note_off,50,0,64,160
12653,2753.333333,note_on,56,2047,64,0
12654,2753.333333,pitchwheel,56,2047,64,0
12655,2753.333333,note_off,56,2047,64,320
12656,2754.000000,note_on,57,0,64,0
12657,2754.000000,note_off,57,0,64,320
12658,2754.666666,note_on,50,2457,64,0
12659,2754.666666,pitchwheel,50,2457,64,0
12660,2754.666666,note_off,50,2457,64,160
12661,2755.000000,note_on,57,1638,64,0
12662,2755.000000,pitchwheel,57,1638,64,0
12663,2755.000000,note_off,57,1638,64,160
12664,2755.333333,note_on,57,3276,64,0
12665,2755.333333,pitchwheel,57,3276,64,0
12666,2755.333333,note_off,57,3276,64,320
12667,2756.000000,note_on,58,409,64,0
12668,2756.000000,pitchwheel,58,409,64,0
12669,2756.000000,note_off,58,409,64,320
12670,2756.666666,note_on,52,2457,64,0
12671,2756.666666,pitchwheel,52,2457,64,0
12672,2756.666666,note_off,52,2457,64,160
12673,2757.000000,note_on,47,3685,64,0
12674,2757.000000,pitchwheel,47,3685,64,0
12675,2757.000000,note_off,47,3685,64,160
12676,2757.333333,note_on,48,2047,64,0
12677,2757.333333,pitchwheel,48,2047,64,0
12678,2757.333333,note_off,48,2047,64,320
12679,2758.000000,note_on,45,0,64,0
12680,2758.000000,note_off,45,0,64,320
12681,2758.666666,note_on,43,409,64,0
12682,2758.666666,pitchwheel,43,409,64,0
12683,2758.666666,note_off,43,409,64,320
12684,2759.333333,note_on,43,0,64,0
12685,2759.333333,note_off,43,0,64,320
12686,2760.000000,note_on,48,3276,64,0
12687,2760.000000,pitchwheel,48,3276,64,0
12688,2760.000000,note_off,48,3276,64,480
12689,2761.000000,note_on,53,0,64,0
12690,2761.000000,note_off,53,0,64,160
12691,2761.333333,note_on,48,2047,64,0
12692,2761.333333,pitchwheel,48,2047,64,0
12693,2761.333333,note_off,48,2047,64,320
12694,2762.000000,note_on,47,2457,64,0
12695,2762.000000,pitchwheel,47,2457,64,0
12696,2762.000000,note_off,47,2457,64,320
12697,2762.666666,note_on,48,819,64,0
12698,2762.666666,pitchwheel,48,819,64,0
12699,2762.666666,note_off,48,819,64,160
12700,2763.000000,note_on,45,1638,64,0
12701,2763.000000,pitchwheel,45,1638,64,0
12702,2763.000000,note_off,45,1638,64,160
12703,2763.333333,note_on,50,1228,64,0
12704,2763.333333,pitchwheel,50,1228,64,0
12705,2763.333333,note_off,50,1228,64,320
12706,2764.000000,note_on,50,2457,64,0
12707,2764.000000,pitchwheel,50,2457,64,0
12708,2764.000000,note_off,50,2457,64,320
12709,2764.666666,note_on,52,2457,64,0
12710,2764.666666,pitchwheel,52,2457,64,0
12711,2764.666666,note_off,52,2457,64,160
12712,2765.000000,note_on,50,2457,64,0
12713,2765.000000,pitchwheel,50,2457,64,0
12714,2765.000000,note_off,50,2457,64,160
12715,2765.333333,note_on,56,0,64,0
12716,2765.333333,note_off,56,0,64,320
12717,2766.000000,note_on,58,409,64,0
12718,2766.000000,pitchwheel,58,409,64,0
12719,2766.000000,note_off,58,409,64,320
12720,2766.666666,note_on,52,2457,64,0
12721,2766.666666,pitchwheel,52,2457,64,0
12722,2766.666666,note_off,52,2457,64,320
12723,2767.333333,note_on,50,0,64,0
12724,2767.333333,note_off,50,0,64,320
12725,2768.000000,note_on,52,2866,64,0
12726,2768.000000,pitchwheel,52,2866,64,0
12727,2768.000000,note_off,52,2866,64,320
12728,2768.666666,note_on,50,2457,64,0
12729,2768.666666,pitchwheel,50,2457,64,0
12730,2768.666666,note_off,50,2457,64,320
12731,2769.333333,note_on,45,2047,64,0
12732,2769.333333,pitchwheel,45,2047,64,0
12733,2769.333333,note_off,45,2047,64,320
12734,2770.000000,note_on,47,3685,64,0
12735,2770.000000,pitchwheel,47,3685,64,0
12736,2770.000000,note_off,47,3685,64,320
12737,2770.666666,note_on,46,1638,64,0
12738,2770.666666,pitchwheel,46,1638,64,0
12739,2770.666666,note_off,46,1638,64,160
12740,2771.000000,note_on,47,3276,64,0
12741,2771.000000,pitchwheel,47,3276,64,0
12742,2771.000000,note_off,47,3276,64,160
12743,2771.333333,note_on,53,0,64,0
12744,2771.333333,note_off,53,0,64,320
12745,2772.000000,note_on,53,1228,64,0
12746,2772.000000,pitchwheel,53,1228,64,0
12747,2772.000000,note_off,53,1228,64,480
12748,2773.000000,note_on,53,0,64,0
12749,2773.000000,note_off,53,0,64,160
12750,2773.333333,note_on,56,0,64,0
12751,2773.333333,note_off,56,0,64,320
12752,2774.000000,note_on,57,1638,64,0
12753,2774.000000,pitchwheel,57,1638,64,0
12754,2774.000000,note_off,57,1638,64,480
12755,2775.000000,note_on,55,0,64,0
12756,2775.000000,note_off,55,0,64,480
12757,2776.000000,note_on,56,0,64,0
12758,2776.000000,note_off,56,0,64,320
12759,2776.666666,note_on,50,0,64,0
12760,2776.666666,note_off,50,0,64,160
12761,2777.000000,note_on,45,0,64,0
12762,2777.000000,note_off,45,0,64,160
12763,2777.333333,note_on,46,0,64,0
12764,2777.333333,note_off,46,0,64,320
12765,2778.000000,note_on,48,819,64,0
12766,2778.000000,pitchwheel,48,819,64,0
12767,2778.000000,note_off,48,819,64,320
12768,2778.666666,note_on,43,409,64,0
12769,2778.666666,pitchwheel,43,409,64,0
12770,2778.666666,note_off,43,409,64,160
12771,2779.000000,note_on,38,819,64,0
12772,2779.000000,pitchwheel,38,819,64,0
12773,2779.000000,note_off,38,819,64,480
12774,2780.000000,note_on,39,819,64,0
12775,2780.000000,pitchwheel,39,819,64,0
12776,2780.000000,note_off,39,819,64,320
12777,2780.666666,note_on,45,1638,64,0
12778,2780.666666,pitchwheel,45,1638,64,0
12779,2780.666666,note_off,45,1638,64,320
12780,2781.333333,note_on,46,0,64,0
12781,2781.333333,note_off,46,0,64,320
12782,2782.000000,note_on,45,3276,64,0
12783,2782.000000,pitchwheel,45,3276,64,0
12784,2782.000000,note_off,45,3276,64,320
12785,2782.666666,note_on,46,409,64,0
12786,2782.666666,pitchwheel,46,409,64,0
12787,2782.666666,note_off,46,409,64,160
12788,2783.000000,note_on,47,2457,64,0
12789,2783.000000,pitchwheel,47,2457,64,0
12790,2783.000000,note_off,47,2457,64,160
12791,2783.333333,note_on,43,0,64,0
12792,2783.333333,note_off,43,0,64,320
12793,2784.000000,note_on,43,409,64,0
12794,2784.000000,pitchwheel,43,409,64,0
12795,2784.000000,note_off,43,409,64,320
12796,2784.666666,note_on,45,0,64,0
12797,2784.666666,note_off,45,0,64,160
12798,2785.000000,note_on,43,0,64,0
12799,2785.000000,note_off,43,0,64,480
12800,2786.000000,note_on,38,2457,64,0
12801,2786.000000,pitchwheel,38,2457,64,0
12802,2786.000000,note_off,38,2457,64,320
12803,2786.666666,note_on,46,1638,64,0
12804,2786.666666,pitchwheel,46,1638,64,0
12805,2786.666666,note_off,46,1638,64,160
12806,2787.000000,note_on,40,2457,64,0
12807,2787.000000,pitchwheel,40,2457,64,0
12808,2787.000000,note_off,40,2457,64,480
12809,2788.000000,note_on,36,3276,64,0
12810,2788.000000,pitchwheel,36,3276,64,0
12811,2788.000000,note_off,36,3276,64,320
12812,2788.666666,note_on,47,2457,64,0
12813,2788.666666,pitchwheel,47,2457,64,0
12814,2788.666666,note_off,47,2457,64,160
12815,2789.000000,note_on,36,819,64,0
12816,2789.000000,pitchwheel,36,819,64,0
12817,2789.000000,note_off,36,819,64,160
12818,2789.333333,note_on,47,3276,64,0
12819,2789.333333,pitchwheel,47,3276,64,0
12820,2789.333333,note_off,47,3276,64,640
12821,2790.666666,note_on,38,1228,64,0
12822,2790.666666,pitchwheel,38,1228,64,0
12823,2790.666666,note_off,38,1228,64,160
12824,2791.000000,note_on,38,0,64,0
12825,2791.000000,note_off,38,0,64,160
12826,2791.333333,note_on,38,819,64,0
12827,2791.333333,pitchwheel,38,819,64,0
12828,2791.333333,note_off,38,819,64,320
12829,2792.000000,note_on,38,2457,64,0
12830,2792.000000,pitchwheel,38,2457,64,0
12831,2792.000000,note_off,38,2457,64,640
12832,2793.333333,note_on,43,0,64,0
12833,2793.333333,note_off,43,0,64,320
12834,2794.000000,note_on,45,3276,64,0
12835,2794.000000,pitchwheel,45,3276,64,0
12836,2794.000000,note_off,45,3276,64,320
12837,2794.666666,note_on,48,3276,64,0
12838,2794.666666,pitchwheel,48,3276,64,0
12839,2794.666666,note_off,48,3276,64,160
12840,2795.000000,note_on,43,0,64,0
12841,2795.000000,note_off,43,0,64,160
12842,2795.333333,note_on,38,2457,64,0
12843,2795.333333,pitchwheel,38,2457,64,0
12844,2795.333333,note_off,38,2457,64,320
12845,2796.000000,note_on,45,0,64,0
12846,2796.000000,note_off,45,0,64,320
12847,2796.666666,note_on,40,2457,64,0
12848,2796.666666,pitchwheel,40,2457,64,0
12849,2796.666666,note_off,40,2457,64,160
12850,2797.000000,note_on,45,3276,64,0
12851,2797.000000,pitchwheel,45,3276,64,0
12852,2797.000000,note_off,45,3276,64,160
12853,2797.333333,note_on,46,1638,64,0
12854,2797.333333,pitchwheel,46,1638,64,0
12855,2797.333333,note_off,46,1638,64,320
12856,2798.000000,note_on,45,2047,64,0
12857,2798.000000,pitchwheel,45,2047,64,0
12858,2798.000000,note_off,45,2047,64,320
12859,2798.666666,note_on,41,1228,64,0
12860,2798.666666,pitchwheel,41,1228,64,0
12861,2798.666666,note_off,41,1228,64,320
12862,2800.000000,note_on,40,0,64,0
12863,2800.000000,note_off,40,0,64,320
12864,2800.666666,note_on,36,2047,64,0
12865,2800.666666,pitchwheel,36,2047,64,0
12866,2800.666666,note_off,36,2047,64,160
12867,2801.000000,note_on,41,0,64,0
12868,2801.000000,note_off,41,0,64,480
12869,2802.000000,note_on,43,0,64,0
12870,2802.000000,note_off,43,0,64,320
12871,2802.666666,note_on,44,0,64,0
12872,2802.666666,note_off,44,0,64,160
12873,2803.000000,note_on,45,1638,64,0
12874,2803.000000,pitchwheel,45,1638,64,0
12875,2803.000000,note_off,45,1638,64,160
12876,2803.333333,note_on,41,0,64,0
12877,2803.333333,note_off,41,0,64,320
12878,2804.000000,note_on,44,0,64,0
12879,2804.000000,note_off,44,0,64,480
12880,2805.000000,note_on,41,0,64,0
12881,2805.000000,note_off,41,0,64,160
12882,2805.333333,note_on,46,0,64,0
12883,2805.333333,note_off,46,0,64,640
12884,2806.666666,note_on,37,0,64,0
12885,2806.666666,note_off,37,0,64,320
12886,2807.333333,note_on,45,1638,64,0
12887,2807.333333,pitchwheel,45,1638,64,0
12888,2807.333333,note_off,45,1638,64,320
12889,2808.000000,note_on,46,1638,64,0
12890,2808.000000,pitchwheel,46,1638,64,0
12891,2808.000000,note_off,46,1638,64,320
12892,2808.666666,note_on,45,2047,64,0
12893,2808.666666,pitchwheel,45,2047,64,0
12894,2808.666666,note_off,45,2047,64,320
12895,2809.333333,note_on,45,3276,64,0
12896,2809.333333,pitchwheel,45,3276,64,0
12897,2809.333333,note_off,45,3276,64,320
12898,2810.000000,note_on,45,1638,64,0
12899,2810.000000,pitchwheel,45,1638,64,0
12900,2810.000000,note_off,45,1638,64,320
12901,2810.666666,note_on,45,2047,64,0
12902,2810.666666,pitchwheel,45,2047,64,0
12903,2810.666666,note_off,45,2047,64,160
12904,2811.000000,note_on,47,3276,64,0
12905,2811.000000,pitchwheel,47,3276,64,0
12906,2811.000000,note_off,47,3276,64,160
12907,2811.333333,note_on,45,0,64,0
12908,2811.333333,note_off,45,0,64,320
12909,2812.000000,note_on,46,1638,64,0
12910,2812.000000,pitchwheel,46,1638,64,0
12911,2812.000000,note_off,46,1638,64,320
12912,2812.666666,note_on,47,3276,64,0
12913,2812.666666,pitchwheel,47,3276,64,0
12914,2812.666666,note_off,47,3276,64,160
12915,2813.000000,note_on,41,0,64,0
12916,2813.000000,note_off,41,0,64,160
12917,2813.333333,note_on,36,3276,64,0
12918,2813.333333,pitchwheel,36,3276,64,0
12919,2813.333333,note_off,36,3276,64,320
12920,2814.000000,note_on,40,2866,64,0
12921,2814.000000,pitchwheel,40,2866,64,0
12922,2814.000000,note_off,40,2866,64,320
12923,2814.666666,note_on,36,819,64,0
12924,2814.666666,pitchwheel,36,819,64,0
12925,2814.666666,note_off,36,819,64,160
12926,2815.000000,note_on,38,819,64,0
12927,2815.000000,pitchwheel,38,819,64,0
12928,2815.000000,note_off,38,819,64,160
12929,2815.333333,note_on,43,1638,64,0
12930,2815.333333,pitchwheel,43,1638,64,0
12931,2815.333333,note_off,43,1638,64,320
12932,2816.000000,note_on,45,2047,64,0
12933,2816.000000,pitchwheel,45,2047,64,0
12934,2816.000000,note_off,45,2047,64,320
12935,2816.666666,note_on,47,2047,64,0
12936,2816.666666,pitchwheel,47,2047,64,0
12937,2816.666666,note_off,47,2047,64,160
12938,2817.000000,note_on,45,0,64,0
12939,2817.000000,note_off,45,0,64,160
12940,2817.333333,note_on,50,2457,64,0
12941,2817.333333,pitchwheel,50,2457,64,0
12942,2817.333333,note_off,50,2457,64,320
12943,2818.000000,note_on,50,819,64,0
12944,2818.000000,pitchwheel,50,819,64,0
12945,2818.000000,note_off,50,819,64,320
12946,2818.666666,note_on,51,819,64,0
12947,2818.666666,pitchwheel,51,819,64,0
12948,2818.666666,note_off,51,819,64,160
12949,2819.000000,note_on,50,819,64,0
12950,2819.000000,pitchwheel,50,819,64,0
12951,2819.000000,note_off,50,819,64,160
12952,2819.333333,note_on,50,1228,64,0
12953,2819.333333,pitchwheel,50,1228,64,0
12954,2819.333333,note_off,50,1228,64,320
12955,2820.000000,note_on,48,3276,64,0
12956,2820.000000,pitchwheel,48,3276,64,0
12957,2820.000000,note_off,48,3276,64,320
12958,2820.666666,note_on,53,0,64,0
12959,2820.666666,note_off,53,0,64,320
12960,2821.333333,note_on,48,3276,64,0
12961,2821.333333,pitchwheel,48,3276,64,0
12962,2821.333333,note_off,48,3276,64,320
12963,2822.000000,note_on,50,1228,64,0
12964,2822.000000,pitchwheel,50,1228,64,0
12965,2822.000000,note_off,50,1228,64,320
12966,2822.666666,note_on,45,2047,64,0
12967,2822.666666,pitchwheel,45,2047,64,0
12968,2822.666666,note_off,45,2047,64,160
12969,2823.000000,note_on,47,2457,64,0
12970,2823.000000,pitchwheel,47,2457,64,0
12971,2823.000000,note_off,47,2457,64,160
12972,2823.333333,note_on,52,2457,64,0
12973,2823.333333,pitchwheel,52,2457,64,0
12974,2823.333333,note_off,52,2457,64,320
12975,2824.000000,note_on,53,2457,64,0
12976,2824.000000,pitchwheel,53,2457,64,0
12977,2824.000000,note_off,53,2457,64,320
12978,2824.666666,note_on,52,2866,64,0
12979,2824.666666,pitchwheel,52,2866,64,0
12980,2824.666666,note_off,52,2866,64,160
12981,2825.000000,note_on,49,0,64,0
12982,2825.000000,note_off,49,0,64,160
12983,2825.333333,note_on,53,0,64,0
12984,2825.333333,note_off,53,0,64,320
12985,2826.000000,note_on,48,819,64,0
12986,2826.000000,pitchwheel,48,819,64,0
12987,2826.000000,note_off,48,819,64,320
12988,2826.666666,note_on,52,0,64,0
12989,2826.666666,note_off,52,0,64,160
12990,2827.000000,note_on,52,2457,64,0
12991,2827.000000,pitchwheel,52,2457,64,0
12992,2827.000000,note_off,52,2457,64,160
12993,2827.333333,note_on,53,0,64,0
12994,2827.333333,note_off,53,0,64,320
12995,2828.000000,note_on,51,819,64,0
12996,2828.000000,pitchwheel,51,819,64,0
12997,2828.000000,note_off,51,819,64,320
12998,2828.666666,note_on,45,1638,64,0
12999,2828.666666,pitchwheel,45,1638,64,0
13000,2828.666666,note_off,45,1638,64,160
13001,2829.000000,note_on,48,819,64,0
13002,2829.000000,pitchwheel,48,819,64,0
13003,2829.000000,note_off,48,819,64,160
13004,2829.333333,note_on,53,2457,64,0
13005,2829.333333,pitchwheel,53,2457,64,0
13006,2829.333333,note_off,53,2457,64,320
13007,2830.000000,note_on,47,3276,64,0
13008,2830.000000,pitchwheel,47,3276,64,0
13009,2830.000000,note_off,47,3276,64,320
13010,2830.666666,note_on,52,2457,64,0
13011,2830.666666,pitchwheel,52,2457,64,0
13012,2830.666666,note_off,52,2457,64,160
13013,2831.000000,note_on,50,0,64,0
13014,2831.000000,note_off,50,0,64,480
13015,2832.000000,note_on,50,819,64,0
13016,2832.000000,pitchwheel,50,819,64,0
13017,2832.000000,note_off,50,819,64,480
13018,2833.000000,note_on,50,2457,64,0
13019,2833.000000,pitchwheel,50,2457,64,0
13020,2833.000000,note_off,50,2457,64,160
13021,2833.333333,note_on,49,0,64,0
13022,2833.333333,note_off,49,0,64,320
13023,2834.000000,note_on,43,0,64,0
13024,2834.000000,note_off,43,0,64,320
13025,2834.666666,note_on,46,0,64,0
13026,2834.666666,note_off,46,0,64,160
13027,2835.000000,note_on,43,0,64,0
13028,2835.000000,note_off,43,0,64,160
13029,2835.333333,note_on,40,2866,64,0
13030,2835.333333,pitchwheel,40,2866,64,0
13031,2835.333333,note_off,40,2866,64,320
13032,2836.000000,note_on,41,0,64,0
13033,2836.000000,note_off,41,0,64,320
13034,2836.666666,note_on,47,3276,64,0
13035,2836.666666,pitchwheel,47,3276,64,0
13036,2836.666666,note_off,47,3276,64,160
13037,2837.000000,note_on,45,3276,64,0
13038,2837.000000,pitchwheel,45,3276,64,0
13039,2837.000000,note_off,45,3276,64,160
13040,2837.333333,note_on,47,3685,64,0
13041,2837.333333,pitchwheel,47,3685,64,0
13042,2837.333333,note_off,47,3685,64,320
13043,2838.000000,note_on,45,2047,64,0
13044,2838.000000,pitchwheel,45,2047,64,0
13045,2838.000000,note_off,45,2047,64,480
13046,2839.333333,note_on,40,2457,64,0
13047,2839.333333,pitchwheel,40,2457,64,0
13048,2839.333333,note_off,40,2457,64,320
13049,2840.000000,note_on,40,2866,64,0
13050,2840.000000,pitchwheel,40,2866,64,0
13051,2840.000000,note_off,40,2866,64,480
13052,2841.000000,note_on,36,2047,64,0
13053,2841.000000,pitchwheel,36,2047,64,0
13054,2841.000000,note_off,36,2047,64,160
13055,2841.333333,note_on,38,819,64,0
13056,2841.333333,pitchwheel,38,819,64,0
13057,2841.333333,note_off,38,819,64,320
13058,2842.000000,note_on,46,409,64,0
13059,2842.000000,pitchwheel,46,409,64,0
13060,2842.000000,note_off,46,409,64,320
13061,2842.666666,note_on,43,2866,64,0
13062,2842.666666,pitchwheel,43,2866,64,0
13063,2842.666666,note_off,43,2866,64,160
13064,2843.000000,note_on,38,819,64,0
13065,2843.000000,pitchwheel,38,819,64,0
13066,2843.000000,note_off,38,819,64,160
13067,2843.333333,note_on,40,0,64,0
13068,2843.333333,note_off,40,0,64,320
13069,2844.000000,note_on,41,2457,64,0
13070,2844.000000,pitchwheel,41,2457,64,0
13071,2844.000000,note_off,41,2457,64,320
13072,2844.666666,note_on,38,819,64,0
13073,2844.666666,pitchwheel,38,819,64,0
13074,2844.666666,note_off,38,819,64,320
13075,2845.333333,note_on,36,2047,64,0
13076,2845.333333,pitchwheel,36,2047,64,0
13077,2845.333333,note_off,36,2047,64,320
13078,2846.000000,note_on,45,2047,64,0
13079,2846.000000,pitchwheel,45,2047,64,0
13080,2846.000000,note_off,45,2047,64,320
13081,2846.666666,note_on,47,3685,64,0
13082,2846.666666,pitchwheel,47,3685,64,0
13083,2846.666666,note_off,47,3685,64,320
13084,2847.333333,note_on,36,2047,64,0
13085,2847.333333,pitchwheel,36,2047,64,0
13086,2847.333333,note_off,36,2047,64,320
13087,2848.000000,note_on,46,1638,64,0
13088,2848.000000,pitchwheel,46,1638,64,0
13089,2848.000000,note_off,46,1638,64,320
13090,2848.666666,note_on,38,2457,64,0
13091,2848.666666,pitchwheel,38,2457,64,0
13092,2848.666666,note_off,38,2457,64,320
13093,2849.333333,note_on,45,0,64,0
13094,2849.333333,note_off,45,0,64,320
13095,2850.000000,note_on,47,2047,64,0
13096,2850.000000,pitchwheel,47,2047,64,0
13097,2850.000000,note_off,47,2047,64,320
13098,2850.666666,note_on,44,0,64,0
13099,2850.666666,note_off,44,0,64,160
13100,2851.000000,note_on,40,2457,64,0
13101,2851.000000,pitchwheel,40,2457,64,0
13102,2851.000000,note_off,40,2457,64,160
13103,2851.333333,note_on,47,3685,64,0
13104,2851.333333,pitchwheel,47,3685,64,0
13105,2851.333333,note_off,47,3685,64,320
13106,2852.000000,note_on,47,3276,64,0
13107,2852.000000,pitchwheel,47,3276,64,0
13108,2852.000000,note_off,47,3276,64,480
13109,2853.000000,note_on,41,0,64,0
13110,2853.000000,note_off,41,0,64,160
13111,2853.333333,note_on,47,2047,64,0
13112,2853.333333,pitchwheel,47,2047,64,0
13113,2853.333333,note_off,47,2047,64,320
13114,2854.000000,note_on,41,1228,64,0
13115,2854.000000,pitchwheel,41,1228,64,0
13116,2854.000000,note_off,41,1228,64,480
13117,2855.000000,note_on,40,2457,64,0
13118,2855.000000,pitchwheel,40,2457,64,0
13119,2855.000000,note_off,40,2457,64,160
13120,2855.333333,note_on,47,3276,64,0
13121,2855.333333,pitchwheel,47,3276,64,0
13122,2855.333333,note_off,47,3276,64,320
13123,2856.000000,note_on,39,819,64,0
13124,2856.000000,pitchwheel,39,819,64,0
13125,2856.000000,note_off,39,819,64,320
13126,2856.666666,note_on,45,0,64,0
13127,2856.666666,note_off,45,0,64,320
13128,2857.333333,note_on,46,0,64,0
13129,2857.333333,note_off,46,0,64,320
13130,2858.000000,note_on,43,1638,64,0
13131,2858.000000,pitchwheel,43,1638,64,0
13132,2858.000000,note_off,43,1638,64,320
13133,2858.666666,note_on,47,2457,64,0
13134,2858.666666,pitchwheel,47,2457,64,0
13135,2858.666666,note_off,47,2457,64,160
13136,2859.000000,note_on,43,0,64,0
13137,2859.000000,note_off,43,0,64,480
13138,2860.000000,note_on,43,1638,64,0
13139,2860.000000,pitchwheel,43,1638,64,0
13140,2860.000000,note_off,43,1638,64,320
13141,2860.666666,note_on,45,1638,64,0
13142,2860.666666,pitchwheel,45,1638,64,0
13143,2860.666666,note_off,45,1638,64,320
13144,2861.333333,note_on,50,2457,64,0
13145,2861.333333,pitchwheel,50,2457,64,0
13146,2861.333333,note_off,50,2457,64,320
13147,2862.000000,note_on,45,2047,64,0
13148,2862.000000,pitchwheel,45,2047,64,0
13149,2862.000000,note_off,45,2047,64,320
13150,2862.666666,note_on,45,1638,64,0
13151,2862.666666,pitchwheel,45,1638,64,0
13152,2862.666666,note_off,45,1638,64,160
13153,2863.000000,note_on,43,1638,64,0
13154,2863.000000,pitchwheel,43,1638,64,0
13155,2863.000000,note_off,43,1638,64,160
13156,2863.333333,note_on,38,819,64,0
13157,2863.333333,pitchwheel,38,819,64,0
13158,2863.333333,note_off,38,819,64,320
13159,2864.000000,note_on,47,2457,64,0
13160,2864.000000,pitchwheel,47,2457,64,0
13161,2864.000000,note_off,47,2457,64,320
13162,2864.666666,note_on,45,0,64,0
13163,2864.666666,note_off,45,0,64,320
13164,2865.333333,note_on,41,0,64,0
13165,2865.333333,note_off,41,0,64,320
13166,2866.000000,note_on,43,0,64,0
13167,2866.000000,note_off,43,0,64,320
13168,2866.666666,note_on,44,0,64,0
13169,2866.666666,note_off,44,0,64,160
13170,2867.000000,note_on,45,1638,64,0
13171,2867.000000,pitchwheel,45,1638,64,0
13172,2867.000000,note_off,45,1638,64,480
13173,2868.000000,note_on,46,1638,64,0
13174,2868.000000,pitchwheel,46,1638,64,0
13175,2868.000000,note_off,46,1638,64,320
13176,2868.666666,note_on,45,2047,64,0
13177,2868.666666,pitchwheel,45,2047,64,0
13178,2868.666666,note_off,45,2047,64,160
13179,2869.000000,note_on,45,3276,64,0
13180,2869.000000,pitchwheel,45,3276,64,0
13181,2869.000000,note_off,45,3276,64,160
13182,2869.333333,note_on,44,0,64,0
13183,2869.333333,note_off,44,0,64,320
13184,2870.000000,note_on,40,0,64,0
13185,2870.000000,note_off,40,0,64,320
13186,2870.666666,note_on,38,3685,64,0
13187,2870.666666,pitchwheel,38,3685,64,0
13188,2870.666666,note_off,38,3685,64,160
13189,2871.000000,note_on,41,0,64,0
13190,2871.000000,note_off,41,0,64,160
13191,2871.333333,note_on,40,2457,64,0
13192,2871.333333,pitchwheel,40,2457,64,0
13193,2871.333333,note_off,40,2457,64,320
13194,2872.000000,note_on,46,1638,64,0
13195,2872.000000,pitchwheel,46,1638,64,0
13196,2872.000000,note_off,46,1638,64,320
13197,2872.666666,note_on,50,1228,64,0
13198,2872.666666,pitchwheel,50,1228,64,0
13199,2872.666666,note_off,50,1228,64,160
13200,2873.000000,note_on,50,3685,64,0
13201,2873.000000,pitchwheel,50,3685,64,0
13202,2873.000000,note_off,50,3685,64,160
13203,2873.333333,note_on,48,2047,64,0
13204,2873.333333,pitchwheel,48,2047,64,0
13205,2873.333333,note_off,48,2047,64,320
13206,2874.000000,note_on,53,0,64,0
13207,2874.000000,note_off,53,0,64,320
13208,2874.666666,note_on,58,1638,64,0
13209,2874.666666,pitchwheel,58,1638,64,0
13210,2874.666666,note_off,58,1638,64,160
13211,2875.000000,note_on,59,3276,64,0
13212,2875.000000,pitchwheel,59,3276,64,0
13213,2875.000000,note_off,59,3276,64,160
13214,2875.333333,note_on,53,0,64,0
13215,2875.333333,note_off,53,0,64,320
13216,2876.000000,note_on,55,1638,64,0
13217,2876.000000,pitchwheel,55,1638,64,0
13218,2876.000000,note_off,55,1638,64,320
13219,2876.666666,note_on,59,2457,64,0
13220,2876.666666,pitchwheel,59,2457,64,0
13221,2876.666666,note_off,59,2457,64,160
13222,2877.000000,note_on,48,819,64,0
13223,2877.000000,pitchwheel,48,819,64,0
13224,2877.000000,note_off,48,819,64,160
13225,2877.333333,note_on,48,3276,64,0
13226,2877.333333,pitchwheel,48,3276,64,0
13227,2877.333333,note_off,48,3276,64,320
13228,2878.000000,note_on,48,2047,64,0
13229,2878.000000,pitchwheel,48,2047,64,0
13230,2878.000000,note_off,48,2047,64,320
13231,2878.666666,note_on,53,0,64,0
13232,2878.666666,note_off,53,0,64,320
13233,2880.000000,note_on,52,0,64,0
13234,2880.000000,note_off,52,0,64,320
13235,2880.666666,note_on,52,1638,64,0
13236,2880.666666,pitchwheel,52,1638,64,0
13237,2880.666666,note_off,52,1638,64,160
13238,2881.000000,note_on,53,0,64,0
13239,2881.000000,note_off,53,0,64,480
13240,2882.000000,note_on,52,1638,64,0
13241,2882.000000,pitchwheel,52,1638,64,0
13242,2882.000000,note_off,52,1638,64,320
13243,2882.666666,note_on,48,2047,64,0
13244,2882.666666,pitchwheel,48,2047,64,0
13245,2882.666666,note_off,48,2047,64,160
13246,2883.000000,note_on,59,3276,64,0
13247,2883.000000,pitchwheel,59,3276,64,0
13248,2883.000000,note_off,59,3276,64,160
13249,2883.333333,note_on,52,0,64,0
13250,2883.333333,note_off,52,0,64,320
13251,2884.000000,note_on,51,819,64,0
13252,2884.000000,pitchwheel,51,819,64,0
13253,2884.000000,note_off,51,819,64,480
13254,2885.000000,note_on,57,0,64,0
13255,2885.000000,note_off,57,0,64,160
13256,2885.333333,note_on,56,0,64,0
13257,2885.333333,note_off,56,0,64,320
13258,2886.000000,note_on,58,0,64,0
13259,2886.000000,note_off,58,0,64,320
13260,2886.666666,note_on,52,0,64,0
13261,2886.666666,note_off,52,0,64,320
13262,2887.333333,note_on,50,819,64,0
13263,2887.333333,pitchwheel,50,819,64,0
13264,2887.333333,note_off,50,819,64,320
13265,2888.000000,note_on,51,819,64,0
13266,2888.000000,pitchwheel,51,819,64,0
13267,2888.000000,note_off,51,819,64,320
13268,2888.666666,note_on,52,2866,64,0
13269,2888.666666,pitchwheel,52,2866,64,0
13270,2888.666666,note_off,52,2866,64,320
13271,2889.333333,note_on,53,0,64,0
13272,2889.333333,note_off,53,0,64,320
13273,2890.000000,note_on,52,2457,64,0
13274,2890.000000,pitchwheel,52,2457,64,0
13275,2890.000000,note_off,52,2457,64,320
13276,2890.666666,note_on,51,819,64,0
13277,2890.666666,pitchwheel,51,819,64,0
13278,2890.666666,note_off,51,819,64,160
13279,2891.000000,note_on,50,819,64,0
13280,2891.000000,pitchwheel,50,819,64,0
13281,2891.000000,note_off,50,819,64,160
13282,2891.333333,note_on,45,0,64,0
13283,2891.333333,note_off,45,0,64,320
13284,2892.000000,note_on,41,2457,64,0
13285,2892.000000,pitchwheel,41,2457,64,0
13286,2892.000000,note_off,41,2457,64,320
13287,2892.666666,note_on,40,2457,64,0
13288,2892.666666,pitchwheel,40,2457,64,0
13289,2892.666666,note_off,40,2457,64,160
13290,2893.000000,note_on,45,3276,64,0
13291,2893.000000,pitchwheel,45,3276,64,0
13292,2893.000000,note_off,45,3276,64,160
13293,2893.333333,note_on,41,2457,64,0
13294,2893.333333,pitchwheel,41,2457,64,0
13295,2893.333333,note_off,41,2457,64,320
13296,2894.000000,note_on,45,2047,64,0
13297,2894.000000,pitchwheel,45,2047,64,0
13298,2894.000000,note_off,45,2047,64,320
13299,2894.666666,note_on,40,2457,64,0
13300,2894.666666,pitchwheel,40,2457,64,0
13301,2894.666666,note_off,40,2457,64,160
13302,2895.000000,note_on,43,0,64,0
13303,2895.000000,note_off,43,0,64,160
13304,2895.333333,note_on,45,2047,64,0
13305,2895.333333,pitchwheel,45,2047,64,0
13306,2895.333333,note_off,45,2047,64,320
13307,2896.000000,note_on,44,0,64,0
13308,2896.000000,note_off,44,0,64,320
13309,2896.666666,note_on,44,2047,64,0
13310,2896.666666,pitchwheel,44,2047,64,0
13311,2896.666666,note_off,44,2047,64,160
13312,2897.000000,note_on,45,0,64,0
13313,2897.000000,note_off,45,0,64,160
13314,2897.333333,note_on,41,0,64,0
13315,2897.333333,note_off,41,0,64,320
13316,2898.000000,note_on,43,0,64,0
13317,2898.000000,note_off,43,0,64,320
13318,2898.666666,note_on,44,0,64,0
13319,2898.666666,note_off,44,0,64,160
13320,2899.000000,note_on,40,2457,64,0
13321,2899.000000,pitchwheel,40,2457,64,0
13322,2899.000000,note_off,40,2457,64,160
13323,2899.333333,note_on,45,2047,64,0
13324,2899.333333,pitchwheel,45,2047,64,0
13325,2899.333333,note_off,45,2047,64,320
13326,2900.000000,note_on,49,0,64,0
13327,2900.000000,note_off,49,0,64,320
13328,2900.666666,note_on,47,3685,64,0
13329,2900.666666,pitchwheel,47,3685,64,0
13330,2900.666666,note_off,47,3685,64,640
13331,2902.000000,note_on,50,0,64,0
13332,2902.000000,note_off,50,0,64,320
13333,2902.666666,note_on,45,0,64,0
13334,2902.666666,note_off,45,0,64,160
13335,2903.000000,note_on,46,409,64,0
13336,2903.000000,pitchwheel,46,409,64,0
13337,2903.000000,note_off,46,409,64,160
13338,2903.333333,note_on,45,1638,64,0
13339,2903.333333,pitchwheel,45,1638,64,0
13340,2903.333333,note_off,45,1638,64,320
13341,2904.000000,note_on,46,0,64,0
13342,2904.000000,note_off,46,0,64,320
13343,2904.666666,note_on,47,3685,64,0
13344,2904.666666,pitchwheel,47,3685,64,0
13345,2904.666666,note_off,47,3685,64,160
13346,2905.000000,note_on,47,2047,64,0
13347,2905.000000,pitchwheel,47,2047,64,0
13348,2905.000000,note_off,47,2047,64,160
13349,2905.333333,note_on,48,819,64,0
13350,2905.333333,pitchwheel,48,819,64,0
13351,2905.333333,note_off,48,819,64,640
13352,2906.666666,note_on,48,3276,64,0
13353,2906.666666,pitchwheel,48,3276,64,0
13354,2906.666666,note_off,48,3276,64,160
13355,2907.000000,note_on,43,0,64,0
13356,2907.000000,note_off,43,0,64,160
13357,2907.333333,note_on,41,0,64,0
13358,2907.333333,note_off,41,0,64,320
13359,2908.000000,note_on,46,1638,64,0
13360,2908.000000,pitchwheel,46,1638,64,0
13361,2908.000000,note_off,46,1638,64,320
13362,2908.666666,note_on,45,1638,64,0
13363,2908.666666,pitchwheel,45,1638,64,0
13364,2908.666666,note_off,45,1638,64,160
13365,2909.000000,note_on,41,0,64,0
13366,2909.000000,note_off,41,0,64,160
13367,2909.333333,note_on,44,0,64,0
13368,2909.333333,note_off,44,0,64,320
13369,2910.000000,note_on,38,2457,64,0
13370,2910.000000,pitchwheel,38,2457,64,0
13371,2910.000000,note_off,38,2457,64,320
13372,2910.666666,note_on,46,409,64,0
13373,2910.666666,pitchwheel,46,409,64,0
13374,2910.666666,note_off,46,409,64,160
13375,2911.000000,note_on,36,2047,64,0
13376,2911.000000,pitchwheel,36,2047,64,0
13377,2911.000000,note_off,36,2047,64,480
13378,2912.000000,note_on,44,0,64,0
13379,2912.000000,note_off,44,0,64,480
13380,2913.000000,note_on,38,2457,64,0
13381,2913.000000,pitchwheel,38,2457,64,0
13382,2913.000000,note_off,38,2457,64,160
13383,2913.333333,note_on,40,0,64,0
13384,2913.333333,note_off,40,0,64,320
13385,2914.000000,note_on,45,0,64,0
13386,2914.000000,note_off,45,0,64,320
13387,2914.666666,note_on,45,3276,64,0
13388,2914.666666,pitchwheel,45,3276,64,0
13389,2914.666666,note_off,45,3276,64,160
13390,2915.000000,note_on,45,1638,64,0
13391,2915.000000,pitchwheel,45,1638,64,0
13392,2915.000000,note_off,45,1638,64,160
13393,2915.333333,note_on,41,0,64,0
13394,2915.333333,note_off,41,0,64,320
13395,2916.000000,note_on,36,3276,64,0
13396,2916.000000,pitchwheel,36,3276,64,0
13397,2916.000000,note_off,36,3276,64,320
13398,2916.666666,note_on,43,0,64,0
13399,2916.666666,note_off,43,0,64,160
13400,2917.000000,note_on,38,2457,64,0
13401,2917.000000,pitchwheel,38,2457,64,0
13402,2917.000000,note_off,38,2457,64,480
13403,2918.000000,note_on,38,1228,64,0
13404,2918.000000,pitchwheel,38,1228,64,0
13405,2918.000000,note_off,38,1228,64,320
13406,2918.666666,note_on,36,819,64,0
13407,2918.666666,pitchwheel,36,819,64,0
13408,2918.666666,note_off,36,819,64,320
13409,2919.333333,note_on,38,819,64,0
13410,2919.333333,pitchwheel,38,819,64,0
13411,2919.333333,note_off,38,819,64,320
13412,2920.000000,note_on,38,2457,64,0
13413,2920.000000,pitchwheel,38,2457,64,0
13414,2920.000000,note_off,38,2457,64,640
13415,2921.333333,note_on,38,1228,64,0
13416,2921.333333,pitchwheel,38,1228,64,0
13417,2921.333333,note_off,38,1228,64,320
13418,2922.000000,note_on,47,2457,64,0
13419,2922.000000,pitchwheel,47,2457,64,0
13420,2922.000000,note_off,47,2457,64,320
13421,2922.666666,note_on,45,2047,64,0
13422,2922.666666,pitchwheel,45,2047,64,0
13423,2922.666666,note_off,45,2047,64,160
13424,2923.000000,note_on,43,0,64,0
13425,2923.000000,note_off,43,0,64,480
13426,2924.000000,note_on,38,2457,64,0
13427,2924.000000,pitchwheel,38,2457,64,0
13428,2924.000000,note_off,38,2457,64,320
13429,2924.666666,note_on,40,2457,64,0
13430,2924.666666,pitchwheel,40,2457,64,0
13431,2924.666666,note_off,40,2457,64,160
13432,2925.000000,note_on,40,0,64,0
13433,2925.000000,note_off,40,0,64,160
13434,2925.333333,note_on,36,3276,64,0
13435,2925.333333,pitchwheel,36,3276,64,0
13436,2925.333333,note_off,36,3276,64,320
13437,2926.000000,note_on,36,819,64,0
13438,2926.000000,pitchwheel,36,819,64,0
13439,2926.000000,note_off,36,819,64,320
13440,2926.666666,note_on,47,3276,64,0
13441,2926.666666,pitchwheel,47,3276,64,0
13442,2926.666666,note_off,47,3276,64,320
13443,2927.333333,note_on,38,0,64,0
13444,2927.333333,note_off,38,0,64,320
13445,2928.000000,note_on,38,3685,64,0
13446,2928.000000,pitchwheel,38,3685,64,0
13447,2928.000000,note_off,38,3685,64,320
13448,2928.666666,note_on,38,2457,64,0
13449,2928.666666,pitchwheel,38,2457,64,0
13450,2928.666666,note_off,38,2457,64,320
13451,2929.333333,note_on,45,3276,64,0
13452,2929.333333,pitchwheel,45,3276,64,0
13453,2929.333333,note_off,45,3276,64,320
13454,2930.000000,note_on,43,0,64,0
13455,2930.000000,note_off,43,0,64,320
13456,2930.666666,note_on,45,2047,64,0
13457,2930.666666,pitchwheel,45,2047,64,0
13458,2930.666666,note_off,45,2047,64,160
13459,2931.000000,note_on,40,2457,64,0
13460,2931.000000,pitchwheel,40,2457,64,0
13461,2931.000000,note_off,40,2457,64,160
13462,2931.333333,note_on,45,3276,64,0
13463,2931.333333,pitchwheel,45,3276,64,0
13464,2931.333333,note_off,45,3276,64,320
13465,2932.000000,note_on,45,2047,64,0
13466,2932.000000,pitchwheel,45,2047,64,0
13467,2932.000000,note_off,45,2047,64,480
13468,2933.000000,note_on,41,1228,64,0
13469,2933.000000,pitchwheel,41,1228,64,0
13470,2933.000000,note_off,41,1228,64,160
13471,2933.333333,note_on,44,2047,64,0
13472,2933.333333,pitchwheel,44,2047,64,0
13473,2933.333333,note_off,44,2047,64,320
13474,2934.000000,note_on,41,0,64,0
13475,2934.000000,note_off,41,0,64,320
13476,2934.666666,note_on,38,2457,64,0
13477,2934.666666,pitchwheel,38,2457,64,0
13478,2934.666666,note_off,38,2457,64,160
13479,2935.000000,note_on,45,1638,64,0
13480,2935.000000,pitchwheel,45,1638,64,0
13481,2935.000000,note_off,45,1638,64,480
13482,2936.000000,note_on,44,0,64,0
13483,2936.000000,note_off,44,0,64,320
13484,2936.666666,note_on,41,0,64,0
13485,2936.666666,note_off,41,0,64,160
13486,2937.000000,note_on,45,0,64,0
13487,2937.000000,note_off,45,0,64,160
13488,2937.333333,note_on,46,0,64,0
13489,2937.333333,note_off,46,0,64,320
13490,2938.000000,note_on,41,0,64,0
13491,2938.000000,note_off,41,0,64,320
13492,2938.666666,note_on,44,0,64,0
13493,2938.666666,note_off,44,0,64,160
13494,2939.000000,note_on,38,819,64,0
13495,2939.000000,pitchwheel,38,819,64,0
13496,2939.000000,note_off,38,819,64,480
13497,2940.000000,note_on,40,0,64,0
13498,2940.000000,note_off,40,0,64,320
13499,2940.666666,note_on,47,3276,64,0
13500,2940.666666,pitchwheel,47,3276,64,0
13501,2940.666666,note_off,47,3276,64,320
13502,2941.333333,note_on,46,1638,64,0
13503,2941.333333,pitchwheel,46,1638,64,0
13504,2941.333333,note_off,46,1638,64,320
13505,2942.000000,note_on,38,2457,64,0
13506,2942.000000,pitchwheel,38,2457,64,0
13507,2942.000000,note_off,38,2457,64,320
13508,2942.666666,note_on,40,2866,64,0
13509,2942.666666,pitchwheel,40,2866,64,0
13510,2942.666666,note_off,40,2866,64,160
13511,2943.000000,note_on,45,2047,64,0
13512,2943.000000,pitchwheel,45,2047,64,0
13513,2943.000000,note_off,45,2047,64,160
13514,2943.333333,note_on,50,819,64,0
13515,2943.333333,pitchwheel,50,819,64,0
13516,2943.333333,note_off,50,819,64,320
13517,2944.000000,note_on,50,0,64,0
13518,2944.000000,note_off,50,0,64,320
13519,2944.666666,note_on,45,0,64,0
13520,2944.666666,note_off,45,0,64,160
13521,2945.000000,note_on,44,2047,64,0
13522,2945.000000,pitchwheel,44,2047,64,0
13523,2945.000000,note_off,44,2047,64,480
13524,2946.000000,note_on,50,0,64,0
13525,2946.000000,note_off,50,0,64,320
13526,2946.666666,note_on,48,3276,64,0
13527,2946.666666,pitchwheel,48,3276,64,0
13528,2946.666666,note_off,48,3276,64,160
13529,2947.000000,note_on,47,3276,64,0
13530,2947.000000,pitchwheel,47,3276,64,0
13531,2947.000000,note_off,47,3276,64,480
13532,2948.000000,note_on,45,0,64,0
13533,2948.000000,note_off,45,0,64,320
13534,2948.666666,note_on,47,2457,64,0
13535,2948.666666,pitchwheel,47,2457,64,0
13536,2948.666666,note_off,47,2457,64,160
13537,2949.000000,note_on,48,2047,64,0
13538,2949.000000,pitchwheel,48,2047,64,0
13539,2949.000000,note_off,48,2047,64,160
13540,2949.333333,note_on,46,1638,64,0
13541,2949.333333,pitchwheel,46,1638,64,0
13542,2949.333333,note_off,46,1638,64,320
13543,2950.000000,note_on,40,2457,64,0
13544,2950.000000,pitchwheel,40,2457,64,0
13545,2950.000000,note_off,40,2457,64,320
13546,2950.666666,note_on,36,819,64,0
13547,2950.666666,pitchwheel,36,819,64,0
13548,2950.666666,note_off,36,819,64,160
13549,2951.000000,note_on,43,409,64,0
13550,2951.000000,pitchwheel,43,409,64,0
13551,2951.000000,note_off,43,409,64,160
13552,2951.333333,note_on,40,2457,64,0
13553,2951.333333,pitchwheel,40,2457,64,0
13554,2951.333333,note_off,40,2457,64,320
13555,2952.000000,note_on,39,819,64,0
13556,2952.000000,pitchwheel,39,819,64,0
13557,2952.000000,note_off,39,819,64,320
13558,2952.666666,note_on,36,819,64,0
13559,2952.666666,pitchwheel,36,819,64,0
13560,2952.666666,note_off,36,819,64,160
13561,2953.000000,note_on,41,0,64,0
13562,2953.000000,note_off,41,0,64,160
13563,2953.333333,note_on,47,3276,64,0
13564,2953.333333,pitchwheel,47,3276,64,0
13565,2953.333333,note_off,47,3276,64,320
13566,2954.000000,note_on,43,1638,64,0
13567,2954.000000,pitchwheel,43,1638,64,0
13568,2954.000000,note_off,43,1638,64,320
13569,2954.666666,note_on,47,2457,64,0
13570,2954.666666,pitchwheel,47,2457,64,0
13571,2954.666666,note_off,47,2457,64,160
13572,2955.000000,note_on,45,1638,64,0
13573,2955.000000,pitchwheel,45,1638,64,0
13574,2955.000000,note_off,45,1638,64,160
13575,2955.333333,note_on,50,2457,64,0
13576,2955.333333,pitchwheel,50,2457,64,0
13577,2955.333333,note_off,50,2457,64,320
13578,2956.000000,note_on,45,0,64,0
13579,2956.000000,note_off,45,0,64,320
13580,2956.666666,note_on,43,0,64,0
13581,2956.666666,note_off,43,0,64,160
13582,2957.000000,note_on,46,409,64,0
13583,2957.000000,pitchwheel,46,409,64,0
13584,2957.000000,note_off,46,409,64,160
13585,2957.333333,note_on,41,0,64,0
13586,2957.333333,note_off,41,0,64,320
13587,2958.000000,note_on,45,3276,64,0
13588,2958.000000,pitchwheel,45,3276,64,0
13589,2958.000000,note_off,45,3276,64,320
13590,2958.666666,note_on,45,2047,64,0
13591,2958.666666,pitchwheel,45,2047,64,0
13592,2958.666666,note_off,45,2047,64,320
13593,2960.000000,note_on,45,1638,64,0
13594,2960.000000,pitchwheel,45,1638,64,0
13595,2960.000000,note_off,45,1638,64,320
13596,2960.666666,note_on,48,2047,64,0
13597,2960.666666,pitchwheel,48,2047,64,0
13598,2960.666666,note_off,48,2047,64,160
13599,2961.000000,note_on,52,1638,64,0
13600,2961.000000,pitchwheel,52,1638,64,0
13601,2961.000000,note_off,52,1638,64,480
13602,2962.000000,note_on,53,0,64,0
13603,2962.000000,note_off,53,0,64,320
13604,2962.666666,note_on,53,2457,64,0
13605,2962.666666,pitchwheel,53,2457,64,0
13606,2962.666666,note_off,53,2457,64,160
13607,2963.000000,note_on,57,1638,64,0
13608,2963.000000,pitchwheel,57,1638,64,0
13609,2963.000000,note_off,57,1638,64,480
13610,2964.000000,note_on,56,0,64,0
13611,2964.000000,note_off,56,0,64,480
13612,2965.000000,note_on,50,2457,64,0
13613,2965.000000,pitchwheel,50,2457,64,0
13614,2965.000000,note_off,50,2457,64,160
13615,2965.333333,note_on,46,1638,64,0
13616,2965.333333,pitchwheel,46,1638,64,0
13617,2965.333333,note_off,46,1638,64,320
13618,2966.000000,note_on,40,2457,64,0
13619,2966.000000,pitchwheel,40,2457,64,0
13620,2966.000000,note_off,40,2457,64,320
13621,2966.666666,note_on,47,2047,64,0
13622,2966.666666,pitchwheel,47,2047,64,0
13623,2966.666666,note_off,47,2047,64,320
13624,2967.333333,note_on,40,2457,64,0
13625,2967.333333,pitchwheel,40,2457,64,0
13626,2967.333333,note_off,40,2457,64,320
13627,2968.000000,note_on,39,819,64,0
13628,2968.000000,pitchwheel,39,819,64,0
13629,2968.000000,note_off,39,819,64,320
13630,2968.666666,note_on,41,0,64,0
13631,2968.666666,note_off,41,0,64,320
13632,2969.333333,note_on,41,1228,64,0
13633,2969.333333,pitchwheel,41,1228,64,0
13634,2969.333333,note_off,41,1228,64,320
13635,2970.000000,note_on,40,2457,64,0
13636,2970.000000,pitchwheel,40,2457,64,0
13637,2970.000000,note_off,40,2457,64,320
13638,2970.666666,note_on,39,819,64,0
13639,2970.666666,pitchwheel,39,819,64,0
13640,2970.666666,note_off,39,819,64,160
13641,2971.000000,note_on,43,0,64,0
13642,2971.000000,note_off,43,0,64,160
13643,2971.333333,note_on,45,0,64,0
13644,2971.333333,note_off,45,0,64,320
13645,2972.000000,note_on,46,0,64,0
13646,2972.000000,note_off,46,0,64,320
13647,2972.666666,note_on,43,0,64,0
13648,2972.666666,note_off,43,0,64,160
13649,2973.000000,note_on,48,2047,64,0
13650,2973.000000,pitchwheel,48,2047,64,0
13651,2973.000000,note_off,48,2047,64,160
13652,2973.333333,note_on,43,1638,64,0
13653,2973.333333,pitchwheel,43,1638,64,0
13654,2973.333333,note_off,43,1638,64,320
13655,2974.000000,note_on,48,819,64,0
13656,2974.000000,pitchwheel,48,819,64,0
13657,2974.000000,note_off,48,819,64,320
13658,2974.666666,note_on,43,409,64,0
13659,2974.666666,pitchwheel,43,409,64,0
13660,2974.666666,note_off,43,409,64,160
13661,2975.000000,note_on,47,3276,64,0
13662,2975.000000,pitchwheel,47,3276,64,0
13663,2975.000000,note_off,47,3276,64,160
13664,2975.333333,note_on,43,1638,64,0
13665,2975.333333,pitchwheel,43,1638,64,0
13666,2975.333333,note_off,43,1638,64,800
13667,2977.000000,note_on,45,0,64,0
13668,2977.000000,note_off,45,0,64,160
13669,2977.333333,note_on,41,0,64,0
13670,2977.333333,note_off,41,0,64,320
13671,2978.000000,note_on,45,1638,64,0
13672,2978.000000,pitchwheel,45,1638,64,0
13673,2978.000000,note_off,45,1638,64,320
13674,2978.666666,note_on,46,1638,64,0
13675,2978.666666,pitchwheel,46,1638,64,0
13676,2978.666666,note_off,46,1638,64,160
13677,2979.000000,note_on,40,2457,64,0
13678,2979.000000,pitchwheel,40,2457,64,0
13679,2979.000000,note_off,40,2457,64,160
13680,2979.333333,note_on,45,3276,64,0
13681,2979.333333,pitchwheel,45,3276,64,0
13682,2979.333333,note_off,45,3276,64,320
13683,2980.000000,note_on,47,3276,64,0
13684,2980.000000,pitchwheel,47,3276,64,0
13685,2980.000000,note_off,47,3276,64,320
13686,2980.666666,note_on,53,0,64,0
13687,2980.666666,note_off,53,0,64,320
13688,2981.333333,note_on,50,1228,64,0
13689,2981.333333,pitchwheel,50,1228,64,0
13690,2981.333333,note_off,50,1228,64,320
13691,2982.000000,note_on,50,819,64,0
13692,2982.000000,pitchwheel,50,819,64,0
13693,2982.000000,note_off,50,819,64,320
13694,2982.666666,note_on,53,0,64,0
13695,2982.666666,note_off,53,0,64,160
13696,2983.000000,note_on,57,2047,64,0
13697,2983.000000,pitchwheel,57,2047,64,0
13698,2983.000000,note_off,57,2047,64,160
13699,2983.333333,note_on,59,3276,64,0
13700,2983.333333,pitchwheel,59,3276,64,0
13701,2983.333333,note_off,59,3276,64,320
13702,2984.000000,note_on,56,0,64,0
13703,2984.000000,note_off,56,0,64,320
13704,2984.666666,note_on,48,819,64,0
13705,2984.666666,pitchwheel,48,819,64,0
13706,2984.666666,note_off,48,819,64,160
13707,2985.000000,note_on,53,0,64,0
13708,2985.000000,note_off,53,0,64,160
13709,2985.333333,note_on,48,2047,64,0
13710,2985.333333,pitchwheel,48,2047,64,0
13711,2985.333333,note_off,48,2047,64,320
13712,2986.000000,note_on,43,2866,64,0
13713,2986.000000,pitchwheel,43,2866,64,0
13714,2986.000000,note_off,43,2866,64,320
13715,2986.666666,note_on,47,2047,64,0
13716,2986.666666,pitchwheel,47,2047,64,0
13717,2986.666666,note_off,47,2047,64,160
13718,2987.000000,note_on,50,819,64,0
13719,2987.000000,pitchwheel,50,819,64,0
13720,2987.000000,note_off,50,819,64,160
13721,2987.333333,note_on,53,0,64,0
13722,2987.333333,note_off,53,0,64,320
13723,2988.000000,note_on,52,1638,64,0
13724,2988.000000,pitchwheel,52,1638,64,0
13725,2988.000000,note_off,52,1638,64,320
13726,2988.666666,note_on,47,3276,64,0
13727,2988.666666,pitchwheel,47,3276,64,0
13728,2988.666666,note_off,47,3276,64,160
13729,2989.000000,note_on,43,2866,64,0
13730,2989.000000,pitchwheel,43,2866,64,0
13731,2989.000000,note_off,43,2866,64,160
13732,2989.333333,note_on,39,819,64,0
13733,2989.333333,pitchwheel,39,819,64,0
13734,2989.333333,note_off,39,819,64,320
13735,2990.000000,note_on,45,0,64,0
13736,2990.000000,note_off,45,0,64,320
13737,2990.666666,note_on,46,0,64,0
13738,2990.666666,note_off,46,0,64,160
13739,2991.000000,note_on,47,3685,64,0
13740,2991.000000,pitchwheel,47,3685,64,0
13741,2991.000000,note_off,47,3685,64,480
13742,2992.000000,note_on,45,3276,64,0
13743,2992.000000,pitchwheel,45,3276,64,0
13744,2992.000000,note_off,45,3276,64,480
13745,2993.000000,note_on,50,0,64,0
13746,2993.000000,note_off,50,0,64,160
13747,2993.333333,note_on,44,2047,64,0
13748,2993.333333,pitchwheel,44,2047,64,0
13749,2993.333333,note_off,44,2047,64,320
13750,2994.000000,note_on,50,819,64,0
13751,2994.000000,pitchwheel,50,819,64,0
13752,2994.000000,note_off,50,819,64,320
13753,2994.666666,note_on,53,2457,64,0
13754,2994.666666,pitchwheel,53,2457,64,0
13755,2994.666666,note_off,53,2457,64,160
13756,2995.000000,note_on,47,3276,64,0
13757,2995.000000,pitchwheel,47,3276,64,0
13758,2995.000000,note_off,47,3276,64,160
13759,2995.333333,note_on,45,3276,64,0
13760,2995.333333,pitchwheel,45,3276,64,0
13761,2995.333333,note_off,45,3276,64,320
13762,2996.000000,note_on,45,2047,64,0
13763,2996.000000,pitchwheel,45,2047,64,0
13764,2996.000000,note_off,45,2047,64,320
13765,2996.666666,note_on,43,0,64,0
13766,2996.666666,note_off,43,0,64,160
13767,2997.000000,note_on,41,1228,64,0
13768,2997.000000,pitchwheel,41,1228,64,0
13769,2997.000000,note_off,41,1228,64,160
13770,2997.333333,note_on,44,0,64,0
13771,2997.333333,note_off,44,0,64,320
13772,2998.000000,note_on,45,0,64,0
13773,2998.000000,note_off,45,0,64,480
13774,2999.333333,note_on,40,2457,64,0
13775,2999.333333,pitchwheel,40,2457,64,0
13776,2999.333333,note_off,40,2457,64,320
13777,3000.000000,note_on,37,0,64,0
13778,3000.000000,note_off,37,0,64,480
13779,3001.000000,note_on,41,0,64,0
13780,3001.000000,note_off,41,0,64,160
13781,3001.333333,note_on,45,1638,64,0
13782,3001.333333,pitchwheel,45,1638,64,0
13783,3001.333333,note_off,45,1638,64,320
13784,3002.000000,note_on,46,409,64,0
13785,3002.000000,pitchwheel,46,409,64,0
13786,3002.000000,note_off,46,409,64,320
13787,3002.666666,note_on,46,0,64,0
13788,3002.666666,note_off,46,0,64,160
13789,3003.000000,note_on,45,1638,64,0
13790,3003.000000,pitchwheel,45,1638,64,0
13791,3003.000000,note_off,45,1638,64,160
13792,3003.333333,note_on,47,2047,64,0
13793,3003.333333,pitchwheel,47,2047,64,0
13794,3003.333333,note_off,47,2047,64,320
13795,3004.000000,note_on,48,819,64,0
13796,3004.000000,pitchwheel,48,819,64,0
13797,3004.000000,note_off,48,819,64,320
13798,3004.666666,note_on,43,0,64,0
13799,3004.666666,note_off,43,0,64,160
13800,3005.000000,note_on,48,2047,64,0
13801,3005.000000,pitchwheel,48,2047,64,0
13802,3005.000000,note_off,48,2047,64,160
13803,3005.333333,note_on,46,1638,64,0
13804,3005.333333,pitchwheel,46,1638,64,0
13805,3005.333333,note_off,46,1638,64,320
13806,3006.000000,note_on,47,2457,64,0
13807,3006.000000,pitchwheel,47,2457,64,0
13808,3006.000000,note_off,47,2457,64,320
13809,3006.666666,note_on,45,2047,64,0
13810,3006.666666,pitchwheel,45,2047,64,0
13811,3006.666666,note_off,45,2047,64,320
13812,3007.333333,note_on,48,2047,64,0
13813,3007.333333,pitchwheel,48,2047,64,0
13814,3007.333333,note_off,48,2047,64,320
13815,3008.000000,note_on,44,0,64,0
13816,3008.000000,note_off,44,0,64,320
13817,3008.666666,note_on,38,2457,64,0
13818,3008.666666,pitchwheel,38,2457,64,0
13819,3008.666666,note_off,38,2457,64,320
13820,3009.333333,note_on,45,0,64,0
13821,3009.333333,note_off,45,0,64,320
13822,3010.000000,note_on,45,1638,64,0
13823,3010.000000,pitchwheel,45,1638,64,0
13824,3010.000000,note_off,45,1638,64,320
13825,3010.666666,note_on,36,3276,64,0
13826,3010.666666,pitchwheel,36,3276,64,0
13827,3010.666666,note_off,36,3276,64,160
13828,3011.000000,note_on,43,0,64,0
13829,3011.000000,note_off,43,0,64,160
13830,3011.333333,note_on,38,2457,64,0
13831,3011.333333,pitchwheel,38,2457,64,0
13832,3011.333333,note_off,38,2457,64,320
13833,3012.000000,note_on,38,1228,64,0
13834,3012.000000,pitchwheel,38,1228,64,0
13835,3012.000000,note_off,38,1228,64,480
13836,3013.000000,note_on,36,2047,64,0
13837,3013.000000,pitchwheel,36,2047,64,0
13838,3013.000000,note_off,36,2047,64,160
13839,3013.333333,note_on,38,2457,64,0
13840,3013.333333,pitchwheel,38,2457,64,0
13841,3013.333333,note_off,38,2457,64,320
13842,3014.000000,note_on,36,819,64,0
13843,3014.000000,pitchwheel,36,819,64,0
13844,3014.000000,note_off,36,819,64,480
13845,3015.000000,note_on,47,3276,64,0
13846,3015.000000,pitchwheel,47,3276,64,0
13847,3015.000000,note_off,47,3276,64,160
13848,3015.333333,note_on,43,0,64,0
13849,3015.333333,note_off,43,0,64,320
13850,3016.000000,note_on,46,1638,64,0
13851,3016.000000,pitchwheel,46,1638,64,0
13852,3016.000000,note_off,46,1638,64,320
13853,3016.666666,note_on,40,0,64,0
13854,3016.666666,note_off,40,0,64,160
13855,3017.000000,note_on,45,0,64,0
13856,3017.000000,note_off,45,0,64,160
13857,3017.333333,note_on,45,2047,64,0
13858,3017.333333,pitchwheel,45,2047,64,0
13859,3017.333333,note_off,45,2047,64,320
13860,3018.000000,note_on,50,3685,64,0
13861,3018.000000,pitchwheel,50,3685,64,0
13862,3018.000000,note_off,50,3685,64,320
13863,3018.666666,note_on,46,0,64,0
13864,3018.666666,note_off,46,0,64,160
13865,3019.000000,note_on,40,2457,64,0
13866,3019.000000,pitchwheel,40,2457,64,0
13867,3019.000000,note_off,40,2457,64,480
13868,3020.000000,note_on,39,819,64,0
13869,3020.000000,pitchwheel,39,819,64,0
13870,3020.000000,note_off,39,819,64,320
13871,3020.666666,note_on,40,2457,64,0
13872,3020.666666,pitchwheel,40,2457,64,0
13873,3020.666666,note_off,40,2457,64,320
13874,3021.333333,note_on,39,819,64,0
13875,3021.333333,pitchwheel,39,819,64,0
13876,3021.333333,note_off,39,819,64,320
13877,3022.000000,note_on,41,1228,64,0
13878,3022.000000,pitchwheel,41,1228,64,0
13879,3022.000000,note_off,41,1228,64,320
13880,3022.666666,note_on,41,0,64,0
13881,3022.666666,note_off,41,0,64,160
13882,3023.000000,note_on,47,2457,64,0
13883,3023.000000,pitchwheel,47,2457,64,0
13884,3023.000000,note_off,47,2457,64,160
13885,3023.333333,note_on,45,1638,64,0
13886,3023.333333,pitchwheel,45,1638,64,0
13887,3023.333333,note_off,45,1638,64,320
13888,3024.000000,note_on,46,409,64,0
13889,3024.000000,pitchwheel,46,409,64,0
13890,3024.000000,note_off,46,409,64,320
13891,3024.666666,note_on,45,0,64,0
13892,3024.666666,note_off,45,0,64,160
13893,3025.000000,note_on,44,2047,64,0
13894,3025.000000,pitchwheel,44,2047,64,0
13895,3025.000000,note_off,44,2047,64,160
13896,3025.333333,note_on,41,0,64,0
13897,3025.333333,note_off,41,0,64,320
13898,3026.000000,note_on,38,819,64,0
13899,3026.000000,pitchwheel,38,819,64,0
13900,3026.000000,note_off,38,819,64,960
13901,3028.000000,note_on,39,819,64,0
13902,3028.000000,pitchwheel,39,819,64,0
13903,3028.000000,note_off,39,819,64,320
13904,3028.666666,note_on,45,2047,64,0
13905,3028.666666,pitchwheel,45,2047,64,0
13906,3028.666666,note_off,45,2047,64,160
13907,3029.000000,note_on,43,2866,64,0
13908,3029.000000,pitchwheel,43,2866,64,0
13909,3029.000000,note_off,43,2866,64,160
13910,3029.333333,note_on,44,0,64,0
13911,3029.333333,note_off,44,0,64,320
13912,3030.000000,note_on,44,2047,64,0
13913,3030.000000,pitchwheel,44,2047,64,0
13914,3030.000000,note_off,44,2047,64,320
13915,3030.666666,note_on,38,0,64,0
13916,3030.666666,note_off,38,0,64,320
13917,3031.333333,note_on,47,3276,64,0
13918,3031.333333,pitchwheel,47,3276,64,0
13919,3031.333333,note_off,47,3276,64,320
13920,3032.000000,note_on,45,0,64,0
13921,3032.000000,note_off,45,0,64,320
13922,3032.666666,note_on,36,2047,64,0
13923,3032.666666,pitchwheel,36,2047,64,0
13924,3032.666666,note_off,36,2047,64,160
13925,3033.000000,note_on,38,2457,64,0
13926,3033.000000,pitchwheel,38,2457,64,0
13927,3033.000000,note_off,38,2457,64,160
13928,3033.333333,note_on,40,2457,64,0
13929,3033.333333,pitchwheel,40,2457,64,0
13930,3033.333333,note_off,40,2457,64,320
13931,3034.000000,note_on,43,409,64,0
13932,3034.000000,pitchwheel,43,409,64,0
13933,3034.000000,note_off,43,409,64,320
13934,3034.666666,note_on,44,0,64,0
13935,3034.666666,note_off,44,0,64,160
13936,3035.000000,note_on,47,3276,64,0
13937,3035.000000,pitchwheel,47,3276,64,0
13938,3035.000000,note_off,47,3276,64,160
13939,3035.333333,note_on,53,0,64,0
13940,3035.333333,note_off,53,0,64,320
13941,3036.000000,note_on,55,1638,64,0
13942,3036.000000,pitchwheel,55,1638,64,0
13943,3036.000000,note_off,55,1638,64,320
13944,3036.666666,note_on,57,1638,64,0
13945,3036.666666,pitchwheel,57,1638,64,0
13946,3036.666666,note_off,57,1638,64,160
13947,3037.000000,note_on,53,1228,64,0
13948,3037.000000,pitchwheel,53,1228,64,0
13949,3037.000000,note_off,53,1228,64,160
13950,3037.333333,note_on,58,1638,64,0
13951,3037.333333,pitchwheel,58,1638,64,0
13952,3037.333333,note_off,58,1638,64,320
13953,3038.000000,note_on,58,409,64,0
13954,3038.000000,pitchwheel,58,409,64,0
13955,3038.000000,note_off,58,409,64,320
13956,3038.666666,note_on,57,3276,64,0
13957,3038.666666,pitchwheel,57,3276,64,0
13958,3038.666666,note_off,57,3276,64,320
13959,3040.000000,note_on,58,1638,64,0
13960,3040.000000,pitchwheel,58,1638,64,0
13961,3040.000000,note_off,58,1638,64,320
13962,3040.666666,note_on,52,1638,64,0
13963,3040.666666,pitchwheel,52,1638,64,0
13964,3040.666666,note_off,52,1638,64,160
13965,3041.000000,note_on,53,0,64,0
13966,3041.000000,note_off,53,0,64,480
13967,3042.000000,note_on,57,1638,64,0
13968,3042.000000,pitchwheel,57,1638,64,0
13969,3042.000000,note_off,57,1638,64,320
13970,3042.666666,note_on,56,0,64,0
13971,3042.666666,note_off,56,0,64,160
13972,3043.000000,note_on,50,819,64,0
13973,3043.000000,pitchwheel,50,819,64,0
13974,3043.000000,note_off,50,819,64,160
13975,3043.333333,note_on,50,2457,64,0
13976,3043.333333,pitchwheel,50,2457,64,0
13977,3043.333333,note_off,50,2457,64,320
13978,3044.000000,note_on,52,2457,64,0
13979,3044.000000,pitchwheel,52,2457,64,0
13980,3044.000000,note_off,52,2457,64,480
13981,3045.333333,note_on,51,819,64,0
13982,3045.333333,pitchwheel,51,819,64,0
13983,3045.333333,note_off,51,819,64,320
13984,3046.000000,note_on,52,2457,64,0
13985,3046.000000,pitchwheel,52,2457,64,0
13986,3046.000000,note_off,52,2457,64,320
13987,3046.666666,note_on,57,0,64,0
13988,3046.666666,note_off,57,0,64,320
13989,3047.333333,note_on,55,0,64,0
13990,3047.333333,note_off,55,0,64,320
13991,3048.000000,note_on,58,0,64,0
13992,3048.000000,note_off,58,0,64,320
13993,3048.666666,note_on,48,2047,64,0
13994,3048.666666,pitchwheel,48,2047,64,0
13995,3048.666666,note_off,48,2047,64,320
13996,3049.333333,note_on,48,819,64,0
13997,3049.333333,pitchwheel,48,819,64,0
13998,3049.333333,note_off,48,819,64,320
13999,3050.000000,note_on,56,2047,64,0
14000,3050.000000,pitchwheel,56,2047,64,0
14001,3050.000000,note_off,56,2047,64,320
14002,3050.666666,note_on,55,1638,64,0
14003,3050.666666,pitchwheel,55,1638,64,0
14004,3050.666666,note_off,55,1638,64,160
14005,3051.000000,note_on,59,3276,64,0
14006,3051.000000,pitchwheel,59,3276,64,0
14007,3051.000000,note_off,59,3276,64,160
14008,3051.333333,note_on,57,0,64,0
14009,3051.333333,note_off,57,0,64,320
14010,3052.000000,note_on,58,0,64,0
14011,3052.000000,note_off,58,0,64,320
14012,3052.666666,note_on,52,2457,64,0
14013,3052.666666,pitchwheel,52,2457,64,0
14014,3052.666666,note_off,52,2457,64,160
14015,3053.000000,note_on,48,2047,64,0
14016,3053.000000,pitchwheel,48,2047,64,0
14017,3053.000000,note_off,48,2047,64,160
14018,3053.333333,note_on,51,819,64,0
14019,3053.333333,pitchwheel,51,819,64,0
14020,3053.333333,note_off,51,819,64,320
14021,3054.000000,note_on,48,819,64,0
14022,3054.000000,pitchwheel,48,819,64,0
14023,3054.000000,note_off,48,819,64,320
14024,3054.666666,note_on,50,819,64,0
14025,3054.666666,pitchwheel,50,819,64,0
14026,3054.666666,note_off,50,819,64,320
14027,3055.333333,note_on,45,2047,64,0
14028,3055.333333,pitchwheel,45,2047,64,0
14029,3055.333333,note_off,45,2047,64,320
14030,3056.000000,note_on,48,819,64,0
14031,3056.000000,pitchwheel,48,819,64,0
14032,3056.000000,note_off,48,819,64,320
14033,3056.666666,note_on,53,0,64,0
14034,3056.666666,note_off,53,0,64,160
14035,3057.000000,note_on,57,0,64,0
14036,3057.000000,note_off,57,0,64,160
14037,3057.333333,note_on,55,2866,64,0
14038,3057.333333,pitchwheel,55,2866,64,0
14039,3057.333333,note_off,55,2866,64,320
14040,3058.000000,note_on,50,819,64,0
14041,3058.000000,pitchwheel,50,819,64,0
14042,3058.000000,note_off,50,819,64,320
14043,3058.666666,note_on,48,3276,64,0
14044,3058.666666,pitchwheel,48,3276,64,0
14045,3058.666666,note_off,48,3276,64,160
14046,3059.000000,note_on,45,1638,64,0
14047,3059.000000,pitchwheel,45,1638,64,0
14048,3059.000000,note_off,45,1638,64,160
14049,3059.333333,note_on,43,2866,64,0
14050,3059.333333,pitchwheel,43,2866,64,0
14051,3059.333333,note_off,43,2866,64,320
14052,3060.000000,note_on,43,0,64,0
14053,3060.000000,note_off,43,0,64,320
14054,3060.666666,note_on,47,3685,64,0
14055,3060.666666,pitchwheel,47,3685,64,0
14056,3060.666666,note_off,47,3685,64,320
14057,3061.333333,note_on,45,3276,64,0
14058,3061.333333,pitchwheel,45,3276,64,0
14059,3061.333333,note_off,45,3276,64,320
14060,3062.000000,note_on,43,0,64,0
14061,3062.000000,note_off,43,0,64,320
14062,3062.666666,note_on,45,0,64,0
14063,3062.666666,note_off,45,0,64,160
14064,3063.000000,note_on,47,2457,64,0
14065,3063.000000,pitchwheel,47,2457,64,0
14066,3063.000000,note_off,47,2457,64,160
14067,3063.333333,note_on,47,3276,64,0
14068,3063.333333,pitchwheel,47,3276,64,0
14069,3063.333333,note_off,47,3276,64,320
14070,3064.000000,note_on,46,1638,64,0
14071,3064.000000,pitchwheel,46,1638,64,0
14072,3064.000000,note_off,46,1638,64,320
14073,3064.666666,note_on,41,1228,64,0
14074,3064.666666,pitchwheel,41,1228,64,0
14075,3064.666666,note_off,41,1228,64,160
14076,3065.000000,note_on,45,3276,64,0
14077,3065.000000,pitchwheel,45,3276,64,0
14078,3065.000000,note_off,45,3276,64,160
14079,3065.333333,note_on,41,0,64,0
14080,3065.333333,note_off,41,0,64,320
14081,3066.000000,note_on,43,2866,64,0
14082,3066.000000,pitchwheel,43,2866,64,0
14083,3066.000000,note_off,43,2866,64,320
14084,3066.666666,note_on,40,0,64,0
14085,3066.666666,note_off,40,0,64,160
14086,3067.000000,note_on,43,0,64,0
14087,3067.000000,note_off,43,0,64,160
14088,3067.333333,note_on,41,0,64,0
14089,3067.333333,note_off,41,0,64,320
14090,3068.000000,note_on,43,1638,64,0
14091,3068.000000,pitchwheel,43,1638,64,0
14092,3068.000000,note_off,43,1638,64,320
14093,3068.666666,note_on,45,1638,64,0
14094,3068.666666,pitchwheel,45,1638,64,0
14095,3068.666666,note_off,45,1638,64,160
14096,3069.000000,note_on,43,2866,64,0
14097,3069.000000,pitchwheel,43,2866,64,0
14098,3069.000000,note_off,43,2866,64,160
14099,3069.333333,note_on,44,0,64,0
14100,3069.333333,note_off,44,0,64,320
14101,3070.000000,note_on,43,0,64,0
14102,3070.000000,note_off,43,0,64,320
14103,3070.666666,note_on,47,2457,64,0
14104,3070.666666,pitchwheel,47,2457,64,0
14105,3070.666666,note_off,47,2457,64,160
14106,3071.000000,note_on,50,0,64,0
14107,3071.000000,note_off,50,0,64,480
14108,3072.000000,note_on,55,1638,64,0
14109,3072.000000,pitchwheel,55,1638,64,0
14110,3072.000000,note_off,55,1638,64,320
14111,3073.000000,note_on,50,2457,64,0
14112,3073.000000,pitchwheel,50,2457,64,0
14113,3073.000000,note_off,50,2457,64,160
14114,3073.333333,note_on,56,2047,64,0
14115,3073.333333,pitchwheel,56,2047,64,0
14116,3073.333333,note_off,56,2047,64,320
14117,3074.000000,note_on,57,0,64,0
14118,3074.000000,note_off,57,0,64,320
14119,3074.666666,note_on,58,1638,64,0
14120,3074.666666,pitchwheel,58,1638,64,0
14121,3074.666666,note_off,58,1638,64,160
14122,3075.000000,note_on,52,2457,64,0
14123,3075.000000,pitchwheel,52,2457,64,0
14124,3075.000000,note_off,52,2457,64,160
14125,3075.333333,note_on,48,2047,64,0
14126,3075.333333,pitchwheel,48,2047,64,0
14127,3075.333333,note_off,48,2047,64,320
14128,3076.000000,note_on,48,819,64,0
14129,3076.000000,pitchwheel,48,819,64,0
14130,3076.000000,note_off,48,819,64,320
14131,3076.666666,note_on,47,3276,64,0
14132,3076.666666,pitchwheel,47,3276,64,0
14133,3076.666666,note_off,47,3276,64,160
14134,3077.000000,note_on,53,1228,64,0
14135,3077.000000,pitchwheel,53,1228,64,0
14136,3077.000000,note_off,53,1228,64,160
14137,3077.333333,note_on,58,1638,64,0
14138,3077.333333,pitchwheel,58,1638,64,0
14139,3077.333333,note_off,58,1638,64,320
14140,3078.000000,note_on,57,0,64,0
14141,3078.000000,note_off,57,0,64,320
14142,3078.666666,note_on,50,3685,64,0
14143,3078.666666,pitchwheel,50,3685,64,0
14144,3078.666666,note_off,50,3685,64,320
14145,3079.333333,note_on,52,2457,64,0
14146,3079.333333,pitchwheel,52,2457,64,0
14147,3079.333333,note_off,52,2457,64,320
14148,3080.000000,note_on,51,819,64,0
14149,3080.000000,pitchwheel,51,819,64,0
14150,3080.000000,note_off,51,819,64,480
14151,3081.000000,note_on,48,2047,64,0
14152,3081.000000,pitchwheel,48,2047,64,0
14153,3081.000000,note_off,48,2047,64,160
14154,3081.333333,note_on,50,0,64,0
14155,3081.333333,note_off,50,0,64,320
14156,3082.000000,note_on,47,2457,64,0
14157,3082.000000,pitchwheel,47,2457,64,0
14158,3082.000000,note_off,47,2457,64,320
14159,3082.666666,note_on,46,1638,64,0
14160,3082.666666,pitchwheel,46,1638,64,0
14161,3082.666666,note_off,46,1638,64,160
14162,3083.000000,note_on,43,0,64,0
14163,3083.000000,note_off,43,0,64,160
14164,3083.333333,note_on,44,2047,64,0
14165,3083.333333,pitchwheel,44,2047,64,0
14166,3083.333333,note_off,44,2047,64,320
14167,3084.000000,note_on,38,2457,64,0
14168,3084.000000,pitchwheel,38,2457,64,0
14169,3084.000000,note_off,38,2457,64,320
14170,3084.666666,note_on,38,819,64,0
14171,3084.666666,pitchwheel,38,819,64,0
14172,3084.666666,note_off,38,819,64,160
14173,3085.000000,note_on,45,0,64,0
14174,3085.000000,note_off,45,0,64,160
14175,3085.333333,note_on,39,819,64,0
14176,3085.333333,pitchwheel,39,819,64,0
14177,3085.333333,note_off,39,819,64,320
14178,3086.000000,note_on,43,2866,64,0
14179,3086.000000,pitchwheel,43,2866,64,0
14180,3086.000000,note_off,43,2866,64,320
14181,3086.666666,note_on,43,0,64,0
14182,3086.666666,note_off,43,0,64,320
14183,3087.333333,note_on,38,0,64,0
14184,3087.333333,note_off,38,0,64,320
14185,3088.000000,note_on,38,819,64,0
14186,3088.000000,pitchwheel,38,819,64,0
14187,3088.000000,note_off,38,819,64,320
14188,3088.666666,note_on,38,2457,64,0
14189,3088.666666,pitchwheel,38,2457,64,0
14190,3088.666666,note_off,38,2457,64,320
14191,3089.333333,note_on,36,2047,64,0
14192,3089.333333,pitchwheel,36,2047,64,0
14193,3089.333333,note_off,36,2047,64,320
14194,3090.000000,note_on,47,2047,64,0
14195,3090.000000,pitchwheel,47,2047,64,0
14196,3090.000000,note_off,47,2047,64,320
14197,3090.666666,note_on,36,819,64,0
14198,3090.666666,pitchwheel,36,819,64,0
14199,3090.666666,note_off,36,819,64,160
14200,3091.000000,note_on,40,2457,64,0
14201,3091.000000,pitchwheel,40,2457,64,0
14202,3091.000000,note_off,40,2457,64,160
14203,3091.333333,note_on,41,1228,64,0
14204,3091.333333,pitchwheel,41,1228,64,0
14205,3091.333333,note_off,41,1228,64,320
14206,3092.000000,note_on,41,0,64,0
14207,3092.000000,note_off,41,0,64,480
14208,3093.000000,note_on,36,819,64,0
14209,3093.000000,pitchwheel,36,819,64,0
14210,3093.000000,note_off,36,819,64,160
14211,3093.333333,note_on,40,0,64,0
14212,3093.333333,note_off,40,0,64,320
14213,3094.000000,note_on,41,0,64,0
14214,3094.000000,note_off,41,0,64,480
14215,3095.000000,note_on,40,2457,64,0
14216,3095.000000,pitchwheel,40,2457,64,0
14217,3095.000000,note_off,40,2457,64,160
14218,3095.333333,note_on,38,819,64,0
14219,3095.333333,pitchwheel,38,819,64,0
14220,3095.333333,note_off,38,819,64,320
14221,3096.000000,note_on,38,2457,64,0
14222,3096.000000,pitchwheel,38,2457,64,0
14223,3096.000000,note_off,38,2457,64,320
14224,3097.000000,note_on,45,0,64,0
14225,3097.000000,note_off,45,0,64,160
14226,3097.333333,note_on,40,2457,64,0
14227,3097.333333,pitchwheel,40,2457,64,0
14228,3097.333333,note_off,40,2457,64,320
14229,3098.000000,note_on,38,3685,64,0
14230,3098.000000,pitchwheel,38,3685,64,0
14231,3098.000000,note_off,38,3685,64,320
14232,3098.666666,note_on,36,3276,64,0
14233,3098.666666,pitchwheel,36,3276,64,0
14234,3098.666666,note_off,36,3276,64,160
14235,3099.000000,note_on,38,819,64,0
14236,3099.000000,pitchwheel,38,819,64,0
14237,3099.000000,note_off,38,819,64,480
14238,3100.000000,note_on,44,2047,64,0
14239,3100.000000,pitchwheel,44,2047,64,0
14240,3100.000000,note_off,44,2047,64,320
14241,3100.666666,note_on,47,3276,64,0
14242,3100.666666,pitchwheel,47,3276,64,0
14243,3100.666666,note_off,47,3276,64,320
14244,3101.333333,note_on,46,0,64,0
14245,3101.333333,note_off,46,0,64,320
14246,3102.000000,note_on,38,0,64,0
14247,3102.000000,note_off,38,0,64,320
14248,3102.666666,note_on,36,819,64,0
14249,3102.666666,pitchwheel,36,819,64,0
14250,3102.666666,note_off,36,819,64,160
14251,3103.000000,note_on,43,1638,64,0
14252,3103.000000,pitchwheel,43,1638,64,0
14253,3103.000000,note_off,43,1638,64,160
14254,3103.333333,note_on,38,819,64,0
14255,3103.333333,pitchwheel,38,819,64,0
14256,3103.333333,note_off,38,819,64,320
14257,3104.000000,note_on,36,819,64,0
14258,3104.000000,pitchwheel,36,819,64,0
14259,3104.000000,note_off,36,819,64,320
14260,3104.666666,note_on,45,0,64,0
14261,3104.666666,note_off,45,0,64,160
14262,3105.000000,note_on,37,0,64,0
14263,3105.000000,note_off,37,0,64,480
14264,3106.000000,note_on,38,2457,64,0
14265,3106.000000,pitchwheel,38,2457,64,0
14266,3106.000000,note_off,38,2457,64,320
14267,3106.666666,note_on,43,0,64,0
14268,3106.666666,note_off,43,0,64,160
14269,3107.000000,note_on,47,3276,64,0
14270,3107.000000,pitchwheel,47,3276,64,0
14271,3107.000000,note_off,47,3276,64,480
14272,3108.000000,note_on,46,1638,64,0
14273,3108.000000,pitchwheel,46,1638,64,0
14274,3108.000000,note_off,46,1638,64,320
14275,3108.666666,note_on,47,2457,64,0
14276,3108.666666,pitchwheel,47,2457,64,0
14277,3108.666666,note_off,47,2457,64,160
14278,3109.000000,note_on,43,1638,64,0
14279,3109.000000,pitchwheel,43,1638,64,0
14280,3109.000000,note_off,43,1638,64,160
14281,3109.333333,note_on,46,0,64,0
14282,3109.333333,note_off,46,0,64,320
14283,3110.000000,note_on,45,3276,64,0
14284,3110.000000,pitchwheel,45,3276,64,0
14285,3110.000000,note_off,45,3276,64,320
14286,3110.666666,note_on,43,2866,64,0
14287,3110.666666,pitchwheel,43,2866,64,0
14288,3110.666666,note_off,43,2866,64,160
14289,3111.000000,note_on,41,0,64,0
14290,3111.000000,note_off,41,0,64,160
14291,3111.333333,note_on,43,0,64,0
14292,3111.333333,note_off,43,0,64,320
14293,3112.000000,note_on,43,1638,64,0
14294,3112.000000,pitchwheel,43,1638,64,0
14295,3112.000000,note_off,43,1638,64,320
14296,3112.666666,note_on,43,2866,64,0
14297,3112.666666,pitchwheel,43,2866,64,0
14298,3112.666666,note_off,43,2866,64,160
14299,3113.000000,note_on,38,3685,64,0
14300,3113.000000,pitchwheel,38,3685,64,0
14301,3113.000000,note_off,38,3685,64,160
14302,3113.333333,note_on,43,0,64,0
14303,3113.333333,note_off,43,0,64,320
14304,3114.000000,note_on,38,0,64,0
14305,3114.000000,note_off,38,0,64,480
14306,3115.000000,note_on,45,1638,64,0
14307,3115.000000,pitchwheel,45,1638,64,0
14308,3115.000000,note_off,45,1638,64,160
14309,3115.333333,note_on,50,2457,64,0
14310,3115.333333,pitchwheel,50,2457,64,0
14311,3115.333333,note_off,50,2457,64,320
14312,3116.000000,note_on,45,0,64,0
14313,3116.000000,note_off,45,0,64,320
14314,3116.666666,note_on,40,2457,64,0
14315,3116.666666,pitchwheel,40,2457,64,0
14316,3116.666666,note_off,40,2457,64,160
14317,3117.000000,note_on,41,0,64,0
14318,3117.000000,note_off,41,0,64,160
14319,3117.333333,note_on,44,0,64,0
14320,3117.333333,note_off,44,0,64,320
14321,3118.000000,note_on,41,1228,64,0
14322,3118.000000,pitchwheel,41,1228,64,0
14323,3118.000000,note_off,41,1228,64,320
14324,3118.666666,note_on,41,0,64,0
14325,3118.666666,note_off,41,0,64,320
14326,3120.000000,note_on,43,0,64,0
14327,3120.000000,note_off,43,0,64,320
14328,3120.666666,note_on,48,2047,64,0
14329,3120.666666,pitchwheel,48,2047,64,0
14330,3120.666666,note_off,48,2047,64,160
14331,3121.000000,note_on,53,0,64,0
14332,3121.000000,note_off,53,0,64,480
14333,3122.000000,note_on,48,2047,64,0
14334,3122.000000,pitchwheel,48,2047,64,0
14335,3122.000000,note_off,48,2047,64,480
14336,3123.000000,note_on,52,2457,64,0
14337,3123.000000,pitchwheel,52,2457,64,0
14338,3123.000000,note_off,52,2457,64,160
14339,3123.333333,note_on,57,0,64,0
14340,3123.333333,note_off,57,0,64,320
14341,3124.000000,note_on,58,0,64,0
14342,3124.000000,note_off,58,0,64,480
14343,3125.000000,note_on,59,2047,64,0
14344,3125.000000,pitchwheel,59,2047,64,0
14345,3125.000000,note_off,59,2047,64,160
14346,3125.333333,note_on,59,3685,64,0
14347,3125.333333,pitchwheel,59,3685,64,0
14348,3125.333333,note_off,59,3685,64,320
14349,3126.000000,note_on,58,0,64,0
14350,3126.000000,note_off,58,0,64,320
14351,3126.666666,note_on,59,2047,64,0
14352,3126.666666,pitchwheel,59,2047,64,0
14353,3126.666666,note_off,59,2047,64,320
14354,3127.333333,note_on,52,2457,64,0
14355,3127.333333,pitchwheel,52,2457,64,0
14356,3127.333333,note_off,52,2457,64,320
14357,3128.000000,note_on,53,2457,64,0
14358,3128.000000,pitchwheel,53,2457,64,0
14359,3128.000000,note_off,53,2457,64,320
14360,3128.666666,note_on,48,819,64,0
14361,3128.666666,pitchwheel,48,819,64,0
14362,3128.666666,note_off,48,819,64,320
14363,3129.333333,note_on,59,3685,64,0
14364,3129.333333,pitchwheel,59,3685,64,0
14365,3129.333333,note_off,59,3685,64,320
14366,3130.000000,note_on,52,2457,64,0
14367,3130.000000,pitchwheel,52,2457,64,0
14368,3130.000000,note_off,52,2457,64,480
14369,3131.000000,note_on,50,819,64,0
14370,3131.000000,pitchwheel,50,819,64,0
14371,3131.000000,note_off,50,819,64,160
14372,3131.333333,note_on,57,0,64,0
14373,3131.333333,note_off,57,0,64,320
14374,3132.000000,note_on,51,819,64,0
14375,3132.000000,pitchwheel,51,819,64,0
14376,3132.000000,note_off,51,819,64,320
14377,3132.666666,note_on,50,819,64,0
14378,3132.666666,pitchwheel,50,819,64,0
14379,3132.666666,note_off,50,819,64,160
14380,3133.000000,note_on,48,819,64,0
14381,3133.000000,pitchwheel,48,819,64,0
14382,3133.000000,note_off,48,819,64,160
14383,3133.333333,note_on,47,3276,64,0
14384,3133.333333,pitchwheel,47,3276,64,0
14385,3133.333333,note_off,47,3276,64,320
14386,3134.000000,note_on,48,2047,64,0
14387,3134.000000,pitchwheel,48,2047,64,0
14388,3134.000000,note_off,48,2047,64,320
14389,3134.666666,note_on,50,0,64,0
14390,3134.666666,note_off,50,0,64,160
14391,3135.000000,note_on,55,0,64,0
14392,3135.000000,note_off,55,0,64,160
14393,3135.333333,note_on,55,1638,64,0
14394,3135.333333,pitchwheel,55,1638,64,0
14395,3135.333333,note_off,55,1638,64,320
14396,3136.000000,note_on,59,2457,64,0
14397,3136.000000,pitchwheel,59,2457,64,0
14398,3136.000000,note_off,59,2457,64,320
14399,3136.666666,note_on,49,0,64,0
14400,3136.666666,note_off,49,0,64,160
14401,3137.000000,note_on,57,0,64,0
14402,3137.000000,note_off,57,0,64,160
14403,3137.333333,note_on,50,2457,64,0
14404,3137.333333,pitchwheel,50,2457,64,0
14405,3137.333333,note_off,50,2457,64,320
14406,3138.000000,note_on,59,3276,64,0
14407,3138.000000,pitchwheel,59,3276,64,0
14408,3138.000000,note_off,59,3276,64,320
14409,3138.666666,note_on,58,1638,64,0
14410,3138.666666,pitchwheel,58,1638,64,0
14411,3138.666666,note_off,58,1638,64,160
14412,3139.000000,note_on,59,3276,64,0
14413,3139.000000,pitchwheel,59,3276,64,0
14414,3139.000000,note_off,59,3276,64,160
14415,3139.333333,note_on,55,1638,64,0
14416,3139.333333,pitchwheel,55,1638,64,0
14417,3139.333333,note_off,55,1638,64,320
14418,3140.000000,note_on,55,409,64,0
14419,3140.000000,pitchwheel,55,409,64,0
14420,3140.000000,note_off,55,409,64,320
14421,3140.666666,note_on,53,0,64,0
14422,3140.666666,note_off,53,0,64,320
14423,3141.333333,note_on,58,1638,64,0
14424,3141.333333,pitchwheel,58,1638,64,0
14425,3141.333333,note_off,58,1638,64,320
14426,3142.000000,note_on,50,3685,64,0
14427,3142.000000,pitchwheel,50,3685,64,0
14428,3142.000000,note_off,50,3685,64,320
14429,3142.666666,note_on,48,2047,64,0
14430,3142.666666,pitchwheel,48,2047,64,0
14431,3142.666666,note_off,48,2047,64,160
14432,3143.000000,note_on,58,409,64,0
14433,3143.000000,pitchwheel,58,409,64,0
14434,3143.000000,note_off,58,409,64,160
14435,3143.333333,note_on,57,1638,64,0
14436,3143.333333,pitchwheel,57,1638,64,0
14437,3143.333333,note_off,57,1638,64,320
14438,3144.000000,note_on,50,0,64,0
14439,3144.000000,note_off,50,0,64,320
14440,3144.666666,note_on,53,0,64,0
14441,3144.666666,note_off,53,0,64,160
14442,3145.000000,note_on,59,2047,64,0
14443,3145.000000,pitchwheel,59,2047,64,0
14444,3145.000000,note_off,59,2047,64,160
14445,3145.333333,note_on,52,2866,64,0
14446,3145.333333,pitchwheel,52,2866,64,0
14447,3145.333333,note_off,52,2866,64,320
14448,3146.000000,note_on,53,1228,64,0
14449,3146.000000,pitchwheel,53,1228,64,0
14450,3146.000000,note_off,53,1228,64,320
14451,3146.666666,note_on,51,819,64,0
14452,3146.666666,pitchwheel,51,819,64,0
14453,3146.666666,note_off,51,819,64,160
14454,3147.000000,note_on,57,1638,64,0
14455,3147.000000,pitchwheel,57,1638,64,0
14456,3147.000000,note_off,57,1638,64,160
14457,3147.333333,note_on,53,0,64,0
14458,3147.333333,note_off,53,0,64,320
14459,3148.000000,note_on,56,0,64,0
14460,3148.000000,note_off,56,0,64,320
14461,3148.666666,note_on,52,2457,64,0
14462,3148.666666,pitchwheel,52,2457,64,0
14463,3148.666666,note_off,52,2457,64,160
14464,3149.000000,note_on,53,0,64,0
14465,3149.000000,note_off,53,0,64,160
14466,3149.333333,note_on,48,3276,64,0
14467,3149.333333,pitchwheel,48,3276,64,0
14468,3149.333333,note_off,48,3276,64,320
14469,3150.000000,note_on,47,2047,64,0
14470,3150.000000,pitchwheel,47,2047,64,0
14471,3150.000000,note_off,47,2047,64,320
14472,3150.666666,note_on,46,0,64,0
14473,3150.666666,note_off,46,0,64,160
14474,3151.000000,note_on,48,2047,64,0
14475,3151.000000,pitchwheel,48,2047,64,0
14476,3151.000000,note_off,48,2047,64,480
14477,3152.000000,note_on,48,3276,64,0
14478,3152.000000,pitchwheel,48,3276,64,0
14479,3152.000000,note_off,48,3276,64,480
14480,3153.000000,note_on,50,2457,64,0
14481,3153.000000,pitchwheel,50,2457,64,0
14482,3153.000000,note_off,50,2457,64,160
14483,3153.333333,note_on,53,0,64,0
14484,3153.333333,note_off,53,0,64,320
14485,3154.000000,note_on,50,819,64,0
14486,3154.000000,pitchwheel,50,819,64,0
14487,3154.000000,note_off,50,819,64,320
14488,3154.666666,note_on,51,819,64,0
14489,3154.666666,pitchwheel,51,819,64,0
14490,3154.666666,note_off,51,819,64,160
14491,3155.000000,note_on,55,0,64,0
14492,3155.000000,note_off,55,0,64,160
14493,3155.333333,note_on,48,819,64,0
14494,3155.333333,pitchwheel,48,819,64,0
14495,3155.333333,note_off,48,819,64,320
14496,3156.000000,note_on,48,2047,64,0
14497,3156.000000,pitchwheel,48,2047,64,0
14498,3156.000000,note_off,48,2047,64,320
14499,3156.666666,note_on,55,0,64,0
14500,3156.666666,note_off,55,0,64,160
14501,3157.000000,note_on,55,1638,64,0
14502,3157.000000,pitchwheel,55,1638,64,0
14503,3157.000000,note_off,55,1638,64,160
14504,3157.333333,note_on,56,0,64,0
14505,3157.333333,note_off,56,0,64,320
14506,3158.000000,note_on,57,0,64,0
14507,3158.000000,note_off,57,0,64,480
14508,3159.333333,note_on,59,3276,64,0
14509,3159.333333,pitchwheel,59,3276,64,0
14510,3159.333333,note_off,59,3276,64,320
14511,3160.000000,note_on,59,3685,64,0
14512,3160.000000,pitchwheel,59,3685,64,0
14513,3160.000000,note_off,59,3685,64,480
14514,3161.000000,note_on,50,2457,64,0
14515,3161.000000,pitchwheel,50,2457,64,0
14516,3161.000000,note_off,50,2457,64,160
14517,3161.333333,note_on,59,3276,64,0
14518,3161.333333,pitchwheel,59,3276,64,0
14519,3161.333333,note_off,59,3276,64,320
14520,3162.000000,note_on,58,409,64,0
14521,3162.000000,pitchwheel,58,409,64,0
14522,3162.000000,note_off,58,409,64,320
14523,3162.666666,note_on,50,0,64,0
14524,3162.666666,note_off,50,0,64,160
14525,3163.000000,note_on,50,819,64,0
14526,3163.000000,pitchwheel,50,819,64,0
14527,3163.000000,note_off,50,819,64,160
14528,3163.333333,note_on,59,2047,64,0
14529,3163.333333,pitchwheel,59,2047,64,0
14530,3163.333333,note_off,59,2047,64,320
14531,3164.000000,note_on,50,2457,64,0
14532,3164.000000,pitchwheel,50,2457,64,0
14533,3164.000000,note_off,50,2457,64,320
14534,3164.666666,note_on,57,1638,64,0
14535,3164.666666,pitchwheel,57,1638,64,0
14536,3164.666666,note_off,57,1638,64,160
14537,3165.000000,note_on,50,3685,64,0
14538,3165.000000,pitchwheel,50,3685,64,0
14539,3165.000000,note_off,50,3685,64,160
14540,3165.333333,note_on,56,0,64,0
14541,3165.333333,note_off,56,0,64,320
14542,3166.000000,note_on,53,0,64,0
14543,3166.000000,note_off,53,0,64,320
14544,3166.666666,note_on,57,1638,64,0
14545,3166.666666,pitchwheel,57,1638,64,0
14546,3166.666666,note_off,57,1638,64,320
14547,3167.333333,note_on,48,2047,64,0
14548,3167.333333,pitchwheel,48,2047,64,0
14549,3167.333333,note_off,48,2047,64,320
14550,3168.000000,note_on,48,3276,64,0
14551,3168.000000,pitchwheel,48,3276,64,0
14552,3168.000000,note_off,48,3276,64,320
14553,3168.666666,note_on,50,2457,64,0
14554,3168.666666,pitchwheel,50,2457,64,0
14555,3168.666666,note_off,50,2457,64,320
14556,3169.333333,note_on,57,0,64,0
14557,3169.333333,note_off,57,0,64,320
14558,3170.000000,note_on,55,0,64,0
14559,3170.000000,note_off,55,0,64,320
14560,3170.666666,note_on,55,409,64,0
14561,3170.666666,pitchwheel,55,409,64,0
14562,3170.666666,note_off,55,409,64,160
14563,3171.000000,note_on,52,2457,64,0
14564,3171.000000,pitchwheel,52,2457,64,0
14565,3171.000000,note_off,52,2457,64,160
14566,3171.333333,note_on,55,1638,64,0
14567,3171.333333,pitchwheel,55,1638,64,0
14568,3171.333333,note_off,55,1638,64,320
14569,3172.000000,note_on,55,2866,64,0
14570,3172.000000,pitchwheel,55,2866,64,0
14571,3172.000000,note_off,55,2866,64,480
14572,3173.000000,note_on,48,819,64,0
14573,3173.000000,pitchwheel,48,819,64,0
14574,3173.000000,note_off,48,819,64,160
14575,3173.333333,note_on,55,0,64,0
14576,3173.333333,note_off,55,0,64,320
14577,3174.000000,note_on,50,2457,64,0
14578,3174.000000,pitchwheel,50,2457,64,0
14579,3174.000000,note_off,50,2457,64,480
14580,3175.000000,note_on,45,1638,64,0
14581,3175.000000,pitchwheel,45,1638,64,0
14582,3175.000000,note_off,45,1638,64,160
14583,3175.333333,note_on,50,819,64,0
14584,3175.333333,pitchwheel,50,819,64,0
14585,3175.333333,note_off,50,819,64,320
14586,3176.000000,note_on,50,2457,64,0
14587,3176.000000,pitchwheel,50,2457,64,0
14588,3176.000000,note_off,50,2457,64,320
14589,3176.666666,note_on,50,3685,64,0
14590,3176.666666,pitchwheel,50,3685,64,0
14591,3176.666666,note_off,50,3685,64,160
14592,3177.000000,note_on,45,0,64,0
14593,3177.000000,note_off,45,0,64,160
14594,3177.333333,note_on,46,0,64,0
14595,3177.333333,note_off,46,0,64,320
14596,3178.000000,note_on,48,2047,64,0
14597,3178.000000,pitchwheel,48,2047,64,0
14598,3178.000000,note_off,48,2047,64,320
14599,3178.666666,note_on,46,1638,64,0
14600,3178.666666,pitchwheel,46,1638,64,0
14601,3178.666666,note_off,46,1638,64,160
14602,3179.000000,note_on,43,0,64,0
14603,3179.000000,note_off,43,0,64,480
14604,3180.000000,note_on,47,3276,64,0
14605,3180.000000,pitchwheel,47,3276,64,0
14606,3180.000000,note_off,47,3276,64,320
14607,3180.666666,note_on,52,2457,64,0
14608,3180.666666,pitchwheel,52,2457,64,0
14609,3180.666666,note_off,52,2457,64,320
14610,3181.333333,note_on,53,2457,64,0
14611,3181.333333,pitchwheel,53,2457,64,0
14612,3181.333333,note_off,53,2457,64,320
14613,3182.000000,note_on,50,3685,64,0
14614,3182.000000,pitchwheel,50,3685,64,0
14615,3182.000000,note_off,50,3685,64,320
14616,3182.666666,note_on,48,2047,64,0
14617,3182.666666,pitchwheel,48,2047,64,0
14618,3182.666666,note_off,48,2047,64,160
14619,3183.000000,note_on,45,2047,64,0
14620,3183.000000,pitchwheel,45,2047,64,0
14621,3183.000000,note_off,45,2047,64,160
14622,3183.333333,note_on,45,1638,64,0
14623,3183.333333,pitchwheel,45,1638,64,0
14624,3183.333333,note_off,45,1638,64,320
14625,3184.000000,note_on,46,1638,64,0
14626,3184.000000,pitchwheel,46,1638,64,0
14627,3184.000000,note_off,46,1638,64,320
14628,3184.666666,note_on,45,0,64,0
14629,3184.666666,note_off,45,0,64,160
14630,3185.000000,note_on,44,2047,64,0
14631,3185.000000,pitchwheel,44,2047,64,0
14632,3185.000000,note_off,44,2047,64,160
14633,3185.333333,note_on,48,2047,64,0
14634,3185.333333,pitchwheel,48,2047,64,0
14635,3185.333333,note_off,48,2047,64,320
14636,3186.000000,note_on,43,0,64,0
14637,3186.000000,note_off,43,0,64,320
14638,3186.666666,note_on,47,3276,64,0
14639,3186.666666,pitchwheel,47,3276,64,0
14640,3186.666666,note_off,47,3276,64,160
14641,3187.000000,note_on,45,1638,64,0
14642,3187.000000,pitchwheel,45,1638,64,0
14643,3187.000000,note_off,45,1638,64,480
14644,3188.000000,note_on,45,2047,64,0
14645,3188.000000,pitchwheel,45,2047,64,0
14646,3188.000000,note_off,45,2047,64,480
14647,3189.000000,note_on,41,0,64,0
14648,3189.000000,note_off,41,0,64,160
14649,3189.333333,note_on,46,1638,64,0
14650,3189.333333,pitchwheel,46,1638,64,0
14651,3189.333333,note_off,46,1638,64,320
14652,3190.000000,note_on,44,2047,64,0
14653,3190.000000,pitchwheel,44,2047,64,0
14654,3190.000000,note_off,44,2047,64,320
14655,3190.666666,note_on,38,3685,64,0
14656,3190.666666,pitchwheel,38,3685,64,0
14657,3190.666666,note_off,38,3685,64,160
14658,3191.000000,note_on,43,409,64,0
14659,3191.000000,pitchwheel,43,409,64,0
14660,3191.000000,note_off,43,409,64,160
14661,3191.333333,note_on,45,1638,64,0
14662,3191.333333,pitchwheel,45,1638,64,0
14663,3191.333333,note_off,45,1638,64,320
14664,3192.000000,note_on,45,2047,64,0
14665,3192.000000,pitchwheel,45,2047,64,0
14666,3192.000000,note_off,45,2047,64,320
14667,3192.666666,note_on,41,0,64,0
14668,3192.666666,note_off,41,0,64,320
14669,3193.333333,note_on,38,1228,64,0
14670,3193.333333,pitchwheel,38,1228,64,0
14671,3193.333333,note_off,38,1228,64,320
14672,3194.000000,note_on,43,409,64,0
14673,3194.000000,pitchwheel,43,409,64,0
14674,3194.000000,note_off,43,409,64,320
14675,3194.666666,note_on,45,3276,64,0
14676,3194.666666,pitchwheel,45,3276,64,0
14677,3194.666666,note_off,45,3276,64,160
14678,3195.000000,note_on,47,3276,64,0
14679,3195.000000,pitchwheel,47,3276,64,0
14680,3195.000000,note_off,47,3276,64,160
14681,3195.333333,note_on,53,0,64,0
14682,3195.333333,note_off,53,0,64,320
14683,3196.000000,note_on,58,409,64,0
14684,3196.000000,pitchwheel,58,409,64,0
14685,3196.000000,note_off,58,409,64,320
14686,3196.666666,note_on,59,3276,64,0
14687,3196.666666,pitchwheel,59,3276,64,0
14688,3196.666666,note_off,59,3276,64,160
14689,3197.000000,note_on,55,1638,64,0
14690,3197.000000,pitchwheel,55,1638,64,0
14691,3197.000000,note_off,55,1638,64,160
14692,3197.333333,note_on,58,1638,64,0
14693,3197.333333,pitchwheel,58,1638,64,0
14694,3197.333333,note_off,58,1638,64,320
14695,3198.000000,note_on,55,2866,64,0
14696,3198.000000,pitchwheel,55,2866,64,0
14697,3198.000000,note_off,55,2866,64,320
