,Start,Message,Note,Pitch,Velocity,Time
0,0.0,note_on,40,0,64,0
1,0.0,note_off,40,0,64,320
2,0.666667,note_on,41,0,64,0
3,0.666667,note_off,41,0,64,640
4,2.0,note_on,43,0,64,0
5,2.0,note_off,43,0,64,320
6,2.666667,note_on,44,0,64,0
7,2.666667,note_off,44,0,64,320
8,3.333333,note_on,41,0,64,0
9,3.333333,note_off,41,0,64,320
10,4.0,note_on,43,0,64,0
11,4.0,note_off,43,0,64,320
12,5.333333,note_on,43,409,64,0
13,5.333333,pitchwheel,43,409,64,0
14,5.333333,note_off,43,409,64,320
15,6.666667,note_on,43,0,64,0
16,6.666667,note_off,43,0,64,320
17,7.333333,note_on,45,1638,64,0
18,7.333333,pitchwheel,45,1638,64,0
19,7.333333,note_off,45,1638,64,320
20,8.0,note_on,46,0,64,0
21,8.0,note_off,46,0,64,320
22,8.666667,note_on,41,0,64,0
23,8.666667,note_off,41,0,64,320
24,9.333333,note_on,41,1228,64,0
25,9.333333,pitchwheel,41,1228,64,0
26,9.333333,note_off,41,1228,64,320
27,10.0,note_on,43,0,64,0
28,10.0,note_off,43,0,64,320
29,10.666667,note_on,43,409,64,0
30,10.666667,pitchwheel,43,409,64,0
31,10.666667,note_off,43,409,64,320
32,11.333333,note_on,45,0,64,0
33,11.333333,note_off,45,0,64,320
34,12.666667,note_on,47,3276,64,0
35,12.666667,pitchwheel,47,3276,64,0
36,12.666667,note_off,47,3276,64,320
37,13.333333,note_on,48,3276,64,0
38,13.333333,pitchwheel,48,3276,64,0
39,13.333333,note_off,48,3276,64,320
40,14.666667,note_on,45,1638,64,0
41,14.666667,pitchwheel,45,1638,64,0
42,14.666667,note_off,45,1638,64,320
43,15.333333,note_on,47,2457,64,0
44,15.333333,pitchwheel,47,2457,64,0
45,15.333333,note_off,47,2457,64,320
46,16.0,note_on,46,1638,64,0
47,16.0,pitchwheel,46,1638,64,0
48,16.0,note_off,46,1638,64,320
49,16.666667,note_on,47,2047,64,0
50,16.666667,pitchwheel,47,2047,64,0
51,16.666667,note_off,47,2047,64,320
52,17.333333,note_on,53,0,64,0
53,17.333333,note_off,53,0,64,320
54,18.0,note_on,50,819,64,0
55,18.0,pitchwheel,50,819,64,0
56,18.0,note_off,50,819,64,320
57,18.666667,note_on,51,819,64,0
58,18.666667,pitchwheel,51,819,64,0
59,18.666667,note_off,51,819,64,320
60,19.333333,note_on,45,3276,64,0
61,19.333333,pitchwheel,45,3276,64,0
62,19.333333,note_off,45,3276,64,320
63,20.0,note_on,46,0,64,0
64,20.0,note_off,46,0,64,320
65,20.666667,note_on,50,0,64,0
66,20.666667,note_off,50,0,64,320
67,21.333333,note_on,45,2047,64,0
68,21.333333,pitchwheel,45,2047,64,0
69,21.333333,note_off,45,2047,64,320
70,22.0,note_on,50,2457,64,0
71,22.0,pitchwheel,50,2457,64,0
72,22.0,note_off,50,2457,64,320
73,22.666667,note_on,45,0,64,0
74,22.666667,note_off,45,0,64,320
75,23.333333,note_on,40,2457,64,0
76,23.333333,pitchwheel,40,2457,64,0
77,23.333333,note_off,40,2457,64,320
78,24.0,note_on,41,2457,64,0
79,24.0,pitchwheel,41,2457,64,0
80,24.0,note_off,41,2457,64,320
81,24.666667,note_on,36,819,64,0
82,24.666667,pitchwheel,36,819,64,0
83,24.666667,note_off,36,819,64,320
84,25.333333,note_on,36,2047,64,0
85,25.333333,pitchwheel,36,2047,64,0
86,25.333333,note_off,36,2047,64,320
87,26.666667,note_on,36,3276,64,0
88,26.666667,pitchwheel,36,3276,64,0
89,26.666667,note_off,36,3276,64,320
90,27.333333,note_on,36,2047,64,0
91,27.333333,pitchwheel,36,2047,64,0
92,27.333333,note_off,36,2047,64,320
93,28.666667,note_on,33,1638,64,0
94,28.666667,pitchwheel,33,1638,64,0
95,28.666667,note_off,33,1638,64,640
96,30.666667,note_on,34,0,64,0
97,30.666667,note_off,34,0,64,320
98,32.0,note_on,34,0,64,0
99,32.0,note_off,34,0,64,320
100,33.333333,note_on,35,2047,64,0
101,33.333333,pitchwheel,35,2047,64,0
102,33.333333,note_off,35,2047,64,320
103,34.0,note_on,31,0,64,0
104,34.0,note_off,31,0,64,320
105,34.666667,note_on,29,0,64,0
106,34.666667,note_off,29,0,64,320
107,35.333333,note_on,40,2866,64,0
108,35.333333,pitchwheel,40,2866,64,0
109,35.333333,note_off,40,2866,64,320
110,36.0,note_on,38,819,64,0
111,36.0,pitchwheel,38,819,64,0
112,36.0,note_off,38,819,64,320
113,36.666667,note_on,33,1638,64,0
114,36.666667,pitchwheel,33,1638,64,0
115,36.666667,note_off,33,1638,64,320
116,37.333333,note_on,33,2047,64,0
117,37.333333,pitchwheel,33,2047,64,0
118,37.333333,note_off,33,2047,64,320
119,38.0,note_on,33,0,64,0
120,38.0,note_off,33,0,64,320
121,38.666667,note_on,33,3276,64,0
122,38.666667,pitchwheel,33,3276,64,0
123,38.666667,note_off,33,3276,64,320
124,39.333333,note_on,40,2457,64,0
125,39.333333,pitchwheel,40,2457,64,0
126,39.333333,note_off,40,2457,64,320
127,40.0,note_on,36,3276,64,0
128,40.0,pitchwheel,36,3276,64,0
129,40.0,note_off,36,3276,64,320
130,41.333333,note_on,38,0,64,0
131,41.333333,note_off,38,0,64,320
132,42.0,note_on,43,1638,64,0
133,42.0,pitchwheel,43,1638,64,0
134,42.0,note_off,43,1638,64,320
135,42.666667,note_on,43,409,64,0
136,42.666667,pitchwheel,43,409,64,0
137,42.666667,note_off,43,409,64,320
138,43.333333,note_on,41,0,64,0
139,43.333333,note_off,41,0,64,320
140,44.0,note_on,38,2457,64,0
141,44.0,pitchwheel,38,2457,64,0
142,44.0,note_off,38,2457,64,320
143,44.666667,note_on,38,819,64,0
144,44.666667,pitchwheel,38,819,64,0
145,44.666667,note_off,38,819,64,320
146,45.333333,note_on,34,1638,64,0
147,45.333333,pitchwheel,34,1638,64,0
148,45.333333,note_off,34,1638,64,320
149,46.0,note_on,33,2047,64,0
150,46.0,pitchwheel,33,2047,64,0
151,46.0,note_off,33,2047,64,320
152,46.666667,note_on,29,1228,64,0
153,46.666667,pitchwheel,29,1228,64,0
154,46.666667,note_off,29,1228,64,320
155,47.333333,note_on,29,0,64,0
156,47.333333,note_off,29,0,64,320
157,48.0,note_on,41,2457,64,0
158,48.0,pitchwheel,41,2457,64,0
159,48.0,note_off,41,2457,64,320
160,48.666667,note_on,38,3685,64,0
161,48.666667,pitchwheel,38,3685,64,0
162,48.666667,note_off,38,3685,64,320
163,49.333333,note_on,36,819,64,0
164,49.333333,pitchwheel,36,819,64,0
165,49.333333,note_off,36,819,64,320
166,50.0,note_on,35,3276,64,0
167,50.0,pitchwheel,35,3276,64,0
168,50.0,note_off,35,3276,64,640
169,51.333333,note_on,35,3685,64,0
170,51.333333,pitchwheel,35,3685,64,0
171,51.333333,note_off,35,3685,64,320
172,52.0,note_on,36,819,64,0
173,52.0,pitchwheel,36,819,64,0
174,52.0,note_off,36,819,64,320
175,53.333333,note_on,36,3276,64,0
176,53.333333,pitchwheel,36,3276,64,0
177,53.333333,note_off,36,3276,64,320
178,54.0,note_on,41,0,64,0
179,54.0,note_off,41,0,64,320
180,54.666667,note_on,36,2047,64,0
181,54.666667,pitchwheel,36,2047,64,0
182,54.666667,note_off,36,2047,64,320
183,55.333333,note_on,35,3276,64,0
184,55.333333,pitchwheel,35,3276,64,0
185,55.333333,note_off,35,3276,64,320
186,56.0,note_on,39,819,64,0
187,56.0,pitchwheel,39,819,64,0
188,56.0,note_off,39,819,64,320
189,56.666667,note_on,45,0,64,0
190,56.666667,note_off,45,0,64,320
191,57.333333,note_on,45,1638,64,0
192,57.333333,pitchwheel,45,1638,64,0
193,57.333333,note_off,45,1638,64,320
194,58.666667,note_on,45,1638,64,0
195,58.666667,pitchwheel,45,1638,64,0
196,58.666667,note_off,45,1638,64,320
197,60.0,note_on,40,0,64,0
198,60.0,note_off,40,0,64,320
199,60.666667,note_on,45,1638,64,0
200,60.666667,pitchwheel,45,1638,64,0
201,60.666667,note_off,45,1638,64,320
202,61.333333,note_on,46,0,64,0
203,61.333333,note_off,46,0,64,320
204,62.0,note_on,43,2866,64,0
205,62.0,pitchwheel,43,2866,64,0
206,62.0,note_off,43,2866,64,320
207,62.666667,note_on,43,1638,64,0
208,62.666667,pitchwheel,43,1638,64,0
209,62.666667,note_off,43,1638,64,320
210,63.333333,note_on,47,3276,64,0
211,63.333333,pitchwheel,47,3276,64,0
212,63.333333,note_off,47,3276,64,320
213,64.0,note_on,47,3685,64,0
214,64.0,pitchwheel,47,3685,64,0
215,64.0,note_off,47,3685,64,320
216,64.666667,note_on,45,0,64,0
217,64.666667,note_off,45,0,64,320
218,66.0,note_on,43,0,64,0
219,66.0,note_off,43,0,64,640
220,68.0,note_on,43,0,64,0
221,68.0,note_off,43,0,64,320
222,68.666667,note_on,46,409,64,0
223,68.666667,pitchwheel,46,409,64,0
224,68.666667,note_off,46,409,64,320
225,69.333333,note_on,41,0,64,0
226,69.333333,note_off,41,0,64,320
227,70.0,note_on,35,2047,64,0
228,70.0,pitchwheel,35,2047,64,0
229,70.0,note_off,35,2047,64,320
230,70.666667,note_on,40,2866,64,0
231,70.666667,pitchwheel,40,2866,64,0
232,70.666667,note_off,40,2866,64,320
233,71.333333,note_on,40,2457,64,0
234,71.333333,pitchwheel,40,2457,64,0
235,71.333333,note_off,40,2457,64,320
236,72.0,note_on,38,819,64,0
237,72.0,pitchwheel,38,819,64,0
238,72.0,note_off,38,819,64,320
239,72.666667,note_on,38,3685,64,0
240,72.666667,pitchwheel,38,3685,64,0
241,72.666667,note_off,38,3685,64,320
242,73.333333,note_on,33,1638,64,0
243,73.333333,pitchwheel,33,1638,64,0
244,73.333333,note_off,33,1638,64,320
245,74.0,note_on,36,2047,64,0
246,74.0,pitchwheel,36,2047,64,0
247,74.0,note_off,36,2047,64,320
248,74.666667,note_on,39,819,64,0
249,74.666667,pitchwheel,39,819,64,0
250,74.666667,note_off,39,819,64,320
251,75.333333,note_on,38,2457,64,0
252,75.333333,pitchwheel,38,2457,64,0
253,75.333333,note_off,38,2457,64,320
254,76.0,note_on,33,0,64,0
255,76.0,note_off,33,0,64,320
256,76.666667,note_on,35,2457,64,0
257,76.666667,pitchwheel,35,2457,64,0
258,76.666667,note_off,35,2457,64,320
259,77.333333,note_on,36,3276,64,0
260,77.333333,pitchwheel,36,3276,64,0
261,77.333333,note_off,36,3276,64,320
262,78.0,note_on,36,2047,64,0
263,78.0,pitchwheel,36,2047,64,0
264,78.0,note_off,36,2047,64,320
265,78.666667,note_on,36,819,64,0
266,78.666667,pitchwheel,36,819,64,0
267,78.666667,note_off,36,819,64,320
268,80.0,note_on,36,3276,64,0
269,80.0,pitchwheel,36,3276,64,0
270,80.0,note_off,36,3276,64,320
271,80.666667,note_on,38,2457,64,0
272,80.666667,pitchwheel,38,2457,64,0
273,80.666667,note_off,38,2457,64,320
274,82.0,note_on,35,3276,64,0
275,82.0,pitchwheel,35,3276,64,0
276,82.0,note_off,35,3276,64,320
277,82.666667,note_on,36,3276,64,0
278,82.666667,pitchwheel,36,3276,64,0
279,82.666667,note_off,36,3276,64,320
280,83.333333,note_on,35,2047,64,0
281,83.333333,pitchwheel,35,2047,64,0
282,83.333333,note_off,35,2047,64,320
283,84.0,note_on,34,0,64,0
284,84.0,note_off,34,0,64,320
285,85.333333,note_on,33,2047,64,0
286,85.333333,pitchwheel,33,2047,64,0
287,85.333333,note_off,33,2047,64,320
288,86.666667,note_on,37,0,64,0
289,86.666667,note_off,37,0,64,320
290,87.333333,note_on,38,819,64,0
291,87.333333,pitchwheel,38,819,64,0
292,87.333333,note_off,38,819,64,320
293,88.0,note_on,38,2457,64,0
294,88.0,pitchwheel,38,2457,64,0
295,88.0,note_off,38,2457,64,320
296,88.666667,note_on,43,2866,64,0
297,88.666667,pitchwheel,43,2866,64,0
298,88.666667,note_off,43,2866,64,320
299,89.333333,note_on,43,1638,64,0
300,89.333333,pitchwheel,43,1638,64,0
301,89.333333,note_off,43,1638,64,320
302,90.0,note_on,38,819,64,0
303,90.0,pitchwheel,38,819,64,0
304,90.0,note_off,38,819,64,320
305,90.666667,note_on,35,2457,64,0
306,90.666667,pitchwheel,35,2457,64,0
307,90.666667,note_off,35,2457,64,320
308,91.333333,note_on,33,0,64,0
309,91.333333,note_off,33,0,64,320
310,92.0,note_on,33,2047,64,0
311,92.0,pitchwheel,33,2047,64,0
312,92.0,note_off,33,2047,64,320
313,92.666667,note_on,40,2457,64,0
314,92.666667,pitchwheel,40,2457,64,0
315,92.666667,note_off,40,2457,64,640
316,94.666667,note_on,41,0,64,0
317,94.666667,note_off,41,0,64,320
318,95.333333,note_on,45,2047,64,0
319,95.333333,pitchwheel,45,2047,64,0
320,95.333333,note_off,45,2047,64,320
321,96.0,note_on,41,2457,64,0
322,96.0,pitchwheel,41,2457,64,0
323,96.0,note_off,41,2457,64,320
324,96.666667,note_on,45,3276,64,0
325,96.666667,pitchwheel,45,3276,64,0
326,96.666667,note_off,45,3276,64,320
327,97.333333,note_on,50,3685,64,0
328,97.333333,pitchwheel,50,3685,64,0
329,97.333333,note_off,50,3685,64,320
330,98.0,note_on,55,0,64,0
331,98.0,note_off,55,0,64,320
332,98.666667,note_on,56,0,64,0
333,98.666667,note_off,56,0,64,320
334,99.333333,note_on,50,3685,64,0
335,99.333333,pitchwheel,50,3685,64,0
336,99.333333,note_off,50,3685,64,320
337,100.0,note_on,47,3276,64,0
338,100.0,pitchwheel,47,3276,64,0
339,100.0,note_off,47,3276,64,320
340,100.666667,note_on,43,409,64,0
341,100.666667,pitchwheel,43,409,64,0
342,100.666667,note_off,43,409,64,320
343,101.333333,note_on,44,0,64,0
344,101.333333,note_off,44,0,64,320
345,102.0,note_on,41,0,64,0
346,102.0,note_off,41,0,64,320
347,102.666667,note_on,35,3685,64,0
348,102.666667,pitchwheel,35,3685,64,0
349,102.666667,note_off,35,3685,64,320
350,103.333333,note_on,38,0,64,0
351,103.333333,note_off,38,0,64,320
352,104.0,note_on,36,819,64,0
353,104.0,pitchwheel,36,819,64,0
354,104.0,note_off,36,819,64,320
355,104.666667,note_on,36,2047,64,0
356,104.666667,pitchwheel,36,2047,64,0
357,104.666667,note_off,36,2047,64,320
358,105.333333,note_on,36,819,64,0
359,105.333333,pitchwheel,36,819,64,0
360,105.333333,note_off,36,819,64,320
361,106.666667,note_on,36,3276,64,0
362,106.666667,pitchwheel,36,3276,64,0
363,106.666667,note_off,36,3276,64,320
364,107.333333,note_on,40,1638,64,0
365,107.333333,pitchwheel,40,1638,64,0
366,107.333333,note_off,40,1638,64,320
367,108.0,note_on,41,0,64,0
368,108.0,note_off,41,0,64,320
369,108.666667,note_on,45,1638,64,0
370,108.666667,pitchwheel,45,1638,64,0
371,108.666667,note_off,45,1638,64,320
372,109.333333,note_on,44,0,64,0
373,109.333333,note_off,44,0,64,320
374,110.0,note_on,38,2457,64,0
375,110.0,pitchwheel,38,2457,64,0
376,110.0,note_off,38,2457,64,320
377,110.666667,note_on,35,3276,64,0
378,110.666667,pitchwheel,35,3276,64,0
379,110.666667,note_off,35,3276,64,320
380,112.0,note_on,39,819,64,0
381,112.0,pitchwheel,39,819,64,0
382,112.0,note_off,39,819,64,320
383,113.333333,note_on,35,2047,64,0
384,113.333333,pitchwheel,35,2047,64,0
385,113.333333,note_off,35,2047,64,320
386,114.0,note_on,35,3276,64,0
387,114.0,pitchwheel,35,3276,64,0
388,114.0,note_off,35,3276,64,320
389,114.666667,note_on,34,0,64,0
390,114.666667,note_off,34,0,64,320
391,115.333333,note_on,33,2047,64,0
392,115.333333,pitchwheel,33,2047,64,0
393,115.333333,note_off,33,2047,64,320
394,116.0,note_on,33,3276,64,0
395,116.0,pitchwheel,33,3276,64,0
396,116.0,note_off,33,3276,64,320
397,116.666667,note_on,40,2457,64,0
398,116.666667,pitchwheel,40,2457,64,0
399,116.666667,note_off,40,2457,64,320
400,117.333333,note_on,41,2457,64,0
401,117.333333,pitchwheel,41,2457,64,0
402,117.333333,note_off,41,2457,64,320
403,118.0,note_on,45,0,64,0
404,118.0,note_off,45,0,64,320
405,119.333333,note_on,50,819,64,0
406,119.333333,pitchwheel,50,819,64,0
407,119.333333,note_off,50,819,64,320
408,120.0,note_on,51,819,64,0
409,120.0,pitchwheel,51,819,64,0
410,120.0,note_off,51,819,64,320
411,121.333333,note_on,48,819,64,0
412,121.333333,pitchwheel,48,819,64,0
413,121.333333,note_off,48,819,64,320
414,122.0,note_on,45,2047,64,0
415,122.0,pitchwheel,45,2047,64,0
416,122.0,note_off,45,2047,64,320
417,122.666667,note_on,46,0,64,0
418,122.666667,note_off,46,0,64,320
419,123.333333,note_on,44,2047,64,0
420,123.333333,pitchwheel,44,2047,64,0
421,123.333333,note_off,44,2047,64,320
422,124.0,note_on,43,2866,64,0
423,124.0,pitchwheel,43,2866,64,0
424,124.0,note_off,43,2866,64,320
425,124.666667,note_on,40,2457,64,0
426,124.666667,pitchwheel,40,2457,64,0
427,124.666667,note_off,40,2457,64,320
428,125.333333,note_on,36,3276,64,0
429,125.333333,pitchwheel,36,3276,64,0
430,125.333333,note_off,36,3276,64,320
431,126.0,note_on,38,1228,64,0
432,126.0,pitchwheel,38,1228,64,0
433,126.0,note_off,38,1228,64,320
434,126.666667,note_on,36,2047,64,0
435,126.666667,pitchwheel,36,2047,64,0
436,126.666667,note_off,36,2047,64,320
437,127.333333,note_on,35,3685,64,0
438,127.333333,pitchwheel,35,3685,64,0
439,127.333333,note_off,35,3685,64,640
440,128.666667,note_on,38,0,64,0
441,128.666667,note_off,38,0,64,320
442,129.333333,note_on,33,0,64,0
443,129.333333,note_off,33,0,64,320
444,130.0,note_on,31,0,64,0
445,130.0,note_off,31,0,64,320
446,130.666667,note_on,34,1638,64,0
447,130.666667,pitchwheel,34,1638,64,0
448,130.666667,note_off,34,1638,64,320
449,131.333333,note_on,40,2866,64,0
450,131.333333,pitchwheel,40,2866,64,0
451,131.333333,note_off,40,2866,64,320
452,132.0,note_on,43,0,64,0
453,132.0,note_off,43,0,64,320
454,133.333333,note_on,43,0,64,0
455,133.333333,note_off,43,0,64,320
456,134.0,note_on,41,0,64,0
457,134.0,note_off,41,0,64,320
458,135.333333,note_on,45,1638,64,0
459,135.333333,pitchwheel,45,1638,64,0
460,135.333333,note_off,45,1638,64,320
461,136.0,note_on,44,0,64,0
462,136.0,note_off,44,0,64,320
463,136.666667,note_on,48,2047,64,0
464,136.666667,pitchwheel,48,2047,64,0
465,136.666667,note_off,48,2047,64,320
466,137.333333,note_on,46,409,64,0
467,137.333333,pitchwheel,46,409,64,0
468,137.333333,note_off,46,409,64,320
469,138.666667,note_on,43,409,64,0
470,138.666667,pitchwheel,43,409,64,0
471,138.666667,note_off,43,409,64,320
472,140.0,note_on,44,2047,64,0
473,140.0,pitchwheel,44,2047,64,0
474,140.0,note_off,44,2047,64,320
475,140.666667,note_on,47,3276,64,0
476,140.666667,pitchwheel,47,3276,64,0
477,140.666667,note_off,47,3276,64,320
478,141.333333,note_on,46,1638,64,0
479,141.333333,pitchwheel,46,1638,64,0
480,141.333333,note_off,46,1638,64,320
481,142.0,note_on,48,819,64,0
482,142.0,pitchwheel,48,819,64,0
483,142.0,note_off,48,819,64,320
484,142.666667,note_on,47,3685,64,0
485,142.666667,pitchwheel,47,3685,64,0
486,142.666667,note_off,47,3685,64,320
487,143.333333,note_on,45,1638,64,0
488,143.333333,pitchwheel,45,1638,64,0
489,143.333333,note_off,45,1638,64,320
490,144.0,note_on,45,2047,64,0
491,144.0,pitchwheel,45,2047,64,0
492,144.0,note_off,45,2047,64,320
493,144.666667,note_on,45,0,64,0
494,144.666667,note_off,45,0,64,320
495,145.333333,note_on,50,3685,64,0
496,145.333333,pitchwheel,50,3685,64,0
497,145.333333,note_off,50,3685,64,320
498,146.0,note_on,50,819,64,0
499,146.0,pitchwheel,50,819,64,0
500,146.0,note_off,50,819,64,320
501,146.666667,note_on,48,3276,64,0
502,146.666667,pitchwheel,48,3276,64,0
503,146.666667,note_off,48,3276,64,320
504,148.0,note_on,48,2047,64,0
505,148.0,pitchwheel,48,2047,64,0
506,148.0,note_off,48,2047,64,320
507,148.666667,note_on,47,2457,64,0
508,148.666667,pitchwheel,47,2457,64,0
509,148.666667,note_off,47,2457,64,320
510,149.333333,note_on,45,2047,64,0
511,149.333333,pitchwheel,45,2047,64,0
512,149.333333,note_off,45,2047,64,320
513,150.0,note_on,40,0,64,0
514,150.0,note_off,40,0,64,320
515,150.666667,note_on,38,2457,64,0
516,150.666667,pitchwheel,38,2457,64,0
517,150.666667,note_off,38,2457,64,320
518,151.333333,note_on,40,2457,64,0
519,151.333333,pitchwheel,40,2457,64,0
520,151.333333,note_off,40,2457,64,320
521,152.0,note_on,39,819,64,0
522,152.0,pitchwheel,39,819,64,0
523,152.0,note_off,39,819,64,320
524,152.666667,note_on,43,1638,64,0
525,152.666667,pitchwheel,43,1638,64,0
526,152.666667,note_off,43,1638,64,320
527,153.333333,note_on,46,0,64,0
528,153.333333,note_off,46,0,64,320
529,154.0,note_on,50,0,64,0
530,154.0,note_off,50,0,64,320
531,154.666667,note_on,48,3276,64,0
532,154.666667,pitchwheel,48,3276,64,0
533,154.666667,note_off,48,3276,64,320
534,155.333333,note_on,50,2457,64,0
535,155.333333,pitchwheel,50,2457,64,0
536,155.333333,note_off,50,2457,64,320
537,156.0,note_on,48,2047,64,0
538,156.0,pitchwheel,48,2047,64,0
539,156.0,note_off,48,2047,64,320
540,156.666667,note_on,43,0,64,0
541,156.666667,note_off,43,0,64,320
542,157.333333,note_on,48,819,64,0
543,157.333333,pitchwheel,48,819,64,0
544,157.333333,note_off,48,819,64,320
545,158.0,note_on,53,0,64,0
546,158.0,note_off,53,0,64,320
547,158.666667,note_on,52,2866,64,0
548,158.666667,pitchwheel,52,2866,64,0
549,158.666667,note_off,52,2866,64,320
550,160.0,note_on,49,0,64,0
551,160.0,note_off,49,0,64,320
552,160.666667,note_on,53,0,64,0
553,160.666667,note_off,53,0,64,320
554,161.333333,note_on,50,2457,64,0
555,161.333333,pitchwheel,50,2457,64,0
556,161.333333,note_off,50,2457,64,320
557,162.0,note_on,50,819,64,0
558,162.0,pitchwheel,50,819,64,0
559,162.0,note_off,50,819,64,320
560,162.666667,note_on,53,2457,64,0
561,162.666667,pitchwheel,53,2457,64,0
562,162.666667,note_off,53,2457,64,320
563,164.0,note_on,47,3276,64,0
564,164.0,pitchwheel,47,3276,64,0
565,164.0,note_off,47,3276,64,320
566,165.333333,note_on,48,3276,64,0
567,165.333333,pitchwheel,48,3276,64,0
568,165.333333,note_off,48,3276,64,320
569,166.666667,note_on,47,2047,64,0
570,166.666667,pitchwheel,47,2047,64,0
571,166.666667,note_off,47,2047,64,320
572,167.333333,note_on,52,2457,64,0
573,167.333333,pitchwheel,52,2457,64,0
574,167.333333,note_off,52,2457,64,320
575,168.0,note_on,51,819,64,0
576,168.0,pitchwheel,51,819,64,0
577,168.0,note_off,51,819,64,320
578,168.666667,note_on,48,819,64,0
579,168.666667,pitchwheel,48,819,64,0
580,168.666667,note_off,48,819,64,320
581,169.333333,note_on,47,3685,64,0
582,169.333333,pitchwheel,47,3685,64,0
583,169.333333,note_off,47,3685,64,320
584,170.0,note_on,43,0,64,0
585,170.0,note_off,43,0,64,320
586,170.666667,note_on,45,2047,64,0
587,170.666667,pitchwheel,45,2047,64,0
588,170.666667,note_off,45,2047,64,320
589,171.333333,note_on,45,0,64,0
590,171.333333,note_off,45,0,64,320
591,172.666667,note_on,43,0,64,0
592,172.666667,note_off,43,0,64,320
593,173.333333,note_on,41,0,64,0
594,173.333333,note_off,41,0,64,320
595,174.666667,note_on,45,2047,64,0
596,174.666667,pitchwheel,45,2047,64,0
597,174.666667,note_off,45,2047,64,320
598,175.333333,note_on,47,2457,64,0
599,175.333333,pitchwheel,47,2457,64,0
600,175.333333,note_off,47,2457,64,320
601,176.0,note_on,50,2457,64,0
602,176.0,pitchwheel,50,2457,64,0
603,176.0,note_off,50,2457,64,320
604,176.666667,note_on,52,2866,64,0
605,176.666667,pitchwheel,52,2866,64,0
606,176.666667,note_off,52,2866,64,320
607,177.333333,note_on,55,2866,64,0
608,177.333333,pitchwheel,55,2866,64,0
609,177.333333,note_off,55,2866,64,320
610,178.0,note_on,57,1638,64,0
611,178.0,pitchwheel,57,1638,64,0
612,178.0,note_off,57,1638,64,320
613,178.666667,note_on,58,1638,64,0
614,178.666667,pitchwheel,58,1638,64,0
615,178.666667,note_off,58,1638,64,320
616,179.333333,note_on,55,1638,64,0
617,179.333333,pitchwheel,55,1638,64,0
618,179.333333,note_off,55,1638,64,320
619,180.0,note_on,53,0,64,0
620,180.0,note_off,53,0,64,320
621,180.666667,note_on,50,0,64,0
622,180.666667,note_off,50,0,64,320
623,181.333333,note_on,47,2457,64,0
624,181.333333,pitchwheel,47,2457,64,0
625,181.333333,note_off,47,2457,64,320
626,182.0,note_on,50,2457,64,0
627,182.0,pitchwheel,50,2457,64,0
628,182.0,note_off,50,2457,64,320
629,182.666667,note_on,45,0,64,0
630,182.666667,note_off,45,0,64,320
631,183.333333,note_on,47,3276,64,0
632,183.333333,pitchwheel,47,3276,64,0
633,183.333333,note_off,47,3276,64,320
634,184.0,note_on,45,2047,64,0
635,184.0,pitchwheel,45,2047,64,0
636,184.0,note_off,45,2047,64,320
637,184.666667,note_on,41,0,64,0
638,184.666667,note_off,41,0,64,320
639,185.333333,note_on,40,2457,64,0
640,185.333333,pitchwheel,40,2457,64,0
641,185.333333,note_off,40,2457,64,320
642,186.666667,note_on,40,2457,64,0
643,186.666667,pitchwheel,40,2457,64,0
644,186.666667,note_off,40,2457,64,320
645,187.333333,note_on,36,2047,64,0
646,187.333333,pitchwheel,36,2047,64,0
647,187.333333,note_off,36,2047,64,320
648,188.666667,note_on,35,3276,64,0
649,188.666667,pitchwheel,35,3276,64,0
650,188.666667,note_off,35,3276,64,320
651,189.333333,note_on,39,819,64,0
652,189.333333,pitchwheel,39,819,64,0
653,189.333333,note_off,39,819,64,320
654,190.0,note_on,45,0,64,0
655,190.0,note_off,45,0,64,320
656,190.666667,note_on,45,2047,64,0
657,190.666667,pitchwheel,45,2047,64,0
658,190.666667,note_off,45,2047,64,320
659,192.0,note_on,47,3685,64,0
660,192.0,pitchwheel,47,3685,64,0
661,192.0,note_off,47,3685,64,320
662,193.333333,note_on,45,3276,64,0
663,193.333333,pitchwheel,45,3276,64,0
664,193.333333,note_off,45,3276,64,320
665,194.0,note_on,50,819,64,0
666,194.0,pitchwheel,50,819,64,0
667,194.0,note_off,50,819,64,320
668,194.666667,note_on,50,3685,64,0
669,194.666667,pitchwheel,50,3685,64,0
670,194.666667,note_off,50,3685,64,320
671,195.333333,note_on,45,3276,64,0
672,195.333333,pitchwheel,45,3276,64,0
673,195.333333,note_off,45,3276,64,320
674,196.0,note_on,45,2047,64,0
675,196.0,pitchwheel,45,2047,64,0
676,196.0,note_off,45,2047,64,320
677,196.666667,note_on,40,2457,64,0
678,196.666667,pitchwheel,40,2457,64,0
679,196.666667,note_off,40,2457,64,320
680,197.333333,note_on,36,819,64,0
681,197.333333,pitchwheel,36,819,64,0
682,197.333333,note_off,36,819,64,320
683,198.0,note_on,33,0,64,0
684,198.0,note_off,33,0,64,320
685,198.666667,note_on,38,3685,64,0
686,198.666667,pitchwheel,38,3685,64,0
687,198.666667,note_off,38,3685,64,320
688,199.333333,note_on,40,2457,64,0
689,199.333333,pitchwheel,40,2457,64,0
690,199.333333,note_off,40,2457,64,320
691,200.0,note_on,36,3276,64,0
692,200.0,pitchwheel,36,3276,64,0
693,200.0,note_off,36,3276,64,320
694,201.333333,note_on,31,409,64,0
695,201.333333,pitchwheel,31,409,64,0
696,201.333333,note_off,31,409,64,320
697,202.0,note_on,31,1638,64,0
698,202.0,pitchwheel,31,1638,64,0
699,202.0,note_off,31,1638,64,320
700,202.666667,note_on,32,0,64,0
701,202.666667,note_off,32,0,64,320
702,203.333333,note_on,35,2047,64,0
703,203.333333,pitchwheel,35,2047,64,0
704,203.333333,note_off,35,2047,64,320
705,204.0,note_on,41,0,64,0
706,204.0,note_off,41,0,64,320
707,204.666667,note_on,43,0,64,0
708,204.666667,note_off,43,0,64,320
709,205.333333,note_on,46,1638,64,0
710,205.333333,pitchwheel,46,1638,64,0
711,205.333333,note_off,46,1638,64,320
712,206.0,note_on,41,0,64,0
713,206.0,note_off,41,0,64,320
714,206.666667,note_on,43,1638,64,0
715,206.666667,pitchwheel,43,1638,64,0
716,206.666667,note_off,43,1638,64,320
717,207.333333,note_on,41,0,64,0
718,207.333333,note_off,41,0,64,320
719,208.0,note_on,46,1638,64,0
720,208.0,pitchwheel,46,1638,64,0
721,208.0,note_off,46,1638,64,320
722,208.666667,note_on,50,3685,64,0
723,208.666667,pitchwheel,50,3685,64,0
724,208.666667,note_off,50,3685,64,320
725,209.333333,note_on,48,2047,64,0
726,209.333333,pitchwheel,48,2047,64,0
727,209.333333,note_off,48,2047,64,320
728,210.0,note_on,45,1638,64,0
729,210.0,pitchwheel,45,1638,64,0
730,210.0,note_off,45,1638,64,320
731,210.666667,note_on,48,819,64,0
732,210.666667,pitchwheel,48,819,64,0
733,210.666667,note_off,48,819,64,320
734,211.333333,note_on,50,2457,64,0
735,211.333333,pitchwheel,50,2457,64,0
736,211.333333,note_off,50,2457,64,320
737,212.0,note_on,50,1228,64,0
738,212.0,pitchwheel,50,1228,64,0
739,212.0,note_off,50,1228,64,320
740,213.333333,note_on,45,2047,64,0
741,213.333333,pitchwheel,45,2047,64,0
742,213.333333,note_off,45,2047,64,320
743,214.0,note_on,41,0,64,0
744,214.0,note_off,41,0,64,320
745,214.666667,note_on,40,1638,64,0
746,214.666667,pitchwheel,40,1638,64,0
747,214.666667,note_off,40,1638,64,320
748,215.333333,note_on,43,0,64,0
749,215.333333,note_off,43,0,64,320
750,216.0,note_on,41,0,64,0
751,216.0,note_off,41,0,64,320
752,216.666667,note_on,37,0,64,0
753,216.666667,note_off,37,0,64,320
754,217.333333,note_on,34,0,64,0
755,217.333333,note_off,34,0,64,320
756,218.666667,note_on,32,0,64,0
757,218.666667,note_off,32,0,64,320
758,220.0,note_on,37,0,64,0
759,220.0,note_off,37,0,64,320
760,220.666667,note_on,40,2457,64,0
761,220.666667,pitchwheel,40,2457,64,0
762,220.666667,note_off,40,2457,64,320
763,221.333333,note_on,39,819,64,0
764,221.333333,pitchwheel,39,819,64,0
765,221.333333,note_off,39,819,64,320
766,222.0,note_on,33,3276,64,0
767,222.0,pitchwheel,33,3276,64,0
768,222.0,note_off,33,3276,64,320
769,222.666667,note_on,34,409,64,0
770,222.666667,pitchwheel,34,409,64,0
771,222.666667,note_off,34,409,64,320
772,223.333333,note_on,38,819,64,0
773,223.333333,pitchwheel,38,819,64,0
774,223.333333,note_off,38,819,64,320
775,224.0,note_on,39,819,64,0
776,224.0,pitchwheel,39,819,64,0
777,224.0,note_off,39,819,64,320
778,224.666667,note_on,45,0,64,0
779,224.666667,note_off,45,0,64,320
780,226.0,note_on,50,819,64,0
781,226.0,pitchwheel,50,819,64,0
782,226.0,note_off,50,819,64,320
783,226.666667,note_on,47,2047,64,0
784,226.666667,pitchwheel,47,2047,64,0
785,226.666667,note_off,47,2047,64,320
786,228.0,note_on,47,3276,64,0
787,228.0,pitchwheel,47,3276,64,0
788,228.0,note_off,47,3276,64,320
789,228.666667,note_on,46,409,64,0
790,228.666667,pitchwheel,46,409,64,0
791,228.666667,note_off,46,409,64,320
792,229.333333,note_on,46,0,64,0
793,229.333333,note_off,46,0,64,320
794,230.0,note_on,45,2047,64,0
795,230.0,pitchwheel,45,2047,64,0
796,230.0,note_off,45,2047,64,640
797,231.333333,note_on,47,3276,64,0
798,231.333333,pitchwheel,47,3276,64,0
799,231.333333,note_off,47,3276,64,320
800,232.0,note_on,45,3276,64,0
801,232.0,pitchwheel,45,3276,64,0
802,232.0,note_off,45,3276,64,320
803,232.666667,note_on,50,2457,64,0
804,232.666667,pitchwheel,50,2457,64,0
805,232.666667,note_off,50,2457,64,320
806,233.333333,note_on,52,2457,64,0
807,233.333333,pitchwheel,52,2457,64,0
808,233.333333,note_off,52,2457,64,320
809,234.0,note_on,48,2047,64,0
810,234.0,pitchwheel,48,2047,64,0
811,234.0,note_off,48,2047,64,320
812,234.666667,note_on,53,2457,64,0
813,234.666667,pitchwheel,53,2457,64,0
814,234.666667,note_off,53,2457,64,320
815,235.333333,note_on,50,2457,64,0
816,235.333333,pitchwheel,50,2457,64,0
817,235.333333,note_off,50,2457,64,320
818,236.0,note_on,45,0,64,0
819,236.0,note_off,45,0,64,320
820,236.666667,note_on,45,1638,64,0
821,236.666667,pitchwheel,45,1638,64,0
822,236.666667,note_off,45,1638,64,320
823,237.333333,note_on,46,1638,64,0
824,237.333333,pitchwheel,46,1638,64,0
825,237.333333,note_off,46,1638,64,320
826,238.0,note_on,41,0,64,0
827,238.0,note_off,41,0,64,320
828,238.666667,note_on,41,1228,64,0
829,238.666667,pitchwheel,41,1228,64,0
830,238.666667,note_off,41,1228,64,320
831,240.0,note_on,40,0,64,0
832,240.0,note_off,40,0,64,320
833,240.666667,note_on,38,2457,64,0
834,240.666667,pitchwheel,38,2457,64,0
835,240.666667,note_off,38,2457,64,320
836,242.0,note_on,33,1638,64,0
837,242.0,pitchwheel,33,1638,64,0
838,242.0,note_off,33,1638,64,640
839,243.333333,note_on,38,3685,64,0
840,243.333333,pitchwheel,38,3685,64,0
841,243.333333,note_off,38,3685,64,320
842,244.0,note_on,34,0,64,0
843,244.0,note_off,34,0,64,320
844,245.333333,note_on,34,0,64,0
845,245.333333,note_off,34,0,64,320
846,246.666667,note_on,32,2047,64,0
847,246.666667,pitchwheel,32,2047,64,0
848,246.666667,note_off,32,2047,64,320
849,247.333333,note_on,31,0,64,0
850,247.333333,note_off,31,0,64,320
851,248.0,note_on,31,2866,64,0
852,248.0,pitchwheel,31,2866,64,0
853,248.0,note_off,31,2866,64,320
854,248.666667,note_on,38,1228,64,0
855,248.666667,pitchwheel,38,1228,64,0
856,248.666667,note_off,38,1228,64,320
857,249.333333,note_on,38,2457,64,0
858,249.333333,pitchwheel,38,2457,64,0
859,249.333333,note_off,38,2457,64,320
860,250.0,note_on,35,3276,64,0
861,250.0,pitchwheel,35,3276,64,0
862,250.0,note_off,35,3276,64,320
863,250.666667,note_on,35,2457,64,0
864,250.666667,pitchwheel,35,2457,64,0
865,250.666667,note_off,35,2457,64,320
866,251.333333,note_on,33,0,64,0
867,251.333333,note_off,33,0,64,320
868,252.0,note_on,38,1228,64,0
869,252.0,pitchwheel,38,1228,64,0
870,252.0,note_off,38,1228,64,320
871,252.666667,note_on,40,2457,64,0
872,252.666667,pitchwheel,40,2457,64,0
873,252.666667,note_off,40,2457,64,320
874,253.333333,note_on,39,819,64,0
875,253.333333,pitchwheel,39,819,64,0
876,253.333333,note_off,39,819,64,320
877,254.666667,note_on,35,3685,64,0
878,254.666667,pitchwheel,35,3685,64,0
879,254.666667,note_off,35,3685,64,320
880,255.333333,note_on,33,2047,64,0
881,255.333333,pitchwheel,33,2047,64,0
882,255.333333,note_off,33,2047,64,320
883,256.0,note_on,32,0,64,0
884,256.0,note_off,32,0,64,320
885,256.666667,note_on,35,3685,64,0
886,256.666667,pitchwheel,35,3685,64,0
887,256.666667,note_off,35,3685,64,320
888,257.333333,note_on,38,0,64,0
889,257.333333,note_off,38,0,64,320
890,258.0,note_on,38,819,64,0
891,258.0,pitchwheel,38,819,64,0
892,258.0,note_off,38,819,64,320
893,258.666667,note_on,36,3276,64,0
894,258.666667,pitchwheel,36,3276,64,0
895,258.666667,note_off,36,3276,64,320
896,259.333333,note_on,31,409,64,0
897,259.333333,pitchwheel,31,409,64,0
898,259.333333,note_off,31,409,64,320
899,260.0,note_on,31,0,64,0
900,260.0,note_off,31,0,64,320
901,260.666667,note_on,31,409,64,0
902,260.666667,pitchwheel,31,409,64,0
903,260.666667,note_off,31,409,64,320
904,261.333333,note_on,34,1638,64,0
905,261.333333,pitchwheel,34,1638,64,0
906,261.333333,note_off,34,1638,64,320
907,262.0,note_on,29,0,64,0
908,262.0,note_off,29,0,64,320
909,262.666667,note_on,40,2866,64,0
910,262.666667,pitchwheel,40,2866,64,0
911,262.666667,note_off,40,2866,64,320
912,263.333333,note_on,35,3276,64,0
913,263.333333,pitchwheel,35,3276,64,0
914,263.333333,note_off,35,3276,64,320
915,264.0,note_on,34,1638,64,0
916,264.0,pitchwheel,34,1638,64,0
917,264.0,note_off,34,1638,64,320
918,264.666667,note_on,33,2047,64,0
919,264.666667,pitchwheel,33,2047,64,0
920,264.666667,note_off,33,2047,64,320
921,265.333333,note_on,33,3276,64,0
922,265.333333,pitchwheel,33,3276,64,0
923,265.333333,note_off,33,3276,64,320
924,266.666667,note_on,32,2047,64,0
925,266.666667,pitchwheel,32,2047,64,0
926,266.666667,note_off,32,2047,64,320
927,267.333333,note_on,40,1638,64,0
928,267.333333,pitchwheel,40,1638,64,0
929,267.333333,note_off,40,1638,64,320
930,268.0,note_on,41,0,64,0
931,268.0,note_off,41,0,64,320
932,268.666667,note_on,45,1638,64,0
933,268.666667,pitchwheel,45,1638,64,0
934,268.666667,note_off,45,1638,64,320
935,269.333333,note_on,44,0,64,0
936,269.333333,note_off,44,0,64,320
937,270.0,note_on,41,0,64,0
938,270.0,note_off,41,0,64,320
939,270.666667,note_on,45,1638,64,0
940,270.666667,pitchwheel,45,1638,64,0
941,270.666667,note_off,45,1638,64,320
942,272.0,note_on,44,0,64,0
943,272.0,note_off,44,0,64,320
944,273.333333,note_on,40,0,64,0
945,273.333333,note_off,40,0,64,320
946,274.0,note_on,43,0,64,0
947,274.0,note_off,43,0,64,320
948,274.666667,note_on,46,0,64,0
949,274.666667,note_off,46,0,64,320
950,275.333333,note_on,41,1228,64,0
951,275.333333,pitchwheel,41,1228,64,0
952,275.333333,note_off,41,1228,64,320
953,276.0,note_on,41,0,64,0
954,276.0,note_off,41,0,64,320
955,276.666667,note_on,35,3276,64,0
956,276.666667,pitchwheel,35,3276,64,0
957,276.666667,note_off,35,3276,64,320
958,277.333333,note_on,39,819,64,0
959,277.333333,pitchwheel,39,819,64,0
960,277.333333,note_off,39,819,64,320
961,278.0,note_on,45,0,64,0
962,278.0,note_off,45,0,64,320
963,279.333333,note_on,40,2457,64,0
964,279.333333,pitchwheel,40,2457,64,0
965,279.333333,note_off,40,2457,64,320
966,280.0,note_on,39,819,64,0
967,280.0,pitchwheel,39,819,64,0
968,280.0,note_off,39,819,64,320
969,281.333333,note_on,38,2457,64,0
970,281.333333,pitchwheel,38,2457,64,0
971,281.333333,note_off,38,2457,64,320
972,282.0,note_on,33,2047,64,0
973,282.0,pitchwheel,33,2047,64,0
974,282.0,note_off,33,2047,64,320
975,282.666667,note_on,34,1638,64,0
976,282.666667,pitchwheel,34,1638,64,0
977,282.666667,note_off,34,1638,64,320
978,283.333333,note_on,32,2047,64,0
979,283.333333,pitchwheel,32,2047,64,0
980,283.333333,note_off,32,2047,64,320
981,284.0,note_on,36,819,64,0
982,284.0,pitchwheel,36,819,64,0
983,284.0,note_off,36,819,64,320
984,284.666667,note_on,38,819,64,0
985,284.666667,pitchwheel,38,819,64,0
986,284.666667,note_off,38,819,64,320
987,285.333333,note_on,39,819,64,0
988,285.333333,pitchwheel,39,819,64,0
989,285.333333,note_off,39,819,64,320
990,286.0,note_on,36,2047,64,0
991,286.0,pitchwheel,36,2047,64,0
992,286.0,note_off,36,2047,64,320
993,286.666667,note_on,34,0,64,0
994,286.666667,note_off,34,0,64,320
995,287.333333,note_on,35,3685,64,0
996,287.333333,pitchwheel,35,3685,64,0
997,287.333333,note_off,35,3685,64,320
998,288.0,note_on,34,1638,64,0
999,288.0,pitchwheel,34,1638,64,0
1000,288.0,note_off,34,1638,64,320
1001,288.666667,note_on,38,0,64,0
1002,288.666667,note_off,38,0,64,320
1003,289.333333,note_on,33,0,64,0
1004,289.333333,note_off,33,0,64,320
1005,290.0,note_on,35,3276,64,0
1006,290.0,pitchwheel,35,3276,64,0
1007,290.0,note_off,35,3276,64,320
1008,290.666667,note_on,38,3685,64,0
1009,290.666667,pitchwheel,38,3685,64,0
1010,290.666667,note_off,38,3685,64,320
1011,291.333333,note_on,34,409,64,0
1012,291.333333,pitchwheel,34,409,64,0
1013,291.333333,note_off,34,409,64,320
1014,292.0,note_on,33,3276,64,0
1015,292.0,pitchwheel,33,3276,64,0
1016,292.0,note_off,33,3276,64,320
1017,293.333333,note_on,33,1638,64,0
1018,293.333333,pitchwheel,33,1638,64,0
1019,293.333333,note_off,33,1638,64,320
1020,294.0,note_on,29,0,64,0
1021,294.0,note_off,29,0,64,320
1022,295.333333,note_on,38,819,64,0
1023,295.333333,pitchwheel,38,819,64,0
1024,295.333333,note_off,38,819,64,320
1025,296.0,note_on,36,2047,64,0
1026,296.0,pitchwheel,36,2047,64,0
1027,296.0,note_off,36,2047,64,320
1028,297.333333,note_on,35,2457,64,0
1029,297.333333,pitchwheel,35,2457,64,0
1030,297.333333,note_off,35,2457,64,320
1031,298.666667,note_on,33,2047,64,0
1032,298.666667,pitchwheel,33,2047,64,0
1033,298.666667,note_off,33,2047,64,320
1034,300.0,note_on,28,0,64,0
1035,300.0,note_off,28,0,64,320
1036,300.666667,note_on,35,3276,64,0
1037,300.666667,pitchwheel,35,3276,64,0
1038,300.666667,note_off,35,3276,64,320
1039,301.333333,note_on,38,2457,64,0
1040,301.333333,pitchwheel,38,2457,64,0
1041,301.333333,note_off,38,2457,64,320
1042,302.0,note_on,38,1228,64,0
1043,302.0,pitchwheel,38,1228,64,0
1044,302.0,note_off,38,1228,64,320
1045,302.666667,note_on,38,2457,64,0
1046,302.666667,pitchwheel,38,2457,64,0
1047,302.666667,note_off,38,2457,64,320
1048,303.333333,note_on,33,1638,64,0
1049,303.333333,pitchwheel,33,1638,64,0
1050,303.333333,note_off,33,1638,64,320
1051,304.0,note_on,33,2047,64,0
1052,304.0,pitchwheel,33,2047,64,0
1053,304.0,note_off,33,2047,64,320
1054,304.666667,note_on,33,0,64,0
1055,304.666667,note_off,33,0,64,320
1056,305.333333,note_on,31,1638,64,0
1057,305.333333,pitchwheel,31,1638,64,0
1058,305.333333,note_off,31,1638,64,320
1059,306.0,note_on,33,1638,64,0
1060,306.0,pitchwheel,33,1638,64,0
1061,306.0,note_off,33,1638,64,320
1062,306.666667,note_on,34,0,64,0
1063,306.666667,note_off,34,0,64,320
1064,308.0,note_on,38,0,64,0
1065,308.0,note_off,38,0,64,320
1066,308.666667,note_on,35,2457,64,0
1067,308.666667,pitchwheel,35,2457,64,0
1068,308.666667,note_off,35,2457,64,320
1069,309.333333,note_on,36,3276,64,0
1070,309.333333,pitchwheel,36,3276,64,0
1071,309.333333,note_off,36,3276,64,320
1072,310.0,note_on,31,2866,64,0
1073,310.0,pitchwheel,31,2866,64,0
1074,310.0,note_off,31,2866,64,320
1075,310.666667,note_on,38,2457,64,0
1076,310.666667,pitchwheel,38,2457,64,0
1077,310.666667,note_off,38,2457,64,320
1078,311.333333,note_on,43,0,64,0
1079,311.333333,note_off,43,0,64,320
1080,312.0,note_on,46,1638,64,0
1081,312.0,pitchwheel,46,1638,64,0
1082,312.0,note_off,46,1638,64,320
1083,312.666667,note_on,43,409,64,0
1084,312.666667,pitchwheel,43,409,64,0
1085,312.666667,note_off,43,409,64,320
1086,313.333333,note_on,43,0,64,0
1087,313.333333,note_off,43,0,64,320
1088,314.0,note_on,38,0,64,0
1089,314.0,note_off,38,0,64,320
1090,314.666667,note_on,36,819,64,0
1091,314.666667,pitchwheel,36,819,64,0
1092,314.666667,note_off,36,819,64,320
1093,315.333333,note_on,38,2457,64,0
1094,315.333333,pitchwheel,38,2457,64,0
1095,315.333333,note_off,38,2457,64,320
1096,316.0,note_on,41,0,64,0
1097,316.0,note_off,41,0,64,320
1098,316.666667,note_on,40,2457,64,0
1099,316.666667,pitchwheel,40,2457,64,0
1100,316.666667,note_off,40,2457,64,320
1101,317.333333,note_on,40,2866,64,0
1102,317.333333,pitchwheel,40,2866,64,0
1103,317.333333,note_off,40,2866,64,320
1104,318.0,note_on,45,2047,64,0
1105,318.0,pitchwheel,45,2047,64,0
1106,318.0,note_off,45,2047,64,320
1107,318.666667,note_on,45,3276,64,0
1108,318.666667,pitchwheel,45,3276,64,0
1109,318.666667,note_off,45,3276,64,320
1110,320.0,note_on,46,1638,64,0
1111,320.0,pitchwheel,46,1638,64,0
1112,320.0,note_off,46,1638,64,320
1113,320.666667,note_on,41,0,64,0
1114,320.666667,note_off,41,0,64,640
1115,322.0,note_on,43,0,64,0
1116,322.0,note_off,43,0,64,320
1117,322.666667,note_on,38,2457,64,0
1118,322.666667,pitchwheel,38,2457,64,0
1119,322.666667,note_off,38,2457,64,320
1120,323.333333,note_on,33,0,64,0
1121,323.333333,note_off,33,0,64,320
1122,324.0,note_on,34,0,64,0
1123,324.0,note_off,34,0,64,320
1124,325.333333,note_on,31,409,64,0
1125,325.333333,pitchwheel,31,409,64,0
1126,325.333333,note_off,31,409,64,320
1127,326.666667,note_on,28,0,64,0
1128,326.666667,note_off,28,0,64,320
1129,327.333333,note_on,40,2457,64,0
1130,327.333333,pitchwheel,40,2457,64,0
1131,327.333333,note_off,40,2457,64,320
1132,328.0,note_on,41,2457,64,0
1133,328.0,pitchwheel,41,2457,64,0
1134,328.0,note_off,41,2457,64,320
1135,328.666667,note_on,38,1228,64,0
1136,328.666667,pitchwheel,38,1228,64,0
1137,328.666667,note_off,38,1228,64,320
1138,329.333333,note_on,38,2457,64,0
1139,329.333333,pitchwheel,38,2457,64,0
1140,329.333333,note_off,38,2457,64,320
1141,330.0,note_on,43,0,64,0
1142,330.0,note_off,43,0,64,320
1143,330.666667,note_on,43,409,64,0
1144,330.666667,pitchwheel,43,409,64,0
1145,330.666667,note_off,43,409,64,320
1146,331.333333,note_on,45,0,64,0
1147,331.333333,note_off,45,0,64,320
1148,332.666667,note_on,50,819,64,0
1149,332.666667,pitchwheel,50,819,64,0
1150,332.666667,note_off,50,819,64,320
1151,333.333333,note_on,47,2047,64,0
1152,333.333333,pitchwheel,47,2047,64,0
1153,333.333333,note_off,47,2047,64,320
1154,334.666667,note_on,52,2457,64,0
1155,334.666667,pitchwheel,52,2457,64,0
1156,334.666667,note_off,52,2457,64,320
1157,335.333333,note_on,47,2457,64,0
1158,335.333333,pitchwheel,47,2457,64,0
1159,335.333333,note_off,47,2457,64,320
1160,336.0,note_on,46,0,64,0
1161,336.0,note_off,46,0,64,320
1162,336.666667,note_on,49,0,64,0
1163,336.666667,note_off,49,0,64,320
1164,337.333333,note_on,48,819,64,0
1165,337.333333,pitchwheel,48,819,64,0
1166,337.333333,note_off,48,819,64,320
1167,338.0,note_on,47,3276,64,0
1168,338.0,pitchwheel,47,3276,64,0
1169,338.0,note_off,47,3276,64,320
1170,338.666667,note_on,47,3685,64,0
1171,338.666667,pitchwheel,47,3685,64,0
1172,338.666667,note_off,47,3685,64,320
1173,339.333333,note_on,43,409,64,0
1174,339.333333,pitchwheel,43,409,64,0
1175,339.333333,note_off,43,409,64,320
1176,340.0,note_on,43,0,64,0
1177,340.0,note_off,43,0,64,320
1178,340.666667,note_on,38,0,64,0
1179,340.666667,note_off,38,0,64,640
1180,342.0,note_on,38,2457,64,0
1181,342.0,pitchwheel,38,2457,64,0
1182,342.0,note_off,38,2457,64,320
1183,342.666667,note_on,33,0,64,0
1184,342.666667,note_off,33,0,64,320
1185,343.333333,note_on,33,1638,64,0
1186,343.333333,pitchwheel,33,1638,64,0
1187,343.333333,note_off,33,1638,64,320
1188,344.0,note_on,36,3276,64,0
1189,344.0,pitchwheel,36,3276,64,0
1190,344.0,note_off,36,3276,64,320
1191,344.666667,note_on,33,2047,64,0
1192,344.666667,pitchwheel,33,2047,64,0
1193,344.666667,note_off,33,2047,64,320
1194,345.333333,note_on,33,3276,64,0
1195,345.333333,pitchwheel,33,3276,64,0
1196,345.333333,note_off,33,3276,64,320
1197,346.666667,note_on,32,2047,64,0
1198,346.666667,pitchwheel,32,2047,64,0
1199,346.666667,note_off,32,2047,64,320
1200,347.333333,note_on,36,2047,64,0
1201,347.333333,pitchwheel,36,2047,64,0
1202,347.333333,note_off,36,2047,64,320
1203,348.666667,note_on,40,2457,64,0
1204,348.666667,pitchwheel,40,2457,64,0
1205,348.666667,note_off,40,2457,64,320
1206,349.333333,note_on,38,819,64,0
1207,349.333333,pitchwheel,38,819,64,0
1208,349.333333,note_off,38,819,64,320
1209,350.0,note_on,35,2047,64,0
1210,350.0,pitchwheel,35,2047,64,0
1211,350.0,note_off,35,2047,64,320
1212,350.666667,note_on,35,2457,64,0
1213,350.666667,pitchwheel,35,2457,64,0
1214,350.666667,note_off,35,2457,64,320
1215,352.0,note_on,35,3685,64,0
1216,352.0,pitchwheel,35,3685,64,0
1217,352.0,note_off,35,3685,64,320
1218,353.333333,note_on,35,2047,64,0
1219,353.333333,pitchwheel,35,2047,64,0
1220,353.333333,note_off,35,2047,64,320
1221,354.0,note_on,38,819,64,0
1222,354.0,pitchwheel,38,819,64,0
1223,354.0,note_off,38,819,64,320
1224,354.666667,note_on,39,819,64,0
1225,354.666667,pitchwheel,39,819,64,0
1226,354.666667,note_off,39,819,64,320
1227,355.333333,note_on,36,819,64,0
1228,355.333333,pitchwheel,36,819,64,0
1229,355.333333,note_off,36,819,64,320
1230,356.0,note_on,36,2047,64,0
1231,356.0,pitchwheel,36,2047,64,0
1232,356.0,note_off,36,2047,64,320
1233,356.666667,note_on,40,2457,64,0
1234,356.666667,pitchwheel,40,2457,64,0
1235,356.666667,note_off,40,2457,64,320
1236,357.333333,note_on,38,819,64,0
1237,357.333333,pitchwheel,38,819,64,0
1238,357.333333,note_off,38,819,64,320
1239,358.0,note_on,33,0,64,0
1240,358.0,note_off,33,0,64,320
1241,358.666667,note_on,31,1638,64,0
1242,358.666667,pitchwheel,31,1638,64,0
1243,358.666667,note_off,31,1638,64,320
1244,359.333333,note_on,35,3276,64,0
1245,359.333333,pitchwheel,35,3276,64,0
1246,359.333333,note_off,35,3276,64,320
1247,360.0,note_on,34,1638,64,0
1248,360.0,pitchwheel,34,1638,64,0
1249,360.0,note_off,34,1638,64,320
1250,361.333333,note_on,38,0,64,0
1251,361.333333,note_off,38,0,64,320
1252,362.0,note_on,43,1638,64,0
1253,362.0,pitchwheel,43,1638,64,0
1254,362.0,note_off,43,1638,64,320
1255,362.666667,note_on,46,1638,64,0
1256,362.666667,pitchwheel,46,1638,64,0
1257,362.666667,note_off,46,1638,64,320
1258,363.333333,note_on,50,3685,64,0
1259,363.333333,pitchwheel,50,3685,64,0
1260,363.333333,note_off,50,3685,64,320
1261,364.0,note_on,50,2457,64,0
1262,364.0,pitchwheel,50,2457,64,0
1263,364.0,note_off,50,2457,64,320
1264,364.666667,note_on,45,1638,64,0
1265,364.666667,pitchwheel,45,1638,64,0
1266,364.666667,note_off,45,1638,64,320
1267,365.333333,note_on,45,0,64,0
1268,365.333333,note_off,45,0,64,320
1269,366.0,note_on,41,0,64,0
1270,366.0,note_off,41,0,64,320
1271,366.666667,note_on,35,3276,64,0
1272,366.666667,pitchwheel,35,3276,64,0
1273,366.666667,note_off,35,3276,64,320
1274,367.333333,note_on,41,0,64,0
1275,367.333333,note_off,41,0,64,320
1276,368.0,note_on,44,0,64,0
1277,368.0,note_off,44,0,64,320
1278,368.666667,note_on,38,3685,64,0
1279,368.666667,pitchwheel,38,3685,64,0
1280,368.666667,note_off,38,3685,64,320
1281,369.333333,note_on,41,0,64,0
1282,369.333333,note_off,41,0,64,320
1283,370.0,note_on,43,0,64,0
1284,370.0,note_off,43,0,64,320
1285,370.666667,note_on,46,1638,64,0
1286,370.666667,pitchwheel,46,1638,64,0
1287,370.666667,note_off,46,1638,64,320
1288,371.333333,note_on,43,1638,64,0
1289,371.333333,pitchwheel,43,1638,64,0
1290,371.333333,note_off,43,1638,64,320
1291,372.0,note_on,43,2866,64,0
1292,372.0,pitchwheel,43,2866,64,0
1293,372.0,note_off,43,2866,64,320
1294,373.333333,note_on,45,2047,64,0
1295,373.333333,pitchwheel,45,2047,64,0
1296,373.333333,note_off,45,2047,64,320
1297,374.0,note_on,41,0,64,0
1298,374.0,note_off,41,0,64,320
1299,374.666667,note_on,36,2047,64,0
1300,374.666667,pitchwheel,36,2047,64,0
1301,374.666667,note_off,36,2047,64,320
1302,375.333333,note_on,38,819,64,0
1303,375.333333,pitchwheel,38,819,64,0
1304,375.333333,note_off,38,819,64,320
1305,376.0,note_on,44,0,64,0
1306,376.0,note_off,44,0,64,320
1307,376.666667,note_on,38,2457,64,0
1308,376.666667,pitchwheel,38,2457,64,0
1309,376.666667,note_off,38,2457,64,320
1310,377.333333,note_on,35,3276,64,0
1311,377.333333,pitchwheel,35,3276,64,0
1312,377.333333,note_off,35,3276,64,320
1313,378.666667,note_on,39,819,64,0
1314,378.666667,pitchwheel,39,819,64,0
1315,378.666667,note_off,39,819,64,320
1316,380.0,note_on,45,0,64,0
1317,380.0,note_off,45,0,64,320
1318,380.666667,note_on,40,2457,64,0
1319,380.666667,pitchwheel,40,2457,64,0
1320,380.666667,note_off,40,2457,64,320
1321,381.333333,note_on,41,2457,64,0
1322,381.333333,pitchwheel,41,2457,64,0
1323,381.333333,note_off,41,2457,64,320
1324,382.0,note_on,41,0,64,0
1325,382.0,note_off,41,0,64,320
1326,382.666667,note_on,40,2866,64,0
1327,382.666667,pitchwheel,40,2866,64,0
1328,382.666667,note_off,40,2866,64,320
1329,383.333333,note_on,38,819,64,0
1330,383.333333,pitchwheel,38,819,64,0
1331,383.333333,note_off,38,819,64,320
1332,384.0,note_on,35,3685,64,0
1333,384.0,pitchwheel,35,3685,64,0
1334,384.0,note_off,35,3685,64,320
1335,384.666667,note_on,33,0,64,0
1336,384.666667,note_off,33,0,64,320
1337,386.0,note_on,31,0,64,0
1338,386.0,note_off,31,0,64,640
1339,388.0,note_on,38,819,64,0
1340,388.0,pitchwheel,38,819,64,0
1341,388.0,note_off,38,819,64,320
1342,388.666667,note_on,34,409,64,0
1343,388.666667,pitchwheel,34,409,64,0
1344,388.666667,note_off,34,409,64,320
1345,389.333333,note_on,38,3685,64,0
1346,389.333333,pitchwheel,38,3685,64,0
1347,389.333333,note_off,38,3685,64,320
1348,390.0,note_on,36,2047,64,0
1349,390.0,pitchwheel,36,2047,64,0
1350,390.0,note_off,36,2047,64,320
1351,390.666667,note_on,33,3276,64,0
1352,390.666667,pitchwheel,33,3276,64,0
1353,390.666667,note_off,33,3276,64,320
1354,391.333333,note_on,33,1638,64,0
1355,391.333333,pitchwheel,33,1638,64,0
1356,391.333333,note_off,33,1638,64,320
1357,392.0,note_on,33,2047,64,0
1358,392.0,pitchwheel,33,2047,64,0
1359,392.0,note_off,33,2047,64,320
1360,392.666667,note_on,36,819,64,0
1361,392.666667,pitchwheel,36,819,64,0
1362,392.666667,note_off,36,819,64,640
1363,394.0,note_on,36,2047,64,0
1364,394.0,pitchwheel,36,2047,64,0
1365,394.0,note_off,36,2047,64,320
1366,394.666667,note_on,33,2047,64,0
1367,394.666667,pitchwheel,33,2047,64,0
1368,394.666667,note_off,33,2047,64,320
1369,395.333333,note_on,38,2457,64,0
1370,395.333333,pitchwheel,38,2457,64,0
1371,395.333333,note_off,38,2457,64,320
1372,396.0,note_on,33,0,64,0
1373,396.0,note_off,33,0,64,320
1374,396.666667,note_on,35,3276,64,0
1375,396.666667,pitchwheel,35,3276,64,0
1376,396.666667,note_off,35,3276,64,320
1377,397.333333,note_on,34,1638,64,0
1378,397.333333,pitchwheel,34,1638,64,0
1379,397.333333,note_off,34,1638,64,320
1380,398.0,note_on,33,3276,64,0
1381,398.0,pitchwheel,33,3276,64,0
1382,398.0,note_off,33,3276,64,320
1383,398.666667,note_on,33,2047,64,0
1384,398.666667,pitchwheel,33,2047,64,0
1385,398.666667,note_off,33,2047,64,320
1386,400.0,note_on,32,0,64,0
1387,400.0,note_off,32,0,64,320
1388,400.666667,note_on,38,2457,64,0
1389,400.666667,pitchwheel,38,2457,64,0
1390,400.666667,note_off,38,2457,64,320
1391,402.0,note_on,38,819,64,0
1392,402.0,pitchwheel,38,819,64,0
1393,402.0,note_off,38,819,64,320
1394,402.666667,note_on,44,0,64,0
1395,402.666667,note_off,44,0,64,320
1396,403.333333,note_on,38,2457,64,0
1397,403.333333,pitchwheel,38,2457,64,0
1398,403.333333,note_off,38,2457,64,320
1399,404.0,note_on,34,0,64,0
1400,404.0,note_off,34,0,64,320
1401,405.333333,note_on,32,0,64,0
1402,405.333333,note_off,32,0,64,320
1403,406.666667,note_on,35,2047,64,0
1404,406.666667,pitchwheel,35,2047,64,0
1405,406.666667,note_off,35,2047,64,320
1406,407.333333,note_on,40,2457,64,0
1407,407.333333,pitchwheel,40,2457,64,0
1408,407.333333,note_off,40,2457,64,320
1409,408.0,note_on,46,1638,64,0
1410,408.0,pitchwheel,46,1638,64,0
1411,408.0,note_off,46,1638,64,320
1412,408.666667,note_on,48,819,64,0
1413,408.666667,pitchwheel,48,819,64,0
1414,408.666667,note_off,48,819,64,320
1415,409.333333,note_on,47,3685,64,0
1416,409.333333,pitchwheel,47,3685,64,0
1417,409.333333,note_off,47,3685,64,320
1418,410.0,note_on,47,3276,64,0
1419,410.0,pitchwheel,47,3276,64,0
1420,410.0,note_off,47,3276,64,320
1421,410.666667,note_on,47,3685,64,0
1422,410.666667,pitchwheel,47,3685,64,0
1423,410.666667,note_off,47,3685,64,320
1424,411.333333,note_on,45,0,64,0
1425,411.333333,note_off,45,0,64,320
1426,412.0,note_on,41,0,64,0
1427,412.0,note_off,41,0,64,320
1428,412.666667,note_on,43,0,64,0
1429,412.666667,note_off,43,0,64,320
1430,413.333333,note_on,43,1638,64,0
1431,413.333333,pitchwheel,43,1638,64,0
1432,413.333333,note_off,43,1638,64,320
1433,414.666667,note_on,45,2047,64,0
1434,414.666667,pitchwheel,45,2047,64,0
1435,414.666667,note_off,45,2047,64,640
1436,416.0,note_on,46,1638,64,0
1437,416.0,pitchwheel,46,1638,64,0
1438,416.0,note_off,46,1638,64,320
1439,416.666667,note_on,44,2047,64,0
1440,416.666667,pitchwheel,44,2047,64,0
1441,416.666667,note_off,44,2047,64,320
1442,417.333333,note_on,38,3685,64,0
1443,417.333333,pitchwheel,38,3685,64,0
1444,417.333333,note_off,38,3685,64,320
1445,418.0,note_on,33,1638,64,0
1446,418.0,pitchwheel,33,1638,64,0
1447,418.0,note_off,33,1638,64,320
1448,418.666667,note_on,36,2047,64,0
1449,418.666667,pitchwheel,36,2047,64,0
1450,418.666667,note_off,36,2047,64,320
1451,419.333333,note_on,31,1638,64,0
1452,419.333333,pitchwheel,31,1638,64,0
1453,419.333333,note_off,31,1638,64,640
1454,420.666667,note_on,31,409,64,0
1455,420.666667,pitchwheel,31,409,64,0
1456,420.666667,note_off,31,409,64,320
1457,421.333333,note_on,36,819,64,0
1458,421.333333,pitchwheel,36,819,64,0
1459,421.333333,note_off,36,819,64,320
1460,422.0,note_on,41,0,64,0
1461,422.0,note_off,41,0,64,320
1462,422.666667,note_on,38,2457,64,0
1463,422.666667,pitchwheel,38,2457,64,0
1464,422.666667,note_off,38,2457,64,320
1465,423.333333,note_on,35,3276,64,0
1466,423.333333,pitchwheel,35,3276,64,0
1467,423.333333,note_off,35,3276,64,320
1468,424.0,note_on,38,1228,64,0
1469,424.0,pitchwheel,38,1228,64,0
1470,424.0,note_off,38,1228,64,320
1471,424.666667,note_on,41,0,64,0
1472,424.666667,note_off,41,0,64,320
1473,425.333333,note_on,40,2866,64,0
1474,425.333333,pitchwheel,40,2866,64,0
1475,425.333333,note_off,40,2866,64,320
1476,426.666667,note_on,38,0,64,0
1477,426.666667,note_off,38,0,64,320
1478,427.333333,note_on,40,1638,64,0
1479,427.333333,pitchwheel,40,1638,64,0
1480,427.333333,note_off,40,1638,64,320
1481,428.0,note_on,41,0,64,0
1482,428.0,note_off,41,0,64,320
1483,428.666667,note_on,43,0,64,0
1484,428.666667,note_off,43,0,64,320
1485,429.333333,note_on,40,1638,64,0
1486,429.333333,pitchwheel,40,1638,64,0
1487,429.333333,note_off,40,1638,64,320
1488,430.666667,note_on,46,0,64,0
1489,430.666667,note_off,46,0,64,320
1490,432.0,note_on,48,3276,64,0
1491,432.0,pitchwheel,48,3276,64,0
1492,432.0,note_off,48,3276,64,320
1493,433.333333,note_on,49,0,64,0
1494,433.333333,note_off,49,0,64,320
1495,434.0,note_on,45,1638,64,0
1496,434.0,pitchwheel,45,1638,64,0
1497,434.0,note_off,45,1638,64,640
1498,435.333333,note_on,48,819,64,0
1499,435.333333,pitchwheel,48,819,64,0
1500,435.333333,note_off,48,819,64,320
1501,436.0,note_on,48,2047,64,0
1502,436.0,pitchwheel,48,2047,64,0
1503,436.0,note_off,48,2047,64,320
1504,436.666667,note_on,50,819,64,0
1505,436.666667,pitchwheel,50,819,64,0
1506,436.666667,note_off,50,819,64,320
1507,437.333333,note_on,56,0,64,0
1508,437.333333,note_off,56,0,64,320
1509,438.0,note_on,57,0,64,0
1510,438.0,note_off,57,0,64,320
1511,439.333333,note_on,59,3276,64,0
1512,439.333333,pitchwheel,59,3276,64,0
1513,439.333333,note_off,59,3276,64,320
1514,440.0,note_on,60,3276,64,0
1515,440.0,pitchwheel,60,3276,64,0
1516,440.0,note_off,60,3276,64,320
1517,441.333333,note_on,62,3685,64,0
1518,441.333333,pitchwheel,62,3685,64,0
1519,441.333333,note_off,62,3685,64,320
1520,442.0,note_on,57,2047,64,0
1521,442.0,pitchwheel,57,2047,64,0
1522,442.0,note_off,57,2047,64,320
1523,442.666667,note_on,58,0,64,0
1524,442.666667,note_off,58,0,64,320
1525,443.333333,note_on,55,2866,64,0
1526,443.333333,pitchwheel,55,2866,64,0
1527,443.333333,note_off,55,2866,64,320
1528,444.0,note_on,57,3276,64,0
1529,444.0,pitchwheel,57,3276,64,0
1530,444.0,note_off,57,3276,64,320
1531,444.666667,note_on,62,819,64,0
1532,444.666667,pitchwheel,62,819,64,0
1533,444.666667,note_off,62,819,64,320
1534,445.333333,note_on,58,1638,64,0
1535,445.333333,pitchwheel,58,1638,64,0
1536,445.333333,note_off,58,1638,64,320
1537,446.0,note_on,53,0,64,0
1538,446.0,note_off,53,0,64,320
1539,446.666667,note_on,55,1638,64,0
1540,446.666667,pitchwheel,55,1638,64,0
1541,446.666667,note_off,55,1638,64,320
1542,447.333333,note_on,59,3685,64,0
1543,447.333333,pitchwheel,59,3685,64,0
1544,447.333333,note_off,59,3685,64,320
1545,448.0,note_on,63,819,64,0
1546,448.0,pitchwheel,63,819,64,0
1547,448.0,note_off,63,819,64,320
1548,448.666667,note_on,62,0,64,0
1549,448.666667,note_off,62,0,64,320
1550,449.333333,note_on,57,0,64,0
1551,449.333333,note_off,57,0,64,320
1552,450.0,note_on,52,2457,64,0
1553,450.0,pitchwheel,52,2457,64,0
1554,450.0,note_off,52,2457,64,320
1555,450.666667,note_on,56,0,64,0
1556,450.666667,note_off,56,0,64,320
1557,451.333333,note_on,55,1638,64,0
1558,451.333333,pitchwheel,55,1638,64,0
1559,451.333333,note_off,55,1638,64,320
1560,452.0,note_on,55,2866,64,0
1561,452.0,pitchwheel,55,2866,64,0
1562,452.0,note_off,55,2866,64,320
1563,453.333333,note_on,57,0,64,0
1564,453.333333,note_off,57,0,64,320
1565,454.0,note_on,53,0,64,0
1566,454.0,note_off,53,0,64,320
1567,455.333333,note_on,52,2457,64,0
1568,455.333333,pitchwheel,52,2457,64,0
1569,455.333333,note_off,52,2457,64,320
1570,456.0,note_on,51,819,64,0
1571,456.0,pitchwheel,51,819,64,0
1572,456.0,note_off,51,819,64,320
1573,456.666667,note_on,57,0,64,0
1574,456.666667,note_off,57,0,64,320
1575,457.333333,note_on,58,0,64,0
1576,457.333333,note_off,58,0,64,320
1577,458.666667,note_on,58,0,64,0
1578,458.666667,note_off,58,0,64,320
1579,460.0,note_on,57,2047,64,0
1580,460.0,pitchwheel,57,2047,64,0
1581,460.0,note_off,57,2047,64,320
1582,460.666667,note_on,62,819,64,0
1583,460.666667,pitchwheel,62,819,64,0
1584,460.666667,note_off,62,819,64,320
1585,461.333333,note_on,65,2457,64,0
1586,461.333333,pitchwheel,65,2457,64,0
1587,461.333333,note_off,65,2457,64,320
1588,462.0,note_on,55,2866,64,0
1589,462.0,pitchwheel,55,2866,64,0
1590,462.0,note_off,55,2866,64,320
1591,462.666667,note_on,55,1638,64,0
1592,462.666667,pitchwheel,55,1638,64,0
1593,462.666667,note_off,55,1638,64,320
1594,463.333333,note_on,52,2457,64,0
1595,463.333333,pitchwheel,52,2457,64,0
1596,463.333333,note_off,52,2457,64,320
1597,464.0,note_on,57,3276,64,0
1598,464.0,pitchwheel,57,3276,64,0
1599,464.0,note_off,57,3276,64,320
1600,464.666667,note_on,57,0,64,0
1601,464.666667,note_off,57,0,64,320
1602,465.333333,note_on,62,2457,64,0
1603,465.333333,pitchwheel,62,2457,64,0
1604,465.333333,note_off,62,2457,64,320
1605,466.0,note_on,59,3276,64,0
1606,466.0,pitchwheel,59,3276,64,0
1607,466.0,note_off,59,3276,64,320
1608,466.666667,note_on,56,0,64,0
1609,466.666667,note_off,56,0,64,320
1610,468.0,note_on,53,0,64,0
1611,468.0,note_off,53,0,64,320
1612,468.666667,note_on,47,2457,64,0
1613,468.666667,pitchwheel,47,2457,64,0
1614,468.666667,note_off,47,2457,64,320
1615,469.333333,note_on,43,1638,64,0
1616,469.333333,pitchwheel,43,1638,64,0
1617,469.333333,note_off,43,1638,64,320
1618,470.0,note_on,44,2047,64,0
1619,470.0,pitchwheel,44,2047,64,0
1620,470.0,note_off,44,2047,64,320
1621,470.666667,note_on,38,2457,64,0
1622,470.666667,pitchwheel,38,2457,64,0
1623,470.666667,note_off,38,2457,64,320
1624,471.333333,note_on,33,1638,64,0
1625,471.333333,pitchwheel,33,1638,64,0
1626,471.333333,note_off,33,1638,64,320
1627,472.0,note_on,33,0,64,0
1628,472.0,note_off,33,0,64,320
1629,472.666667,note_on,38,3685,64,0
1630,472.666667,pitchwheel,38,3685,64,0
1631,472.666667,note_off,38,3685,64,320
1632,473.333333,note_on,33,1638,64,0
1633,473.333333,pitchwheel,33,1638,64,0
1634,473.333333,note_off,33,1638,64,320
1635,474.0,note_on,38,0,64,0
1636,474.0,note_off,38,0,64,320
1637,474.666667,note_on,34,1638,64,0
1638,474.666667,pitchwheel,34,1638,64,0
1639,474.666667,note_off,34,1638,64,320
1640,475.333333,note_on,38,2457,64,0
1641,475.333333,pitchwheel,38,2457,64,0
1642,475.333333,note_off,38,2457,64,320
1643,476.0,note_on,41,0,64,0
1644,476.0,note_off,41,0,64,320
1645,476.666667,note_on,43,0,64,0
1646,476.666667,note_off,43,0,64,320
1647,477.333333,note_on,41,1228,64,0
1648,477.333333,pitchwheel,41,1228,64,0
1649,477.333333,note_off,41,1228,64,320
1650,478.0,note_on,36,2047,64,0
1651,478.0,pitchwheel,36,2047,64,0
1652,478.0,note_off,36,2047,64,320
1653,478.666667,note_on,36,819,64,0
1654,478.666667,pitchwheel,36,819,64,0
1655,478.666667,note_off,36,819,64,320
1656,480.0,note_on,35,2047,64,0
1657,480.0,pitchwheel,35,2047,64,0
1658,480.0,note_off,35,2047,64,320
1659,480.666667,note_on,41,0,64,0
1660,480.666667,note_off,41,0,64,320
1661,481.333333,note_on,38,2457,64,0
1662,481.333333,pitchwheel,38,2457,64,0
1663,481.333333,note_off,38,2457,64,320
1664,482.0,note_on,40,2457,64,0
1665,482.0,pitchwheel,40,2457,64,0
1666,482.0,note_off,40,2457,64,320
1667,482.666667,note_on,36,3276,64,0
1668,482.666667,pitchwheel,36,3276,64,0
1669,482.666667,note_off,36,3276,64,320
1670,483.333333,note_on,32,2047,64,0
1671,483.333333,pitchwheel,32,2047,64,0
1672,483.333333,note_off,32,2047,64,320
1673,484.0,note_on,33,1638,64,0
1674,484.0,pitchwheel,33,1638,64,0
1675,484.0,note_off,33,1638,64,320
1676,485.333333,note_on,33,1638,64,0
1677,485.333333,pitchwheel,33,1638,64,0
1678,485.333333,note_off,33,1638,64,320
1679,486.666667,note_on,31,0,64,0
1680,486.666667,note_off,31,0,64,640
1681,488.0,note_on,33,2047,64,0
1682,488.0,pitchwheel,33,2047,64,0
1683,488.0,note_off,33,2047,64,320
1684,488.666667,note_on,31,2866,64,0
1685,488.666667,pitchwheel,31,2866,64,0
1686,488.666667,note_off,31,2866,64,320
1687,489.333333,note_on,31,1638,64,0
1688,489.333333,pitchwheel,31,1638,64,0
1689,489.333333,note_off,31,1638,64,320
1690,490.0,note_on,31,0,64,0
1691,490.0,note_off,31,0,64,320
1692,490.666667,note_on,33,2047,64,0
1693,490.666667,pitchwheel,33,2047,64,0
1694,490.666667,note_off,33,2047,64,320
1695,491.333333,note_on,33,0,64,0
1696,491.333333,note_off,33,0,64,320
1697,492.666667,note_on,33,1638,64,0
1698,492.666667,pitchwheel,33,1638,64,0
1699,492.666667,note_off,33,1638,64,320
1700,493.333333,note_on,32,2047,64,0
1701,493.333333,pitchwheel,32,2047,64,0
1702,493.333333,note_off,32,2047,64,320
1703,494.666667,note_on,31,0,64,0
1704,494.666667,note_off,31,0,64,320
1705,495.333333,note_on,35,2457,64,0
1706,495.333333,pitchwheel,35,2457,64,0
1707,495.333333,note_off,35,2457,64,320
1708,496.0,note_on,31,2866,64,0
1709,496.0,pitchwheel,31,2866,64,0
1710,496.0,note_off,31,2866,64,320
1711,496.666667,note_on,35,2047,64,0
1712,496.666667,pitchwheel,35,2047,64,0
1713,496.666667,note_off,35,2047,64,320
1714,497.333333,note_on,38,1228,64,0
1715,497.333333,pitchwheel,38,1228,64,0
1716,497.333333,note_off,38,1228,64,320
1717,498.0,note_on,35,3276,64,0
1718,498.0,pitchwheel,35,3276,64,0
1719,498.0,note_off,35,3276,64,320
1720,498.666667,note_on,38,2457,64,0
1721,498.666667,pitchwheel,38,2457,64,0
1722,498.666667,note_off,38,2457,64,320
1723,499.333333,note_on,38,3685,64,0
1724,499.333333,pitchwheel,38,3685,64,0
1725,499.333333,note_off,38,3685,64,320
1726,500.0,note_on,35,3276,64,0
1727,500.0,pitchwheel,35,3276,64,0
1728,500.0,note_off,35,3276,64,320
1729,500.666667,note_on,38,0,64,0
1730,500.666667,note_off,38,0,64,320
1731,501.333333,note_on,36,3276,64,0
1732,501.333333,pitchwheel,36,3276,64,0
1733,501.333333,note_off,36,3276,64,320
1734,502.0,note_on,38,2457,64,0
1735,502.0,pitchwheel,38,2457,64,0
1736,502.0,note_off,38,2457,64,320
1737,502.666667,note_on,33,0,64,0
1738,502.666667,note_off,33,0,64,320
1739,503.333333,note_on,31,409,64,0
1740,503.333333,pitchwheel,31,409,64,0
1741,503.333333,note_off,31,409,64,320
1742,504.0,note_on,34,1638,64,0
1743,504.0,pitchwheel,34,1638,64,0
1744,504.0,note_off,34,1638,64,320
1745,504.666667,note_on,36,2047,64,0
1746,504.666667,pitchwheel,36,2047,64,0
1747,504.666667,note_off,36,2047,64,320
1748,505.333333,note_on,36,819,64,0
1749,505.333333,pitchwheel,36,819,64,0
1750,505.333333,note_off,36,819,64,320
1751,506.666667,note_on,36,2047,64,0
1752,506.666667,pitchwheel,36,2047,64,0
1753,506.666667,note_off,36,2047,64,640
1754,508.666667,note_on,38,819,64,0
1755,508.666667,pitchwheel,38,819,64,0
1756,508.666667,note_off,38,819,64,320
1757,509.333333,note_on,35,3685,64,0
1758,509.333333,pitchwheel,35,3685,64,0
1759,509.333333,note_off,35,3685,64,320
1760,510.0,note_on,41,0,64,0
1761,510.0,note_off,41,0,64,320
1762,510.666667,note_on,45,2047,64,0
1763,510.666667,pitchwheel,45,2047,64,0
1764,510.666667,note_off,45,2047,64,320
1765,512.0,note_on,44,0,64,0
1766,512.0,note_off,44,0,64,320
1767,513.333333,note_on,47,3685,64,0
1768,513.333333,pitchwheel,47,3685,64,0
1769,513.333333,note_off,47,3685,64,320
1770,514.0,note_on,47,3276,64,0
1771,514.0,pitchwheel,47,3276,64,0
1772,514.0,note_off,47,3276,64,320
1773,514.666667,note_on,50,0,64,0
1774,514.666667,note_off,50,0,64,320
1775,515.333333,note_on,53,1228,64,0
1776,515.333333,pitchwheel,53,1228,64,0
1777,515.333333,note_off,53,1228,64,320
1778,516.0,note_on,53,0,64,0
1779,516.0,note_off,53,0,64,320
1780,516.666667,note_on,57,1638,64,0
1781,516.666667,pitchwheel,57,1638,64,0
1782,516.666667,note_off,57,1638,64,320
1783,517.333333,note_on,57,2047,64,0
1784,517.333333,pitchwheel,57,2047,64,0
1785,517.333333,note_off,57,2047,64,320
1786,518.0,note_on,57,0,64,0
1787,518.0,note_off,57,0,64,320
1788,518.666667,note_on,55,409,64,0
1789,518.666667,pitchwheel,55,409,64,0
1790,518.666667,note_off,55,409,64,320
1791,519.333333,note_on,57,1638,64,0
1792,519.333333,pitchwheel,57,1638,64,0
1793,519.333333,note_off,57,1638,64,320
1794,520.0,note_on,58,1638,64,0
1795,520.0,pitchwheel,58,1638,64,0
1796,520.0,note_off,58,1638,64,320
1797,521.333333,note_on,55,409,64,0
1798,521.333333,pitchwheel,55,409,64,0
1799,521.333333,note_off,55,409,64,320
1800,522.0,note_on,55,1638,64,0
1801,522.0,pitchwheel,55,1638,64,0
1802,522.0,note_off,55,1638,64,320
1803,522.666667,note_on,58,1638,64,0
1804,522.666667,pitchwheel,58,1638,64,0
1805,522.666667,note_off,58,1638,64,320
1806,523.333333,note_on,60,2047,64,0
1807,523.333333,pitchwheel,60,2047,64,0
1808,523.333333,note_off,60,2047,64,320
1809,524.0,note_on,53,0,64,0
1810,524.0,note_off,53,0,64,320
1811,524.666667,note_on,55,0,64,0
1812,524.666667,note_off,55,0,64,320
1813,525.333333,note_on,60,3276,64,0
1814,525.333333,pitchwheel,60,3276,64,0
1815,525.333333,note_off,60,3276,64,320
1816,526.0,note_on,60,2047,64,0
1817,526.0,pitchwheel,60,2047,64,0
1818,526.0,note_off,60,2047,64,320
1819,526.666667,note_on,60,819,64,0
1820,526.666667,pitchwheel,60,819,64,0
1821,526.666667,note_off,60,819,64,320
1822,527.333333,note_on,53,0,64,0
1823,527.333333,note_off,53,0,64,640
1824,528.666667,note_on,50,3685,64,0
1825,528.666667,pitchwheel,50,3685,64,0
1826,528.666667,note_off,50,3685,64,320
1827,529.333333,note_on,45,2047,64,0
1828,529.333333,pitchwheel,45,2047,64,0
1829,529.333333,note_off,45,2047,64,320
1830,530.0,note_on,40,2457,64,0
1831,530.0,pitchwheel,40,2457,64,0
1832,530.0,note_off,40,2457,64,320
1833,530.666667,note_on,46,1638,64,0
1834,530.666667,pitchwheel,46,1638,64,0
1835,530.666667,note_off,46,1638,64,320
1836,531.333333,note_on,46,409,64,0
1837,531.333333,pitchwheel,46,409,64,0
1838,531.333333,note_off,46,409,64,320
1839,532.0,note_on,45,3276,64,0
1840,532.0,pitchwheel,45,3276,64,0
1841,532.0,note_off,45,3276,64,320
1842,533.333333,note_on,44,2047,64,0
1843,533.333333,pitchwheel,44,2047,64,0
1844,533.333333,note_off,44,2047,64,320
1845,534.0,note_on,41,0,64,0
1846,534.0,note_off,41,0,64,320
1847,534.666667,note_on,40,1638,64,0
1848,534.666667,pitchwheel,40,1638,64,0
1849,534.666667,note_off,40,1638,64,320
1850,535.333333,note_on,38,819,64,0
1851,535.333333,pitchwheel,38,819,64,0
1852,535.333333,note_off,38,819,64,320
1853,536.0,note_on,44,0,64,0
1854,536.0,note_off,44,0,64,320
1855,536.666667,note_on,40,1638,64,0
1856,536.666667,pitchwheel,40,1638,64,0
1857,536.666667,note_off,40,1638,64,320
1858,537.333333,note_on,46,0,64,0
1859,537.333333,note_off,46,0,64,320
1860,538.666667,note_on,44,0,64,0
1861,538.666667,note_off,44,0,64,320
1862,540.0,note_on,41,0,64,0
1863,540.0,note_off,41,0,64,320
1864,540.666667,note_on,35,3276,64,0
1865,540.666667,pitchwheel,35,3276,64,0
1866,540.666667,note_off,35,3276,64,320
1867,541.333333,note_on,34,1638,64,0
1868,541.333333,pitchwheel,34,1638,64,0
1869,541.333333,note_off,34,1638,64,320
1870,542.0,note_on,36,2047,64,0
1871,542.0,pitchwheel,36,2047,64,0
1872,542.0,note_off,36,2047,64,320
1873,542.666667,note_on,36,819,64,0
1874,542.666667,pitchwheel,36,819,64,0
1875,542.666667,note_off,36,819,64,320
1876,543.333333,note_on,33,1638,64,0
1877,543.333333,pitchwheel,33,1638,64,0
1878,543.333333,note_off,33,1638,64,320
1879,544.0,note_on,32,0,64,0
1880,544.0,note_off,32,0,64,320
1881,544.666667,note_on,33,0,64,0
1882,544.666667,note_off,33,0,64,320
1883,546.0,note_on,33,1638,64,0
1884,546.0,pitchwheel,33,1638,64,0
1885,546.0,note_off,33,1638,64,320
1886,546.666667,note_on,32,0,64,0
1887,546.666667,note_off,32,0,64,320
1888,548.0,note_on,31,0,64,0
1889,548.0,note_off,31,0,64,320
1890,548.666667,note_on,34,409,64,0
1891,548.666667,pitchwheel,34,409,64,0
1892,548.666667,note_off,34,409,64,640
1893,550.0,note_on,35,2047,64,0
1894,550.0,pitchwheel,35,2047,64,0
1895,550.0,note_off,35,2047,64,320
1896,550.666667,note_on,41,1228,64,0
1897,550.666667,pitchwheel,41,1228,64,0
1898,550.666667,note_off,41,1228,64,320
1899,551.333333,note_on,43,0,64,0
1900,551.333333,note_off,43,0,64,320
1901,552.0,note_on,41,0,64,0
1902,552.0,note_off,41,0,64,320
1903,552.666667,note_on,43,2866,64,0
1904,552.666667,pitchwheel,43,2866,64,0
1905,552.666667,note_off,43,2866,64,320
1906,553.333333,note_on,46,0,64,0
1907,553.333333,note_off,46,0,64,320
1908,554.0,note_on,48,2047,64,0
1909,554.0,pitchwheel,48,2047,64,0
1910,554.0,note_off,48,2047,64,320
1911,554.666667,note_on,43,1638,64,0
1912,554.666667,pitchwheel,43,1638,64,0
1913,554.666667,note_off,43,1638,64,320
1914,555.333333,note_on,38,2457,64,0
1915,555.333333,pitchwheel,38,2457,64,0
1916,555.333333,note_off,38,2457,64,320
1917,556.0,note_on,33,0,64,0
1918,556.0,note_off,33,0,64,320
1919,556.666667,note_on,40,2457,64,0
1920,556.666667,pitchwheel,40,2457,64,0
1921,556.666667,note_off,40,2457,64,320
1922,557.333333,note_on,41,2457,64,0
1923,557.333333,pitchwheel,41,2457,64,0
1924,557.333333,note_off,41,2457,64,320
1925,558.0,note_on,41,1228,64,0
1926,558.0,pitchwheel,41,1228,64,0
1927,558.0,note_off,41,1228,64,320
1928,558.666667,note_on,41,0,64,0
1929,558.666667,note_off,41,0,64,320
1930,560.0,note_on,41,0,64,0
1931,560.0,note_off,41,0,64,320
1932,560.666667,note_on,38,2457,64,0
1933,560.666667,pitchwheel,38,2457,64,0
1934,560.666667,note_off,38,2457,64,320
1935,562.0,note_on,33,1638,64,0
1936,562.0,pitchwheel,33,1638,64,0
1937,562.0,note_off,33,1638,64,320
1938,562.666667,note_on,35,3276,64,0
1939,562.666667,pitchwheel,35,3276,64,0
1940,562.666667,note_off,35,3276,64,320
1941,564.0,note_on,34,0,64,0
1942,564.0,note_off,34,0,64,320
1943,565.333333,note_on,34,1638,64,0
1944,565.333333,pitchwheel,34,1638,64,0
1945,565.333333,note_off,34,1638,64,320
1946,566.666667,note_on,35,2047,64,0
1947,566.666667,pitchwheel,35,2047,64,0
1948,566.666667,note_off,35,2047,64,320
1949,567.333333,note_on,35,3276,64,0
1950,567.333333,pitchwheel,35,3276,64,0
1951,567.333333,note_off,35,3276,64,320
1952,568.0,note_on,36,819,64,0
1953,568.0,pitchwheel,36,819,64,0
1954,568.0,note_off,36,819,64,320
1955,568.666667,note_on,41,0,64,0
1956,568.666667,note_off,41,0,64,320
1957,569.333333,note_on,41,1228,64,0
1958,569.333333,pitchwheel,41,1228,64,0
1959,569.333333,note_off,41,1228,64,320
1960,570.0,note_on,35,3276,64,0
1961,570.0,pitchwheel,35,3276,64,0
1962,570.0,note_off,35,3276,64,320
1963,570.666667,note_on,35,3685,64,0
1964,570.666667,pitchwheel,35,3685,64,0
1965,570.666667,note_off,35,3685,64,320
1966,571.333333,note_on,33,0,64,0
1967,571.333333,note_off,33,0,64,320
1968,572.0,note_on,36,2047,64,0
1969,572.0,pitchwheel,36,2047,64,0
1970,572.0,note_off,36,2047,64,320
1971,572.666667,note_on,38,819,64,0
1972,572.666667,pitchwheel,38,819,64,0
1973,572.666667,note_off,38,819,64,320
1974,573.333333,note_on,36,3276,64,0
1975,573.333333,pitchwheel,36,3276,64,0
1976,573.333333,note_off,36,3276,64,320
1977,574.666667,note_on,35,3685,64,0
1978,574.666667,pitchwheel,35,3685,64,0
1979,574.666667,note_off,35,3685,64,320
1980,575.333333,note_on,33,2047,64,0
1981,575.333333,pitchwheel,33,2047,64,0
1982,575.333333,note_off,33,2047,64,960
1983,577.333333,note_on,38,0,64,0
1984,577.333333,note_off,38,0,64,320
1985,578.0,note_on,40,2457,64,0
1986,578.0,pitchwheel,40,2457,64,0
1987,578.0,note_off,40,2457,64,320
1988,578.666667,note_on,46,1638,64,0
1989,578.666667,pitchwheel,46,1638,64,0
1990,578.666667,note_off,46,1638,64,320
1991,579.333333,note_on,45,3276,64,0
1992,579.333333,pitchwheel,45,3276,64,0
1993,579.333333,note_off,45,3276,64,640
1994,580.666667,note_on,43,409,64,0
1995,580.666667,pitchwheel,43,409,64,0
1996,580.666667,note_off,43,409,64,320
1997,581.333333,note_on,38,3685,64,0
1998,581.333333,pitchwheel,38,3685,64,0
1999,581.333333,note_off,38,3685,64,320
2000,582.0,note_on,41,0,64,0
2001,582.0,note_off,41,0,64,320
2002,582.666667,note_on,46,409,64,0
2003,582.666667,pitchwheel,46,409,64,0
2004,582.666667,note_off,46,409,64,320
2005,583.333333,note_on,43,0,64,0
2006,583.333333,note_off,43,0,64,320
2007,584.0,note_on,44,0,64,0
2008,584.0,note_off,44,0,64,320
2009,584.666667,note_on,48,819,64,0
2010,584.666667,pitchwheel,48,819,64,0
2011,584.666667,note_off,48,819,64,320
2012,585.333333,note_on,48,2047,64,0
2013,585.333333,pitchwheel,48,2047,64,0
2014,585.333333,note_off,48,2047,64,320
2015,586.666667,note_on,48,3276,64,0
2016,586.666667,pitchwheel,48,3276,64,0
2017,586.666667,note_off,48,3276,64,320
2018,587.333333,note_on,52,1638,64,0
2019,587.333333,pitchwheel,52,1638,64,0
2020,587.333333,note_off,52,1638,64,320
2021,588.0,note_on,53,0,64,0
2022,588.0,note_off,53,0,64,320
2023,588.666667,note_on,52,2457,64,0
2024,588.666667,pitchwheel,52,2457,64,0
2025,588.666667,note_off,52,2457,64,320
2026,589.333333,note_on,51,819,64,0
2027,589.333333,pitchwheel,51,819,64,0
2028,589.333333,note_off,51,819,64,320
2029,590.0,note_on,57,0,64,0
2030,590.0,note_off,57,0,64,320
2031,590.666667,note_on,58,0,64,0
2032,590.666667,note_off,58,0,64,320
2033,592.0,note_on,57,2047,64,0
2034,592.0,pitchwheel,57,2047,64,0
2035,592.0,note_off,57,2047,64,320
2036,593.333333,note_on,59,2047,64,0
2037,593.333333,pitchwheel,59,2047,64,0
2038,593.333333,note_off,59,2047,64,320
2039,594.0,note_on,55,0,64,0
2040,594.0,note_off,55,0,64,320
2041,594.666667,note_on,58,0,64,0
2042,594.666667,note_off,58,0,64,320
2043,595.333333,note_on,57,3276,64,0
2044,595.333333,pitchwheel,57,3276,64,0
2045,595.333333,note_off,57,3276,64,320
2046,596.0,note_on,57,2047,64,0
2047,596.0,pitchwheel,57,2047,64,0
2048,596.0,note_off,57,2047,64,320
2049,596.666667,note_on,62,819,64,0
2050,596.666667,pitchwheel,62,819,64,0
2051,596.666667,note_off,62,819,64,320
2052,597.333333,note_on,55,1638,64,0
2053,597.333333,pitchwheel,55,1638,64,0
2054,597.333333,note_off,55,1638,64,320
2055,598.0,note_on,57,0,64,0
2056,598.0,note_off,57,0,64,320
2057,599.333333,note_on,57,1638,64,0
2058,599.333333,pitchwheel,57,1638,64,0
2059,599.333333,note_off,57,1638,64,320
2060,600.0,note_on,56,0,64,0
2061,600.0,note_off,56,0,64,320
2062,601.333333,note_on,55,409,64,0
2063,601.333333,pitchwheel,55,409,64,0
2064,601.333333,note_off,55,409,64,320
2065,602.0,note_on,57,2047,64,0
2066,602.0,pitchwheel,57,2047,64,0
2067,602.0,note_off,57,2047,64,320
2068,602.666667,note_on,62,2457,64,0
2069,602.666667,pitchwheel,62,2457,64,0
2070,602.666667,note_off,62,2457,64,320
2071,603.333333,note_on,56,2047,64,0
2072,603.333333,pitchwheel,56,2047,64,0
2073,603.333333,note_off,56,2047,64,320
2074,604.0,note_on,62,1228,64,0
2075,604.0,pitchwheel,62,1228,64,0
2076,604.0,note_off,62,1228,64,320
2077,604.666667,note_on,59,3276,64,0
2078,604.666667,pitchwheel,59,3276,64,0
2079,604.666667,note_off,59,3276,64,320
2080,605.333333,note_on,58,1638,64,0
2081,605.333333,pitchwheel,58,1638,64,0
2082,605.333333,note_off,58,1638,64,320
2083,606.0,note_on,53,0,64,0
2084,606.0,note_off,53,0,64,320
2085,606.666667,note_on,57,1638,64,0
2086,606.666667,pitchwheel,57,1638,64,0
2087,606.666667,note_off,57,1638,64,320
2088,607.333333,note_on,59,3685,64,0
2089,607.333333,pitchwheel,59,3685,64,0
2090,607.333333,note_off,59,3685,64,320
2091,608.0,note_on,57,2047,64,0
2092,608.0,pitchwheel,57,2047,64,0
2093,608.0,note_off,57,2047,64,320
2094,608.666667,note_on,62,0,64,0
2095,608.666667,note_off,62,0,64,320
2096,609.333333,note_on,57,0,64,0
2097,609.333333,note_off,57,0,64,320
2098,610.0,note_on,57,2047,64,0
2099,610.0,pitchwheel,57,2047,64,0
2100,610.0,note_off,57,2047,64,320
2101,610.666667,note_on,55,1638,64,0
2102,610.666667,pitchwheel,55,1638,64,0
2103,610.666667,note_off,55,1638,64,320
2104,611.333333,note_on,50,2457,64,0
2105,611.333333,pitchwheel,50,2457,64,0
2106,611.333333,note_off,50,2457,64,320
2107,612.0,note_on,50,1228,64,0
2108,612.0,pitchwheel,50,1228,64,0
2109,612.0,note_off,50,1228,64,320
2110,613.333333,note_on,50,819,64,0
2111,613.333333,pitchwheel,50,819,64,0
2112,613.333333,note_off,50,819,64,320
2113,614.0,note_on,53,0,64,0
2114,614.0,note_off,53,0,64,320
2115,615.333333,note_on,47,3276,64,0
2116,615.333333,pitchwheel,47,3276,64,0
2117,615.333333,note_off,47,3276,64,320
2118,616.0,note_on,48,3276,64,0
2119,616.0,pitchwheel,48,3276,64,0
2120,616.0,note_off,48,3276,64,320
2121,616.666667,note_on,44,2047,64,0
2122,616.666667,pitchwheel,44,2047,64,0
2123,616.666667,note_off,44,2047,64,320
2124,617.333333,note_on,46,0,64,0
2125,617.333333,note_off,46,0,64,320
2126,618.666667,note_on,48,3276,64,0
2127,618.666667,pitchwheel,48,3276,64,0
2128,618.666667,note_off,48,3276,64,320
2129,620.0,note_on,44,2047,64,0
2130,620.0,pitchwheel,44,2047,64,0
2131,620.0,note_off,44,2047,64,320
2132,620.666667,note_on,45,1638,64,0
2133,620.666667,pitchwheel,45,1638,64,0
2134,620.666667,note_off,45,1638,64,320
2135,621.333333,note_on,50,2457,64,0
2136,621.333333,pitchwheel,50,2457,64,0
2137,621.333333,note_off,50,2457,64,320
2138,622.0,note_on,45,3276,64,0
2139,622.0,pitchwheel,45,3276,64,0
2140,622.0,note_off,45,3276,64,320
2141,622.666667,note_on,46,409,64,0
2142,622.666667,pitchwheel,46,409,64,0
2143,622.666667,note_off,46,409,64,320
2144,623.333333,note_on,40,2457,64,0
2145,623.333333,pitchwheel,40,2457,64,0
2146,623.333333,note_off,40,2457,64,320
2147,624.0,note_on,36,2047,64,0
2148,624.0,pitchwheel,36,2047,64,0
2149,624.0,note_off,36,2047,64,320
2150,624.666667,note_on,33,0,64,0
2151,624.666667,note_off,33,0,64,320
2152,625.333333,note_on,31,409,64,0
2153,625.333333,pitchwheel,31,409,64,0
2154,625.333333,note_off,31,409,64,320
2155,626.0,note_on,31,0,64,0
2156,626.0,note_off,31,0,64,640
2157,628.0,note_on,36,2047,64,0
2158,628.0,pitchwheel,36,2047,64,0
2159,628.0,note_off,36,2047,64,320
2160,628.666667,note_on,35,2457,64,0
2161,628.666667,pitchwheel,35,2457,64,0
2162,628.666667,note_off,35,2457,64,320
2163,629.333333,note_on,36,819,64,0
2164,629.333333,pitchwheel,36,819,64,0
2165,629.333333,note_off,36,819,64,320
2166,630.0,note_on,38,1228,64,0
2167,630.0,pitchwheel,38,1228,64,0
2168,630.0,note_off,38,1228,64,320
2169,630.666667,note_on,38,2457,64,0
2170,630.666667,pitchwheel,38,2457,64,0
2171,630.666667,note_off,38,2457,64,320
2172,631.333333,note_on,40,2457,64,0
2173,631.333333,pitchwheel,40,2457,64,0
2174,631.333333,note_off,40,2457,64,320
2175,632.0,note_on,44,0,64,0
2176,632.0,note_off,44,0,64,320
2177,632.666667,note_on,38,2457,64,0
2178,632.666667,pitchwheel,38,2457,64,0
2179,632.666667,note_off,38,2457,64,320
2180,633.333333,note_on,40,2457,64,0
2181,633.333333,pitchwheel,40,2457,64,0
2182,633.333333,note_off,40,2457,64,320
2183,634.0,note_on,38,0,64,0
2184,634.0,note_off,38,0,64,320
2185,634.666667,note_on,40,2866,64,0
2186,634.666667,pitchwheel,40,2866,64,0
2187,634.666667,note_off,40,2866,64,320
2188,635.333333,note_on,38,2457,64,0
2189,635.333333,pitchwheel,38,2457,64,0
2190,635.333333,note_off,38,2457,64,320
2191,636.0,note_on,33,2047,64,0
2192,636.0,pitchwheel,33,2047,64,0
2193,636.0,note_off,33,2047,64,320
2194,636.666667,note_on,35,3685,64,0
2195,636.666667,pitchwheel,35,3685,64,0
2196,636.666667,note_off,35,3685,64,320
2197,637.333333,note_on,34,1638,64,0
2198,637.333333,pitchwheel,34,1638,64,0
2199,637.333333,note_off,34,1638,64,320
2200,638.0,note_on,29,0,64,0
2201,638.0,note_off,29,0,64,320
2202,638.666667,note_on,29,1228,64,0
2203,638.666667,pitchwheel,29,1228,64,0
2204,638.666667,note_off,29,1228,64,320
2205,640.0,note_on,32,0,64,0
2206,640.0,note_off,32,0,64,320
2207,640.666667,note_on,29,0,64,0
2208,640.666667,note_off,29,0,64,640
2209,642.0,note_on,31,0,64,0
2210,642.0,note_off,31,0,64,320
2211,642.666667,note_on,32,0,64,0
2212,642.666667,note_off,32,0,64,320
2213,643.333333,note_on,38,0,64,0
2214,643.333333,note_off,38,0,64,320
2215,644.0,note_on,34,0,64,0
2216,644.0,note_off,34,0,64,320
2217,645.333333,note_on,31,409,64,0
2218,645.333333,pitchwheel,31,409,64,0
2219,645.333333,note_off,31,409,64,320
2220,646.666667,note_on,33,0,64,0
2221,646.666667,note_off,33,0,64,320
2222,647.333333,note_on,33,1638,64,0
2223,647.333333,pitchwheel,33,1638,64,0
2224,647.333333,note_off,33,1638,64,320
2225,648.0,note_on,34,0,64,0
2226,648.0,note_off,34,0,64,320
2227,648.666667,note_on,33,3276,64,0
2228,648.666667,pitchwheel,33,3276,64,0
2229,648.666667,note_off,33,3276,64,320
2230,649.333333,note_on,34,409,64,0
2231,649.333333,pitchwheel,34,409,64,0
2232,649.333333,note_off,34,409,64,320
2233,650.0,note_on,31,0,64,0
2234,650.0,note_off,31,0,64,320
2235,650.666667,note_on,31,409,64,0
2236,650.666667,pitchwheel,31,409,64,0
2237,650.666667,note_off,31,409,64,320
2238,651.333333,note_on,33,0,64,0
2239,651.333333,note_off,33,0,64,320
2240,652.666667,note_on,35,3276,64,0
2241,652.666667,pitchwheel,35,3276,64,0
2242,652.666667,note_off,35,3276,64,320
2243,653.333333,note_on,34,1638,64,0
2244,653.333333,pitchwheel,34,1638,64,0
2245,653.333333,note_off,34,1638,64,320
2246,654.666667,note_on,36,2047,64,0
2247,654.666667,pitchwheel,36,2047,64,0
2248,654.666667,note_off,36,2047,64,320
2249,655.333333,note_on,35,2457,64,0
2250,655.333333,pitchwheel,35,2457,64,0
2251,655.333333,note_off,35,2457,64,320
2252,656.0,note_on,35,3276,64,0
2253,656.0,pitchwheel,35,3276,64,0
2254,656.0,note_off,35,3276,64,320
2255,656.666667,note_on,40,2866,64,0
2256,656.666667,pitchwheel,40,2866,64,0
2257,656.666667,note_off,40,2866,64,320
2258,657.333333,note_on,38,1228,64,0
2259,657.333333,pitchwheel,38,1228,64,0
2260,657.333333,note_off,38,1228,64,320
2261,658.0,note_on,38,819,64,0
2262,658.0,pitchwheel,38,819,64,0
2263,658.0,note_off,38,819,64,320
2264,658.666667,note_on,38,2457,64,0
2265,658.666667,pitchwheel,38,2457,64,0
2266,658.666667,note_off,38,2457,64,640
2267,660.0,note_on,43,0,64,0
2268,660.0,note_off,43,0,64,320
2269,660.666667,note_on,38,0,64,0
2270,660.666667,note_off,38,0,64,320
2271,661.333333,note_on,36,3276,64,0
2272,661.333333,pitchwheel,36,3276,64,0
2273,661.333333,note_off,36,3276,64,320
2274,662.0,note_on,38,2457,64,0
2275,662.0,pitchwheel,38,2457,64,0
2276,662.0,note_off,38,2457,64,320
2277,662.666667,note_on,33,0,64,0
2278,662.666667,note_off,33,0,64,320
2279,663.333333,note_on,40,2457,64,0
2280,663.333333,pitchwheel,40,2457,64,0
2281,663.333333,note_off,40,2457,64,320
2282,664.0,note_on,46,1638,64,0
2283,664.0,pitchwheel,46,1638,64,0
2284,664.0,note_off,46,1638,64,320
2285,664.666667,note_on,41,0,64,0
2286,664.666667,note_off,41,0,64,320
2287,665.333333,note_on,41,1228,64,0
2288,665.333333,pitchwheel,41,1228,64,0
2289,665.333333,note_off,41,1228,64,320
2290,666.666667,note_on,40,0,64,0
2291,666.666667,note_off,40,0,64,320
2292,667.333333,note_on,36,2047,64,0
2293,667.333333,pitchwheel,36,2047,64,0
2294,667.333333,note_off,36,2047,64,320
2295,668.666667,note_on,31,0,64,0
2296,668.666667,note_off,31,0,64,320
2297,669.333333,note_on,32,0,64,0
2298,669.333333,note_off,32,0,64,320
2299,670.0,note_on,29,0,64,0
2300,670.0,note_off,29,0,64,320
2301,670.666667,note_on,34,0,64,0
2302,670.666667,note_off,34,0,64,320
2303,672.0,note_on,34,0,64,0
2304,672.0,note_off,34,0,64,320
2305,673.333333,note_on,37,0,64,0
2306,673.333333,note_off,37,0,64,320
2307,674.0,note_on,33,1638,64,0
2308,674.0,pitchwheel,33,1638,64,0
2309,674.0,note_off,33,1638,64,320
2310,674.666667,note_on,34,1638,64,0
2311,674.666667,pitchwheel,34,1638,64,0
2312,674.666667,note_off,34,1638,64,320
2313,675.333333,note_on,33,2047,64,0
2314,675.333333,pitchwheel,33,2047,64,0
2315,675.333333,note_off,33,2047,64,320
2316,676.0,note_on,33,3276,64,0
2317,676.0,pitchwheel,33,3276,64,0
2318,676.0,note_off,33,3276,64,320
2319,676.666667,note_on,33,1638,64,0
2320,676.666667,pitchwheel,33,1638,64,0
2321,676.666667,note_off,33,1638,64,320
2322,677.333333,note_on,33,2047,64,0
2323,677.333333,pitchwheel,33,2047,64,0
2324,677.333333,note_off,33,2047,64,320
2325,678.0,note_on,33,0,64,0
2326,678.0,note_off,33,0,64,320
2327,678.666667,note_on,31,409,64,0
2328,678.666667,pitchwheel,31,409,64,0
2329,678.666667,note_off,31,409,64,320
2330,679.333333,note_on,35,3276,64,0
2331,679.333333,pitchwheel,35,3276,64,0
2332,679.333333,note_off,35,3276,64,320
2333,680.0,note_on,36,3276,64,0
2334,680.0,pitchwheel,36,3276,64,0
2335,680.0,note_off,36,3276,64,320
2336,681.333333,note_on,36,819,64,0
2337,681.333333,pitchwheel,36,819,64,0
2338,681.333333,note_off,36,819,64,320
2339,682.0,note_on,31,1638,64,0
2340,682.0,pitchwheel,31,1638,64,0
2341,682.0,note_off,31,1638,64,320
2342,682.666667,note_on,33,2047,64,0
2343,682.666667,pitchwheel,33,2047,64,0
2344,682.666667,note_off,33,2047,64,320
2345,683.333333,note_on,35,2047,64,0
2346,683.333333,pitchwheel,35,2047,64,0
2347,683.333333,note_off,35,2047,64,320
2348,684.0,note_on,38,2457,64,0
2349,684.0,pitchwheel,38,2457,64,0
2350,684.0,note_off,38,2457,64,320
2351,684.666667,note_on,38,819,64,0
2352,684.666667,pitchwheel,38,819,64,0
2353,684.666667,note_off,38,819,64,320
2354,685.333333,note_on,39,819,64,0
2355,685.333333,pitchwheel,39,819,64,0
2356,685.333333,note_off,39,819,64,320
2357,686.0,note_on,38,1228,64,0
2358,686.0,pitchwheel,38,1228,64,0
2359,686.0,note_off,38,1228,64,320
2360,686.666667,note_on,34,409,64,0
2361,686.666667,pitchwheel,34,409,64,0
2362,686.666667,note_off,34,409,64,320
2363,687.333333,note_on,29,0,64,0
2364,687.333333,note_off,29,0,64,320
2365,688.0,note_on,36,3276,64,0
2366,688.0,pitchwheel,36,3276,64,0
2367,688.0,note_off,36,3276,64,320
2368,688.666667,note_on,38,3685,64,0
2369,688.666667,pitchwheel,38,3685,64,0
2370,688.666667,note_off,38,3685,64,320
2371,689.333333,note_on,33,2047,64,0
2372,689.333333,pitchwheel,33,2047,64,0
2373,689.333333,note_off,33,2047,64,320
2374,690.0,note_on,40,2457,64,0
2375,690.0,pitchwheel,40,2457,64,0
2376,690.0,note_off,40,2457,64,320
2377,690.666667,note_on,41,2457,64,0
2378,690.666667,pitchwheel,41,2457,64,0
2379,690.666667,note_off,41,2457,64,320
2380,691.333333,note_on,40,2866,64,0
2381,691.333333,pitchwheel,40,2866,64,0
2382,691.333333,note_off,40,2866,64,320
2383,692.0,note_on,41,0,64,0
2384,692.0,note_off,41,0,64,320
2385,693.333333,note_on,40,0,64,0
2386,693.333333,note_off,40,0,64,320
2387,694.0,note_on,41,0,64,0
2388,694.0,note_off,41,0,64,320
2389,694.666667,note_on,36,2047,64,0
2390,694.666667,pitchwheel,36,2047,64,0
2391,694.666667,note_off,36,2047,64,320
2392,695.333333,note_on,33,1638,64,0
2393,695.333333,pitchwheel,33,1638,64,0
2394,695.333333,note_off,33,1638,64,320
2395,696.0,note_on,41,2457,64,0
2396,696.0,pitchwheel,41,2457,64,0
2397,696.0,note_off,41,2457,64,320
2398,697.333333,note_on,40,2457,64,0
2399,697.333333,pitchwheel,40,2457,64,0
2400,697.333333,note_off,40,2457,64,320
2401,698.666667,note_on,38,819,64,0
2402,698.666667,pitchwheel,38,819,64,0
2403,698.666667,note_off,38,819,64,320
2404,700.0,note_on,37,0,64,0
2405,700.0,note_off,37,0,64,320
2406,700.666667,note_on,43,0,64,0
2407,700.666667,note_off,43,0,64,320
2408,701.333333,note_on,46,0,64,0
2409,701.333333,note_off,46,0,64,320
2410,702.0,note_on,40,2866,64,0
2411,702.0,pitchwheel,40,2866,64,0
2412,702.0,note_off,40,2866,64,320
2413,702.666667,note_on,41,0,64,0
2414,702.666667,note_off,41,0,64,320
2415,703.333333,note_on,35,3276,64,0
2416,703.333333,pitchwheel,35,3276,64,0
2417,703.333333,note_off,35,3276,64,320
2418,704.0,note_on,35,3685,64,0
2419,704.0,pitchwheel,35,3685,64,0
2420,704.0,note_off,35,3685,64,320
2421,704.666667,note_on,33,0,64,0
2422,704.666667,note_off,33,0,64,320
2423,706.0,note_on,40,2457,64,0
2424,706.0,pitchwheel,40,2457,64,0
2425,706.0,note_off,40,2457,64,320
2426,706.666667,note_on,40,2866,64,0
2427,706.666667,pitchwheel,40,2866,64,0
2428,706.666667,note_off,40,2866,64,320
2429,708.0,note_on,38,819,64,0
2430,708.0,pitchwheel,38,819,64,0
2431,708.0,note_off,38,819,64,320
2432,708.666667,note_on,34,409,64,0
2433,708.666667,pitchwheel,34,409,64,0
2434,708.666667,note_off,34,409,64,320
2435,709.333333,note_on,31,2866,64,0
2436,709.333333,pitchwheel,31,2866,64,0
2437,709.333333,note_off,31,2866,64,320
2438,710.0,note_on,28,0,64,0
2439,710.0,note_off,28,0,64,320
2440,710.666667,note_on,36,819,64,0
2441,710.666667,pitchwheel,36,819,64,0
2442,710.666667,note_off,36,819,64,320
2443,711.333333,note_on,38,819,64,0
2444,711.333333,pitchwheel,38,819,64,0
2445,711.333333,note_off,38,819,64,320
2446,712.0,note_on,36,2047,64,0
2447,712.0,pitchwheel,36,2047,64,0
2448,712.0,note_off,36,2047,64,320
2449,712.666667,note_on,33,2047,64,0
2450,712.666667,pitchwheel,33,2047,64,0
2451,712.666667,note_off,33,2047,64,320
2452,713.333333,note_on,35,3685,64,0
2453,713.333333,pitchwheel,35,3685,64,0
2454,713.333333,note_off,35,3685,64,320
2455,714.0,note_on,36,2047,64,0
2456,714.0,pitchwheel,36,2047,64,0
2457,714.0,note_off,36,2047,64,320
2458,714.666667,note_on,34,1638,64,0
2459,714.666667,pitchwheel,34,1638,64,0
2460,714.666667,note_off,34,1638,64,320
2461,715.333333,note_on,38,2457,64,0
2462,715.333333,pitchwheel,38,2457,64,0
2463,715.333333,note_off,38,2457,64,320
2464,716.0,note_on,33,0,64,0
2465,716.0,note_off,33,0,64,320
2466,716.666667,note_on,35,3276,64,0
2467,716.666667,pitchwheel,35,3276,64,0
2468,716.666667,note_off,35,3276,64,320
2469,717.333333,note_on,32,0,64,0
2470,717.333333,note_off,32,0,64,320
2471,718.0,note_on,35,3685,64,0
2472,718.0,pitchwheel,35,3685,64,0
2473,718.0,note_off,35,3685,64,320
2474,718.666667,note_on,35,3276,64,0
2475,718.666667,pitchwheel,35,3276,64,0
2476,718.666667,note_off,35,3276,64,320
2477,720.0,note_on,35,2047,64,0
2478,720.0,pitchwheel,35,2047,64,0
2479,720.0,note_off,35,2047,64,320
2480,720.666667,note_on,38,2457,64,0
2481,720.666667,pitchwheel,38,2457,64,0
2482,720.666667,note_off,38,2457,64,320
2483,722.0,note_on,35,3276,64,0
2484,722.0,pitchwheel,35,3276,64,0
2485,722.0,note_off,35,3276,64,320
2486,722.666667,note_on,38,0,64,0
2487,722.666667,note_off,38,0,64,320
2488,723.333333,note_on,33,0,64,0
2489,723.333333,note_off,33,0,64,320
2490,724.0,note_on,34,0,64,0
2491,724.0,note_off,34,0,64,320
2492,725.333333,note_on,35,2457,64,0
2493,725.333333,pitchwheel,35,2457,64,0
2494,725.333333,note_off,35,2457,64,320
2495,726.666667,note_on,38,3685,64,0
2496,726.666667,pitchwheel,38,3685,64,0
2497,726.666667,note_off,38,3685,64,320
2498,727.333333,note_on,33,1638,64,0
2499,727.333333,pitchwheel,33,1638,64,0
2500,727.333333,note_off,33,1638,64,320
2501,728.0,note_on,38,2457,64,0
2502,728.0,pitchwheel,38,2457,64,0
2503,728.0,note_off,38,2457,64,320
2504,728.666667,note_on,33,2047,64,0
2505,728.666667,pitchwheel,33,2047,64,0
2506,728.666667,note_off,33,2047,64,320
2507,729.333333,note_on,33,1638,64,0
2508,729.333333,pitchwheel,33,1638,64,0
2509,729.333333,note_off,33,1638,64,320
2510,730.0,note_on,38,819,64,0
2511,730.0,pitchwheel,38,819,64,0
2512,730.0,note_off,38,819,64,320
2513,730.666667,note_on,35,2457,64,0
2514,730.666667,pitchwheel,35,2457,64,0
2515,730.666667,note_off,35,2457,64,320
2516,731.333333,note_on,33,0,64,0
2517,731.333333,note_off,33,0,64,320
2518,732.0,note_on,29,0,64,0
2519,732.0,note_off,29,0,64,320
2520,732.666667,note_on,31,0,64,0
2521,732.666667,note_off,31,0,64,320
2522,733.333333,note_on,32,0,64,0
2523,733.333333,note_off,32,0,64,320
2524,734.666667,note_on,29,0,64,0
2525,734.666667,note_off,29,0,64,320
2526,735.333333,note_on,33,2047,64,0
2527,735.333333,pitchwheel,33,2047,64,0
2528,735.333333,note_off,33,2047,64,320
2529,736.0,note_on,32,0,64,0
2530,736.0,note_off,32,0,64,320
2531,736.666667,note_on,28,0,64,0
2532,736.666667,note_off,28,0,64,320
2533,737.333333,note_on,38,3685,64,0
2534,737.333333,pitchwheel,38,3685,64,0
2535,737.333333,note_off,38,3685,64,320
2536,738.0,note_on,40,2457,64,0
2537,738.0,pitchwheel,40,2457,64,0
2538,738.0,note_off,40,2457,64,320
2539,738.666667,note_on,46,1638,64,0
2540,738.666667,pitchwheel,46,1638,64,0
2541,738.666667,note_off,46,1638,64,320
2542,739.333333,note_on,50,1228,64,0
2543,739.333333,pitchwheel,50,1228,64,0
2544,739.333333,note_off,50,1228,64,320
2545,740.0,note_on,48,2047,64,0
2546,740.0,pitchwheel,48,2047,64,0
2547,740.0,note_off,48,2047,64,320
2548,740.666667,note_on,43,409,64,0
2549,740.666667,pitchwheel,43,409,64,0
2550,740.666667,note_off,43,409,64,320
2551,741.333333,note_on,46,1638,64,0
2552,741.333333,pitchwheel,46,1638,64,0
2553,741.333333,note_off,46,1638,64,320
2554,742.0,note_on,41,0,64,0
2555,742.0,note_off,41,0,64,320
2556,742.666667,note_on,43,1638,64,0
2557,742.666667,pitchwheel,43,1638,64,0
2558,742.666667,note_off,43,1638,64,320
2559,743.333333,note_on,47,2457,64,0
2560,743.333333,pitchwheel,47,2457,64,0
2561,743.333333,note_off,47,2457,64,320
2562,744.0,note_on,48,3276,64,0
2563,744.0,pitchwheel,48,3276,64,0
2564,744.0,note_off,48,3276,64,320
2565,744.666667,note_on,52,2866,64,0
2566,744.666667,pitchwheel,52,2866,64,0
2567,744.666667,note_off,52,2866,64,320
2568,745.333333,note_on,53,0,64,0
2569,745.333333,note_off,53,0,64,320
2570,746.666667,note_on,52,0,64,0
2571,746.666667,note_off,52,0,64,320
2572,747.333333,note_on,52,1638,64,0
2573,747.333333,pitchwheel,52,1638,64,0
2574,747.333333,note_off,52,1638,64,320
2575,748.0,note_on,53,0,64,0
2576,748.0,note_off,53,0,64,320
2577,748.666667,note_on,47,3276,64,0
2578,748.666667,pitchwheel,47,3276,64,0
2579,748.666667,note_off,47,3276,64,320
2580,749.333333,note_on,48,2047,64,0
2581,749.333333,pitchwheel,48,2047,64,0
2582,749.333333,note_off,48,2047,64,320
2583,750.0,note_on,52,0,64,0
2584,750.0,note_off,52,0,64,320
2585,750.666667,note_on,46,0,64,0
2586,750.666667,note_off,46,0,64,320
2587,752.0,note_on,44,0,64,0
2588,752.0,note_off,44,0,64,320
2589,753.333333,note_on,40,0,64,0
2590,753.333333,note_off,40,0,64,320
2591,754.0,note_on,38,819,64,0
2592,754.0,pitchwheel,38,819,64,0
2593,754.0,note_off,38,819,64,320
2594,754.666667,note_on,39,819,64,0
2595,754.666667,pitchwheel,39,819,64,0
2596,754.666667,note_off,39,819,64,320
2597,755.333333,note_on,40,2866,64,0
2598,755.333333,pitchwheel,40,2866,64,0
2599,755.333333,note_off,40,2866,64,320
2600,756.0,note_on,41,0,64,0
2601,756.0,note_off,41,0,64,320
2602,756.666667,note_on,40,2457,64,0
2603,756.666667,pitchwheel,40,2457,64,0
2604,756.666667,note_off,40,2457,64,320
2605,757.333333,note_on,39,819,64,0
2606,757.333333,pitchwheel,39,819,64,0
2607,757.333333,note_off,39,819,64,320
2608,758.0,note_on,45,0,64,0
2609,758.0,note_off,45,0,64,320
2610,759.333333,note_on,40,2457,64,0
2611,759.333333,pitchwheel,40,2457,64,0
2612,759.333333,note_off,40,2457,64,320
2613,760.0,note_on,41,2457,64,0
2614,760.0,pitchwheel,41,2457,64,0
2615,760.0,note_off,41,2457,64,320
2616,761.333333,note_on,40,2457,64,0
2617,761.333333,pitchwheel,40,2457,64,0
2618,761.333333,note_off,40,2457,64,320
2619,762.0,note_on,45,2047,64,0
2620,762.0,pitchwheel,45,2047,64,0
2621,762.0,note_off,45,2047,64,640
2622,763.333333,note_on,44,2047,64,0
2623,763.333333,pitchwheel,44,2047,64,0
2624,763.333333,note_off,44,2047,64,320
2625,764.0,note_on,41,0,64,0
2626,764.0,note_off,41,0,64,320
2627,764.666667,note_on,43,0,64,0
2628,764.666667,note_off,43,0,64,320
2629,765.333333,note_on,44,0,64,0
2630,765.333333,note_off,44,0,64,320
2631,766.0,note_on,45,2047,64,0
2632,766.0,pitchwheel,45,2047,64,0
2633,766.0,note_off,45,2047,64,320
2634,766.666667,note_on,50,819,64,0
2635,766.666667,pitchwheel,50,819,64,0
2636,766.666667,note_off,50,819,64,320
2637,767.333333,note_on,47,3685,64,0
2638,767.333333,pitchwheel,47,3685,64,0
2639,767.333333,note_off,47,3685,64,640
2640,768.666667,note_on,50,0,64,0
2641,768.666667,note_off,50,0,64,320
2642,769.333333,note_on,45,0,64,0
2643,769.333333,note_off,45,0,64,320
2644,770.0,note_on,45,1638,64,0
2645,770.0,pitchwheel,45,1638,64,0
2646,770.0,note_off,45,1638,64,320
2647,770.666667,note_on,46,1638,64,0
2648,770.666667,pitchwheel,46,1638,64,0
2649,770.666667,note_off,46,1638,64,320
2650,771.333333,note_on,47,3685,64,0
2651,771.333333,pitchwheel,47,3685,64,0
2652,771.333333,note_off,47,3685,64,320
2653,772.0,note_on,48,819,64,0
2654,772.0,pitchwheel,48,819,64,0
2655,772.0,note_off,48,819,64,320
2656,773.333333,note_on,48,3276,64,0
2657,773.333333,pitchwheel,48,3276,64,0
2658,773.333333,note_off,48,3276,64,320
2659,774.0,note_on,53,0,64,0
2660,774.0,note_off,53,0,64,320
2661,775.333333,note_on,57,1638,64,0
2662,775.333333,pitchwheel,57,1638,64,0
2663,775.333333,note_off,57,1638,64,320
2664,776.0,note_on,56,0,64,0
2665,776.0,note_off,56,0,64,320
2666,776.666667,note_on,50,2457,64,0
2667,776.666667,pitchwheel,50,2457,64,0
2668,776.666667,note_off,50,2457,64,320
2669,777.333333,note_on,46,409,64,0
2670,777.333333,pitchwheel,46,409,64,0
2671,777.333333,note_off,46,409,64,320
2672,778.666667,note_on,43,409,64,0
2673,778.666667,pitchwheel,43,409,64,0
2674,778.666667,note_off,43,409,64,320
2675,780.0,note_on,40,0,64,0
2676,780.0,note_off,40,0,64,320
2677,780.666667,note_on,35,3276,64,0
2678,780.666667,pitchwheel,35,3276,64,0
2679,780.666667,note_off,35,3276,64,320
2680,781.333333,note_on,33,3276,64,0
2681,781.333333,pitchwheel,33,3276,64,0
2682,781.333333,note_off,33,3276,64,320
2683,782.0,note_on,29,0,64,0
2684,782.0,note_off,29,0,64,320
2685,782.666667,note_on,33,1638,64,0
2686,782.666667,pitchwheel,33,1638,64,0
2687,782.666667,note_off,33,1638,64,320
2688,783.333333,note_on,31,0,64,0
2689,783.333333,note_off,31,0,64,640
2690,784.666667,note_on,33,0,64,0
2691,784.666667,note_off,33,0,64,320
2692,785.333333,note_on,36,819,64,0
2693,785.333333,pitchwheel,36,819,64,0
2694,785.333333,note_off,36,819,64,320
2695,786.0,note_on,38,819,64,0
2696,786.0,pitchwheel,38,819,64,0
2697,786.0,note_off,38,819,64,320
2698,786.666667,note_on,39,819,64,0
2699,786.666667,pitchwheel,39,819,64,0
2700,786.666667,note_off,39,819,64,320
2701,788.0,note_on,38,1228,64,0
2702,788.0,pitchwheel,38,1228,64,0
2703,788.0,note_off,38,1228,64,320
2704,788.666667,note_on,35,2457,64,0
2705,788.666667,pitchwheel,35,2457,64,0
2706,788.666667,note_off,35,2457,64,320
2707,789.333333,note_on,33,2047,64,0
2708,789.333333,pitchwheel,33,2047,64,0
2709,789.333333,note_off,33,2047,64,320
2710,790.0,note_on,31,0,64,0
2711,790.0,note_off,31,0,64,320
2712,790.666667,note_on,38,2457,64,0
2713,790.666667,pitchwheel,38,2457,64,0
2714,790.666667,note_off,38,2457,64,320
2715,791.333333,note_on,40,2457,64,0
2716,791.333333,pitchwheel,40,2457,64,0
2717,791.333333,note_off,40,2457,64,320
2718,792.0,note_on,36,3276,64,0
2719,792.0,pitchwheel,36,3276,64,0
2720,792.0,note_off,36,3276,64,320
2721,792.666667,note_on,36,819,64,0
2722,792.666667,pitchwheel,36,819,64,0
2723,792.666667,note_off,36,819,64,320
2724,793.333333,note_on,35,3276,64,0
2725,793.333333,pitchwheel,35,3276,64,0
2726,793.333333,note_off,35,3276,64,320
2727,794.0,note_on,38,0,64,0
2728,794.0,note_off,38,0,64,320
2729,794.666667,note_on,38,3685,64,0
2730,794.666667,pitchwheel,38,3685,64,0
2731,794.666667,note_off,38,3685,64,320
2732,795.333333,note_on,38,2457,64,0
2733,795.333333,pitchwheel,38,2457,64,0
2734,795.333333,note_off,38,2457,64,320
2735,796.0,note_on,33,3276,64,0
2736,796.0,pitchwheel,33,3276,64,0
2737,796.0,note_off,33,3276,64,320
2738,796.666667,note_on,31,0,64,0
2739,796.666667,note_off,31,0,64,320
2740,797.333333,note_on,33,2047,64,0
2741,797.333333,pitchwheel,33,2047,64,0
2742,797.333333,note_off,33,2047,64,320
2743,798.0,note_on,33,3276,64,0
2744,798.0,pitchwheel,33,3276,64,0
2745,798.0,note_off,33,3276,64,320
2746,798.666667,note_on,33,2047,64,0
2747,798.666667,pitchwheel,33,2047,64,0
2748,798.666667,note_off,33,2047,64,320
2749,800.0,note_on,32,2047,64,0
2750,800.0,pitchwheel,32,2047,64,0
2751,800.0,note_off,32,2047,64,320
2752,800.666667,note_on,29,0,64,0
2753,800.666667,note_off,29,0,64,320
2754,801.333333,note_on,38,2457,64,0
2755,801.333333,pitchwheel,38,2457,64,0
2756,801.333333,note_off,38,2457,64,320
2757,802.0,note_on,33,1638,64,0
2758,802.0,pitchwheel,33,1638,64,0
2759,802.0,note_off,33,1638,64,320
2760,802.666667,note_on,32,0,64,0
2761,802.666667,note_off,32,0,64,320
2762,803.333333,note_on,29,0,64,0
2763,803.333333,note_off,29,0,64,320
2764,804.0,note_on,34,0,64,0
2765,804.0,note_off,34,0,64,320
2766,805.333333,note_on,32,0,64,0
2767,805.333333,note_off,32,0,64,320
2768,806.666667,note_on,28,0,64,0
2769,806.666667,note_off,28,0,64,320
2770,807.333333,note_on,35,3276,64,0
2771,807.333333,pitchwheel,35,3276,64,0
2772,807.333333,note_off,35,3276,64,320
2773,808.0,note_on,34,1638,64,0
2774,808.0,pitchwheel,34,1638,64,0
2775,808.0,note_off,34,1638,64,320
2776,808.666667,note_on,29,0,64,0
2777,808.666667,note_off,29,0,64,320
2778,809.333333,note_on,40,2866,64,0
2779,809.333333,pitchwheel,40,2866,64,0
2780,809.333333,note_off,40,2866,64,320
2781,810.0,note_on,38,819,64,0
2782,810.0,pitchwheel,38,819,64,0
2783,810.0,note_off,38,819,64,320
2784,810.666667,note_on,38,0,64,0
2785,810.666667,note_off,38,0,64,320
2786,811.333333,note_on,33,0,64,0
2787,811.333333,note_off,33,0,64,320
2788,812.666667,note_on,38,819,64,0
2789,812.666667,pitchwheel,38,819,64,0
2790,812.666667,note_off,38,819,64,320
2791,813.333333,note_on,36,3276,64,0
2792,813.333333,pitchwheel,36,3276,64,0
2793,813.333333,note_off,36,3276,64,320
2794,814.666667,note_on,38,1228,64,0
2795,814.666667,pitchwheel,38,1228,64,0
2796,814.666667,note_off,38,1228,64,320
2797,815.333333,note_on,35,2457,64,0
2798,815.333333,pitchwheel,35,2457,64,0
2799,815.333333,note_off,35,2457,64,320
2800,816.0,note_on,34,1638,64,0
2801,816.0,pitchwheel,34,1638,64,0
2802,816.0,note_off,34,1638,64,320
2803,816.666667,note_on,37,0,64,0
2804,816.666667,note_off,37,0,64,320
2805,817.333333,note_on,36,819,64,0
2806,817.333333,pitchwheel,36,819,64,0
2807,817.333333,note_off,36,819,64,320
2808,818.0,note_on,40,2457,64,0
2809,818.0,pitchwheel,40,2457,64,0
2810,818.0,note_off,40,2457,64,320
2811,818.666667,note_on,39,819,64,0
2812,818.666667,pitchwheel,39,819,64,0
2813,818.666667,note_off,39,819,64,320
2814,819.333333,note_on,36,819,64,0
2815,819.333333,pitchwheel,36,819,64,0
2816,819.333333,note_off,36,819,64,320
2817,820.0,note_on,35,3276,64,0
2818,820.0,pitchwheel,35,3276,64,0
2819,820.0,note_off,35,3276,64,320
2820,820.666667,note_on,38,0,64,0
2821,820.666667,note_off,38,0,64,320
2822,821.333333,note_on,35,2457,64,0
2823,821.333333,pitchwheel,35,2457,64,0
2824,821.333333,note_off,35,2457,64,320
2825,822.0,note_on,38,2457,64,0
2826,822.0,pitchwheel,38,2457,64,0
2827,822.0,note_off,38,2457,64,320
2828,822.666667,note_on,33,0,64,0
2829,822.666667,note_off,33,0,64,320
2830,823.333333,note_on,31,0,64,0
2831,823.333333,note_off,31,0,64,320
2832,824.0,note_on,29,0,64,0
2833,824.0,note_off,29,0,64,320
2834,824.666667,note_on,33,3276,64,0
2835,824.666667,pitchwheel,33,3276,64,0
2836,824.666667,note_off,33,3276,64,320
2837,825.333333,note_on,33,2047,64,0
2838,825.333333,pitchwheel,33,2047,64,0
2839,825.333333,note_off,33,2047,64,320
2840,826.666667,note_on,33,1638,64,0
2841,826.666667,pitchwheel,33,1638,64,0
2842,826.666667,note_off,33,1638,64,320
2843,827.333333,note_on,36,2047,64,0
2844,827.333333,pitchwheel,36,2047,64,0
2845,827.333333,note_off,36,2047,64,320
2846,828.666667,note_on,38,819,64,0
2847,828.666667,pitchwheel,38,819,64,0
2848,828.666667,note_off,38,819,64,320
2849,829.333333,note_on,41,2457,64,0
2850,829.333333,pitchwheel,41,2457,64,0
2851,829.333333,note_off,41,2457,64,320
2852,830.666667,note_on,46,0,64,0
2853,830.666667,note_off,46,0,64,320
2854,832.0,note_on,46,1638,64,0
2855,832.0,pitchwheel,46,1638,64,0
2856,832.0,note_off,46,1638,64,320
2857,833.333333,note_on,47,2047,64,0
2858,833.333333,pitchwheel,47,2047,64,0
2859,833.333333,note_off,47,2047,64,320
2860,834.0,note_on,52,2457,64,0
2861,834.0,pitchwheel,52,2457,64,0
2862,834.0,note_off,52,2457,64,320
2863,834.666667,note_on,51,819,64,0
2864,834.666667,pitchwheel,51,819,64,0
2865,834.666667,note_off,51,819,64,320
2866,835.333333,note_on,53,0,64,0
2867,835.333333,note_off,53,0,64,320
2868,836.0,note_on,53,1228,64,0
2869,836.0,pitchwheel,53,1228,64,0
2870,836.0,note_off,53,1228,64,320
2871,836.666667,note_on,52,2457,64,0
2872,836.666667,pitchwheel,52,2457,64,0
2873,836.666667,note_off,52,2457,64,320
2874,837.333333,note_on,51,819,64,0
2875,837.333333,pitchwheel,51,819,64,0
2876,837.333333,note_off,51,819,64,320
2877,838.0,note_on,57,0,64,0
2878,838.0,note_off,57,0,64,320
2879,838.666667,note_on,55,1638,64,0
2880,838.666667,pitchwheel,55,1638,64,0
2881,838.666667,note_off,55,1638,64,320
2882,839.333333,note_on,55,0,64,0
2883,839.333333,note_off,55,0,64,320
2884,840.0,note_on,55,1638,64,0
2885,840.0,pitchwheel,55,1638,64,0
2886,840.0,note_off,55,1638,64,320
2887,841.333333,note_on,55,409,64,0
2888,841.333333,pitchwheel,55,409,64,0
2889,841.333333,note_off,55,409,64,320
2890,842.0,note_on,55,1638,64,0
2891,842.0,pitchwheel,55,1638,64,0
2892,842.0,note_off,55,1638,64,320
2893,842.666667,note_on,60,819,64,0
2894,842.666667,pitchwheel,60,819,64,0
2895,842.666667,note_off,60,819,64,640
2896,844.0,note_on,53,0,64,0
2897,844.0,note_off,53,0,64,320
2898,844.666667,note_on,57,1638,64,0
2899,844.666667,pitchwheel,57,1638,64,0
2900,844.666667,note_off,57,1638,64,320
2901,845.333333,note_on,58,1638,64,0
2902,845.333333,pitchwheel,58,1638,64,0
2903,845.333333,note_off,58,1638,64,320
2904,846.0,note_on,57,3276,64,0
2905,846.0,pitchwheel,57,3276,64,0
2906,846.0,note_off,57,3276,64,320
2907,846.666667,note_on,59,3276,64,0
2908,846.666667,pitchwheel,59,3276,64,0
2909,846.666667,note_off,59,3276,64,320
2910,847.333333,note_on,53,0,64,0
2911,847.333333,note_off,53,0,64,320
2912,848.0,note_on,50,1228,64,0
2913,848.0,pitchwheel,50,1228,64,0
2914,848.0,note_off,50,1228,64,320
2915,848.666667,note_on,50,3685,64,0
2916,848.666667,pitchwheel,50,3685,64,0
2917,848.666667,note_off,50,3685,64,320
2918,849.333333,note_on,53,0,64,0
2919,849.333333,note_off,53,0,64,320
2920,850.0,note_on,47,3276,64,0
2921,850.0,pitchwheel,47,3276,64,0
2922,850.0,note_off,47,3276,64,320
2923,850.666667,note_on,44,0,64,0
2924,850.666667,note_off,44,0,64,320
2925,851.333333,note_on,48,819,64,0
2926,851.333333,pitchwheel,48,819,64,0
2927,851.333333,note_off,48,819,64,320
2928,852.0,note_on,48,2047,64,0
2929,852.0,pitchwheel,48,2047,64,0
2930,852.0,note_off,48,2047,64,320
2931,853.333333,note_on,47,2047,64,0
2932,853.333333,pitchwheel,47,2047,64,0
2933,853.333333,note_off,47,2047,64,320
2934,854.0,note_on,53,0,64,0
2935,854.0,note_off,53,0,64,320
2936,854.666667,note_on,52,1638,64,0
2937,854.666667,pitchwheel,52,1638,64,0
2938,854.666667,note_off,52,1638,64,320
2939,855.333333,note_on,47,3276,64,0
2940,855.333333,pitchwheel,47,3276,64,0
2941,855.333333,note_off,47,3276,64,320
2942,856.0,note_on,51,819,64,0
2943,856.0,pitchwheel,51,819,64,0
2944,856.0,note_off,51,819,64,320
2945,856.666667,note_on,57,0,64,0
2946,856.666667,note_off,57,0,64,320
2947,857.333333,note_on,58,0,64,0
2948,857.333333,note_off,58,0,64,320
2949,858.666667,note_on,53,2457,64,0
2950,858.666667,pitchwheel,53,2457,64,0
2951,858.666667,note_off,53,2457,64,320
2952,860.0,note_on,56,2047,64,0
2953,860.0,pitchwheel,56,2047,64,0
2954,860.0,note_off,56,2047,64,320
2955,860.666667,note_on,62,819,64,0
2956,860.666667,pitchwheel,62,819,64,0
2957,860.666667,note_off,62,819,64,320
2958,861.333333,note_on,65,2457,64,0
2959,861.333333,pitchwheel,65,2457,64,0
2960,861.333333,note_off,65,2457,64,320
2961,862.0,note_on,57,3276,64,0
2962,862.0,pitchwheel,57,3276,64,0
2963,862.0,note_off,57,3276,64,320
2964,862.666667,note_on,57,2047,64,0
2965,862.666667,pitchwheel,57,2047,64,0
2966,862.666667,note_off,57,2047,64,320
2967,863.333333,note_on,55,0,64,0
2968,863.333333,note_off,55,0,64,320
2969,864.0,note_on,56,0,64,0
2970,864.0,note_off,56,0,64,320
2971,864.666667,note_on,57,0,64,0
2972,864.666667,note_off,57,0,64,320
2973,866.0,note_on,52,2457,64,0
2974,866.0,pitchwheel,52,2457,64,0
2975,866.0,note_off,52,2457,64,320
2976,866.666667,note_on,49,0,64,0
2977,866.666667,note_off,49,0,64,320
2978,868.0,note_on,45,1638,64,0
2979,868.0,pitchwheel,45,1638,64,0
2980,868.0,note_off,45,1638,64,320
2981,868.666667,note_on,46,409,64,0
2982,868.666667,pitchwheel,46,409,64,0
2983,868.666667,note_off,46,409,64,320
2984,869.333333,note_on,46,0,64,0
2985,869.333333,note_off,46,0,64,320
2986,870.0,note_on,47,2047,64,0
2987,870.0,pitchwheel,47,2047,64,0
2988,870.0,note_off,47,2047,64,320
2989,870.666667,note_on,48,819,64,0
2990,870.666667,pitchwheel,48,819,64,0
2991,870.666667,note_off,48,819,64,320
2992,871.333333,note_on,43,0,64,0
2993,871.333333,note_off,43,0,64,320
2994,872.0,note_on,46,1638,64,0
2995,872.0,pitchwheel,46,1638,64,0
2996,872.0,note_off,46,1638,64,320
2997,872.666667,note_on,41,0,64,0
2998,872.666667,note_off,41,0,64,320
2999,873.333333,note_on,45,2047,64,0
3000,873.333333,pitchwheel,45,2047,64,0
3001,873.333333,note_off,45,2047,64,320
3002,874.0,note_on,48,2047,64,0
3003,874.0,pitchwheel,48,2047,64,0
3004,874.0,note_off,48,2047,64,320
3005,874.666667,note_on,44,0,64,0
3006,874.666667,note_off,44,0,64,320
3007,875.333333,note_on,38,2457,64,0
3008,875.333333,pitchwheel,38,2457,64,0
3009,875.333333,note_off,38,2457,64,320
3010,876.0,note_on,33,0,64,0
3011,876.0,note_off,33,0,64,320
3012,876.666667,note_on,33,1638,64,0
3013,876.666667,pitchwheel,33,1638,64,0
3014,876.666667,note_off,33,1638,64,320
3015,877.333333,note_on,36,3276,64,0
3016,877.333333,pitchwheel,36,3276,64,0
3017,877.333333,note_off,36,3276,64,320
3018,878.0,note_on,38,2457,64,0
3019,878.0,pitchwheel,38,2457,64,0
3020,878.0,note_off,38,2457,64,320
3021,878.666667,note_on,38,1228,64,0
3022,878.666667,pitchwheel,38,1228,64,0
3023,878.666667,note_off,38,1228,64,320
3024,880.0,note_on,38,2457,64,0
3025,880.0,pitchwheel,38,2457,64,0
3026,880.0,note_off,38,2457,64,640
3027,882.0,note_on,43,0,64,0
3028,882.0,note_off,43,0,64,320
3029,882.666667,note_on,48,3276,64,0
3030,882.666667,pitchwheel,48,3276,64,0
3031,882.666667,note_off,48,3276,64,320
3032,883.333333,note_on,52,0,64,0
3033,883.333333,note_off,52,0,64,320
3034,884.0,note_on,57,2047,64,0
3035,884.0,pitchwheel,57,2047,64,0
3036,884.0,note_off,57,2047,64,320
3037,885.333333,note_on,58,0,64,0
3038,885.333333,note_off,58,0,64,320
3039,886.666667,note_on,59,2047,64,0
3040,886.666667,pitchwheel,59,2047,64,0
3041,886.666667,note_off,59,2047,64,320
3042,887.333333,note_on,64,2457,64,0
3043,887.333333,pitchwheel,64,2457,64,0
3044,887.333333,note_off,64,2457,64,320
3045,888.0,note_on,63,819,64,0
3046,888.0,pitchwheel,63,819,64,0
3047,888.0,note_off,63,819,64,320
3048,888.666667,note_on,53,1228,64,0
3049,888.666667,pitchwheel,53,1228,64,0
3050,888.666667,note_off,53,1228,64,320
3051,889.333333,note_on,53,0,64,0
3052,889.333333,note_off,53,0,64,320
3053,890.0,note_on,57,1638,64,0
3054,890.0,pitchwheel,57,1638,64,0
3055,890.0,note_off,57,1638,64,320
3056,890.666667,note_on,58,409,64,0
3057,890.666667,pitchwheel,58,409,64,0
3058,890.666667,note_off,58,409,64,320
3059,891.333333,note_on,57,0,64,0
3060,891.333333,note_off,57,0,64,320
3061,892.0,note_on,53,0,64,0
3062,892.0,note_off,53,0,64,320
3063,892.666667,note_on,50,819,64,0
3064,892.666667,pitchwheel,50,819,64,0
3065,892.666667,note_off,50,819,64,640
3066,894.666667,note_on,50,2457,64,0
3067,894.666667,pitchwheel,50,2457,64,0
3068,894.666667,note_off,50,2457,64,320
3069,895.333333,note_on,45,2047,64,0
3070,895.333333,pitchwheel,45,2047,64,0
3071,895.333333,note_off,45,2047,64,320
3072,896.0,note_on,44,0,64,0
3073,896.0,note_off,44,0,64,320
3074,896.666667,note_on,44,2047,64,0
3075,896.666667,pitchwheel,44,2047,64,0
3076,896.666667,note_off,44,2047,64,320
3077,897.333333,note_on,50,0,64,0
3078,897.333333,note_off,50,0,64,320
3079,898.0,note_on,47,3276,64,0
3080,898.0,pitchwheel,47,3276,64,0
3081,898.0,note_off,47,3276,64,320
3082,898.666667,note_on,45,0,64,0
3083,898.666667,note_off,45,0,64,320
3084,899.333333,note_on,48,2047,64,0
3085,899.333333,pitchwheel,48,2047,64,0
3086,899.333333,note_off,48,2047,64,320
3087,900.0,note_on,52,2457,64,0
3088,900.0,pitchwheel,52,2457,64,0
3089,900.0,note_off,52,2457,64,320
3090,900.666667,note_on,55,409,64,0
3091,900.666667,pitchwheel,55,409,64,0
3092,900.666667,note_off,55,409,64,320
3093,901.333333,note_on,56,0,64,0
3094,901.333333,note_off,56,0,64,320
3095,902.0,note_on,53,0,64,0
3096,902.0,note_off,53,0,64,320
3097,902.666667,note_on,55,1638,64,0
3098,902.666667,pitchwheel,55,1638,64,0
3099,902.666667,note_off,55,1638,64,320
3100,903.333333,note_on,57,1638,64,0
3101,903.333333,pitchwheel,57,1638,64,0
3102,903.333333,note_off,57,1638,64,320
3103,904.0,note_on,58,1638,64,0
3104,904.0,pitchwheel,58,1638,64,0
3105,904.0,note_off,58,1638,64,320
3106,904.666667,note_on,58,409,64,0
3107,904.666667,pitchwheel,58,409,64,0
3108,904.666667,note_off,58,409,64,320
3109,905.333333,note_on,57,3276,64,0
3110,905.333333,pitchwheel,57,3276,64,0
3111,905.333333,note_off,57,3276,64,320
3112,906.666667,note_on,58,1638,64,0
3113,906.666667,pitchwheel,58,1638,64,0
3114,906.666667,note_off,58,1638,64,320
3115,907.333333,note_on,52,1638,64,0
3116,907.333333,pitchwheel,52,1638,64,0
3117,907.333333,note_off,52,1638,64,320
3118,908.0,note_on,53,0,64,0
3119,908.0,note_off,53,0,64,320
3120,908.666667,note_on,57,1638,64,0
3121,908.666667,pitchwheel,57,1638,64,0
3122,908.666667,note_off,57,1638,64,320
3123,909.333333,note_on,56,0,64,0
3124,909.333333,note_off,56,0,64,320
3125,910.0,note_on,50,2457,64,0
3126,910.0,pitchwheel,50,2457,64,0
3127,910.0,note_off,50,2457,64,320
3128,910.666667,note_on,52,2457,64,0
3129,910.666667,pitchwheel,52,2457,64,0
3130,910.666667,note_off,52,2457,64,320
3131,912.0,note_on,51,819,64,0
3132,912.0,pitchwheel,51,819,64,0
3133,912.0,note_off,51,819,64,320
3134,913.333333,note_on,57,0,64,0
3135,913.333333,note_off,57,0,64,320
3136,914.0,note_on,55,0,64,0
3137,914.0,note_off,55,0,64,320
3138,914.666667,note_on,58,0,64,0
3139,914.666667,note_off,58,0,64,320
3140,915.333333,note_on,60,2047,64,0
3141,915.333333,pitchwheel,60,2047,64,0
3142,915.333333,note_off,60,2047,64,320
3143,916.0,note_on,60,819,64,0
3144,916.0,pitchwheel,60,819,64,0
3145,916.0,note_off,60,819,64,320
3146,916.666667,note_on,59,3276,64,0
3147,916.666667,pitchwheel,59,3276,64,0
3148,916.666667,note_off,59,3276,64,320
3149,917.333333,note_on,55,1638,64,0
3150,917.333333,pitchwheel,55,1638,64,0
3151,917.333333,note_off,55,1638,64,320
3152,918.0,note_on,57,0,64,0
3153,918.0,note_off,57,0,64,320
3154,919.333333,note_on,52,2457,64,0
3155,919.333333,pitchwheel,52,2457,64,0
3156,919.333333,note_off,52,2457,64,320
3157,920.0,note_on,51,819,64,0
3158,920.0,pitchwheel,51,819,64,0
3159,920.0,note_off,51,819,64,320
3160,921.333333,note_on,50,819,64,0
3161,921.333333,pitchwheel,50,819,64,0
3162,921.333333,note_off,50,819,64,320
3163,922.0,note_on,45,2047,64,0
3164,922.0,pitchwheel,45,2047,64,0
3165,922.0,note_off,45,2047,64,640
3166,923.333333,note_on,41,0,64,0
3167,923.333333,note_off,41,0,64,320
3168,924.0,note_on,43,2866,64,0
3169,924.0,pitchwheel,43,2866,64,0
3170,924.0,note_off,43,2866,64,320
3171,924.666667,note_on,38,819,64,0
3172,924.666667,pitchwheel,38,819,64,0
3173,924.666667,note_off,38,819,64,320
3174,925.333333,note_on,36,3276,64,0
3175,925.333333,pitchwheel,36,3276,64,0
3176,925.333333,note_off,36,3276,64,320
3177,926.0,note_on,31,2866,64,0
3178,926.0,pitchwheel,31,2866,64,0
3179,926.0,note_off,31,2866,64,320
3180,926.666667,note_on,40,2457,64,0
3181,926.666667,pitchwheel,40,2457,64,0
3182,926.666667,note_off,40,2457,64,320
3183,927.333333,note_on,35,3685,64,0
3184,927.333333,pitchwheel,35,3685,64,0
3185,927.333333,note_off,35,3685,64,320
3186,928.0,note_on,33,3276,64,0
3187,928.0,pitchwheel,33,3276,64,0
3188,928.0,note_off,33,3276,64,320
3189,928.666667,note_on,38,0,64,0
3190,928.666667,note_off,38,0,64,320
3191,929.333333,note_on,33,0,64,0
3192,929.333333,note_off,33,0,64,320
3193,930.0,note_on,35,3276,64,0
3194,930.0,pitchwheel,35,3276,64,0
3195,930.0,note_off,35,3276,64,320
3196,930.666667,note_on,34,1638,64,0
3197,930.666667,pitchwheel,34,1638,64,0
3198,930.666667,note_off,34,1638,64,320
3199,931.333333,note_on,29,1228,64,0
3200,931.333333,pitchwheel,29,1228,64,0
3201,931.333333,note_off,29,1228,64,320
3202,932.0,note_on,29,0,64,0
3203,932.0,note_off,29,0,64,320
3204,933.333333,note_on,28,0,64,0
3205,933.333333,note_off,28,0,64,320
3206,934.0,note_on,29,0,64,0
3207,934.0,note_off,29,0,64,320
3208,935.333333,note_on,33,1638,64,0
3209,935.333333,pitchwheel,33,1638,64,0
3210,935.333333,note_off,33,1638,64,320
3211,936.0,note_on,32,0,64,0
3212,936.0,note_off,32,0,64,320
3213,936.666667,note_on,36,2047,64,0
3214,936.666667,pitchwheel,36,2047,64,0
3215,936.666667,note_off,36,2047,64,320
3216,937.333333,note_on,35,2457,64,0
3217,937.333333,pitchwheel,35,2457,64,0
3218,937.333333,note_off,35,2457,64,320
3219,938.666667,note_on,31,1638,64,0
3220,938.666667,pitchwheel,31,1638,64,0
3221,938.666667,note_off,31,1638,64,320
3222,940.0,note_on,32,2047,64,0
3223,940.0,pitchwheel,32,2047,64,0
3224,940.0,note_off,32,2047,64,320
3225,940.666667,note_on,31,0,64,0
3226,940.666667,note_off,31,0,64,320
3227,941.333333,note_on,34,1638,64,0
3228,941.333333,pitchwheel,34,1638,64,0
3229,941.333333,note_off,34,1638,64,320
3230,942.0,note_on,36,2047,64,0
3231,942.0,pitchwheel,36,2047,64,0
3232,942.0,note_off,36,2047,64,320
3233,942.666667,note_on,36,819,64,0
3234,942.666667,pitchwheel,36,819,64,0
3235,942.666667,note_off,36,819,64,320
3236,943.333333,note_on,35,3276,64,0
3237,943.333333,pitchwheel,35,3276,64,0
3238,943.333333,note_off,35,3276,64,320
3239,944.0,note_on,34,1638,64,0
3240,944.0,pitchwheel,34,1638,64,0
3241,944.0,note_off,34,1638,64,320
3242,944.666667,note_on,33,0,64,0
3243,944.666667,note_off,33,0,64,320
3244,945.333333,note_on,38,3685,64,0
3245,945.333333,pitchwheel,38,3685,64,0
3246,945.333333,note_off,38,3685,64,320
3247,946.0,note_on,40,2457,64,0
3248,946.0,pitchwheel,40,2457,64,0
3249,946.0,note_off,40,2457,64,320
3250,946.666667,note_on,39,819,64,0
3251,946.666667,pitchwheel,39,819,64,0
3252,946.666667,note_off,39,819,64,320
3253,948.0,note_on,38,0,64,0
3254,948.0,note_off,38,0,64,320
3255,948.666667,note_on,35,2457,64,0
3256,948.666667,pitchwheel,35,2457,64,0
3257,948.666667,note_off,35,2457,64,320
3258,949.333333,note_on,34,1638,64,0
3259,949.333333,pitchwheel,34,1638,64,0
3260,949.333333,note_off,34,1638,64,320
3261,950.0,note_on,32,2047,64,0
3262,950.0,pitchwheel,32,2047,64,0
3263,950.0,note_off,32,2047,64,320
3264,950.666667,note_on,38,2457,64,0
3265,950.666667,pitchwheel,38,2457,64,0
3266,950.666667,note_off,38,2457,64,320
3267,951.333333,note_on,38,819,64,0
3268,951.333333,pitchwheel,38,819,64,0
3269,951.333333,note_off,38,819,64,320
3270,952.0,note_on,39,819,64,0
3271,952.0,pitchwheel,39,819,64,0
3272,952.0,note_off,39,819,64,320
3273,952.666667,note_on,43,2866,64,0
3274,952.666667,pitchwheel,43,2866,64,0
3275,952.666667,note_off,43,2866,64,320
3276,953.333333,note_on,43,0,64,0
3277,953.333333,note_off,43,0,64,320
3278,954.0,note_on,38,0,64,0
3279,954.0,note_off,38,0,64,320
3280,954.666667,note_on,38,819,64,0
3281,954.666667,pitchwheel,38,819,64,0
3282,954.666667,note_off,38,819,64,320
3283,955.333333,note_on,38,2457,64,0
3284,955.333333,pitchwheel,38,2457,64,0
3285,955.333333,note_off,38,2457,64,320
3286,956.0,note_on,36,2047,64,0
3287,956.0,pitchwheel,36,2047,64,0
3288,956.0,note_off,36,2047,64,320
3289,956.666667,note_on,35,3276,64,0
3290,956.666667,pitchwheel,35,3276,64,0
3291,956.666667,note_off,35,3276,64,320
3292,957.333333,note_on,36,819,64,0
3293,957.333333,pitchwheel,36,819,64,0
3294,957.333333,note_off,36,819,64,320
3295,958.0,note_on,41,1228,64,0
3296,958.0,pitchwheel,41,1228,64,0
3297,958.0,note_off,41,1228,64,320
3298,958.666667,note_on,41,0,64,0
3299,958.666667,note_off,41,0,64,320
3300,960.0,note_on,40,0,64,0
3301,960.0,note_off,40,0,64,320
3302,960.666667,note_on,41,0,64,0
3303,960.666667,note_off,41,0,64,640
3304,962.0,note_on,38,819,64,0
3305,962.0,pitchwheel,38,819,64,0
3306,962.0,note_off,38,819,64,320
3307,962.666667,note_on,38,2457,64,0
3308,962.666667,pitchwheel,38,2457,64,0
3309,962.666667,note_off,38,2457,64,320
3310,964.0,note_on,40,2457,64,0
3311,964.0,pitchwheel,40,2457,64,0
3312,964.0,note_off,40,2457,64,320
3313,965.333333,note_on,36,3276,64,0
3314,965.333333,pitchwheel,36,3276,64,0
3315,965.333333,note_off,36,3276,64,320
3316,966.666667,note_on,32,2047,64,0
3317,966.666667,pitchwheel,32,2047,64,0
3318,966.666667,note_off,32,2047,64,320
3319,967.333333,note_on,35,3276,64,0
3320,967.333333,pitchwheel,35,3276,64,0
3321,967.333333,note_off,35,3276,64,320
3322,968.0,note_on,34,0,64,0
3323,968.0,note_off,34,0,64,320
3324,968.666667,note_on,36,2047,64,0
3325,968.666667,pitchwheel,36,2047,64,0
3326,968.666667,note_off,36,2047,64,320
3327,969.333333,note_on,36,819,64,0
3328,969.333333,pitchwheel,36,819,64,0
3329,969.333333,note_off,36,819,64,320
3330,970.0,note_on,38,819,64,0
3331,970.0,pitchwheel,38,819,64,0
3332,970.0,note_off,38,819,64,320
3333,970.666667,note_on,36,819,64,0
3334,970.666667,pitchwheel,36,819,64,0
3335,970.666667,note_off,36,819,64,320
3336,971.333333,note_on,33,0,64,0
3337,971.333333,note_off,33,0,64,320
3338,972.666667,note_on,33,1638,64,0
3339,972.666667,pitchwheel,33,1638,64,0
3340,972.666667,note_off,33,1638,64,320
3341,973.333333,note_on,31,0,64,0
3342,973.333333,note_off,31,0,64,320
3343,974.666667,note_on,31,0,64,0
3344,974.666667,note_off,31,0,64,320
3345,975.333333,note_on,35,2457,64,0
3346,975.333333,pitchwheel,35,2457,64,0
3347,975.333333,note_off,35,2457,64,320
3348,976.0,note_on,34,0,64,0
3349,976.0,note_off,34,0,64,320
3350,976.666667,note_on,33,3276,64,0
3351,976.666667,pitchwheel,33,3276,64,0
3352,976.666667,note_off,33,3276,64,320
3353,977.333333,note_on,31,2866,64,0
3354,977.333333,pitchwheel,31,2866,64,0
3355,977.333333,note_off,31,2866,64,320
3356,978.0,note_on,31,0,64,0
3357,978.0,note_off,31,0,64,320
3358,978.666667,note_on,31,1638,64,0
3359,978.666667,pitchwheel,31,1638,64,0
3360,978.666667,note_off,31,1638,64,320
3361,979.333333,note_on,31,2866,64,0
3362,979.333333,pitchwheel,31,2866,64,0
3363,979.333333,note_off,31,2866,64,320
3364,980.0,note_on,31,0,64,0
3365,980.0,note_off,31,0,64,320
3366,980.666667,note_on,38,0,64,0
3367,980.666667,note_off,38,0,64,640
3368,982.0,note_on,38,2457,64,0
3369,982.0,pitchwheel,38,2457,64,0
3370,982.0,note_off,38,2457,64,320
3371,982.666667,note_on,33,0,64,0
3372,982.666667,note_off,33,0,64,320
3373,983.333333,note_on,40,2457,64,0
3374,983.333333,pitchwheel,40,2457,64,0
3375,983.333333,note_off,40,2457,64,320
3376,984.0,note_on,44,0,64,0
3377,984.0,note_off,44,0,64,320
3378,984.666667,note_on,41,1228,64,0
3379,984.666667,pitchwheel,41,1228,64,0
3380,984.666667,note_off,41,1228,64,320
3381,985.333333,note_on,41,0,64,0
3382,985.333333,note_off,41,0,64,320
3383,986.666667,note_on,43,0,64,0
3384,986.666667,note_off,43,0,64,320
3385,987.333333,note_on,48,2047,64,0
3386,987.333333,pitchwheel,48,2047,64,0
3387,987.333333,note_off,48,2047,64,320
3388,988.666667,note_on,43,0,64,0
3389,988.666667,note_off,43,0,64,640
3390,990.0,note_on,45,0,64,0
3391,990.0,note_off,45,0,64,320
3392,990.666667,note_on,46,0,64,0
3393,990.666667,note_off,46,0,64,320
3394,992.0,note_on,47,3685,64,0
3395,992.0,pitchwheel,47,3685,64,0
3396,992.0,note_off,47,3685,64,320
3397,993.333333,note_on,47,2047,64,0
3398,993.333333,pitchwheel,47,2047,64,0
3399,993.333333,note_off,47,2047,64,320
3400,994.0,note_on,52,2457,64,0
3401,994.0,pitchwheel,52,2457,64,0
3402,994.0,note_off,52,2457,64,320
3403,994.666667,note_on,53,2457,64,0
3404,994.666667,pitchwheel,53,2457,64,0
3405,994.666667,note_off,53,2457,64,320
3406,995.333333,note_on,48,819,64,0
3407,995.333333,pitchwheel,48,819,64,0
3408,995.333333,note_off,48,819,64,320
3409,996.0,note_on,47,3685,64,0
3410,996.0,pitchwheel,47,3685,64,0
3411,996.0,note_off,47,3685,64,320
3412,996.666667,note_on,52,2457,64,0
3413,996.666667,pitchwheel,52,2457,64,0
3414,996.666667,note_off,52,2457,64,640
3415,998.0,note_on,57,0,64,0
3416,998.0,note_off,57,0,64,320
3417,998.666667,note_on,62,3685,64,0
3418,998.666667,pitchwheel,62,3685,64,0
3419,998.666667,note_off,62,3685,64,320
3420,999.333333,note_on,62,819,64,0
3421,999.333333,pitchwheel,62,819,64,0
3422,999.333333,note_off,62,819,64,320
3423,1000.0,note_on,59,3276,64,0
3424,1000.0,pitchwheel,59,3276,64,0
3425,1000.0,note_off,59,3276,64,320
3426,1001.333333,note_on,62,0,64,0
3427,1001.333333,note_off,62,0,64,320
3428,1002.0,note_on,55,1638,64,0
3429,1002.0,pitchwheel,55,1638,64,0
3430,1002.0,note_off,55,1638,64,320
3431,1002.666667,note_on,59,2457,64,0
3432,1002.666667,pitchwheel,59,2457,64,0
3433,1002.666667,note_off,59,2457,64,320
3434,1003.333333,note_on,61,0,64,0
3435,1003.333333,note_off,61,0,64,320
3436,1004.0,note_on,62,2457,64,0
3437,1004.0,pitchwheel,62,2457,64,0
3438,1004.0,note_off,62,2457,64,320
3439,1004.666667,note_on,59,3276,64,0
3440,1004.666667,pitchwheel,59,3276,64,0
3441,1004.666667,note_off,59,3276,64,320
3442,1005.333333,note_on,58,1638,64,0
3443,1005.333333,pitchwheel,58,1638,64,0
3444,1005.333333,note_off,58,1638,64,320
3445,1006.0,note_on,55,1638,64,0
3446,1006.0,pitchwheel,55,1638,64,0
3447,1006.0,note_off,55,1638,64,320
3448,1006.666667,note_on,55,409,64,0
3449,1006.666667,pitchwheel,55,409,64,0
3450,1006.666667,note_off,55,409,64,320
3451,1007.333333,note_on,53,0,64,0
3452,1007.333333,note_off,53,0,64,320
3453,1008.0,note_on,58,1638,64,0
3454,1008.0,pitchwheel,58,1638,64,0
3455,1008.0,note_off,58,1638,64,320
3456,1008.666667,note_on,62,3685,64,0
3457,1008.666667,pitchwheel,62,3685,64,0
3458,1008.666667,note_off,62,3685,64,320
3459,1009.333333,note_on,60,2047,64,0
3460,1009.333333,pitchwheel,60,2047,64,0
3461,1009.333333,note_off,60,2047,64,320
3462,1010.0,note_on,57,1638,64,0
3463,1010.0,pitchwheel,57,1638,64,0
3464,1010.0,note_off,57,1638,64,320
3465,1010.666667,note_on,60,819,64,0
3466,1010.666667,pitchwheel,60,819,64,0
3467,1010.666667,note_off,60,819,64,320
3468,1011.333333,note_on,53,0,64,0
3469,1011.333333,note_off,53,0,64,320
3470,1012.0,note_on,52,2866,64,0
3471,1012.0,pitchwheel,52,2866,64,0
3472,1012.0,note_off,52,2866,64,320
3473,1013.333333,note_on,51,819,64,0
3474,1013.333333,pitchwheel,51,819,64,0
3475,1013.333333,note_off,51,819,64,320
3476,1014.0,note_on,53,0,64,0
3477,1014.0,note_off,53,0,64,320
3478,1014.666667,note_on,48,2047,64,0
3479,1014.666667,pitchwheel,48,2047,64,0
3480,1014.666667,note_off,48,2047,64,320
3481,1015.333333,note_on,52,2457,64,0
3482,1015.333333,pitchwheel,52,2457,64,0
3483,1015.333333,note_off,52,2457,64,320
3484,1016.0,note_on,48,3276,64,0
3485,1016.0,pitchwheel,48,3276,64,0
3486,1016.0,note_off,48,3276,64,320
3487,1016.666667,note_on,47,2047,64,0
3488,1016.666667,pitchwheel,47,2047,64,0
3489,1016.666667,note_off,47,2047,64,320
3490,1017.333333,note_on,46,0,64,0
3491,1017.333333,note_off,46,0,64,320
3492,1018.666667,note_on,47,3685,64,0
3493,1018.666667,pitchwheel,47,3685,64,0
3494,1018.666667,note_off,47,3685,64,320
3495,1020.0,note_on,53,0,64,0
3496,1020.0,note_off,53,0,64,320
3497,1020.666667,note_on,50,819,64,0
3498,1020.666667,pitchwheel,50,819,64,0
3499,1020.666667,note_off,50,819,64,320
3500,1021.333333,note_on,51,819,64,0
3501,1021.333333,pitchwheel,51,819,64,0
3502,1021.333333,note_off,51,819,64,320
3503,1022.0,note_on,48,819,64,0
3504,1022.0,pitchwheel,48,819,64,0
3505,1022.0,note_off,48,819,64,320
3506,1022.666667,note_on,48,2047,64,0
3507,1022.666667,pitchwheel,48,2047,64,0
3508,1022.666667,note_off,48,2047,64,320
3509,1023.333333,note_on,43,0,64,0
3510,1023.333333,note_off,43,0,64,320
3511,1024.0,note_on,44,0,64,0
3512,1024.0,note_off,44,0,64,320
3513,1024.666667,note_on,45,0,64,0
3514,1024.666667,note_off,45,0,64,320
3515,1026.0,note_on,47,3276,64,0
3516,1026.0,pitchwheel,47,3276,64,0
3517,1026.0,note_off,47,3276,64,320
3518,1026.666667,note_on,47,3685,64,0
3519,1026.666667,pitchwheel,47,3685,64,0
3520,1026.666667,note_off,47,3685,64,320
3521,1028.0,note_on,47,3276,64,0
3522,1028.0,pitchwheel,47,3276,64,0
3523,1028.0,note_off,47,3276,64,320
3524,1028.666667,note_on,46,409,64,0
3525,1028.666667,pitchwheel,46,409,64,0
3526,1028.666667,note_off,46,409,64,320
3527,1029.333333,note_on,50,0,64,0
3528,1029.333333,note_off,50,0,64,320
3529,1030.0,note_on,47,2047,64,0
3530,1030.0,pitchwheel,47,2047,64,0
3531,1030.0,note_off,47,2047,64,320
3532,1030.666667,note_on,53,1228,64,0
3533,1030.666667,pitchwheel,53,1228,64,0
3534,1030.666667,note_off,53,1228,64,320
3535,1031.333333,note_on,57,1638,64,0
3536,1031.333333,pitchwheel,57,1638,64,0
3537,1031.333333,note_off,57,1638,64,320
3538,1032.0,note_on,56,0,64,0
3539,1032.0,note_off,56,0,64,320
3540,1032.666667,note_on,53,0,64,0
3541,1032.666667,note_off,53,0,64,320
3542,1033.333333,note_on,57,1638,64,0
3543,1033.333333,pitchwheel,57,1638,64,0
3544,1033.333333,note_off,57,1638,64,320
3545,1034.0,note_on,60,2047,64,0
3546,1034.0,pitchwheel,60,2047,64,0
3547,1034.0,note_off,60,2047,64,320
3548,1034.666667,note_on,60,3276,64,0
3549,1034.666667,pitchwheel,60,3276,64,0
3550,1034.666667,note_off,60,3276,64,320
3551,1035.333333,note_on,62,2457,64,0
3552,1035.333333,pitchwheel,62,2457,64,0
3553,1035.333333,note_off,62,2457,64,320
3554,1036.0,note_on,57,0,64,0
3555,1036.0,note_off,57,0,64,320
3556,1036.666667,note_on,55,0,64,0
3557,1036.666667,note_off,55,0,64,320
3558,1037.333333,note_on,55,409,64,0
3559,1037.333333,pitchwheel,55,409,64,0
3560,1037.333333,note_off,55,409,64,320
3561,1038.0,note_on,55,1638,64,0
3562,1038.0,pitchwheel,55,1638,64,0
3563,1038.0,note_off,55,1638,64,320
3564,1038.666667,note_on,55,2866,64,0
3565,1038.666667,pitchwheel,55,2866,64,0
3566,1038.666667,note_off,55,2866,64,320
3567,1040.0,note_on,55,0,64,0
3568,1040.0,note_off,55,0,64,320
3569,1040.666667,note_on,50,2457,64,0
3570,1040.666667,pitchwheel,50,2457,64,0
3571,1040.666667,note_off,50,2457,64,320
3572,1042.0,note_on,50,819,64,0
3573,1042.0,pitchwheel,50,819,64,0
3574,1042.0,note_off,50,819,64,320
3575,1042.666667,note_on,50,2457,64,0
3576,1042.666667,pitchwheel,50,2457,64,0
3577,1042.666667,note_off,50,2457,64,320
3578,1043.333333,note_on,50,3685,64,0
3579,1043.333333,pitchwheel,50,3685,64,0
3580,1043.333333,note_off,50,3685,64,320
3581,1044.0,note_on,46,0,64,0
3582,1044.0,note_off,46,0,64,320
3583,1045.333333,note_on,46,1638,64,0
3584,1045.333333,pitchwheel,46,1638,64,0
3585,1045.333333,note_off,46,1638,64,320
3586,1046.666667,note_on,48,2047,64,0
3587,1046.666667,pitchwheel,48,2047,64,0
3588,1046.666667,note_off,48,2047,64,320
3589,1047.333333,note_on,52,2457,64,0
3590,1047.333333,pitchwheel,52,2457,64,0
3591,1047.333333,note_off,52,2457,64,320
3592,1048.0,note_on,53,2457,64,0
3593,1048.0,pitchwheel,53,2457,64,0
3594,1048.0,note_off,53,2457,64,320
3595,1048.666667,note_on,48,819,64,0
3596,1048.666667,pitchwheel,48,819,64,0
3597,1048.666667,note_off,48,819,64,320
3598,1049.333333,note_on,48,2047,64,0
3599,1049.333333,pitchwheel,48,2047,64,0
3600,1049.333333,note_off,48,2047,64,320
3601,1050.0,note_on,45,1638,64,0
3602,1050.0,pitchwheel,45,1638,64,0
3603,1050.0,note_off,45,1638,64,320
3604,1050.666667,note_on,47,2457,64,0
3605,1050.666667,pitchwheel,47,2457,64,0
3606,1050.666667,note_off,47,2457,64,320
3607,1051.333333,note_on,45,0,64,0
3608,1051.333333,note_off,45,0,64,320
3609,1052.0,note_on,48,2047,64,0
3610,1052.0,pitchwheel,48,2047,64,0
3611,1052.0,note_off,48,2047,64,320
3612,1052.666667,note_on,43,0,64,0
3613,1052.666667,note_off,43,0,64,320
3614,1053.333333,note_on,47,3276,64,0
3615,1053.333333,pitchwheel,47,3276,64,0
3616,1053.333333,note_off,47,3276,64,320
3617,1054.666667,note_on,50,3685,64,0
3618,1054.666667,pitchwheel,50,3685,64,0
3619,1054.666667,note_off,50,3685,64,320
3620,1055.333333,note_on,45,2047,64,0
3621,1055.333333,pitchwheel,45,2047,64,0
3622,1055.333333,note_off,45,2047,64,320
3623,1056.0,note_on,46,1638,64,0
3624,1056.0,pitchwheel,46,1638,64,0
3625,1056.0,note_off,46,1638,64,320
3626,1056.666667,note_on,44,2047,64,0
3627,1056.666667,pitchwheel,44,2047,64,0
3628,1056.666667,note_off,44,2047,64,320
3629,1057.333333,note_on,38,3685,64,0
3630,1057.333333,pitchwheel,38,3685,64,0
3631,1057.333333,note_off,38,3685,64,320
3632,1058.0,note_on,33,1638,64,0
3633,1058.0,pitchwheel,33,1638,64,0
3634,1058.0,note_off,33,1638,64,320
3635,1058.666667,note_on,33,2047,64,0
3636,1058.666667,pitchwheel,33,2047,64,0
3637,1058.666667,note_off,33,2047,64,320
3638,1059.333333,note_on,29,0,64,0
3639,1059.333333,note_off,29,0,64,320
3640,1060.0,note_on,38,1228,64,0
3641,1060.0,pitchwheel,38,1228,64,0
3642,1060.0,note_off,38,1228,64,320
3643,1060.666667,note_on,43,409,64,0
3644,1060.666667,pitchwheel,43,409,64,0
3645,1060.666667,note_off,43,409,64,320
3646,1061.333333,note_on,45,3276,64,0
3647,1061.333333,pitchwheel,45,3276,64,0
3648,1061.333333,note_off,45,3276,64,320
3649,1062.0,note_on,41,0,64,0
3650,1062.0,note_off,41,0,64,320
3651,1062.666667,note_on,46,409,64,0
3652,1062.666667,pitchwheel,46,409,64,0
3653,1062.666667,note_off,46,409,64,320
3654,1063.333333,note_on,47,3276,64,0
3655,1063.333333,pitchwheel,47,3276,64,0
3656,1063.333333,note_off,47,3276,64,320
3657,1064.0,note_on,46,1638,64,0
3658,1064.0,pitchwheel,46,1638,64,0
3659,1064.0,note_off,46,1638,64,320
3660,1064.666667,note_on,43,1638,64,0
3661,1064.666667,pitchwheel,43,1638,64,0
3662,1064.666667,note_off,43,1638,64,320
3663,1065.333333,note_on,43,2866,64,0
3664,1065.333333,pitchwheel,43,2866,64,0
3665,1065.333333,note_off,43,2866,64,320
3666,1066.666667,note_on,40,0,64,0
3667,1066.666667,note_off,40,0,64,320
3668,1067.333334,note_on,41,0,64,0
3669,1067.333334,note_off,41,0,64,640
3670,1068.666667,note_on,43,0,64,0
3671,1068.666667,note_off,43,0,64,320
3672,1069.333334,note_on,44,0,64,0
3673,1069.333334,note_off,44,0,64,320
3674,1070.0,note_on,41,0,64,0
3675,1070.0,note_off,41,0,64,320
3676,1070.666667,note_on,43,0,64,0
3677,1070.666667,note_off,43,0,64,320
3678,1072.0,note_on,43,409,64,0
3679,1072.0,pitchwheel,43,409,64,0
3680,1072.0,note_off,43,409,64,320
3681,1073.333334,note_on,43,0,64,0
3682,1073.333334,note_off,43,0,64,320
3683,1074.0,note_on,45,1638,64,0
3684,1074.0,pitchwheel,45,1638,64,0
3685,1074.0,note_off,45,1638,64,320
3686,1074.666667,note_on,46,0,64,0
3687,1074.666667,note_off,46,0,64,320
3688,1075.333334,note_on,41,0,64,0
3689,1075.333334,note_off,41,0,64,320
3690,1076.0,note_on,41,1228,64,0
3691,1076.0,pitchwheel,41,1228,64,0
3692,1076.0,note_off,41,1228,64,320
3693,1076.666667,note_on,43,0,64,0
3694,1076.666667,note_off,43,0,64,320
3695,1077.333334,note_on,43,409,64,0
3696,1077.333334,pitchwheel,43,409,64,0
3697,1077.333334,note_off,43,409,64,320
3698,1078.0,note_on,45,0,64,0
3699,1078.0,note_off,45,0,64,320
3700,1079.333334,note_on,47,3276,64,0
3701,1079.333334,pitchwheel,47,3276,64,0
3702,1079.333334,note_off,47,3276,64,320
3703,1080.0,note_on,48,3276,64,0
3704,1080.0,pitchwheel,48,3276,64,0
3705,1080.0,note_off,48,3276,64,320
3706,1081.333334,note_on,45,1638,64,0
3707,1081.333334,pitchwheel,45,1638,64,0
3708,1081.333334,note_off,45,1638,64,320
3709,1082.0,note_on,47,2457,64,0
3710,1082.0,pitchwheel,47,2457,64,0
3711,1082.0,note_off,47,2457,64,320
3712,1082.666667,note_on,46,1638,64,0
3713,1082.666667,pitchwheel,46,1638,64,0
3714,1082.666667,note_off,46,1638,64,320
3715,1083.333334,note_on,47,2047,64,0
3716,1083.333334,pitchwheel,47,2047,64,0
3717,1083.333334,note_off,47,2047,64,320
3718,1084.0,note_on,53,0,64,0
3719,1084.0,note_off,53,0,64,320
3720,1084.666667,note_on,50,819,64,0
3721,1084.666667,pitchwheel,50,819,64,0
3722,1084.666667,note_off,50,819,64,320
3723,1085.333334,note_on,51,819,64,0
3724,1085.333334,pitchwheel,51,819,64,0
3725,1085.333334,note_off,51,819,64,320
3726,1086.0,note_on,45,3276,64,0
3727,1086.0,pitchwheel,45,3276,64,0
3728,1086.0,note_off,45,3276,64,320
3729,1086.666667,note_on,46,0,64,0
3730,1086.666667,note_off,46,0,64,320
3731,1087.333334,note_on,50,0,64,0
3732,1087.333334,note_off,50,0,64,320
3733,1088.0,note_on,45,2047,64,0
3734,1088.0,pitchwheel,45,2047,64,0
3735,1088.0,note_off,45,2047,64,320
3736,1088.666667,note_on,50,2457,64,0
3737,1088.666667,pitchwheel,50,2457,64,0
3738,1088.666667,note_off,50,2457,64,320
3739,1089.333334,note_on,45,0,64,0
3740,1089.333334,note_off,45,0,64,320
3741,1090.0,note_on,40,2457,64,0
3742,1090.0,pitchwheel,40,2457,64,0
3743,1090.0,note_off,40,2457,64,320
3744,1090.666667,note_on,41,2457,64,0
3745,1090.666667,pitchwheel,41,2457,64,0
3746,1090.666667,note_off,41,2457,64,320
3747,1091.333334,note_on,36,819,64,0
3748,1091.333334,pitchwheel,36,819,64,0
3749,1091.333334,note_off,36,819,64,320
3750,1092.0,note_on,36,2047,64,0
3751,1092.0,pitchwheel,36,2047,64,0
3752,1092.0,note_off,36,2047,64,320
3753,1093.333334,note_on,36,3276,64,0
3754,1093.333334,pitchwheel,36,3276,64,0
3755,1093.333334,note_off,36,3276,64,320
3756,1094.0,note_on,36,2047,64,0
3757,1094.0,pitchwheel,36,2047,64,0
3758,1094.0,note_off,36,2047,64,320
3759,1095.333334,note_on,33,1638,64,0
3760,1095.333334,pitchwheel,33,1638,64,0
3761,1095.333334,note_off,33,1638,64,640
3762,1097.333334,note_on,34,0,64,0
3763,1097.333334,note_off,34,0,64,320
3764,1098.666667,note_on,34,0,64,0
3765,1098.666667,note_off,34,0,64,320
3766,1100.0,note_on,35,2047,64,0
3767,1100.0,pitchwheel,35,2047,64,0
3768,1100.0,note_off,35,2047,64,320
3769,1100.666667,note_on,31,0,64,0
3770,1100.666667,note_off,31,0,64,320
3771,1101.333334,note_on,29,0,64,0
3772,1101.333334,note_off,29,0,64,320
3773,1102.0,note_on,40,2866,64,0
3774,1102.0,pitchwheel,40,2866,64,0
3775,1102.0,note_off,40,2866,64,320
3776,1102.666667,note_on,38,819,64,0
3777,1102.666667,pitchwheel,38,819,64,0
3778,1102.666667,note_off,38,819,64,320
3779,1103.333334,note_on,33,1638,64,0
3780,1103.333334,pitchwheel,33,1638,64,0
3781,1103.333334,note_off,33,1638,64,320
3782,1104.0,note_on,33,2047,64,0
3783,1104.0,pitchwheel,33,2047,64,0
3784,1104.0,note_off,33,2047,64,320
3785,1104.666667,note_on,33,0,64,0
3786,1104.666667,note_off,33,0,64,320
3787,1105.333334,note_on,33,3276,64,0
3788,1105.333334,pitchwheel,33,3276,64,0
3789,1105.333334,note_off,33,3276,64,320
3790,1106.0,note_on,40,2457,64,0
3791,1106.0,pitchwheel,40,2457,64,0
3792,1106.0,note_off,40,2457,64,320
3793,1106.666667,note_on,36,3276,64,0
3794,1106.666667,pitchwheel,36,3276,64,0
3795,1106.666667,note_off,36,3276,64,320
3796,1108.0,note_on,38,0,64,0
3797,1108.0,note_off,38,0,64,320
3798,1108.666667,note_on,43,1638,64,0
3799,1108.666667,pitchwheel,43,1638,64,0
3800,1108.666667,note_off,43,1638,64,320
3801,1109.333334,note_on,43,409,64,0
3802,1109.333334,pitchwheel,43,409,64,0
3803,1109.333334,note_off,43,409,64,320
3804,1110.0,note_on,41,0,64,0
3805,1110.0,note_off,41,0,64,320
3806,1110.666667,note_on,38,2457,64,0
3807,1110.666667,pitchwheel,38,2457,64,0
3808,1110.666667,note_off,38,2457,64,320
3809,1111.333334,note_on,38,819,64,0
3810,1111.333334,pitchwheel,38,819,64,0
3811,1111.333334,note_off,38,819,64,320
3812,1112.0,note_on,34,1638,64,0
3813,1112.0,pitchwheel,34,1638,64,0
3814,1112.0,note_off,34,1638,64,320
3815,1112.666667,note_on,33,2047,64,0
3816,1112.666667,pitchwheel,33,2047,64,0
3817,1112.666667,note_off,33,2047,64,320
3818,1113.333334,note_on,29,1228,64,0
3819,1113.333334,pitchwheel,29,1228,64,0
3820,1113.333334,note_off,29,1228,64,320
3821,1114.0,note_on,29,0,64,0
3822,1114.0,note_off,29,0,64,320
3823,1114.666667,note_on,41,2457,64,0
3824,1114.666667,pitchwheel,41,2457,64,0
3825,1114.666667,note_off,41,2457,64,320
3826,1115.333334,note_on,38,3685,64,0
3827,1115.333334,pitchwheel,38,3685,64,0
3828,1115.333334,note_off,38,3685,64,320
3829,1116.0,note_on,36,819,64,0
3830,1116.0,pitchwheel,36,819,64,0
3831,1116.0,note_off,36,819,64,320
3832,1116.666667,note_on,35,3276,64,0
3833,1116.666667,pitchwheel,35,3276,64,0
3834,1116.666667,note_off,35,3276,64,640
3835,1118.0,note_on,35,3685,64,0
3836,1118.0,pitchwheel,35,3685,64,0
3837,1118.0,note_off,35,3685,64,320
3838,1118.666667,note_on,36,819,64,0
3839,1118.666667,pitchwheel,36,819,64,0
3840,1118.666667,note_off,36,819,64,320
3841,1120.0,note_on,36,3276,64,0
3842,1120.0,pitchwheel,36,3276,64,0
3843,1120.0,note_off,36,3276,64,320
3844,1120.666667,note_on,41,0,64,0
3845,1120.666667,note_off,41,0,64,320
3846,1121.333334,note_on,36,2047,64,0
3847,1121.333334,pitchwheel,36,2047,64,0
3848,1121.333334,note_off,36,2047,64,320
3849,1122.0,note_on,35,3276,64,0
3850,1122.0,pitchwheel,35,3276,64,0
3851,1122.0,note_off,35,3276,64,320
3852,1122.666667,note_on,39,819,64,0
3853,1122.666667,pitchwheel,39,819,64,0
3854,1122.666667,note_off,39,819,64,320
3855,1123.333334,note_on,45,0,64,0
3856,1123.333334,note_off,45,0,64,320
3857,1124.0,note_on,45,1638,64,0
3858,1124.0,pitchwheel,45,1638,64,0
3859,1124.0,note_off,45,1638,64,320
3860,1125.333334,note_on,45,1638,64,0
3861,1125.333334,pitchwheel,45,1638,64,0
3862,1125.333334,note_off,45,1638,64,320
3863,1126.666667,note_on,40,0,64,0
3864,1126.666667,note_off,40,0,64,320
3865,1127.333334,note_on,45,1638,64,0
3866,1127.333334,pitchwheel,45,1638,64,0
3867,1127.333334,note_off,45,1638,64,320
3868,1128.0,note_on,46,0,64,0
3869,1128.0,note_off,46,0,64,320
3870,1128.666667,note_on,43,2866,64,0
3871,1128.666667,pitchwheel,43,2866,64,0
3872,1128.666667,note_off,43,2866,64,320
3873,1129.333334,note_on,43,1638,64,0
3874,1129.333334,pitchwheel,43,1638,64,0
3875,1129.333334,note_off,43,1638,64,320
3876,1130.0,note_on,47,3276,64,0
3877,1130.0,pitchwheel,47,3276,64,0
3878,1130.0,note_off,47,3276,64,320
3879,1130.666667,note_on,47,3685,64,0
3880,1130.666667,pitchwheel,47,3685,64,0
3881,1130.666667,note_off,47,3685,64,320
3882,1131.333334,note_on,45,0,64,0
3883,1131.333334,note_off,45,0,64,320
3884,1132.666667,note_on,43,0,64,0
3885,1132.666667,note_off,43,0,64,640
3886,1134.666667,note_on,43,0,64,0
3887,1134.666667,note_off,43,0,64,320
3888,1135.333334,note_on,46,409,64,0
3889,1135.333334,pitchwheel,46,409,64,0
3890,1135.333334,note_off,46,409,64,320
3891,1136.0,note_on,41,0,64,0
3892,1136.0,note_off,41,0,64,320
3893,1136.666667,note_on,35,2047,64,0
3894,1136.666667,pitchwheel,35,2047,64,0
3895,1136.666667,note_off,35,2047,64,320
3896,1137.333334,note_on,40,2866,64,0
3897,1137.333334,pitchwheel,40,2866,64,0
3898,1137.333334,note_off,40,2866,64,320
3899,1138.0,note_on,40,2457,64,0
3900,1138.0,pitchwheel,40,2457,64,0
3901,1138.0,note_off,40,2457,64,320
3902,1138.666667,note_on,38,819,64,0
3903,1138.666667,pitchwheel,38,819,64,0
3904,1138.666667,note_off,38,819,64,320
3905,1139.333334,note_on,38,3685,64,0
3906,1139.333334,pitchwheel,38,3685,64,0
3907,1139.333334,note_off,38,3685,64,320
3908,1140.0,note_on,33,1638,64,0
3909,1140.0,pitchwheel,33,1638,64,0
3910,1140.0,note_off,33,1638,64,320
3911,1140.666667,note_on,36,2047,64,0
3912,1140.666667,pitchwheel,36,2047,64,0
3913,1140.666667,note_off,36,2047,64,320
3914,1141.333334,note_on,39,819,64,0
3915,1141.333334,pitchwheel,39,819,64,0
3916,1141.333334,note_off,39,819,64,320
3917,1142.0,note_on,38,2457,64,0
3918,1142.0,pitchwheel,38,2457,64,0
3919,1142.0,note_off,38,2457,64,320
3920,1142.666667,note_on,33,0,64,0
3921,1142.666667,note_off,33,0,64,320
3922,1143.333334,note_on,35,2457,64,0
3923,1143.333334,pitchwheel,35,2457,64,0
3924,1143.333334,note_off,35,2457,64,320
3925,1144.0,note_on,36,3276,64,0
3926,1144.0,pitchwheel,36,3276,64,0
3927,1144.0,note_off,36,3276,64,320
3928,1144.666667,note_on,36,2047,64,0
3929,1144.666667,pitchwheel,36,2047,64,0
3930,1144.666667,note_off,36,2047,64,320
3931,1145.333334,note_on,36,819,64,0
3932,1145.333334,pitchwheel,36,819,64,0
3933,1145.333334,note_off,36,819,64,320
3934,1146.666667,note_on,36,3276,64,0
3935,1146.666667,pitchwheel,36,3276,64,0
3936,1146.666667,note_off,36,3276,64,320
3937,1147.333334,note_on,38,2457,64,0
3938,1147.333334,pitchwheel,38,2457,64,0
3939,1147.333334,note_off,38,2457,64,320
3940,1148.666667,note_on,35,3276,64,0
3941,1148.666667,pitchwheel,35,3276,64,0
3942,1148.666667,note_off,35,3276,64,320
3943,1149.333334,note_on,36,3276,64,0
3944,1149.333334,pitchwheel,36,3276,64,0
3945,1149.333334,note_off,36,3276,64,320
3946,1150.0,note_on,35,2047,64,0
3947,1150.0,pitchwheel,35,2047,64,0
3948,1150.0,note_off,35,2047,64,320
3949,1150.666667,note_on,34,0,64,0
3950,1150.666667,note_off,34,0,64,320
3951,1152.0,note_on,33,2047,64,0
3952,1152.0,pitchwheel,33,2047,64,0
3953,1152.0,note_off,33,2047,64,320
3954,1153.333334,note_on,37,0,64,0
3955,1153.333334,note_off,37,0,64,320
3956,1154.0,note_on,38,819,64,0
3957,1154.0,pitchwheel,38,819,64,0
3958,1154.0,note_off,38,819,64,320
3959,1154.666667,note_on,38,2457,64,0
3960,1154.666667,pitchwheel,38,2457,64,0
3961,1154.666667,note_off,38,2457,64,320
3962,1155.333334,note_on,43,2866,64,0
3963,1155.333334,pitchwheel,43,2866,64,0
3964,1155.333334,note_off,43,2866,64,320
3965,1156.0,note_on,43,1638,64,0
3966,1156.0,pitchwheel,43,1638,64,0
3967,1156.0,note_off,43,1638,64,320
3968,1156.666667,note_on,38,819,64,0
3969,1156.666667,pitchwheel,38,819,64,0
3970,1156.666667,note_off,38,819,64,320
3971,1157.333334,note_on,35,2457,64,0
3972,1157.333334,pitchwheel,35,2457,64,0
3973,1157.333334,note_off,35,2457,64,320
3974,1158.0,note_on,33,0,64,0
3975,1158.0,note_off,33,0,64,320
3976,1158.666667,note_on,33,2047,64,0
3977,1158.666667,pitchwheel,33,2047,64,0
3978,1158.666667,note_off,33,2047,64,320
3979,1159.333334,note_on,40,2457,64,0
3980,1159.333334,pitchwheel,40,2457,64,0
3981,1159.333334,note_off,40,2457,64,640
3982,1161.333334,note_on,41,0,64,0
3983,1161.333334,note_off,41,0,64,320
3984,1162.0,note_on,45,2047,64,0
3985,1162.0,pitchwheel,45,2047,64,0
3986,1162.0,note_off,45,2047,64,320
3987,1162.666667,note_on,41,2457,64,0
3988,1162.666667,pitchwheel,41,2457,64,0
3989,1162.666667,note_off,41,2457,64,320
3990,1163.333334,note_on,45,3276,64,0
3991,1163.333334,pitchwheel,45,3276,64,0
3992,1163.333334,note_off,45,3276,64,320
3993,1164.0,note_on,50,3685,64,0
3994,1164.0,pitchwheel,50,3685,64,0
3995,1164.0,note_off,50,3685,64,320
3996,1164.666667,note_on,55,0,64,0
3997,1164.666667,note_off,55,0,64,320
3998,1165.333334,note_on,56,0,64,0
3999,1165.333334,note_off,56,0,64,320
4000,1166.0,note_on,50,3685,64,0
4001,1166.0,pitchwheel,50,3685,64,0
4002,1166.0,note_off,50,3685,64,320
4003,1166.666667,note_on,47,3276,64,0
4004,1166.666667,pitchwheel,47,3276,64,0
4005,1166.666667,note_off,47,3276,64,320
4006,1167.333334,note_on,43,409,64,0
4007,1167.333334,pitchwheel,43,409,64,0
4008,1167.333334,note_off,43,409,64,320
4009,1168.0,note_on,44,0,64,0
4010,1168.0,note_off,44,0,64,320
4011,1168.666667,note_on,41,0,64,0
4012,1168.666667,note_off,41,0,64,320
4013,1169.333334,note_on,35,3685,64,0
4014,1169.333334,pitchwheel,35,3685,64,0
4015,1169.333334,note_off,35,3685,64,320
4016,1170.0,note_on,38,0,64,0
4017,1170.0,note_off,38,0,64,320
4018,1170.666667,note_on,36,819,64,0
4019,1170.666667,pitchwheel,36,819,64,0
4020,1170.666667,note_off,36,819,64,320
4021,1171.333334,note_on,36,2047,64,0
4022,1171.333334,pitchwheel,36,2047,64,0
4023,1171.333334,note_off,36,2047,64,320
4024,1172.0,note_on,36,819,64,0
4025,1172.0,pitchwheel,36,819,64,0
4026,1172.0,note_off,36,819,64,320
4027,1173.333334,note_on,36,3276,64,0
4028,1173.333334,pitchwheel,36,3276,64,0
4029,1173.333334,note_off,36,3276,64,320
4030,1174.0,note_on,40,1638,64,0
4031,1174.0,pitchwheel,40,1638,64,0
4032,1174.0,note_off,40,1638,64,320
4033,1174.666667,note_on,41,0,64,0
4034,1174.666667,note_off,41,0,64,320
4035,1175.333334,note_on,45,1638,64,0
4036,1175.333334,pitchwheel,45,1638,64,0
4037,1175.333334,note_off,45,1638,64,320
4038,1176.0,note_on,44,0,64,0
4039,1176.0,note_off,44,0,64,320
4040,1176.666667,note_on,38,2457,64,0
4041,1176.666667,pitchwheel,38,2457,64,0
4042,1176.666667,note_off,38,2457,64,320
4043,1177.333334,note_on,35,3276,64,0
4044,1177.333334,pitchwheel,35,3276,64,0
4045,1177.333334,note_off,35,3276,64,320
4046,1178.666667,note_on,39,819,64,0
4047,1178.666667,pitchwheel,39,819,64,0
4048,1178.666667,note_off,39,819,64,320
4049,1180.0,note_on,35,2047,64,0
4050,1180.0,pitchwheel,35,2047,64,0
4051,1180.0,note_off,35,2047,64,320
4052,1180.666667,note_on,35,3276,64,0
4053,1180.666667,pitchwheel,35,3276,64,0
4054,1180.666667,note_off,35,3276,64,320
4055,1181.333334,note_on,34,0,64,0
4056,1181.333334,note_off,34,0,64,320
4057,1182.0,note_on,33,2047,64,0
4058,1182.0,pitchwheel,33,2047,64,0
4059,1182.0,note_off,33,2047,64,320
4060,1182.666667,note_on,33,3276,64,0
4061,1182.666667,pitchwheel,33,3276,64,0
4062,1182.666667,note_off,33,3276,64,320
4063,1183.333334,note_on,40,2457,64,0
4064,1183.333334,pitchwheel,40,2457,64,0
4065,1183.333334,note_off,40,2457,64,320
4066,1184.0,note_on,41,2457,64,0
4067,1184.0,pitchwheel,41,2457,64,0
4068,1184.0,note_off,41,2457,64,320
4069,1184.666667,note_on,45,0,64,0
4070,1184.666667,note_off,45,0,64,320
4071,1186.0,note_on,50,819,64,0
4072,1186.0,pitchwheel,50,819,64,0
4073,1186.0,note_off,50,819,64,320
4074,1186.666667,note_on,51,819,64,0
4075,1186.666667,pitchwheel,51,819,64,0
4076,1186.666667,note_off,51,819,64,320
4077,1188.0,note_on,48,819,64,0
4078,1188.0,pitchwheel,48,819,64,0
4079,1188.0,note_off,48,819,64,320
4080,1188.666667,note_on,45,2047,64,0
4081,1188.666667,pitchwheel,45,2047,64,0
4082,1188.666667,note_off,45,2047,64,320
4083,1189.333334,note_on,46,0,64,0
4084,1189.333334,note_off,46,0,64,320
4085,1190.0,note_on,44,2047,64,0
4086,1190.0,pitchwheel,44,2047,64,0
4087,1190.0,note_off,44,2047,64,320
4088,1190.666667,note_on,43,2866,64,0
4089,1190.666667,pitchwheel,43,2866,64,0
4090,1190.666667,note_off,43,2866,64,320
4091,1191.333334,note_on,40,2457,64,0
4092,1191.333334,pitchwheel,40,2457,64,0
4093,1191.333334,note_off,40,2457,64,320
4094,1192.0,note_on,36,3276,64,0
4095,1192.0,pitchwheel,36,3276,64,0
4096,1192.0,note_off,36,3276,64,320
4097,1192.666667,note_on,38,1228,64,0
4098,1192.666667,pitchwheel,38,1228,64,0
4099,1192.666667,note_off,38,1228,64,320
4100,1193.333334,note_on,36,2047,64,0
4101,1193.333334,pitchwheel,36,2047,64,0
4102,1193.333334,note_off,36,2047,64,320
4103,1194.0,note_on,35,3685,64,0
4104,1194.0,pitchwheel,35,3685,64,0
4105,1194.0,note_off,35,3685,64,640
4106,1195.333334,note_on,38,0,64,0
4107,1195.333334,note_off,38,0,64,320
4108,1196.0,note_on,33,0,64,0
4109,1196.0,note_off,33,0,64,320
4110,1196.666667,note_on,31,0,64,0
4111,1196.666667,note_off,31,0,64,320
4112,1197.333334,note_on,34,1638,64,0
4113,1197.333334,pitchwheel,34,1638,64,0
4114,1197.333334,note_off,34,1638,64,320
4115,1198.0,note_on,40,2866,64,0
4116,1198.0,pitchwheel,40,2866,64,0
4117,1198.0,note_off,40,2866,64,320
4118,1198.666667,note_on,43,0,64,0
4119,1198.666667,note_off,43,0,64,320
4120,1200.0,note_on,43,0,64,0
4121,1200.0,note_off,43,0,64,320
4122,1200.666667,note_on,41,0,64,0
4123,1200.666667,note_off,41,0,64,320
4124,1202.0,note_on,45,1638,64,0
4125,1202.0,pitchwheel,45,1638,64,0
4126,1202.0,note_off,45,1638,64,320
4127,1202.666667,note_on,44,0,64,0
4128,1202.666667,note_off,44,0,64,320
4129,1203.333334,note_on,48,2047,64,0
4130,1203.333334,pitchwheel,48,2047,64,0
4131,1203.333334,note_off,48,2047,64,320
4132,1204.0,note_on,46,409,64,0
4133,1204.0,pitchwheel,46,409,64,0
4134,1204.0,note_off,46,409,64,320
4135,1205.333334,note_on,43,409,64,0
4136,1205.333334,pitchwheel,43,409,64,0
4137,1205.333334,note_off,43,409,64,320
4138,1206.666667,note_on,44,2047,64,0
4139,1206.666667,pitchwheel,44,2047,64,0
4140,1206.666667,note_off,44,2047,64,320
4141,1207.333334,note_on,47,3276,64,0
4142,1207.333334,pitchwheel,47,3276,64,0
4143,1207.333334,note_off,47,3276,64,320
4144,1208.0,note_on,46,1638,64,0
4145,1208.0,pitchwheel,46,1638,64,0
4146,1208.0,note_off,46,1638,64,320
4147,1208.666667,note_on,48,819,64,0
4148,1208.666667,pitchwheel,48,819,64,0
4149,1208.666667,note_off,48,819,64,320
4150,1209.333334,note_on,47,3685,64,0
4151,1209.333334,pitchwheel,47,3685,64,0
4152,1209.333334,note_off,47,3685,64,320
4153,1210.0,note_on,45,1638,64,0
4154,1210.0,pitchwheel,45,1638,64,0
4155,1210.0,note_off,45,1638,64,320
4156,1210.666667,note_on,45,2047,64,0
4157,1210.666667,pitchwheel,45,2047,64,0
4158,1210.666667,note_off,45,2047,64,320
4159,1211.333334,note_on,45,0,64,0
4160,1211.333334,note_off,45,0,64,320
4161,1212.0,note_on,50,3685,64,0
4162,1212.0,pitchwheel,50,3685,64,0
4163,1212.0,note_off,50,3685,64,320
4164,1212.666667,note_on,50,819,64,0
4165,1212.666667,pitchwheel,50,819,64,0
4166,1212.666667,note_off,50,819,64,320
4167,1213.333334,note_on,48,3276,64,0
4168,1213.333334,pitchwheel,48,3276,64,0
4169,1213.333334,note_off,48,3276,64,320
4170,1214.666667,note_on,48,2047,64,0
4171,1214.666667,pitchwheel,48,2047,64,0
4172,1214.666667,note_off,48,2047,64,320
4173,1215.333334,note_on,47,2457,64,0
4174,1215.333334,pitchwheel,47,2457,64,0
4175,1215.333334,note_off,47,2457,64,320
4176,1216.0,note_on,45,2047,64,0
4177,1216.0,pitchwheel,45,2047,64,0
4178,1216.0,note_off,45,2047,64,320
4179,1216.666667,note_on,40,0,64,0
4180,1216.666667,note_off,40,0,64,320
4181,1217.333334,note_on,38,2457,64,0
4182,1217.333334,pitchwheel,38,2457,64,0
4183,1217.333334,note_off,38,2457,64,320
4184,1218.0,note_on,40,2457,64,0
4185,1218.0,pitchwheel,40,2457,64,0
4186,1218.0,note_off,40,2457,64,320
4187,1218.666667,note_on,39,819,64,0
4188,1218.666667,pitchwheel,39,819,64,0
4189,1218.666667,note_off,39,819,64,320
4190,1219.333334,note_on,43,1638,64,0
4191,1219.333334,pitchwheel,43,1638,64,0
4192,1219.333334,note_off,43,1638,64,320
4193,1220.0,note_on,46,0,64,0
4194,1220.0,note_off,46,0,64,320
4195,1220.666667,note_on,50,0,64,0
4196,1220.666667,note_off,50,0,64,320
4197,1221.333334,note_on,48,3276,64,0
4198,1221.333334,pitchwheel,48,3276,64,0
4199,1221.333334,note_off,48,3276,64,320
4200,1222.0,note_on,50,2457,64,0
4201,1222.0,pitchwheel,50,2457,64,0
4202,1222.0,note_off,50,2457,64,320
4203,1222.666667,note_on,48,2047,64,0
4204,1222.666667,pitchwheel,48,2047,64,0
4205,1222.666667,note_off,48,2047,64,320
4206,1223.333334,note_on,43,0,64,0
4207,1223.333334,note_off,43,0,64,320
4208,1224.0,note_on,48,819,64,0
4209,1224.0,pitchwheel,48,819,64,0
4210,1224.0,note_off,48,819,64,320
4211,1224.666667,note_on,53,0,64,0
4212,1224.666667,note_off,53,0,64,320
4213,1225.333334,note_on,52,2866,64,0
4214,1225.333334,pitchwheel,52,2866,64,0
4215,1225.333334,note_off,52,2866,64,320
4216,1226.666667,note_on,49,0,64,0
4217,1226.666667,note_off,49,0,64,320
4218,1227.333334,note_on,53,0,64,0
4219,1227.333334,note_off,53,0,64,320
4220,1228.0,note_on,50,2457,64,0
4221,1228.0,pitchwheel,50,2457,64,0
4222,1228.0,note_off,50,2457,64,320
4223,1228.666667,note_on,50,819,64,0
4224,1228.666667,pitchwheel,50,819,64,0
4225,1228.666667,note_off,50,819,64,320
4226,1229.333334,note_on,53,2457,64,0
4227,1229.333334,pitchwheel,53,2457,64,0
4228,1229.333334,note_off,53,2457,64,320
4229,1230.666667,note_on,47,3276,64,0
4230,1230.666667,pitchwheel,47,3276,64,0
4231,1230.666667,note_off,47,3276,64,320
4232,1232.0,note_on,48,3276,64,0
4233,1232.0,pitchwheel,48,3276,64,0
4234,1232.0,note_off,48,3276,64,320
4235,1233.333334,note_on,47,2047,64,0
4236,1233.333334,pitchwheel,47,2047,64,0
4237,1233.333334,note_off,47,2047,64,320
4238,1234.0,note_on,52,2457,64,0
4239,1234.0,pitchwheel,52,2457,64,0
4240,1234.0,note_off,52,2457,64,320
4241,1234.666667,note_on,51,819,64,0
4242,1234.666667,pitchwheel,51,819,64,0
4243,1234.666667,note_off,51,819,64,320
4244,1235.333334,note_on,48,819,64,0
4245,1235.333334,pitchwheel,48,819,64,0
4246,1235.333334,note_off,48,819,64,320
4247,1236.0,note_on,47,3685,64,0
4248,1236.0,pitchwheel,47,3685,64,0
4249,1236.0,note_off,47,3685,64,320
4250,1236.666667,note_on,43,0,64,0
4251,1236.666667,note_off,43,0,64,320
4252,1237.333334,note_on,45,2047,64,0
4253,1237.333334,pitchwheel,45,2047,64,0
4254,1237.333334,note_off,45,2047,64,320
4255,1238.0,note_on,45,0,64,0
4256,1238.0,note_off,45,0,64,320
4257,1239.333334,note_on,43,0,64,0
4258,1239.333334,note_off,43,0,64,320
4259,1240.0,note_on,41,0,64,0
4260,1240.0,note_off,41,0,64,320
4261,1241.333334,note_on,45,2047,64,0
4262,1241.333334,pitchwheel,45,2047,64,0
4263,1241.333334,note_off,45,2047,64,320
4264,1242.0,note_on,47,2457,64,0
4265,1242.0,pitchwheel,47,2457,64,0
4266,1242.0,note_off,47,2457,64,320
4267,1242.666667,note_on,50,2457,64,0
4268,1242.666667,pitchwheel,50,2457,64,0
4269,1242.666667,note_off,50,2457,64,320
4270,1243.333334,note_on,52,2866,64,0
4271,1243.333334,pitchwheel,52,2866,64,0
4272,1243.333334,note_off,52,2866,64,320
4273,1244.0,note_on,55,2866,64,0
4274,1244.0,pitchwheel,55,2866,64,0
4275,1244.0,note_off,55,2866,64,320
4276,1244.666667,note_on,57,1638,64,0
4277,1244.666667,pitchwheel,57,1638,64,0
4278,1244.666667,note_off,57,1638,64,320
4279,1245.333334,note_on,58,1638,64,0
4280,1245.333334,pitchwheel,58,1638,64,0
4281,1245.333334,note_off,58,1638,64,320
4282,1246.0,note_on,55,1638,64,0
4283,1246.0,pitchwheel,55,1638,64,0
4284,1246.0,note_off,55,1638,64,320
4285,1246.666667,note_on,53,0,64,0
4286,1246.666667,note_off,53,0,64,320
4287,1247.333334,note_on,50,0,64,0
4288,1247.333334,note_off,50,0,64,320
4289,1248.0,note_on,47,2457,64,0
4290,1248.0,pitchwheel,47,2457,64,0
4291,1248.0,note_off,47,2457,64,320
4292,1248.666667,note_on,50,2457,64,0
4293,1248.666667,pitchwheel,50,2457,64,0
4294,1248.666667,note_off,50,2457,64,320
4295,1249.333334,note_on,45,0,64,0
4296,1249.333334,note_off,45,0,64,320
4297,1250.0,note_on,47,3276,64,0
4298,1250.0,pitchwheel,47,3276,64,0
4299,1250.0,note_off,47,3276,64,320
4300,1250.666667,note_on,45,2047,64,0
4301,1250.666667,pitchwheel,45,2047,64,0
4302,1250.666667,note_off,45,2047,64,320
4303,1251.333334,note_on,41,0,64,0
4304,1251.333334,note_off,41,0,64,320
4305,1252.0,note_on,40,2457,64,0
4306,1252.0,pitchwheel,40,2457,64,0
4307,1252.0,note_off,40,2457,64,320
4308,1253.333334,note_on,40,2457,64,0
4309,1253.333334,pitchwheel,40,2457,64,0
4310,1253.333334,note_off,40,2457,64,320
4311,1254.0,note_on,36,2047,64,0
4312,1254.0,pitchwheel,36,2047,64,0
4313,1254.0,note_off,36,2047,64,320
4314,1255.333334,note_on,35,3276,64,0
4315,1255.333334,pitchwheel,35,3276,64,0
4316,1255.333334,note_off,35,3276,64,320
4317,1256.0,note_on,39,819,64,0
4318,1256.0,pitchwheel,39,819,64,0
4319,1256.0,note_off,39,819,64,320
4320,1256.666667,note_on,45,0,64,0
4321,1256.666667,note_off,45,0,64,320
4322,1257.333334,note_on,45,2047,64,0
4323,1257.333334,pitchwheel,45,2047,64,0
4324,1257.333334,note_off,45,2047,64,320
4325,1258.666667,note_on,47,3685,64,0
4326,1258.666667,pitchwheel,47,3685,64,0
4327,1258.666667,note_off,47,3685,64,320
4328,1260.0,note_on,45,3276,64,0
4329,1260.0,pitchwheel,45,3276,64,0
4330,1260.0,note_off,45,3276,64,320
4331,1260.666667,note_on,50,819,64,0
4332,1260.666667,pitchwheel,50,819,64,0
4333,1260.666667,note_off,50,819,64,320
4334,1261.333334,note_on,50,3685,64,0
4335,1261.333334,pitchwheel,50,3685,64,0
4336,1261.333334,note_off,50,3685,64,320
4337,1262.0,note_on,45,3276,64,0
4338,1262.0,pitchwheel,45,3276,64,0
4339,1262.0,note_off,45,3276,64,320
4340,1262.666667,note_on,45,2047,64,0
4341,1262.666667,pitchwheel,45,2047,64,0
4342,1262.666667,note_off,45,2047,64,320
4343,1263.333334,note_on,40,2457,64,0
4344,1263.333334,pitchwheel,40,2457,64,0
4345,1263.333334,note_off,40,2457,64,320
4346,1264.0,note_on,36,819,64,0
4347,1264.0,pitchwheel,36,819,64,0
4348,1264.0,note_off,36,819,64,320
4349,1264.666667,note_on,33,0,64,0
4350,1264.666667,note_off,33,0,64,320
4351,1265.333334,note_on,38,3685,64,0
4352,1265.333334,pitchwheel,38,3685,64,0
4353,1265.333334,note_off,38,3685,64,320
4354,1266.0,note_on,40,2457,64,0
4355,1266.0,pitchwheel,40,2457,64,0
4356,1266.0,note_off,40,2457,64,320
4357,1266.666667,note_on,36,3276,64,0
4358,1266.666667,pitchwheel,36,3276,64,0
4359,1266.666667,note_off,36,3276,64,320
4360,1268.0,note_on,31,409,64,0
4361,1268.0,pitchwheel,31,409,64,0
4362,1268.0,note_off,31,409,64,320
4363,1268.666667,note_on,31,1638,64,0
4364,1268.666667,pitchwheel,31,1638,64,0
4365,1268.666667,note_off,31,1638,64,320
4366,1269.333334,note_on,32,0,64,0
4367,1269.333334,note_off,32,0,64,320
4368,1270.0,note_on,35,2047,64,0
4369,1270.0,pitchwheel,35,2047,64,0
4370,1270.0,note_off,35,2047,64,320
4371,1270.666667,note_on,41,0,64,0
4372,1270.666667,note_off,41,0,64,320
4373,1271.333334,note_on,43,0,64,0
4374,1271.333334,note_off,43,0,64,320
4375,1272.0,note_on,46,1638,64,0
4376,1272.0,pitchwheel,46,1638,64,0
4377,1272.0,note_off,46,1638,64,320
4378,1272.666667,note_on,41,0,64,0
4379,1272.666667,note_off,41,0,64,320
4380,1273.333334,note_on,43,1638,64,0
4381,1273.333334,pitchwheel,43,1638,64,0
4382,1273.333334,note_off,43,1638,64,320
4383,1274.0,note_on,41,0,64,0
4384,1274.0,note_off,41,0,64,320
4385,1274.666667,note_on,46,1638,64,0
4386,1274.666667,pitchwheel,46,1638,64,0
4387,1274.666667,note_off,46,1638,64,320
4388,1275.333334,note_on,50,3685,64,0
4389,1275.333334,pitchwheel,50,3685,64,0
4390,1275.333334,note_off,50,3685,64,320
4391,1276.0,note_on,48,2047,64,0
4392,1276.0,pitchwheel,48,2047,64,0
4393,1276.0,note_off,48,2047,64,320
4394,1276.666667,note_on,45,1638,64,0
4395,1276.666667,pitchwheel,45,1638,64,0
4396,1276.666667,note_off,45,1638,64,320
4397,1277.333334,note_on,48,819,64,0
4398,1277.333334,pitchwheel,48,819,64,0
4399,1277.333334,note_off,48,819,64,320
4400,1278.0,note_on,50,2457,64,0
4401,1278.0,pitchwheel,50,2457,64,0
4402,1278.0,note_off,50,2457,64,320
4403,1278.666667,note_on,50,1228,64,0
4404,1278.666667,pitchwheel,50,1228,64,0
4405,1278.666667,note_off,50,1228,64,320
4406,1280.0,note_on,45,2047,64,0
4407,1280.0,pitchwheel,45,2047,64,0
4408,1280.0,note_off,45,2047,64,320
4409,1280.666667,note_on,41,0,64,0
4410,1280.666667,note_off,41,0,64,320
4411,1281.333334,note_on,40,1638,64,0
4412,1281.333334,pitchwheel,40,1638,64,0
4413,1281.333334,note_off,40,1638,64,320
4414,1282.0,note_on,43,0,64,0
4415,1282.0,note_off,43,0,64,320
4416,1282.666667,note_on,41,0,64,0
4417,1282.666667,note_off,41,0,64,320
4418,1283.333334,note_on,37,0,64,0
4419,1283.333334,note_off,37,0,64,320
4420,1284.0,note_on,34,0,64,0
4421,1284.0,note_off,34,0,64,320
4422,1285.333334,note_on,32,0,64,0
4423,1285.333334,note_off,32,0,64,320
4424,1286.666667,note_on,37,0,64,0
4425,1286.666667,note_off,37,0,64,320
4426,1287.333334,note_on,40,2457,64,0
4427,1287.333334,pitchwheel,40,2457,64,0
4428,1287.333334,note_off,40,2457,64,320
4429,1288.0,note_on,39,819,64,0
4430,1288.0,pitchwheel,39,819,64,0
4431,1288.0,note_off,39,819,64,320
4432,1288.666667,note_on,33,3276,64,0
4433,1288.666667,pitchwheel,33,3276,64,0
4434,1288.666667,note_off,33,3276,64,320
4435,1289.333334,note_on,34,409,64,0
4436,1289.333334,pitchwheel,34,409,64,0
4437,1289.333334,note_off,34,409,64,320
4438,1290.0,note_on,38,819,64,0
4439,1290.0,pitchwheel,38,819,64,0
4440,1290.0,note_off,38,819,64,320
4441,1290.666667,note_on,39,819,64,0
4442,1290.666667,pitchwheel,39,819,64,0
4443,1290.666667,note_off,39,819,64,320
4444,1291.333334,note_on,45,0,64,0
4445,1291.333334,note_off,45,0,64,320
4446,1292.666667,note_on,50,819,64,0
4447,1292.666667,pitchwheel,50,819,64,0
4448,1292.666667,note_off,50,819,64,320
4449,1293.333334,note_on,47,2047,64,0
4450,1293.333334,pitchwheel,47,2047,64,0
4451,1293.333334,note_off,47,2047,64,320
4452,1294.666667,note_on,47,3276,64,0
4453,1294.666667,pitchwheel,47,3276,64,0
4454,1294.666667,note_off,47,3276,64,320
4455,1295.333334,note_on,46,409,64,0
4456,1295.333334,pitchwheel,46,409,64,0
4457,1295.333334,note_off,46,409,64,320
4458,1296.0,note_on,46,0,64,0
4459,1296.0,note_off,46,0,64,320
4460,1296.666667,note_on,45,2047,64,0
4461,1296.666667,pitchwheel,45,2047,64,0
4462,1296.666667,note_off,45,2047,64,640
4463,1298.0,note_on,47,3276,64,0
4464,1298.0,pitchwheel,47,3276,64,0
4465,1298.0,note_off,47,3276,64,320
4466,1298.666667,note_on,45,3276,64,0
4467,1298.666667,pitchwheel,45,3276,64,0
4468,1298.666667,note_off,45,3276,64,320
4469,1299.333334,note_on,50,2457,64,0
4470,1299.333334,pitchwheel,50,2457,64,0
4471,1299.333334,note_off,50,2457,64,320
4472,1300.0,note_on,52,2457,64,0
4473,1300.0,pitchwheel,52,2457,64,0
4474,1300.0,note_off,52,2457,64,320
4475,1300.666667,note_on,48,2047,64,0
4476,1300.666667,pitchwheel,48,2047,64,0
4477,1300.666667,note_off,48,2047,64,320
4478,1301.333334,note_on,53,2457,64,0
4479,1301.333334,pitchwheel,53,2457,64,0
4480,1301.333334,note_off,53,2457,64,320
4481,1302.0,note_on,50,2457,64,0
4482,1302.0,pitchwheel,50,2457,64,0
4483,1302.0,note_off,50,2457,64,320
4484,1302.666667,note_on,45,0,64,0
4485,1302.666667,note_off,45,0,64,320
4486,1303.333334,note_on,45,1638,64,0
4487,1303.333334,pitchwheel,45,1638,64,0
4488,1303.333334,note_off,45,1638,64,320
4489,1304.0,note_on,46,1638,64,0
4490,1304.0,pitchwheel,46,1638,64,0
4491,1304.0,note_off,46,1638,64,320
4492,1304.666667,note_on,41,0,64,0
4493,1304.666667,note_off,41,0,64,320
4494,1305.333334,note_on,41,1228,64,0
4495,1305.333334,pitchwheel,41,1228,64,0
4496,1305.333334,note_off,41,1228,64,320
4497,1306.666667,note_on,40,0,64,0
4498,1306.666667,note_off,40,0,64,320
4499,1307.333334,note_on,38,2457,64,0
4500,1307.333334,pitchwheel,38,2457,64,0
4501,1307.333334,note_off,38,2457,64,320
4502,1308.666667,note_on,33,1638,64,0
4503,1308.666667,pitchwheel,33,1638,64,0
4504,1308.666667,note_off,33,1638,64,640
4505,1310.0,note_on,38,3685,64,0
4506,1310.0,pitchwheel,38,3685,64,0
4507,1310.0,note_off,38,3685,64,320
4508,1310.666667,note_on,34,0,64,0
4509,1310.666667,note_off,34,0,64,320
4510,1312.0,note_on,34,0,64,0
4511,1312.0,note_off,34,0,64,320
4512,1313.333334,note_on,32,2047,64,0
4513,1313.333334,pitchwheel,32,2047,64,0
4514,1313.333334,note_off,32,2047,64,320
4515,1314.0,note_on,31,0,64,0
4516,1314.0,note_off,31,0,64,320
4517,1314.666667,note_on,31,2866,64,0
4518,1314.666667,pitchwheel,31,2866,64,0
4519,1314.666667,note_off,31,2866,64,320
4520,1315.333334,note_on,38,1228,64,0
4521,1315.333334,pitchwheel,38,1228,64,0
4522,1315.333334,note_off,38,1228,64,320
4523,1316.0,note_on,38,2457,64,0
4524,1316.0,pitchwheel,38,2457,64,0
4525,1316.0,note_off,38,2457,64,320
4526,1316.666667,note_on,35,3276,64,0
4527,1316.666667,pitchwheel,35,3276,64,0
4528,1316.666667,note_off,35,3276,64,320
4529,1317.333334,note_on,35,2457,64,0
4530,1317.333334,pitchwheel,35,2457,64,0
4531,1317.333334,note_off,35,2457,64,320
4532,1318.0,note_on,33,0,64,0
4533,1318.0,note_off,33,0,64,320
4534,1318.666667,note_on,38,1228,64,0
4535,1318.666667,pitchwheel,38,1228,64,0
4536,1318.666667,note_off,38,1228,64,320
4537,1319.333334,note_on,40,2457,64,0
4538,1319.333334,pitchwheel,40,2457,64,0
4539,1319.333334,note_off,40,2457,64,320
4540,1320.0,note_on,39,819,64,0
4541,1320.0,pitchwheel,39,819,64,0
4542,1320.0,note_off,39,819,64,320
4543,1321.333334,note_on,35,3685,64,0
4544,1321.333334,pitchwheel,35,3685,64,0
4545,1321.333334,note_off,35,3685,64,320
4546,1322.0,note_on,33,2047,64,0
4547,1322.0,pitchwheel,33,2047,64,0
4548,1322.0,note_off,33,2047,64,320
4549,1322.666667,note_on,32,0,64,0
4550,1322.666667,note_off,32,0,64,320
4551,1323.333334,note_on,35,3685,64,0
4552,1323.333334,pitchwheel,35,3685,64,0
4553,1323.333334,note_off,35,3685,64,320
4554,1324.0,note_on,38,0,64,0
4555,1324.0,note_off,38,0,64,320
4556,1324.666667,note_on,38,819,64,0
4557,1324.666667,pitchwheel,38,819,64,0
4558,1324.666667,note_off,38,819,64,320
4559,1325.333334,note_on,36,3276,64,0
4560,1325.333334,pitchwheel,36,3276,64,0
4561,1325.333334,note_off,36,3276,64,320
4562,1326.0,note_on,31,409,64,0
4563,1326.0,pitchwheel,31,409,64,0
4564,1326.0,note_off,31,409,64,320
4565,1326.666667,note_on,31,0,64,0
4566,1326.666667,note_off,31,0,64,320
4567,1327.333334,note_on,31,409,64,0
4568,1327.333334,pitchwheel,31,409,64,0
4569,1327.333334,note_off,31,409,64,320
4570,1328.0,note_on,34,1638,64,0
4571,1328.0,pitchwheel,34,1638,64,0
4572,1328.0,note_off,34,1638,64,320
4573,1328.666667,note_on,29,0,64,0
4574,1328.666667,note_off,29,0,64,320
4575,1329.333334,note_on,40,2866,64,0
4576,1329.333334,pitchwheel,40,2866,64,0
4577,1329.333334,note_off,40,2866,64,320
4578,1330.0,note_on,35,3276,64,0
4579,1330.0,pitchwheel,35,3276,64,0
4580,1330.0,note_off,35,3276,64,320
4581,1330.666667,note_on,34,1638,64,0
4582,1330.666667,pitchwheel,34,1638,64,0
4583,1330.666667,note_off,34,1638,64,320
4584,1331.333334,note_on,33,2047,64,0
4585,1331.333334,pitchwheel,33,2047,64,0
4586,1331.333334,note_off,33,2047,64,320
4587,1332.0,note_on,33,3276,64,0
4588,1332.0,pitchwheel,33,3276,64,0
4589,1332.0,note_off,33,3276,64,320
4590,1333.333334,note_on,32,2047,64,0
4591,1333.333334,pitchwheel,32,2047,64,0
4592,1333.333334,note_off,32,2047,64,320
4593,1334.0,note_on,40,1638,64,0
4594,1334.0,pitchwheel,40,1638,64,0
4595,1334.0,note_off,40,1638,64,320
4596,1334.666667,note_on,41,0,64,0
4597,1334.666667,note_off,41,0,64,320
4598,1335.333334,note_on,45,1638,64,0
4599,1335.333334,pitchwheel,45,1638,64,0
4600,1335.333334,note_off,45,1638,64,320
4601,1336.0,note_on,44,0,64,0
4602,1336.0,note_off,44,0,64,320
4603,1336.666667,note_on,41,0,64,0
4604,1336.666667,note_off,41,0,64,320
4605,1337.333334,note_on,45,1638,64,0
4606,1337.333334,pitchwheel,45,1638,64,0
4607,1337.333334,note_off,45,1638,64,320
4608,1338.666667,note_on,44,0,64,0
4609,1338.666667,note_off,44,0,64,320
4610,1340.0,note_on,40,0,64,0
4611,1340.0,note_off,40,0,64,320
4612,1340.666667,note_on,43,0,64,0
4613,1340.666667,note_off,43,0,64,320
4614,1341.333334,note_on,46,0,64,0
4615,1341.333334,note_off,46,0,64,320
4616,1342.0,note_on,41,1228,64,0
4617,1342.0,pitchwheel,41,1228,64,0
4618,1342.0,note_off,41,1228,64,320
4619,1342.666667,note_on,41,0,64,0
4620,1342.666667,note_off,41,0,64,320
4621,1343.333334,note_on,35,3276,64,0
4622,1343.333334,pitchwheel,35,3276,64,0
4623,1343.333334,note_off,35,3276,64,320
4624,1344.0,note_on,39,819,64,0
4625,1344.0,pitchwheel,39,819,64,0
4626,1344.0,note_off,39,819,64,320
4627,1344.666667,note_on,45,0,64,0
4628,1344.666667,note_off,45,0,64,320
4629,1346.0,note_on,40,2457,64,0
4630,1346.0,pitchwheel,40,2457,64,0
4631,1346.0,note_off,40,2457,64,320
4632,1346.666667,note_on,39,819,64,0
4633,1346.666667,pitchwheel,39,819,64,0
4634,1346.666667,note_off,39,819,64,320
4635,1348.0,note_on,38,2457,64,0
4636,1348.0,pitchwheel,38,2457,64,0
4637,1348.0,note_off,38,2457,64,320
4638,1348.666667,note_on,33,2047,64,0
4639,1348.666667,pitchwheel,33,2047,64,0
4640,1348.666667,note_off,33,2047,64,320
4641,1349.333334,note_on,34,1638,64,0
4642,1349.333334,pitchwheel,34,1638,64,0
4643,1349.333334,note_off,34,1638,64,320
4644,1350.0,note_on,32,2047,64,0
4645,1350.0,pitchwheel,32,2047,64,0
4646,1350.0,note_off,32,2047,64,320
4647,1350.666667,note_on,36,819,64,0
4648,1350.666667,pitchwheel,36,819,64,0
4649,1350.666667,note_off,36,819,64,320
4650,1351.333334,note_on,38,819,64,0
4651,1351.333334,pitchwheel,38,819,64,0
4652,1351.333334,note_off,38,819,64,320
4653,1352.0,note_on,39,819,64,0
4654,1352.0,pitchwheel,39,819,64,0
4655,1352.0,note_off,39,819,64,320
4656,1352.666667,note_on,36,2047,64,0
4657,1352.666667,pitchwheel,36,2047,64,0
4658,1352.666667,note_off,36,2047,64,320
4659,1353.333334,note_on,34,0,64,0
4660,1353.333334,note_off,34,0,64,320
4661,1354.0,note_on,35,3685,64,0
4662,1354.0,pitchwheel,35,3685,64,0
4663,1354.0,note_off,35,3685,64,320
4664,1354.666667,note_on,34,1638,64,0
4665,1354.666667,pitchwheel,34,1638,64,0
4666,1354.666667,note_off,34,1638,64,320
4667,1355.333334,note_on,38,0,64,0
4668,1355.333334,note_off,38,0,64,320
4669,1356.0,note_on,33,0,64,0
4670,1356.0,note_off,33,0,64,320
4671,1356.666667,note_on,35,3276,64,0
4672,1356.666667,pitchwheel,35,3276,64,0
4673,1356.666667,note_off,35,3276,64,320
4674,1357.333334,note_on,38,3685,64,0
4675,1357.333334,pitchwheel,38,3685,64,0
4676,1357.333334,note_off,38,3685,64,320
4677,1358.0,note_on,34,409,64,0
4678,1358.0,pitchwheel,34,409,64,0
4679,1358.0,note_off,34,409,64,320
4680,1358.666667,note_on,33,3276,64,0
4681,1358.666667,pitchwheel,33,3276,64,0
4682,1358.666667,note_off,33,3276,64,320
4683,1360.0,note_on,33,1638,64,0
4684,1360.0,pitchwheel,33,1638,64,0
4685,1360.0,note_off,33,1638,64,320
4686,1360.666667,note_on,29,0,64,0
4687,1360.666667,note_off,29,0,64,320
4688,1362.0,note_on,38,819,64,0
4689,1362.0,pitchwheel,38,819,64,0
4690,1362.0,note_off,38,819,64,320
4691,1362.666667,note_on,36,2047,64,0
4692,1362.666667,pitchwheel,36,2047,64,0
4693,1362.666667,note_off,36,2047,64,320
4694,1364.0,note_on,35,2457,64,0
4695,1364.0,pitchwheel,35,2457,64,0
4696,1364.0,note_off,35,2457,64,320
4697,1365.333334,note_on,33,2047,64,0
4698,1365.333334,pitchwheel,33,2047,64,0
4699,1365.333334,note_off,33,2047,64,320
4700,1366.666667,note_on,28,0,64,0
4701,1366.666667,note_off,28,0,64,320
4702,1367.333334,note_on,35,3276,64,0
4703,1367.333334,pitchwheel,35,3276,64,0
4704,1367.333334,note_off,35,3276,64,320
4705,1368.0,note_on,38,2457,64,0
4706,1368.0,pitchwheel,38,2457,64,0
4707,1368.0,note_off,38,2457,64,320
4708,1368.666667,note_on,38,1228,64,0
4709,1368.666667,pitchwheel,38,1228,64,0
4710,1368.666667,note_off,38,1228,64,320
4711,1369.333334,note_on,38,2457,64,0
4712,1369.333334,pitchwheel,38,2457,64,0
4713,1369.333334,note_off,38,2457,64,320
4714,1370.0,note_on,33,1638,64,0
4715,1370.0,pitchwheel,33,1638,64,0
4716,1370.0,note_off,33,1638,64,320
4717,1370.666667,note_on,33,2047,64,0
4718,1370.666667,pitchwheel,33,2047,64,0
4719,1370.666667,note_off,33,2047,64,320
4720,1371.333334,note_on,33,0,64,0
4721,1371.333334,note_off,33,0,64,320
4722,1372.0,note_on,31,1638,64,0
4723,1372.0,pitchwheel,31,1638,64,0
4724,1372.0,note_off,31,1638,64,320
4725,1372.666667,note_on,33,1638,64,0
4726,1372.666667,pitchwheel,33,1638,64,0
4727,1372.666667,note_off,33,1638,64,320
4728,1373.333334,note_on,34,0,64,0
4729,1373.333334,note_off,34,0,64,320
4730,1374.666667,note_on,38,0,64,0
4731,1374.666667,note_off,38,0,64,320
4732,1375.333334,note_on,35,2457,64,0
4733,1375.333334,pitchwheel,35,2457,64,0
4734,1375.333334,note_off,35,2457,64,320
4735,1376.0,note_on,36,3276,64,0
4736,1376.0,pitchwheel,36,3276,64,0
4737,1376.0,note_off,36,3276,64,320
4738,1376.666667,note_on,31,2866,64,0
4739,1376.666667,pitchwheel,31,2866,64,0
4740,1376.666667,note_off,31,2866,64,320
4741,1377.333334,note_on,38,2457,64,0
4742,1377.333334,pitchwheel,38,2457,64,0
4743,1377.333334,note_off,38,2457,64,320
4744,1378.0,note_on,43,0,64,0
4745,1378.0,note_off,43,0,64,320
4746,1378.666667,note_on,46,1638,64,0
4747,1378.666667,pitchwheel,46,1638,64,0
4748,1378.666667,note_off,46,1638,64,320
4749,1379.333334,note_on,43,409,64,0
4750,1379.333334,pitchwheel,43,409,64,0
4751,1379.333334,note_off,43,409,64,320
4752,1380.0,note_on,43,0,64,0
4753,1380.0,note_off,43,0,64,320
4754,1380.666667,note_on,38,0,64,0
4755,1380.666667,note_off,38,0,64,320
4756,1381.333334,note_on,36,819,64,0
4757,1381.333334,pitchwheel,36,819,64,0
4758,1381.333334,note_off,36,819,64,320
4759,1382.0,note_on,38,2457,64,0
4760,1382.0,pitchwheel,38,2457,64,0
4761,1382.0,note_off,38,2457,64,320
4762,1382.666667,note_on,41,0,64,0
4763,1382.666667,note_off,41,0,64,320
4764,1383.333334,note_on,40,2457,64,0
4765,1383.333334,pitchwheel,40,2457,64,0
4766,1383.333334,note_off,40,2457,64,320
4767,1384.0,note_on,40,2866,64,0
4768,1384.0,pitchwheel,40,2866,64,0
4769,1384.0,note_off,40,2866,64,320
4770,1384.666667,note_on,45,2047,64,0
4771,1384.666667,pitchwheel,45,2047,64,0
4772,1384.666667,note_off,45,2047,64,320
4773,1385.333334,note_on,45,3276,64,0
4774,1385.333334,pitchwheel,45,3276,64,0
4775,1385.333334,note_off,45,3276,64,320
4776,1386.666667,note_on,46,1638,64,0
4777,1386.666667,pitchwheel,46,1638,64,0
4778,1386.666667,note_off,46,1638,64,320
4779,1387.333334,note_on,41,0,64,0
4780,1387.333334,note_off,41,0,64,640
4781,1388.666667,note_on,43,0,64,0
4782,1388.666667,note_off,43,0,64,320
4783,1389.333334,note_on,38,2457,64,0
4784,1389.333334,pitchwheel,38,2457,64,0
4785,1389.333334,note_off,38,2457,64,320
4786,1390.0,note_on,33,0,64,0
4787,1390.0,note_off,33,0,64,320
4788,1390.666667,note_on,34,0,64,0
4789,1390.666667,note_off,34,0,64,320
4790,1392.0,note_on,31,409,64,0
4791,1392.0,pitchwheel,31,409,64,0
4792,1392.0,note_off,31,409,64,320
4793,1393.333334,note_on,28,0,64,0
4794,1393.333334,note_off,28,0,64,320
4795,1394.0,note_on,40,2457,64,0
4796,1394.0,pitchwheel,40,2457,64,0
4797,1394.0,note_off,40,2457,64,320
4798,1394.666667,note_on,41,2457,64,0
4799,1394.666667,pitchwheel,41,2457,64,0
4800,1394.666667,note_off,41,2457,64,320
4801,1395.333334,note_on,38,1228,64,0
4802,1395.333334,pitchwheel,38,1228,64,0
4803,1395.333334,note_off,38,1228,64,320
4804,1396.0,note_on,38,2457,64,0
4805,1396.0,pitchwheel,38,2457,64,0
4806,1396.0,note_off,38,2457,64,320
4807,1396.666667,note_on,43,0,64,0
4808,1396.666667,note_off,43,0,64,320
4809,1397.333334,note_on,43,409,64,0
4810,1397.333334,pitchwheel,43,409,64,0
4811,1397.333334,note_off,43,409,64,320
4812,1398.0,note_on,45,0,64,0
4813,1398.0,note_off,45,0,64,320
4814,1399.333334,note_on,50,819,64,0
4815,1399.333334,pitchwheel,50,819,64,0
4816,1399.333334,note_off,50,819,64,320
4817,1400.0,note_on,47,2047,64,0
4818,1400.0,pitchwheel,47,2047,64,0
4819,1400.0,note_off,47,2047,64,320
4820,1401.333334,note_on,52,2457,64,0
4821,1401.333334,pitchwheel,52,2457,64,0
4822,1401.333334,note_off,52,2457,64,320
4823,1402.0,note_on,47,2457,64,0
4824,1402.0,pitchwheel,47,2457,64,0
4825,1402.0,note_off,47,2457,64,320
4826,1402.666667,note_on,46,0,64,0
4827,1402.666667,note_off,46,0,64,320
4828,1403.333334,note_on,49,0,64,0
4829,1403.333334,note_off,49,0,64,320
4830,1404.0,note_on,48,819,64,0
4831,1404.0,pitchwheel,48,819,64,0
4832,1404.0,note_off,48,819,64,320
4833,1404.666667,note_on,47,3276,64,0
4834,1404.666667,pitchwheel,47,3276,64,0
4835,1404.666667,note_off,47,3276,64,320
4836,1405.333334,note_on,47,3685,64,0
4837,1405.333334,pitchwheel,47,3685,64,0
4838,1405.333334,note_off,47,3685,64,320
4839,1406.0,note_on,43,409,64,0
4840,1406.0,pitchwheel,43,409,64,0
4841,1406.0,note_off,43,409,64,320
4842,1406.666667,note_on,43,0,64,0
4843,1406.666667,note_off,43,0,64,320
4844,1407.333334,note_on,38,0,64,0
4845,1407.333334,note_off,38,0,64,640
4846,1408.666667,note_on,38,2457,64,0
4847,1408.666667,pitchwheel,38,2457,64,0
4848,1408.666667,note_off,38,2457,64,320
4849,1409.333334,note_on,33,0,64,0
4850,1409.333334,note_off,33,0,64,320
4851,1410.0,note_on,33,1638,64,0
4852,1410.0,pitchwheel,33,1638,64,0
4853,1410.0,note_off,33,1638,64,320
4854,1410.666667,note_on,36,3276,64,0
4855,1410.666667,pitchwheel,36,3276,64,0
4856,1410.666667,note_off,36,3276,64,320
4857,1411.333334,note_on,33,2047,64,0
4858,1411.333334,pitchwheel,33,2047,64,0
4859,1411.333334,note_off,33,2047,64,320
4860,1412.0,note_on,33,3276,64,0
4861,1412.0,pitchwheel,33,3276,64,0
4862,1412.0,note_off,33,3276,64,320
4863,1413.333334,note_on,32,2047,64,0
4864,1413.333334,pitchwheel,32,2047,64,0
4865,1413.333334,note_off,32,2047,64,320
4866,1414.0,note_on,36,2047,64,0
4867,1414.0,pitchwheel,36,2047,64,0
4868,1414.0,note_off,36,2047,64,320
4869,1415.333334,note_on,40,2457,64,0
4870,1415.333334,pitchwheel,40,2457,64,0
4871,1415.333334,note_off,40,2457,64,320
4872,1416.0,note_on,38,819,64,0
4873,1416.0,pitchwheel,38,819,64,0
4874,1416.0,note_off,38,819,64,320
4875,1416.666667,note_on,35,2047,64,0
4876,1416.666667,pitchwheel,35,2047,64,0
4877,1416.666667,note_off,35,2047,64,320
4878,1417.333334,note_on,35,2457,64,0
4879,1417.333334,pitchwheel,35,2457,64,0
4880,1417.333334,note_off,35,2457,64,320
4881,1418.666667,note_on,35,3685,64,0
4882,1418.666667,pitchwheel,35,3685,64,0
4883,1418.666667,note_off,35,3685,64,320
4884,1420.0,note_on,35,2047,64,0
4885,1420.0,pitchwheel,35,2047,64,0
4886,1420.0,note_off,35,2047,64,320
4887,1420.666667,note_on,38,819,64,0
4888,1420.666667,pitchwheel,38,819,64,0
4889,1420.666667,note_off,38,819,64,320
4890,1421.333334,note_on,39,819,64,0
4891,1421.333334,pitchwheel,39,819,64,0
4892,1421.333334,note_off,39,819,64,320
4893,1422.0,note_on,36,819,64,0
4894,1422.0,pitchwheel,36,819,64,0
4895,1422.0,note_off,36,819,64,320
4896,1422.666667,note_on,36,2047,64,0
4897,1422.666667,pitchwheel,36,2047,64,0
4898,1422.666667,note_off,36,2047,64,320
4899,1423.333334,note_on,40,2457,64,0
4900,1423.333334,pitchwheel,40,2457,64,0
4901,1423.333334,note_off,40,2457,64,320
4902,1424.0,note_on,38,819,64,0
4903,1424.0,pitchwheel,38,819,64,0
4904,1424.0,note_off,38,819,64,320
4905,1424.666667,note_on,33,0,64,0
4906,1424.666667,note_off,33,0,64,320
4907,1425.333334,note_on,31,1638,64,0
4908,1425.333334,pitchwheel,31,1638,64,0
4909,1425.333334,note_off,31,1638,64,320
4910,1426.0,note_on,35,3276,64,0
4911,1426.0,pitchwheel,35,3276,64,0
4912,1426.0,note_off,35,3276,64,320
4913,1426.666667,note_on,34,1638,64,0
4914,1426.666667,pitchwheel,34,1638,64,0
4915,1426.666667,note_off,34,1638,64,320
4916,1428.0,note_on,38,0,64,0
4917,1428.0,note_off,38,0,64,320
4918,1428.666667,note_on,43,1638,64,0
4919,1428.666667,pitchwheel,43,1638,64,0
4920,1428.666667,note_off,43,1638,64,320
4921,1429.333334,note_on,46,1638,64,0
4922,1429.333334,pitchwheel,46,1638,64,0
4923,1429.333334,note_off,46,1638,64,320
4924,1430.0,note_on,50,3685,64,0
4925,1430.0,pitchwheel,50,3685,64,0
4926,1430.0,note_off,50,3685,64,320
4927,1430.666667,note_on,50,2457,64,0
4928,1430.666667,pitchwheel,50,2457,64,0
4929,1430.666667,note_off,50,2457,64,320
4930,1431.333334,note_on,45,1638,64,0
4931,1431.333334,pitchwheel,45,1638,64,0
4932,1431.333334,note_off,45,1638,64,320
4933,1432.0,note_on,45,0,64,0
4934,1432.0,note_off,45,0,64,320
4935,1432.666667,note_on,41,0,64,0
4936,1432.666667,note_off,41,0,64,320
4937,1433.333334,note_on,35,3276,64,0
4938,1433.333334,pitchwheel,35,3276,64,0
4939,1433.333334,note_off,35,3276,64,320
4940,1434.0,note_on,41,0,64,0
4941,1434.0,note_off,41,0,64,320
4942,1434.666667,note_on,44,0,64,0
4943,1434.666667,note_off,44,0,64,320
4944,1435.333334,note_on,38,3685,64,0
4945,1435.333334,pitchwheel,38,3685,64,0
4946,1435.333334,note_off,38,3685,64,320
4947,1436.0,note_on,41,0,64,0
4948,1436.0,note_off,41,0,64,320
4949,1436.666667,note_on,43,0,64,0
4950,1436.666667,note_off,43,0,64,320
4951,1437.333334,note_on,46,1638,64,0
4952,1437.333334,pitchwheel,46,1638,64,0
4953,1437.333334,note_off,46,1638,64,320
4954,1438.0,note_on,43,1638,64,0
4955,1438.0,pitchwheel,43,1638,64,0
4956,1438.0,note_off,43,1638,64,320
4957,1438.666667,note_on,43,2866,64,0
4958,1438.666667,pitchwheel,43,2866,64,0
4959,1438.666667,note_off,43,2866,64,320
4960,1440.0,note_on,45,2047,64,0
4961,1440.0,pitchwheel,45,2047,64,0
4962,1440.0,note_off,45,2047,64,320
4963,1440.666667,note_on,41,0,64,0
4964,1440.666667,note_off,41,0,64,320
4965,1441.333334,note_on,36,2047,64,0
4966,1441.333334,pitchwheel,36,2047,64,0
4967,1441.333334,note_off,36,2047,64,320
4968,1442.0,note_on,38,819,64,0
4969,1442.0,pitchwheel,38,819,64,0
4970,1442.0,note_off,38,819,64,320
4971,1442.666667,note_on,44,0,64,0
4972,1442.666667,note_off,44,0,64,320
4973,1443.333334,note_on,38,2457,64,0
4974,1443.333334,pitchwheel,38,2457,64,0
4975,1443.333334,note_off,38,2457,64,320
4976,1444.0,note_on,35,3276,64,0
4977,1444.0,pitchwheel,35,3276,64,0
4978,1444.0,note_off,35,3276,64,320
4979,1445.333334,note_on,39,819,64,0
4980,1445.333334,pitchwheel,39,819,64,0
4981,1445.333334,note_off,39,819,64,320
4982,1446.666667,note_on,45,0,64,0
4983,1446.666667,note_off,45,0,64,320
4984,1447.333334,note_on,40,2457,64,0
4985,1447.333334,pitchwheel,40,2457,64,0
4986,1447.333334,note_off,40,2457,64,320
4987,1448.0,note_on,41,2457,64,0
4988,1448.0,pitchwheel,41,2457,64,0
4989,1448.0,note_off,41,2457,64,320
4990,1448.666667,note_on,41,0,64,0
4991,1448.666667,note_off,41,0,64,320
4992,1449.333334,note_on,40,2866,64,0
4993,1449.333334,pitchwheel,40,2866,64,0
4994,1449.333334,note_off,40,2866,64,320
4995,1450.0,note_on,38,819,64,0
4996,1450.0,pitchwheel,38,819,64,0
4997,1450.0,note_off,38,819,64,320
4998,1450.666667,note_on,35,3685,64,0
4999,1450.666667,pitchwheel,35,3685,64,0
5000,1450.666667,note_off,35,3685,64,320
5001,1451.333334,note_on,33,0,64,0
5002,1451.333334,note_off,33,0,64,320
5003,1452.666667,note_on,31,0,64,0
5004,1452.666667,note_off,31,0,64,640
5005,1454.666667,note_on,38,819,64,0
5006,1454.666667,pitchwheel,38,819,64,0
5007,1454.666667,note_off,38,819,64,320
5008,1455.333334,note_on,34,409,64,0
5009,1455.333334,pitchwheel,34,409,64,0
5010,1455.333334,note_off,34,409,64,320
5011,1456.0,note_on,38,3685,64,0
5012,1456.0,pitchwheel,38,3685,64,0
5013,1456.0,note_off,38,3685,64,320
5014,1456.666667,note_on,36,2047,64,0
5015,1456.666667,pitchwheel,36,2047,64,0
5016,1456.666667,note_off,36,2047,64,320
5017,1457.333334,note_on,33,3276,64,0
5018,1457.333334,pitchwheel,33,3276,64,0
5019,1457.333334,note_off,33,3276,64,320
5020,1458.0,note_on,33,1638,64,0
5021,1458.0,pitchwheel,33,1638,64,0
5022,1458.0,note_off,33,1638,64,320
5023,1458.666667,note_on,33,2047,64,0
5024,1458.666667,pitchwheel,33,2047,64,0
5025,1458.666667,note_off,33,2047,64,320
5026,1459.333334,note_on,36,819,64,0
5027,1459.333334,pitchwheel,36,819,64,0
5028,1459.333334,note_off,36,819,64,640
5029,1460.666667,note_on,36,2047,64,0
5030,1460.666667,pitchwheel,36,2047,64,0
5031,1460.666667,note_off,36,2047,64,320
5032,1461.333334,note_on,33,2047,64,0
5033,1461.333334,pitchwheel,33,2047,64,0
5034,1461.333334,note_off,33,2047,64,320
5035,1462.0,note_on,38,2457,64,0
5036,1462.0,pitchwheel,38,2457,64,0
5037,1462.0,note_off,38,2457,64,320
5038,1462.666667,note_on,33,0,64,0
5039,1462.666667,note_off,33,0,64,320
5040,1463.333334,note_on,35,3276,64,0
5041,1463.333334,pitchwheel,35,3276,64,0
5042,1463.333334,note_off,35,3276,64,320
5043,1464.0,note_on,34,1638,64,0
5044,1464.0,pitchwheel,34,1638,64,0
5045,1464.0,note_off,34,1638,64,320
5046,1464.666667,note_on,33,3276,64,0
5047,1464.666667,pitchwheel,33,3276,64,0
5048,1464.666667,note_off,33,3276,64,320
5049,1465.333334,note_on,33,2047,64,0
5050,1465.333334,pitchwheel,33,2047,64,0
5051,1465.333334,note_off,33,2047,64,320
5052,1466.666667,note_on,32,0,64,0
5053,1466.666667,note_off,32,0,64,320
5054,1467.333334,note_on,38,2457,64,0
5055,1467.333334,pitchwheel,38,2457,64,0
5056,1467.333334,note_off,38,2457,64,320
5057,1468.666667,note_on,38,819,64,0
5058,1468.666667,pitchwheel,38,819,64,0
5059,1468.666667,note_off,38,819,64,320
5060,1469.333334,note_on,44,0,64,0
5061,1469.333334,note_off,44,0,64,320
5062,1470.0,note_on,38,2457,64,0
5063,1470.0,pitchwheel,38,2457,64,0
5064,1470.0,note_off,38,2457,64,320
5065,1470.666667,note_on,34,0,64,0
5066,1470.666667,note_off,34,0,64,320
5067,1472.0,note_on,32,0,64,0
5068,1472.0,note_off,32,0,64,320
5069,1473.333334,note_on,35,2047,64,0
5070,1473.333334,pitchwheel,35,2047,64,0
5071,1473.333334,note_off,35,2047,64,320
5072,1474.0,note_on,40,2457,64,0
5073,1474.0,pitchwheel,40,2457,64,0
5074,1474.0,note_off,40,2457,64,320
5075,1474.666667,note_on,46,1638,64,0
5076,1474.666667,pitchwheel,46,1638,64,0
5077,1474.666667,note_off,46,1638,64,320
5078,1475.333334,note_on,48,819,64,0
5079,1475.333334,pitchwheel,48,819,64,0
5080,1475.333334,note_off,48,819,64,320
5081,1476.0,note_on,47,3685,64,0
5082,1476.0,pitchwheel,47,3685,64,0
5083,1476.0,note_off,47,3685,64,320
5084,1476.666667,note_on,47,3276,64,0
5085,1476.666667,pitchwheel,47,3276,64,0
5086,1476.666667,note_off,47,3276,64,320
5087,1477.333334,note_on,47,3685,64,0
5088,1477.333334,pitchwheel,47,3685,64,0
5089,1477.333334,note_off,47,3685,64,320
5090,1478.0,note_on,45,0,64,0
5091,1478.0,note_off,45,0,64,320
5092,1478.666667,note_on,41,0,64,0
5093,1478.666667,note_off,41,0,64,320
5094,1479.333334,note_on,43,0,64,0
5095,1479.333334,note_off,43,0,64,320
5096,1480.0,note_on,43,1638,64,0
5097,1480.0,pitchwheel,43,1638,64,0
5098,1480.0,note_off,43,1638,64,320
5099,1481.333334,note_on,45,2047,64,0
5100,1481.333334,pitchwheel,45,2047,64,0
5101,1481.333334,note_off,45,2047,64,640
5102,1482.666667,note_on,46,1638,64,0
5103,1482.666667,pitchwheel,46,1638,64,0
5104,1482.666667,note_off,46,1638,64,320
5105,1483.333334,note_on,44,2047,64,0
5106,1483.333334,pitchwheel,44,2047,64,0
5107,1483.333334,note_off,44,2047,64,320
5108,1484.0,note_on,38,3685,64,0
5109,1484.0,pitchwheel,38,3685,64,0
5110,1484.0,note_off,38,3685,64,320
5111,1484.666667,note_on,33,1638,64,0
5112,1484.666667,pitchwheel,33,1638,64,0
5113,1484.666667,note_off,33,1638,64,320
5114,1485.333334,note_on,36,2047,64,0
5115,1485.333334,pitchwheel,36,2047,64,0
5116,1485.333334,note_off,36,2047,64,320
5117,1486.0,note_on,31,1638,64,0
5118,1486.0,pitchwheel,31,1638,64,0
5119,1486.0,note_off,31,1638,64,640
5120,1487.333334,note_on,31,409,64,0
5121,1487.333334,pitchwheel,31,409,64,0
5122,1487.333334,note_off,31,409,64,320
5123,1488.0,note_on,36,819,64,0
5124,1488.0,pitchwheel,36,819,64,0
5125,1488.0,note_off,36,819,64,320
5126,1488.666667,note_on,41,0,64,0
5127,1488.666667,note_off,41,0,64,320
5128,1489.333334,note_on,38,2457,64,0
5129,1489.333334,pitchwheel,38,2457,64,0
5130,1489.333334,note_off,38,2457,64,320
5131,1490.0,note_on,35,3276,64,0
5132,1490.0,pitchwheel,35,3276,64,0
5133,1490.0,note_off,35,3276,64,320
5134,1490.666667,note_on,38,1228,64,0
5135,1490.666667,pitchwheel,38,1228,64,0
5136,1490.666667,note_off,38,1228,64,320
5137,1491.333334,note_on,41,0,64,0
5138,1491.333334,note_off,41,0,64,320
5139,1492.0,note_on,40,2866,64,0
5140,1492.0,pitchwheel,40,2866,64,0
5141,1492.0,note_off,40,2866,64,320
5142,1493.333334,note_on,38,0,64,0
5143,1493.333334,note_off,38,0,64,320
5144,1494.0,note_on,40,1638,64,0
5145,1494.0,pitchwheel,40,1638,64,0
5146,1494.0,note_off,40,1638,64,320
5147,1494.666667,note_on,41,0,64,0
5148,1494.666667,note_off,41,0,64,320
5149,1495.333334,note_on,43,0,64,0
5150,1495.333334,note_off,43,0,64,320
5151,1496.0,note_on,40,1638,64,0
5152,1496.0,pitchwheel,40,1638,64,0
5153,1496.0,note_off,40,1638,64,320
5154,1497.333334,note_on,46,0,64,0
5155,1497.333334,note_off,46,0,64,320
5156,1498.666667,note_on,48,3276,64,0
5157,1498.666667,pitchwheel,48,3276,64,0
5158,1498.666667,note_off,48,3276,64,320
5159,1500.0,note_on,49,0,64,0
5160,1500.0,note_off,49,0,64,320
5161,1500.666667,note_on,45,1638,64,0
5162,1500.666667,pitchwheel,45,1638,64,0
5163,1500.666667,note_off,45,1638,64,640
5164,1502.0,note_on,48,819,64,0
5165,1502.0,pitchwheel,48,819,64,0
5166,1502.0,note_off,48,819,64,320
5167,1502.666667,note_on,48,2047,64,0
5168,1502.666667,pitchwheel,48,2047,64,0
5169,1502.666667,note_off,48,2047,64,320
5170,1503.333334,note_on,50,819,64,0
5171,1503.333334,pitchwheel,50,819,64,0
5172,1503.333334,note_off,50,819,64,320
5173,1504.0,note_on,56,0,64,0
5174,1504.0,note_off,56,0,64,320
5175,1504.666667,note_on,57,0,64,0
5176,1504.666667,note_off,57,0,64,320
5177,1506.0,note_on,59,3276,64,0
5178,1506.0,pitchwheel,59,3276,64,0
5179,1506.0,note_off,59,3276,64,320
5180,1506.666667,note_on,60,3276,64,0
5181,1506.666667,pitchwheel,60,3276,64,0
5182,1506.666667,note_off,60,3276,64,320
5183,1508.0,note_on,62,3685,64,0
5184,1508.0,pitchwheel,62,3685,64,0
5185,1508.0,note_off,62,3685,64,320
5186,1508.666667,note_on,57,2047,64,0
5187,1508.666667,pitchwheel,57,2047,64,0
5188,1508.666667,note_off,57,2047,64,320
5189,1509.333334,note_on,58,0,64,0
5190,1509.333334,note_off,58,0,64,320
5191,1510.0,note_on,55,2866,64,0
5192,1510.0,pitchwheel,55,2866,64,0
5193,1510.0,note_off,55,2866,64,320
5194,1510.666667,note_on,57,3276,64,0
5195,1510.666667,pitchwheel,57,3276,64,0
5196,1510.666667,note_off,57,3276,64,320
5197,1511.333334,note_on,62,819,64,0
5198,1511.333334,pitchwheel,62,819,64,0
5199,1511.333334,note_off,62,819,64,320
5200,1512.0,note_on,58,1638,64,0
5201,1512.0,pitchwheel,58,1638,64,0
5202,1512.0,note_off,58,1638,64,320
5203,1512.666667,note_on,53,0,64,0
5204,1512.666667,note_off,53,0,64,320
5205,1513.333334,note_on,55,1638,64,0
5206,1513.333334,pitchwheel,55,1638,64,0
5207,1513.333334,note_off,55,1638,64,320
5208,1514.0,note_on,59,3685,64,0
5209,1514.0,pitchwheel,59,3685,64,0
5210,1514.0,note_off,59,3685,64,320
5211,1514.666667,note_on,63,819,64,0
5212,1514.666667,pitchwheel,63,819,64,0
5213,1514.666667,note_off,63,819,64,320
5214,1515.333334,note_on,62,0,64,0
5215,1515.333334,note_off,62,0,64,320
5216,1516.0,note_on,57,0,64,0
5217,1516.0,note_off,57,0,64,320
5218,1516.666667,note_on,52,2457,64,0
5219,1516.666667,pitchwheel,52,2457,64,0
5220,1516.666667,note_off,52,2457,64,320
5221,1517.333334,note_on,56,0,64,0
5222,1517.333334,note_off,56,0,64,320
5223,1518.0,note_on,55,1638,64,0
5224,1518.0,pitchwheel,55,1638,64,0
5225,1518.0,note_off,55,1638,64,320
5226,1518.666667,note_on,55,2866,64,0
5227,1518.666667,pitchwheel,55,2866,64,0
5228,1518.666667,note_off,55,2866,64,320
5229,1520.0,note_on,57,0,64,0
5230,1520.0,note_off,57,0,64,320
5231,1520.666667,note_on,53,0,64,0
5232,1520.666667,note_off,53,0,64,320
5233,1522.0,note_on,52,2457,64,0
5234,1522.0,pitchwheel,52,2457,64,0
5235,1522.0,note_off,52,2457,64,320
5236,1522.666667,note_on,51,819,64,0
5237,1522.666667,pitchwheel,51,819,64,0
5238,1522.666667,note_off,51,819,64,320
5239,1523.333334,note_on,57,0,64,0
5240,1523.333334,note_off,57,0,64,320
5241,1524.0,note_on,58,0,64,0
5242,1524.0,note_off,58,0,64,320
5243,1525.333334,note_on,58,0,64,0
5244,1525.333334,note_off,58,0,64,320
5245,1526.666667,note_on,57,2047,64,0
5246,1526.666667,pitchwheel,57,2047,64,0
5247,1526.666667,note_off,57,2047,64,320
5248,1527.333334,note_on,62,819,64,0
5249,1527.333334,pitchwheel,62,819,64,0
5250,1527.333334,note_off,62,819,64,320
5251,1528.0,note_on,65,2457,64,0
5252,1528.0,pitchwheel,65,2457,64,0
5253,1528.0,note_off,65,2457,64,320
5254,1528.666667,note_on,55,2866,64,0
5255,1528.666667,pitchwheel,55,2866,64,0
5256,1528.666667,note_off,55,2866,64,320
5257,1529.333334,note_on,55,1638,64,0
5258,1529.333334,pitchwheel,55,1638,64,0
5259,1529.333334,note_off,55,1638,64,320
5260,1530.0,note_on,52,2457,64,0
5261,1530.0,pitchwheel,52,2457,64,0
5262,1530.0,note_off,52,2457,64,320
5263,1530.666667,note_on,57,3276,64,0
5264,1530.666667,pitchwheel,57,3276,64,0
5265,1530.666667,note_off,57,3276,64,320
5266,1531.333334,note_on,57,0,64,0
5267,1531.333334,note_off,57,0,64,320
5268,1532.0,note_on,62,2457,64,0
5269,1532.0,pitchwheel,62,2457,64,0
5270,1532.0,note_off,62,2457,64,320
5271,1532.666667,note_on,59,3276,64,0
5272,1532.666667,pitchwheel,59,3276,64,0
5273,1532.666667,note_off,59,3276,64,320
5274,1533.333334,note_on,56,0,64,0
5275,1533.333334,note_off,56,0,64,320
5276,1534.666667,note_on,53,0,64,0
5277,1534.666667,note_off,53,0,64,320
5278,1535.333334,note_on,47,2457,64,0
5279,1535.333334,pitchwheel,47,2457,64,0
5280,1535.333334,note_off,47,2457,64,320
5281,1536.0,note_on,43,1638,64,0
5282,1536.0,pitchwheel,43,1638,64,0
5283,1536.0,note_off,43,1638,64,320
5284,1536.666667,note_on,44,2047,64,0
5285,1536.666667,pitchwheel,44,2047,64,0
5286,1536.666667,note_off,44,2047,64,320
5287,1537.333334,note_on,38,2457,64,0
5288,1537.333334,pitchwheel,38,2457,64,0
5289,1537.333334,note_off,38,2457,64,320
5290,1538.0,note_on,33,1638,64,0
5291,1538.0,pitchwheel,33,1638,64,0
5292,1538.0,note_off,33,1638,64,320
5293,1538.666667,note_on,33,0,64,0
5294,1538.666667,note_off,33,0,64,320
5295,1539.333334,note_on,38,3685,64,0
5296,1539.333334,pitchwheel,38,3685,64,0
5297,1539.333334,note_off,38,3685,64,320
5298,1540.0,note_on,33,1638,64,0
5299,1540.0,pitchwheel,33,1638,64,0
5300,1540.0,note_off,33,1638,64,320
5301,1540.666667,note_on,38,0,64,0
5302,1540.666667,note_off,38,0,64,320
5303,1541.333334,note_on,34,1638,64,0
5304,1541.333334,pitchwheel,34,1638,64,0
5305,1541.333334,note_off,34,1638,64,320
5306,1542.0,note_on,38,2457,64,0
5307,1542.0,pitchwheel,38,2457,64,0
5308,1542.0,note_off,38,2457,64,320
5309,1542.666667,note_on,41,0,64,0
5310,1542.666667,note_off,41,0,64,320
5311,1543.333334,note_on,43,0,64,0
5312,1543.333334,note_off,43,0,64,320
5313,1544.0,note_on,41,1228,64,0
5314,1544.0,pitchwheel,41,1228,64,0
5315,1544.0,note_off,41,1228,64,320
5316,1544.666667,note_on,36,2047,64,0
5317,1544.666667,pitchwheel,36,2047,64,0
5318,1544.666667,note_off,36,2047,64,320
5319,1545.333334,note_on,36,819,64,0
5320,1545.333334,pitchwheel,36,819,64,0
5321,1545.333334,note_off,36,819,64,320
5322,1546.666667,note_on,35,2047,64,0
5323,1546.666667,pitchwheel,35,2047,64,0
5324,1546.666667,note_off,35,2047,64,320
5325,1547.333334,note_on,41,0,64,0
5326,1547.333334,note_off,41,0,64,320
5327,1548.0,note_on,38,2457,64,0
5328,1548.0,pitchwheel,38,2457,64,0
5329,1548.0,note_off,38,2457,64,320
5330,1548.666667,note_on,40,2457,64,0
5331,1548.666667,pitchwheel,40,2457,64,0
5332,1548.666667,note_off,40,2457,64,320
5333,1549.333334,note_on,36,3276,64,0
5334,1549.333334,pitchwheel,36,3276,64,0
5335,1549.333334,note_off,36,3276,64,320
5336,1550.0,note_on,32,2047,64,0
5337,1550.0,pitchwheel,32,2047,64,0
5338,1550.0,note_off,32,2047,64,320
5339,1550.666667,note_on,33,1638,64,0
5340,1550.666667,pitchwheel,33,1638,64,0
5341,1550.666667,note_off,33,1638,64,320
5342,1552.0,note_on,33,1638,64,0
5343,1552.0,pitchwheel,33,1638,64,0
5344,1552.0,note_off,33,1638,64,320
5345,1553.333334,note_on,31,0,64,0
5346,1553.333334,note_off,31,0,64,640
5347,1554.666667,note_on,33,2047,64,0
5348,1554.666667,pitchwheel,33,2047,64,0
5349,1554.666667,note_off,33,2047,64,320
5350,1555.333334,note_on,31,2866,64,0
5351,1555.333334,pitchwheel,31,2866,64,0
5352,1555.333334,note_off,31,2866,64,320
5353,1556.0,note_on,31,1638,64,0
5354,1556.0,pitchwheel,31,1638,64,0
5355,1556.0,note_off,31,1638,64,320
5356,1556.666667,note_on,31,0,64,0
5357,1556.666667,note_off,31,0,64,320
5358,1557.333334,note_on,33,2047,64,0
5359,1557.333334,pitchwheel,33,2047,64,0
5360,1557.333334,note_off,33,2047,64,320
5361,1558.0,note_on,33,0,64,0
5362,1558.0,note_off,33,0,64,320
5363,1559.333334,note_on,33,1638,64,0
5364,1559.333334,pitchwheel,33,1638,64,0
5365,1559.333334,note_off,33,1638,64,320
5366,1560.0,note_on,32,2047,64,0
5367,1560.0,pitchwheel,32,2047,64,0
5368,1560.0,note_off,32,2047,64,320
5369,1561.333334,note_on,31,0,64,0
5370,1561.333334,note_off,31,0,64,320
5371,1562.0,note_on,35,2457,64,0
5372,1562.0,pitchwheel,35,2457,64,0
5373,1562.0,note_off,35,2457,64,320
5374,1562.666667,note_on,31,2866,64,0
5375,1562.666667,pitchwheel,31,2866,64,0
5376,1562.666667,note_off,31,2866,64,320
5377,1563.333334,note_on,35,2047,64,0
5378,1563.333334,pitchwheel,35,2047,64,0
5379,1563.333334,note_off,35,2047,64,320
5380,1564.0,note_on,38,1228,64,0
5381,1564.0,pitchwheel,38,1228,64,0
5382,1564.0,note_off,38,1228,64,320
5383,1564.666667,note_on,35,3276,64,0
5384,1564.666667,pitchwheel,35,3276,64,0
5385,1564.666667,note_off,35,3276,64,320
5386,1565.333334,note_on,38,2457,64,0
5387,1565.333334,pitchwheel,38,2457,64,0
5388,1565.333334,note_off,38,2457,64,320
5389,1566.0,note_on,38,3685,64,0
5390,1566.0,pitchwheel,38,3685,64,0
5391,1566.0,note_off,38,3685,64,320
5392,1566.666667,note_on,35,3276,64,0
5393,1566.666667,pitchwheel,35,3276,64,0
5394,1566.666667,note_off,35,3276,64,320
5395,1567.333334,note_on,38,0,64,0
5396,1567.333334,note_off,38,0,64,320
5397,1568.0,note_on,36,3276,64,0
5398,1568.0,pitchwheel,36,3276,64,0
5399,1568.0,note_off,36,3276,64,320
5400,1568.666667,note_on,38,2457,64,0
5401,1568.666667,pitchwheel,38,2457,64,0
5402,1568.666667,note_off,38,2457,64,320
5403,1569.333334,note_on,33,0,64,0
5404,1569.333334,note_off,33,0,64,320
5405,1570.0,note_on,31,409,64,0
5406,1570.0,pitchwheel,31,409,64,0
5407,1570.0,note_off,31,409,64,320
5408,1570.666667,note_on,34,1638,64,0
5409,1570.666667,pitchwheel,34,1638,64,0
5410,1570.666667,note_off,34,1638,64,320
5411,1571.333334,note_on,36,2047,64,0
5412,1571.333334,pitchwheel,36,2047,64,0
5413,1571.333334,note_off,36,2047,64,320
5414,1572.0,note_on,36,819,64,0
5415,1572.0,pitchwheel,36,819,64,0
5416,1572.0,note_off,36,819,64,320
5417,1573.333334,note_on,36,2047,64,0
5418,1573.333334,pitchwheel,36,2047,64,0
5419,1573.333334,note_off,36,2047,64,640
5420,1575.333334,note_on,38,819,64,0
5421,1575.333334,pitchwheel,38,819,64,0
5422,1575.333334,note_off,38,819,64,320
5423,1576.0,note_on,35,3685,64,0
5424,1576.0,pitchwheel,35,3685,64,0
5425,1576.0,note_off,35,3685,64,320
5426,1576.666667,note_on,41,0,64,0
5427,1576.666667,note_off,41,0,64,320
5428,1577.333334,note_on,45,2047,64,0
5429,1577.333334,pitchwheel,45,2047,64,0
5430,1577.333334,note_off,45,2047,64,320
5431,1578.666667,note_on,44,0,64,0
5432,1578.666667,note_off,44,0,64,320
5433,1580.0,note_on,47,3685,64,0
5434,1580.0,pitchwheel,47,3685,64,0
5435,1580.0,note_off,47,3685,64,320
5436,1580.666667,note_on,47,3276,64,0
5437,1580.666667,pitchwheel,47,3276,64,0
5438,1580.666667,note_off,47,3276,64,320
5439,1581.333334,note_on,50,0,64,0
5440,1581.333334,note_off,50,0,64,320
5441,1582.0,note_on,53,1228,64,0
5442,1582.0,pitchwheel,53,1228,64,0
5443,1582.0,note_off,53,1228,64,320
5444,1582.666667,note_on,53,0,64,0
5445,1582.666667,note_off,53,0,64,320
5446,1583.333334,note_on,57,1638,64,0
5447,1583.333334,pitchwheel,57,1638,64,0
5448,1583.333334,note_off,57,1638,64,320
5449,1584.0,note_on,57,2047,64,0
5450,1584.0,pitchwheel,57,2047,64,0
5451,1584.0,note_off,57,2047,64,320
5452,1584.666667,note_on,57,0,64,0
5453,1584.666667,note_off,57,0,64,320
5454,1585.333334,note_on,55,409,64,0
5455,1585.333334,pitchwheel,55,409,64,0
5456,1585.333334,note_off,55,409,64,320
5457,1586.0,note_on,57,1638,64,0
5458,1586.0,pitchwheel,57,1638,64,0
5459,1586.0,note_off,57,1638,64,320
5460,1586.666667,note_on,58,1638,64,0
5461,1586.666667,pitchwheel,58,1638,64,0
5462,1586.666667,note_off,58,1638,64,320
5463,1588.0,note_on,55,409,64,0
5464,1588.0,pitchwheel,55,409,64,0
5465,1588.0,note_off,55,409,64,320
5466,1588.666667,note_on,55,1638,64,0
5467,1588.666667,pitchwheel,55,1638,64,0
5468,1588.666667,note_off,55,1638,64,320
5469,1589.333334,note_on,58,1638,64,0
5470,1589.333334,pitchwheel,58,1638,64,0
5471,1589.333334,note_off,58,1638,64,320
5472,1590.0,note_on,60,2047,64,0
5473,1590.0,pitchwheel,60,2047,64,0
5474,1590.0,note_off,60,2047,64,320
5475,1590.666667,note_on,53,0,64,0
5476,1590.666667,note_off,53,0,64,320
5477,1591.333334,note_on,55,0,64,0
5478,1591.333334,note_off,55,0,64,320
5479,1592.0,note_on,60,3276,64,0
5480,1592.0,pitchwheel,60,3276,64,0
5481,1592.0,note_off,60,3276,64,320
5482,1592.666667,note_on,60,2047,64,0
5483,1592.666667,pitchwheel,60,2047,64,0
5484,1592.666667,note_off,60,2047,64,320
5485,1593.333334,note_on,60,819,64,0
5486,1593.333334,pitchwheel,60,819,64,0
5487,1593.333334,note_off,60,819,64,320
5488,1594.0,note_on,53,0,64,0
5489,1594.0,note_off,53,0,64,640
5490,1595.333334,note_on,50,3685,64,0
5491,1595.333334,pitchwheel,50,3685,64,0
5492,1595.333334,note_off,50,3685,64,320
5493,1596.0,note_on,45,2047,64,0
5494,1596.0,pitchwheel,45,2047,64,0
5495,1596.0,note_off,45,2047,64,320
5496,1596.666667,note_on,40,2457,64,0
5497,1596.666667,pitchwheel,40,2457,64,0
5498,1596.666667,note_off,40,2457,64,320
5499,1597.333334,note_on,46,1638,64,0
5500,1597.333334,pitchwheel,46,1638,64,0
5501,1597.333334,note_off,46,1638,64,320
5502,1598.0,note_on,46,409,64,0
5503,1598.0,pitchwheel,46,409,64,0
5504,1598.0,note_off,46,409,64,320
5505,1598.666667,note_on,45,3276,64,0
5506,1598.666667,pitchwheel,45,3276,64,0
5507,1598.666667,note_off,45,3276,64,320
5508,1600.0,note_on,44,2047,64,0
5509,1600.0,pitchwheel,44,2047,64,0
5510,1600.0,note_off,44,2047,64,320
5511,1600.666667,note_on,41,0,64,0
5512,1600.666667,note_off,41,0,64,320
5513,1601.333334,note_on,40,1638,64,0
5514,1601.333334,pitchwheel,40,1638,64,0
5515,1601.333334,note_off,40,1638,64,320
5516,1602.0,note_on,38,819,64,0
5517,1602.0,pitchwheel,38,819,64,0
5518,1602.0,note_off,38,819,64,320
5519,1602.666667,note_on,44,0,64,0
5520,1602.666667,note_off,44,0,64,320
5521,1603.333334,note_on,40,1638,64,0
5522,1603.333334,pitchwheel,40,1638,64,0
5523,1603.333334,note_off,40,1638,64,320
5524,1604.0,note_on,46,0,64,0
5525,1604.0,note_off,46,0,64,320
5526,1605.333334,note_on,44,0,64,0
5527,1605.333334,note_off,44,0,64,320
5528,1606.666667,note_on,41,0,64,0
5529,1606.666667,note_off,41,0,64,320
5530,1607.333334,note_on,35,3276,64,0
5531,1607.333334,pitchwheel,35,3276,64,0
5532,1607.333334,note_off,35,3276,64,320
5533,1608.0,note_on,34,1638,64,0
5534,1608.0,pitchwheel,34,1638,64,0
5535,1608.0,note_off,34,1638,64,320
5536,1608.666667,note_on,36,2047,64,0
5537,1608.666667,pitchwheel,36,2047,64,0
5538,1608.666667,note_off,36,2047,64,320
5539,1609.333334,note_on,36,819,64,0
5540,1609.333334,pitchwheel,36,819,64,0
5541,1609.333334,note_off,36,819,64,320
5542,1610.0,note_on,33,1638,64,0
5543,1610.0,pitchwheel,33,1638,64,0
5544,1610.0,note_off,33,1638,64,320
5545,1610.666667,note_on,32,0,64,0
5546,1610.666667,note_off,32,0,64,320
5547,1611.333334,note_on,33,0,64,0
5548,1611.333334,note_off,33,0,64,320
5549,1612.666667,note_on,33,1638,64,0
5550,1612.666667,pitchwheel,33,1638,64,0
5551,1612.666667,note_off,33,1638,64,320
5552,1613.333334,note_on,32,0,64,0
5553,1613.333334,note_off,32,0,64,320
5554,1614.666667,note_on,31,0,64,0
5555,1614.666667,note_off,31,0,64,320
5556,1615.333334,note_on,34,409,64,0
5557,1615.333334,pitchwheel,34,409,64,0
5558,1615.333334,note_off,34,409,64,640
5559,1616.666667,note_on,35,2047,64,0
5560,1616.666667,pitchwheel,35,2047,64,0
5561,1616.666667,note_off,35,2047,64,320
5562,1617.333334,note_on,41,1228,64,0
5563,1617.333334,pitchwheel,41,1228,64,0
5564,1617.333334,note_off,41,1228,64,320
5565,1618.0,note_on,43,0,64,0
5566,1618.0,note_off,43,0,64,320
5567,1618.666667,note_on,41,0,64,0
5568,1618.666667,note_off,41,0,64,320
5569,1619.333334,note_on,43,2866,64,0
5570,1619.333334,pitchwheel,43,2866,64,0
5571,1619.333334,note_off,43,2866,64,320
5572,1620.0,note_on,46,0,64,0
5573,1620.0,note_off,46,0,64,320
5574,1620.666667,note_on,48,2047,64,0
5575,1620.666667,pitchwheel,48,2047,64,0
5576,1620.666667,note_off,48,2047,64,320
5577,1621.333334,note_on,43,1638,64,0
5578,1621.333334,pitchwheel,43,1638,64,0
5579,1621.333334,note_off,43,1638,64,320
5580,1622.0,note_on,38,2457,64,0
5581,1622.0,pitchwheel,38,2457,64,0
5582,1622.0,note_off,38,2457,64,320
5583,1622.666667,note_on,33,0,64,0
5584,1622.666667,note_off,33,0,64,320
5585,1623.333334,note_on,40,2457,64,0
5586,1623.333334,pitchwheel,40,2457,64,0
5587,1623.333334,note_off,40,2457,64,320
5588,1624.0,note_on,41,2457,64,0
5589,1624.0,pitchwheel,41,2457,64,0
5590,1624.0,note_off,41,2457,64,320
5591,1624.666667,note_on,41,1228,64,0
5592,1624.666667,pitchwheel,41,1228,64,0
5593,1624.666667,note_off,41,1228,64,320
5594,1625.333334,note_on,41,0,64,0
5595,1625.333334,note_off,41,0,64,320
5596,1626.666667,note_on,41,0,64,0
5597,1626.666667,note_off,41,0,64,320
5598,1627.333334,note_on,38,2457,64,0
5599,1627.333334,pitchwheel,38,2457,64,0
5600,1627.333334,note_off,38,2457,64,320
5601,1628.666667,note_on,33,1638,64,0
5602,1628.666667,pitchwheel,33,1638,64,0
5603,1628.666667,note_off,33,1638,64,320
5604,1629.333334,note_on,35,3276,64,0
5605,1629.333334,pitchwheel,35,3276,64,0
5606,1629.333334,note_off,35,3276,64,320
5607,1630.666667,note_on,34,0,64,0
5608,1630.666667,note_off,34,0,64,320
5609,1632.0,note_on,34,1638,64,0
5610,1632.0,pitchwheel,34,1638,64,0
5611,1632.0,note_off,34,1638,64,320
5612,1633.333334,note_on,35,2047,64,0
5613,1633.333334,pitchwheel,35,2047,64,0
5614,1633.333334,note_off,35,2047,64,320
5615,1634.0,note_on,35,3276,64,0
5616,1634.0,pitchwheel,35,3276,64,0
5617,1634.0,note_off,35,3276,64,320
5618,1634.666667,note_on,36,819,64,0
5619,1634.666667,pitchwheel,36,819,64,0
5620,1634.666667,note_off,36,819,64,320
5621,1635.333334,note_on,41,0,64,0
5622,1635.333334,note_off,41,0,64,320
5623,1636.0,note_on,41,1228,64,0
5624,1636.0,pitchwheel,41,1228,64,0
5625,1636.0,note_off,41,1228,64,320
5626,1636.666667,note_on,35,3276,64,0
5627,1636.666667,pitchwheel,35,3276,64,0
5628,1636.666667,note_off,35,3276,64,320
5629,1637.333334,note_on,35,3685,64,0
5630,1637.333334,pitchwheel,35,3685,64,0
5631,1637.333334,note_off,35,3685,64,320
5632,1638.0,note_on,33,0,64,0
5633,1638.0,note_off,33,0,64,320
5634,1638.666667,note_on,36,2047,64,0
5635,1638.666667,pitchwheel,36,2047,64,0
5636,1638.666667,note_off,36,2047,64,320
5637,1639.333334,note_on,38,819,64,0
5638,1639.333334,pitchwheel,38,819,64,0
5639,1639.333334,note_off,38,819,64,320
5640,1640.0,note_on,36,3276,64,0
5641,1640.0,pitchwheel,36,3276,64,0
5642,1640.0,note_off,36,3276,64,320
5643,1641.333334,note_on,35,3685,64,0
5644,1641.333334,pitchwheel,35,3685,64,0
5645,1641.333334,note_off,35,3685,64,320
5646,1642.0,note_on,33,2047,64,0
5647,1642.0,pitchwheel,33,2047,64,0
5648,1642.0,note_off,33,2047,64,960
5649,1644.0,note_on,38,0,64,0
5650,1644.0,note_off,38,0,64,320
5651,1644.666667,note_on,40,2457,64,0
5652,1644.666667,pitchwheel,40,2457,64,0
5653,1644.666667,note_off,40,2457,64,320
5654,1645.333334,note_on,46,1638,64,0
5655,1645.333334,pitchwheel,46,1638,64,0
5656,1645.333334,note_off,46,1638,64,320
5657,1646.0,note_on,45,3276,64,0
5658,1646.0,pitchwheel,45,3276,64,0
5659,1646.0,note_off,45,3276,64,640
5660,1647.333334,note_on,43,409,64,0
5661,1647.333334,pitchwheel,43,409,64,0
5662,1647.333334,note_off,43,409,64,320
5663,1648.0,note_on,38,3685,64,0
5664,1648.0,pitchwheel,38,3685,64,0
5665,1648.0,note_off,38,3685,64,320
5666,1648.666667,note_on,41,0,64,0
5667,1648.666667,note_off,41,0,64,320
5668,1649.333334,note_on,46,409,64,0
5669,1649.333334,pitchwheel,46,409,64,0
5670,1649.333334,note_off,46,409,64,320
5671,1650.0,note_on,43,0,64,0
5672,1650.0,note_off,43,0,64,320
5673,1650.666667,note_on,44,0,64,0
5674,1650.666667,note_off,44,0,64,320
5675,1651.333334,note_on,48,819,64,0
5676,1651.333334,pitchwheel,48,819,64,0
5677,1651.333334,note_off,48,819,64,320
5678,1652.0,note_on,48,2047,64,0
5679,1652.0,pitchwheel,48,2047,64,0
5680,1652.0,note_off,48,2047,64,320
5681,1653.333334,note_on,48,3276,64,0
5682,1653.333334,pitchwheel,48,3276,64,0
5683,1653.333334,note_off,48,3276,64,320
5684,1654.0,note_on,52,1638,64,0
5685,1654.0,pitchwheel,52,1638,64,0
5686,1654.0,note_off,52,1638,64,320
5687,1654.666667,note_on,53,0,64,0
5688,1654.666667,note_off,53,0,64,320
5689,1655.333334,note_on,52,2457,64,0
5690,1655.333334,pitchwheel,52,2457,64,0
5691,1655.333334,note_off,52,2457,64,320
5692,1656.0,note_on,51,819,64,0
5693,1656.0,pitchwheel,51,819,64,0
5694,1656.0,note_off,51,819,64,320
5695,1656.666667,note_on,57,0,64,0
5696,1656.666667,note_off,57,0,64,320
5697,1657.333334,note_on,58,0,64,0
5698,1657.333334,note_off,58,0,64,320
5699,1658.666667,note_on,57,2047,64,0
5700,1658.666667,pitchwheel,57,2047,64,0
5701,1658.666667,note_off,57,2047,64,320
5702,1660.0,note_on,59,2047,64,0
5703,1660.0,pitchwheel,59,2047,64,0
5704,1660.0,note_off,59,2047,64,320
5705,1660.666667,note_on,55,0,64,0
5706,1660.666667,note_off,55,0,64,320
5707,1661.333334,note_on,58,0,64,0
5708,1661.333334,note_off,58,0,64,320
5709,1662.0,note_on,57,3276,64,0
5710,1662.0,pitchwheel,57,3276,64,0
5711,1662.0,note_off,57,3276,64,320
5712,1662.666667,note_on,57,2047,64,0
5713,1662.666667,pitchwheel,57,2047,64,0
5714,1662.666667,note_off,57,2047,64,320
5715,1663.333334,note_on,62,819,64,0
5716,1663.333334,pitchwheel,62,819,64,0
5717,1663.333334,note_off,62,819,64,320
5718,1664.0,note_on,55,1638,64,0
5719,1664.0,pitchwheel,55,1638,64,0
5720,1664.0,note_off,55,1638,64,320
5721,1664.666667,note_on,57,0,64,0
5722,1664.666667,note_off,57,0,64,320
5723,1666.0,note_on,57,1638,64,0
5724,1666.0,pitchwheel,57,1638,64,0
5725,1666.0,note_off,57,1638,64,320
5726,1666.666667,note_on,56,0,64,0
5727,1666.666667,note_off,56,0,64,320
5728,1668.0,note_on,55,409,64,0
5729,1668.0,pitchwheel,55,409,64,0
5730,1668.0,note_off,55,409,64,320
5731,1668.666667,note_on,57,2047,64,0
5732,1668.666667,pitchwheel,57,2047,64,0
5733,1668.666667,note_off,57,2047,64,320
5734,1669.333334,note_on,62,2457,64,0
5735,1669.333334,pitchwheel,62,2457,64,0
5736,1669.333334,note_off,62,2457,64,320
5737,1670.0,note_on,56,2047,64,0
5738,1670.0,pitchwheel,56,2047,64,0
5739,1670.0,note_off,56,2047,64,320
5740,1670.666667,note_on,62,1228,64,0
5741,1670.666667,pitchwheel,62,1228,64,0
5742,1670.666667,note_off,62,1228,64,320
5743,1671.333334,note_on,59,3276,64,0
5744,1671.333334,pitchwheel,59,3276,64,0
5745,1671.333334,note_off,59,3276,64,320
5746,1672.0,note_on,58,1638,64,0
5747,1672.0,pitchwheel,58,1638,64,0
5748,1672.0,note_off,58,1638,64,320
5749,1672.666667,note_on,53,0,64,0
5750,1672.666667,note_off,53,0,64,320
5751,1673.333334,note_on,57,1638,64,0
5752,1673.333334,pitchwheel,57,1638,64,0
5753,1673.333334,note_off,57,1638,64,320
5754,1674.0,note_on,59,3685,64,0
5755,1674.0,pitchwheel,59,3685,64,0
5756,1674.0,note_off,59,3685,64,320
5757,1674.666667,note_on,57,2047,64,0
5758,1674.666667,pitchwheel,57,2047,64,0
5759,1674.666667,note_off,57,2047,64,320
5760,1675.333334,note_on,62,0,64,0
5761,1675.333334,note_off,62,0,64,320
5762,1676.0,note_on,57,0,64,0
5763,1676.0,note_off,57,0,64,320
5764,1676.666667,note_on,57,2047,64,0
5765,1676.666667,pitchwheel,57,2047,64,0
5766,1676.666667,note_off,57,2047,64,320
5767,1677.333334,note_on,55,1638,64,0
5768,1677.333334,pitchwheel,55,1638,64,0
5769,1677.333334,note_off,55,1638,64,320
5770,1678.0,note_on,50,2457,64,0
5771,1678.0,pitchwheel,50,2457,64,0
5772,1678.0,note_off,50,2457,64,320
5773,1678.666667,note_on,50,1228,64,0
5774,1678.666667,pitchwheel,50,1228,64,0
5775,1678.666667,note_off,50,1228,64,320
5776,1680.0,note_on,50,819,64,0
5777,1680.0,pitchwheel,50,819,64,0
5778,1680.0,note_off,50,819,64,320
5779,1680.666667,note_on,53,0,64,0
5780,1680.666667,note_off,53,0,64,320
5781,1682.0,note_on,47,3276,64,0
5782,1682.0,pitchwheel,47,3276,64,0
5783,1682.0,note_off,47,3276,64,320
5784,1682.666667,note_on,48,3276,64,0
5785,1682.666667,pitchwheel,48,3276,64,0
5786,1682.666667,note_off,48,3276,64,320
5787,1683.333334,note_on,44,2047,64,0
5788,1683.333334,pitchwheel,44,2047,64,0
5789,1683.333334,note_off,44,2047,64,320
5790,1684.0,note_on,46,0,64,0
5791,1684.0,note_off,46,0,64,320
5792,1685.333334,note_on,48,3276,64,0
5793,1685.333334,pitchwheel,48,3276,64,0
5794,1685.333334,note_off,48,3276,64,320
5795,1686.666667,note_on,44,2047,64,0
5796,1686.666667,pitchwheel,44,2047,64,0
5797,1686.666667,note_off,44,2047,64,320
5798,1687.333334,note_on,45,1638,64,0
5799,1687.333334,pitchwheel,45,1638,64,0
5800,1687.333334,note_off,45,1638,64,320
5801,1688.0,note_on,50,2457,64,0
5802,1688.0,pitchwheel,50,2457,64,0
5803,1688.0,note_off,50,2457,64,320
5804,1688.666667,note_on,45,3276,64,0
5805,1688.666667,pitchwheel,45,3276,64,0
5806,1688.666667,note_off,45,3276,64,320
5807,1689.333334,note_on,46,409,64,0
5808,1689.333334,pitchwheel,46,409,64,0
5809,1689.333334,note_off,46,409,64,320
5810,1690.0,note_on,40,2457,64,0
5811,1690.0,pitchwheel,40,2457,64,0
5812,1690.0,note_off,40,2457,64,320
5813,1690.666667,note_on,36,2047,64,0
5814,1690.666667,pitchwheel,36,2047,64,0
5815,1690.666667,note_off,36,2047,64,320
5816,1691.333334,note_on,33,0,64,0
5817,1691.333334,note_off,33,0,64,320
5818,1692.0,note_on,31,409,64,0
5819,1692.0,pitchwheel,31,409,64,0
5820,1692.0,note_off,31,409,64,320
5821,1692.666667,note_on,31,0,64,0
5822,1692.666667,note_off,31,0,64,640
5823,1694.666667,note_on,36,2047,64,0
5824,1694.666667,pitchwheel,36,2047,64,0
5825,1694.666667,note_off,36,2047,64,320
5826,1695.333334,note_on,35,2457,64,0
5827,1695.333334,pitchwheel,35,2457,64,0
5828,1695.333334,note_off,35,2457,64,320
5829,1696.0,note_on,36,819,64,0
5830,1696.0,pitchwheel,36,819,64,0
5831,1696.0,note_off,36,819,64,320
5832,1696.666667,note_on,38,1228,64,0
5833,1696.666667,pitchwheel,38,1228,64,0
5834,1696.666667,note_off,38,1228,64,320
5835,1697.333334,note_on,38,2457,64,0
5836,1697.333334,pitchwheel,38,2457,64,0
5837,1697.333334,note_off,38,2457,64,320
5838,1698.0,note_on,40,2457,64,0
5839,1698.0,pitchwheel,40,2457,64,0
5840,1698.0,note_off,40,2457,64,320
5841,1698.666667,note_on,44,0,64,0
5842,1698.666667,note_off,44,0,64,320
5843,1699.333334,note_on,38,2457,64,0
5844,1699.333334,pitchwheel,38,2457,64,0
5845,1699.333334,note_off,38,2457,64,320
5846,1700.0,note_on,40,2457,64,0
5847,1700.0,pitchwheel,40,2457,64,0
5848,1700.0,note_off,40,2457,64,320
5849,1700.666667,note_on,38,0,64,0
5850,1700.666667,note_off,38,0,64,320
5851,1701.333334,note_on,40,2866,64,0
5852,1701.333334,pitchwheel,40,2866,64,0
5853,1701.333334,note_off,40,2866,64,320
5854,1702.0,note_on,38,2457,64,0
5855,1702.0,pitchwheel,38,2457,64,0
5856,1702.0,note_off,38,2457,64,320
5857,1702.666667,note_on,33,2047,64,0
5858,1702.666667,pitchwheel,33,2047,64,0
5859,1702.666667,note_off,33,2047,64,320
5860,1703.333334,note_on,35,3685,64,0
5861,1703.333334,pitchwheel,35,3685,64,0
5862,1703.333334,note_off,35,3685,64,320
5863,1704.0,note_on,34,1638,64,0
5864,1704.0,pitchwheel,34,1638,64,0
5865,1704.0,note_off,34,1638,64,320
5866,1704.666667,note_on,29,0,64,0
5867,1704.666667,note_off,29,0,64,320
5868,1705.333334,note_on,29,1228,64,0
5869,1705.333334,pitchwheel,29,1228,64,0
5870,1705.333334,note_off,29,1228,64,320
5871,1706.666667,note_on,32,0,64,0
5872,1706.666667,note_off,32,0,64,320
5873,1707.333334,note_on,29,0,64,0
5874,1707.333334,note_off,29,0,64,640
5875,1708.666667,note_on,31,0,64,0
5876,1708.666667,note_off,31,0,64,320
5877,1709.333334,note_on,32,0,64,0
5878,1709.333334,note_off,32,0,64,320
5879,1710.0,note_on,38,0,64,0
5880,1710.0,note_off,38,0,64,320
5881,1710.666667,note_on,34,0,64,0
5882,1710.666667,note_off,34,0,64,320
5883,1712.0,note_on,31,409,64,0
5884,1712.0,pitchwheel,31,409,64,0
5885,1712.0,note_off,31,409,64,320
5886,1713.333334,note_on,33,0,64,0
5887,1713.333334,note_off,33,0,64,320
5888,1714.0,note_on,33,1638,64,0
5889,1714.0,pitchwheel,33,1638,64,0
5890,1714.0,note_off,33,1638,64,320
5891,1714.666667,note_on,34,0,64,0
5892,1714.666667,note_off,34,0,64,320
5893,1715.333334,note_on,33,3276,64,0
5894,1715.333334,pitchwheel,33,3276,64,0
5895,1715.333334,note_off,33,3276,64,320
5896,1716.0,note_on,34,409,64,0
5897,1716.0,pitchwheel,34,409,64,0
5898,1716.0,note_off,34,409,64,320
5899,1716.666667,note_on,31,0,64,0
5900,1716.666667,note_off,31,0,64,320
5901,1717.333334,note_on,31,409,64,0
5902,1717.333334,pitchwheel,31,409,64,0
5903,1717.333334,note_off,31,409,64,320
5904,1718.0,note_on,33,0,64,0
5905,1718.0,note_off,33,0,64,320
5906,1719.333334,note_on,35,3276,64,0
5907,1719.333334,pitchwheel,35,3276,64,0
5908,1719.333334,note_off,35,3276,64,320
5909,1720.0,note_on,34,1638,64,0
5910,1720.0,pitchwheel,34,1638,64,0
5911,1720.0,note_off,34,1638,64,320
5912,1721.333334,note_on,36,2047,64,0
5913,1721.333334,pitchwheel,36,2047,64,0
5914,1721.333334,note_off,36,2047,64,320
5915,1722.0,note_on,35,2457,64,0
5916,1722.0,pitchwheel,35,2457,64,0
5917,1722.0,note_off,35,2457,64,320
5918,1722.666667,note_on,35,3276,64,0
5919,1722.666667,pitchwheel,35,3276,64,0
5920,1722.666667,note_off,35,3276,64,320
5921,1723.333334,note_on,40,2866,64,0
5922,1723.333334,pitchwheel,40,2866,64,0
5923,1723.333334,note_off,40,2866,64,320
5924,1724.0,note_on,38,1228,64,0
5925,1724.0,pitchwheel,38,1228,64,0
5926,1724.0,note_off,38,1228,64,320
5927,1724.666667,note_on,38,819,64,0
5928,1724.666667,pitchwheel,38,819,64,0
5929,1724.666667,note_off,38,819,64,320
5930,1725.333334,note_on,38,2457,64,0
5931,1725.333334,pitchwheel,38,2457,64,0
5932,1725.333334,note_off,38,2457,64,640
5933,1726.666667,note_on,43,0,64,0
5934,1726.666667,note_off,43,0,64,320
5935,1727.333334,note_on,38,0,64,0
5936,1727.333334,note_off,38,0,64,320
5937,1728.0,note_on,36,3276,64,0
5938,1728.0,pitchwheel,36,3276,64,0
5939,1728.0,note_off,36,3276,64,320
5940,1728.666667,note_on,38,2457,64,0
5941,1728.666667,pitchwheel,38,2457,64,0
5942,1728.666667,note_off,38,2457,64,320
5943,1729.333334,note_on,33,0,64,0
5944,1729.333334,note_off,33,0,64,320
5945,1730.0,note_on,40,2457,64,0
5946,1730.0,pitchwheel,40,2457,64,0
5947,1730.0,note_off,40,2457,64,320
5948,1730.666667,note_on,46,1638,64,0
5949,1730.666667,pitchwheel,46,1638,64,0
5950,1730.666667,note_off,46,1638,64,320
5951,1731.333334,note_on,41,0,64,0
5952,1731.333334,note_off,41,0,64,320
5953,1732.0,note_on,41,1228,64,0
5954,1732.0,pitchwheel,41,1228,64,0
5955,1732.0,note_off,41,1228,64,320
5956,1733.333334,note_on,40,0,64,0
5957,1733.333334,note_off,40,0,64,320
5958,1734.0,note_on,36,2047,64,0
5959,1734.0,pitchwheel,36,2047,64,0
5960,1734.0,note_off,36,2047,64,320
5961,1735.333334,note_on,31,0,64,0
5962,1735.333334,note_off,31,0,64,320
5963,1736.0,note_on,32,0,64,0
5964,1736.0,note_off,32,0,64,320
5965,1736.666667,note_on,29,0,64,0
5966,1736.666667,note_off,29,0,64,320
5967,1737.333334,note_on,34,0,64,0
5968,1737.333334,note_off,34,0,64,320
5969,1738.666667,note_on,34,0,64,0
5970,1738.666667,note_off,34,0,64,320
5971,1740.0,note_on,37,0,64,0
5972,1740.0,note_off,37,0,64,320
5973,1740.666667,note_on,33,1638,64,0
5974,1740.666667,pitchwheel,33,1638,64,0
5975,1740.666667,note_off,33,1638,64,320
5976,1741.333334,note_on,34,1638,64,0
5977,1741.333334,pitchwheel,34,1638,64,0
5978,1741.333334,note_off,34,1638,64,320
5979,1742.0,note_on,33,2047,64,0
5980,1742.0,pitchwheel,33,2047,64,0
5981,1742.0,note_off,33,2047,64,320
5982,1742.666667,note_on,33,3276,64,0
5983,1742.666667,pitchwheel,33,3276,64,0
5984,1742.666667,note_off,33,3276,64,320
5985,1743.333334,note_on,33,1638,64,0
5986,1743.333334,pitchwheel,33,1638,64,0
5987,1743.333334,note_off,33,1638,64,320
5988,1744.0,note_on,33,2047,64,0
5989,1744.0,pitchwheel,33,2047,64,0
5990,1744.0,note_off,33,2047,64,320
5991,1744.666667,note_on,33,0,64,0
5992,1744.666667,note_off,33,0,64,320
5993,1745.333334,note_on,31,409,64,0
5994,1745.333334,pitchwheel,31,409,64,0
5995,1745.333334,note_off,31,409,64,320
5996,1746.0,note_on,35,3276,64,0
5997,1746.0,pitchwheel,35,3276,64,0
5998,1746.0,note_off,35,3276,64,320
5999,1746.666667,note_on,36,3276,64,0
6000,1746.666667,pitchwheel,36,3276,64,0
6001,1746.666667,note_off,36,3276,64,320
6002,1748.0,note_on,36,819,64,0
6003,1748.0,pitchwheel,36,819,64,0
6004,1748.0,note_off,36,819,64,320
6005,1748.666667,note_on,31,1638,64,0
6006,1748.666667,pitchwheel,31,1638,64,0
6007,1748.666667,note_off,31,1638,64,320
6008,1749.333334,note_on,33,2047,64,0
6009,1749.333334,pitchwheel,33,2047,64,0
6010,1749.333334,note_off,33,2047,64,320
6011,1750.0,note_on,35,2047,64,0
6012,1750.0,pitchwheel,35,2047,64,0
6013,1750.0,note_off,35,2047,64,320
6014,1750.666667,note_on,38,2457,64,0
6015,1750.666667,pitchwheel,38,2457,64,0
6016,1750.666667,note_off,38,2457,64,320
6017,1751.333334,note_on,38,819,64,0
6018,1751.333334,pitchwheel,38,819,64,0
6019,1751.333334,note_off,38,819,64,320
6020,1752.0,note_on,39,819,64,0
6021,1752.0,pitchwheel,39,819,64,0
6022,1752.0,note_off,39,819,64,320
6023,1752.666667,note_on,38,1228,64,0
6024,1752.666667,pitchwheel,38,1228,64,0
6025,1752.666667,note_off,38,1228,64,320
6026,1753.333334,note_on,34,409,64,0
6027,1753.333334,pitchwheel,34,409,64,0
6028,1753.333334,note_off,34,409,64,320
6029,1754.0,note_on,29,0,64,0
6030,1754.0,note_off,29,0,64,320
6031,1754.666667,note_on,36,3276,64,0
6032,1754.666667,pitchwheel,36,3276,64,0
6033,1754.666667,note_off,36,3276,64,320
6034,1755.333334,note_on,38,3685,64,0
6035,1755.333334,pitchwheel,38,3685,64,0
6036,1755.333334,note_off,38,3685,64,320
6037,1756.0,note_on,33,2047,64,0
6038,1756.0,pitchwheel,33,2047,64,0
6039,1756.0,note_off,33,2047,64,320
6040,1756.666667,note_on,40,2457,64,0
6041,1756.666667,pitchwheel,40,2457,64,0
6042,1756.666667,note_off,40,2457,64,320
6043,1757.333334,note_on,41,2457,64,0
6044,1757.333334,pitchwheel,41,2457,64,0
6045,1757.333334,note_off,41,2457,64,320
6046,1758.0,note_on,40,2866,64,0
6047,1758.0,pitchwheel,40,2866,64,0
6048,1758.0,note_off,40,2866,64,320
6049,1758.666667,note_on,41,0,64,0
6050,1758.666667,note_off,41,0,64,320
6051,1760.0,note_on,40,0,64,0
6052,1760.0,note_off,40,0,64,320
6053,1760.666667,note_on,41,0,64,0
6054,1760.666667,note_off,41,0,64,320
6055,1761.333334,note_on,36,2047,64,0
6056,1761.333334,pitchwheel,36,2047,64,0
6057,1761.333334,note_off,36,2047,64,320
6058,1762.0,note_on,33,1638,64,0
6059,1762.0,pitchwheel,33,1638,64,0
6060,1762.0,note_off,33,1638,64,320
6061,1762.666667,note_on,41,2457,64,0
6062,1762.666667,pitchwheel,41,2457,64,0
6063,1762.666667,note_off,41,2457,64,320
6064,1764.0,note_on,40,2457,64,0
6065,1764.0,pitchwheel,40,2457,64,0
6066,1764.0,note_off,40,2457,64,320
6067,1765.333334,note_on,38,819,64,0
6068,1765.333334,pitchwheel,38,819,64,0
6069,1765.333334,note_off,38,819,64,320
6070,1766.666667,note_on,37,0,64,0
6071,1766.666667,note_off,37,0,64,320
6072,1767.333334,note_on,43,0,64,0
6073,1767.333334,note_off,43,0,64,320
6074,1768.0,note_on,46,0,64,0
6075,1768.0,note_off,46,0,64,320
6076,1768.666667,note_on,40,2866,64,0
6077,1768.666667,pitchwheel,40,2866,64,0
6078,1768.666667,note_off,40,2866,64,320
6079,1769.333334,note_on,41,0,64,0
6080,1769.333334,note_off,41,0,64,320
6081,1770.0,note_on,35,3276,64,0
6082,1770.0,pitchwheel,35,3276,64,0
6083,1770.0,note_off,35,3276,64,320
6084,1770.666667,note_on,35,3685,64,0
6085,1770.666667,pitchwheel,35,3685,64,0
6086,1770.666667,note_off,35,3685,64,320
6087,1771.333334,note_on,33,0,64,0
6088,1771.333334,note_off,33,0,64,320
6089,1772.666667,note_on,40,2457,64,0
6090,1772.666667,pitchwheel,40,2457,64,0
6091,1772.666667,note_off,40,2457,64,320
6092,1773.333334,note_on,40,2866,64,0
6093,1773.333334,pitchwheel,40,2866,64,0
6094,1773.333334,note_off,40,2866,64,320
6095,1774.666667,note_on,38,819,64,0
6096,1774.666667,pitchwheel,38,819,64,0
6097,1774.666667,note_off,38,819,64,320
6098,1775.333334,note_on,34,409,64,0
6099,1775.333334,pitchwheel,34,409,64,0
6100,1775.333334,note_off,34,409,64,320
6101,1776.0,note_on,31,2866,64,0
6102,1776.0,pitchwheel,31,2866,64,0
6103,1776.0,note_off,31,2866,64,320
6104,1776.666667,note_on,28,0,64,0
6105,1776.666667,note_off,28,0,64,320
6106,1777.333334,note_on,36,819,64,0
6107,1777.333334,pitchwheel,36,819,64,0
6108,1777.333334,note_off,36,819,64,320
6109,1778.0,note_on,38,819,64,0
6110,1778.0,pitchwheel,38,819,64,0
6111,1778.0,note_off,38,819,64,320
6112,1778.666667,note_on,36,2047,64,0
6113,1778.666667,pitchwheel,36,2047,64,0
6114,1778.666667,note_off,36,2047,64,320
6115,1779.333334,note_on,33,2047,64,0
6116,1779.333334,pitchwheel,33,2047,64,0
6117,1779.333334,note_off,33,2047,64,320
6118,1780.0,note_on,35,3685,64,0
6119,1780.0,pitchwheel,35,3685,64,0
6120,1780.0,note_off,35,3685,64,320
6121,1780.666667,note_on,36,2047,64,0
6122,1780.666667,pitchwheel,36,2047,64,0
6123,1780.666667,note_off,36,2047,64,320
6124,1781.333334,note_on,34,1638,64,0
6125,1781.333334,pitchwheel,34,1638,64,0
6126,1781.333334,note_off,34,1638,64,320
6127,1782.0,note_on,38,2457,64,0
6128,1782.0,pitchwheel,38,2457,64,0
6129,1782.0,note_off,38,2457,64,320
6130,1782.666667,note_on,33,0,64,0
6131,1782.666667,note_off,33,0,64,320
6132,1783.333334,note_on,35,3276,64,0
6133,1783.333334,pitchwheel,35,3276,64,0
6134,1783.333334,note_off,35,3276,64,320
6135,1784.0,note_on,32,0,64,0
6136,1784.0,note_off,32,0,64,320
6137,1784.666667,note_on,35,3685,64,0
6138,1784.666667,pitchwheel,35,3685,64,0
6139,1784.666667,note_off,35,3685,64,320
6140,1785.333334,note_on,35,3276,64,0
6141,1785.333334,pitchwheel,35,3276,64,0
6142,1785.333334,note_off,35,3276,64,320
6143,1786.666667,note_on,35,2047,64,0
6144,1786.666667,pitchwheel,35,2047,64,0
6145,1786.666667,note_off,35,2047,64,320
6146,1787.333334,note_on,38,2457,64,0
6147,1787.333334,pitchwheel,38,2457,64,0
6148,1787.333334,note_off,38,2457,64,320
6149,1788.666667,note_on,35,3276,64,0
6150,1788.666667,pitchwheel,35,3276,64,0
6151,1788.666667,note_off,35,3276,64,320
6152,1789.333334,note_on,38,0,64,0
6153,1789.333334,note_off,38,0,64,320
6154,1790.0,note_on,33,0,64,0
6155,1790.0,note_off,33,0,64,320
6156,1790.666667,note_on,34,0,64,0
6157,1790.666667,note_off,34,0,64,320
6158,1792.0,note_on,35,2457,64,0
6159,1792.0,pitchwheel,35,2457,64,0
6160,1792.0,note_off,35,2457,64,320
6161,1793.333334,note_on,38,3685,64,0
6162,1793.333334,pitchwheel,38,3685,64,0
6163,1793.333334,note_off,38,3685,64,320
6164,1794.0,note_on,33,1638,64,0
6165,1794.0,pitchwheel,33,1638,64,0
6166,1794.0,note_off,33,1638,64,320
6167,1794.666667,note_on,38,2457,64,0
6168,1794.666667,pitchwheel,38,2457,64,0
6169,1794.666667,note_off,38,2457,64,320
6170,1795.333334,note_on,33,2047,64,0
6171,1795.333334,pitchwheel,33,2047,64,0
6172,1795.333334,note_off,33,2047,64,320
6173,1796.0,note_on,33,1638,64,0
6174,1796.0,pitchwheel,33,1638,64,0
6175,1796.0,note_off,33,1638,64,320
6176,1796.666667,note_on,38,819,64,0
6177,1796.666667,pitchwheel,38,819,64,0
6178,1796.666667,note_off,38,819,64,320
6179,1797.333334,note_on,35,2457,64,0
6180,1797.333334,pitchwheel,35,2457,64,0
6181,1797.333334,note_off,35,2457,64,320
6182,1798.0,note_on,33,0,64,0
6183,1798.0,note_off,33,0,64,320
6184,1798.666667,note_on,29,0,64,0
6185,1798.666667,note_off,29,0,64,320
6186,1799.333334,note_on,31,0,64,0
6187,1799.333334,note_off,31,0,64,320
6188,1800.0,note_on,32,0,64,0
6189,1800.0,note_off,32,0,64,320
6190,1801.333334,note_on,29,0,64,0
6191,1801.333334,note_off,29,0,64,320
6192,1802.0,note_on,33,2047,64,0
6193,1802.0,pitchwheel,33,2047,64,0
6194,1802.0,note_off,33,2047,64,320
6195,1802.666667,note_on,32,0,64,0
6196,1802.666667,note_off,32,0,64,320
6197,1803.333334,note_on,28,0,64,0
6198,1803.333334,note_off,28,0,64,320
6199,1804.0,note_on,38,3685,64,0
6200,1804.0,pitchwheel,38,3685,64,0
6201,1804.0,note_off,38,3685,64,320
6202,1804.666667,note_on,40,2457,64,0
6203,1804.666667,pitchwheel,40,2457,64,0
6204,1804.666667,note_off,40,2457,64,320
6205,1805.333334,note_on,46,1638,64,0
6206,1805.333334,pitchwheel,46,1638,64,0
6207,1805.333334,note_off,46,1638,64,320
6208,1806.0,note_on,50,1228,64,0
6209,1806.0,pitchwheel,50,1228,64,0
6210,1806.0,note_off,50,1228,64,320
6211,1806.666667,note_on,48,2047,64,0
6212,1806.666667,pitchwheel,48,2047,64,0
6213,1806.666667,note_off,48,2047,64,320
6214,1807.333334,note_on,43,409,64,0
6215,1807.333334,pitchwheel,43,409,64,0
6216,1807.333334,note_off,43,409,64,320
6217,1808.0,note_on,46,1638,64,0
6218,1808.0,pitchwheel,46,1638,64,0
6219,1808.0,note_off,46,1638,64,320
6220,1808.666667,note_on,41,0,64,0
6221,1808.666667,note_off,41,0,64,320
6222,1809.333334,note_on,43,1638,64,0
6223,1809.333334,pitchwheel,43,1638,64,0
6224,1809.333334,note_off,43,1638,64,320
6225,1810.0,note_on,47,2457,64,0
6226,1810.0,pitchwheel,47,2457,64,0
6227,1810.0,note_off,47,2457,64,320
6228,1810.666667,note_on,48,3276,64,0
6229,1810.666667,pitchwheel,48,3276,64,0
6230,1810.666667,note_off,48,3276,64,320
6231,1811.333334,note_on,52,2866,64,0
6232,1811.333334,pitchwheel,52,2866,64,0
6233,1811.333334,note_off,52,2866,64,320
6234,1812.0,note_on,53,0,64,0
6235,1812.0,note_off,53,0,64,320
6236,1813.333334,note_on,52,0,64,0
6237,1813.333334,note_off,52,0,64,320
6238,1814.0,note_on,52,1638,64,0
6239,1814.0,pitchwheel,52,1638,64,0
6240,1814.0,note_off,52,1638,64,320
6241,1814.666667,note_on,53,0,64,0
6242,1814.666667,note_off,53,0,64,320
6243,1815.333334,note_on,47,3276,64,0
6244,1815.333334,pitchwheel,47,3276,64,0
6245,1815.333334,note_off,47,3276,64,320
6246,1816.0,note_on,48,2047,64,0
6247,1816.0,pitchwheel,48,2047,64,0
6248,1816.0,note_off,48,2047,64,320
6249,1816.666667,note_on,52,0,64,0
6250,1816.666667,note_off,52,0,64,320
6251,1817.333334,note_on,46,0,64,0
6252,1817.333334,note_off,46,0,64,320
6253,1818.666667,note_on,44,0,64,0
6254,1818.666667,note_off,44,0,64,320
6255,1820.0,note_on,40,0,64,0
6256,1820.0,note_off,40,0,64,320
6257,1820.666667,note_on,38,819,64,0
6258,1820.666667,pitchwheel,38,819,64,0
6259,1820.666667,note_off,38,819,64,320
6260,1821.333334,note_on,39,819,64,0
6261,1821.333334,pitchwheel,39,819,64,0
6262,1821.333334,note_off,39,819,64,320
6263,1822.0,note_on,40,2866,64,0
6264,1822.0,pitchwheel,40,2866,64,0
6265,1822.0,note_off,40,2866,64,320
6266,1822.666667,note_on,41,0,64,0
6267,1822.666667,note_off,41,0,64,320
6268,1823.333334,note_on,40,2457,64,0
6269,1823.333334,pitchwheel,40,2457,64,0
6270,1823.333334,note_off,40,2457,64,320
6271,1824.0,note_on,39,819,64,0
6272,1824.0,pitchwheel,39,819,64,0
6273,1824.0,note_off,39,819,64,320
6274,1824.666667,note_on,45,0,64,0
6275,1824.666667,note_off,45,0,64,320
6276,1826.0,note_on,40,2457,64,0
6277,1826.0,pitchwheel,40,2457,64,0
6278,1826.0,note_off,40,2457,64,320
6279,1826.666667,note_on,41,2457,64,0
6280,1826.666667,pitchwheel,41,2457,64,0
6281,1826.666667,note_off,41,2457,64,320
6282,1828.0,note_on,40,2457,64,0
6283,1828.0,pitchwheel,40,2457,64,0
6284,1828.0,note_off,40,2457,64,320
6285,1828.666667,note_on,45,2047,64,0
6286,1828.666667,pitchwheel,45,2047,64,0
6287,1828.666667,note_off,45,2047,64,640
6288,1830.0,note_on,44,2047,64,0
6289,1830.0,pitchwheel,44,2047,64,0
6290,1830.0,note_off,44,2047,64,320
6291,1830.666667,note_on,41,0,64,0
6292,1830.666667,note_off,41,0,64,320
6293,1831.333334,note_on,43,0,64,0
6294,1831.333334,note_off,43,0,64,320
6295,1832.0,note_on,44,0,64,0
6296,1832.0,note_off,44,0,64,320
6297,1832.666667,note_on,45,2047,64,0
6298,1832.666667,pitchwheel,45,2047,64,0
6299,1832.666667,note_off,45,2047,64,320
6300,1833.333334,note_on,50,819,64,0
6301,1833.333334,pitchwheel,50,819,64,0
6302,1833.333334,note_off,50,819,64,320
6303,1834.0,note_on,47,3685,64,0
6304,1834.0,pitchwheel,47,3685,64,0
6305,1834.0,note_off,47,3685,64,640
6306,1835.333334,note_on,50,0,64,0
6307,1835.333334,note_off,50,0,64,320
6308,1836.0,note_on,45,0,64,0
6309,1836.0,note_off,45,0,64,320
6310,1836.666667,note_on,45,1638,64,0
6311,1836.666667,pitchwheel,45,1638,64,0
6312,1836.666667,note_off,45,1638,64,320
6313,1837.333334,note_on,46,1638,64,0
6314,1837.333334,pitchwheel,46,1638,64,0
6315,1837.333334,note_off,46,1638,64,320
6316,1838.0,note_on,47,3685,64,0
6317,1838.0,pitchwheel,47,3685,64,0
6318,1838.0,note_off,47,3685,64,320
6319,1838.666667,note_on,48,819,64,0
6320,1838.666667,pitchwheel,48,819,64,0
6321,1838.666667,note_off,48,819,64,320
6322,1840.0,note_on,48,3276,64,0
6323,1840.0,pitchwheel,48,3276,64,0
6324,1840.0,note_off,48,3276,64,320
6325,1840.666667,note_on,53,0,64,0
6326,1840.666667,note_off,53,0,64,320
6327,1842.0,note_on,57,1638,64,0
6328,1842.0,pitchwheel,57,1638,64,0
6329,1842.0,note_off,57,1638,64,320
6330,1842.666667,note_on,56,0,64,0
6331,1842.666667,note_off,56,0,64,320
6332,1843.333334,note_on,50,2457,64,0
6333,1843.333334,pitchwheel,50,2457,64,0
6334,1843.333334,note_off,50,2457,64,320
6335,1844.0,note_on,46,409,64,0
6336,1844.0,pitchwheel,46,409,64,0
6337,1844.0,note_off,46,409,64,320
6338,1845.333334,note_on,43,409,64,0
6339,1845.333334,pitchwheel,43,409,64,0
6340,1845.333334,note_off,43,409,64,320
6341,1846.666667,note_on,40,0,64,0
6342,1846.666667,note_off,40,0,64,320
6343,1847.333334,note_on,35,3276,64,0
6344,1847.333334,pitchwheel,35,3276,64,0
6345,1847.333334,note_off,35,3276,64,320
6346,1848.0,note_on,33,3276,64,0
6347,1848.0,pitchwheel,33,3276,64,0
6348,1848.0,note_off,33,3276,64,320
6349,1848.666667,note_on,29,0,64,0
6350,1848.666667,note_off,29,0,64,320
6351,1849.333334,note_on,33,1638,64,0
6352,1849.333334,pitchwheel,33,1638,64,0
6353,1849.333334,note_off,33,1638,64,320
6354,1850.0,note_on,31,0,64,0
6355,1850.0,note_off,31,0,64,640
6356,1851.333334,note_on,33,0,64,0
6357,1851.333334,note_off,33,0,64,320
6358,1852.0,note_on,36,819,64,0
6359,1852.0,pitchwheel,36,819,64,0
6360,1852.0,note_off,36,819,64,320
6361,1852.666667,note_on,38,819,64,0
6362,1852.666667,pitchwheel,38,819,64,0
6363,1852.666667,note_off,38,819,64,320
6364,1853.333334,note_on,39,819,64,0
6365,1853.333334,pitchwheel,39,819,64,0
6366,1853.333334,note_off,39,819,64,320
6367,1854.666667,note_on,38,1228,64,0
6368,1854.666667,pitchwheel,38,1228,64,0
6369,1854.666667,note_off,38,1228,64,320
6370,1855.333334,note_on,35,2457,64,0
6371,1855.333334,pitchwheel,35,2457,64,0
6372,1855.333334,note_off,35,2457,64,320
6373,1856.0,note_on,33,2047,64,0
6374,1856.0,pitchwheel,33,2047,64,0
6375,1856.0,note_off,33,2047,64,320
6376,1856.666667,note_on,31,0,64,0
6377,1856.666667,note_off,31,0,64,320
6378,1857.333334,note_on,38,2457,64,0
6379,1857.333334,pitchwheel,38,2457,64,0
6380,1857.333334,note_off,38,2457,64,320
6381,1858.0,note_on,40,2457,64,0
6382,1858.0,pitchwheel,40,2457,64,0
6383,1858.0,note_off,40,2457,64,320
6384,1858.666667,note_on,36,3276,64,0
6385,1858.666667,pitchwheel,36,3276,64,0
6386,1858.666667,note_off,36,3276,64,320
6387,1859.333334,note_on,36,819,64,0
6388,1859.333334,pitchwheel,36,819,64,0
6389,1859.333334,note_off,36,819,64,320
6390,1860.0,note_on,35,3276,64,0
6391,1860.0,pitchwheel,35,3276,64,0
6392,1860.0,note_off,35,3276,64,320
6393,1860.666667,note_on,38,0,64,0
6394,1860.666667,note_off,38,0,64,320
6395,1861.333334,note_on,38,3685,64,0
6396,1861.333334,pitchwheel,38,3685,64,0
6397,1861.333334,note_off,38,3685,64,320
6398,1862.0,note_on,38,2457,64,0
6399,1862.0,pitchwheel,38,2457,64,0
6400,1862.0,note_off,38,2457,64,320
6401,1862.666667,note_on,33,3276,64,0
6402,1862.666667,pitchwheel,33,3276,64,0
6403,1862.666667,note_off,33,3276,64,320
6404,1863.333334,note_on,31,0,64,0
6405,1863.333334,note_off,31,0,64,320
6406,1864.0,note_on,33,2047,64,0
6407,1864.0,pitchwheel,33,2047,64,0
6408,1864.0,note_off,33,2047,64,320
6409,1864.666667,note_on,33,3276,64,0
6410,1864.666667,pitchwheel,33,3276,64,0
6411,1864.666667,note_off,33,3276,64,320
6412,1865.333334,note_on,33,2047,64,0
6413,1865.333334,pitchwheel,33,2047,64,0
6414,1865.333334,note_off,33,2047,64,320
6415,1866.666667,note_on,32,2047,64,0
6416,1866.666667,pitchwheel,32,2047,64,0
6417,1866.666667,note_off,32,2047,64,320
6418,1867.333334,note_on,29,0,64,0
6419,1867.333334,note_off,29,0,64,320
6420,1868.0,note_on,38,2457,64,0
6421,1868.0,pitchwheel,38,2457,64,0
6422,1868.0,note_off,38,2457,64,320
6423,1868.666667,note_on,33,1638,64,0
6424,1868.666667,pitchwheel,33,1638,64,0
6425,1868.666667,note_off,33,1638,64,320
6426,1869.333334,note_on,32,0,64,0
6427,1869.333334,note_off,32,0,64,320
6428,1870.0,note_on,29,0,64,0
6429,1870.0,note_off,29,0,64,320
6430,1870.666667,note_on,34,0,64,0
6431,1870.666667,note_off,34,0,64,320
6432,1872.0,note_on,32,0,64,0
6433,1872.0,note_off,32,0,64,320
6434,1873.333334,note_on,28,0,64,0
6435,1873.333334,note_off,28,0,64,320
6436,1874.0,note_on,35,3276,64,0
6437,1874.0,pitchwheel,35,3276,64,0
6438,1874.0,note_off,35,3276,64,320
6439,1874.666667,note_on,34,1638,64,0
6440,1874.666667,pitchwheel,34,1638,64,0
6441,1874.666667,note_off,34,1638,64,320
6442,1875.333334,note_on,29,0,64,0
6443,1875.333334,note_off,29,0,64,320
6444,1876.0,note_on,40,2866,64,0
6445,1876.0,pitchwheel,40,2866,64,0
6446,1876.0,note_off,40,2866,64,320
6447,1876.666667,note_on,38,819,64,0
6448,1876.666667,pitchwheel,38,819,64,0
6449,1876.666667,note_off,38,819,64,320
6450,1877.333334,note_on,38,0,64,0
6451,1877.333334,note_off,38,0,64,320
6452,1878.0,note_on,33,0,64,0
6453,1878.0,note_off,33,0,64,320
6454,1879.333334,note_on,38,819,64,0
6455,1879.333334,pitchwheel,38,819,64,0
6456,1879.333334,note_off,38,819,64,320
6457,1880.0,note_on,36,3276,64,0
6458,1880.0,pitchwheel,36,3276,64,0
6459,1880.0,note_off,36,3276,64,320
6460,1881.333334,note_on,38,1228,64,0
6461,1881.333334,pitchwheel,38,1228,64,0
6462,1881.333334,note_off,38,1228,64,320
6463,1882.0,note_on,35,2457,64,0
6464,1882.0,pitchwheel,35,2457,64,0
6465,1882.0,note_off,35,2457,64,320
6466,1882.666667,note_on,34,1638,64,0
6467,1882.666667,pitchwheel,34,1638,64,0
6468,1882.666667,note_off,34,1638,64,320
6469,1883.333334,note_on,37,0,64,0
6470,1883.333334,note_off,37,0,64,320
6471,1884.0,note_on,36,819,64,0
6472,1884.0,pitchwheel,36,819,64,0
6473,1884.0,note_off,36,819,64,320
6474,1884.666667,note_on,40,2457,64,0
6475,1884.666667,pitchwheel,40,2457,64,0
6476,1884.666667,note_off,40,2457,64,320
6477,1885.333334,note_on,39,819,64,0
6478,1885.333334,pitchwheel,39,819,64,0
6479,1885.333334,note_off,39,819,64,320
6480,1886.0,note_on,36,819,64,0
6481,1886.0,pitchwheel,36,819,64,0
6482,1886.0,note_off,36,819,64,320
6483,1886.666667,note_on,35,3276,64,0
6484,1886.666667,pitchwheel,35,3276,64,0
6485,1886.666667,note_off,35,3276,64,320
6486,1887.333334,note_on,38,0,64,0
6487,1887.333334,note_off,38,0,64,320
6488,1888.0,note_on,35,2457,64,0
6489,1888.0,pitchwheel,35,2457,64,0
6490,1888.0,note_off,35,2457,64,320
6491,1888.666667,note_on,38,2457,64,0
6492,1888.666667,pitchwheel,38,2457,64,0
6493,1888.666667,note_off,38,2457,64,320
6494,1889.333334,note_on,33,0,64,0
6495,1889.333334,note_off,33,0,64,320
6496,1890.0,note_on,31,0,64,0
6497,1890.0,note_off,31,0,64,320
6498,1890.666667,note_on,29,0,64,0
6499,1890.666667,note_off,29,0,64,320
6500,1891.333334,note_on,33,3276,64,0
6501,1891.333334,pitchwheel,33,3276,64,0
6502,1891.333334,note_off,33,3276,64,320
6503,1892.0,note_on,33,2047,64,0
6504,1892.0,pitchwheel,33,2047,64,0
6505,1892.0,note_off,33,2047,64,320
6506,1893.333334,note_on,33,1638,64,0
6507,1893.333334,pitchwheel,33,1638,64,0
6508,1893.333334,note_off,33,1638,64,320
6509,1894.0,note_on,36,2047,64,0
6510,1894.0,pitchwheel,36,2047,64,0
6511,1894.0,note_off,36,2047,64,320
6512,1895.333334,note_on,38,819,64,0
6513,1895.333334,pitchwheel,38,819,64,0
6514,1895.333334,note_off,38,819,64,320
6515,1896.0,note_on,41,2457,64,0
6516,1896.0,pitchwheel,41,2457,64,0
6517,1896.0,note_off,41,2457,64,320
6518,1897.333334,note_on,46,0,64,0
6519,1897.333334,note_off,46,0,64,320
6520,1898.666667,note_on,46,1638,64,0
6521,1898.666667,pitchwheel,46,1638,64,0
6522,1898.666667,note_off,46,1638,64,320
6523,1900.0,note_on,47,2047,64,0
6524,1900.0,pitchwheel,47,2047,64,0
6525,1900.0,note_off,47,2047,64,320
6526,1900.666667,note_on,52,2457,64,0
6527,1900.666667,pitchwheel,52,2457,64,0
6528,1900.666667,note_off,52,2457,64,320
6529,1901.333334,note_on,51,819,64,0
6530,1901.333334,pitchwheel,51,819,64,0
6531,1901.333334,note_off,51,819,64,320
6532,1902.0,note_on,53,0,64,0
6533,1902.0,note_off,53,0,64,320
6534,1902.666667,note_on,53,1228,64,0
6535,1902.666667,pitchwheel,53,1228,64,0
6536,1902.666667,note_off,53,1228,64,320
6537,1903.333334,note_on,52,2457,64,0
6538,1903.333334,pitchwheel,52,2457,64,0
6539,1903.333334,note_off,52,2457,64,320
6540,1904.0,note_on,51,819,64,0
6541,1904.0,pitchwheel,51,819,64,0
6542,1904.0,note_off,51,819,64,320
6543,1904.666667,note_on,57,0,64,0
6544,1904.666667,note_off,57,0,64,320
6545,1905.333334,note_on,55,1638,64,0
6546,1905.333334,pitchwheel,55,1638,64,0
6547,1905.333334,note_off,55,1638,64,320
6548,1906.0,note_on,55,0,64,0
6549,1906.0,note_off,55,0,64,320
6550,1906.666667,note_on,55,1638,64,0
6551,1906.666667,pitchwheel,55,1638,64,0
6552,1906.666667,note_off,55,1638,64,320
6553,1908.0,note_on,55,409,64,0
6554,1908.0,pitchwheel,55,409,64,0
6555,1908.0,note_off,55,409,64,320
6556,1908.666667,note_on,55,1638,64,0
6557,1908.666667,pitchwheel,55,1638,64,0
6558,1908.666667,note_off,55,1638,64,320
6559,1909.333334,note_on,60,819,64,0
6560,1909.333334,pitchwheel,60,819,64,0
6561,1909.333334,note_off,60,819,64,640
6562,1910.666667,note_on,53,0,64,0
6563,1910.666667,note_off,53,0,64,320
6564,1911.333334,note_on,57,1638,64,0
6565,1911.333334,pitchwheel,57,1638,64,0
6566,1911.333334,note_off,57,1638,64,320
6567,1912.0,note_on,58,1638,64,0
6568,1912.0,pitchwheel,58,1638,64,0
6569,1912.0,note_off,58,1638,64,320
6570,1912.666667,note_on,57,3276,64,0
6571,1912.666667,pitchwheel,57,3276,64,0
6572,1912.666667,note_off,57,3276,64,320
6573,1913.333334,note_on,59,3276,64,0
6574,1913.333334,pitchwheel,59,3276,64,0
6575,1913.333334,note_off,59,3276,64,320
6576,1914.0,note_on,53,0,64,0
6577,1914.0,note_off,53,0,64,320
6578,1914.666667,note_on,50,1228,64,0
6579,1914.666667,pitchwheel,50,1228,64,0
6580,1914.666667,note_off,50,1228,64,320
6581,1915.333334,note_on,50,3685,64,0
6582,1915.333334,pitchwheel,50,3685,64,0
6583,1915.333334,note_off,50,3685,64,320
6584,1916.0,note_on,53,0,64,0
6585,1916.0,note_off,53,0,64,320
6586,1916.666667,note_on,47,3276,64,0
6587,1916.666667,pitchwheel,47,3276,64,0
6588,1916.666667,note_off,47,3276,64,320
6589,1917.333334,note_on,44,0,64,0
6590,1917.333334,note_off,44,0,64,320
6591,1918.0,note_on,48,819,64,0
6592,1918.0,pitchwheel,48,819,64,0
6593,1918.0,note_off,48,819,64,320
6594,1918.666667,note_on,48,2047,64,0
6595,1918.666667,pitchwheel,48,2047,64,0
6596,1918.666667,note_off,48,2047,64,320
6597,1920.0,note_on,47,2047,64,0
6598,1920.0,pitchwheel,47,2047,64,0
6599,1920.0,note_off,47,2047,64,320
6600,1920.666667,note_on,53,0,64,0
6601,1920.666667,note_off,53,0,64,320
6602,1921.333334,note_on,52,1638,64,0
6603,1921.333334,pitchwheel,52,1638,64,0
6604,1921.333334,note_off,52,1638,64,320
6605,1922.0,note_on,47,3276,64,0
6606,1922.0,pitchwheel,47,3276,64,0
6607,1922.0,note_off,47,3276,64,320
6608,1922.666667,note_on,51,819,64,0
6609,1922.666667,pitchwheel,51,819,64,0
6610,1922.666667,note_off,51,819,64,320
6611,1923.333334,note_on,57,0,64,0
6612,1923.333334,note_off,57,0,64,320
6613,1924.0,note_on,58,0,64,0
6614,1924.0,note_off,58,0,64,320
6615,1925.333334,note_on,53,2457,64,0
6616,1925.333334,pitchwheel,53,2457,64,0
6617,1925.333334,note_off,53,2457,64,320
6618,1926.666667,note_on,56,2047,64,0
6619,1926.666667,pitchwheel,56,2047,64,0
6620,1926.666667,note_off,56,2047,64,320
6621,1927.333334,note_on,62,819,64,0
6622,1927.333334,pitchwheel,62,819,64,0
6623,1927.333334,note_off,62,819,64,320
6624,1928.0,note_on,65,2457,64,0
6625,1928.0,pitchwheel,65,2457,64,0
6626,1928.0,note_off,65,2457,64,320
6627,1928.666667,note_on,57,3276,64,0
6628,1928.666667,pitchwheel,57,3276,64,0
6629,1928.666667,note_off,57,3276,64,320
6630,1929.333334,note_on,57,2047,64,0
6631,1929.333334,pitchwheel,57,2047,64,0
6632,1929.333334,note_off,57,2047,64,320
6633,1930.0,note_on,55,0,64,0
6634,1930.0,note_off,55,0,64,320
6635,1930.666667,note_on,56,0,64,0
6636,1930.666667,note_off,56,0,64,320
6637,1931.333334,note_on,57,0,64,0
6638,1931.333334,note_off,57,0,64,320
6639,1932.666667,note_on,52,2457,64,0
6640,1932.666667,pitchwheel,52,2457,64,0
6641,1932.666667,note_off,52,2457,64,320
6642,1933.333334,note_on,49,0,64,0
6643,1933.333334,note_off,49,0,64,320
6644,1934.666667,note_on,45,1638,64,0
6645,1934.666667,pitchwheel,45,1638,64,0
6646,1934.666667,note_off,45,1638,64,320
6647,1935.333334,note_on,46,409,64,0
6648,1935.333334,pitchwheel,46,409,64,0
6649,1935.333334,note_off,46,409,64,320
6650,1936.0,note_on,46,0,64,0
6651,1936.0,note_off,46,0,64,320
6652,1936.666667,note_on,47,2047,64,0
6653,1936.666667,pitchwheel,47,2047,64,0
6654,1936.666667,note_off,47,2047,64,320
6655,1937.333334,note_on,48,819,64,0
6656,1937.333334,pitchwheel,48,819,64,0
6657,1937.333334,note_off,48,819,64,320
6658,1938.0,note_on,43,0,64,0
6659,1938.0,note_off,43,0,64,320
6660,1938.666667,note_on,46,1638,64,0
6661,1938.666667,pitchwheel,46,1638,64,0
6662,1938.666667,note_off,46,1638,64,320
6663,1939.333334,note_on,41,0,64,0
6664,1939.333334,note_off,41,0,64,320
6665,1940.0,note_on,45,2047,64,0
6666,1940.0,pitchwheel,45,2047,64,0
6667,1940.0,note_off,45,2047,64,320
6668,1940.666667,note_on,48,2047,64,0
6669,1940.666667,pitchwheel,48,2047,64,0
6670,1940.666667,note_off,48,2047,64,320
6671,1941.333334,note_on,44,0,64,0
6672,1941.333334,note_off,44,0,64,320
6673,1942.0,note_on,38,2457,64,0
6674,1942.0,pitchwheel,38,2457,64,0
6675,1942.0,note_off,38,2457,64,320
6676,1942.666667,note_on,33,0,64,0
6677,1942.666667,note_off,33,0,64,320
6678,1943.333334,note_on,33,1638,64,0
6679,1943.333334,pitchwheel,33,1638,64,0
6680,1943.333334,note_off,33,1638,64,320
6681,1944.0,note_on,36,3276,64,0
6682,1944.0,pitchwheel,36,3276,64,0
6683,1944.0,note_off,36,3276,64,320
6684,1944.666667,note_on,38,2457,64,0
6685,1944.666667,pitchwheel,38,2457,64,0
6686,1944.666667,note_off,38,2457,64,320
6687,1945.333334,note_on,38,1228,64,0
6688,1945.333334,pitchwheel,38,1228,64,0
6689,1945.333334,note_off,38,1228,64,320
6690,1946.666667,note_on,38,2457,64,0
6691,1946.666667,pitchwheel,38,2457,64,0
6692,1946.666667,note_off,38,2457,64,640
6693,1948.666667,note_on,43,0,64,0
6694,1948.666667,note_off,43,0,64,320
6695,1949.333334,note_on,48,3276,64,0
6696,1949.333334,pitchwheel,48,3276,64,0
6697,1949.333334,note_off,48,3276,64,320
6698,1950.0,note_on,52,0,64,0
6699,1950.0,note_off,52,0,64,320
6700,1950.666667,note_on,57,2047,64,0
6701,1950.666667,pitchwheel,57,2047,64,0
6702,1950.666667,note_off,57,2047,64,320
6703,1952.0,note_on,58,0,64,0
6704,1952.0,note_off,58,0,64,320
6705,1953.333334,note_on,59,2047,64,0
6706,1953.333334,pitchwheel,59,2047,64,0
6707,1953.333334,note_off,59,2047,64,320
6708,1954.0,note_on,64,2457,64,0
6709,1954.0,pitchwheel,64,2457,64,0
6710,1954.0,note_off,64,2457,64,320
6711,1954.666667,note_on,63,819,64,0
6712,1954.666667,pitchwheel,63,819,64,0
6713,1954.666667,note_off,63,819,64,320
6714,1955.333334,note_on,53,1228,64,0
6715,1955.333334,pitchwheel,53,1228,64,0
6716,1955.333334,note_off,53,1228,64,320
6717,1956.0,note_on,53,0,64,0
6718,1956.0,note_off,53,0,64,320
6719,1956.666667,note_on,57,1638,64,0
6720,1956.666667,pitchwheel,57,1638,64,0
6721,1956.666667,note_off,57,1638,64,320
6722,1957.333334,note_on,58,409,64,0
6723,1957.333334,pitchwheel,58,409,64,0
6724,1957.333334,note_off,58,409,64,320
6725,1958.0,note_on,57,0,64,0
6726,1958.0,note_off,57,0,64,320
6727,1958.666667,note_on,53,0,64,0
6728,1958.666667,note_off,53,0,64,320
6729,1959.333334,note_on,50,819,64,0
6730,1959.333334,pitchwheel,50,819,64,0
6731,1959.333334,note_off,50,819,64,640
6732,1961.333334,note_on,50,2457,64,0
6733,1961.333334,pitchwheel,50,2457,64,0
6734,1961.333334,note_off,50,2457,64,320
6735,1962.0,note_on,45,2047,64,0
6736,1962.0,pitchwheel,45,2047,64,0
6737,1962.0,note_off,45,2047,64,320
6738,1962.666667,note_on,44,0,64,0
6739,1962.666667,note_off,44,0,64,320
6740,1963.333334,note_on,44,2047,64,0
6741,1963.333334,pitchwheel,44,2047,64,0
6742,1963.333334,note_off,44,2047,64,320
6743,1964.0,note_on,50,0,64,0
6744,1964.0,note_off,50,0,64,320
6745,1964.666667,note_on,47,3276,64,0
6746,1964.666667,pitchwheel,47,3276,64,0
6747,1964.666667,note_off,47,3276,64,320
6748,1965.333334,note_on,45,0,64,0
6749,1965.333334,note_off,45,0,64,320
6750,1966.0,note_on,48,2047,64,0
6751,1966.0,pitchwheel,48,2047,64,0
6752,1966.0,note_off,48,2047,64,320
6753,1966.666667,note_on,52,2457,64,0
6754,1966.666667,pitchwheel,52,2457,64,0
6755,1966.666667,note_off,52,2457,64,320
6756,1967.333334,note_on,55,409,64,0
6757,1967.333334,pitchwheel,55,409,64,0
6758,1967.333334,note_off,55,409,64,320
6759,1968.0,note_on,56,0,64,0
6760,1968.0,note_off,56,0,64,320
6761,1968.666667,note_on,53,0,64,0
6762,1968.666667,note_off,53,0,64,320
6763,1969.333334,note_on,55,1638,64,0
6764,1969.333334,pitchwheel,55,1638,64,0
6765,1969.333334,note_off,55,1638,64,320
6766,1970.0,note_on,57,1638,64,0
6767,1970.0,pitchwheel,57,1638,64,0
6768,1970.0,note_off,57,1638,64,320
6769,1970.666667,note_on,58,1638,64,0
6770,1970.666667,pitchwheel,58,1638,64,0
6771,1970.666667,note_off,58,1638,64,320
6772,1971.333334,note_on,58,409,64,0
6773,1971.333334,pitchwheel,58,409,64,0
6774,1971.333334,note_off,58,409,64,320
6775,1972.0,note_on,57,3276,64,0
6776,1972.0,pitchwheel,57,3276,64,0
6777,1972.0,note_off,57,3276,64,320
6778,1973.333334,note_on,58,1638,64,0
6779,1973.333334,pitchwheel,58,1638,64,0
6780,1973.333334,note_off,58,1638,64,320
6781,1974.0,note_on,52,1638,64,0
6782,1974.0,pitchwheel,52,1638,64,0
6783,1974.0,note_off,52,1638,64,320
6784,1974.666667,note_on,53,0,64,0
6785,1974.666667,note_off,53,0,64,320
6786,1975.333334,note_on,57,1638,64,0
6787,1975.333334,pitchwheel,57,1638,64,0
6788,1975.333334,note_off,57,1638,64,320
6789,1976.0,note_on,56,0,64,0
6790,1976.0,note_off,56,0,64,320
6791,1976.666667,note_on,50,2457,64,0
6792,1976.666667,pitchwheel,50,2457,64,0
6793,1976.666667,note_off,50,2457,64,320
6794,1977.333334,note_on,52,2457,64,0
6795,1977.333334,pitchwheel,52,2457,64,0
6796,1977.333334,note_off,52,2457,64,320
6797,1978.666667,note_on,51,819,64,0
6798,1978.666667,pitchwheel,51,819,64,0
6799,1978.666667,note_off,51,819,64,320
6800,1980.0,note_on,57,0,64,0
6801,1980.0,note_off,57,0,64,320
6802,1980.666667,note_on,55,0,64,0
6803,1980.666667,note_off,55,0,64,320
6804,1981.333334,note_on,58,0,64,0
6805,1981.333334,note_off,58,0,64,320
6806,1982.0,note_on,60,2047,64,0
6807,1982.0,pitchwheel,60,2047,64,0
6808,1982.0,note_off,60,2047,64,320
6809,1982.666667,note_on,60,819,64,0
6810,1982.666667,pitchwheel,60,819,64,0
6811,1982.666667,note_off,60,819,64,320
6812,1983.333334,note_on,59,3276,64,0
6813,1983.333334,pitchwheel,59,3276,64,0
6814,1983.333334,note_off,59,3276,64,320
6815,1984.0,note_on,55,1638,64,0
6816,1984.0,pitchwheel,55,1638,64,0
6817,1984.0,note_off,55,1638,64,320
6818,1984.666667,note_on,57,0,64,0
6819,1984.666667,note_off,57,0,64,320
6820,1986.0,note_on,52,2457,64,0
6821,1986.0,pitchwheel,52,2457,64,0
6822,1986.0,note_off,52,2457,64,320
6823,1986.666667,note_on,51,819,64,0
6824,1986.666667,pitchwheel,51,819,64,0
6825,1986.666667,note_off,51,819,64,320
6826,1988.0,note_on,50,819,64,0
6827,1988.0,pitchwheel,50,819,64,0
6828,1988.0,note_off,50,819,64,320
6829,1988.666667,note_on,45,2047,64,0
6830,1988.666667,pitchwheel,45,2047,64,0
6831,1988.666667,note_off,45,2047,64,640
6832,1990.0,note_on,41,0,64,0
6833,1990.0,note_off,41,0,64,320
6834,1990.666667,note_on,43,2866,64,0
6835,1990.666667,pitchwheel,43,2866,64,0
6836,1990.666667,note_off,43,2866,64,320
6837,1991.333334,note_on,38,819,64,0
6838,1991.333334,pitchwheel,38,819,64,0
6839,1991.333334,note_off,38,819,64,320
6840,1992.0,note_on,36,3276,64,0
6841,1992.0,pitchwheel,36,3276,64,0
6842,1992.0,note_off,36,3276,64,320
6843,1992.666667,note_on,31,2866,64,0
6844,1992.666667,pitchwheel,31,2866,64,0
6845,1992.666667,note_off,31,2866,64,320
6846,1993.333334,note_on,40,2457,64,0
6847,1993.333334,pitchwheel,40,2457,64,0
6848,1993.333334,note_off,40,2457,64,320
6849,1994.0,note_on,35,3685,64,0
6850,1994.0,pitchwheel,35,3685,64,0
6851,1994.0,note_off,35,3685,64,320
6852,1994.666667,note_on,33,3276,64,0
6853,1994.666667,pitchwheel,33,3276,64,0
6854,1994.666667,note_off,33,3276,64,320
6855,1995.333334,note_on,38,0,64,0
6856,1995.333334,note_off,38,0,64,320
6857,1996.0,note_on,33,0,64,0
6858,1996.0,note_off,33,0,64,320
6859,1996.666667,note_on,35,3276,64,0
6860,1996.666667,pitchwheel,35,3276,64,0
6861,1996.666667,note_off,35,3276,64,320
6862,1997.333334,note_on,34,1638,64,0
6863,1997.333334,pitchwheel,34,1638,64,0
6864,1997.333334,note_off,34,1638,64,320
6865,1998.0,note_on,29,1228,64,0
6866,1998.0,pitchwheel,29,1228,64,0
6867,1998.0,note_off,29,1228,64,320
6868,1998.666667,note_on,29,0,64,0
6869,1998.666667,note_off,29,0,64,320
6870,2000.0,note_on,28,0,64,0
6871,2000.0,note_off,28,0,64,320
6872,2000.666667,note_on,29,0,64,0
6873,2000.666667,note_off,29,0,64,320
6874,2002.0,note_on,33,1638,64,0
6875,2002.0,pitchwheel,33,1638,64,0
6876,2002.0,note_off,33,1638,64,320
6877,2002.666667,note_on,32,0,64,0
6878,2002.666667,note_off,32,0,64,320
6879,2003.333334,note_on,36,2047,64,0
6880,2003.333334,pitchwheel,36,2047,64,0
6881,2003.333334,note_off,36,2047,64,320
6882,2004.0,note_on,35,2457,64,0
6883,2004.0,pitchwheel,35,2457,64,0
6884,2004.0,note_off,35,2457,64,320
6885,2005.333334,note_on,31,1638,64,0
6886,2005.333334,pitchwheel,31,1638,64,0
6887,2005.333334,note_off,31,1638,64,320
6888,2006.666667,note_on,32,2047,64,0
6889,2006.666667,pitchwheel,32,2047,64,0
6890,2006.666667,note_off,32,2047,64,320
6891,2007.333334,note_on,31,0,64,0
6892,2007.333334,note_off,31,0,64,320
6893,2008.0,note_on,34,1638,64,0
6894,2008.0,pitchwheel,34,1638,64,0
6895,2008.0,note_off,34,1638,64,320
6896,2008.666667,note_on,36,2047,64,0
6897,2008.666667,pitchwheel,36,2047,64,0
6898,2008.666667,note_off,36,2047,64,320
6899,2009.333334,note_on,36,819,64,0
6900,2009.333334,pitchwheel,36,819,64,0
6901,2009.333334,note_off,36,819,64,320
6902,2010.0,note_on,35,3276,64,0
6903,2010.0,pitchwheel,35,3276,64,0
6904,2010.0,note_off,35,3276,64,320
6905,2010.666667,note_on,34,1638,64,0
6906,2010.666667,pitchwheel,34,1638,64,0
6907,2010.666667,note_off,34,1638,64,320
6908,2011.333334,note_on,33,0,64,0
6909,2011.333334,note_off,33,0,64,320
6910,2012.0,note_on,38,3685,64,0
6911,2012.0,pitchwheel,38,3685,64,0
6912,2012.0,note_off,38,3685,64,320
6913,2012.666667,note_on,40,2457,64,0
6914,2012.666667,pitchwheel,40,2457,64,0
6915,2012.666667,note_off,40,2457,64,320
6916,2013.333334,note_on,39,819,64,0
6917,2013.333334,pitchwheel,39,819,64,0
6918,2013.333334,note_off,39,819,64,320
6919,2014.666667,note_on,38,0,64,0
6920,2014.666667,note_off,38,0,64,320
6921,2015.333334,note_on,35,2457,64,0
6922,2015.333334,pitchwheel,35,2457,64,0
6923,2015.333334,note_off,35,2457,64,320
6924,2016.0,note_on,34,1638,64,0
6925,2016.0,pitchwheel,34,1638,64,0
6926,2016.0,note_off,34,1638,64,320
6927,2016.666667,note_on,32,2047,64,0
6928,2016.666667,pitchwheel,32,2047,64,0
6929,2016.666667,note_off,32,2047,64,320
6930,2017.333334,note_on,38,2457,64,0
6931,2017.333334,pitchwheel,38,2457,64,0
6932,2017.333334,note_off,38,2457,64,320
6933,2018.0,note_on,38,819,64,0
6934,2018.0,pitchwheel,38,819,64,0
6935,2018.0,note_off,38,819,64,320
6936,2018.666667,note_on,39,819,64,0
6937,2018.666667,pitchwheel,39,819,64,0
6938,2018.666667,note_off,39,819,64,320
6939,2019.333334,note_on,43,2866,64,0
6940,2019.333334,pitchwheel,43,2866,64,0
6941,2019.333334,note_off,43,2866,64,320
6942,2020.0,note_on,43,0,64,0
6943,2020.0,note_off,43,0,64,320
6944,2020.666667,note_on,38,0,64,0
6945,2020.666667,note_off,38,0,64,320
6946,2021.333334,note_on,38,819,64,0
6947,2021.333334,pitchwheel,38,819,64,0
6948,2021.333334,note_off,38,819,64,320
6949,2022.0,note_on,38,2457,64,0
6950,2022.0,pitchwheel,38,2457,64,0
6951,2022.0,note_off,38,2457,64,320
6952,2022.666667,note_on,36,2047,64,0
6953,2022.666667,pitchwheel,36,2047,64,0
6954,2022.666667,note_off,36,2047,64,320
6955,2023.333334,note_on,35,3276,64,0
6956,2023.333334,pitchwheel,35,3276,64,0
6957,2023.333334,note_off,35,3276,64,320
6958,2024.0,note_on,36,819,64,0
6959,2024.0,pitchwheel,36,819,64,0
6960,2024.0,note_off,36,819,64,320
6961,2024.666667,note_on,41,1228,64,0
6962,2024.666667,pitchwheel,41,1228,64,0
6963,2024.666667,note_off,41,1228,64,320
6964,2025.333334,note_on,41,0,64,0
6965,2025.333334,note_off,41,0,64,320
6966,2026.666667,note_on,40,0,64,0
6967,2026.666667,note_off,40,0,64,320
6968,2027.333334,note_on,41,0,64,0
6969,2027.333334,note_off,41,0,64,640
6970,2028.666667,note_on,38,819,64,0
6971,2028.666667,pitchwheel,38,819,64,0
6972,2028.666667,note_off,38,819,64,320
6973,2029.333334,note_on,38,2457,64,0
6974,2029.333334,pitchwheel,38,2457,64,0
6975,2029.333334,note_off,38,2457,64,320
6976,2030.666667,note_on,40,2457,64,0
6977,2030.666667,pitchwheel,40,2457,64,0
6978,2030.666667,note_off,40,2457,64,320
6979,2032.0,note_on,36,3276,64,0
6980,2032.0,pitchwheel,36,3276,64,0
6981,2032.0,note_off,36,3276,64,320
6982,2033.333334,note_on,32,2047,64,0
6983,2033.333334,pitchwheel,32,2047,64,0
6984,2033.333334,note_off,32,2047,64,320
6985,2034.0,note_on,35,3276,64,0
6986,2034.0,pitchwheel,35,3276,64,0
6987,2034.0,note_off,35,3276,64,320
6988,2034.666667,note_on,34,0,64,0
6989,2034.666667,note_off,34,0,64,320
6990,2035.333334,note_on,36,2047,64,0
6991,2035.333334,pitchwheel,36,2047,64,0
6992,2035.333334,note_off,36,2047,64,320
6993,2036.0,note_on,36,819,64,0
6994,2036.0,pitchwheel,36,819,64,0
6995,2036.0,note_off,36,819,64,320
6996,2036.666667,note_on,38,819,64,0
6997,2036.666667,pitchwheel,38,819,64,0
6998,2036.666667,note_off,38,819,64,320
6999,2037.333334,note_on,36,819,64,0
7000,2037.333334,pitchwheel,36,819,64,0
7001,2037.333334,note_off,36,819,64,320
7002,2038.0,note_on,33,0,64,0
7003,2038.0,note_off,33,0,64,320
7004,2039.333334,note_on,33,1638,64,0
7005,2039.333334,pitchwheel,33,1638,64,0
7006,2039.333334,note_off,33,1638,64,320
7007,2040.0,note_on,31,0,64,0
7008,2040.0,note_off,31,0,64,320
7009,2041.333334,note_on,31,0,64,0
7010,2041.333334,note_off,31,0,64,320
7011,2042.0,note_on,35,2457,64,0
7012,2042.0,pitchwheel,35,2457,64,0
7013,2042.0,note_off,35,2457,64,320
7014,2042.666667,note_on,34,0,64,0
7015,2042.666667,note_off,34,0,64,320
7016,2043.333334,note_on,33,3276,64,0
7017,2043.333334,pitchwheel,33,3276,64,0
7018,2043.333334,note_off,33,3276,64,320
7019,2044.0,note_on,31,2866,64,0
7020,2044.0,pitchwheel,31,2866,64,0
7021,2044.0,note_off,31,2866,64,320
7022,2044.666667,note_on,31,0,64,0
7023,2044.666667,note_off,31,0,64,320
7024,2045.333334,note_on,31,1638,64,0
7025,2045.333334,pitchwheel,31,1638,64,0
7026,2045.333334,note_off,31,1638,64,320
7027,2046.0,note_on,31,2866,64,0
7028,2046.0,pitchwheel,31,2866,64,0
7029,2046.0,note_off,31,2866,64,320
7030,2046.666667,note_on,31,0,64,0
7031,2046.666667,note_off,31,0,64,320
7032,2047.333334,note_on,38,0,64,0
7033,2047.333334,note_off,38,0,64,640
7034,2048.666667,note_on,38,2457,64,0
7035,2048.666667,pitchwheel,38,2457,64,0
7036,2048.666667,note_off,38,2457,64,320
7037,2049.333334,note_on,33,0,64,0
7038,2049.333334,note_off,33,0,64,320
7039,2050.0,note_on,40,2457,64,0
7040,2050.0,pitchwheel,40,2457,64,0
7041,2050.0,note_off,40,2457,64,320
7042,2050.666667,note_on,44,0,64,0
7043,2050.666667,note_off,44,0,64,320
7044,2051.333334,note_on,41,1228,64,0
7045,2051.333334,pitchwheel,41,1228,64,0
7046,2051.333334,note_off,41,1228,64,320
7047,2052.0,note_on,41,0,64,0
7048,2052.0,note_off,41,0,64,320
7049,2053.333334,note_on,43,0,64,0
7050,2053.333334,note_off,43,0,64,320
7051,2054.0,note_on,48,2047,64,0
7052,2054.0,pitchwheel,48,2047,64,0
7053,2054.0,note_off,48,2047,64,320
7054,2055.333334,note_on,43,0,64,0
7055,2055.333334,note_off,43,0,64,640
7056,2056.666667,note_on,45,0,64,0
7057,2056.666667,note_off,45,0,64,320
7058,2057.333334,note_on,46,0,64,0
7059,2057.333334,note_off,46,0,64,320
7060,2058.666667,note_on,47,3685,64,0
7061,2058.666667,pitchwheel,47,3685,64,0
7062,2058.666667,note_off,47,3685,64,320
7063,2060.0,note_on,47,2047,64,0
7064,2060.0,pitchwheel,47,2047,64,0
7065,2060.0,note_off,47,2047,64,320
7066,2060.666667,note_on,52,2457,64,0
7067,2060.666667,pitchwheel,52,2457,64,0
7068,2060.666667,note_off,52,2457,64,320
7069,2061.333334,note_on,53,2457,64,0
7070,2061.333334,pitchwheel,53,2457,64,0
7071,2061.333334,note_off,53,2457,64,320
7072,2062.0,note_on,48,819,64,0
7073,2062.0,pitchwheel,48,819,64,0
7074,2062.0,note_off,48,819,64,320
7075,2062.666667,note_on,47,3685,64,0
7076,2062.666667,pitchwheel,47,3685,64,0
7077,2062.666667,note_off,47,3685,64,320
7078,2063.333334,note_on,52,2457,64,0
7079,2063.333334,pitchwheel,52,2457,64,0
7080,2063.333334,note_off,52,2457,64,640
7081,2064.666667,note_on,57,0,64,0
7082,2064.666667,note_off,57,0,64,320
7083,2065.333334,note_on,62,3685,64,0
7084,2065.333334,pitchwheel,62,3685,64,0
7085,2065.333334,note_off,62,3685,64,320
7086,2066.0,note_on,62,819,64,0
7087,2066.0,pitchwheel,62,819,64,0
7088,2066.0,note_off,62,819,64,320
7089,2066.666667,note_on,59,3276,64,0
7090,2066.666667,pitchwheel,59,3276,64,0
7091,2066.666667,note_off,59,3276,64,320
7092,2068.0,note_on,62,0,64,0
7093,2068.0,note_off,62,0,64,320
7094,2068.666667,note_on,55,1638,64,0
7095,2068.666667,pitchwheel,55,1638,64,0
7096,2068.666667,note_off,55,1638,64,320
7097,2069.333334,note_on,59,2457,64,0
7098,2069.333334,pitchwheel,59,2457,64,0
7099,2069.333334,note_off,59,2457,64,320
7100,2070.0,note_on,61,0,64,0
7101,2070.0,note_off,61,0,64,320
7102,2070.666667,note_on,62,2457,64,0
7103,2070.666667,pitchwheel,62,2457,64,0
7104,2070.666667,note_off,62,2457,64,320
7105,2071.333334,note_on,59,3276,64,0
7106,2071.333334,pitchwheel,59,3276,64,0
7107,2071.333334,note_off,59,3276,64,320
7108,2072.0,note_on,58,1638,64,0
7109,2072.0,pitchwheel,58,1638,64,0
7110,2072.0,note_off,58,1638,64,320
7111,2072.666667,note_on,55,1638,64,0
7112,2072.666667,pitchwheel,55,1638,64,0
7113,2072.666667,note_off,55,1638,64,320
7114,2073.333334,note_on,55,409,64,0
7115,2073.333334,pitchwheel,55,409,64,0
7116,2073.333334,note_off,55,409,64,320
7117,2074.0,note_on,53,0,64,0
7118,2074.0,note_off,53,0,64,320
7119,2074.666667,note_on,58,1638,64,0
7120,2074.666667,pitchwheel,58,1638,64,0
7121,2074.666667,note_off,58,1638,64,320
7122,2075.333334,note_on,62,3685,64,0
7123,2075.333334,pitchwheel,62,3685,64,0
7124,2075.333334,note_off,62,3685,64,320
7125,2076.0,note_on,60,2047,64,0
7126,2076.0,pitchwheel,60,2047,64,0
7127,2076.0,note_off,60,2047,64,320
7128,2076.666667,note_on,57,1638,64,0
7129,2076.666667,pitchwheel,57,1638,64,0
7130,2076.666667,note_off,57,1638,64,320
7131,2077.333334,note_on,60,819,64,0
7132,2077.333334,pitchwheel,60,819,64,0
7133,2077.333334,note_off,60,819,64,320
7134,2078.0,note_on,53,0,64,0
7135,2078.0,note_off,53,0,64,320
7136,2078.666667,note_on,52,2866,64,0
7137,2078.666667,pitchwheel,52,2866,64,0
7138,2078.666667,note_off,52,2866,64,320
7139,2080.0,note_on,51,819,64,0
7140,2080.0,pitchwheel,51,819,64,0
7141,2080.0,note_off,51,819,64,320
7142,2080.666667,note_on,53,0,64,0
7143,2080.666667,note_off,53,0,64,320
7144,2081.333334,note_on,48,2047,64,0
7145,2081.333334,pitchwheel,48,2047,64,0
7146,2081.333334,note_off,48,2047,64,320
7147,2082.0,note_on,52,2457,64,0
7148,2082.0,pitchwheel,52,2457,64,0
7149,2082.0,note_off,52,2457,64,320
7150,2082.666667,note_on,48,3276,64,0
7151,2082.666667,pitchwheel,48,3276,64,0
7152,2082.666667,note_off,48,3276,64,320
7153,2083.333334,note_on,47,2047,64,0
7154,2083.333334,pitchwheel,47,2047,64,0
7155,2083.333334,note_off,47,2047,64,320
7156,2084.0,note_on,46,0,64,0
7157,2084.0,note_off,46,0,64,320
7158,2085.333334,note_on,47,3685,64,0
7159,2085.333334,pitchwheel,47,3685,64,0
7160,2085.333334,note_off,47,3685,64,320
7161,2086.666667,note_on,53,0,64,0
7162,2086.666667,note_off,53,0,64,320
7163,2087.333334,note_on,50,819,64,0
7164,2087.333334,pitchwheel,50,819,64,0
7165,2087.333334,note_off,50,819,64,320
7166,2088.0,note_on,51,819,64,0
7167,2088.0,pitchwheel,51,819,64,0
7168,2088.0,note_off,51,819,64,320
7169,2088.666667,note_on,48,819,64,0
7170,2088.666667,pitchwheel,48,819,64,0
7171,2088.666667,note_off,48,819,64,320
7172,2089.333334,note_on,48,2047,64,0
7173,2089.333334,pitchwheel,48,2047,64,0
7174,2089.333334,note_off,48,2047,64,320
7175,2090.0,note_on,43,0,64,0
7176,2090.0,note_off,43,0,64,320
7177,2090.666667,note_on,44,0,64,0
7178,2090.666667,note_off,44,0,64,320
7179,2091.333334,note_on,45,0,64,0
7180,2091.333334,note_off,45,0,64,320
7181,2092.666667,note_on,47,3276,64,0
7182,2092.666667,pitchwheel,47,3276,64,0
7183,2092.666667,note_off,47,3276,64,320
7184,2093.333334,note_on,47,3685,64,0
7185,2093.333334,pitchwheel,47,3685,64,0
7186,2093.333334,note_off,47,3685,64,320
7187,2094.666667,note_on,47,3276,64,0
7188,2094.666667,pitchwheel,47,3276,64,0
7189,2094.666667,note_off,47,3276,64,320
7190,2095.333334,note_on,46,409,64,0
7191,2095.333334,pitchwheel,46,409,64,0
7192,2095.333334,note_off,46,409,64,320
7193,2096.0,note_on,50,0,64,0
7194,2096.0,note_off,50,0,64,320
7195,2096.666667,note_on,47,2047,64,0
7196,2096.666667,pitchwheel,47,2047,64,0
7197,2096.666667,note_off,47,2047,64,320
7198,2097.333334,note_on,53,1228,64,0
7199,2097.333334,pitchwheel,53,1228,64,0
7200,2097.333334,note_off,53,1228,64,320
7201,2098.0,note_on,57,1638,64,0
7202,2098.0,pitchwheel,57,1638,64,0
7203,2098.0,note_off,57,1638,64,320
7204,2098.666667,note_on,56,0,64,0
7205,2098.666667,note_off,56,0,64,320
7206,2099.333334,note_on,53,0,64,0
7207,2099.333334,note_off,53,0,64,320
7208,2100.0,note_on,57,1638,64,0
7209,2100.0,pitchwheel,57,1638,64,0
7210,2100.0,note_off,57,1638,64,320
7211,2100.666667,note_on,60,2047,64,0
7212,2100.666667,pitchwheel,60,2047,64,0
7213,2100.666667,note_off,60,2047,64,320
7214,2101.333334,note_on,60,3276,64,0
7215,2101.333334,pitchwheel,60,3276,64,0
7216,2101.333334,note_off,60,3276,64,320
7217,2102.0,note_on,62,2457,64,0
7218,2102.0,pitchwheel,62,2457,64,0
7219,2102.0,note_off,62,2457,64,320
7220,2102.666667,note_on,57,0,64,0
7221,2102.666667,note_off,57,0,64,320
7222,2103.333334,note_on,55,0,64,0
7223,2103.333334,note_off,55,0,64,320
7224,2104.0,note_on,55,409,64,0
7225,2104.0,pitchwheel,55,409,64,0
7226,2104.0,note_off,55,409,64,320
7227,2104.666667,note_on,55,1638,64,0
7228,2104.666667,pitchwheel,55,1638,64,0
7229,2104.666667,note_off,55,1638,64,320
7230,2105.333334,note_on,55,2866,64,0
7231,2105.333334,pitchwheel,55,2866,64,0
7232,2105.333334,note_off,55,2866,64,320
7233,2106.666667,note_on,55,0,64,0
7234,2106.666667,note_off,55,0,64,320
7235,2107.333334,note_on,50,2457,64,0
7236,2107.333334,pitchwheel,50,2457,64,0
7237,2107.333334,note_off,50,2457,64,320
7238,2108.666667,note_on,50,819,64,0
7239,2108.666667,pitchwheel,50,819,64,0
7240,2108.666667,note_off,50,819,64,320
7241,2109.333334,note_on,50,2457,64,0
7242,2109.333334,pitchwheel,50,2457,64,0
7243,2109.333334,note_off,50,2457,64,320
7244,2110.0,note_on,50,3685,64,0
7245,2110.0,pitchwheel,50,3685,64,0
7246,2110.0,note_off,50,3685,64,320
7247,2110.666667,note_on,46,0,64,0
7248,2110.666667,note_off,46,0,64,320
7249,2112.0,note_on,46,1638,64,0
7250,2112.0,pitchwheel,46,1638,64,0
7251,2112.0,note_off,46,1638,64,320
7252,2113.333334,note_on,48,2047,64,0
7253,2113.333334,pitchwheel,48,2047,64,0
7254,2113.333334,note_off,48,2047,64,320
7255,2114.0,note_on,52,2457,64,0
7256,2114.0,pitchwheel,52,2457,64,0
7257,2114.0,note_off,52,2457,64,320
7258,2114.666667,note_on,53,2457,64,0
7259,2114.666667,pitchwheel,53,2457,64,0
7260,2114.666667,note_off,53,2457,64,320
7261,2115.333334,note_on,48,819,64,0
7262,2115.333334,pitchwheel,48,819,64,0
7263,2115.333334,note_off,48,819,64,320
7264,2116.0,note_on,48,2047,64,0
7265,2116.0,pitchwheel,48,2047,64,0
7266,2116.0,note_off,48,2047,64,320
7267,2116.666667,note_on,45,1638,64,0
7268,2116.666667,pitchwheel,45,1638,64,0
7269,2116.666667,note_off,45,1638,64,320
7270,2117.333334,note_on,47,2457,64,0
7271,2117.333334,pitchwheel,47,2457,64,0
7272,2117.333334,note_off,47,2457,64,320
7273,2118.0,note_on,45,0,64,0
7274,2118.0,note_off,45,0,64,320
7275,2118.666667,note_on,48,2047,64,0
7276,2118.666667,pitchwheel,48,2047,64,0
7277,2118.666667,note_off,48,2047,64,320
7278,2119.333334,note_on,43,0,64,0
7279,2119.333334,note_off,43,0,64,320
7280,2120.0,note_on,47,3276,64,0
7281,2120.0,pitchwheel,47,3276,64,0
7282,2120.0,note_off,47,3276,64,320
7283,2121.333334,note_on,50,3685,64,0
7284,2121.333334,pitchwheel,50,3685,64,0
7285,2121.333334,note_off,50,3685,64,320
7286,2122.0,note_on,45,2047,64,0
7287,2122.0,pitchwheel,45,2047,64,0
7288,2122.0,note_off,45,2047,64,320
7289,2122.666667,note_on,46,1638,64,0
7290,2122.666667,pitchwheel,46,1638,64,0
7291,2122.666667,note_off,46,1638,64,320
7292,2123.333334,note_on,44,2047,64,0
7293,2123.333334,pitchwheel,44,2047,64,0
7294,2123.333334,note_off,44,2047,64,320
7295,2124.0,note_on,38,3685,64,0
7296,2124.0,pitchwheel,38,3685,64,0
7297,2124.0,note_off,38,3685,64,320
7298,2124.666667,note_on,33,1638,64,0
7299,2124.666667,pitchwheel,33,1638,64,0
7300,2124.666667,note_off,33,1638,64,320
7301,2125.333334,note_on,33,2047,64,0
7302,2125.333334,pitchwheel,33,2047,64,0
7303,2125.333334,note_off,33,2047,64,320
7304,2126.0,note_on,29,0,64,0
7305,2126.0,note_off,29,0,64,320
7306,2126.666667,note_on,38,1228,64,0
7307,2126.666667,pitchwheel,38,1228,64,0
7308,2126.666667,note_off,38,1228,64,320
7309,2127.333334,note_on,43,409,64,0
7310,2127.333334,pitchwheel,43,409,64,0
7311,2127.333334,note_off,43,409,64,320
7312,2128.0,note_on,45,3276,64,0
7313,2128.0,pitchwheel,45,3276,64,0
7314,2128.0,note_off,45,3276,64,320
7315,2128.666667,note_on,41,0,64,0
7316,2128.666667,note_off,41,0,64,320
7317,2129.333334,note_on,46,409,64,0
7318,2129.333334,pitchwheel,46,409,64,0
7319,2129.333334,note_off,46,409,64,320
7320,2130.0,note_on,47,3276,64,0
7321,2130.0,pitchwheel,47,3276,64,0
7322,2130.0,note_off,47,3276,64,320
7323,2130.666667,note_on,46,1638,64,0
7324,2130.666667,pitchwheel,46,1638,64,0
7325,2130.666667,note_off,46,1638,64,320
7326,2131.333334,note_on,43,1638,64,0
7327,2131.333334,pitchwheel,43,1638,64,0
7328,2131.333334,note_off,43,1638,64,320
7329,2132.0,note_on,43,2866,64,0
7330,2132.0,pitchwheel,43,2866,64,0
7331,2132.0,note_off,43,2866,64,320
7332,2133.333333,note_on,40,0,64,0
7333,2133.333333,note_off,40,0,64,320
7334,2134.0,note_on,41,0,64,0
7335,2134.0,note_off,41,0,64,640
7336,2135.333333,note_on,43,0,64,0
7337,2135.333333,note_off,43,0,64,320
7338,2136.0,note_on,44,0,64,0
7339,2136.0,note_off,44,0,64,320
7340,2136.666666,note_on,41,0,64,0
7341,2136.666666,note_off,41,0,64,320
7342,2137.333333,note_on,43,0,64,0
7343,2137.333333,note_off,43,0,64,320
7344,2138.666666,note_on,43,409,64,0
7345,2138.666666,pitchwheel,43,409,64,0
7346,2138.666666,note_off,43,409,64,320
7347,2140.0,note_on,43,0,64,0
7348,2140.0,note_off,43,0,64,320
7349,2140.666666,note_on,45,1638,64,0
7350,2140.666666,pitchwheel,45,1638,64,0
7351,2140.666666,note_off,45,1638,64,320
7352,2141.333333,note_on,46,0,64,0
7353,2141.333333,note_off,46,0,64,320
7354,2142.0,note_on,41,0,64,0
7355,2142.0,note_off,41,0,64,320
7356,2142.666666,note_on,41,1228,64,0
7357,2142.666666,pitchwheel,41,1228,64,0
7358,2142.666666,note_off,41,1228,64,320
7359,2143.333333,note_on,43,0,64,0
7360,2143.333333,note_off,43,0,64,320
7361,2144.0,note_on,43,409,64,0
7362,2144.0,pitchwheel,43,409,64,0
7363,2144.0,note_off,43,409,64,320
7364,2144.666666,note_on,45,0,64,0
7365,2144.666666,note_off,45,0,64,320
7366,2146.0,note_on,47,3276,64,0
7367,2146.0,pitchwheel,47,3276,64,0
7368,2146.0,note_off,47,3276,64,320
7369,2146.666666,note_on,48,3276,64,0
7370,2146.666666,pitchwheel,48,3276,64,0
7371,2146.666666,note_off,48,3276,64,320
7372,2148.0,note_on,45,1638,64,0
7373,2148.0,pitchwheel,45,1638,64,0
7374,2148.0,note_off,45,1638,64,320
7375,2148.666666,note_on,47,2457,64,0
7376,2148.666666,pitchwheel,47,2457,64,0
7377,2148.666666,note_off,47,2457,64,320
7378,2149.333333,note_on,46,1638,64,0
7379,2149.333333,pitchwheel,46,1638,64,0
7380,2149.333333,note_off,46,1638,64,320
7381,2150.0,note_on,47,2047,64,0
7382,2150.0,pitchwheel,47,2047,64,0
7383,2150.0,note_off,47,2047,64,320
7384,2150.666666,note_on,53,0,64,0
7385,2150.666666,note_off,53,0,64,320
7386,2151.333333,note_on,50,819,64,0
7387,2151.333333,pitchwheel,50,819,64,0
7388,2151.333333,note_off,50,819,64,320
7389,2152.0,note_on,51,819,64,0
7390,2152.0,pitchwheel,51,819,64,0
7391,2152.0,note_off,51,819,64,320
7392,2152.666666,note_on,45,3276,64,0
7393,2152.666666,pitchwheel,45,3276,64,0
7394,2152.666666,note_off,45,3276,64,320
7395,2153.333333,note_on,46,0,64,0
7396,2153.333333,note_off,46,0,64,320
7397,2154.0,note_on,50,0,64,0
7398,2154.0,note_off,50,0,64,320
7399,2154.666666,note_on,45,2047,64,0
7400,2154.666666,pitchwheel,45,2047,64,0
7401,2154.666666,note_off,45,2047,64,320
7402,2155.333333,note_on,50,2457,64,0
7403,2155.333333,pitchwheel,50,2457,64,0
7404,2155.333333,note_off,50,2457,64,320
7405,2156.0,note_on,45,0,64,0
7406,2156.0,note_off,45,0,64,320
7407,2156.666666,note_on,40,2457,64,0
7408,2156.666666,pitchwheel,40,2457,64,0
7409,2156.666666,note_off,40,2457,64,320
7410,2157.333333,note_on,41,2457,64,0
7411,2157.333333,pitchwheel,41,2457,64,0
7412,2157.333333,note_off,41,2457,64,320
7413,2158.0,note_on,36,819,64,0
7414,2158.0,pitchwheel,36,819,64,0
7415,2158.0,note_off,36,819,64,320
7416,2158.666666,note_on,36,2047,64,0
7417,2158.666666,pitchwheel,36,2047,64,0
7418,2158.666666,note_off,36,2047,64,320
7419,2160.0,note_on,36,3276,64,0
7420,2160.0,pitchwheel,36,3276,64,0
7421,2160.0,note_off,36,3276,64,320
7422,2160.666666,note_on,36,2047,64,0
7423,2160.666666,pitchwheel,36,2047,64,0
7424,2160.666666,note_off,36,2047,64,320
7425,2162.0,note_on,33,1638,64,0
7426,2162.0,pitchwheel,33,1638,64,0
7427,2162.0,note_off,33,1638,64,640
7428,2164.0,note_on,34,0,64,0
7429,2164.0,note_off,34,0,64,320
7430,2165.333333,note_on,34,0,64,0
7431,2165.333333,note_off,34,0,64,320
7432,2166.666666,note_on,35,2047,64,0
7433,2166.666666,pitchwheel,35,2047,64,0
7434,2166.666666,note_off,35,2047,64,320
7435,2167.333333,note_on,31,0,64,0
7436,2167.333333,note_off,31,0,64,320
7437,2168.0,note_on,29,0,64,0
7438,2168.0,note_off,29,0,64,320
7439,2168.666666,note_on,40,2866,64,0
7440,2168.666666,pitchwheel,40,2866,64,0
7441,2168.666666,note_off,40,2866,64,320
7442,2169.333333,note_on,38,819,64,0
7443,2169.333333,pitchwheel,38,819,64,0
7444,2169.333333,note_off,38,819,64,320
7445,2170.0,note_on,33,1638,64,0
7446,2170.0,pitchwheel,33,1638,64,0
7447,2170.0,note_off,33,1638,64,320
7448,2170.666666,note_on,33,2047,64,0
7449,2170.666666,pitchwheel,33,2047,64,0
7450,2170.666666,note_off,33,2047,64,320
7451,2171.333333,note_on,33,0,64,0
7452,2171.333333,note_off,33,0,64,320
7453,2172.0,note_on,33,3276,64,0
7454,2172.0,pitchwheel,33,3276,64,0
7455,2172.0,note_off,33,3276,64,320
7456,2172.666666,note_on,40,2457,64,0
7457,2172.666666,pitchwheel,40,2457,64,0
7458,2172.666666,note_off,40,2457,64,320
7459,2173.333333,note_on,36,3276,64,0
7460,2173.333333,pitchwheel,36,3276,64,0
7461,2173.333333,note_off,36,3276,64,320
7462,2174.666666,note_on,38,0,64,0
7463,2174.666666,note_off,38,0,64,320
7464,2175.333333,note_on,43,1638,64,0
7465,2175.333333,pitchwheel,43,1638,64,0
7466,2175.333333,note_off,43,1638,64,320
7467,2176.0,note_on,43,409,64,0
7468,2176.0,pitchwheel,43,409,64,0
7469,2176.0,note_off,43,409,64,320
7470,2176.666666,note_on,41,0,64,0
7471,2176.666666,note_off,41,0,64,320
7472,2177.333333,note_on,38,2457,64,0
7473,2177.333333,pitchwheel,38,2457,64,0
7474,2177.333333,note_off,38,2457,64,320
7475,2178.0,note_on,38,819,64,0
7476,2178.0,pitchwheel,38,819,64,0
7477,2178.0,note_off,38,819,64,320
7478,2178.666666,note_on,34,1638,64,0
7479,2178.666666,pitchwheel,34,1638,64,0
7480,2178.666666,note_off,34,1638,64,320
7481,2179.333333,note_on,33,2047,64,0
7482,2179.333333,pitchwheel,33,2047,64,0
7483,2179.333333,note_off,33,2047,64,320
7484,2180.0,note_on,29,1228,64,0
7485,2180.0,pitchwheel,29,1228,64,0
7486,2180.0,note_off,29,1228,64,320
7487,2180.666666,note_on,29,0,64,0
7488,2180.666666,note_off,29,0,64,320
7489,2181.333333,note_on,41,2457,64,0
7490,2181.333333,pitchwheel,41,2457,64,0
7491,2181.333333,note_off,41,2457,64,320
7492,2182.0,note_on,38,3685,64,0
7493,2182.0,pitchwheel,38,3685,64,0
7494,2182.0,note_off,38,3685,64,320
7495,2182.666666,note_on,36,819,64,0
7496,2182.666666,pitchwheel,36,819,64,0
7497,2182.666666,note_off,36,819,64,320
7498,2183.333333,note_on,35,3276,64,0
7499,2183.333333,pitchwheel,35,3276,64,0
7500,2183.333333,note_off,35,3276,64,640
7501,2184.666666,note_on,35,3685,64,0
7502,2184.666666,pitchwheel,35,3685,64,0
7503,2184.666666,note_off,35,3685,64,320
7504,2185.333333,note_on,36,819,64,0
7505,2185.333333,pitchwheel,36,819,64,0
7506,2185.333333,note_off,36,819,64,320
7507,2186.666666,note_on,36,3276,64,0
7508,2186.666666,pitchwheel,36,3276,64,0
7509,2186.666666,note_off,36,3276,64,320
7510,2187.333333,note_on,41,0,64,0
7511,2187.333333,note_off,41,0,64,320
7512,2188.0,note_on,36,2047,64,0
7513,2188.0,pitchwheel,36,2047,64,0
7514,2188.0,note_off,36,2047,64,320
7515,2188.666666,note_on,35,3276,64,0
7516,2188.666666,pitchwheel,35,3276,64,0
7517,2188.666666,note_off,35,3276,64,320
7518,2189.333333,note_on,39,819,64,0
7519,2189.333333,pitchwheel,39,819,64,0
7520,2189.333333,note_off,39,819,64,320
7521,2190.0,note_on,45,0,64,0
7522,2190.0,note_off,45,0,64,320
7523,2190.666666,note_on,45,1638,64,0
7524,2190.666666,pitchwheel,45,1638,64,0
7525,2190.666666,note_off,45,1638,64,320
7526,2192.0,note_on,45,1638,64,0
7527,2192.0,pitchwheel,45,1638,64,0
7528,2192.0,note_off,45,1638,64,320
7529,2193.333333,note_on,40,0,64,0
7530,2193.333333,note_off,40,0,64,320
7531,2194.0,note_on,45,1638,64,0
7532,2194.0,pitchwheel,45,1638,64,0
7533,2194.0,note_off,45,1638,64,320
7534,2194.666666,note_on,46,0,64,0
7535,2194.666666,note_off,46,0,64,320
7536,2195.333333,note_on,43,2866,64,0
7537,2195.333333,pitchwheel,43,2866,64,0
7538,2195.333333,note_off,43,2866,64,320
7539,2196.0,note_on,43,1638,64,0
7540,2196.0,pitchwheel,43,1638,64,0
7541,2196.0,note_off,43,1638,64,320
7542,2196.666666,note_on,47,3276,64,0
7543,2196.666666,pitchwheel,47,3276,64,0
7544,2196.666666,note_off,47,3276,64,320
7545,2197.333333,note_on,47,3685,64,0
7546,2197.333333,pitchwheel,47,3685,64,0
7547,2197.333333,note_off,47,3685,64,320
7548,2198.0,note_on,45,0,64,0
7549,2198.0,note_off,45,0,64,320
7550,2199.333333,note_on,43,0,64,0
7551,2199.333333,note_off,43,0,64,640
7552,2201.333333,note_on,43,0,64,0
7553,2201.333333,note_off,43,0,64,320
7554,2202.0,note_on,46,409,64,0
7555,2202.0,pitchwheel,46,409,64,0
7556,2202.0,note_off,46,409,64,320
7557,2202.666666,note_on,41,0,64,0
7558,2202.666666,note_off,41,0,64,320
7559,2203.333333,note_on,35,2047,64,0
7560,2203.333333,pitchwheel,35,2047,64,0
7561,2203.333333,note_off,35,2047,64,320
7562,2204.0,note_on,40,2866,64,0
7563,2204.0,pitchwheel,40,2866,64,0
7564,2204.0,note_off,40,2866,64,320
7565,2204.666666,note_on,40,2457,64,0
7566,2204.666666,pitchwheel,40,2457,64,0
7567,2204.666666,note_off,40,2457,64,320
7568,2205.333333,note_on,38,819,64,0
7569,2205.333333,pitchwheel,38,819,64,0
7570,2205.333333,note_off,38,819,64,320
7571,2206.0,note_on,38,3685,64,0
7572,2206.0,pitchwheel,38,3685,64,0
7573,2206.0,note_off,38,3685,64,320
7574,2206.666666,note_on,33,1638,64,0
7575,2206.666666,pitchwheel,33,1638,64,0
7576,2206.666666,note_off,33,1638,64,320
7577,2207.333333,note_on,36,2047,64,0
7578,2207.333333,pitchwheel,36,2047,64,0
7579,2207.333333,note_off,36,2047,64,320
7580,2208.0,note_on,39,819,64,0
7581,2208.0,pitchwheel,39,819,64,0
7582,2208.0,note_off,39,819,64,320
7583,2208.666666,note_on,38,2457,64,0
7584,2208.666666,pitchwheel,38,2457,64,0
7585,2208.666666,note_off,38,2457,64,320
7586,2209.333333,note_on,33,0,64,0
7587,2209.333333,note_off,33,0,64,320
7588,2210.0,note_on,35,2457,64,0
7589,2210.0,pitchwheel,35,2457,64,0
7590,2210.0,note_off,35,2457,64,320
7591,2210.666666,note_on,36,3276,64,0
7592,2210.666666,pitchwheel,36,3276,64,0
7593,2210.666666,note_off,36,3276,64,320
7594,2211.333333,note_on,36,2047,64,0
7595,2211.333333,pitchwheel,36,2047,64,0
7596,2211.333333,note_off,36,2047,64,320
7597,2212.0,note_on,36,819,64,0
7598,2212.0,pitchwheel,36,819,64,0
7599,2212.0,note_off,36,819,64,320
7600,2213.333333,note_on,36,3276,64,0
7601,2213.333333,pitchwheel,36,3276,64,0
7602,2213.333333,note_off,36,3276,64,320
7603,2214.0,note_on,38,2457,64,0
7604,2214.0,pitchwheel,38,2457,64,0
7605,2214.0,note_off,38,2457,64,320
7606,2215.333333,note_on,35,3276,64,0
7607,2215.333333,pitchwheel,35,3276,64,0
7608,2215.333333,note_off,35,3276,64,320
7609,2216.0,note_on,36,3276,64,0
7610,2216.0,pitchwheel,36,3276,64,0
7611,2216.0,note_off,36,3276,64,320
7612,2216.666666,note_on,35,2047,64,0
7613,2216.666666,pitchwheel,35,2047,64,0
7614,2216.666666,note_off,35,2047,64,320
7615,2217.333333,note_on,34,0,64,0
7616,2217.333333,note_off,34,0,64,320
7617,2218.666666,note_on,33,2047,64,0
7618,2218.666666,pitchwheel,33,2047,64,0
7619,2218.666666,note_off,33,2047,64,320
7620,2220.0,note_on,37,0,64,0
7621,2220.0,note_off,37,0,64,320
7622,2220.666666,note_on,38,819,64,0
7623,2220.666666,pitchwheel,38,819,64,0
7624,2220.666666,note_off,38,819,64,320
7625,2221.333333,note_on,38,2457,64,0
7626,2221.333333,pitchwheel,38,2457,64,0
7627,2221.333333,note_off,38,2457,64,320
7628,2222.0,note_on,43,2866,64,0
7629,2222.0,pitchwheel,43,2866,64,0
7630,2222.0,note_off,43,2866,64,320
7631,2222.666666,note_on,43,1638,64,0
7632,2222.666666,pitchwheel,43,1638,64,0
7633,2222.666666,note_off,43,1638,64,320
7634,2223.333333,note_on,38,819,64,0
7635,2223.333333,pitchwheel,38,819,64,0
7636,2223.333333,note_off,38,819,64,320
7637,2224.0,note_on,35,2457,64,0
7638,2224.0,pitchwheel,35,2457,64,0
7639,2224.0,note_off,35,2457,64,320
7640,2224.666666,note_on,33,0,64,0
7641,2224.666666,note_off,33,0,64,320
7642,2225.333333,note_on,33,2047,64,0
7643,2225.333333,pitchwheel,33,2047,64,0
7644,2225.333333,note_off,33,2047,64,320
7645,2226.0,note_on,40,2457,64,0
7646,2226.0,pitchwheel,40,2457,64,0
7647,2226.0,note_off,40,2457,64,640
7648,2228.0,note_on,41,0,64,0
7649,2228.0,note_off,41,0,64,320
7650,2228.666666,note_on,45,2047,64,0
7651,2228.666666,pitchwheel,45,2047,64,0
7652,2228.666666,note_off,45,2047,64,320
7653,2229.333333,note_on,41,2457,64,0
7654,2229.333333,pitchwheel,41,2457,64,0
7655,2229.333333,note_off,41,2457,64,320
7656,2230.0,note_on,45,3276,64,0
7657,2230.0,pitchwheel,45,3276,64,0
7658,2230.0,note_off,45,3276,64,320
7659,2230.666666,note_on,50,3685,64,0
7660,2230.666666,pitchwheel,50,3685,64,0
7661,2230.666666,note_off,50,3685,64,320
7662,2231.333333,note_on,55,0,64,0
7663,2231.333333,note_off,55,0,64,320
7664,2232.0,note_on,56,0,64,0
7665,2232.0,note_off,56,0,64,320
7666,2232.666666,note_on,50,3685,64,0
7667,2232.666666,pitchwheel,50,3685,64,0
7668,2232.666666,note_off,50,3685,64,320
7669,2233.333333,note_on,47,3276,64,0
7670,2233.333333,pitchwheel,47,3276,64,0
7671,2233.333333,note_off,47,3276,64,320
7672,2234.0,note_on,43,409,64,0
7673,2234.0,pitchwheel,43,409,64,0
7674,2234.0,note_off,43,409,64,320
7675,2234.666666,note_on,44,0,64,0
7676,2234.666666,note_off,44,0,64,320
7677,2235.333333,note_on,41,0,64,0
7678,2235.333333,note_off,41,0,64,320
7679,2236.0,note_on,35,3685,64,0
7680,2236.0,pitchwheel,35,3685,64,0
7681,2236.0,note_off,35,3685,64,320
7682,2236.666666,note_on,38,0,64,0
7683,2236.666666,note_off,38,0,64,320
7684,2237.333333,note_on,36,819,64,0
7685,2237.333333,pitchwheel,36,819,64,0
7686,2237.333333,note_off,36,819,64,320
7687,2238.0,note_on,36,2047,64,0
7688,2238.0,pitchwheel,36,2047,64,0
7689,2238.0,note_off,36,2047,64,320
7690,2238.666666,note_on,36,819,64,0
7691,2238.666666,pitchwheel,36,819,64,0
7692,2238.666666,note_off,36,819,64,320
7693,2240.0,note_on,36,3276,64,0
7694,2240.0,pitchwheel,36,3276,64,0
7695,2240.0,note_off,36,3276,64,320
7696,2240.666666,note_on,40,1638,64,0
7697,2240.666666,pitchwheel,40,1638,64,0
7698,2240.666666,note_off,40,1638,64,320
7699,2241.333333,note_on,41,0,64,0
7700,2241.333333,note_off,41,0,64,320
7701,2242.0,note_on,45,1638,64,0
7702,2242.0,pitchwheel,45,1638,64,0
7703,2242.0,note_off,45,1638,64,320
7704,2242.666666,note_on,44,0,64,0
7705,2242.666666,note_off,44,0,64,320
7706,2243.333333,note_on,38,2457,64,0
7707,2243.333333,pitchwheel,38,2457,64,0
7708,2243.333333,note_off,38,2457,64,320
7709,2244.0,note_on,35,3276,64,0
7710,2244.0,pitchwheel,35,3276,64,0
7711,2244.0,note_off,35,3276,64,320
7712,2245.333333,note_on,39,819,64,0
7713,2245.333333,pitchwheel,39,819,64,0
7714,2245.333333,note_off,39,819,64,320
7715,2246.666666,note_on,35,2047,64,0
7716,2246.666666,pitchwheel,35,2047,64,0
7717,2246.666666,note_off,35,2047,64,320
7718,2247.333333,note_on,35,3276,64,0
7719,2247.333333,pitchwheel,35,3276,64,0
7720,2247.333333,note_off,35,3276,64,320
7721,2248.0,note_on,34,0,64,0
7722,2248.0,note_off,34,0,64,320
7723,2248.666666,note_on,33,2047,64,0
7724,2248.666666,pitchwheel,33,2047,64,0
7725,2248.666666,note_off,33,2047,64,320
7726,2249.333333,note_on,33,3276,64,0
7727,2249.333333,pitchwheel,33,3276,64,0
7728,2249.333333,note_off,33,3276,64,320
7729,2250.0,note_on,40,2457,64,0
7730,2250.0,pitchwheel,40,2457,64,0
7731,2250.0,note_off,40,2457,64,320
7732,2250.666666,note_on,41,2457,64,0
7733,2250.666666,pitchwheel,41,2457,64,0
7734,2250.666666,note_off,41,2457,64,320
7735,2251.333333,note_on,45,0,64,0
7736,2251.333333,note_off,45,0,64,320
7737,2252.666666,note_on,50,819,64,0
7738,2252.666666,pitchwheel,50,819,64,0
7739,2252.666666,note_off,50,819,64,320
7740,2253.333333,note_on,51,819,64,0
7741,2253.333333,pitchwheel,51,819,64,0
7742,2253.333333,note_off,51,819,64,320
7743,2254.666666,note_on,48,819,64,0
7744,2254.666666,pitchwheel,48,819,64,0
7745,2254.666666,note_off,48,819,64,320
7746,2255.333333,note_on,45,2047,64,0
7747,2255.333333,pitchwheel,45,2047,64,0
7748,2255.333333,note_off,45,2047,64,320
7749,2256.0,note_on,46,0,64,0
7750,2256.0,note_off,46,0,64,320
7751,2256.666666,note_on,44,2047,64,0
7752,2256.666666,pitchwheel,44,2047,64,0
7753,2256.666666,note_off,44,2047,64,320
7754,2257.333333,note_on,43,2866,64,0
7755,2257.333333,pitchwheel,43,2866,64,0
7756,2257.333333,note_off,43,2866,64,320
7757,2258.0,note_on,40,2457,64,0
7758,2258.0,pitchwheel,40,2457,64,0
7759,2258.0,note_off,40,2457,64,320
7760,2258.666666,note_on,36,3276,64,0
7761,2258.666666,pitchwheel,36,3276,64,0
7762,2258.666666,note_off,36,3276,64,320
7763,2259.333333,note_on,38,1228,64,0
7764,2259.333333,pitchwheel,38,1228,64,0
7765,2259.333333,note_off,38,1228,64,320
7766,2260.0,note_on,36,2047,64,0
7767,2260.0,pitchwheel,36,2047,64,0
7768,2260.0,note_off,36,2047,64,320
7769,2260.666666,note_on,35,3685,64,0
7770,2260.666666,pitchwheel,35,3685,64,0
7771,2260.666666,note_off,35,3685,64,640
7772,2262.0,note_on,38,0,64,0
7773,2262.0,note_off,38,0,64,320
7774,2262.666666,note_on,33,0,64,0
7775,2262.666666,note_off,33,0,64,320
7776,2263.333333,note_on,31,0,64,0
7777,2263.333333,note_off,31,0,64,320
7778,2264.0,note_on,34,1638,64,0
7779,2264.0,pitchwheel,34,1638,64,0
7780,2264.0,note_off,34,1638,64,320
7781,2264.666666,note_on,40,2866,64,0
7782,2264.666666,pitchwheel,40,2866,64,0
7783,2264.666666,note_off,40,2866,64,320
7784,2265.333333,note_on,43,0,64,0
7785,2265.333333,note_off,43,0,64,320
7786,2266.666666,note_on,43,0,64,0
7787,2266.666666,note_off,43,0,64,320
7788,2267.333333,note_on,41,0,64,0
7789,2267.333333,note_off,41,0,64,320
7790,2268.666666,note_on,45,1638,64,0
7791,2268.666666,pitchwheel,45,1638,64,0
7792,2268.666666,note_off,45,1638,64,320
7793,2269.333333,note_on,44,0,64,0
7794,2269.333333,note_off,44,0,64,320
7795,2270.0,note_on,48,2047,64,0
7796,2270.0,pitchwheel,48,2047,64,0
7797,2270.0,note_off,48,2047,64,320
7798,2270.666666,note_on,46,409,64,0
7799,2270.666666,pitchwheel,46,409,64,0
7800,2270.666666,note_off,46,409,64,320
7801,2272.0,note_on,43,409,64,0
7802,2272.0,pitchwheel,43,409,64,0
7803,2272.0,note_off,43,409,64,320
7804,2273.333333,note_on,44,2047,64,0
7805,2273.333333,pitchwheel,44,2047,64,0
7806,2273.333333,note_off,44,2047,64,320
7807,2274.0,note_on,47,3276,64,0
7808,2274.0,pitchwheel,47,3276,64,0
7809,2274.0,note_off,47,3276,64,320
7810,2274.666666,note_on,46,1638,64,0
7811,2274.666666,pitchwheel,46,1638,64,0
7812,2274.666666,note_off,46,1638,64,320
7813,2275.333333,note_on,48,819,64,0
7814,2275.333333,pitchwheel,48,819,64,0
7815,2275.333333,note_off,48,819,64,320
7816,2276.0,note_on,47,3685,64,0
7817,2276.0,pitchwheel,47,3685,64,0
7818,2276.0,note_off,47,3685,64,320
7819,2276.666666,note_on,45,1638,64,0
7820,2276.666666,pitchwheel,45,1638,64,0
7821,2276.666666,note_off,45,1638,64,320
7822,2277.333333,note_on,45,2047,64,0
7823,2277.333333,pitchwheel,45,2047,64,0
7824,2277.333333,note_off,45,2047,64,320
7825,2278.0,note_on,45,0,64,0
7826,2278.0,note_off,45,0,64,320
7827,2278.666666,note_on,50,3685,64,0
7828,2278.666666,pitchwheel,50,3685,64,0
7829,2278.666666,note_off,50,3685,64,320
7830,2279.333333,note_on,50,819,64,0
7831,2279.333333,pitchwheel,50,819,64,0
7832,2279.333333,note_off,50,819,64,320
7833,2280.0,note_on,48,3276,64,0
7834,2280.0,pitchwheel,48,3276,64,0
7835,2280.0,note_off,48,3276,64,320
7836,2281.333333,note_on,48,2047,64,0
7837,2281.333333,pitchwheel,48,2047,64,0
7838,2281.333333,note_off,48,2047,64,320
7839,2282.0,note_on,47,2457,64,0
7840,2282.0,pitchwheel,47,2457,64,0
7841,2282.0,note_off,47,2457,64,320
7842,2282.666666,note_on,45,2047,64,0
7843,2282.666666,pitchwheel,45,2047,64,0
7844,2282.666666,note_off,45,2047,64,320
7845,2283.333333,note_on,40,0,64,0
7846,2283.333333,note_off,40,0,64,320
7847,2284.0,note_on,38,2457,64,0
7848,2284.0,pitchwheel,38,2457,64,0
7849,2284.0,note_off,38,2457,64,320
7850,2284.666666,note_on,40,2457,64,0
7851,2284.666666,pitchwheel,40,2457,64,0
7852,2284.666666,note_off,40,2457,64,320
7853,2285.333333,note_on,39,819,64,0
7854,2285.333333,pitchwheel,39,819,64,0
7855,2285.333333,note_off,39,819,64,320
7856,2286.0,note_on,43,1638,64,0
7857,2286.0,pitchwheel,43,1638,64,0
7858,2286.0,note_off,43,1638,64,320
7859,2286.666666,note_on,46,0,64,0
7860,2286.666666,note_off,46,0,64,320
7861,2287.333333,note_on,50,0,64,0
7862,2287.333333,note_off,50,0,64,320
7863,2288.0,note_on,48,3276,64,0
7864,2288.0,pitchwheel,48,3276,64,0
7865,2288.0,note_off,48,3276,64,320
7866,2288.666666,note_on,50,2457,64,0
7867,2288.666666,pitchwheel,50,2457,64,0
7868,2288.666666,note_off,50,2457,64,320
7869,2289.333333,note_on,48,2047,64,0
7870,2289.333333,pitchwheel,48,2047,64,0
7871,2289.333333,note_off,48,2047,64,320
7872,2290.0,note_on,43,0,64,0
7873,2290.0,note_off,43,0,64,320
7874,2290.666666,note_on,48,819,64,0
7875,2290.666666,pitchwheel,48,819,64,0
7876,2290.666666,note_off,48,819,64,320
7877,2291.333333,note_on,53,0,64,0
7878,2291.333333,note_off,53,0,64,320
7879,2292.0,note_on,52,2866,64,0
7880,2292.0,pitchwheel,52,2866,64,0
7881,2292.0,note_off,52,2866,64,320
7882,2293.333333,note_on,49,0,64,0
7883,2293.333333,note_off,49,0,64,320
7884,2294.0,note_on,53,0,64,0
7885,2294.0,note_off,53,0,64,320
7886,2294.666666,note_on,50,2457,64,0
7887,2294.666666,pitchwheel,50,2457,64,0
7888,2294.666666,note_off,50,2457,64,320
7889,2295.333333,note_on,50,819,64,0
7890,2295.333333,pitchwheel,50,819,64,0
7891,2295.333333,note_off,50,819,64,320
7892,2296.0,note_on,53,2457,64,0
7893,2296.0,pitchwheel,53,2457,64,0
7894,2296.0,note_off,53,2457,64,320
7895,2297.333333,note_on,47,3276,64,0
7896,2297.333333,pitchwheel,47,3276,64,0
7897,2297.333333,note_off,47,3276,64,320
7898,2298.666666,note_on,48,3276,64,0
7899,2298.666666,pitchwheel,48,3276,64,0
7900,2298.666666,note_off,48,3276,64,320
7901,2300.0,note_on,47,2047,64,0
7902,2300.0,pitchwheel,47,2047,64,0
7903,2300.0,note_off,47,2047,64,320
7904,2300.666666,note_on,52,2457,64,0
7905,2300.666666,pitchwheel,52,2457,64,0
7906,2300.666666,note_off,52,2457,64,320
7907,2301.333333,note_on,51,819,64,0
7908,2301.333333,pitchwheel,51,819,64,0
7909,2301.333333,note_off,51,819,64,320
7910,2302.0,note_on,48,819,64,0
7911,2302.0,pitchwheel,48,819,64,0
7912,2302.0,note_off,48,819,64,320
7913,2302.666666,note_on,47,3685,64,0
7914,2302.666666,pitchwheel,47,3685,64,0
7915,2302.666666,note_off,47,3685,64,320
7916,2303.333333,note_on,43,0,64,0
7917,2303.333333,note_off,43,0,64,320
7918,2304.0,note_on,45,2047,64,0
7919,2304.0,pitchwheel,45,2047,64,0
7920,2304.0,note_off,45,2047,64,320
7921,2304.666666,note_on,45,0,64,0
7922,2304.666666,note_off,45,0,64,320
7923,2306.0,note_on,43,0,64,0
7924,2306.0,note_off,43,0,64,320
7925,2306.666666,note_on,41,0,64,0
7926,2306.666666,note_off,41,0,64,320
7927,2308.0,note_on,45,2047,64,0
7928,2308.0,pitchwheel,45,2047,64,0
7929,2308.0,note_off,45,2047,64,320
7930,2308.666666,note_on,47,2457,64,0
7931,2308.666666,pitchwheel,47,2457,64,0
7932,2308.666666,note_off,47,2457,64,320
7933,2309.333333,note_on,50,2457,64,0
7934,2309.333333,pitchwheel,50,2457,64,0
7935,2309.333333,note_off,50,2457,64,320
7936,2310.0,note_on,52,2866,64,0
7937,2310.0,pitchwheel,52,2866,64,0
7938,2310.0,note_off,52,2866,64,320
7939,2310.666666,note_on,55,2866,64,0
7940,2310.666666,pitchwheel,55,2866,64,0
7941,2310.666666,note_off,55,2866,64,320
7942,2311.333333,note_on,57,1638,64,0
7943,2311.333333,pitchwheel,57,1638,64,0
7944,2311.333333,note_off,57,1638,64,320
7945,2312.0,note_on,58,1638,64,0
7946,2312.0,pitchwheel,58,1638,64,0
7947,2312.0,note_off,58,1638,64,320
7948,2312.666666,note_on,55,1638,64,0
7949,2312.666666,pitchwheel,55,1638,64,0
7950,2312.666666,note_off,55,1638,64,320
7951,2313.333333,note_on,53,0,64,0
7952,2313.333333,note_off,53,0,64,320
7953,2314.0,note_on,50,0,64,0
7954,2314.0,note_off,50,0,64,320
7955,2314.666666,note_on,47,2457,64,0
7956,2314.666666,pitchwheel,47,2457,64,0
7957,2314.666666,note_off,47,2457,64,320
7958,2315.333333,note_on,50,2457,64,0
7959,2315.333333,pitchwheel,50,2457,64,0
7960,2315.333333,note_off,50,2457,64,320
7961,2316.0,note_on,45,0,64,0
7962,2316.0,note_off,45,0,64,320
7963,2316.666666,note_on,47,3276,64,0
7964,2316.666666,pitchwheel,47,3276,64,0
7965,2316.666666,note_off,47,3276,64,320
7966,2317.333333,note_on,45,2047,64,0
7967,2317.333333,pitchwheel,45,2047,64,0
7968,2317.333333,note_off,45,2047,64,320
7969,2318.0,note_on,41,0,64,0
7970,2318.0,note_off,41,0,64,320
7971,2318.666666,note_on,40,2457,64,0
7972,2318.666666,pitchwheel,40,2457,64,0
7973,2318.666666,note_off,40,2457,64,320
7974,2320.0,note_on,40,2457,64,0
7975,2320.0,pitchwheel,40,2457,64,0
7976,2320.0,note_off,40,2457,64,320
7977,2320.666666,note_on,36,2047,64,0
7978,2320.666666,pitchwheel,36,2047,64,0
7979,2320.666666,note_off,36,2047,64,320
7980,2322.0,note_on,35,3276,64,0
7981,2322.0,pitchwheel,35,3276,64,0
7982,2322.0,note_off,35,3276,64,320
7983,2322.666666,note_on,39,819,64,0
7984,2322.666666,pitchwheel,39,819,64,0
7985,2322.666666,note_off,39,819,64,320
7986,2323.333333,note_on,45,0,64,0
7987,2323.333333,note_off,45,0,64,320
7988,2324.0,note_on,45,2047,64,0
7989,2324.0,pitchwheel,45,2047,64,0
7990,2324.0,note_off,45,2047,64,320
7991,2325.333333,note_on,47,3685,64,0
7992,2325.333333,pitchwheel,47,3685,64,0
7993,2325.333333,note_off,47,3685,64,320
7994,2326.666666,note_on,45,3276,64,0
7995,2326.666666,pitchwheel,45,3276,64,0
7996,2326.666666,note_off,45,3276,64,320
7997,2327.333333,note_on,50,819,64,0
7998,2327.333333,pitchwheel,50,819,64,0
7999,2327.333333,note_off,50,819,64,320
8000,2328.0,note_on,50,3685,64,0
8001,2328.0,pitchwheel,50,3685,64,0
8002,2328.0,note_off,50,3685,64,320
8003,2328.666666,note_on,45,3276,64,0
8004,2328.666666,pitchwheel,45,3276,64,0
8005,2328.666666,note_off,45,3276,64,320
8006,2329.333333,note_on,45,2047,64,0
8007,2329.333333,pitchwheel,45,2047,64,0
8008,2329.333333,note_off,45,2047,64,320
8009,2330.0,note_on,40,2457,64,0
8010,2330.0,pitchwheel,40,2457,64,0
8011,2330.0,note_off,40,2457,64,320
8012,2330.666666,note_on,36,819,64,0
8013,2330.666666,pitchwheel,36,819,64,0
8014,2330.666666,note_off,36,819,64,320
8015,2331.333333,note_on,33,0,64,0
8016,2331.333333,note_off,33,0,64,320
8017,2332.0,note_on,38,3685,64,0
8018,2332.0,pitchwheel,38,3685,64,0
8019,2332.0,note_off,38,3685,64,320
8020,2332.666666,note_on,40,2457,64,0
8021,2332.666666,pitchwheel,40,2457,64,0
8022,2332.666666,note_off,40,2457,64,320
8023,2333.333333,note_on,36,3276,64,0
8024,2333.333333,pitchwheel,36,3276,64,0
8025,2333.333333,note_off,36,3276,64,320
8026,2334.666666,note_on,31,409,64,0
8027,2334.666666,pitchwheel,31,409,64,0
8028,2334.666666,note_off,31,409,64,320
8029,2335.333333,note_on,31,1638,64,0
8030,2335.333333,pitchwheel,31,1638,64,0
8031,2335.333333,note_off,31,1638,64,320
8032,2336.0,note_on,32,0,64,0
8033,2336.0,note_off,32,0,64,320
8034,2336.666666,note_on,35,2047,64,0
8035,2336.666666,pitchwheel,35,2047,64,0
8036,2336.666666,note_off,35,2047,64,320
8037,2337.333333,note_on,41,0,64,0
8038,2337.333333,note_off,41,0,64,320
8039,2338.0,note_on,43,0,64,0
8040,2338.0,note_off,43,0,64,320
8041,2338.666666,note_on,46,1638,64,0
8042,2338.666666,pitchwheel,46,1638,64,0
8043,2338.666666,note_off,46,1638,64,320
8044,2339.333333,note_on,41,0,64,0
8045,2339.333333,note_off,41,0,64,320
8046,2340.0,note_on,43,1638,64,0
8047,2340.0,pitchwheel,43,1638,64,0
8048,2340.0,note_off,43,1638,64,320
8049,2340.666666,note_on,41,0,64,0
8050,2340.666666,note_off,41,0,64,320
8051,2341.333333,note_on,46,1638,64,0
8052,2341.333333,pitchwheel,46,1638,64,0
8053,2341.333333,note_off,46,1638,64,320
8054,2342.0,note_on,50,3685,64,0
8055,2342.0,pitchwheel,50,3685,64,0
8056,2342.0,note_off,50,3685,64,320
8057,2342.666666,note_on,48,2047,64,0
8058,2342.666666,pitchwheel,48,2047,64,0
8059,2342.666666,note_off,48,2047,64,320
8060,2343.333333,note_on,45,1638,64,0
8061,2343.333333,pitchwheel,45,1638,64,0
8062,2343.333333,note_off,45,1638,64,320
8063,2344.0,note_on,48,819,64,0
8064,2344.0,pitchwheel,48,819,64,0
8065,2344.0,note_off,48,819,64,320
8066,2344.666666,note_on,50,2457,64,0
8067,2344.666666,pitchwheel,50,2457,64,0
8068,2344.666666,note_off,50,2457,64,320
8069,2345.333333,note_on,50,1228,64,0
8070,2345.333333,pitchwheel,50,1228,64,0
8071,2345.333333,note_off,50,1228,64,320
8072,2346.666666,note_on,45,2047,64,0
8073,2346.666666,pitchwheel,45,2047,64,0
8074,2346.666666,note_off,45,2047,64,320
8075,2347.333333,note_on,41,0,64,0
8076,2347.333333,note_off,41,0,64,320
8077,2348.0,note_on,40,1638,64,0
8078,2348.0,pitchwheel,40,1638,64,0
8079,2348.0,note_off,40,1638,64,320
8080,2348.666666,note_on,43,0,64,0
8081,2348.666666,note_off,43,0,64,320
8082,2349.333333,note_on,41,0,64,0
8083,2349.333333,note_off,41,0,64,320
8084,2350.0,note_on,37,0,64,0
8085,2350.0,note_off,37,0,64,320
8086,2350.666666,note_on,34,0,64,0
8087,2350.666666,note_off,34,0,64,320
8088,2352.0,note_on,32,0,64,0
8089,2352.0,note_off,32,0,64,320
8090,2353.333333,note_on,37,0,64,0
8091,2353.333333,note_off,37,0,64,320
8092,2354.0,note_on,40,2457,64,0
8093,2354.0,pitchwheel,40,2457,64,0
8094,2354.0,note_off,40,2457,64,320
8095,2354.666666,note_on,39,819,64,0
8096,2354.666666,pitchwheel,39,819,64,0
8097,2354.666666,note_off,39,819,64,320
8098,2355.333333,note_on,33,3276,64,0
8099,2355.333333,pitchwheel,33,3276,64,0
8100,2355.333333,note_off,33,3276,64,320
8101,2356.0,note_on,34,409,64,0
8102,2356.0,pitchwheel,34,409,64,0
8103,2356.0,note_off,34,409,64,320
8104,2356.666666,note_on,38,819,64,0
8105,2356.666666,pitchwheel,38,819,64,0
8106,2356.666666,note_off,38,819,64,320
8107,2357.333333,note_on,39,819,64,0
8108,2357.333333,pitchwheel,39,819,64,0
8109,2357.333333,note_off,39,819,64,320
8110,2358.0,note_on,45,0,64,0
8111,2358.0,note_off,45,0,64,320
8112,2359.333333,note_on,50,819,64,0
8113,2359.333333,pitchwheel,50,819,64,0
8114,2359.333333,note_off,50,819,64,320
8115,2360.0,note_on,47,2047,64,0
8116,2360.0,pitchwheel,47,2047,64,0
8117,2360.0,note_off,47,2047,64,320
8118,2361.333333,note_on,47,3276,64,0
8119,2361.333333,pitchwheel,47,3276,64,0
8120,2361.333333,note_off,47,3276,64,320
8121,2362.0,note_on,46,409,64,0
8122,2362.0,pitchwheel,46,409,64,0
8123,2362.0,note_off,46,409,64,320
8124,2362.666666,note_on,46,0,64,0
8125,2362.666666,note_off,46,0,64,320
8126,2363.333333,note_on,45,2047,64,0
8127,2363.333333,pitchwheel,45,2047,64,0
8128,2363.333333,note_off,45,2047,64,640
8129,2364.666666,note_on,47,3276,64,0
8130,2364.666666,pitchwheel,47,3276,64,0
8131,2364.666666,note_off,47,3276,64,320
8132,2365.333333,note_on,45,3276,64,0
8133,2365.333333,pitchwheel,45,3276,64,0
8134,2365.333333,note_off,45,3276,64,320
8135,2366.0,note_on,50,2457,64,0
8136,2366.0,pitchwheel,50,2457,64,0
8137,2366.0,note_off,50,2457,64,320
8138,2366.666666,note_on,52,2457,64,0
8139,2366.666666,pitchwheel,52,2457,64,0
8140,2366.666666,note_off,52,2457,64,320
8141,2367.333333,note_on,48,2047,64,0
8142,2367.333333,pitchwheel,48,2047,64,0
8143,2367.333333,note_off,48,2047,64,320
8144,2368.0,note_on,53,2457,64,0
8145,2368.0,pitchwheel,53,2457,64,0
8146,2368.0,note_off,53,2457,64,320
8147,2368.666666,note_on,50,2457,64,0
8148,2368.666666,pitchwheel,50,2457,64,0
8149,2368.666666,note_off,50,2457,64,320
8150,2369.333333,note_on,45,0,64,0
8151,2369.333333,note_off,45,0,64,320
8152,2370.0,note_on,45,1638,64,0
8153,2370.0,pitchwheel,45,1638,64,0
8154,2370.0,note_off,45,1638,64,320
8155,2370.666666,note_on,46,1638,64,0
8156,2370.666666,pitchwheel,46,1638,64,0
8157,2370.666666,note_off,46,1638,64,320
8158,2371.333333,note_on,41,0,64,0
8159,2371.333333,note_off,41,0,64,320
8160,2372.0,note_on,41,1228,64,0
8161,2372.0,pitchwheel,41,1228,64,0
8162,2372.0,note_off,41,1228,64,320
8163,2373.333333,note_on,40,0,64,0
8164,2373.333333,note_off,40,0,64,320
8165,2374.0,note_on,38,2457,64,0
8166,2374.0,pitchwheel,38,2457,64,0
8167,2374.0,note_off,38,2457,64,320
8168,2375.333333,note_on,33,1638,64,0
8169,2375.333333,pitchwheel,33,1638,64,0
8170,2375.333333,note_off,33,1638,64,640
8171,2376.666666,note_on,38,3685,64,0
8172,2376.666666,pitchwheel,38,3685,64,0
8173,2376.666666,note_off,38,3685,64,320
8174,2377.333333,note_on,34,0,64,0
8175,2377.333333,note_off,34,0,64,320
8176,2378.666666,note_on,34,0,64,0
8177,2378.666666,note_off,34,0,64,320
8178,2380.0,note_on,32,2047,64,0
8179,2380.0,pitchwheel,32,2047,64,0
8180,2380.0,note_off,32,2047,64,320
8181,2380.666666,note_on,31,0,64,0
8182,2380.666666,note_off,31,0,64,320
8183,2381.333333,note_on,31,2866,64,0
8184,2381.333333,pitchwheel,31,2866,64,0
8185,2381.333333,note_off,31,2866,64,320
8186,2382.0,note_on,38,1228,64,0
8187,2382.0,pitchwheel,38,1228,64,0
8188,2382.0,note_off,38,1228,64,320
8189,2382.666666,note_on,38,2457,64,0
8190,2382.666666,pitchwheel,38,2457,64,0
8191,2382.666666,note_off,38,2457,64,320
8192,2383.333333,note_on,35,3276,64,0
8193,2383.333333,pitchwheel,35,3276,64,0
8194,2383.333333,note_off,35,3276,64,320
8195,2384.0,note_on,35,2457,64,0
8196,2384.0,pitchwheel,35,2457,64,0
8197,2384.0,note_off,35,2457,64,320
8198,2384.666666,note_on,33,0,64,0
8199,2384.666666,note_off,33,0,64,320
8200,2385.333333,note_on,38,1228,64,0
8201,2385.333333,pitchwheel,38,1228,64,0
8202,2385.333333,note_off,38,1228,64,320
8203,2386.0,note_on,40,2457,64,0
8204,2386.0,pitchwheel,40,2457,64,0
8205,2386.0,note_off,40,2457,64,320
8206,2386.666666,note_on,39,819,64,0
8207,2386.666666,pitchwheel,39,819,64,0
8208,2386.666666,note_off,39,819,64,320
8209,2388.0,note_on,35,3685,64,0
8210,2388.0,pitchwheel,35,3685,64,0
8211,2388.0,note_off,35,3685,64,320
8212,2388.666666,note_on,33,2047,64,0
8213,2388.666666,pitchwheel,33,2047,64,0
8214,2388.666666,note_off,33,2047,64,320
8215,2389.333333,note_on,32,0,64,0
8216,2389.333333,note_off,32,0,64,320
8217,2390.0,note_on,35,3685,64,0
8218,2390.0,pitchwheel,35,3685,64,0
8219,2390.0,note_off,35,3685,64,320
8220,2390.666666,note_on,38,0,64,0
8221,2390.666666,note_off,38,0,64,320
8222,2391.333333,note_on,38,819,64,0
8223,2391.333333,pitchwheel,38,819,64,0
8224,2391.333333,note_off,38,819,64,320
8225,2392.0,note_on,36,3276,64,0
8226,2392.0,pitchwheel,36,3276,64,0
8227,2392.0,note_off,36,3276,64,320
8228,2392.666666,note_on,31,409,64,0
8229,2392.666666,pitchwheel,31,409,64,0
8230,2392.666666,note_off,31,409,64,320
8231,2393.333333,note_on,31,0,64,0
8232,2393.333333,note_off,31,0,64,320
8233,2394.0,note_on,31,409,64,0
8234,2394.0,pitchwheel,31,409,64,0
8235,2394.0,note_off,31,409,64,320
8236,2394.666666,note_on,34,1638,64,0
8237,2394.666666,pitchwheel,34,1638,64,0
8238,2394.666666,note_off,34,1638,64,320
8239,2395.333333,note_on,29,0,64,0
8240,2395.333333,note_off,29,0,64,320
8241,2396.0,note_on,40,2866,64,0
8242,2396.0,pitchwheel,40,2866,64,0
8243,2396.0,note_off,40,2866,64,320
8244,2396.666666,note_on,35,3276,64,0
8245,2396.666666,pitchwheel,35,3276,64,0
8246,2396.666666,note_off,35,3276,64,320
8247,2397.333333,note_on,34,1638,64,0
8248,2397.333333,pitchwheel,34,1638,64,0
8249,2397.333333,note_off,34,1638,64,320
8250,2398.0,note_on,33,2047,64,0
8251,2398.0,pitchwheel,33,2047,64,0
8252,2398.0,note_off,33,2047,64,320
8253,2398.666666,note_on,33,3276,64,0
8254,2398.666666,pitchwheel,33,3276,64,0
8255,2398.666666,note_off,33,3276,64,320
8256,2400.0,note_on,32,2047,64,0
8257,2400.0,pitchwheel,32,2047,64,0
8258,2400.0,note_off,32,2047,64,320
8259,2400.666666,note_on,40,1638,64,0
8260,2400.666666,pitchwheel,40,1638,64,0
8261,2400.666666,note_off,40,1638,64,320
8262,2401.333333,note_on,41,0,64,0
8263,2401.333333,note_off,41,0,64,320
8264,2402.0,note_on,45,1638,64,0
8265,2402.0,pitchwheel,45,1638,64,0
8266,2402.0,note_off,45,1638,64,320
8267,2402.666666,note_on,44,0,64,0
8268,2402.666666,note_off,44,0,64,320
8269,2403.333333,note_on,41,0,64,0
8270,2403.333333,note_off,41,0,64,320
8271,2404.0,note_on,45,1638,64,0
8272,2404.0,pitchwheel,45,1638,64,0
8273,2404.0,note_off,45,1638,64,320
8274,2405.333333,note_on,44,0,64,0
8275,2405.333333,note_off,44,0,64,320
8276,2406.666666,note_on,40,0,64,0
8277,2406.666666,note_off,40,0,64,320
8278,2407.333333,note_on,43,0,64,0
8279,2407.333333,note_off,43,0,64,320
8280,2408.0,note_on,46,0,64,0
8281,2408.0,note_off,46,0,64,320
8282,2408.666666,note_on,41,1228,64,0
8283,2408.666666,pitchwheel,41,1228,64,0
8284,2408.666666,note_off,41,1228,64,320
8285,2409.333333,note_on,41,0,64,0
8286,2409.333333,note_off,41,0,64,320
8287,2410.0,note_on,35,3276,64,0
8288,2410.0,pitchwheel,35,3276,64,0
8289,2410.0,note_off,35,3276,64,320
8290,2410.666666,note_on,39,819,64,0
8291,2410.666666,pitchwheel,39,819,64,0
8292,2410.666666,note_off,39,819,64,320
8293,2411.333333,note_on,45,0,64,0
8294,2411.333333,note_off,45,0,64,320
8295,2412.666666,note_on,40,2457,64,0
8296,2412.666666,pitchwheel,40,2457,64,0
8297,2412.666666,note_off,40,2457,64,320
8298,2413.333333,note_on,39,819,64,0
8299,2413.333333,pitchwheel,39,819,64,0
8300,2413.333333,note_off,39,819,64,320
8301,2414.666666,note_on,38,2457,64,0
8302,2414.666666,pitchwheel,38,2457,64,0
8303,2414.666666,note_off,38,2457,64,320
8304,2415.333333,note_on,33,2047,64,0
8305,2415.333333,pitchwheel,33,2047,64,0
8306,2415.333333,note_off,33,2047,64,320
8307,2416.0,note_on,34,1638,64,0
8308,2416.0,pitchwheel,34,1638,64,0
8309,2416.0,note_off,34,1638,64,320
8310,2416.666666,note_on,32,2047,64,0
8311,2416.666666,pitchwheel,32,2047,64,0
8312,2416.666666,note_off,32,2047,64,320
8313,2417.333333,note_on,36,819,64,0
8314,2417.333333,pitchwheel,36,819,64,0
8315,2417.333333,note_off,36,819,64,320
8316,2418.0,note_on,38,819,64,0
8317,2418.0,pitchwheel,38,819,64,0
8318,2418.0,note_off,38,819,64,320
8319,2418.666666,note_on,39,819,64,0
8320,2418.666666,pitchwheel,39,819,64,0
8321,2418.666666,note_off,39,819,64,320
8322,2419.333333,note_on,36,2047,64,0
8323,2419.333333,pitchwheel,36,2047,64,0
8324,2419.333333,note_off,36,2047,64,320
8325,2420.0,note_on,34,0,64,0
8326,2420.0,note_off,34,0,64,320
8327,2420.666666,note_on,35,3685,64,0
8328,2420.666666,pitchwheel,35,3685,64,0
8329,2420.666666,note_off,35,3685,64,320
8330,2421.333333,note_on,34,1638,64,0
8331,2421.333333,pitchwheel,34,1638,64,0
8332,2421.333333,note_off,34,1638,64,320
8333,2422.0,note_on,38,0,64,0
8334,2422.0,note_off,38,0,64,320
8335,2422.666666,note_on,33,0,64,0
8336,2422.666666,note_off,33,0,64,320
8337,2423.333333,note_on,35,3276,64,0
8338,2423.333333,pitchwheel,35,3276,64,0
8339,2423.333333,note_off,35,3276,64,320
8340,2424.0,note_on,38,3685,64,0
8341,2424.0,pitchwheel,38,3685,64,0
8342,2424.0,note_off,38,3685,64,320
8343,2424.666666,note_on,34,409,64,0
8344,2424.666666,pitchwheel,34,409,64,0
8345,2424.666666,note_off,34,409,64,320
8346,2425.333333,note_on,33,3276,64,0
8347,2425.333333,pitchwheel,33,3276,64,0
8348,2425.333333,note_off,33,3276,64,320
8349,2426.666666,note_on,33,1638,64,0
8350,2426.666666,pitchwheel,33,1638,64,0
8351,2426.666666,note_off,33,1638,64,320
8352,2427.333333,note_on,29,0,64,0
8353,2427.333333,note_off,29,0,64,320
8354,2428.666666,note_on,38,819,64,0
8355,2428.666666,pitchwheel,38,819,64,0
8356,2428.666666,note_off,38,819,64,320
8357,2429.333333,note_on,36,2047,64,0
8358,2429.333333,pitchwheel,36,2047,64,0
8359,2429.333333,note_off,36,2047,64,320
8360,2430.666666,note_on,35,2457,64,0
8361,2430.666666,pitchwheel,35,2457,64,0
8362,2430.666666,note_off,35,2457,64,320
8363,2432.0,note_on,33,2047,64,0
8364,2432.0,pitchwheel,33,2047,64,0
8365,2432.0,note_off,33,2047,64,320
8366,2433.333333,note_on,28,0,64,0
8367,2433.333333,note_off,28,0,64,320
8368,2434.0,note_on,35,3276,64,0
8369,2434.0,pitchwheel,35,3276,64,0
8370,2434.0,note_off,35,3276,64,320
8371,2434.666666,note_on,38,2457,64,0
8372,2434.666666,pitchwheel,38,2457,64,0
8373,2434.666666,note_off,38,2457,64,320
8374,2435.333333,note_on,38,1228,64,0
8375,2435.333333,pitchwheel,38,1228,64,0
8376,2435.333333,note_off,38,1228,64,320
8377,2436.0,note_on,38,2457,64,0
8378,2436.0,pitchwheel,38,2457,64,0
8379,2436.0,note_off,38,2457,64,320
8380,2436.666666,note_on,33,1638,64,0
8381,2436.666666,pitchwheel,33,1638,64,0
8382,2436.666666,note_off,33,1638,64,320
8383,2437.333333,note_on,33,2047,64,0
8384,2437.333333,pitchwheel,33,2047,64,0
8385,2437.333333,note_off,33,2047,64,320
8386,2438.0,note_on,33,0,64,0
8387,2438.0,note_off,33,0,64,320
8388,2438.666666,note_on,31,1638,64,0
8389,2438.666666,pitchwheel,31,1638,64,0
8390,2438.666666,note_off,31,1638,64,320
8391,2439.333333,note_on,33,1638,64,0
8392,2439.333333,pitchwheel,33,1638,64,0
8393,2439.333333,note_off,33,1638,64,320
8394,2440.0,note_on,34,0,64,0
8395,2440.0,note_off,34,0,64,320
8396,2441.333333,note_on,38,0,64,0
8397,2441.333333,note_off,38,0,64,320
8398,2442.0,note_on,35,2457,64,0
8399,2442.0,pitchwheel,35,2457,64,0
8400,2442.0,note_off,35,2457,64,320
8401,2442.666666,note_on,36,3276,64,0
8402,2442.666666,pitchwheel,36,3276,64,0
8403,2442.666666,note_off,36,3276,64,320
8404,2443.333333,note_on,31,2866,64,0
8405,2443.333333,pitchwheel,31,2866,64,0
8406,2443.333333,note_off,31,2866,64,320
8407,2444.0,note_on,38,2457,64,0
8408,2444.0,pitchwheel,38,2457,64,0
8409,2444.0,note_off,38,2457,64,320
8410,2444.666666,note_on,43,0,64,0
8411,2444.666666,note_off,43,0,64,320
8412,2445.333333,note_on,46,1638,64,0
8413,2445.333333,pitchwheel,46,1638,64,0
8414,2445.333333,note_off,46,1638,64,320
8415,2446.0,note_on,43,409,64,0
8416,2446.0,pitchwheel,43,409,64,0
8417,2446.0,note_off,43,409,64,320
8418,2446.666666,note_on,43,0,64,0
8419,2446.666666,note_off,43,0,64,320
8420,2447.333333,note_on,38,0,64,0
8421,2447.333333,note_off,38,0,64,320
8422,2448.0,note_on,36,819,64,0
8423,2448.0,pitchwheel,36,819,64,0
8424,2448.0,note_off,36,819,64,320
8425,2448.666666,note_on,38,2457,64,0
8426,2448.666666,pitchwheel,38,2457,64,0
8427,2448.666666,note_off,38,2457,64,320
8428,2449.333333,note_on,41,0,64,0
8429,2449.333333,note_off,41,0,64,320
8430,2450.0,note_on,40,2457,64,0
8431,2450.0,pitchwheel,40,2457,64,0
8432,2450.0,note_off,40,2457,64,320
8433,2450.666666,note_on,40,2866,64,0
8434,2450.666666,pitchwheel,40,2866,64,0
8435,2450.666666,note_off,40,2866,64,320
8436,2451.333333,note_on,45,2047,64,0
8437,2451.333333,pitchwheel,45,2047,64,0
8438,2451.333333,note_off,45,2047,64,320
8439,2452.0,note_on,45,3276,64,0
8440,2452.0,pitchwheel,45,3276,64,0
8441,2452.0,note_off,45,3276,64,320
8442,2453.333333,note_on,46,1638,64,0
8443,2453.333333,pitchwheel,46,1638,64,0
8444,2453.333333,note_off,46,1638,64,320
8445,2454.0,note_on,41,0,64,0
8446,2454.0,note_off,41,0,64,640
8447,2455.333333,note_on,43,0,64,0
8448,2455.333333,note_off,43,0,64,320
8449,2456.0,note_on,38,2457,64,0
8450,2456.0,pitchwheel,38,2457,64,0
8451,2456.0,note_off,38,2457,64,320
8452,2456.666666,note_on,33,0,64,0
8453,2456.666666,note_off,33,0,64,320
8454,2457.333333,note_on,34,0,64,0
8455,2457.333333,note_off,34,0,64,320
8456,2458.666666,note_on,31,409,64,0
8457,2458.666666,pitchwheel,31,409,64,0
8458,2458.666666,note_off,31,409,64,320
8459,2460.0,note_on,28,0,64,0
8460,2460.0,note_off,28,0,64,320
8461,2460.666666,note_on,40,2457,64,0
8462,2460.666666,pitchwheel,40,2457,64,0
8463,2460.666666,note_off,40,2457,64,320
8464,2461.333333,note_on,41,2457,64,0
8465,2461.333333,pitchwheel,41,2457,64,0
8466,2461.333333,note_off,41,2457,64,320
8467,2462.0,note_on,38,1228,64,0
8468,2462.0,pitchwheel,38,1228,64,0
8469,2462.0,note_off,38,1228,64,320
8470,2462.666666,note_on,38,2457,64,0
8471,2462.666666,pitchwheel,38,2457,64,0
8472,2462.666666,note_off,38,2457,64,320
8473,2463.333333,note_on,43,0,64,0
8474,2463.333333,note_off,43,0,64,320
8475,2464.0,note_on,43,409,64,0
8476,2464.0,pitchwheel,43,409,64,0
8477,2464.0,note_off,43,409,64,320
8478,2464.666666,note_on,45,0,64,0
8479,2464.666666,note_off,45,0,64,320
8480,2466.0,note_on,50,819,64,0
8481,2466.0,pitchwheel,50,819,64,0
8482,2466.0,note_off,50,819,64,320
8483,2466.666666,note_on,47,2047,64,0
8484,2466.666666,pitchwheel,47,2047,64,0
8485,2466.666666,note_off,47,2047,64,320
8486,2468.0,note_on,52,2457,64,0
8487,2468.0,pitchwheel,52,2457,64,0
8488,2468.0,note_off,52,2457,64,320
8489,2468.666666,note_on,47,2457,64,0
8490,2468.666666,pitchwheel,47,2457,64,0
8491,2468.666666,note_off,47,2457,64,320
8492,2469.333333,note_on,46,0,64,0
8493,2469.333333,note_off,46,0,64,320
8494,2470.0,note_on,49,0,64,0
8495,2470.0,note_off,49,0,64,320
8496,2470.666666,note_on,48,819,64,0
8497,2470.666666,pitchwheel,48,819,64,0
8498,2470.666666,note_off,48,819,64,320
8499,2471.333333,note_on,47,3276,64,0
8500,2471.333333,pitchwheel,47,3276,64,0
8501,2471.333333,note_off,47,3276,64,320
8502,2472.0,note_on,47,3685,64,0
8503,2472.0,pitchwheel,47,3685,64,0
8504,2472.0,note_off,47,3685,64,320
8505,2472.666666,note_on,43,409,64,0
8506,2472.666666,pitchwheel,43,409,64,0
8507,2472.666666,note_off,43,409,64,320
8508,2473.333333,note_on,43,0,64,0
8509,2473.333333,note_off,43,0,64,320
8510,2474.0,note_on,38,0,64,0
8511,2474.0,note_off,38,0,64,640
8512,2475.333333,note_on,38,2457,64,0
8513,2475.333333,pitchwheel,38,2457,64,0
8514,2475.333333,note_off,38,2457,64,320
8515,2476.0,note_on,33,0,64,0
8516,2476.0,note_off,33,0,64,320
8517,2476.666666,note_on,33,1638,64,0
8518,2476.666666,pitchwheel,33,1638,64,0
8519,2476.666666,note_off,33,1638,64,320
8520,2477.333333,note_on,36,3276,64,0
8521,2477.333333,pitchwheel,36,3276,64,0
8522,2477.333333,note_off,36,3276,64,320
8523,2478.0,note_on,33,2047,64,0
8524,2478.0,pitchwheel,33,2047,64,0
8525,2478.0,note_off,33,2047,64,320
8526,2478.666666,note_on,33,3276,64,0
8527,2478.666666,pitchwheel,33,3276,64,0
8528,2478.666666,note_off,33,3276,64,320
8529,2480.0,note_on,32,2047,64,0
8530,2480.0,pitchwheel,32,2047,64,0
8531,2480.0,note_off,32,2047,64,320
8532,2480.666666,note_on,36,2047,64,0
8533,2480.666666,pitchwheel,36,2047,64,0
8534,2480.666666,note_off,36,2047,64,320
8535,2482.0,note_on,40,2457,64,0
8536,2482.0,pitchwheel,40,2457,64,0
8537,2482.0,note_off,40,2457,64,320
8538,2482.666666,note_on,38,819,64,0
8539,2482.666666,pitchwheel,38,819,64,0
8540,2482.666666,note_off,38,819,64,320
8541,2483.333333,note_on,35,2047,64,0
8542,2483.333333,pitchwheel,35,2047,64,0
8543,2483.333333,note_off,35,2047,64,320
8544,2484.0,note_on,35,2457,64,0
8545,2484.0,pitchwheel,35,2457,64,0
8546,2484.0,note_off,35,2457,64,320
8547,2485.333333,note_on,35,3685,64,0
8548,2485.333333,pitchwheel,35,3685,64,0
8549,2485.333333,note_off,35,3685,64,320
8550,2486.666666,note_on,35,2047,64,0
8551,2486.666666,pitchwheel,35,2047,64,0
8552,2486.666666,note_off,35,2047,64,320
8553,2487.333333,note_on,38,819,64,0
8554,2487.333333,pitchwheel,38,819,64,0
8555,2487.333333,note_off,38,819,64,320
8556,2488.0,note_on,39,819,64,0
8557,2488.0,pitchwheel,39,819,64,0
8558,2488.0,note_off,39,819,64,320
8559,2488.666666,note_on,36,819,64,0
8560,2488.666666,pitchwheel,36,819,64,0
8561,2488.666666,note_off,36,819,64,320
8562,2489.333333,note_on,36,2047,64,0
8563,2489.333333,pitchwheel,36,2047,64,0
8564,2489.333333,note_off,36,2047,64,320
8565,2490.0,note_on,40,2457,64,0
8566,2490.0,pitchwheel,40,2457,64,0
8567,2490.0,note_off,40,2457,64,320
8568,2490.666666,note_on,38,819,64,0
8569,2490.666666,pitchwheel,38,819,64,0
8570,2490.666666,note_off,38,819,64,320
8571,2491.333333,note_on,33,0,64,0
8572,2491.333333,note_off,33,0,64,320
8573,2492.0,note_on,31,1638,64,0
8574,2492.0,pitchwheel,31,1638,64,0
8575,2492.0,note_off,31,1638,64,320
8576,2492.666666,note_on,35,3276,64,0
8577,2492.666666,pitchwheel,35,3276,64,0
8578,2492.666666,note_off,35,3276,64,320
8579,2493.333333,note_on,34,1638,64,0
8580,2493.333333,pitchwheel,34,1638,64,0
8581,2493.333333,note_off,34,1638,64,320
8582,2494.666666,note_on,38,0,64,0
8583,2494.666666,note_off,38,0,64,320
8584,2495.333333,note_on,43,1638,64,0
8585,2495.333333,pitchwheel,43,1638,64,0
8586,2495.333333,note_off,43,1638,64,320
8587,2496.0,note_on,46,1638,64,0
8588,2496.0,pitchwheel,46,1638,64,0
8589,2496.0,note_off,46,1638,64,320
8590,2496.666666,note_on,50,3685,64,0
8591,2496.666666,pitchwheel,50,3685,64,0
8592,2496.666666,note_off,50,3685,64,320
8593,2497.333333,note_on,50,2457,64,0
8594,2497.333333,pitchwheel,50,2457,64,0
8595,2497.333333,note_off,50,2457,64,320
8596,2498.0,note_on,45,1638,64,0
8597,2498.0,pitchwheel,45,1638,64,0
8598,2498.0,note_off,45,1638,64,320
8599,2498.666666,note_on,45,0,64,0
8600,2498.666666,note_off,45,0,64,320
8601,2499.333333,note_on,41,0,64,0
8602,2499.333333,note_off,41,0,64,320
8603,2500.0,note_on,35,3276,64,0
8604,2500.0,pitchwheel,35,3276,64,0
8605,2500.0,note_off,35,3276,64,320
8606,2500.666666,note_on,41,0,64,0
8607,2500.666666,note_off,41,0,64,320
8608,2501.333333,note_on,44,0,64,0
8609,2501.333333,note_off,44,0,64,320
8610,2502.0,note_on,38,3685,64,0
8611,2502.0,pitchwheel,38,3685,64,0
8612,2502.0,note_off,38,3685,64,320
8613,2502.666666,note_on,41,0,64,0
8614,2502.666666,note_off,41,0,64,320
8615,2503.333333,note_on,43,0,64,0
8616,2503.333333,note_off,43,0,64,320
8617,2504.0,note_on,46,1638,64,0
8618,2504.0,pitchwheel,46,1638,64,0
8619,2504.0,note_off,46,1638,64,320
8620,2504.666666,note_on,43,1638,64,0
8621,2504.666666,pitchwheel,43,1638,64,0
8622,2504.666666,note_off,43,1638,64,320
8623,2505.333333,note_on,43,2866,64,0
8624,2505.333333,pitchwheel,43,2866,64,0
8625,2505.333333,note_off,43,2866,64,320
8626,2506.666666,note_on,45,2047,64,0
8627,2506.666666,pitchwheel,45,2047,64,0
8628,2506.666666,note_off,45,2047,64,320
8629,2507.333333,note_on,41,0,64,0
8630,2507.333333,note_off,41,0,64,320
8631,2508.0,note_on,36,2047,64,0
8632,2508.0,pitchwheel,36,2047,64,0
8633,2508.0,note_off,36,2047,64,320
8634,2508.666666,note_on,38,819,64,0
8635,2508.666666,pitchwheel,38,819,64,0
8636,2508.666666,note_off,38,819,64,320
8637,2509.333333,note_on,44,0,64,0
8638,2509.333333,note_off,44,0,64,320
8639,2510.0,note_on,38,2457,64,0
8640,2510.0,pitchwheel,38,2457,64,0
8641,2510.0,note_off,38,2457,64,320
8642,2510.666666,note_on,35,3276,64,0
8643,2510.666666,pitchwheel,35,3276,64,0
8644,2510.666666,note_off,35,3276,64,320
8645,2512.0,note_on,39,819,64,0
8646,2512.0,pitchwheel,39,819,64,0
8647,2512.0,note_off,39,819,64,320
8648,2513.333333,note_on,45,0,64,0
8649,2513.333333,note_off,45,0,64,320
8650,2514.0,note_on,40,2457,64,0
8651,2514.0,pitchwheel,40,2457,64,0
8652,2514.0,note_off,40,2457,64,320
8653,2514.666666,note_on,41,2457,64,0
8654,2514.666666,pitchwheel,41,2457,64,0
8655,2514.666666,note_off,41,2457,64,320
8656,2515.333333,note_on,41,0,64,0
8657,2515.333333,note_off,41,0,64,320
8658,2516.0,note_on,40,2866,64,0
8659,2516.0,pitchwheel,40,2866,64,0
8660,2516.0,note_off,40,2866,64,320
8661,2516.666666,note_on,38,819,64,0
8662,2516.666666,pitchwheel,38,819,64,0
8663,2516.666666,note_off,38,819,64,320
8664,2517.333333,note_on,35,3685,64,0
8665,2517.333333,pitchwheel,35,3685,64,0
8666,2517.333333,note_off,35,3685,64,320
8667,2518.0,note_on,33,0,64,0
8668,2518.0,note_off,33,0,64,320
8669,2519.333333,note_on,31,0,64,0
8670,2519.333333,note_off,31,0,64,640
8671,2521.333333,note_on,38,819,64,0
8672,2521.333333,pitchwheel,38,819,64,0
8673,2521.333333,note_off,38,819,64,320
8674,2522.0,note_on,34,409,64,0
8675,2522.0,pitchwheel,34,409,64,0
8676,2522.0,note_off,34,409,64,320
8677,2522.666666,note_on,38,3685,64,0
8678,2522.666666,pitchwheel,38,3685,64,0
8679,2522.666666,note_off,38,3685,64,320
8680,2523.333333,note_on,36,2047,64,0
8681,2523.333333,pitchwheel,36,2047,64,0
8682,2523.333333,note_off,36,2047,64,320
8683,2524.0,note_on,33,3276,64,0
8684,2524.0,pitchwheel,33,3276,64,0
8685,2524.0,note_off,33,3276,64,320
8686,2524.666666,note_on,33,1638,64,0
8687,2524.666666,pitchwheel,33,1638,64,0
8688,2524.666666,note_off,33,1638,64,320
8689,2525.333333,note_on,33,2047,64,0
8690,2525.333333,pitchwheel,33,2047,64,0
8691,2525.333333,note_off,33,2047,64,320
8692,2526.0,note_on,36,819,64,0
8693,2526.0,pitchwheel,36,819,64,0
8694,2526.0,note_off,36,819,64,640
8695,2527.333333,note_on,36,2047,64,0
8696,2527.333333,pitchwheel,36,2047,64,0
8697,2527.333333,note_off,36,2047,64,320
8698,2528.0,note_on,33,2047,64,0
8699,2528.0,pitchwheel,33,2047,64,0
8700,2528.0,note_off,33,2047,64,320
8701,2528.666666,note_on,38,2457,64,0
8702,2528.666666,pitchwheel,38,2457,64,0
8703,2528.666666,note_off,38,2457,64,320
8704,2529.333333,note_on,33,0,64,0
8705,2529.333333,note_off,33,0,64,320
8706,2530.0,note_on,35,3276,64,0
8707,2530.0,pitchwheel,35,3276,64,0
8708,2530.0,note_off,35,3276,64,320
8709,2530.666666,note_on,34,1638,64,0
8710,2530.666666,pitchwheel,34,1638,64,0
8711,2530.666666,note_off,34,1638,64,320
8712,2531.333333,note_on,33,3276,64,0
8713,2531.333333,pitchwheel,33,3276,64,0
8714,2531.333333,note_off,33,3276,64,320
8715,2532.0,note_on,33,2047,64,0
8716,2532.0,pitchwheel,33,2047,64,0
8717,2532.0,note_off,33,2047,64,320
8718,2533.333333,note_on,32,0,64,0
8719,2533.333333,note_off,32,0,64,320
8720,2534.0,note_on,38,2457,64,0
8721,2534.0,pitchwheel,38,2457,64,0
8722,2534.0,note_off,38,2457,64,320
8723,2535.333333,note_on,38,819,64,0
8724,2535.333333,pitchwheel,38,819,64,0
8725,2535.333333,note_off,38,819,64,320
8726,2536.0,note_on,44,0,64,0
8727,2536.0,note_off,44,0,64,320
8728,2536.666666,note_on,38,2457,64,0
8729,2536.666666,pitchwheel,38,2457,64,0
8730,2536.666666,note_off,38,2457,64,320
8731,2537.333333,note_on,34,0,64,0
8732,2537.333333,note_off,34,0,64,320
8733,2538.666666,note_on,32,0,64,0
8734,2538.666666,note_off,32,0,64,320
8735,2540.0,note_on,35,2047,64,0
8736,2540.0,pitchwheel,35,2047,64,0
8737,2540.0,note_off,35,2047,64,320
8738,2540.666666,note_on,40,2457,64,0
8739,2540.666666,pitchwheel,40,2457,64,0
8740,2540.666666,note_off,40,2457,64,320
8741,2541.333333,note_on,46,1638,64,0
8742,2541.333333,pitchwheel,46,1638,64,0
8743,2541.333333,note_off,46,1638,64,320
8744,2542.0,note_on,48,819,64,0
8745,2542.0,pitchwheel,48,819,64,0
8746,2542.0,note_off,48,819,64,320
8747,2542.666666,note_on,47,3685,64,0
8748,2542.666666,pitchwheel,47,3685,64,0
8749,2542.666666,note_off,47,3685,64,320
8750,2543.333333,note_on,47,3276,64,0
8751,2543.333333,pitchwheel,47,3276,64,0
8752,2543.333333,note_off,47,3276,64,320
8753,2544.0,note_on,47,3685,64,0
8754,2544.0,pitchwheel,47,3685,64,0
8755,2544.0,note_off,47,3685,64,320
8756,2544.666666,note_on,45,0,64,0
8757,2544.666666,note_off,45,0,64,320
8758,2545.333333,note_on,41,0,64,0
8759,2545.333333,note_off,41,0,64,320
8760,2546.0,note_on,43,0,64,0
8761,2546.0,note_off,43,0,64,320
8762,2546.666666,note_on,43,1638,64,0
8763,2546.666666,pitchwheel,43,1638,64,0
8764,2546.666666,note_off,43,1638,64,320
8765,2548.0,note_on,45,2047,64,0
8766,2548.0,pitchwheel,45,2047,64,0
8767,2548.0,note_off,45,2047,64,640
8768,2549.333333,note_on,46,1638,64,0
8769,2549.333333,pitchwheel,46,1638,64,0
8770,2549.333333,note_off,46,1638,64,320
8771,2550.0,note_on,44,2047,64,0
8772,2550.0,pitchwheel,44,2047,64,0
8773,2550.0,note_off,44,2047,64,320
8774,2550.666666,note_on,38,3685,64,0
8775,2550.666666,pitchwheel,38,3685,64,0
8776,2550.666666,note_off,38,3685,64,320
8777,2551.333333,note_on,33,1638,64,0
8778,2551.333333,pitchwheel,33,1638,64,0
8779,2551.333333,note_off,33,1638,64,320
8780,2552.0,note_on,36,2047,64,0
8781,2552.0,pitchwheel,36,2047,64,0
8782,2552.0,note_off,36,2047,64,320
8783,2552.666666,note_on,31,1638,64,0
8784,2552.666666,pitchwheel,31,1638,64,0
8785,2552.666666,note_off,31,1638,64,640
8786,2554.0,note_on,31,409,64,0
8787,2554.0,pitchwheel,31,409,64,0
8788,2554.0,note_off,31,409,64,320
8789,2554.666666,note_on,36,819,64,0
8790,2554.666666,pitchwheel,36,819,64,0
8791,2554.666666,note_off,36,819,64,320
8792,2555.333333,note_on,41,0,64,0
8793,2555.333333,note_off,41,0,64,320
8794,2556.0,note_on,38,2457,64,0
8795,2556.0,pitchwheel,38,2457,64,0
8796,2556.0,note_off,38,2457,64,320
8797,2556.666666,note_on,35,3276,64,0
8798,2556.666666,pitchwheel,35,3276,64,0
8799,2556.666666,note_off,35,3276,64,320
8800,2557.333333,note_on,38,1228,64,0
8801,2557.333333,pitchwheel,38,1228,64,0
8802,2557.333333,note_off,38,1228,64,320
8803,2558.0,note_on,41,0,64,0
8804,2558.0,note_off,41,0,64,320
8805,2558.666666,note_on,40,2866,64,0
8806,2558.666666,pitchwheel,40,2866,64,0
8807,2558.666666,note_off,40,2866,64,320
8808,2560.0,note_on,38,0,64,0
8809,2560.0,note_off,38,0,64,320
8810,2560.666666,note_on,40,1638,64,0
8811,2560.666666,pitchwheel,40,1638,64,0
8812,2560.666666,note_off,40,1638,64,320
8813,2561.333333,note_on,41,0,64,0
8814,2561.333333,note_off,41,0,64,320
8815,2562.0,note_on,43,0,64,0
8816,2562.0,note_off,43,0,64,320
8817,2562.666666,note_on,40,1638,64,0
8818,2562.666666,pitchwheel,40,1638,64,0
8819,2562.666666,note_off,40,1638,64,320
8820,2564.0,note_on,46,0,64,0
8821,2564.0,note_off,46,0,64,320
8822,2565.333333,note_on,48,3276,64,0
8823,2565.333333,pitchwheel,48,3276,64,0
8824,2565.333333,note_off,48,3276,64,320
8825,2566.666666,note_on,49,0,64,0
8826,2566.666666,note_off,49,0,64,320
8827,2567.333333,note_on,45,1638,64,0
8828,2567.333333,pitchwheel,45,1638,64,0
8829,2567.333333,note_off,45,1638,64,640
8830,2568.666666,note_on,48,819,64,0
8831,2568.666666,pitchwheel,48,819,64,0
8832,2568.666666,note_off,48,819,64,320
8833,2569.333333,note_on,48,2047,64,0
8834,2569.333333,pitchwheel,48,2047,64,0
8835,2569.333333,note_off,48,2047,64,320
8836,2570.0,note_on,50,819,64,0
8837,2570.0,pitchwheel,50,819,64,0
8838,2570.0,note_off,50,819,64,320
8839,2570.666666,note_on,56,0,64,0
8840,2570.666666,note_off,56,0,64,320
8841,2571.333333,note_on,57,0,64,0
8842,2571.333333,note_off,57,0,64,320
8843,2572.666666,note_on,59,3276,64,0
8844,2572.666666,pitchwheel,59,3276,64,0
8845,2572.666666,note_off,59,3276,64,320
8846,2573.333333,note_on,60,3276,64,0
8847,2573.333333,pitchwheel,60,3276,64,0
8848,2573.333333,note_off,60,3276,64,320
8849,2574.666666,note_on,62,3685,64,0
8850,2574.666666,pitchwheel,62,3685,64,0
8851,2574.666666,note_off,62,3685,64,320
8852,2575.333333,note_on,57,2047,64,0
8853,2575.333333,pitchwheel,57,2047,64,0
8854,2575.333333,note_off,57,2047,64,320
8855,2576.0,note_on,58,0,64,0
8856,2576.0,note_off,58,0,64,320
8857,2576.666666,note_on,55,2866,64,0
8858,2576.666666,pitchwheel,55,2866,64,0
8859,2576.666666,note_off,55,2866,64,320
8860,2577.333333,note_on,57,3276,64,0
8861,2577.333333,pitchwheel,57,3276,64,0
8862,2577.333333,note_off,57,3276,64,320
8863,2578.0,note_on,62,819,64,0
8864,2578.0,pitchwheel,62,819,64,0
8865,2578.0,note_off,62,819,64,320
8866,2578.666666,note_on,58,1638,64,0
8867,2578.666666,pitchwheel,58,1638,64,0
8868,2578.666666,note_off,58,1638,64,320
8869,2579.333333,note_on,53,0,64,0
8870,2579.333333,note_off,53,0,64,320
8871,2580.0,note_on,55,1638,64,0
8872,2580.0,pitchwheel,55,1638,64,0
8873,2580.0,note_off,55,1638,64,320
8874,2580.666666,note_on,59,3685,64,0
8875,2580.666666,pitchwheel,59,3685,64,0
8876,2580.666666,note_off,59,3685,64,320
8877,2581.333333,note_on,63,819,64,0
8878,2581.333333,pitchwheel,63,819,64,0
8879,2581.333333,note_off,63,819,64,320
8880,2582.0,note_on,62,0,64,0
8881,2582.0,note_off,62,0,64,320
8882,2582.666666,note_on,57,0,64,0
8883,2582.666666,note_off,57,0,64,320
8884,2583.333333,note_on,52,2457,64,0
8885,2583.333333,pitchwheel,52,2457,64,0
8886,2583.333333,note_off,52,2457,64,320
8887,2584.0,note_on,56,0,64,0
8888,2584.0,note_off,56,0,64,320
8889,2584.666666,note_on,55,1638,64,0
8890,2584.666666,pitchwheel,55,1638,64,0
8891,2584.666666,note_off,55,1638,64,320
8892,2585.333333,note_on,55,2866,64,0
8893,2585.333333,pitchwheel,55,2866,64,0
8894,2585.333333,note_off,55,2866,64,320
8895,2586.666666,note_on,57,0,64,0
8896,2586.666666,note_off,57,0,64,320
8897,2587.333333,note_on,53,0,64,0
8898,2587.333333,note_off,53,0,64,320
8899,2588.666666,note_on,52,2457,64,0
8900,2588.666666,pitchwheel,52,2457,64,0
8901,2588.666666,note_off,52,2457,64,320
8902,2589.333333,note_on,51,819,64,0
8903,2589.333333,pitchwheel,51,819,64,0
8904,2589.333333,note_off,51,819,64,320
8905,2590.0,note_on,57,0,64,0
8906,2590.0,note_off,57,0,64,320
8907,2590.666666,note_on,58,0,64,0
8908,2590.666666,note_off,58,0,64,320
8909,2592.0,note_on,58,0,64,0
8910,2592.0,note_off,58,0,64,320
8911,2593.333333,note_on,57,2047,64,0
8912,2593.333333,pitchwheel,57,2047,64,0
8913,2593.333333,note_off,57,2047,64,320
8914,2594.0,note_on,62,819,64,0
8915,2594.0,pitchwheel,62,819,64,0
8916,2594.0,note_off,62,819,64,320
8917,2594.666666,note_on,65,2457,64,0
8918,2594.666666,pitchwheel,65,2457,64,0
8919,2594.666666,note_off,65,2457,64,320
8920,2595.333333,note_on,55,2866,64,0
8921,2595.333333,pitchwheel,55,2866,64,0
8922,2595.333333,note_off,55,2866,64,320
8923,2596.0,note_on,55,1638,64,0
8924,2596.0,pitchwheel,55,1638,64,0
8925,2596.0,note_off,55,1638,64,320
8926,2596.666666,note_on,52,2457,64,0
8927,2596.666666,pitchwheel,52,2457,64,0
8928,2596.666666,note_off,52,2457,64,320
8929,2597.333333,note_on,57,3276,64,0
8930,2597.333333,pitchwheel,57,3276,64,0
8931,2597.333333,note_off,57,3276,64,320
8932,2598.0,note_on,57,0,64,0
8933,2598.0,note_off,57,0,64,320
8934,2598.666666,note_on,62,2457,64,0
8935,2598.666666,pitchwheel,62,2457,64,0
8936,2598.666666,note_off,62,2457,64,320
8937,2599.333333,note_on,59,3276,64,0
8938,2599.333333,pitchwheel,59,3276,64,0
8939,2599.333333,note_off,59,3276,64,320
8940,2600.0,note_on,56,0,64,0
8941,2600.0,note_off,56,0,64,320
8942,2601.333333,note_on,53,0,64,0
8943,2601.333333,note_off,53,0,64,320
8944,2602.0,note_on,47,2457,64,0
8945,2602.0,pitchwheel,47,2457,64,0
8946,2602.0,note_off,47,2457,64,320
8947,2602.666666,note_on,43,1638,64,0
8948,2602.666666,pitchwheel,43,1638,64,0
8949,2602.666666,note_off,43,1638,64,320
8950,2603.333333,note_on,44,2047,64,0
8951,2603.333333,pitchwheel,44,2047,64,0
8952,2603.333333,note_off,44,2047,64,320
8953,2604.0,note_on,38,2457,64,0
8954,2604.0,pitchwheel,38,2457,64,0
8955,2604.0,note_off,38,2457,64,320
8956,2604.666666,note_on,33,1638,64,0
8957,2604.666666,pitchwheel,33,1638,64,0
8958,2604.666666,note_off,33,1638,64,320
8959,2605.333333,note_on,33,0,64,0
8960,2605.333333,note_off,33,0,64,320
8961,2606.0,note_on,38,3685,64,0
8962,2606.0,pitchwheel,38,3685,64,0
8963,2606.0,note_off,38,3685,64,320
8964,2606.666666,note_on,33,1638,64,0
8965,2606.666666,pitchwheel,33,1638,64,0
8966,2606.666666,note_off,33,1638,64,320
8967,2607.333333,note_on,38,0,64,0
8968,2607.333333,note_off,38,0,64,320
8969,2608.0,note_on,34,1638,64,0
8970,2608.0,pitchwheel,34,1638,64,0
8971,2608.0,note_off,34,1638,64,320
8972,2608.666666,note_on,38,2457,64,0
8973,2608.666666,pitchwheel,38,2457,64,0
8974,2608.666666,note_off,38,2457,64,320
8975,2609.333333,note_on,41,0,64,0
8976,2609.333333,note_off,41,0,64,320
8977,2610.0,note_on,43,0,64,0
8978,2610.0,note_off,43,0,64,320
8979,2610.666666,note_on,41,1228,64,0
8980,2610.666666,pitchwheel,41,1228,64,0
8981,2610.666666,note_off,41,1228,64,320
8982,2611.333333,note_on,36,2047,64,0
8983,2611.333333,pitchwheel,36,2047,64,0
8984,2611.333333,note_off,36,2047,64,320
8985,2612.0,note_on,36,819,64,0
8986,2612.0,pitchwheel,36,819,64,0
8987,2612.0,note_off,36,819,64,320
8988,2613.333333,note_on,35,2047,64,0
8989,2613.333333,pitchwheel,35,2047,64,0
8990,2613.333333,note_off,35,2047,64,320
8991,2614.0,note_on,41,0,64,0
8992,2614.0,note_off,41,0,64,320
8993,2614.666666,note_on,38,2457,64,0
8994,2614.666666,pitchwheel,38,2457,64,0
8995,2614.666666,note_off,38,2457,64,320
8996,2615.333333,note_on,40,2457,64,0
8997,2615.333333,pitchwheel,40,2457,64,0
8998,2615.333333,note_off,40,2457,64,320
8999,2616.0,note_on,36,3276,64,0
9000,2616.0,pitchwheel,36,3276,64,0
9001,2616.0,note_off,36,3276,64,320
9002,2616.666666,note_on,32,2047,64,0
9003,2616.666666,pitchwheel,32,2047,64,0
9004,2616.666666,note_off,32,2047,64,320
9005,2617.333333,note_on,33,1638,64,0
9006,2617.333333,pitchwheel,33,1638,64,0
9007,2617.333333,note_off,33,1638,64,320
9008,2618.666666,note_on,33,1638,64,0
9009,2618.666666,pitchwheel,33,1638,64,0
9010,2618.666666,note_off,33,1638,64,320
9011,2620.0,note_on,31,0,64,0
9012,2620.0,note_off,31,0,64,640
9013,2621.333333,note_on,33,2047,64,0
9014,2621.333333,pitchwheel,33,2047,64,0
9015,2621.333333,note_off,33,2047,64,320
9016,2622.0,note_on,31,2866,64,0
9017,2622.0,pitchwheel,31,2866,64,0
9018,2622.0,note_off,31,2866,64,320
9019,2622.666666,note_on,31,1638,64,0
9020,2622.666666,pitchwheel,31,1638,64,0
9021,2622.666666,note_off,31,1638,64,320
9022,2623.333333,note_on,31,0,64,0
9023,2623.333333,note_off,31,0,64,320
9024,2624.0,note_on,33,2047,64,0
9025,2624.0,pitchwheel,33,2047,64,0
9026,2624.0,note_off,33,2047,64,320
9027,2624.666666,note_on,33,0,64,0
9028,2624.666666,note_off,33,0,64,320
9029,2626.0,note_on,33,1638,64,0
9030,2626.0,pitchwheel,33,1638,64,0
9031,2626.0,note_off,33,1638,64,320
9032,2626.666666,note_on,32,2047,64,0
9033,2626.666666,pitchwheel,32,2047,64,0
9034,2626.666666,note_off,32,2047,64,320
9035,2628.0,note_on,31,0,64,0
9036,2628.0,note_off,31,0,64,320
9037,2628.666666,note_on,35,2457,64,0
9038,2628.666666,pitchwheel,35,2457,64,0
9039,2628.666666,note_off,35,2457,64,320
9040,2629.333333,note_on,31,2866,64,0
9041,2629.333333,pitchwheel,31,2866,64,0
9042,2629.333333,note_off,31,2866,64,320
9043,2630.0,note_on,35,2047,64,0
9044,2630.0,pitchwheel,35,2047,64,0
9045,2630.0,note_off,35,2047,64,320
9046,2630.666666,note_on,38,1228,64,0
9047,2630.666666,pitchwheel,38,1228,64,0
9048,2630.666666,note_off,38,1228,64,320
9049,2631.333333,note_on,35,3276,64,0
9050,2631.333333,pitchwheel,35,3276,64,0
9051,2631.333333,note_off,35,3276,64,320
9052,2632.0,note_on,38,2457,64,0
9053,2632.0,pitchwheel,38,2457,64,0
9054,2632.0,note_off,38,2457,64,320
9055,2632.666666,note_on,38,3685,64,0
9056,2632.666666,pitchwheel,38,3685,64,0
9057,2632.666666,note_off,38,3685,64,320
9058,2633.333333,note_on,35,3276,64,0
9059,2633.333333,pitchwheel,35,3276,64,0
9060,2633.333333,note_off,35,3276,64,320
9061,2634.0,note_on,38,0,64,0
9062,2634.0,note_off,38,0,64,320
9063,2634.666666,note_on,36,3276,64,0
9064,2634.666666,pitchwheel,36,3276,64,0
9065,2634.666666,note_off,36,3276,64,320
9066,2635.333333,note_on,38,2457,64,0
9067,2635.333333,pitchwheel,38,2457,64,0
9068,2635.333333,note_off,38,2457,64,320
9069,2636.0,note_on,33,0,64,0
9070,2636.0,note_off,33,0,64,320
9071,2636.666666,note_on,31,409,64,0
9072,2636.666666,pitchwheel,31,409,64,0
9073,2636.666666,note_off,31,409,64,320
9074,2637.333333,note_on,34,1638,64,0
9075,2637.333333,pitchwheel,34,1638,64,0
9076,2637.333333,note_off,34,1638,64,320
9077,2638.0,note_on,36,2047,64,0
9078,2638.0,pitchwheel,36,2047,64,0
9079,2638.0,note_off,36,2047,64,320
9080,2638.666666,note_on,36,819,64,0
9081,2638.666666,pitchwheel,36,819,64,0
9082,2638.666666,note_off,36,819,64,320
9083,2640.0,note_on,36,2047,64,0
9084,2640.0,pitchwheel,36,2047,64,0
9085,2640.0,note_off,36,2047,64,640
9086,2642.0,note_on,38,819,64,0
9087,2642.0,pitchwheel,38,819,64,0
9088,2642.0,note_off,38,819,64,320
9089,2642.666666,note_on,35,3685,64,0
9090,2642.666666,pitchwheel,35,3685,64,0
9091,2642.666666,note_off,35,3685,64,320
9092,2643.333333,note_on,41,0,64,0
9093,2643.333333,note_off,41,0,64,320
9094,2644.0,note_on,45,2047,64,0
9095,2644.0,pitchwheel,45,2047,64,0
9096,2644.0,note_off,45,2047,64,320
9097,2645.333333,note_on,44,0,64,0
9098,2645.333333,note_off,44,0,64,320
9099,2646.666666,note_on,47,3685,64,0
9100,2646.666666,pitchwheel,47,3685,64,0
9101,2646.666666,note_off,47,3685,64,320
9102,2647.333333,note_on,47,3276,64,0
9103,2647.333333,pitchwheel,47,3276,64,0
9104,2647.333333,note_off,47,3276,64,320
9105,2648.0,note_on,50,0,64,0
9106,2648.0,note_off,50,0,64,320
9107,2648.666666,note_on,53,1228,64,0
9108,2648.666666,pitchwheel,53,1228,64,0
9109,2648.666666,note_off,53,1228,64,320
9110,2649.333333,note_on,53,0,64,0
9111,2649.333333,note_off,53,0,64,320
9112,2650.0,note_on,57,1638,64,0
9113,2650.0,pitchwheel,57,1638,64,0
9114,2650.0,note_off,57,1638,64,320
9115,2650.666666,note_on,57,2047,64,0
9116,2650.666666,pitchwheel,57,2047,64,0
9117,2650.666666,note_off,57,2047,64,320
9118,2651.333333,note_on,57,0,64,0
9119,2651.333333,note_off,57,0,64,320
9120,2652.0,note_on,55,409,64,0
9121,2652.0,pitchwheel,55,409,64,0
9122,2652.0,note_off,55,409,64,320
9123,2652.666666,note_on,57,1638,64,0
9124,2652.666666,pitchwheel,57,1638,64,0
9125,2652.666666,note_off,57,1638,64,320
9126,2653.333333,note_on,58,1638,64,0
9127,2653.333333,pitchwheel,58,1638,64,0
9128,2653.333333,note_off,58,1638,64,320
9129,2654.666666,note_on,55,409,64,0
9130,2654.666666,pitchwheel,55,409,64,0
9131,2654.666666,note_off,55,409,64,320
9132,2655.333333,note_on,55,1638,64,0
9133,2655.333333,pitchwheel,55,1638,64,0
9134,2655.333333,note_off,55,1638,64,320
9135,2656.0,note_on,58,1638,64,0
9136,2656.0,pitchwheel,58,1638,64,0
9137,2656.0,note_off,58,1638,64,320
9138,2656.666666,note_on,60,2047,64,0
9139,2656.666666,pitchwheel,60,2047,64,0
9140,2656.666666,note_off,60,2047,64,320
9141,2657.333333,note_on,53,0,64,0
9142,2657.333333,note_off,53,0,64,320
9143,2658.0,note_on,55,0,64,0
9144,2658.0,note_off,55,0,64,320
9145,2658.666666,note_on,60,3276,64,0
9146,2658.666666,pitchwheel,60,3276,64,0
9147,2658.666666,note_off,60,3276,64,320
9148,2659.333333,note_on,60,2047,64,0
9149,2659.333333,pitchwheel,60,2047,64,0
9150,2659.333333,note_off,60,2047,64,320
9151,2660.0,note_on,60,819,64,0
9152,2660.0,pitchwheel,60,819,64,0
9153,2660.0,note_off,60,819,64,320
9154,2660.666666,note_on,53,0,64,0
9155,2660.666666,note_off,53,0,64,640
9156,2662.0,note_on,50,3685,64,0
9157,2662.0,pitchwheel,50,3685,64,0
9158,2662.0,note_off,50,3685,64,320
9159,2662.666666,note_on,45,2047,64,0
9160,2662.666666,pitchwheel,45,2047,64,0
9161,2662.666666,note_off,45,2047,64,320
9162,2663.333333,note_on,40,2457,64,0
9163,2663.333333,pitchwheel,40,2457,64,0
9164,2663.333333,note_off,40,2457,64,320
9165,2664.0,note_on,46,1638,64,0
9166,2664.0,pitchwheel,46,1638,64,0
9167,2664.0,note_off,46,1638,64,320
9168,2664.666666,note_on,46,409,64,0
9169,2664.666666,pitchwheel,46,409,64,0
9170,2664.666666,note_off,46,409,64,320
9171,2665.333333,note_on,45,3276,64,0
9172,2665.333333,pitchwheel,45,3276,64,0
9173,2665.333333,note_off,45,3276,64,320
9174,2666.666666,note_on,44,2047,64,0
9175,2666.666666,pitchwheel,44,2047,64,0
9176,2666.666666,note_off,44,2047,64,320
9177,2667.333333,note_on,41,0,64,0
9178,2667.333333,note_off,41,0,64,320
9179,2668.0,note_on,40,1638,64,0
9180,2668.0,pitchwheel,40,1638,64,0
9181,2668.0,note_off,40,1638,64,320
9182,2668.666666,note_on,38,819,64,0
9183,2668.666666,pitchwheel,38,819,64,0
9184,2668.666666,note_off,38,819,64,320
9185,2669.333333,note_on,44,0,64,0
9186,2669.333333,note_off,44,0,64,320
9187,2670.0,note_on,40,1638,64,0
9188,2670.0,pitchwheel,40,1638,64,0
9189,2670.0,note_off,40,1638,64,320
9190,2670.666666,note_on,46,0,64,0
9191,2670.666666,note_off,46,0,64,320
9192,2672.0,note_on,44,0,64,0
9193,2672.0,note_off,44,0,64,320
9194,2673.333333,note_on,41,0,64,0
9195,2673.333333,note_off,41,0,64,320
9196,2674.0,note_on,35,3276,64,0
9197,2674.0,pitchwheel,35,3276,64,0
9198,2674.0,note_off,35,3276,64,320
9199,2674.666666,note_on,34,1638,64,0
9200,2674.666666,pitchwheel,34,1638,64,0
9201,2674.666666,note_off,34,1638,64,320
9202,2675.333333,note_on,36,2047,64,0
9203,2675.333333,pitchwheel,36,2047,64,0
9204,2675.333333,note_off,36,2047,64,320
9205,2676.0,note_on,36,819,64,0
9206,2676.0,pitchwheel,36,819,64,0
9207,2676.0,note_off,36,819,64,320
9208,2676.666666,note_on,33,1638,64,0
9209,2676.666666,pitchwheel,33,1638,64,0
9210,2676.666666,note_off,33,1638,64,320
9211,2677.333333,note_on,32,0,64,0
9212,2677.333333,note_off,32,0,64,320
9213,2678.0,note_on,33,0,64,0
9214,2678.0,note_off,33,0,64,320
9215,2679.333333,note_on,33,1638,64,0
9216,2679.333333,pitchwheel,33,1638,64,0
9217,2679.333333,note_off,33,1638,64,320
9218,2680.0,note_on,32,0,64,0
9219,2680.0,note_off,32,0,64,320
9220,2681.333333,note_on,31,0,64,0
9221,2681.333333,note_off,31,0,64,320
9222,2682.0,note_on,34,409,64,0
9223,2682.0,pitchwheel,34,409,64,0
9224,2682.0,note_off,34,409,64,640
9225,2683.333333,note_on,35,2047,64,0
9226,2683.333333,pitchwheel,35,2047,64,0
9227,2683.333333,note_off,35,2047,64,320
9228,2684.0,note_on,41,1228,64,0
9229,2684.0,pitchwheel,41,1228,64,0
9230,2684.0,note_off,41,1228,64,320
9231,2684.666666,note_on,43,0,64,0
9232,2684.666666,note_off,43,0,64,320
9233,2685.333333,note_on,41,0,64,0
9234,2685.333333,note_off,41,0,64,320
9235,2686.0,note_on,43,2866,64,0
9236,2686.0,pitchwheel,43,2866,64,0
9237,2686.0,note_off,43,2866,64,320
9238,2686.666666,note_on,46,0,64,0
9239,2686.666666,note_off,46,0,64,320
9240,2687.333333,note_on,48,2047,64,0
9241,2687.333333,pitchwheel,48,2047,64,0
9242,2687.333333,note_off,48,2047,64,320
9243,2688.0,note_on,43,1638,64,0
9244,2688.0,pitchwheel,43,1638,64,0
9245,2688.0,note_off,43,1638,64,320
9246,2688.666666,note_on,38,2457,64,0
9247,2688.666666,pitchwheel,38,2457,64,0
9248,2688.666666,note_off,38,2457,64,320
9249,2689.333333,note_on,33,0,64,0
9250,2689.333333,note_off,33,0,64,320
9251,2690.0,note_on,40,2457,64,0
9252,2690.0,pitchwheel,40,2457,64,0
9253,2690.0,note_off,40,2457,64,320
9254,2690.666666,note_on,41,2457,64,0
9255,2690.666666,pitchwheel,41,2457,64,0
9256,2690.666666,note_off,41,2457,64,320
9257,2691.333333,note_on,41,1228,64,0
9258,2691.333333,pitchwheel,41,1228,64,0
9259,2691.333333,note_off,41,1228,64,320
9260,2692.0,note_on,41,0,64,0
9261,2692.0,note_off,41,0,64,320
9262,2693.333333,note_on,41,0,64,0
9263,2693.333333,note_off,41,0,64,320
9264,2694.0,note_on,38,2457,64,0
9265,2694.0,pitchwheel,38,2457,64,0
9266,2694.0,note_off,38,2457,64,320
9267,2695.333333,note_on,33,1638,64,0
9268,2695.333333,pitchwheel,33,1638,64,0
9269,2695.333333,note_off,33,1638,64,320
9270,2696.0,note_on,35,3276,64,0
9271,2696.0,pitchwheel,35,3276,64,0
9272,2696.0,note_off,35,3276,64,320
9273,2697.333333,note_on,34,0,64,0
9274,2697.333333,note_off,34,0,64,320
9275,2698.666666,note_on,34,1638,64,0
9276,2698.666666,pitchwheel,34,1638,64,0
9277,2698.666666,note_off,34,1638,64,320
9278,2700.0,note_on,35,2047,64,0
9279,2700.0,pitchwheel,35,2047,64,0
9280,2700.0,note_off,35,2047,64,320
9281,2700.666666,note_on,35,3276,64,0
9282,2700.666666,pitchwheel,35,3276,64,0
9283,2700.666666,note_off,35,3276,64,320
9284,2701.333333,note_on,36,819,64,0
9285,2701.333333,pitchwheel,36,819,64,0
9286,2701.333333,note_off,36,819,64,320
9287,2702.0,note_on,41,0,64,0
9288,2702.0,note_off,41,0,64,320
9289,2702.666666,note_on,41,1228,64,0
9290,2702.666666,pitchwheel,41,1228,64,0
9291,2702.666666,note_off,41,1228,64,320
9292,2703.333333,note_on,35,3276,64,0
9293,2703.333333,pitchwheel,35,3276,64,0
9294,2703.333333,note_off,35,3276,64,320
9295,2704.0,note_on,35,3685,64,0
9296,2704.0,pitchwheel,35,3685,64,0
9297,2704.0,note_off,35,3685,64,320
9298,2704.666666,note_on,33,0,64,0
9299,2704.666666,note_off,33,0,64,320
9300,2705.333333,note_on,36,2047,64,0
9301,2705.333333,pitchwheel,36,2047,64,0
9302,2705.333333,note_off,36,2047,64,320
9303,2706.0,note_on,38,819,64,0
9304,2706.0,pitchwheel,38,819,64,0
9305,2706.0,note_off,38,819,64,320
9306,2706.666666,note_on,36,3276,64,0
9307,2706.666666,pitchwheel,36,3276,64,0
9308,2706.666666,note_off,36,3276,64,320
9309,2708.0,note_on,35,3685,64,0
9310,2708.0,pitchwheel,35,3685,64,0
9311,2708.0,note_off,35,3685,64,320
9312,2708.666666,note_on,33,2047,64,0
9313,2708.666666,pitchwheel,33,2047,64,0
9314,2708.666666,note_off,33,2047,64,960
9315,2710.666666,note_on,38,0,64,0
9316,2710.666666,note_off,38,0,64,320
9317,2711.333333,note_on,40,2457,64,0
9318,2711.333333,pitchwheel,40,2457,64,0
9319,2711.333333,note_off,40,2457,64,320
9320,2712.0,note_on,46,1638,64,0
9321,2712.0,pitchwheel,46,1638,64,0
9322,2712.0,note_off,46,1638,64,320
9323,2712.666666,note_on,45,3276,64,0
9324,2712.666666,pitchwheel,45,3276,64,0
9325,2712.666666,note_off,45,3276,64,640
9326,2714.0,note_on,43,409,64,0
9327,2714.0,pitchwheel,43,409,64,0
9328,2714.0,note_off,43,409,64,320
9329,2714.666666,note_on,38,3685,64,0
9330,2714.666666,pitchwheel,38,3685,64,0
9331,2714.666666,note_off,38,3685,64,320
9332,2715.333333,note_on,41,0,64,0
9333,2715.333333,note_off,41,0,64,320
9334,2716.0,note_on,46,409,64,0
9335,2716.0,pitchwheel,46,409,64,0
9336,2716.0,note_off,46,409,64,320
9337,2716.666666,note_on,43,0,64,0
9338,2716.666666,note_off,43,0,64,320
9339,2717.333333,note_on,44,0,64,0
9340,2717.333333,note_off,44,0,64,320
9341,2718.0,note_on,48,819,64,0
9342,2718.0,pitchwheel,48,819,64,0
9343,2718.0,note_off,48,819,64,320
9344,2718.666666,note_on,48,2047,64,0
9345,2718.666666,pitchwheel,48,2047,64,0
9346,2718.666666,note_off,48,2047,64,320
9347,2720.0,note_on,48,3276,64,0
9348,2720.0,pitchwheel,48,3276,64,0
9349,2720.0,note_off,48,3276,64,320
9350,2720.666666,note_on,52,1638,64,0
9351,2720.666666,pitchwheel,52,1638,64,0
9352,2720.666666,note_off,52,1638,64,320
9353,2721.333333,note_on,53,0,64,0
9354,2721.333333,note_off,53,0,64,320
9355,2722.0,note_on,52,2457,64,0
9356,2722.0,pitchwheel,52,2457,64,0
9357,2722.0,note_off,52,2457,64,320
9358,2722.666666,note_on,51,819,64,0
9359,2722.666666,pitchwheel,51,819,64,0
9360,2722.666666,note_off,51,819,64,320
9361,2723.333333,note_on,57,0,64,0
9362,2723.333333,note_off,57,0,64,320
9363,2724.0,note_on,58,0,64,0
9364,2724.0,note_off,58,0,64,320
9365,2725.333333,note_on,57,2047,64,0
9366,2725.333333,pitchwheel,57,2047,64,0
9367,2725.333333,note_off,57,2047,64,320
9368,2726.666666,note_on,59,2047,64,0
9369,2726.666666,pitchwheel,59,2047,64,0
9370,2726.666666,note_off,59,2047,64,320
9371,2727.333333,note_on,55,0,64,0
9372,2727.333333,note_off,55,0,64,320
9373,2728.0,note_on,58,0,64,0
9374,2728.0,note_off,58,0,64,320
9375,2728.666666,note_on,57,3276,64,0
9376,2728.666666,pitchwheel,57,3276,64,0
9377,2728.666666,note_off,57,3276,64,320
9378,2729.333333,note_on,57,2047,64,0
9379,2729.333333,pitchwheel,57,2047,64,0
9380,2729.333333,note_off,57,2047,64,320
9381,2730.0,note_on,62,819,64,0
9382,2730.0,pitchwheel,62,819,64,0
9383,2730.0,note_off,62,819,64,320
9384,2730.666666,note_on,55,1638,64,0
9385,2730.666666,pitchwheel,55,1638,64,0
9386,2730.666666,note_off,55,1638,64,320
9387,2731.333333,note_on,57,0,64,0
9388,2731.333333,note_off,57,0,64,320
9389,2732.666666,note_on,57,1638,64,0
9390,2732.666666,pitchwheel,57,1638,64,0
9391,2732.666666,note_off,57,1638,64,320
9392,2733.333333,note_on,56,0,64,0
9393,2733.333333,note_off,56,0,64,320
9394,2734.666666,note_on,55,409,64,0
9395,2734.666666,pitchwheel,55,409,64,0
9396,2734.666666,note_off,55,409,64,320
9397,2735.333333,note_on,57,2047,64,0
9398,2735.333333,pitchwheel,57,2047,64,0
9399,2735.333333,note_off,57,2047,64,320
9400,2736.0,note_on,62,2457,64,0
9401,2736.0,pitchwheel,62,2457,64,0
9402,2736.0,note_off,62,2457,64,320
9403,2736.666666,note_on,56,2047,64,0
9404,2736.666666,pitchwheel,56,2047,64,0
9405,2736.666666,note_off,56,2047,64,320
9406,2737.333333,note_on,62,1228,64,0
9407,2737.333333,pitchwheel,62,1228,64,0
9408,2737.333333,note_off,62,1228,64,320
9409,2738.0,note_on,59,3276,64,0
9410,2738.0,pitchwheel,59,3276,64,0
9411,2738.0,note_off,59,3276,64,320
9412,2738.666666,note_on,58,1638,64,0
9413,2738.666666,pitchwheel,58,1638,64,0
9414,2738.666666,note_off,58,1638,64,320
9415,2739.333333,note_on,53,0,64,0
9416,2739.333333,note_off,53,0,64,320
9417,2740.0,note_on,57,1638,64,0
9418,2740.0,pitchwheel,57,1638,64,0
9419,2740.0,note_off,57,1638,64,320
9420,2740.666666,note_on,59,3685,64,0
9421,2740.666666,pitchwheel,59,3685,64,0
9422,2740.666666,note_off,59,3685,64,320
9423,2741.333333,note_on,57,2047,64,0
9424,2741.333333,pitchwheel,57,2047,64,0
9425,2741.333333,note_off,57,2047,64,320
9426,2742.0,note_on,62,0,64,0
9427,2742.0,note_off,62,0,64,320
9428,2742.666666,note_on,57,0,64,0
9429,2742.666666,note_off,57,0,64,320
9430,2743.333333,note_on,57,2047,64,0
9431,2743.333333,pitchwheel,57,2047,64,0
9432,2743.333333,note_off,57,2047,64,320
9433,2744.0,note_on,55,1638,64,0
9434,2744.0,pitchwheel,55,1638,64,0
9435,2744.0,note_off,55,1638,64,320
9436,2744.666666,note_on,50,2457,64,0
9437,2744.666666,pitchwheel,50,2457,64,0
9438,2744.666666,note_off,50,2457,64,320
9439,2745.333333,note_on,50,1228,64,0
9440,2745.333333,pitchwheel,50,1228,64,0
9441,2745.333333,note_off,50,1228,64,320
9442,2746.666666,note_on,50,819,64,0
9443,2746.666666,pitchwheel,50,819,64,0
9444,2746.666666,note_off,50,819,64,320
9445,2747.333333,note_on,53,0,64,0
9446,2747.333333,note_off,53,0,64,320
9447,2748.666666,note_on,47,3276,64,0
9448,2748.666666,pitchwheel,47,3276,64,0
9449,2748.666666,note_off,47,3276,64,320
9450,2749.333333,note_on,48,3276,64,0
9451,2749.333333,pitchwheel,48,3276,64,0
9452,2749.333333,note_off,48,3276,64,320
9453,2750.0,note_on,44,2047,64,0
9454,2750.0,pitchwheel,44,2047,64,0
9455,2750.0,note_off,44,2047,64,320
9456,2750.666666,note_on,46,0,64,0
9457,2750.666666,note_off,46,0,64,320
9458,2752.0,note_on,48,3276,64,0
9459,2752.0,pitchwheel,48,3276,64,0
9460,2752.0,note_off,48,3276,64,320
9461,2753.333333,note_on,44,2047,64,0
9462,2753.333333,pitchwheel,44,2047,64,0
9463,2753.333333,note_off,44,2047,64,320
9464,2754.0,note_on,45,1638,64,0
9465,2754.0,pitchwheel,45,1638,64,0
9466,2754.0,note_off,45,1638,64,320
9467,2754.666666,note_on,50,2457,64,0
9468,2754.666666,pitchwheel,50,2457,64,0
9469,2754.666666,note_off,50,2457,64,320
9470,2755.333333,note_on,45,3276,64,0
9471,2755.333333,pitchwheel,45,3276,64,0
9472,2755.333333,note_off,45,3276,64,320
9473,2756.0,note_on,46,409,64,0
9474,2756.0,pitchwheel,46,409,64,0
9475,2756.0,note_off,46,409,64,320
9476,2756.666666,note_on,40,2457,64,0
9477,2756.666666,pitchwheel,40,2457,64,0
9478,2756.666666,note_off,40,2457,64,320
9479,2757.333333,note_on,36,2047,64,0
9480,2757.333333,pitchwheel,36,2047,64,0
9481,2757.333333,note_off,36,2047,64,320
9482,2758.0,note_on,33,0,64,0
9483,2758.0,note_off,33,0,64,320
9484,2758.666666,note_on,31,409,64,0
9485,2758.666666,pitchwheel,31,409,64,0
9486,2758.666666,note_off,31,409,64,320
9487,2759.333333,note_on,31,0,64,0
9488,2759.333333,note_off,31,0,64,640
9489,2761.333333,note_on,36,2047,64,0
9490,2761.333333,pitchwheel,36,2047,64,0
9491,2761.333333,note_off,36,2047,64,320
9492,2762.0,note_on,35,2457,64,0
9493,2762.0,pitchwheel,35,2457,64,0
9494,2762.0,note_off,35,2457,64,320
9495,2762.666666,note_on,36,819,64,0
9496,2762.666666,pitchwheel,36,819,64,0
9497,2762.666666,note_off,36,819,64,320
9498,2763.333333,note_on,38,1228,64,0
9499,2763.333333,pitchwheel,38,1228,64,0
9500,2763.333333,note_off,38,1228,64,320
9501,2764.0,note_on,38,2457,64,0
9502,2764.0,pitchwheel,38,2457,64,0
9503,2764.0,note_off,38,2457,64,320
9504,2764.666666,note_on,40,2457,64,0
9505,2764.666666,pitchwheel,40,2457,64,0
9506,2764.666666,note_off,40,2457,64,320
9507,2765.333333,note_on,44,0,64,0
9508,2765.333333,note_off,44,0,64,320
9509,2766.0,note_on,38,2457,64,0
9510,2766.0,pitchwheel,38,2457,64,0
9511,2766.0,note_off,38,2457,64,320
9512,2766.666666,note_on,40,2457,64,0
9513,2766.666666,pitchwheel,40,2457,64,0
9514,2766.666666,note_off,40,2457,64,320
9515,2767.333333,note_on,38,0,64,0
9516,2767.333333,note_off,38,0,64,320
9517,2768.0,note_on,40,2866,64,0
9518,2768.0,pitchwheel,40,2866,64,0
9519,2768.0,note_off,40,2866,64,320
9520,2768.666666,note_on,38,2457,64,0
9521,2768.666666,pitchwheel,38,2457,64,0
9522,2768.666666,note_off,38,2457,64,320
9523,2769.333333,note_on,33,2047,64,0
9524,2769.333333,pitchwheel,33,2047,64,0
9525,2769.333333,note_off,33,2047,64,320
9526,2770.0,note_on,35,3685,64,0
9527,2770.0,pitchwheel,35,3685,64,0
9528,2770.0,note_off,35,3685,64,320
9529,2770.666666,note_on,34,1638,64,0
9530,2770.666666,pitchwheel,34,1638,64,0
9531,2770.666666,note_off,34,1638,64,320
9532,2771.333333,note_on,29,0,64,0
9533,2771.333333,note_off,29,0,64,320
9534,2772.0,note_on,29,1228,64,0
9535,2772.0,pitchwheel,29,1228,64,0
9536,2772.0,note_off,29,1228,64,320
9537,2773.333333,note_on,32,0,64,0
9538,2773.333333,note_off,32,0,64,320
9539,2774.0,note_on,29,0,64,0
9540,2774.0,note_off,29,0,64,640
9541,2775.333333,note_on,31,0,64,0
9542,2775.333333,note_off,31,0,64,320
9543,2776.0,note_on,32,0,64,0
9544,2776.0,note_off,32,0,64,320
9545,2776.666666,note_on,38,0,64,0
9546,2776.666666,note_off,38,0,64,320
9547,2777.333333,note_on,34,0,64,0
9548,2777.333333,note_off,34,0,64,320
9549,2778.666666,note_on,31,409,64,0
9550,2778.666666,pitchwheel,31,409,64,0
9551,2778.666666,note_off,31,409,64,320
9552,2780.0,note_on,33,0,64,0
9553,2780.0,note_off,33,0,64,320
9554,2780.666666,note_on,33,1638,64,0
9555,2780.666666,pitchwheel,33,1638,64,0
9556,2780.666666,note_off,33,1638,64,320
9557,2781.333333,note_on,34,0,64,0
9558,2781.333333,note_off,34,0,64,320
9559,2782.0,note_on,33,3276,64,0
9560,2782.0,pitchwheel,33,3276,64,0
9561,2782.0,note_off,33,3276,64,320
9562,2782.666666,note_on,34,409,64,0
9563,2782.666666,pitchwheel,34,409,64,0
9564,2782.666666,note_off,34,409,64,320
9565,2783.333333,note_on,31,0,64,0
9566,2783.333333,note_off,31,0,64,320
9567,2784.0,note_on,31,409,64,0
9568,2784.0,pitchwheel,31,409,64,0
9569,2784.0,note_off,31,409,64,320
9570,2784.666666,note_on,33,0,64,0
9571,2784.666666,note_off,33,0,64,320
9572,2786.0,note_on,35,3276,64,0
9573,2786.0,pitchwheel,35,3276,64,0
9574,2786.0,note_off,35,3276,64,320
9575,2786.666666,note_on,34,1638,64,0
9576,2786.666666,pitchwheel,34,1638,64,0
9577,2786.666666,note_off,34,1638,64,320
9578,2788.0,note_on,36,2047,64,0
9579,2788.0,pitchwheel,36,2047,64,0
9580,2788.0,note_off,36,2047,64,320
9581,2788.666666,note_on,35,2457,64,0
9582,2788.666666,pitchwheel,35,2457,64,0
9583,2788.666666,note_off,35,2457,64,320
9584,2789.333333,note_on,35,3276,64,0
9585,2789.333333,pitchwheel,35,3276,64,0
9586,2789.333333,note_off,35,3276,64,320
9587,2790.0,note_on,40,2866,64,0
9588,2790.0,pitchwheel,40,2866,64,0
9589,2790.0,note_off,40,2866,64,320
9590,2790.666666,note_on,38,1228,64,0
9591,2790.666666,pitchwheel,38,1228,64,0
9592,2790.666666,note_off,38,1228,64,320
9593,2791.333333,note_on,38,819,64,0
9594,2791.333333,pitchwheel,38,819,64,0
9595,2791.333333,note_off,38,819,64,320
9596,2792.0,note_on,38,2457,64,0
9597,2792.0,pitchwheel,38,2457,64,0
9598,2792.0,note_off,38,2457,64,640
9599,2793.333333,note_on,43,0,64,0
9600,2793.333333,note_off,43,0,64,320
9601,2794.0,note_on,38,0,64,0
9602,2794.0,note_off,38,0,64,320
9603,2794.666666,note_on,36,3276,64,0
9604,2794.666666,pitchwheel,36,3276,64,0
9605,2794.666666,note_off,36,3276,64,320
9606,2795.333333,note_on,38,2457,64,0
9607,2795.333333,pitchwheel,38,2457,64,0
9608,2795.333333,note_off,38,2457,64,320
9609,2796.0,note_on,33,0,64,0
9610,2796.0,note_off,33,0,64,320
9611,2796.666666,note_on,40,2457,64,0
9612,2796.666666,pitchwheel,40,2457,64,0
9613,2796.666666,note_off,40,2457,64,320
9614,2797.333333,note_on,46,1638,64,0
9615,2797.333333,pitchwheel,46,1638,64,0
9616,2797.333333,note_off,46,1638,64,320
9617,2798.0,note_on,41,0,64,0
9618,2798.0,note_off,41,0,64,320
9619,2798.666666,note_on,41,1228,64,0
9620,2798.666666,pitchwheel,41,1228,64,0
9621,2798.666666,note_off,41,1228,64,320
9622,2800.0,note_on,40,0,64,0
9623,2800.0,note_off,40,0,64,320
9624,2800.666666,note_on,36,2047,64,0
9625,2800.666666,pitchwheel,36,2047,64,0
9626,2800.666666,note_off,36,2047,64,320
9627,2802.0,note_on,31,0,64,0
9628,2802.0,note_off,31,0,64,320
9629,2802.666666,note_on,32,0,64,0
9630,2802.666666,note_off,32,0,64,320
9631,2803.333333,note_on,29,0,64,0
9632,2803.333333,note_off,29,0,64,320
9633,2804.0,note_on,34,0,64,0
9634,2804.0,note_off,34,0,64,320
9635,2805.333333,note_on,34,0,64,0
9636,2805.333333,note_off,34,0,64,320
9637,2806.666666,note_on,37,0,64,0
9638,2806.666666,note_off,37,0,64,320
9639,2807.333333,note_on,33,1638,64,0
9640,2807.333333,pitchwheel,33,1638,64,0
9641,2807.333333,note_off,33,1638,64,320
9642,2808.0,note_on,34,1638,64,0
9643,2808.0,pitchwheel,34,1638,64,0
9644,2808.0,note_off,34,1638,64,320
9645,2808.666666,note_on,33,2047,64,0
9646,2808.666666,pitchwheel,33,2047,64,0
9647,2808.666666,note_off,33,2047,64,320
9648,2809.333333,note_on,33,3276,64,0
9649,2809.333333,pitchwheel,33,3276,64,0
9650,2809.333333,note_off,33,3276,64,320
9651,2810.0,note_on,33,1638,64,0
9652,2810.0,pitchwheel,33,1638,64,0
9653,2810.0,note_off,33,1638,64,320
9654,2810.666666,note_on,33,2047,64,0
9655,2810.666666,pitchwheel,33,2047,64,0
9656,2810.666666,note_off,33,2047,64,320
9657,2811.333333,note_on,33,0,64,0
9658,2811.333333,note_off,33,0,64,320
9659,2812.0,note_on,31,409,64,0
9660,2812.0,pitchwheel,31,409,64,0
9661,2812.0,note_off,31,409,64,320
9662,2812.666666,note_on,35,3276,64,0
9663,2812.666666,pitchwheel,35,3276,64,0
9664,2812.666666,note_off,35,3276,64,320
9665,2813.333333,note_on,36,3276,64,0
9666,2813.333333,pitchwheel,36,3276,64,0
9667,2813.333333,note_off,36,3276,64,320
9668,2814.666666,note_on,36,819,64,0
9669,2814.666666,pitchwheel,36,819,64,0
9670,2814.666666,note_off,36,819,64,320
9671,2815.333333,note_on,31,1638,64,0
9672,2815.333333,pitchwheel,31,1638,64,0
9673,2815.333333,note_off,31,1638,64,320
9674,2816.0,note_on,33,2047,64,0
9675,2816.0,pitchwheel,33,2047,64,0
9676,2816.0,note_off,33,2047,64,320
9677,2816.666666,note_on,35,2047,64,0
9678,2816.666666,pitchwheel,35,2047,64,0
9679,2816.666666,note_off,35,2047,64,320
9680,2817.333333,note_on,38,2457,64,0
9681,2817.333333,pitchwheel,38,2457,64,0
9682,2817.333333,note_off,38,2457,64,320
9683,2818.0,note_on,38,819,64,0
9684,2818.0,pitchwheel,38,819,64,0
9685,2818.0,note_off,38,819,64,320
9686,2818.666666,note_on,39,819,64,0
9687,2818.666666,pitchwheel,39,819,64,0
9688,2818.666666,note_off,39,819,64,320
9689,2819.333333,note_on,38,1228,64,0
9690,2819.333333,pitchwheel,38,1228,64,0
9691,2819.333333,note_off,38,1228,64,320
9692,2820.0,note_on,34,409,64,0
9693,2820.0,pitchwheel,34,409,64,0
9694,2820.0,note_off,34,409,64,320
9695,2820.666666,note_on,29,0,64,0
9696,2820.666666,note_off,29,0,64,320
9697,2821.333333,note_on,36,3276,64,0
9698,2821.333333,pitchwheel,36,3276,64,0
9699,2821.333333,note_off,36,3276,64,320
9700,2822.0,note_on,38,3685,64,0
9701,2822.0,pitchwheel,38,3685,64,0
9702,2822.0,note_off,38,3685,64,320
9703,2822.666666,note_on,33,2047,64,0
9704,2822.666666,pitchwheel,33,2047,64,0
9705,2822.666666,note_off,33,2047,64,320
9706,2823.333333,note_on,40,2457,64,0
9707,2823.333333,pitchwheel,40,2457,64,0
9708,2823.333333,note_off,40,2457,64,320
9709,2824.0,note_on,41,2457,64,0
9710,2824.0,pitchwheel,41,2457,64,0
9711,2824.0,note_off,41,2457,64,320
9712,2824.666666,note_on,40,2866,64,0
9713,2824.666666,pitchwheel,40,2866,64,0
9714,2824.666666,note_off,40,2866,64,320
9715,2825.333333,note_on,41,0,64,0
9716,2825.333333,note_off,41,0,64,320
9717,2826.666666,note_on,40,0,64,0
9718,2826.666666,note_off,40,0,64,320
9719,2827.333333,note_on,41,0,64,0
9720,2827.333333,note_off,41,0,64,320
9721,2828.0,note_on,36,2047,64,0
9722,2828.0,pitchwheel,36,2047,64,0
9723,2828.0,note_off,36,2047,64,320
9724,2828.666666,note_on,33,1638,64,0
9725,2828.666666,pitchwheel,33,1638,64,0
9726,2828.666666,note_off,33,1638,64,320
9727,2829.333333,note_on,41,2457,64,0
9728,2829.333333,pitchwheel,41,2457,64,0
9729,2829.333333,note_off,41,2457,64,320
9730,2830.666666,note_on,40,2457,64,0
9731,2830.666666,pitchwheel,40,2457,64,0
9732,2830.666666,note_off,40,2457,64,320
9733,2832.0,note_on,38,819,64,0
9734,2832.0,pitchwheel,38,819,64,0
9735,2832.0,note_off,38,819,64,320
9736,2833.333333,note_on,37,0,64,0
9737,2833.333333,note_off,37,0,64,320
9738,2834.0,note_on,43,0,64,0
9739,2834.0,note_off,43,0,64,320
9740,2834.666666,note_on,46,0,64,0
9741,2834.666666,note_off,46,0,64,320
9742,2835.333333,note_on,40,2866,64,0
9743,2835.333333,pitchwheel,40,2866,64,0
9744,2835.333333,note_off,40,2866,64,320
9745,2836.0,note_on,41,0,64,0
9746,2836.0,note_off,41,0,64,320
9747,2836.666666,note_on,35,3276,64,0
9748,2836.666666,pitchwheel,35,3276,64,0
9749,2836.666666,note_off,35,3276,64,320
9750,2837.333333,note_on,35,3685,64,0
9751,2837.333333,pitchwheel,35,3685,64,0
9752,2837.333333,note_off,35,3685,64,320
9753,2838.0,note_on,33,0,64,0
9754,2838.0,note_off,33,0,64,320
9755,2839.333333,note_on,40,2457,64,0
9756,2839.333333,pitchwheel,40,2457,64,0
9757,2839.333333,note_off,40,2457,64,320
9758,2840.0,note_on,40,2866,64,0
9759,2840.0,pitchwheel,40,2866,64,0
9760,2840.0,note_off,40,2866,64,320
9761,2841.333333,note_on,38,819,64,0
9762,2841.333333,pitchwheel,38,819,64,0
9763,2841.333333,note_off,38,819,64,320
9764,2842.0,note_on,34,409,64,0
9765,2842.0,pitchwheel,34,409,64,0
9766,2842.0,note_off,34,409,64,320
9767,2842.666666,note_on,31,2866,64,0
9768,2842.666666,pitchwheel,31,2866,64,0
9769,2842.666666,note_off,31,2866,64,320
9770,2843.333333,note_on,28,0,64,0
9771,2843.333333,note_off,28,0,64,320
9772,2844.0,note_on,36,819,64,0
9773,2844.0,pitchwheel,36,819,64,0
9774,2844.0,note_off,36,819,64,320
9775,2844.666666,note_on,38,819,64,0
9776,2844.666666,pitchwheel,38,819,64,0
9777,2844.666666,note_off,38,819,64,320
9778,2845.333333,note_on,36,2047,64,0
9779,2845.333333,pitchwheel,36,2047,64,0
9780,2845.333333,note_off,36,2047,64,320
9781,2846.0,note_on,33,2047,64,0
9782,2846.0,pitchwheel,33,2047,64,0
9783,2846.0,note_off,33,2047,64,320
9784,2846.666666,note_on,35,3685,64,0
9785,2846.666666,pitchwheel,35,3685,64,0
9786,2846.666666,note_off,35,3685,64,320
9787,2847.333333,note_on,36,2047,64,0
9788,2847.333333,pitchwheel,36,2047,64,0
9789,2847.333333,note_off,36,2047,64,320
9790,2848.0,note_on,34,1638,64,0
9791,2848.0,pitchwheel,34,1638,64,0
9792,2848.0,note_off,34,1638,64,320
9793,2848.666666,note_on,38,2457,64,0
9794,2848.666666,pitchwheel,38,2457,64,0
9795,2848.666666,note_off,38,2457,64,320
9796,2849.333333,note_on,33,0,64,0
9797,2849.333333,note_off,33,0,64,320
9798,2850.0,note_on,35,3276,64,0
9799,2850.0,pitchwheel,35,3276,64,0
9800,2850.0,note_off,35,3276,64,320
9801,2850.666666,note_on,32,0,64,0
9802,2850.666666,note_off,32,0,64,320
9803,2851.333333,note_on,35,3685,64,0
9804,2851.333333,pitchwheel,35,3685,64,0
9805,2851.333333,note_off,35,3685,64,320
9806,2852.0,note_on,35,3276,64,0
9807,2852.0,pitchwheel,35,3276,64,0
9808,2852.0,note_off,35,3276,64,320
9809,2853.333333,note_on,35,2047,64,0
9810,2853.333333,pitchwheel,35,2047,64,0
9811,2853.333333,note_off,35,2047,64,320
9812,2854.0,note_on,38,2457,64,0
9813,2854.0,pitchwheel,38,2457,64,0
9814,2854.0,note_off,38,2457,64,320
9815,2855.333333,note_on,35,3276,64,0
9816,2855.333333,pitchwheel,35,3276,64,0
9817,2855.333333,note_off,35,3276,64,320
9818,2856.0,note_on,38,0,64,0
9819,2856.0,note_off,38,0,64,320
9820,2856.666666,note_on,33,0,64,0
9821,2856.666666,note_off,33,0,64,320
9822,2857.333333,note_on,34,0,64,0
9823,2857.333333,note_off,34,0,64,320
9824,2858.666666,note_on,35,2457,64,0
9825,2858.666666,pitchwheel,35,2457,64,0
9826,2858.666666,note_off,35,2457,64,320
9827,2860.0,note_on,38,3685,64,0
9828,2860.0,pitchwheel,38,3685,64,0
9829,2860.0,note_off,38,3685,64,320
9830,2860.666666,note_on,33,1638,64,0
9831,2860.666666,pitchwheel,33,1638,64,0
9832,2860.666666,note_off,33,1638,64,320
9833,2861.333333,note_on,38,2457,64,0
9834,2861.333333,pitchwheel,38,2457,64,0
9835,2861.333333,note_off,38,2457,64,320
9836,2862.0,note_on,33,2047,64,0
9837,2862.0,pitchwheel,33,2047,64,0
9838,2862.0,note_off,33,2047,64,320
9839,2862.666666,note_on,33,1638,64,0
9840,2862.666666,pitchwheel,33,1638,64,0
9841,2862.666666,note_off,33,1638,64,320
9842,2863.333333,note_on,38,819,64,0
9843,2863.333333,pitchwheel,38,819,64,0
9844,2863.333333,note_off,38,819,64,320
9845,2864.0,note_on,35,2457,64,0
9846,2864.0,pitchwheel,35,2457,64,0
9847,2864.0,note_off,35,2457,64,320
9848,2864.666666,note_on,33,0,64,0
9849,2864.666666,note_off,33,0,64,320
9850,2865.333333,note_on,29,0,64,0
9851,2865.333333,note_off,29,0,64,320
9852,2866.0,note_on,31,0,64,0
9853,2866.0,note_off,31,0,64,320
9854,2866.666666,note_on,32,0,64,0
9855,2866.666666,note_off,32,0,64,320
9856,2868.0,note_on,29,0,64,0
9857,2868.0,note_off,29,0,64,320
9858,2868.666666,note_on,33,2047,64,0
9859,2868.666666,pitchwheel,33,2047,64,0
9860,2868.666666,note_off,33,2047,64,320
9861,2869.333333,note_on,32,0,64,0
9862,2869.333333,note_off,32,0,64,320
9863,2870.0,note_on,28,0,64,0
9864,2870.0,note_off,28,0,64,320
9865,2870.666666,note_on,38,3685,64,0
9866,2870.666666,pitchwheel,38,3685,64,0
9867,2870.666666,note_off,38,3685,64,320
9868,2871.333333,note_on,40,2457,64,0
9869,2871.333333,pitchwheel,40,2457,64,0
9870,2871.333333,note_off,40,2457,64,320
9871,2872.0,note_on,46,1638,64,0
9872,2872.0,pitchwheel,46,1638,64,0
9873,2872.0,note_off,46,1638,64,320
9874,2872.666666,note_on,50,1228,64,0
9875,2872.666666,pitchwheel,50,1228,64,0
9876,2872.666666,note_off,50,1228,64,320
9877,2873.333333,note_on,48,2047,64,0
9878,2873.333333,pitchwheel,48,2047,64,0
9879,2873.333333,note_off,48,2047,64,320
9880,2874.0,note_on,43,409,64,0
9881,2874.0,pitchwheel,43,409,64,0
9882,2874.0,note_off,43,409,64,320
9883,2874.666666,note_on,46,1638,64,0
9884,2874.666666,pitchwheel,46,1638,64,0
9885,2874.666666,note_off,46,1638,64,320
9886,2875.333333,note_on,41,0,64,0
9887,2875.333333,note_off,41,0,64,320
9888,2876.0,note_on,43,1638,64,0
9889,2876.0,pitchwheel,43,1638,64,0
9890,2876.0,note_off,43,1638,64,320
9891,2876.666666,note_on,47,2457,64,0
9892,2876.666666,pitchwheel,47,2457,64,0
9893,2876.666666,note_off,47,2457,64,320
9894,2877.333333,note_on,48,3276,64,0
9895,2877.333333,pitchwheel,48,3276,64,0
9896,2877.333333,note_off,48,3276,64,320
9897,2878.0,note_on,52,2866,64,0
9898,2878.0,pitchwheel,52,2866,64,0
9899,2878.0,note_off,52,2866,64,320
9900,2878.666666,note_on,53,0,64,0
9901,2878.666666,note_off,53,0,64,320
9902,2880.0,note_on,52,0,64,0
9903,2880.0,note_off,52,0,64,320
9904,2880.666666,note_on,52,1638,64,0
9905,2880.666666,pitchwheel,52,1638,64,0
9906,2880.666666,note_off,52,1638,64,320
9907,2881.333333,note_on,53,0,64,0
9908,2881.333333,note_off,53,0,64,320
9909,2882.0,note_on,47,3276,64,0
9910,2882.0,pitchwheel,47,3276,64,0
9911,2882.0,note_off,47,3276,64,320
9912,2882.666666,note_on,48,2047,64,0
9913,2882.666666,pitchwheel,48,2047,64,0
9914,2882.666666,note_off,48,2047,64,320
9915,2883.333333,note_on,52,0,64,0
9916,2883.333333,note_off,52,0,64,320
9917,2884.0,note_on,46,0,64,0
9918,2884.0,note_off,46,0,64,320
9919,2885.333333,note_on,44,0,64,0
9920,2885.333333,note_off,44,0,64,320
9921,2886.666666,note_on,40,0,64,0
9922,2886.666666,note_off,40,0,64,320
9923,2887.333333,note_on,38,819,64,0
9924,2887.333333,pitchwheel,38,819,64,0
9925,2887.333333,note_off,38,819,64,320
9926,2888.0,note_on,39,819,64,0
9927,2888.0,pitchwheel,39,819,64,0
9928,2888.0,note_off,39,819,64,320
9929,2888.666666,note_on,40,2866,64,0
9930,2888.666666,pitchwheel,40,2866,64,0
9931,2888.666666,note_off,40,2866,64,320
9932,2889.333333,note_on,41,0,64,0
9933,2889.333333,note_off,41,0,64,320
9934,2890.0,note_on,40,2457,64,0
9935,2890.0,pitchwheel,40,2457,64,0
9936,2890.0,note_off,40,2457,64,320
9937,2890.666666,note_on,39,819,64,0
9938,2890.666666,pitchwheel,39,819,64,0
9939,2890.666666,note_off,39,819,64,320
9940,2891.333333,note_on,45,0,64,0
9941,2891.333333,note_off,45,0,64,320
9942,2892.666666,note_on,40,2457,64,0
9943,2892.666666,pitchwheel,40,2457,64,0
9944,2892.666666,note_off,40,2457,64,320
9945,2893.333333,note_on,41,2457,64,0
9946,2893.333333,pitchwheel,41,2457,64,0
9947,2893.333333,note_off,41,2457,64,320
9948,2894.666666,note_on,40,2457,64,0
9949,2894.666666,pitchwheel,40,2457,64,0
9950,2894.666666,note_off,40,2457,64,320
9951,2895.333333,note_on,45,2047,64,0
9952,2895.333333,pitchwheel,45,2047,64,0
9953,2895.333333,note_off,45,2047,64,640
9954,2896.666666,note_on,44,2047,64,0
9955,2896.666666,pitchwheel,44,2047,64,0
9956,2896.666666,note_off,44,2047,64,320
9957,2897.333333,note_on,41,0,64,0
9958,2897.333333,note_off,41,0,64,320
9959,2898.0,note_on,43,0,64,0
9960,2898.0,note_off,43,0,64,320
9961,2898.666666,note_on,44,0,64,0
9962,2898.666666,note_off,44,0,64,320
9963,2899.333333,note_on,45,2047,64,0
9964,2899.333333,pitchwheel,45,2047,64,0
9965,2899.333333,note_off,45,2047,64,320
9966,2900.0,note_on,50,819,64,0
9967,2900.0,pitchwheel,50,819,64,0
9968,2900.0,note_off,50,819,64,320
9969,2900.666666,note_on,47,3685,64,0
9970,2900.666666,pitchwheel,47,3685,64,0
9971,2900.666666,note_off,47,3685,64,640
9972,2902.0,note_on,50,0,64,0
9973,2902.0,note_off,50,0,64,320
9974,2902.666666,note_on,45,0,64,0
9975,2902.666666,note_off,45,0,64,320
9976,2903.333333,note_on,45,1638,64,0
9977,2903.333333,pitchwheel,45,1638,64,0
9978,2903.333333,note_off,45,1638,64,320
9979,2904.0,note_on,46,1638,64,0
9980,2904.0,pitchwheel,46,1638,64,0
9981,2904.0,note_off,46,1638,64,320
9982,2904.666666,note_on,47,3685,64,0
9983,2904.666666,pitchwheel,47,3685,64,0
9984,2904.666666,note_off,47,3685,64,320
9985,2905.333333,note_on,48,819,64,0
9986,2905.333333,pitchwheel,48,819,64,0
9987,2905.333333,note_off,48,819,64,320
9988,2906.666666,note_on,48,3276,64,0
9989,2906.666666,pitchwheel,48,3276,64,0
9990,2906.666666,note_off,48,3276,64,320
9991,2907.333333,note_on,53,0,64,0
9992,2907.333333,note_off,53,0,64,320
9993,2908.666666,note_on,57,1638,64,0
9994,2908.666666,pitchwheel,57,1638,64,0
9995,2908.666666,note_off,57,1638,64,320
9996,2909.333333,note_on,56,0,64,0
9997,2909.333333,note_off,56,0,64,320
9998,2910.0,note_on,50,2457,64,0
9999,2910.0,pitchwheel,50,2457,64,0
10000,2910.0,note_off,50,2457,64,320
10001,2910.666666,note_on,46,409,64,0
10002,2910.666666,pitchwheel,46,409,64,0
10003,2910.666666,note_off,46,409,64,320
10004,2912.0,note_on,43,409,64,0
10005,2912.0,pitchwheel,43,409,64,0
10006,2912.0,note_off,43,409,64,320
10007,2913.333333,note_on,40,0,64,0
10008,2913.333333,note_off,40,0,64,320
10009,2914.0,note_on,35,3276,64,0
10010,2914.0,pitchwheel,35,3276,64,0
10011,2914.0,note_off,35,3276,64,320
10012,2914.666666,note_on,33,3276,64,0
10013,2914.666666,pitchwheel,33,3276,64,0
10014,2914.666666,note_off,33,3276,64,320
10015,2915.333333,note_on,29,0,64,0
10016,2915.333333,note_off,29,0,64,320
10017,2916.0,note_on,33,1638,64,0
10018,2916.0,pitchwheel,33,1638,64,0
10019,2916.0,note_off,33,1638,64,320
10020,2916.666666,note_on,31,0,64,0
10021,2916.666666,note_off,31,0,64,640
10022,2918.0,note_on,33,0,64,0
10023,2918.0,note_off,33,0,64,320
10024,2918.666666,note_on,36,819,64,0
10025,2918.666666,pitchwheel,36,819,64,0
10026,2918.666666,note_off,36,819,64,320
10027,2919.333333,note_on,38,819,64,0
10028,2919.333333,pitchwheel,38,819,64,0
10029,2919.333333,note_off,38,819,64,320
10030,2920.0,note_on,39,819,64,0
10031,2920.0,pitchwheel,39,819,64,0
10032,2920.0,note_off,39,819,64,320
10033,2921.333333,note_on,38,1228,64,0
10034,2921.333333,pitchwheel,38,1228,64,0
10035,2921.333333,note_off,38,1228,64,320
10036,2922.0,note_on,35,2457,64,0
10037,2922.0,pitchwheel,35,2457,64,0
10038,2922.0,note_off,35,2457,64,320
10039,2922.666666,note_on,33,2047,64,0
10040,2922.666666,pitchwheel,33,2047,64,0
10041,2922.666666,note_off,33,2047,64,320
10042,2923.333333,note_on,31,0,64,0
10043,2923.333333,note_off,31,0,64,320
10044,2924.0,note_on,38,2457,64,0
10045,2924.0,pitchwheel,38,2457,64,0
10046,2924.0,note_off,38,2457,64,320
10047,2924.666666,note_on,40,2457,64,0
10048,2924.666666,pitchwheel,40,2457,64,0
10049,2924.666666,note_off,40,2457,64,320
10050,2925.333333,note_on,36,3276,64,0
10051,2925.333333,pitchwheel,36,3276,64,0
10052,2925.333333,note_off,36,3276,64,320
10053,2926.0,note_on,36,819,64,0
10054,2926.0,pitchwheel,36,819,64,0
10055,2926.0,note_off,36,819,64,320
10056,2926.666666,note_on,35,3276,64,0
10057,2926.666666,pitchwheel,35,3276,64,0
10058,2926.666666,note_off,35,3276,64,320
10059,2927.333333,note_on,38,0,64,0
10060,2927.333333,note_off,38,0,64,320
10061,2928.0,note_on,38,3685,64,0
10062,2928.0,pitchwheel,38,3685,64,0
10063,2928.0,note_off,38,3685,64,320
10064,2928.666666,note_on,38,2457,64,0
10065,2928.666666,pitchwheel,38,2457,64,0
10066,2928.666666,note_off,38,2457,64,320
10067,2929.333333,note_on,33,3276,64,0
10068,2929.333333,pitchwheel,33,3276,64,0
10069,2929.333333,note_off,33,3276,64,320
10070,2930.0,note_on,31,0,64,0
10071,2930.0,note_off,31,0,64,320
10072,2930.666666,note_on,33,2047,64,0
10073,2930.666666,pitchwheel,33,2047,64,0
10074,2930.666666,note_off,33,2047,64,320
10075,2931.333333,note_on,33,3276,64,0
10076,2931.333333,pitchwheel,33,3276,64,0
10077,2931.333333,note_off,33,3276,64,320
10078,2932.0,note_on,33,2047,64,0
10079,2932.0,pitchwheel,33,2047,64,0
10080,2932.0,note_off,33,2047,64,320
10081,2933.333333,note_on,32,2047,64,0
10082,2933.333333,pitchwheel,32,2047,64,0
10083,2933.333333,note_off,32,2047,64,320
10084,2934.0,note_on,29,0,64,0
10085,2934.0,note_off,29,0,64,320
10086,2934.666666,note_on,38,2457,64,0
10087,2934.666666,pitchwheel,38,2457,64,0
10088,2934.666666,note_off,38,2457,64,320
10089,2935.333333,note_on,33,1638,64,0
10090,2935.333333,pitchwheel,33,1638,64,0
10091,2935.333333,note_off,33,1638,64,320
10092,2936.0,note_on,32,0,64,0
10093,2936.0,note_off,32,0,64,320
10094,2936.666666,note_on,29,0,64,0
10095,2936.666666,note_off,29,0,64,320
10096,2937.333333,note_on,34,0,64,0
10097,2937.333333,note_off,34,0,64,320
10098,2938.666666,note_on,32,0,64,0
10099,2938.666666,note_off,32,0,64,320
10100,2940.0,note_on,28,0,64,0
10101,2940.0,note_off,28,0,64,320
10102,2940.666666,note_on,35,3276,64,0
10103,2940.666666,pitchwheel,35,3276,64,0
10104,2940.666666,note_off,35,3276,64,320
10105,2941.333333,note_on,34,1638,64,0
10106,2941.333333,pitchwheel,34,1638,64,0
10107,2941.333333,note_off,34,1638,64,320
10108,2942.0,note_on,29,0,64,0
10109,2942.0,note_off,29,0,64,320
10110,2942.666666,note_on,40,2866,64,0
10111,2942.666666,pitchwheel,40,2866,64,0
10112,2942.666666,note_off,40,2866,64,320
10113,2943.333333,note_on,38,819,64,0
10114,2943.333333,pitchwheel,38,819,64,0
10115,2943.333333,note_off,38,819,64,320
10116,2944.0,note_on,38,0,64,0
10117,2944.0,note_off,38,0,64,320
10118,2944.666666,note_on,33,0,64,0
10119,2944.666666,note_off,33,0,64,320
10120,2946.0,note_on,38,819,64,0
10121,2946.0,pitchwheel,38,819,64,0
10122,2946.0,note_off,38,819,64,320
10123,2946.666666,note_on,36,3276,64,0
10124,2946.666666,pitchwheel,36,3276,64,0
10125,2946.666666,note_off,36,3276,64,320
10126,2948.0,note_on,38,1228,64,0
10127,2948.0,pitchwheel,38,1228,64,0
10128,2948.0,note_off,38,1228,64,320
10129,2948.666666,note_on,35,2457,64,0
10130,2948.666666,pitchwheel,35,2457,64,0
10131,2948.666666,note_off,35,2457,64,320
10132,2949.333333,note_on,34,1638,64,0
10133,2949.333333,pitchwheel,34,1638,64,0
10134,2949.333333,note_off,34,1638,64,320
10135,2950.0,note_on,37,0,64,0
10136,2950.0,note_off,37,0,64,320
10137,2950.666666,note_on,36,819,64,0
10138,2950.666666,pitchwheel,36,819,64,0
10139,2950.666666,note_off,36,819,64,320
10140,2951.333333,note_on,40,2457,64,0
10141,2951.333333,pitchwheel,40,2457,64,0
10142,2951.333333,note_off,40,2457,64,320
10143,2952.0,note_on,39,819,64,0
10144,2952.0,pitchwheel,39,819,64,0
10145,2952.0,note_off,39,819,64,320
10146,2952.666666,note_on,36,819,64,0
10147,2952.666666,pitchwheel,36,819,64,0
10148,2952.666666,note_off,36,819,64,320
10149,2953.333333,note_on,35,3276,64,0
10150,2953.333333,pitchwheel,35,3276,64,0
10151,2953.333333,note_off,35,3276,64,320
10152,2954.0,note_on,38,0,64,0
10153,2954.0,note_off,38,0,64,320
10154,2954.666666,note_on,35,2457,64,0
10155,2954.666666,pitchwheel,35,2457,64,0
10156,2954.666666,note_off,35,2457,64,320
10157,2955.333333,note_on,38,2457,64,0
10158,2955.333333,pitchwheel,38,2457,64,0
10159,2955.333333,note_off,38,2457,64,320
10160,2956.0,note_on,33,0,64,0
10161,2956.0,note_off,33,0,64,320
10162,2956.666666,note_on,31,0,64,0
10163,2956.666666,note_off,31,0,64,320
10164,2957.333333,note_on,29,0,64,0
10165,2957.333333,note_off,29,0,64,320
10166,2958.0,note_on,33,3276,64,0
10167,2958.0,pitchwheel,33,3276,64,0
10168,2958.0,note_off,33,3276,64,320
10169,2958.666666,note_on,33,2047,64,0
10170,2958.666666,pitchwheel,33,2047,64,0
10171,2958.666666,note_off,33,2047,64,320
10172,2960.0,note_on,33,1638,64,0
10173,2960.0,pitchwheel,33,1638,64,0
10174,2960.0,note_off,33,1638,64,320
10175,2960.666666,note_on,36,2047,64,0
10176,2960.666666,pitchwheel,36,2047,64,0
10177,2960.666666,note_off,36,2047,64,320
10178,2962.0,note_on,38,819,64,0
10179,2962.0,pitchwheel,38,819,64,0
10180,2962.0,note_off,38,819,64,320
10181,2962.666666,note_on,41,2457,64,0
10182,2962.666666,pitchwheel,41,2457,64,0
10183,2962.666666,note_off,41,2457,64,320
10184,2964.0,note_on,46,0,64,0
10185,2964.0,note_off,46,0,64,320
10186,2965.333333,note_on,46,1638,64,0
10187,2965.333333,pitchwheel,46,1638,64,0
10188,2965.333333,note_off,46,1638,64,320
10189,2966.666666,note_on,47,2047,64,0
10190,2966.666666,pitchwheel,47,2047,64,0
10191,2966.666666,note_off,47,2047,64,320
10192,2967.333333,note_on,52,2457,64,0
10193,2967.333333,pitchwheel,52,2457,64,0
10194,2967.333333,note_off,52,2457,64,320
10195,2968.0,note_on,51,819,64,0
10196,2968.0,pitchwheel,51,819,64,0
10197,2968.0,note_off,51,819,64,320
10198,2968.666666,note_on,53,0,64,0
10199,2968.666666,note_off,53,0,64,320
10200,2969.333333,note_on,53,1228,64,0
10201,2969.333333,pitchwheel,53,1228,64,0
10202,2969.333333,note_off,53,1228,64,320
10203,2970.0,note_on,52,2457,64,0
10204,2970.0,pitchwheel,52,2457,64,0
10205,2970.0,note_off,52,2457,64,320
10206,2970.666666,note_on,51,819,64,0
10207,2970.666666,pitchwheel,51,819,64,0
10208,2970.666666,note_off,51,819,64,320
10209,2971.333333,note_on,57,0,64,0
10210,2971.333333,note_off,57,0,64,320
10211,2972.0,note_on,55,1638,64,0
10212,2972.0,pitchwheel,55,1638,64,0
10213,2972.0,note_off,55,1638,64,320
10214,2972.666666,note_on,55,0,64,0
10215,2972.666666,note_off,55,0,64,320
10216,2973.333333,note_on,55,1638,64,0
10217,2973.333333,pitchwheel,55,1638,64,0
10218,2973.333333,note_off,55,1638,64,320
10219,2974.666666,note_on,55,409,64,0
10220,2974.666666,pitchwheel,55,409,64,0
10221,2974.666666,note_off,55,409,64,320
10222,2975.333333,note_on,55,1638,64,0
10223,2975.333333,pitchwheel,55,1638,64,0
10224,2975.333333,note_off,55,1638,64,320
10225,2976.0,note_on,60,819,64,0
10226,2976.0,pitchwheel,60,819,64,0
10227,2976.0,note_off,60,819,64,640
10228,2977.333333,note_on,53,0,64,0
10229,2977.333333,note_off,53,0,64,320
10230,2978.0,note_on,57,1638,64,0
10231,2978.0,pitchwheel,57,1638,64,0
10232,2978.0,note_off,57,1638,64,320
10233,2978.666666,note_on,58,1638,64,0
10234,2978.666666,pitchwheel,58,1638,64,0
10235,2978.666666,note_off,58,1638,64,320
10236,2979.333333,note_on,57,3276,64,0
10237,2979.333333,pitchwheel,57,3276,64,0
10238,2979.333333,note_off,57,3276,64,320
10239,2980.0,note_on,59,3276,64,0
10240,2980.0,pitchwheel,59,3276,64,0
10241,2980.0,note_off,59,3276,64,320
10242,2980.666666,note_on,53,0,64,0
10243,2980.666666,note_off,53,0,64,320
10244,2981.333333,note_on,50,1228,64,0
10245,2981.333333,pitchwheel,50,1228,64,0
10246,2981.333333,note_off,50,1228,64,320
10247,2982.0,note_on,50,3685,64,0
10248,2982.0,pitchwheel,50,3685,64,0
10249,2982.0,note_off,50,3685,64,320
10250,2982.666666,note_on,53,0,64,0
10251,2982.666666,note_off,53,0,64,320
10252,2983.333333,note_on,47,3276,64,0
10253,2983.333333,pitchwheel,47,3276,64,0
10254,2983.333333,note_off,47,3276,64,320
10255,2984.0,note_on,44,0,64,0
10256,2984.0,note_off,44,0,64,320
10257,2984.666666,note_on,48,819,64,0
10258,2984.666666,pitchwheel,48,819,64,0
10259,2984.666666,note_off,48,819,64,320
10260,2985.333333,note_on,48,2047,64,0
10261,2985.333333,pitchwheel,48,2047,64,0
10262,2985.333333,note_off,48,2047,64,320
10263,2986.666666,note_on,47,2047,64,0
10264,2986.666666,pitchwheel,47,2047,64,0
10265,2986.666666,note_off,47,2047,64,320
10266,2987.333333,note_on,53,0,64,0
10267,2987.333333,note_off,53,0,64,320
10268,2988.0,note_on,52,1638,64,0
10269,2988.0,pitchwheel,52,1638,64,0
10270,2988.0,note_off,52,1638,64,320
10271,2988.666666,note_on,47,3276,64,0
10272,2988.666666,pitchwheel,47,3276,64,0
10273,2988.666666,note_off,47,3276,64,320
10274,2989.333333,note_on,51,819,64,0
10275,2989.333333,pitchwheel,51,819,64,0
10276,2989.333333,note_off,51,819,64,320
10277,2990.0,note_on,57,0,64,0
10278,2990.0,note_off,57,0,64,320
10279,2990.666666,note_on,58,0,64,0
10280,2990.666666,note_off,58,0,64,320
10281,2992.0,note_on,53,2457,64,0
10282,2992.0,pitchwheel,53,2457,64,0
10283,2992.0,note_off,53,2457,64,320
10284,2993.333333,note_on,56,2047,64,0
10285,2993.333333,pitchwheel,56,2047,64,0
10286,2993.333333,note_off,56,2047,64,320
10287,2994.0,note_on,62,819,64,0
10288,2994.0,pitchwheel,62,819,64,0
10289,2994.0,note_off,62,819,64,320
10290,2994.666666,note_on,65,2457,64,0
10291,2994.666666,pitchwheel,65,2457,64,0
10292,2994.666666,note_off,65,2457,64,320
10293,2995.333333,note_on,57,3276,64,0
10294,2995.333333,pitchwheel,57,3276,64,0
10295,2995.333333,note_off,57,3276,64,320
10296,2996.0,note_on,57,2047,64,0
10297,2996.0,pitchwheel,57,2047,64,0
10298,2996.0,note_off,57,2047,64,320
10299,2996.666666,note_on,55,0,64,0
10300,2996.666666,note_off,55,0,64,320
10301,2997.333333,note_on,56,0,64,0
10302,2997.333333,note_off,56,0,64,320
10303,2998.0,note_on,57,0,64,0
10304,2998.0,note_off,57,0,64,320
10305,2999.333333,note_on,52,2457,64,0
10306,2999.333333,pitchwheel,52,2457,64,0
10307,2999.333333,note_off,52,2457,64,320
10308,3000.0,note_on,49,0,64,0
10309,3000.0,note_off,49,0,64,320
10310,3001.333333,note_on,45,1638,64,0
10311,3001.333333,pitchwheel,45,1638,64,0
10312,3001.333333,note_off,45,1638,64,320
10313,3002.0,note_on,46,409,64,0
10314,3002.0,pitchwheel,46,409,64,0
10315,3002.0,note_off,46,409,64,320
10316,3002.666666,note_on,46,0,64,0
10317,3002.666666,note_off,46,0,64,320
10318,3003.333333,note_on,47,2047,64,0
10319,3003.333333,pitchwheel,47,2047,64,0
10320,3003.333333,note_off,47,2047,64,320
10321,3004.0,note_on,48,819,64,0
10322,3004.0,pitchwheel,48,819,64,0
10323,3004.0,note_off,48,819,64,320
10324,3004.666666,note_on,43,0,64,0
10325,3004.666666,note_off,43,0,64,320
10326,3005.333333,note_on,46,1638,64,0
10327,3005.333333,pitchwheel,46,1638,64,0
10328,3005.333333,note_off,46,1638,64,320
10329,3006.0,note_on,41,0,64,0
10330,3006.0,note_off,41,0,64,320
10331,3006.666666,note_on,45,2047,64,0
10332,3006.666666,pitchwheel,45,2047,64,0
10333,3006.666666,note_off,45,2047,64,320
10334,3007.333333,note_on,48,2047,64,0
10335,3007.333333,pitchwheel,48,2047,64,0
10336,3007.333333,note_off,48,2047,64,320
10337,3008.0,note_on,44,0,64,0
10338,3008.0,note_off,44,0,64,320
10339,3008.666666,note_on,38,2457,64,0
10340,3008.666666,pitchwheel,38,2457,64,0
10341,3008.666666,note_off,38,2457,64,320
10342,3009.333333,note_on,33,0,64,0
10343,3009.333333,note_off,33,0,64,320
10344,3010.0,note_on,33,1638,64,0
10345,3010.0,pitchwheel,33,1638,64,0
10346,3010.0,note_off,33,1638,64,320
10347,3010.666666,note_on,36,3276,64,0
10348,3010.666666,pitchwheel,36,3276,64,0
10349,3010.666666,note_off,36,3276,64,320
10350,3011.333333,note_on,38,2457,64,0
10351,3011.333333,pitchwheel,38,2457,64,0
10352,3011.333333,note_off,38,2457,64,320
10353,3012.0,note_on,38,1228,64,0
10354,3012.0,pitchwheel,38,1228,64,0
10355,3012.0,note_off,38,1228,64,320
10356,3013.333333,note_on,38,2457,64,0
10357,3013.333333,pitchwheel,38,2457,64,0
10358,3013.333333,note_off,38,2457,64,640
10359,3015.333333,note_on,43,0,64,0
10360,3015.333333,note_off,43,0,64,320
10361,3016.0,note_on,48,3276,64,0
10362,3016.0,pitchwheel,48,3276,64,0
10363,3016.0,note_off,48,3276,64,320
10364,3016.666666,note_on,52,0,64,0
10365,3016.666666,note_off,52,0,64,320
10366,3017.333333,note_on,57,2047,64,0
10367,3017.333333,pitchwheel,57,2047,64,0
10368,3017.333333,note_off,57,2047,64,320
10369,3018.666666,note_on,58,0,64,0
10370,3018.666666,note_off,58,0,64,320
10371,3020.0,note_on,59,2047,64,0
10372,3020.0,pitchwheel,59,2047,64,0
10373,3020.0,note_off,59,2047,64,320
10374,3020.666666,note_on,64,2457,64,0
10375,3020.666666,pitchwheel,64,2457,64,0
10376,3020.666666,note_off,64,2457,64,320
10377,3021.333333,note_on,63,819,64,0
10378,3021.333333,pitchwheel,63,819,64,0
10379,3021.333333,note_off,63,819,64,320
10380,3022.0,note_on,53,1228,64,0
10381,3022.0,pitchwheel,53,1228,64,0
10382,3022.0,note_off,53,1228,64,320
10383,3022.666666,note_on,53,0,64,0
10384,3022.666666,note_off,53,0,64,320
10385,3023.333333,note_on,57,1638,64,0
10386,3023.333333,pitchwheel,57,1638,64,0
10387,3023.333333,note_off,57,1638,64,320
10388,3024.0,note_on,58,409,64,0
10389,3024.0,pitchwheel,58,409,64,0
10390,3024.0,note_off,58,409,64,320
10391,3024.666666,note_on,57,0,64,0
10392,3024.666666,note_off,57,0,64,320
10393,3025.333333,note_on,53,0,64,0
10394,3025.333333,note_off,53,0,64,320
10395,3026.0,note_on,50,819,64,0
10396,3026.0,pitchwheel,50,819,64,0
10397,3026.0,note_off,50,819,64,640
10398,3028.0,note_on,50,2457,64,0
10399,3028.0,pitchwheel,50,2457,64,0
10400,3028.0,note_off,50,2457,64,320
10401,3028.666666,note_on,45,2047,64,0
10402,3028.666666,pitchwheel,45,2047,64,0
10403,3028.666666,note_off,45,2047,64,320
10404,3029.333333,note_on,44,0,64,0
10405,3029.333333,note_off,44,0,64,320
10406,3030.0,note_on,44,2047,64,0
10407,3030.0,pitchwheel,44,2047,64,0
10408,3030.0,note_off,44,2047,64,320
10409,3030.666666,note_on,50,0,64,0
10410,3030.666666,note_off,50,0,64,320
10411,3031.333333,note_on,47,3276,64,0
10412,3031.333333,pitchwheel,47,3276,64,0
10413,3031.333333,note_off,47,3276,64,320
10414,3032.0,note_on,45,0,64,0
10415,3032.0,note_off,45,0,64,320
10416,3032.666666,note_on,48,2047,64,0
10417,3032.666666,pitchwheel,48,2047,64,0
10418,3032.666666,note_off,48,2047,64,320
10419,3033.333333,note_on,52,2457,64,0
10420,3033.333333,pitchwheel,52,2457,64,0
10421,3033.333333,note_off,52,2457,64,320
10422,3034.0,note_on,55,409,64,0
10423,3034.0,pitchwheel,55,409,64,0
10424,3034.0,note_off,55,409,64,320
10425,3034.666666,note_on,56,0,64,0
10426,3034.666666,note_off,56,0,64,320
10427,3035.333333,note_on,53,0,64,0
10428,3035.333333,note_off,53,0,64,320
10429,3036.0,note_on,55,1638,64,0
10430,3036.0,pitchwheel,55,1638,64,0
10431,3036.0,note_off,55,1638,64,320
10432,3036.666666,note_on,57,1638,64,0
10433,3036.666666,pitchwheel,57,1638,64,0
10434,3036.666666,note_off,57,1638,64,320
10435,3037.333333,note_on,58,1638,64,0
10436,3037.333333,pitchwheel,58,1638,64,0
10437,3037.333333,note_off,58,1638,64,320
10438,3038.0,note_on,58,409,64,0
10439,3038.0,pitchwheel,58,409,64,0
10440,3038.0,note_off,58,409,64,320
10441,3038.666666,note_on,57,3276,64,0
10442,3038.666666,pitchwheel,57,3276,64,0
10443,3038.666666,note_off,57,3276,64,320
10444,3040.0,note_on,58,1638,64,0
10445,3040.0,pitchwheel,58,1638,64,0
10446,3040.0,note_off,58,1638,64,320
10447,3040.666666,note_on,52,1638,64,0
10448,3040.666666,pitchwheel,52,1638,64,0
10449,3040.666666,note_off,52,1638,64,320
10450,3041.333333,note_on,53,0,64,0
10451,3041.333333,note_off,53,0,64,320
10452,3042.0,note_on,57,1638,64,0
10453,3042.0,pitchwheel,57,1638,64,0
10454,3042.0,note_off,57,1638,64,320
10455,3042.666666,note_on,56,0,64,0
10456,3042.666666,note_off,56,0,64,320
10457,3043.333333,note_on,50,2457,64,0
10458,3043.333333,pitchwheel,50,2457,64,0
10459,3043.333333,note_off,50,2457,64,320
10460,3044.0,note_on,52,2457,64,0
10461,3044.0,pitchwheel,52,2457,64,0
10462,3044.0,note_off,52,2457,64,320
10463,3045.333333,note_on,51,819,64,0
10464,3045.333333,pitchwheel,51,819,64,0
10465,3045.333333,note_off,51,819,64,320
10466,3046.666666,note_on,57,0,64,0
10467,3046.666666,note_off,57,0,64,320
10468,3047.333333,note_on,55,0,64,0
10469,3047.333333,note_off,55,0,64,320
10470,3048.0,note_on,58,0,64,0
10471,3048.0,note_off,58,0,64,320
10472,3048.666666,note_on,60,2047,64,0
10473,3048.666666,pitchwheel,60,2047,64,0
10474,3048.666666,note_off,60,2047,64,320
10475,3049.333333,note_on,60,819,64,0
10476,3049.333333,pitchwheel,60,819,64,0
10477,3049.333333,note_off,60,819,64,320
10478,3050.0,note_on,59,3276,64,0
10479,3050.0,pitchwheel,59,3276,64,0
10480,3050.0,note_off,59,3276,64,320
10481,3050.666666,note_on,55,1638,64,0
10482,3050.666666,pitchwheel,55,1638,64,0
10483,3050.666666,note_off,55,1638,64,320
10484,3051.333333,note_on,57,0,64,0
10485,3051.333333,note_off,57,0,64,320
10486,3052.666666,note_on,52,2457,64,0
10487,3052.666666,pitchwheel,52,2457,64,0
10488,3052.666666,note_off,52,2457,64,320
10489,3053.333333,note_on,51,819,64,0
10490,3053.333333,pitchwheel,51,819,64,0
10491,3053.333333,note_off,51,819,64,320
10492,3054.666666,note_on,50,819,64,0
10493,3054.666666,pitchwheel,50,819,64,0
10494,3054.666666,note_off,50,819,64,320
10495,3055.333333,note_on,45,2047,64,0
10496,3055.333333,pitchwheel,45,2047,64,0
10497,3055.333333,note_off,45,2047,64,640
10498,3056.666666,note_on,41,0,64,0
10499,3056.666666,note_off,41,0,64,320
10500,3057.333333,note_on,43,2866,64,0
10501,3057.333333,pitchwheel,43,2866,64,0
10502,3057.333333,note_off,43,2866,64,320
10503,3058.0,note_on,38,819,64,0
10504,3058.0,pitchwheel,38,819,64,0
10505,3058.0,note_off,38,819,64,320
10506,3058.666666,note_on,36,3276,64,0
10507,3058.666666,pitchwheel,36,3276,64,0
10508,3058.666666,note_off,36,3276,64,320
10509,3059.333333,note_on,31,2866,64,0
10510,3059.333333,pitchwheel,31,2866,64,0
10511,3059.333333,note_off,31,2866,64,320
10512,3060.0,note_on,40,2457,64,0
10513,3060.0,pitchwheel,40,2457,64,0
10514,3060.0,note_off,40,2457,64,320
10515,3060.666666,note_on,35,3685,64,0
10516,3060.666666,pitchwheel,35,3685,64,0
10517,3060.666666,note_off,35,3685,64,320
10518,3061.333333,note_on,33,3276,64,0
10519,3061.333333,pitchwheel,33,3276,64,0
10520,3061.333333,note_off,33,3276,64,320
10521,3062.0,note_on,38,0,64,0
10522,3062.0,note_off,38,0,64,320
10523,3062.666666,note_on,33,0,64,0
10524,3062.666666,note_off,33,0,64,320
10525,3063.333333,note_on,35,3276,64,0
10526,3063.333333,pitchwheel,35,3276,64,0
10527,3063.333333,note_off,35,3276,64,320
10528,3064.0,note_on,34,1638,64,0
10529,3064.0,pitchwheel,34,1638,64,0
10530,3064.0,note_off,34,1638,64,320
10531,3064.666666,note_on,29,1228,64,0
10532,3064.666666,pitchwheel,29,1228,64,0
10533,3064.666666,note_off,29,1228,64,320
10534,3065.333333,note_on,29,0,64,0
10535,3065.333333,note_off,29,0,64,320
10536,3066.666666,note_on,28,0,64,0
10537,3066.666666,note_off,28,0,64,320
10538,3067.333333,note_on,29,0,64,0
10539,3067.333333,note_off,29,0,64,320
10540,3068.666666,note_on,33,1638,64,0
10541,3068.666666,pitchwheel,33,1638,64,0
10542,3068.666666,note_off,33,1638,64,320
10543,3069.333333,note_on,32,0,64,0
10544,3069.333333,note_off,32,0,64,320
10545,3070.0,note_on,36,2047,64,0
10546,3070.0,pitchwheel,36,2047,64,0
10547,3070.0,note_off,36,2047,64,320
10548,3070.666666,note_on,35,2457,64,0
10549,3070.666666,pitchwheel,35,2457,64,0
10550,3070.666666,note_off,35,2457,64,320
10551,3072.0,note_on,31,1638,64,0
10552,3072.0,pitchwheel,31,1638,64,0
10553,3072.0,note_off,31,1638,64,320
10554,3073.333333,note_on,32,2047,64,0
10555,3073.333333,pitchwheel,32,2047,64,0
10556,3073.333333,note_off,32,2047,64,320
10557,3074.0,note_on,31,0,64,0
10558,3074.0,note_off,31,0,64,320
10559,3074.666666,note_on,34,1638,64,0
10560,3074.666666,pitchwheel,34,1638,64,0
10561,3074.666666,note_off,34,1638,64,320
10562,3075.333333,note_on,36,2047,64,0
10563,3075.333333,pitchwheel,36,2047,64,0
10564,3075.333333,note_off,36,2047,64,320
10565,3076.0,note_on,36,819,64,0
10566,3076.0,pitchwheel,36,819,64,0
10567,3076.0,note_off,36,819,64,320
10568,3076.666666,note_on,35,3276,64,0
10569,3076.666666,pitchwheel,35,3276,64,0
10570,3076.666666,note_off,35,3276,64,320
10571,3077.333333,note_on,34,1638,64,0
10572,3077.333333,pitchwheel,34,1638,64,0
10573,3077.333333,note_off,34,1638,64,320
10574,3078.0,note_on,33,0,64,0
10575,3078.0,note_off,33,0,64,320
10576,3078.666666,note_on,38,3685,64,0
10577,3078.666666,pitchwheel,38,3685,64,0
10578,3078.666666,note_off,38,3685,64,320
10579,3079.333333,note_on,40,2457,64,0
10580,3079.333333,pitchwheel,40,2457,64,0
10581,3079.333333,note_off,40,2457,64,320
10582,3080.0,note_on,39,819,64,0
10583,3080.0,pitchwheel,39,819,64,0
10584,3080.0,note_off,39,819,64,320
10585,3081.333333,note_on,38,0,64,0
10586,3081.333333,note_off,38,0,64,320
10587,3082.0,note_on,35,2457,64,0
10588,3082.0,pitchwheel,35,2457,64,0
10589,3082.0,note_off,35,2457,64,320
10590,3082.666666,note_on,34,1638,64,0
10591,3082.666666,pitchwheel,34,1638,64,0
10592,3082.666666,note_off,34,1638,64,320
10593,3083.333333,note_on,32,2047,64,0
10594,3083.333333,pitchwheel,32,2047,64,0
10595,3083.333333,note_off,32,2047,64,320
10596,3084.0,note_on,38,2457,64,0
10597,3084.0,pitchwheel,38,2457,64,0
10598,3084.0,note_off,38,2457,64,320
10599,3084.666666,note_on,38,819,64,0
10600,3084.666666,pitchwheel,38,819,64,0
10601,3084.666666,note_off,38,819,64,320
10602,3085.333333,note_on,39,819,64,0
10603,3085.333333,pitchwheel,39,819,64,0
10604,3085.333333,note_off,39,819,64,320
10605,3086.0,note_on,43,2866,64,0
10606,3086.0,pitchwheel,43,2866,64,0
10607,3086.0,note_off,43,2866,64,320
10608,3086.666666,note_on,43,0,64,0
10609,3086.666666,note_off,43,0,64,320
10610,3087.333333,note_on,38,0,64,0
10611,3087.333333,note_off,38,0,64,320
10612,3088.0,note_on,38,819,64,0
10613,3088.0,pitchwheel,38,819,64,0
10614,3088.0,note_off,38,819,64,320
10615,3088.666666,note_on,38,2457,64,0
10616,3088.666666,pitchwheel,38,2457,64,0
10617,3088.666666,note_off,38,2457,64,320
10618,3089.333333,note_on,36,2047,64,0
10619,3089.333333,pitchwheel,36,2047,64,0
10620,3089.333333,note_off,36,2047,64,320
10621,3090.0,note_on,35,3276,64,0
10622,3090.0,pitchwheel,35,3276,64,0
10623,3090.0,note_off,35,3276,64,320
10624,3090.666666,note_on,36,819,64,0
10625,3090.666666,pitchwheel,36,819,64,0
10626,3090.666666,note_off,36,819,64,320
10627,3091.333333,note_on,41,1228,64,0
10628,3091.333333,pitchwheel,41,1228,64,0
10629,3091.333333,note_off,41,1228,64,320
10630,3092.0,note_on,41,0,64,0
10631,3092.0,note_off,41,0,64,320
10632,3093.333333,note_on,40,0,64,0
10633,3093.333333,note_off,40,0,64,320
10634,3094.0,note_on,41,0,64,0
10635,3094.0,note_off,41,0,64,640
10636,3095.333333,note_on,38,819,64,0
10637,3095.333333,pitchwheel,38,819,64,0
10638,3095.333333,note_off,38,819,64,320
10639,3096.0,note_on,38,2457,64,0
10640,3096.0,pitchwheel,38,2457,64,0
10641,3096.0,note_off,38,2457,64,320
10642,3097.333333,note_on,40,2457,64,0
10643,3097.333333,pitchwheel,40,2457,64,0
10644,3097.333333,note_off,40,2457,64,320
10645,3098.666666,note_on,36,3276,64,0
10646,3098.666666,pitchwheel,36,3276,64,0
10647,3098.666666,note_off,36,3276,64,320
10648,3100.0,note_on,32,2047,64,0
10649,3100.0,pitchwheel,32,2047,64,0
10650,3100.0,note_off,32,2047,64,320
10651,3100.666666,note_on,35,3276,64,0
10652,3100.666666,pitchwheel,35,3276,64,0
10653,3100.666666,note_off,35,3276,64,320
10654,3101.333333,note_on,34,0,64,0
10655,3101.333333,note_off,34,0,64,320
10656,3102.0,note_on,36,2047,64,0
10657,3102.0,pitchwheel,36,2047,64,0
10658,3102.0,note_off,36,2047,64,320
10659,3102.666666,note_on,36,819,64,0
10660,3102.666666,pitchwheel,36,819,64,0
10661,3102.666666,note_off,36,819,64,320
10662,3103.333333,note_on,38,819,64,0
10663,3103.333333,pitchwheel,38,819,64,0
10664,3103.333333,note_off,38,819,64,320
10665,3104.0,note_on,36,819,64,0
10666,3104.0,pitchwheel,36,819,64,0
10667,3104.0,note_off,36,819,64,320
10668,3104.666666,note_on,33,0,64,0
10669,3104.666666,note_off,33,0,64,320
10670,3106.0,note_on,33,1638,64,0
10671,3106.0,pitchwheel,33,1638,64,0
10672,3106.0,note_off,33,1638,64,320
10673,3106.666666,note_on,31,0,64,0
10674,3106.666666,note_off,31,0,64,320
10675,3108.0,note_on,31,0,64,0
10676,3108.0,note_off,31,0,64,320
10677,3108.666666,note_on,35,2457,64,0
10678,3108.666666,pitchwheel,35,2457,64,0
10679,3108.666666,note_off,35,2457,64,320
10680,3109.333333,note_on,34,0,64,0
10681,3109.333333,note_off,34,0,64,320
10682,3110.0,note_on,33,3276,64,0
10683,3110.0,pitchwheel,33,3276,64,0
10684,3110.0,note_off,33,3276,64,320
10685,3110.666666,note_on,31,2866,64,0
10686,3110.666666,pitchwheel,31,2866,64,0
10687,3110.666666,note_off,31,2866,64,320
10688,3111.333333,note_on,31,0,64,0
10689,3111.333333,note_off,31,0,64,320
10690,3112.0,note_on,31,1638,64,0
10691,3112.0,pitchwheel,31,1638,64,0
10692,3112.0,note_off,31,1638,64,320
10693,3112.666666,note_on,31,2866,64,0
10694,3112.666666,pitchwheel,31,2866,64,0
10695,3112.666666,note_off,31,2866,64,320
10696,3113.333333,note_on,31,0,64,0
10697,3113.333333,note_off,31,0,64,320
10698,3114.0,note_on,38,0,64,0
10699,3114.0,note_off,38,0,64,640
10700,3115.333333,note_on,38,2457,64,0
10701,3115.333333,pitchwheel,38,2457,64,0
10702,3115.333333,note_off,38,2457,64,320
10703,3116.0,note_on,33,0,64,0
10704,3116.0,note_off,33,0,64,320
10705,3116.666666,note_on,40,2457,64,0
10706,3116.666666,pitchwheel,40,2457,64,0
10707,3116.666666,note_off,40,2457,64,320
10708,3117.333333,note_on,44,0,64,0
10709,3117.333333,note_off,44,0,64,320
10710,3118.0,note_on,41,1228,64,0
10711,3118.0,pitchwheel,41,1228,64,0
10712,3118.0,note_off,41,1228,64,320
10713,3118.666666,note_on,41,0,64,0
10714,3118.666666,note_off,41,0,64,320
10715,3120.0,note_on,43,0,64,0
10716,3120.0,note_off,43,0,64,320
10717,3120.666666,note_on,48,2047,64,0
10718,3120.666666,pitchwheel,48,2047,64,0
10719,3120.666666,note_off,48,2047,64,320
10720,3122.0,note_on,43,0,64,0
10721,3122.0,note_off,43,0,64,640
10722,3123.333333,note_on,45,0,64,0
10723,3123.333333,note_off,45,0,64,320
10724,3124.0,note_on,46,0,64,0
10725,3124.0,note_off,46,0,64,320
10726,3125.333333,note_on,47,3685,64,0
10727,3125.333333,pitchwheel,47,3685,64,0
10728,3125.333333,note_off,47,3685,64,320
10729,3126.666666,note_on,47,2047,64,0
10730,3126.666666,pitchwheel,47,2047,64,0
10731,3126.666666,note_off,47,2047,64,320
10732,3127.333333,note_on,52,2457,64,0
10733,3127.333333,pitchwheel,52,2457,64,0
10734,3127.333333,note_off,52,2457,64,320
10735,3128.0,note_on,53,2457,64,0
10736,3128.0,pitchwheel,53,2457,64,0
10737,3128.0,note_off,53,2457,64,320
10738,3128.666666,note_on,48,819,64,0
10739,3128.666666,pitchwheel,48,819,64,0
10740,3128.666666,note_off,48,819,64,320
10741,3129.333333,note_on,47,3685,64,0
10742,3129.333333,pitchwheel,47,3685,64,0
10743,3129.333333,note_off,47,3685,64,320
10744,3130.0,note_on,52,2457,64,0
10745,3130.0,pitchwheel,52,2457,64,0
10746,3130.0,note_off,52,2457,64,640
10747,3131.333333,note_on,57,0,64,0
10748,3131.333333,note_off,57,0,64,320
10749,3132.0,note_on,62,3685,64,0
10750,3132.0,pitchwheel,62,3685,64,0
10751,3132.0,note_off,62,3685,64,320
10752,3132.666666,note_on,62,819,64,0
10753,3132.666666,pitchwheel,62,819,64,0
10754,3132.666666,note_off,62,819,64,320
10755,3133.333333,note_on,59,3276,64,0
10756,3133.333333,pitchwheel,59,3276,64,0
10757,3133.333333,note_off,59,3276,64,320
10758,3134.666666,note_on,62,0,64,0
10759,3134.666666,note_off,62,0,64,320
10760,3135.333333,note_on,55,1638,64,0
10761,3135.333333,pitchwheel,55,1638,64,0
10762,3135.333333,note_off,55,1638,64,320
10763,3136.0,note_on,59,2457,64,0
10764,3136.0,pitchwheel,59,2457,64,0
10765,3136.0,note_off,59,2457,64,320
10766,3136.666666,note_on,61,0,64,0
10767,3136.666666,note_off,61,0,64,320
10768,3137.333333,note_on,62,2457,64,0
10769,3137.333333,pitchwheel,62,2457,64,0
10770,3137.333333,note_off,62,2457,64,320
10771,3138.0,note_on,59,3276,64,0
10772,3138.0,pitchwheel,59,3276,64,0
10773,3138.0,note_off,59,3276,64,320
10774,3138.666666,note_on,58,1638,64,0
10775,3138.666666,pitchwheel,58,1638,64,0
10776,3138.666666,note_off,58,1638,64,320
10777,3139.333333,note_on,55,1638,64,0
10778,3139.333333,pitchwheel,55,1638,64,0
10779,3139.333333,note_off,55,1638,64,320
10780,3140.0,note_on,55,409,64,0
10781,3140.0,pitchwheel,55,409,64,0
10782,3140.0,note_off,55,409,64,320
10783,3140.666666,note_on,53,0,64,0
10784,3140.666666,note_off,53,0,64,320
10785,3141.333333,note_on,58,1638,64,0
10786,3141.333333,pitchwheel,58,1638,64,0
10787,3141.333333,note_off,58,1638,64,320
10788,3142.0,note_on,62,3685,64,0
10789,3142.0,pitchwheel,62,3685,64,0
10790,3142.0,note_off,62,3685,64,320
10791,3142.666666,note_on,60,2047,64,0
10792,3142.666666,pitchwheel,60,2047,64,0
10793,3142.666666,note_off,60,2047,64,320
10794,3143.333333,note_on,57,1638,64,0
10795,3143.333333,pitchwheel,57,1638,64,0
10796,3143.333333,note_off,57,1638,64,320
10797,3144.0,note_on,60,819,64,0
10798,3144.0,pitchwheel,60,819,64,0
10799,3144.0,note_off,60,819,64,320
10800,3144.666666,note_on,53,0,64,0
10801,3144.666666,note_off,53,0,64,320
10802,3145.333333,note_on,52,2866,64,0
10803,3145.333333,pitchwheel,52,2866,64,0
10804,3145.333333,note_off,52,2866,64,320
10805,3146.666666,note_on,51,819,64,0
10806,3146.666666,pitchwheel,51,819,64,0
10807,3146.666666,note_off,51,819,64,320
10808,3147.333333,note_on,53,0,64,0
10809,3147.333333,note_off,53,0,64,320
10810,3148.0,note_on,48,2047,64,0
10811,3148.0,pitchwheel,48,2047,64,0
10812,3148.0,note_off,48,2047,64,320
10813,3148.666666,note_on,52,2457,64,0
10814,3148.666666,pitchwheel,52,2457,64,0
10815,3148.666666,note_off,52,2457,64,320
10816,3149.333333,note_on,48,3276,64,0
10817,3149.333333,pitchwheel,48,3276,64,0
10818,3149.333333,note_off,48,3276,64,320
10819,3150.0,note_on,47,2047,64,0
10820,3150.0,pitchwheel,47,2047,64,0
10821,3150.0,note_off,47,2047,64,320
10822,3150.666666,note_on,46,0,64,0
10823,3150.666666,note_off,46,0,64,320
10824,3152.0,note_on,47,3685,64,0
10825,3152.0,pitchwheel,47,3685,64,0
10826,3152.0,note_off,47,3685,64,320
10827,3153.333333,note_on,53,0,64,0
10828,3153.333333,note_off,53,0,64,320
10829,3154.0,note_on,50,819,64,0
10830,3154.0,pitchwheel,50,819,64,0
10831,3154.0,note_off,50,819,64,320
10832,3154.666666,note_on,51,819,64,0
10833,3154.666666,pitchwheel,51,819,64,0
10834,3154.666666,note_off,51,819,64,320
10835,3155.333333,note_on,48,819,64,0
10836,3155.333333,pitchwheel,48,819,64,0
10837,3155.333333,note_off,48,819,64,320
10838,3156.0,note_on,48,2047,64,0
10839,3156.0,pitchwheel,48,2047,64,0
10840,3156.0,note_off,48,2047,64,320
10841,3156.666666,note_on,43,0,64,0
10842,3156.666666,note_off,43,0,64,320
10843,3157.333333,note_on,44,0,64,0
10844,3157.333333,note_off,44,0,64,320
10845,3158.0,note_on,45,0,64,0
10846,3158.0,note_off,45,0,64,320
10847,3159.333333,note_on,47,3276,64,0
10848,3159.333333,pitchwheel,47,3276,64,0
10849,3159.333333,note_off,47,3276,64,320
10850,3160.0,note_on,47,3685,64,0
10851,3160.0,pitchwheel,47,3685,64,0
10852,3160.0,note_off,47,3685,64,320
10853,3161.333333,note_on,47,3276,64,0
10854,3161.333333,pitchwheel,47,3276,64,0
10855,3161.333333,note_off,47,3276,64,320
10856,3162.0,note_on,46,409,64,0
10857,3162.0,pitchwheel,46,409,64,0
10858,3162.0,note_off,46,409,64,320
10859,3162.666666,note_on,50,0,64,0
10860,3162.666666,note_off,50,0,64,320
10861,3163.333333,note_on,47,2047,64,0
10862,3163.333333,pitchwheel,47,2047,64,0
10863,3163.333333,note_off,47,2047,64,320
10864,3164.0,note_on,53,1228,64,0
10865,3164.0,pitchwheel,53,1228,64,0
10866,3164.0,note_off,53,1228,64,320
10867,3164.666666,note_on,57,1638,64,0
10868,3164.666666,pitchwheel,57,1638,64,0
10869,3164.666666,note_off,57,1638,64,320
10870,3165.333333,note_on,56,0,64,0
10871,3165.333333,note_off,56,0,64,320
10872,3166.0,note_on,53,0,64,0
10873,3166.0,note_off,53,0,64,320
10874,3166.666666,note_on,57,1638,64,0
10875,3166.666666,pitchwheel,57,1638,64,0
10876,3166.666666,note_off,57,1638,64,320
10877,3167.333333,note_on,60,2047,64,0
10878,3167.333333,pitchwheel,60,2047,64,0
10879,3167.333333,note_off,60,2047,64,320
10880,3168.0,note_on,60,3276,64,0
10881,3168.0,pitchwheel,60,3276,64,0
10882,3168.0,note_off,60,3276,64,320
10883,3168.666666,note_on,62,2457,64,0
10884,3168.666666,pitchwheel,62,2457,64,0
10885,3168.666666,note_off,62,2457,64,320
10886,3169.333333,note_on,57,0,64,0
10887,3169.333333,note_off,57,0,64,320
10888,3170.0,note_on,55,0,64,0
10889,3170.0,note_off,55,0,64,320
10890,3170.666666,note_on,55,409,64,0
10891,3170.666666,pitchwheel,55,409,64,0
10892,3170.666666,note_off,55,409,64,320
10893,3171.333333,note_on,55,1638,64,0
10894,3171.333333,pitchwheel,55,1638,64,0
10895,3171.333333,note_off,55,1638,64,320
10896,3172.0,note_on,55,2866,64,0
10897,3172.0,pitchwheel,55,2866,64,0
10898,3172.0,note_off,55,2866,64,320
10899,3173.333333,note_on,55,0,64,0
10900,3173.333333,note_off,55,0,64,320
10901,3174.0,note_on,50,2457,64,0
10902,3174.0,pitchwheel,50,2457,64,0
10903,3174.0,note_off,50,2457,64,320
10904,3175.333333,note_on,50,819,64,0
10905,3175.333333,pitchwheel,50,819,64,0
10906,3175.333333,note_off,50,819,64,320
10907,3176.0,note_on,50,2457,64,0
10908,3176.0,pitchwheel,50,2457,64,0
10909,3176.0,note_off,50,2457,64,320
10910,3176.666666,note_on,50,3685,64,0
10911,3176.666666,pitchwheel,50,3685,64,0
10912,3176.666666,note_off,50,3685,64,320
10913,3177.333333,note_on,46,0,64,0
10914,3177.333333,note_off,46,0,64,320
10915,3178.666666,note_on,46,1638,64,0
10916,3178.666666,pitchwheel,46,1638,64,0
10917,3178.666666,note_off,46,1638,64,320
10918,3180.0,note_on,48,2047,64,0
10919,3180.0,pitchwheel,48,2047,64,0
10920,3180.0,note_off,48,2047,64,320
10921,3180.666666,note_on,52,2457,64,0
10922,3180.666666,pitchwheel,52,2457,64,0
10923,3180.666666,note_off,52,2457,64,320
10924,3181.333333,note_on,53,2457,64,0
10925,3181.333333,pitchwheel,53,2457,64,0
10926,3181.333333,note_off,53,2457,64,320
10927,3182.0,note_on,48,819,64,0
10928,3182.0,pitchwheel,48,819,64,0
10929,3182.0,note_off,48,819,64,320
10930,3182.666666,note_on,48,2047,64,0
10931,3182.666666,pitchwheel,48,2047,64,0
10932,3182.666666,note_off,48,2047,64,320
10933,3183.333333,note_on,45,1638,64,0
10934,3183.333333,pitchwheel,45,1638,64,0
10935,3183.333333,note_off,45,1638,64,320
10936,3184.0,note_on,47,2457,64,0
10937,3184.0,pitchwheel,47,2457,64,0
10938,3184.0,note_off,47,2457,64,320
10939,3184.666666,note_on,45,0,64,0
10940,3184.666666,note_off,45,0,64,320
10941,3185.333333,note_on,48,2047,64,0
10942,3185.333333,pitchwheel,48,2047,64,0
10943,3185.333333,note_off,48,2047,64,320
10944,3186.0,note_on,43,0,64,0
10945,3186.0,note_off,43,0,64,320
10946,3186.666666,note_on,47,3276,64,0
10947,3186.666666,pitchwheel,47,3276,64,0
10948,3186.666666,note_off,47,3276,64,320
10949,3188.0,note_on,50,3685,64,0
10950,3188.0,pitchwheel,50,3685,64,0
10951,3188.0,note_off,50,3685,64,320
10952,3188.666666,note_on,45,2047,64,0
10953,3188.666666,pitchwheel,45,2047,64,0
10954,3188.666666,note_off,45,2047,64,320
10955,3189.333333,note_on,46,1638,64,0
10956,3189.333333,pitchwheel,46,1638,64,0
10957,3189.333333,note_off,46,1638,64,320
10958,3190.0,note_on,44,2047,64,0
10959,3190.0,pitchwheel,44,2047,64,0
10960,3190.0,note_off,44,2047,64,320
10961,3190.666666,note_on,38,3685,64,0
10962,3190.666666,pitchwheel,38,3685,64,0
10963,3190.666666,note_off,38,3685,64,320
10964,3191.333333,note_on,33,1638,64,0
10965,3191.333333,pitchwheel,33,1638,64,0
10966,3191.333333,note_off,33,1638,64,320
10967,3192.0,note_on,33,2047,64,0
10968,3192.0,pitchwheel,33,2047,64,0
10969,3192.0,note_off,33,2047,64,320
10970,3192.666666,note_on,29,0,64,0
10971,3192.666666,note_off,29,0,64,320
10972,3193.333333,note_on,38,1228,64,0
10973,3193.333333,pitchwheel,38,1228,64,0
10974,3193.333333,note_off,38,1228,64,320
10975,3194.0,note_on,43,409,64,0
10976,3194.0,pitchwheel,43,409,64,0
10977,3194.0,note_off,43,409,64,320
10978,3194.666666,note_on,45,3276,64,0
10979,3194.666666,pitchwheel,45,3276,64,0
10980,3194.666666,note_off,45,3276,64,320
10981,3195.333333,note_on,41,0,64,0
10982,3195.333333,note_off,41,0,64,320
10983,3196.0,note_on,46,409,64,0
10984,3196.0,pitchwheel,46,409,64,0
10985,3196.0,note_off,46,409,64,320
10986,3196.666666,note_on,47,3276,64,0
10987,3196.666666,pitchwheel,47,3276,64,0
10988,3196.666666,note_off,47,3276,64,320
10989,3197.333333,note_on,46,1638,64,0
10990,3197.333333,pitchwheel,46,1638,64,0
10991,3197.333333,note_off,46,1638,64,320
10992,3198.0,note_on,43,1638,64,0
10993,3198.0,pitchwheel,43,1638,64,0
10994,3198.0,note_off,43,1638,64,320
10995,3198.666666,note_on,43,2866,64,0
10996,3198.666666,pitchwheel,43,2866,64,0
10997,3198.666666,note_off,43,2866,64,320
